<?xml version="1.0" encoding="utf-8"?>
<!-- Generator: Adobe Illustrator 16.0.0, SVG Export Plug-In . SVG Version: 6.00 Build 0)  -->
<!DOCTYPE svg PUBLIC "-//W3C//DTD SVG 1.1//EN" "http://www.w3.org/Graphics/SVG/1.1/DTD/svg11.dtd">
<svg version="1.1" id="Layer_1" xmlns="http://www.w3.org/2000/svg" xmlns:xlink="http://www.w3.org/1999/xlink" x="0px" y="0px"
	 width="124px" height="124px" viewBox="0 0 124 124" enable-background="new 0 0 124 124" xml:space="preserve">
<circle fill="#EC0044" cx="62" cy="62" r="62"/>
<g>
	<path fill-rule="evenodd" clip-rule="evenodd" fill="#FFFFFF" d="M39.104,68.917c0-2.274,0-4.401,0-6.59c17.396,0,34.707,0,52.13,0
		c0,2.202,0,4.355,0,6.618c2.502-0.678,4.873-1.336,7.256-1.953c1.51-0.394,3.107,0.221,3.939,1.453
		c1.441,2.125,0.488,4.934-2.004,5.683c-2.684,0.806-5.393,1.534-8.109,2.219c-0.873,0.218-1.145,0.595-1.125,1.488
		c0.066,2.807,0.033,5.614,0.045,8.421c0.02,4.511-2.549,7.115-7.053,7.138c-1.252,0.004-2.502,0.002-3.752,0.002
		c-11.504-0.007-23.006-0.082-34.51,0.026c-3.771,0.035-7.051-2.787-6.842-6.973c0.152-2.982,0.018-5.979,0.044-8.969
		c0.005-0.55-0.163-0.81-0.704-0.953c-2.732-0.729-5.458-1.501-8.194-2.236c-1.936-0.518-3.135-1.94-3.126-3.776
		c0.006-1.645,1.211-3.196,2.906-3.533c0.687-0.137,1.461-0.051,2.152,0.119c2.039,0.497,4.058,1.092,6.085,1.643
		C38.47,68.807,38.703,68.838,39.104,68.917z"/>
	<path fill-rule="evenodd" clip-rule="evenodd" fill="#FFFFFF" d="M51.558,44.108c1.875,0.539,2.943-0.225,3.93-2.223
		c2.305-4.668,7.829-7.023,13.022-6.007c5.137,1.004,9.199,5.268,9.779,10.413c0.141,1.252,0.562,1.77,1.812,2.188
		c3.658,1.227,7.25,2.658,10.826,4.119c1.727,0.705,2.393,2.241,1.902,3.763c-0.5,1.555-1.848,2.325-3.701,2.045
		c-7.531-1.131-15.062-2.287-22.596-3.425c-7.081-1.068-14.163-2.123-21.243-3.186c-1.478-0.221-2.955-0.449-4.426-0.698
		c-1.68-0.279-2.768-1.481-2.768-3.014c-0.002-1.457,1.102-2.737,2.713-2.999c1.741-0.283,3.496-0.535,5.257-0.693
		C47.826,44.231,49.596,44.202,51.558,44.108z M73.154,46.538c-0.664-3.298-3.279-5.545-6.666-5.764
		c-2.744-0.176-5.84,1.583-6.53,3.692C64.336,45.153,68.713,45.843,73.154,46.538z"/>
	<path fill-rule="evenodd" clip-rule="evenodd" fill="#FFFFFF" d="M62.912,26.226c-2.121-1.812-4.408-3.114-7.16-3.554
		c-6.382-1.019-12.507,2.812-14.257,9.005c-0.24,0.838-0.581,1.049-1.422,1.074c-7.034,0.215-12.733,6.641-12.194,13.655
		c0.411,5.321,3.131,9.02,8.007,11.419c-0.265,0-0.388,0.016-0.502-0.004c-0.152-0.026-0.295-0.088-0.44-0.126
		c-7.303-1.852-11.97-8.002-11.705-15.628c0.244-7.117,5.643-13.068,12.395-14.242c0.632-0.109,1.039-0.365,1.378-0.981
		c5.427-9.808,18.988-10.565,25.379-1.438C62.577,25.669,62.737,25.951,62.912,26.226z"/>
</g>
</svg>
