<?xml version="1.0" encoding="utf-8"?>
<!-- Generator: Adobe Illustrator 16.0.0, SVG Export Plug-In . SVG Version: 6.00 Build 0)  -->
<!DOCTYPE svg PUBLIC "-//W3C//DTD SVG 1.1//EN" "http://www.w3.org/Graphics/SVG/1.1/DTD/svg11.dtd">
<svg version="1.1" id="Layer_1" xmlns="http://www.w3.org/2000/svg" xmlns:xlink="http://www.w3.org/1999/xlink" x="0px" y="0px"
	 width="124px" height="124px" viewBox="0 0 124 124" enable-background="new 0 0 124 124" xml:space="preserve">
<circle fill="#BCB21F" cx="62" cy="62" r="62"/>
<g>
	<path fill-rule="evenodd" clip-rule="evenodd" fill="#FFFFFF" d="M76.944,45.527c0-1.715,0-3.385,0-5.056c0-1.642,0-3.284,0-5.005
		c-0.322-0.015-0.584-0.037-0.846-0.037c-10.063-0.004-20.129-0.006-30.193-0.011c-1.042-0.001-1.031-0.011-1.031,1.013
		c0.003,9.146,0,18.295,0,27.442c0,6.475,0.01,12.952-0.016,19.427c-0.002,0.691,0.238,0.856,0.893,0.854
		c10.173-0.018,20.344-0.013,30.518-0.015c0.185,0,0.369-0.024,0.653-0.047c0-1.141,0-2.254,0-3.493
		c1.69,0.623,3.259,1.184,4.808,1.792c0.175,0.067,0.349,0.396,0.351,0.605c0.024,2.644,0.088,5.29,0.005,7.932
		c-0.124,3.91-2.785,6.448-6.711,6.479c-3.373,0.028-6.745,0.006-10.12,0.004c-6.206-0.002-12.412-0.02-18.618-0.002
		c-4.147,0.013-6.928-2.789-6.926-6.957c0.011-14.871,0-29.74-0.002-44.609c0-4.832-0.01-9.662,0.015-14.493
		c0.016-3.236,1.86-5.771,4.8-6.493c0.979-0.242,2.031-0.257,3.049-0.258c9.283-0.016,18.567-0.014,27.852,0.004
		c3.128,0.008,5.561,1.758,6.393,4.611c0.214,0.738,0.265,1.543,0.27,2.317c0.025,3.751,0,7.503,0.025,11.252
		c0.003,0.548-0.187,0.79-0.664,1.025c-0.621,0.304-1.325,0.644-1.715,1.171C78.942,46.042,78.038,45.865,76.944,45.527z
		 M60.884,31.992c0,0,0,0.002,0,0.004c1.374,0,2.75,0.025,4.121-0.01c0.839-0.023,1.346-0.537,1.332-1.224
		c-0.011-0.663-0.479-1.161-1.295-1.171c-2.775-0.033-5.552-0.042-8.326-0.002c-0.883,0.013-1.415,0.824-1.148,1.568
		c0.242,0.672,0.814,0.822,1.434,0.83C58.295,32.004,59.587,31.992,60.884,31.992z M63.995,90.22c0-1.543-1.246-2.813-2.757-2.815
		c-1.504-0.005-2.794,1.288-2.792,2.791c0.005,1.521,1.264,2.748,2.816,2.746C62.762,92.941,63.997,91.71,63.995,90.22z"/>
	<path fill-rule="evenodd" clip-rule="evenodd" fill="#FFFFFF" d="M72.933,54.903c-0.033-1.092-0.255-2.078-0.053-2.968
		c0.57-2.499,3.593-3.485,5.594-1.881c0.83,0.668,1.562,1.461,2.25,2.114c-0.079-0.784-0.295-1.63-0.213-2.444
		c0.134-1.373,0.983-2.318,2.283-2.777c1.355-0.479,2.624-0.223,3.678,0.762c0.681,0.638,1.277,1.364,2.046,2.197
		c-0.147-1.044-0.386-1.809-0.333-2.555c0.098-1.402,0.883-2.433,2.204-2.941c1.299-0.5,2.582-0.358,3.63,0.605
		c1.311,1.203,2.555,2.479,3.813,3.738c3.415,3.415,6.833,6.825,10.224,10.262c2.609,2.642,2.585,5.717-0.028,8.337
		c-4.729,4.733-9.474,9.453-14.187,14.204c-0.856,0.863-1.695,1.121-2.893,0.679c-8.182-3.034-16.384-6.013-24.578-9.007
		c-1.008-0.365-1.741-0.981-1.885-2.103c-0.156-1.222,0.467-2.056,1.422-2.701c0.853-0.574,1.797-0.751,2.783-0.526
		c0.942,0.216,1.862,0.531,2.798,0.781c0.909,0.242,1.825,0.461,2.739,0.689c0.605,0.152,1.143,0.066,1.459-0.532
		c0.312-0.588,0.105-1.086-0.339-1.526c-2.461-2.461-4.92-4.925-7.38-7.386c-3.165-3.168-6.34-6.325-9.494-9.504
		c-1.528-1.541-1.576-3.778-0.15-5.211c1.458-1.466,3.688-1.409,5.271,0.165c2.812,2.798,5.612,5.603,8.407,8.416
		C72.343,54.135,72.627,54.535,72.933,54.903z"/>
</g>
</svg>
