<?xml version="1.0" encoding="utf-8"?>
<!-- Generator: Adobe Illustrator 16.0.3, SVG Export Plug-In . SVG Version: 6.00 Build 0)  -->
<!DOCTYPE svg PUBLIC "-//W3C//DTD SVG 1.1//EN" "http://www.w3.org/Graphics/SVG/1.1/DTD/svg11.dtd">
<svg version="1.1" id="Layer_1" xmlns="http://www.w3.org/2000/svg" xmlns:xlink="http://www.w3.org/1999/xlink" x="0px" y="0px"
	 width="150.001px" height="150px" viewBox="0 0 150.001 150" enable-background="new 0 0 150.001 150" xml:space="preserve">
<g>
	<path fill-rule="evenodd" clip-rule="evenodd" fill="#212944" d="M149.865,76.536c-0.17-0.299-0.592-0.814-1.652-0.814
		c-0.188,0-0.357,0.018-0.563,0.041l-1.705,0.234l3.463-6.193c0.598-1.061,0.463-1.752,0.223-2.133
		c-0.141-0.264-0.533-0.709-1.412-0.709c-0.293,0-0.574,0.047-0.902,0.129l-1.16,0.305c-0.012,0.012-0.018,0.012-0.059,0.012
		l-0.469,0.129l2.672-6.516c0.434-1.066,0.246-1.711,0.023-2.057c-0.434-0.65-1.342-0.803-2.438-0.369l-1.641,0.656l1.852-6.797
		c0.293-1.078,0.047-1.676-0.211-2.004c-0.463-0.633-1.418-0.703-2.473-0.117l-1.049,0.568c-0.012,0.006-0.023,0.018-0.023,0.018
		l-0.574,0.316l1.031-7.102c0.146-1.031-0.111-1.594-0.375-1.898c-0.574-0.621-1.547-0.604-2.555,0.129l-0.961,0.697
		c-0.023,0.006-0.047,0.018-0.047,0.023l-0.527,0.381c-0.012,0-0.029,0.006-0.035,0.012l0.152-7.33
		c0.006-0.785-0.152-1.395-0.527-1.775c-0.27-0.27-0.609-0.398-0.973-0.398c-0.516,0-1.066,0.252-1.629,0.762l-0.861,0.809
		c-0.018,0.023-0.047,0.023-0.047,0.035l-0.469,0.445c-0.023,0.006-0.047,0.012-0.059,0.035l-0.75-7.411
		c-0.188-1.846-1.26-1.998-1.594-1.998c-0.387,0-0.996,0.176-1.664,0.984l-0.773,0.902c0,0.012-0.006,0.023-0.035,0.035
		l-0.428,0.504c0,0.018-0.035,0.023-0.059,0.035l-1.646-7.266c-0.369-1.611-1.271-1.793-1.658-1.793
		c-0.416,0-1.061,0.211-1.711,1.195l-1.037,1.57c0,0.023-0.018,0.029-0.041,0.047l-2.525-7.008
		c-0.492-1.389-1.283-1.588-1.699-1.588c-0.375,0-1.102,0.182-1.734,1.4l-0.809,1.688c-0.006,0.018-0.035,0.035-0.059,0.047
		l-3.369-6.639c-0.597-1.213-1.323-1.389-1.698-1.389c-0.422,0-1.207,0.211-1.711,1.605l-0.609,1.787c0,0.018,0,0.029-0.035,0.047
		l-4.148-6.193c-0.639-0.961-1.295-1.16-1.705-1.16c-0.375,0-1.295,0.176-1.67,1.805l-0.387,1.846
		c-0.012,0.018-0.012,0.041-0.023,0.064L95.432,3.54c-0.703-0.809-1.289-0.973-1.688-0.973c-0.322,0-1.389,0.141-1.576,2.016
		l-0.111,1.16c0,0.023-0.006,0.041-0.012,0.064l-0.059,0.645c0,0.018-0.006,0.029-0.006,0.041l-5.508-4.98
		c-0.961-0.879-1.963-0.984-2.584-0.357c-0.375,0.381-0.539,1.002-0.527,1.787l0.053,1.219c0,0.006,0,0.023,0,0.035l0.006,0.527
		l-5.906-4.16c-1.014-0.727-1.998-0.738-2.549-0.105c-0.246,0.287-0.519,0.861-0.354,1.904l0.179,1.172c0,0.018,0,0.035,0.006,0.053
		l0.076,0.48l-6.24-3.352c-1.081-0.568-2.019-0.504-2.505,0.141c-0.234,0.328-0.486,0.932-0.182,2.004l0.328,1.137
		c0.006,0.012,0.012,0.035,0.023,0.047l0.129,0.48l-6.563-2.543c-1.084-0.422-1.975-0.275-2.417,0.369
		c-0.229,0.352-0.416,1.002,0.026,2.086l0.469,1.078c0,0.018,0,0.029,0.018,0.041l0.217,0.527L51.32,4.349
		c-0.316-0.082-0.609-0.117-0.87-0.117c-0.891,0-1.301,0.434-1.453,0.709c-0.217,0.381-0.363,1.072,0.252,2.133l0.932,1.623
		l-7.137-0.902c-1.447-0.176-2.01,0.439-2.191,0.797c-0.182,0.34-0.334,1.078,0.463,2.156l0.709,0.949
		c0.006,0.012,0.018,0.029,0.029,0.035l0.387,0.533c0.012,0.012,0.023,0.029,0.035,0.041l-7.4-0.023c-1.4,0-1.887,0.615-2.027,0.985
		c-0.155,0.363-0.284,1.137,0.691,2.156l0.82,0.85c0.012,0.018,0.023,0.029,0.035,0.041l0.457,0.469
		c0.006,0.023,0.023,0.047,0.035,0.059l-7.412,0.885c-1.406,0.164-1.796,0.838-1.901,1.213c-0.117,0.398-0.152,1.172,0.958,2.068
		l0.902,0.744c0.006,0.012,0.029,0.018,0.035,0.023l0.521,0.422c0.012,0.018,0.023,0.035,0.035,0.059l-7.236,1.775
		c-1.371,0.334-1.688,1.043-1.746,1.447c-0.07,0.387,0.006,1.166,1.184,1.928l1.008,0.627c0.012,0.006,0.029,0.023,0.035,0.029
		l0.563,0.346c0.023,0.012,0.035,0.023,0.047,0.047L15.1,31.103c-1.313,0.492-1.523,1.242-1.547,1.652
		c-0.023,0.393,0.146,1.153,1.43,1.763l1.063,0.498c0.018,0,0.029,0.018,0.041,0.018l0.598,0.287
		c0.012,0.006,0.035,0.023,0.059,0.041l-6.604,3.475c-1.248,0.656-1.374,1.43-1.351,1.822c0.035,0.404,0.296,1.137,1.644,1.582
		l1.113,0.369c0.012,0.012,0.023,0.012,0.041,0.012l0.63,0.205c0.023,0.029,0.035,0.029,0.059,0.041l-6.111,4.254
		c-1.169,0.809-1.21,1.582-1.116,1.98c0.07,0.381,0.419,1.078,1.808,1.371l1.148,0.223c0.012,0.006,0.041,0.006,0.047,0.006
		l0.645,0.129c0.023,0.006,0.041,0.018,0.07,0.023l-5.563,4.975c-1.043,0.938-0.99,1.717-0.861,2.098
		c0.129,0.387,0.545,1.037,1.969,1.131l1.175,0.088c0.012,0.006,0.029,0.012,0.029,0.012l0.674,0.035
		c0.006,0.012,0.018,0.012,0.023,0.018l-4.881,5.572c-0.908,1.043-0.773,1.793-0.621,2.156c0.176,0.369,0.633,0.984,2.112,0.92
		l1.184-0.064c0.006,0,0.012,0,0.035,0l0.551-0.023L0.54,73.723c-0.744,1.096-0.557,1.816-0.381,2.15
		c0.152,0.305,0.563,0.785,1.582,0.785c0.202,0,0.425-0.012,0.659-0.064l1.143-0.199c0.018,0,0.041,0,0.053-0.006l0.492-0.082
		L0.862,82.6c-0.563,1.072-0.398,1.74-0.176,2.115c0.393,0.633,1.257,0.838,2.353,0.51l1.143-0.346c0,0,0.023,0,0.035,0l0.492-0.152
		l-2.414,6.598c-0.407,1.066-0.205,1.711,0.023,2.039c0.457,0.65,1.371,0.773,2.455,0.293l1.075-0.469
		c0.018-0.006,0.023-0.012,0.041-0.018l0.533-0.234l-1.62,6.885c-0.246,1.055-0.012,1.664,0.252,1.969
		c0.489,0.645,1.45,0.691,2.517,0.059l1.014-0.604c0.018-0.006,0.029-0.018,0.041-0.023l0.565-0.346l0,0l-0.776,7.184
		c-0.1,0.809,0.053,1.453,0.41,1.863c0.571,0.633,1.562,0.586,2.558-0.199l0.964-0.727c0,0,0.006-0.012,0.012-0.023l0.533-0.398
		c0.018-0.023,0.029-0.023,0.047-0.029l0.111,7.389c0.023,1.57,0.785,2.133,1.512,2.133c0.533,0,1.078-0.27,1.655-0.838l0.832-0.832
		c0.006-0.006,0.006-0.012,0.023-0.018l0.469-0.469c0.023-0.012,0.041-0.023,0.053-0.047l1.02,7.383
		c0.246,1.805,1.286,1.934,1.603,1.934c0.398,0,1.02-0.176,1.711-1.031l0.715-0.926c0.018-0.012,0.023-0.023,0.029-0.035
		l0.419-0.516c0.012-0.023,0.035-0.035,0.059-0.047l1.887,7.195c0.422,1.57,1.321,1.746,1.679,1.746c0.439,0,1.09-0.223,1.717-1.254
		l0.615-1.002c0-0.018,0.006-0.029,0.012-0.029l0.34-0.58c0.029-0.012,0.035-0.029,0.059-0.041l2.769,6.914
		c0.539,1.33,1.292,1.535,1.702,1.535c0.398,0,1.148-0.199,1.723-1.465l0.48-1.066c0-0.018,0-0.035,0.012-0.047l0.293-0.604
		c0-0.018,0.006-0.041,0.023-0.053l3.592,6.527c0.598,1.09,1.266,1.318,1.723,1.318c0.352,0,1.219-0.158,1.688-1.67l0.343-1.113
		c0.012-0.018,0.018-0.035,0.018-0.053l0.193-0.633c0.012-0.018,0.012-0.029,0.041-0.059l3.923,5.449
		c2.581-2.807,6.287-4.57,10.415-4.57c6.674,0,12.243,4.623,13.734,10.834h4.058c1.488-6.211,7.084-10.834,13.746-10.834
		c3.393,0,6.498,1.184,8.941,3.17l5.836,0.949c0.199,0.035,0.41,0.053,0.609,0.053c1.031,0,1.453-0.51,1.605-0.791
		c0.17-0.34,0.357-1.072-0.404-2.15l-1.096-1.553c0-0.012,0-0.023,0-0.041l7.317,0.287c1.424,0.059,1.934-0.574,2.092-0.938
		c0.176-0.352,0.293-1.113-0.639-2.156l-0.75-0.832c-0.012-0.047-0.059-0.105-0.117-0.146l-0.398-0.428c0-0.018,0-0.041-0.012-0.053
		l7.424-0.633c1.412-0.117,1.834-0.768,1.939-1.154c0.135-0.381,0.199-1.154-0.879-2.092l-0.838-0.744
		c-0.047-0.047-0.088-0.07-0.146-0.117l-0.428-0.375c-0.012-0.023-0.023-0.047-0.023-0.059l7.271-1.523
		c1.406-0.293,1.729-0.996,1.811-1.383c0.07-0.398,0.047-1.178-1.143-1.969l-0.973-0.662c0-0.018-0.018-0.018-0.029-0.029
		l-0.539-0.363c-0.018-0.023-0.053-0.041-0.064-0.047l7.066-2.414c1.342-0.457,1.564-1.195,1.617-1.594
		c0.012-0.404-0.105-1.166-1.365-1.816l-1.688-0.855c-0.012-0.012-0.035-0.035-0.035-0.041l6.721-3.252
		c1.254-0.609,1.412-1.377,1.395-1.77c-0.012-0.41-0.258-1.154-1.564-1.641l-1.775-0.656c-0.029-0.006-0.035-0.035-0.064-0.035
		l6.281-4.043c1.184-0.762,1.248-1.523,1.172-1.928c-0.07-0.404-0.387-1.107-1.764-1.436l-1.834-0.434
		c-0.018-0.006-0.053-0.012-0.059-0.023l5.73-4.764c1.066-0.908,1.055-1.688,0.932-2.068c-0.123-0.387-0.521-1.055-1.916-1.219
		l-1.887-0.188c-0.006-0.023-0.047-0.023-0.047-0.035l5.086-5.426c0.961-1.02,0.844-1.805,0.691-2.156
		c-0.164-0.363-0.621-0.973-2.01-0.973h-0.053l-1.184,0.023c-0.035,0-0.059,0-0.064,0h-0.568l4.295-5.854
		C150.193,77.62,150.029,76.887,149.865,76.536z M88.477,130.465c-3.24,8.865-13.77,9.574-14.956,9.633c-0.023,0-0.059,0-0.082,0
		h-0.152c-0.029,0-0.059,0-0.059,0c-1.195-0.059-11.728-0.768-14.977-9.633c-1.726-4.688-5.033-6.563-11.036-9.961
		c-3.814-2.168-8.563-4.852-14.499-9.164c-8.736-6.352-12.606-19.488-9.023-30.574c2.997-9.234,10.175-14.561,19.714-14.602h0.135
		c17.725,0,26.555,15.258,29.827,22.746c3.267-7.488,12.114-22.746,29.827-22.746h0.129c9.544,0.041,16.722,5.367,19.728,14.602
		c3.574,11.086-0.316,24.223-9.047,30.574c-5.911,4.313-10.669,6.996-14.478,9.164C93.522,123.903,90.211,125.778,88.477,130.465z"
		/>
	<path fill-rule="evenodd" clip-rule="evenodd" fill="#EFCAA9" d="M120,81.75c-2.52-7.84-8.606-12.369-16.687-12.398h-0.117
		c-20.625,0-27.996,23.496-28.313,24.504c-0.205,0.668-0.823,1.125-1.515,1.125c-0.715,0-1.324-0.457-1.535-1.125
		c-0.293-1.008-7.649-24.504-28.292-24.504h-0.117c-8.08,0.029-14.168,4.559-16.693,12.398c-3.173,9.826,0.199,21.434,7.863,27
		c5.795,4.219,10.45,6.844,14.186,8.977c6.223,3.527,10.351,5.848,12.469,11.648c0.369,1.02,0.879,1.893,1.471,2.654
		c-0.023-0.205-0.035-0.416-0.035-0.627c0-3.703,4.146-6.035,5.531-6.797c2.127-1.195,4.251-1.98,4.339-2.016
		c0.357-0.135,0.727-0.211,1.084-0.211c0.398,0,0.773,0.076,1.14,0.211c0.082,0.035,2.191,0.82,4.339,2.016
		c1.351,0.75,5.329,2.988,5.511,6.563c0.34-0.551,0.621-1.137,0.855-1.793c2.127-5.801,6.24-8.121,12.457-11.648
		c3.768-2.133,8.408-4.758,14.202-8.977C119.789,103.184,123.193,91.577,120,81.75z M55.864,113.204c-4.134,0-7.5-3.363-7.5-7.5
		s3.366-7.5,7.5-7.5c4.122,0,7.506,3.363,7.506,7.5S59.986,113.204,55.864,113.204z M91.723,113.204c-4.125,0-7.506-3.363-7.506-7.5
		s3.381-7.5,7.506-7.5c4.148,0,7.506,3.363,7.506,7.5S95.872,113.204,91.723,113.204z"/>
	<path fill-rule="evenodd" clip-rule="evenodd" fill="#212944" d="M73.638,125.573c0,0-7.775,2.889-7.775,5.83
		c0,2.953,3.489,5.332,7.775,5.332c4.327,0,7.813-2.379,7.813-5.332C81.452,128.461,73.638,125.573,73.638,125.573z"/>
	<path fill-rule="evenodd" clip-rule="evenodd" fill="#212944" d="M55.864,101.397c-2.382,0-4.31,1.934-4.31,4.307
		c0,2.379,1.928,4.307,4.31,4.307c2.376,0,4.31-1.928,4.31-4.307C60.173,103.331,58.24,101.397,55.864,101.397z"/>
	<path fill-rule="evenodd" clip-rule="evenodd" fill="#212944" d="M91.723,101.397c-2.367,0-4.313,1.934-4.313,4.307
		c0,2.379,1.945,4.307,4.313,4.307c2.385,0,4.307-1.928,4.307-4.307C96.03,103.331,94.108,101.397,91.723,101.397z"/>
	<path fill-rule="evenodd" clip-rule="evenodd" fill="#EFCAA9" d="M58.392,142.266c-1.679,0-3.249,0.381-4.67,1.055
		c-2.754,1.295-4.878,3.715-5.81,6.68h20.93c-0.012-0.035-0.012-0.064-0.035-0.094C67.41,145.483,63.27,142.266,58.392,142.266z"/>
	<path fill-rule="evenodd" clip-rule="evenodd" fill="#EFCAA9" d="M89.93,142.266c-3.205,0-6.105,1.395-8.092,3.598
		c-0.445,0.492-0.844,1.008-1.189,1.57c-0.486,0.762-0.861,1.594-1.16,2.473c0,0.029-0.006,0.059-0.012,0.094h20.924
		c-0.451-1.412-1.172-2.707-2.098-3.82C96.311,143.79,93.282,142.266,89.93,142.266z"/>
</g>
</svg>
