<?xml version="1.0" encoding="utf-8"?>
<!-- Generator: Adobe Illustrator 18.0.0, SVG Export Plug-In . SVG Version: 6.00 Build 0)  -->
<!DOCTYPE svg PUBLIC "-//W3C//DTD SVG 1.1//EN" "http://www.w3.org/Graphics/SVG/1.1/DTD/svg11.dtd">
<svg version="1.1" id="Layer_1" xmlns="http://www.w3.org/2000/svg" xmlns:xlink="http://www.w3.org/1999/xlink" x="0px" y="0px"
	 viewBox="0 0 128 128" enable-background="new 0 0 128 128" xml:space="preserve">
<g>
	<g>
		<circle fill="#EAA936" cx="64.3" cy="64.3" r="63.7"/>
	</g>
	<g>
		<g>
			<path fill="#F4C151" d="M63.2,120.2c-31.4,0-56.9-25.5-56.9-56.9c0-31.4,25.5-56.9,56.9-56.9c31.4,0,56.9,25.5,56.9,56.9
				C120.2,94.6,94.6,120.2,63.2,120.2z"/>
		</g>
		<g>
			<path fill="#FFE18D" d="M63.2,12.6c27.9,0,50.6,22.7,50.6,50.6c0,27.9-22.7,50.6-50.6,50.6c-27.9,0-50.6-22.7-50.6-50.6
				C12.6,35.3,35.3,12.6,63.2,12.6 M63.2,0C46.3,0,30.5,6.6,18.5,18.5C6.6,30.5,0,46.4,0,63.2C0,80.1,6.6,96,18.5,108
				s27.8,18.5,44.7,18.5c16.9,0,32.8-6.6,44.7-18.5s18.5-27.8,18.5-44.7c0-16.9-6.6-32.8-18.5-44.7C96,6.6,80.1,0,63.2,0L63.2,0z"/>
		</g>
	</g>
	<g>
		<path fill="#F4C151" d="M54.9,3.6c0-0.3,0.2-0.6,0.6-0.7c0.4,0,0.7,0.2,0.7,0.5c0,0.3-0.2,0.6-0.6,0.7C55.2,4.2,54.9,3.9,54.9,3.6
			z M56.5,9.8l-0.6-5.2l1.3-0.1l0.6,5.2L56.5,9.8z M56.6,3.4c0-0.3,0.2-0.6,0.6-0.7c0.4,0,0.7,0.2,0.7,0.5c0,0.3-0.2,0.6-0.6,0.7
			C57,4,56.7,3.7,56.6,3.4z"/>
		<path fill="#F4C151" d="M61.5,7.1l-0.5,0L60,9.4l-1.3,0L60,6.6l-1.4-2.4l1.2,0l1.1,2l0.4,0l0-2.1l1.2,0l0,2.1l0.4,0l1.1-2.1l1.2,0
			l-1.3,2.4l1.5,2.8l-1.4,0l-1.2-2.3l-0.5,0l0.1,2.3l-1.2,0L61.5,7.1z"/>
		<path fill="#F4C151" d="M69.1,8.5l-1.5-0.1l-0.4,1.1l-1.3-0.1L68,4.3l1.5,0.1l1.1,5.4l-1.3-0.1L69.1,8.5z M67.9,7.5L69,7.6
			l-0.3-2.3l0,0L67.9,7.5z"/>
	</g>
	<g>
		<path fill="#F4C151" d="M57.7,121l0.5,0.8c-0.4,0.3-1,0.6-1.8,0.5c-1.4-0.2-2.2-1.2-2-3c0.2-1.8,1.4-2.6,2.7-2.4
			c0.7,0.1,1.2,0.4,1.6,0.8l-0.7,0.6c-0.2-0.3-0.5-0.4-0.9-0.5c-0.7-0.1-1.2,0.4-1.4,1.7c-0.2,1.3,0.2,1.8,0.9,1.9
			C57.1,121.4,57.4,121.2,57.7,121z"/>
		<path fill="#F4C151" d="M61.6,122.6c-1.5,0-2.3-1.1-2.3-2.8c0-1.7,1-2.7,2.4-2.7c1.5,0,2.3,1.1,2.3,2.8
			C64,121.7,63.1,122.7,61.6,122.6z M61.8,118c-0.7,0-1.1,0.5-1.1,1.8c0,1.3,0.3,1.9,1,1.9c0.7,0,1.1-0.5,1.1-1.8
			C62.8,118.6,62.5,118.1,61.8,118z"/>
		<path fill="#F4C151" d="M65.7,122.5l-0.3-5.3l1.3-0.1l0.3,5.3L65.7,122.5z"/>
		<path fill="#F4C151" d="M71.3,122l-2-3.8l0,0c0.1,0.3,0.3,1.1,0.5,2l0.3,1.9l-1.1,0.1l-0.7-5.2l1.6-0.2l2,3.8l0,0
			c-0.1-0.4-0.3-1-0.4-2l-0.3-2l1.1-0.1l0.7,5.2L71.3,122z"/>
	</g>
	<g>
		<path fill="#EAA936" d="M15.2,65.8c0-27.9,22.7-50.6,50.6-50.6c13.3,0,25.4,5.2,34.5,13.6c-9.2-9.9-22.4-16.1-37-16.1
			c-27.9,0-50.6,22.7-50.6,50.6c0,14.6,6.2,27.8,16.1,37C20.3,91.2,15.2,79.1,15.2,65.8z"/>
	</g>
	<g>
		<g>
			<path fill-rule="evenodd" clip-rule="evenodd" fill="#EAA936" d="M97.1,64.9c-0.1-0.1-0.3-0.4-0.7-0.4c-0.1,0-0.2,0-0.2,0
				l-0.7,0.1l1.5-2.7c0.3-0.5,0.2-0.8,0.1-0.9c-0.1-0.1-0.2-0.3-0.6-0.3c-0.1,0-0.3-0.2-0.4-0.2l-0.5-0.1c0,0,0,0,0,0l-0.2,0.3
				l1.2-2.8c0.2-0.5,0.1-0.7,0-0.8c-0.2-0.3-0.6-0.3-1.1-0.1l-0.7,0.3l0.8-3c0.1-0.5,0-0.7-0.1-0.9c-0.2-0.3-0.6-0.3-1.1-0.1
				l-0.5,0.3c0,0,0,0,0,0l-0.3,0.1l0.5-3.1c0.1-0.5,0-0.7-0.2-0.8c-0.2-0.3-0.7-0.3-1.1,0.1l-0.4,0.3c0,0,0-0.5,0-0.5L92,49.5
				c0,0,0,0,0,0l0.1-2.7c0-0.3-0.1-0.4-0.2-0.6c-0.1-0.1-0.3-0.1-0.4-0.1c-0.2,0-0.5,0.2-0.7,0.4l-0.4,0.4c0,0,0,0,0,0l-0.2,0.2
				c0,0,0,0,0,0l-0.3-3.3c-0.1-0.8-0.5-0.9-0.7-0.9c-0.2,0-0.4,0.1-0.7,0.4L88,43.9c0,0,0,0,0,0l-0.2,0.2c0,0,0,0,0,0L87,40.9
				c-0.2-0.7-0.6-0.8-0.7-0.8c-0.2,0-0.5,0.1-0.8,0.5l-0.5,0.7c0,0,0,0,0,0L84,38.3c-0.2-0.6-0.6-0.7-0.7-0.7
				c-0.2,0-0.5,0.1-0.8,0.6L82.1,39c0,0,0,0,0,0l-1.5-2.9c-0.3-0.5-0.6-0.6-0.7-0.6c-0.2,0-0.5,0.1-0.8,0.7L78.8,37c0,0,0,0,0,0
				L77,34.3c-0.3-0.4-0.6-0.5-0.8-0.5c-0.2,0-0.6,0.1-0.7,0.8l-0.2,0.8c0,0,0,0,0,0l-2.1-2.5c-0.3-0.4-0.6-0.4-0.7-0.4
				c-0.1,0-0.6,0.1-0.7,0.9l0,0.5c0,0,0.2,0,0.2,0l0.2,0.3c0,0,0,0,0,0L69.5,32c-0.4-0.4-1-0.4-1.2-0.2c-0.2,0.2-0.7,0.4-0.7,0.8
				l-0.4,0.5c0,0,0,0,0,0l0.4,0.2l-2.4-1.8c-0.4-0.3-0.8-0.3-1,0c-0.1,0.1-0.2,0.4-0.1,0.8l0.1,0.5c0,0,0,0,0,0l0,0.2l-2.7-1.5
				c-0.5-0.3-0.9-0.2-1.1,0.1c-0.1,0.1-0.2,0.4-0.1,0.9l0.1,0.5c0,0,0,0,0,0l0.1,0.2l-2.9-1.1c-0.5-0.2-0.9-0.1-1.1,0.2
				c-0.1,0.2-0.2,0.4,0,0.9l0.2,0.5c0,0,0,0,0,0l0.1,0.2l-3-0.8c-0.1,0-0.3-0.1-0.4-0.1c-0.4,0-0.6,0.2-0.6,0.3
				c-0.1,0.2-0.2,0.5,0.1,0.9l0.4,0.7l-3.1-0.4c-0.6-0.1-0.9,0.2-1,0.3c-0.1,0.1-0.1,0.5,0.2,0.9l0.3,0.4c0,0,0,0,0,0l0.2,0.2
				c0,0,0,0,0,0l-3.2,0c-0.6,0-0.8,0.3-0.9,0.4c-0.1,0.2-0.1,0.5,0.3,0.9l0.4,0.4c0,0,0,0,0,0l0.2,0.2c0,0,0,0,0,0l-3.2,0.4
				c-0.6,0.1-0.8,0.4-0.8,0.5c-0.1,0.2-0.1,0.5,0.4,0.9l0.4,0.3c0,0,0,0,0,0l0.2,0.2c0,0,0,0,0,0l-3.2,0.8c-0.6,0.2-0.7,0.5-0.8,0.6
				c0,0.2,0,0.5,0.5,0.8l0.4,0.3c0,0,0,0,0,0l0.2,0.2c0,0,0,0,0,0L38,45c-0.6,0.2-0.7,0.5-0.7,0.7c0,0.2,0.1,0.5,0.6,0.8l0.5,0.2
				c0,0,0,0,0,0l0.3,0.1c0,0,0,0,0,0l-2.9,1.5c-0.5,0.3-0.6,0.6-0.6,0.8c0,0.2,0.1,0.2,0.7,0.4l0.5-0.1c0,0,0,0,0,0l0.3,0.4
				c0,0,0,0.2,0,0.2L34.1,52c-0.5,0.4-0.5,0.7-0.5,0.9c0,0.2,0.2,0.5,0.8,0.6l0.5,0.1c0,0,0,0,0,0l0.3,0.1c0,0,0,0,0,0l-2.4,2.2
				c-0.5,0.4-0.4,0.8-0.4,0.9c0.1,0.2,0.2,0.5,0.9,0.5l0.5,0c0,0,0,0,0,0l0.3,0c0,0,0,0,0,0L32,59.8c-0.4,0.5-0.3,0.8-0.3,1
				c0.1,0.2,0.3,0.1,0.9,0.1l0.5-0.3c0,0,0,0,0,0l0.2,0.3l-1.8,2.8c-0.3,0.5-0.2,0.9-0.2,1c0.1,0.1,0.2,0.4,0.7,0.4
				c0.1,0,0.2,0,0.3,0l0.5-0.1c0,0,0,0,0,0l0.2,0l-1.4,2.8c-0.2,0.5-0.2,0.8-0.1,0.9c0.2,0.3,0.5-0.2,1-0.3l0.5-0.7c0,0,0,0,0,0
				l0.2,0.5l-1.1,3.2c-0.2,0.5-0.1,0.9,0,1c0.2,0.3,0.6,0.4,1.1,0.2l0.5-0.2c0,0,0,0,0,0l0.2-0.1l-0.7,3c-0.1,0.5,0,0.7,0.1,0.9
				c0.2,0.3,0.6,0.3,1.1,0l0.4-0.3c0,0,0,0,0,0l0.2-0.1l-0.3,3.1c0,0.4,0,0.6,0.2,0.8c0.3,0.3,0.7,0.3,1.1-0.1l0.4-0.3c0,0,0,0,0,0
				L37,79c0,0,0,0,0,0l0,3.2c0,0.7,0.3,0.9,0.7,0.9c0.2,0,0.5-0.1,0.7-0.4l0.4-0.4c0,0,0,0,0,0l0.2-0.2c0,0,0,0,0,0l0.4,3.2
				c0.1,0.8,0.6,0.8,0.7,0.8c0.2,0,0.4-0.1,0.7-0.5l0.3-0.4c0,0,0,0,0,0l0.2-0.2c0,0,0,0,0,0l0.8,3.2c0.2,0.7,0.6,0.8,0.7,0.8
				c0.2,0,0.5-0.1,0.8-0.5l0.3-0.4c0,0,0,0,0,0l0.2-0.3c0,0,0,0,0,0l1.2,3c0.2,0.6,0.6,0.7,0.7,0.7c0.2,0,0.5-0.1,0.8-0.6l0.2-0.5
				c0,0,0,0,0,0l0.1-0.3c0,0,0,0,0,0l1.6,2.9c0.3,0.5,0.6,0.6,0.8,0.6c0.2,0,0.5-0.1,0.7-0.7l0.2-0.5c0,0,0,0,0,0l0.1-0.3
				c0,0,0,0,0,0l1.7,2.4c1.1-1.2,2.8-2.3,4.6-2.3c2.9,0,5.4,1.5,6,4.5h1.8c0.6-3,3.1-4.5,6-4.5c1.5,0,2.8,0.7,3.9,1.5l2.6,0.5
				c0.1,0,0.2,0.1,0.3,0.1c0.5,0,0.6-0.2,0.7-0.3c0.1-0.1-0.1-0.5-0.4-0.9l-0.7-0.7c0,0,0,0,0,0l3.4,0.1c0.6,0,1-0.2,1-0.4
				c0.1-0.2,0.2-0.5-0.2-0.9l-0.3-0.4c0,0-0.9,0-0.9-0.1l-1-0.2c0,0,0,0,0,0l4.1-0.3c0.6-0.1,1.2-0.3,1.3-0.5
				c0.1-0.2,0.3-0.5-0.2-0.9l-0.3-0.3c0,0,0,0,0-0.1l-0.2-0.2c0,0,0,0,0,0l3.2-0.7c0.6-0.1,0.8-0.4,0.8-0.6c0-0.2,0-0.5-0.5-0.9
				L87,85.6c0,0,0,0,0,0l-0.2-0.2c0,0,0,0,0,0l3.1-1.1c0.6-0.2,0.7-0.5,0.7-0.7c0-0.2,0-0.5-0.6-0.8l-0.7-0.4c0,0,0,0,0,0l2.9-1.4
				c0.5-0.3,0.6-0.6,0.6-0.8c0-0.2-0.1-0.5-0.7-0.7l-0.8-0.3c0,0,0,0,0,0l2.8-1.8c0.5-0.3,0.5-0.7,0.5-0.8c0-0.2-0.2-0.5-0.8-0.6
				l-0.8-0.2c0,0,0,0,0,0l2.5-2.1c0.5-0.4,0.5-0.7,0.4-0.9c-0.1-0.2-0.2-0.5-0.8-0.5l-0.8-0.1c0,0,0,0,0,0l2.2-2.4
				c0.4-0.5,0.4-1.2,0.3-1.4c-0.1-0.2-0.3-0.9-0.9-0.9h0h-0.5c0,0,0,0,0,0L95,68l1.9-2.3C97.2,65.2,97.1,65.1,97.1,64.9z M81.3,80.2
				c-2.6,1.9-4.7,3.1-6.3,4c-2.6,1.5-4.1,2.7-4.8,4.7c-1.4,3.9-6,4.6-6.6,4.6c0,0,0,0,0,0h-0.1c0,0,0,0,0,0c-0.5,0-5.1-0.7-6.6-4.6
				c-0.8-2.1-2.2-3.1-4.8-4.5c-1.7-1-3.7-2.2-6.3-4.1c-3.8-2.8-5.5-8.5-4-13.4c1.3-4.1,4.5-6.4,8.6-6.4h0.1c7.8,0,11.6,6.7,13.1,10
				c1.4-3.3,5.3-10,13.1-10h0.1c4.2,0,7.3,2.3,8.6,6.3C86.9,71.7,85.2,77.4,81.3,80.2z"/>
		</g>
		<g>
			<path fill-rule="evenodd" clip-rule="evenodd" fill="#EAA936" d="M76.7,62.5L76.7,62.5c-9.1,0-12.3,9.9-12.5,10.4
				c-0.1,0.3-0.4,0.3-0.7,0.3c-0.3,0-0.6,0.1-0.7-0.2c-0.1-0.4-3.4-10.5-12.4-10.5h-0.1c-3.5,0-6.2,1.6-7.3,5.1
				c-1.4,4.3,0.1,9.2,3.4,11.7c2.5,1.8,4.6,2.9,6.2,3.8c2.7,1.5,4.5,2.5,5.5,5.1c0.2,0.4,0.4,0.8,0.6,1.1c0-0.1,0-0.2,0-0.3
				c0-1.6,1.8-2.7,2.4-3c0.9-0.5,1.9-0.9,1.9-0.9c0.2-0.1,0.3-0.1,0.5-0.1c0.2,0,0.3,0,0.5,0.1c0,0,1,0.4,1.9,0.9
				c0.6,0.3,2.3,1.3,2.4,2.9c0.2-0.2,0.3-0.5,0.4-0.8c0.9-2.5,2.7-3.6,5.5-5.1c1.7-0.9,3.7-2.1,6.2-3.9c3.4-2.4,4.8-7.2,3.4-11.5
				C82.9,64.1,80.2,62.5,76.7,62.5z M55.9,81c-1.8,0-3.3-1.5-3.3-3.3c0-1.8,1.5-3.3,3.3-3.3c1.8,0,3.3,1.5,3.3,3.3
				C59.2,79.5,57.7,81,55.9,81z M71.6,81c-1.8,0-3.3-1.5-3.3-3.3c0-1.8,1.5-3.3,3.3-3.3c1.8,0,3.3,1.5,3.3,3.3
				C74.9,79.5,73.4,81,71.6,81z"/>
		</g>
		<g>
			<path fill-rule="evenodd" clip-rule="evenodd" fill="#EAA936" d="M63.7,86.4c0,0-3.4,1.3-3.4,2.6c0,1.3,1.5,2.3,3.4,2.3
				c1.9,0,3.4-1,3.4-2.3C67.1,87.7,63.7,86.4,63.7,86.4z"/>
		</g>
		<g>
			<path fill-rule="evenodd" clip-rule="evenodd" fill="#EAA936" d="M55.9,75.8c-1,0-1.9,0.9-1.9,1.9c0,1,0.8,1.9,1.9,1.9
				c1,0,1.9-0.8,1.9-1.9C57.8,76.7,56.9,75.8,55.9,75.8z"/>
		</g>
		<g>
			<path fill-rule="evenodd" clip-rule="evenodd" fill="#EAA936" d="M71.6,75.8c-1,0-1.9,0.9-1.9,1.9c0,1,0.9,1.9,1.9,1.9
				c1,0,1.9-0.8,1.9-1.9C73.5,76.7,72.6,75.8,71.6,75.8z"/>
		</g>
		<g>
			<path fill-rule="evenodd" clip-rule="evenodd" fill="#EAA936" d="M57,93.8c-0.7,0-1.4-0.2-2,0.1c-1.2,0.6-2.1,2.6-2.5,2.6h9.2
				c0,0,0,0.3,0,0.3C60.9,94.8,59.1,93.8,57,93.8z"/>
		</g>
		<g>
			<path fill-rule="evenodd" clip-rule="evenodd" fill="#EAA936" d="M70.8,93.8c-1.4,0-2.7,0.6-3.5,1.6c-0.2,0.2-0.4,0.4-0.5,0.7
				c-0.2,0.3-0.4,0.4-0.5,0.8c0,0,0-0.3,0-0.3h9.2c-0.2,0-0.5-0.9-0.9-1.4C73.6,94.1,72.3,93.8,70.8,93.8z"/>
		</g>
	</g>
	<g>
		<g>
			<path fill-rule="evenodd" clip-rule="evenodd" fill="#FFE18D" d="M96,63.9c-0.1-0.1-0.3-0.4-0.7-0.4c-0.1,0-0.2,0-0.2,0l-0.7,0.1
				l1.5-2.7c0.3-0.5,0.2-0.8,0.1-0.9c-0.1-0.1-0.2-0.3-0.6-0.3c-0.1,0-0.3,0.3-0.4,0.3l-0.5,0.4c0,0,0,0,0,0l-0.2-0.2l1.2-3
				c0.2-0.5,0.1-0.8,0-1c-0.2-0.3-0.6-0.4-1.1-0.2l-0.7,0.3l0.8-3c0.1-0.5,0-0.7-0.1-0.9c-0.2-0.3-0.6-0.3-1.1-0.1l-0.5,0.2
				c0,0,0,0,0,0l-0.2,0.1l0.4-3.1c0.1-0.5,0-0.7-0.2-0.8c-0.2-0.3-0.7-0.3-1.1,0.1l-0.4,0.3c0,0,0,0,0,0L91,49.5c0,0,0,0,0,0
				l0.1-3.3c0-0.3-0.1-0.6-0.2-0.8c-0.1-0.1-0.3-0.2-0.4-0.2c-0.2,0-0.5,0.1-0.7,0.3l-0.4,0.4c0,0,0,0,0,0l-0.2,0.2c0,0,0,0,0,0
				l-0.3-3.3C88.6,42.1,88.2,42,88,42c-0.2,0-0.4,0.1-0.7,0.4l-0.3,0.4c0,0,0,0,0,0l-0.2,0.2c0,0,0,0,0,0L86,39.9
				c-0.2-0.7-0.6-0.8-0.7-0.8c-0.2,0-0.5,0.1-0.8,0.5l-0.5,0.7c0,0,0,0,0,0l-1.1-3.1c-0.2-0.6-0.6-0.7-0.7-0.7
				c-0.2,0-0.5,0.1-0.8,0.6L81.1,38c0,0,0,0,0,0l-1.5-2.9c-0.3-0.5-0.6-0.6-0.7-0.6c-0.2,0-0.5,0.1-0.7,0.7L77.8,36c0,0,0,0,0,0
				L76,33.3c-0.3-0.4-0.6-0.5-0.8-0.5c-0.2,0-0.6,0.1-0.7,0.8l-0.2,0.8c0,0,0,0,0,0l-2.1-2.5c-0.3-0.4-0.6-0.4-0.7-0.4
				c-0.1,0-0.6,0.1-0.7,0.9l0,0.5c0,0-0.8,0-0.8,0l-0.8,0.3c0,0,0,0,0,0L67.5,31c-0.4-0.4-0.5-0.4-0.7-0.2c-0.2,0.2,0.1,0.4,0.1,0.8
				l0.3,0.5c0,0,0,0,0,0L67,32.4l-2.6-1.8c-0.4-0.3-0.9-0.3-1.1,0c-0.1,0.1,0.3,0.4,0.3,0.8l0.6,0.5c0,0,0,0,0,0l-0.5,0.2l-3-1.5
				c-0.5-0.3-1-0.2-1.2,0.1c-0.1,0.1-0.3,0.4-0.1,0.9l0.1,0.5c0,0,0,0,0,0l0.1,0.2l-2.9-1.1c-0.5-0.2-0.9-0.1-1.1,0.2
				c-0.1,0.2-0.2,0.4,0,0.9l0.2,0.5c0,0,0,0,0,0l0.1,0.2l-3-0.8c-0.1,0-0.3-0.1-0.4-0.1c-0.4,0-0.6,0.2-0.6,0.3
				c-0.1,0.2-0.2,0.5,0.1,0.9l0.4,0.7l-3.1-0.4c-0.6-0.1-0.9,0.2-1,0.3c-0.1,0.2-0.1,0.5,0.2,1l0.3,0.4c0,0,0,0,0,0l0.2,0.2
				c0,0,0,0,0,0l-3.2,0c-0.6,0-0.8,0.3-0.9,0.4c-0.1,0.2-0.1,0.5,0.3,0.9l0.4,0.4c0,0,0,0,0,0l0.2,0.2c0,0,0,0,0,0l-3.2,0.4
				c-0.6,0.1-0.8,0.4-0.8,0.5c-0.1,0.2-0.1,0.5,0.4,0.9l0.4,0.3c0,0,0,0,0,0l0.2,0.2c0,0,0,0,0,0l-3.2,0.8c-0.6,0.1-0.7,0.5-0.8,0.6
				c0,0.2,0,0.5,0.5,0.8l0.4,0.3c0,0,0,0,0,0l0.2,0.2c0,0,0,0,0,0L37,44c-0.6,0.2-0.7,0.5-0.7,0.7c0,0.2,0.1,0.5,0.6,0.8l0.5,0.2
				c0,0,0,0,0,0l0.3,0.1c0,0,0,0,0,0l-2.9,1.5c-0.5,0.3-0.6,0.6-0.6,0.8c0,0.2,0.1,0.7,0.7,0.9l0.5,0.4c0,0,0,0,0,0l0.3-0.1
				c0,0,0-0.1,0-0.1l-2.7,1.8c-0.5,0.3-0.5,0.7-0.5,0.8c0,0.2,0.2,0.5,0.8,0.6l0.5,0.1c0,0,0,0,0,0l0.3,0.1c0,0,0,0,0,0l-2.4,2.2
				c-0.5,0.4-0.4,0.8-0.4,0.9c0.1,0.2,0.2,0.5,0.9,0.5l0.5,0c0,0,0,0,0,0l0.3,0c0,0,0,0,0,0L31,58.8c-0.4,0.5-0.3,0.8-0.3,1
				c0.1,0.2,0.3,0.6,0.9,0.6l0.5,0.2c0,0,0,0,0,0l0.2-0.2l-1.8,2.5c-0.3,0.5-0.2,0.7-0.2,0.9c0.1,0.1,0.2,0.3,0.7,0.3
				c0.1,0,0.2,0,0.3,0l0.5-0.1c0,0,0,0,0,0l0.2,0l-1.4,2.8c-0.2,0.5-0.2,0.8-0.1,0.9c0.2,0.3,0.5,0.3,1,0.2l0.5-0.2c0,0,0,0,0,0
				l0.2,0l-1.1,2.9c-0.2,0.5-0.1,0.8,0,0.9c0.2,0.3,0.6,0.3,1.1,0.1l0.5-0.2c0,0,0,0,0,0l0.2-0.1l-0.7,3c-0.1,0.5,0,0.7,0.1,0.9
				c0.2,0.3,0.6,0.3,1.1,0l0.4-0.3c0,0,0,0,0,0l0.2-0.1l-0.3,3.1c0,0.4,0,0.6,0.2,0.8c0.3,0.3,0.7,0.3,1.1-0.1l0.4-0.3c0,0,0,0,0,0
				L36,78c0,0,0,0,0,0l0,3.2c0,0.7,0.3,0.9,0.7,0.9c0.2,0,0.5-0.1,0.7-0.4l0.4-0.4c0,0,0,0,0,0l0.2-0.2c0,0,0,0,0,0l0.4,3.2
				c0.1,0.8,0.6,0.8,0.7,0.8c0.2,0,0.4-0.1,0.7-0.5l0.3-0.4c0,0,0,0,0,0l0.2-0.2c0,0,0,0,0,0l0.8,3.2c0.2,0.7,0.6,0.8,0.7,0.8
				c0.2,0,0.5-0.1,0.8-0.6l0.3-0.4c0,0,0,0,0,0l0.1-0.3c0,0,0,0,0,0l1.2,3c0.2,0.6,0.6,0.7,0.7,0.7c0.2,0,0.5-0.1,0.8-0.6l0.2-0.5
				c0,0,0,0,0,0l0.1-0.3c0,0,0,0,0,0l1.6,2.9c0.3,0.5,0.6,0.6,0.8,0.6c0.2,0,0.5-0.1,0.7-0.7l0.2-0.5c0,0,0,0,0,0l0.1-0.3
				c0,0,0,0,0,0l1.7,2.4c1.1-1.2,2.8-1.8,4.6-1.8c2.9,0,5.4,2,6,5h1.8c0.6-3,3.1-5,6-5c1.5,0,2.8,0.4,3.9,1.3l2.6,0.4
				c0.1,0,0.2,0,0.3,0c0.5,0,0.6-0.2,0.7-0.4c0.1-0.2,0.4-0.5,0.1-0.9l-0.2-0.7c0,0,0,0,0,0l2.9,0.1c0.6,0,0.7-0.2,0.8-0.4
				c0.1-0.2,0.1-0.5-0.3-1l-0.4-0.4c0,0,0,0-0.1-0.1l-0.2-0.2c0,0,0,0,0,0l3.2-0.3c0.6,0,0.8-0.3,0.9-0.5c0.1-0.2,0.1-0.5-0.4-0.9
				l-0.4-0.3c0,0,0,0-0.1-0.1L83,87.1c0,0,0,0,0,0l3.2-0.7c0.6-0.1,0.8-0.4,0.8-0.6c0-0.2,0-0.5-0.5-0.9L86,84.6c0,0,0,0,0,0
				l-0.2-0.2c0,0,0,0,0,0l3.1-1.1c0.6-0.2,0.7-0.5,0.7-0.7c0-0.2,0-0.5-0.6-0.8l-0.7-0.4c0,0,0,0,0,0l2.9-1.4
				c0.5-0.3,0.6-0.6,0.6-0.8c0-0.2-0.1-0.5-0.7-0.7l-0.8-0.3c0,0,0,0,0,0l2.7-1.8c0.5-0.3,0.6-0.7,0.5-0.8c0-0.2-0.2-0.5-0.8-0.6
				l-0.8-0.2c0,0,0,0,0,0l2.5-2.1c0.5-0.4,0.5-0.7,0.4-0.9c-0.1-0.2-0.2-0.5-0.8-0.5l-0.8-0.1c0,0,0,0,0,0l2.2-2.4
				c0.4-0.5,0.4-0.7,0.3-0.9c-0.1-0.2-0.3-0.4-0.9-0.4h0h-0.5c0,0,0,0,0,0l-0.2,0l1.9-2.6C96.2,64.4,96.1,64.1,96,63.9z M80.3,79.2
				c-2.6,1.9-4.7,3.1-6.3,4c-2.6,1.5-4.1,1.7-4.8,3.7c-1.4,3.9-6,3.6-6.6,3.6c0,0,0,0,0,0h-0.1c0,0,0,0,0,0c-0.5,0-5.1,0.3-6.6-3.6
				c-0.8-2.1-2.2-2.6-4.8-4c-1.7-1-3.7-2-6.3-3.9c-3.8-2.8-5.5-7.9-4-12.8c1.3-4,4.5-5.8,8.6-5.8h0.1c7.8,0,11.6,6.7,13.1,10
				c1.4-3.3,5.3-10,13.1-10h0.1c4.2,0,7.3,1.8,8.6,5.8C85.9,71.2,84.2,76.4,80.3,79.2z"/>
		</g>
		<g>
			<path fill-rule="evenodd" clip-rule="evenodd" fill="#FFE18D" d="M75.6,60.5L75.6,60.5c-9.1,0-12.3,10.4-12.5,10.9
				c-0.1,0.3-0.4,0.6-0.7,0.6c-0.3,0-0.6-0.3-0.7-0.6c-0.1-0.4-3.4-10.8-12.4-10.8h-0.1c-3.5,0-6.2,2.1-7.3,5.6
				c-1.4,4.3,0.1,9.5,3.4,11.9c2.5,1.8,4.6,3,6.2,4c2.7,1.5,4.5,2.6,5.5,5.1c0.2,0.4,0.4,0.8,0.6,1.2c0-0.1,0-0.2,0-0.3
				c0-1.6,1.8-2.6,2.4-3c0.9-0.5,1.9-0.9,1.9-0.9c0.2-0.1,0.3-0.1,0.5-0.1c0.2,0,0.3,0,0.5,0.1c0,0,1,0.4,1.9,0.9
				c0.6,0.3,2.3,1.3,2.4,2.9c0.2-0.2,0.3-0.5,0.4-0.8c0.9-2.5,2.7-3.6,5.5-5.1c1.7-0.9,3.7-2.1,6.2-3.9c3.4-2.4,4.8-7.7,3.4-12
				C81.9,62.6,79.2,60.5,75.6,60.5z M54.9,80c-1.8,0-3.3-1.5-3.3-3.3c0-1.8,1.5-3.3,3.3-3.3c1.8,0,3.3,1.5,3.3,3.3
				C58.1,78.5,56.7,80,54.9,80z M70.6,80c-1.8,0-3.3-1.5-3.3-3.3c0-1.8,1.5-3.3,3.3-3.3c1.8,0,3.3,1.5,3.3,3.3
				C73.9,78.5,72.4,80,70.6,80z"/>
		</g>
		<g>
			<path fill-rule="evenodd" clip-rule="evenodd" fill="#FFE18D" d="M62.6,85.4c0,0-3.4,1.3-3.4,2.6c0,1.3,1.5,2.3,3.4,2.3
				c1.9,0,3.4-1,3.4-2.3C66.1,86.7,62.6,85.4,62.6,85.4z"/>
		</g>
		<g>
			<path fill-rule="evenodd" clip-rule="evenodd" fill="#FFE18D" d="M54.9,74.8c-1,0-1.9,0.9-1.9,1.9c0,1,0.8,1.9,1.9,1.9
				c1,0,1.9-0.8,1.9-1.9C56.7,75.7,55.9,74.8,54.9,74.8z"/>
		</g>
		<g>
			<path fill-rule="evenodd" clip-rule="evenodd" fill="#FFE18D" d="M70.6,74.8c-1,0-1.9,0.9-1.9,1.9c0,1,0.9,1.9,1.9,1.9
				c1,0,1.9-0.8,1.9-1.9C72.5,75.7,71.6,74.8,70.6,74.8z"/>
		</g>
		<g>
			<path fill-rule="evenodd" clip-rule="evenodd" fill="#FFE18D" d="M56,92.7c-0.7,0-1.4,0.3-2,0.6c-1.2,0.6-2.1,0.1-2.5,3.1h9.2
				c0,0,0-0.2,0-0.2C59.9,94.3,58.1,92.7,56,92.7z"/>
		</g>
		<g>
			<path fill-rule="evenodd" clip-rule="evenodd" fill="#FFE18D" d="M69.8,92.7c-1.4,0-2.7,0.6-3.5,1.6c-0.2,0.2-0.4,0.4-0.5,0.7
				c-0.2,0.3-0.4,0.9-0.5,1.3c0,0,0,0.2,0,0.2h9.2c-0.2,0-0.5-1.4-0.9-1.9C72.6,93.6,71.3,92.7,69.8,92.7z"/>
		</g>
	</g>
</g>
</svg>
