<?xml version="1.0" encoding="utf-8"?>
<!-- Generator: Adobe Illustrator 18.0.0, SVG Export Plug-In . SVG Version: 6.00 Build 0)  -->
<!DOCTYPE svg PUBLIC "-//W3C//DTD SVG 1.1//EN" "http://www.w3.org/Graphics/SVG/1.1/DTD/svg11.dtd">
<svg version="1.1" id="Layer_1" xmlns="http://www.w3.org/2000/svg" xmlns:xlink="http://www.w3.org/1999/xlink" x="0px" y="0px"
	 viewBox="0 0 47 40.9" enable-background="new 0 0 47 40.9" xml:space="preserve">
<g>
	<path fill="#ffffff" d="M9.9,19.7c-0.3,0.5-0.2,1,0.2,1.2c0.4,0.2,1,0,1.2-0.5l9.7-16.3c0.3-0.5,0.2-1-0.2-1.2
		c-0.4-0.2-1,0-1.2,0.5L9.9,19.7z"/>
	<path fill="#ffffff" d="M24.6,3c0.1-0.4,0.4-0.7,0.8-0.9C25.5,2,25.8,1.9,26,1.9c0.6,0,1.3,0.4,1.6,1l0.3,0.6
		c0.2-0.3,0.3-0.7,0.3-1.1C28.2,1.1,27,0,25.6,0C24.2,0,23,1.1,23,2.5c0,1.2,0.9,2.1,2,2.4l-0.3-0.5C24.5,3.9,24.4,3.4,24.6,3z"/>
	<path fill="#ffffff" d="M20.2,0c-1.4,0-2.6,1.1-2.6,2.5c0,0.6,0.3,1.2,0.7,1.6L18.9,3c0.3-0.6,0.9-0.9,1.6-0.9
		c0.3,0,0.5,0.1,0.7,0.2c0.4,0.2,0.6,0.5,0.7,0.9C22.1,3.6,22,4,21.8,4.4c0.6-0.5,1-1.1,1-1.9C22.8,1.1,21.7,0,20.2,0z"/>
	<rect x="37.7" y="25" fill="#222944" width="0" height="11.9"/>
	<path fill="#ffffff" d="M43.9,16.1h-9l0.3,0.5c2,0.1,3.5,1.7,3.5,3.6c0,2-1.7,3.6-3.8,3.6c-2.1,0-3.8-1.6-3.8-3.6
		c0-0.9,0.4-1.8,1-2.4l-0.9-1.6H14.9L14,17.7c0.7,0.7,1.1,1.5,1.1,2.5c0,2-1.7,3.6-3.8,3.6c-2.1,0-3.8-1.6-3.8-3.6
		c0-1.9,1.5-3.4,3.4-3.6l0.3-0.5h-8c-1.7,0-3.1,1.6-3.1,3.6c0,2,1.4,3.6,3.1,3.6h1.4v11.2c0,3.6,2.7,6.4,6,6.4h25.2
		c3.3,0,6-2.9,6-6.4V23.3h2.1c1.7,0,3.1-1.6,3.1-3.6C47,17.7,45.6,16.1,43.9,16.1z M12.4,36.2H8.7v-11h3.7V36.2z M20.9,36.2h-3
		l-0.1-11h3.1V36.2z M28.5,36.2h-3L25.4,25h3.1V36.2z M36.9,36.2h-3L34,25h3V36.2z"/>
	<path fill="#ffffff" d="M36,19.9c0.3,0.5,0.1,1-0.3,1.2c-0.4,0.2-1,0-1.2-0.5L25.4,4c-0.3-0.5-0.1-1,0.3-1.2c0.4-0.2,1,0,1.2,0.5
		L36,19.9z"/>
</g>
</svg>
