<?xml version="1.0" encoding="utf-8"?>
<!-- Generator: Adobe Illustrator 16.0.3, SVG Export Plug-In . SVG Version: 6.00 Build 0)  -->
<!DOCTYPE svg PUBLIC "-//W3C//DTD SVG 1.1//EN" "http://www.w3.org/Graphics/SVG/1.1/DTD/svg11.dtd">
<svg version="1.1" id="Layer_1" xmlns="http://www.w3.org/2000/svg" xmlns:xlink="http://www.w3.org/1999/xlink" x="0px" y="0px"
	 width="123.935px" height="128px" viewBox="0 0 123.935 128" enable-background="new 0 0 123.935 128" xml:space="preserve">
<path fill-rule="evenodd" clip-rule="evenodd" fill="#A7A9AC" d="M61.488,105.525c-1.596-2.287-3.01-4.266-4.385-6.271
	c-8.818-12.922-17.667-25.822-26.427-38.792c-5.664-8.375-7.88-17.75-6.396-27.667C26.561,17.524,35.205,7.009,49.848,1.983
	c21.886-7.516,45.662,7.162,49,30.026c1.391,9.484-0.213,18.5-5.317,26.662c-4.011,6.422-8.386,12.62-12.594,18.922
	c-0.458,0.672-0.864,1.38-1.354,2.156c5.167,1.005,10.115,1.828,15,2.964c6.781,1.572,13.438,3.677,19.282,7.547
	c2.927,1.947,5.697,4.375,7.896,7.109c3.021,3.781,2.771,8.307,0.021,12.333c-2.697,3.938-6.541,6.49-10.708,8.625
	c-8.271,4.225-17.162,6.433-26.25,7.886c-9.094,1.438-18.273,2.058-27.472,1.677c-14.784-0.599-29.386-2.396-42.917-8.885
	c-3.794-1.818-7.456-4.303-10.49-7.203c-5.401-5.178-5.138-11.537,0.075-16.912c4.308-4.438,9.724-7.13,15.43-9.151
	c4.219-1.489,8.602-2.494,12.898-3.76c1.266-0.375,2.076-0.053,2.807,1.078c1.438,2.219,3.019,4.359,4.578,6.578
	c-4.38,1.156-8.708,1.974-12.799,3.458c-3.445,1.239-6.894,2.875-9.857,5.011c-4.453,3.213-4.313,7.359-0.029,10.833
	c4.352,3.531,9.597,5.188,14.925,6.475c11.654,2.813,23.503,3.677,35.479,3.177c9.636-0.386,19.177-1.37,28.349-4.406
	c3.615-1.203,7.198-2.87,10.35-4.99c4.891-3.291,4.828-7.729,0.203-11.38c-4.511-3.567-9.912-5.214-15.386-6.433
	c-4.979-1.099-10.073-1.713-15.109-2.563c-1.766-0.302-2.942,0.198-4.005,1.813C68.596,95.541,65.14,100.316,61.488,105.525z
	 M80.229,38.311c0.031-10.24-8.188-18.651-18.248-18.682c-10.653-0.031-19.044,8.109-19.102,18.547
	c-0.06,10.354,8.3,18.787,18.641,18.792C71.979,56.983,80.207,48.77,80.229,38.311z"/>
</svg>
