<?xml version="1.0" encoding="utf-8"?>
<!-- Generator: Adobe Illustrator 16.0.3, SVG Export Plug-In . SVG Version: 6.00 Build 0)  -->
<!DOCTYPE svg PUBLIC "-//W3C//DTD SVG 1.1//EN" "http://www.w3.org/Graphics/SVG/1.1/DTD/svg11.dtd">
<svg version="1.1" id="Layer_1" xmlns="http://www.w3.org/2000/svg" xmlns:xlink="http://www.w3.org/1999/xlink" x="0px" y="0px"
	 width="127.56px" height="128px" viewBox="0 0 127.56 128" enable-background="new 0 0 127.56 128" xml:space="preserve">
<g>
	<path fill-rule="evenodd" clip-rule="evenodd" d="M31.884,0.198c4.393-0.923,6.596,1.489,8.553,4.979
		c5.577,9.938,8.896,20.489,9.588,31.878c0.129,2.112-0.427,3.702-2.143,4.962c-3.773,2.767-7.413,5.728-11.297,8.325
		c-1.563,1.045-1.864,1.946-1.002,3.386c2.144,3.579,4.008,7.386,6.575,10.634c7.515,9.508,16.005,18.066,26.119,24.858
		c1.872,1.258,3.989,2.144,5.979,3.226c1.497,0.814,2.343,0.532,3.396-1.011c2.797-4.093,5.818-8.043,8.961-11.879
		c0.714-0.875,2.285-1.535,3.436-1.5c13.14,0.45,25.189,4.394,36.085,11.75c0.7,0.476,1.344,1.579,1.372,2.407
		c0.368,11.468-1.114,22.621-5.814,33.214c-0.664,1.5-1.607,2.036-3.222,2.204c-16.186,1.688-31.156-2.551-45.264-9.868
		c-29.727-15.414-51.867-38.3-65.746-68.875C2.428,37.803-0.341,26.114,0.034,13.829c0.054-1.768,0.12-3.57,0.516-5.277
		c0.184-0.798,1.039-1.679,1.816-2.061C8.078,3.677,14.198,2.17,20.466,1.3C24.25,0.777,28.076,0.556,31.884,0.198z"/>
	<path fill-rule="evenodd" clip-rule="evenodd" d="M114.913,57.71c-0.847-4.109-1.25-8.34-2.601-12.243
		c-6.278-18.119-18.914-28.946-37.935-32.078c-1.644-0.271-2.086-0.97-1.894-2.534c0.351-2.878,0.586-5.775,0.814-8.666
		c0.09-1.132,0.193-1.823,1.729-1.589c24.107,3.669,40.386,16.996,48.985,39.721c2.064,5.452,2.903,11.196,3.164,17.39
		C122.988,57.71,118.931,57.71,114.913,57.71z"/>
	<path fill-rule="evenodd" clip-rule="evenodd" d="M103.228,58.549c-3.936,0-7.679,0.054-11.418-0.065
		c-0.496-0.015-1.254-0.844-1.396-1.418c-2.514-10.086-8.789-16.573-18.6-19.798c-0.586-0.191-1.45-0.935-1.422-1.375
		c0.229-3.795,0.633-7.579,0.982-11.368C88.271,26.589,102.313,42.579,103.228,58.549z"/>
</g>
</svg>
