<?xml version="1.0" encoding="utf-8"?>
<!-- Generator: Adobe Illustrator 16.0.3, SVG Export Plug-In . SVG Version: 6.00 Build 0)  -->
<!DOCTYPE svg PUBLIC "-//W3C//DTD SVG 1.1//EN" "http://www.w3.org/Graphics/SVG/1.1/DTD/svg11.dtd">
<svg version="1.1" id="Layer_1" xmlns="http://www.w3.org/2000/svg" xmlns:xlink="http://www.w3.org/1999/xlink" x="0px" y="0px"
	 width="50px" height="50px" viewBox="0 0 50 50" enable-background="new 0 0 50 50" xml:space="preserve">
<g>
	<g>
		<path d="M28,32.574c0.225,0,0.449-0.074,0.636-0.228c0.427-0.352,0.487-0.981,0.136-1.408l-5.477-6.651l5.477-6.651
			c0.352-0.426,0.291-1.057-0.136-1.408c-0.427-0.352-1.057-0.29-1.407,0.136l-6.001,7.287c-0.304,0.369-0.304,0.902,0,1.271
			l6.001,7.287C27.426,32.45,27.712,32.574,28,32.574z"/>
	</g>
</g>
<path d="M25,2c12.683,0,23,10.318,23,23c0,12.683-10.317,23-23,23C12.318,48,2,37.683,2,25C2,12.318,12.318,2,25,2 M25,0
	C11.193,0,0,11.193,0,25c0,13.808,11.193,25,25,25c13.807,0,25-11.192,25-25C50,11.193,38.807,0,25,0L25,0z"/>
</svg>
