<?xml version="1.0" encoding="utf-8"?>
<!-- Generator: Adobe Illustrator 16.0.0, SVG Export Plug-In . SVG Version: 6.00 Build 0)  -->
<!DOCTYPE svg PUBLIC "-//W3C//DTD SVG 1.1//EN" "http://www.w3.org/Graphics/SVG/1.1/DTD/svg11.dtd">
<svg version="1.1" id="Layer_1" xmlns="http://www.w3.org/2000/svg" xmlns:xlink="http://www.w3.org/1999/xlink" x="0px" y="0px"
	 width="52px" height="52px" viewBox="-1 -2 52 52" enable-background="new -1 -2 52 52" xml:space="preserve">
<g>
	<g>
		<path fill="#FFFFFF" d="M28,31.574c0.225,0,0.449-0.074,0.637-0.229c0.426-0.352,0.486-0.98,0.135-1.408l-5.477-6.65l5.477-6.651
			c0.353-0.426,0.291-1.057-0.135-1.408c-0.428-0.352-1.058-0.29-1.408,0.136l-6,7.287c-0.304,0.369-0.304,0.902,0,1.271l6,7.287
			C27.426,31.45,27.712,31.574,28,31.574z"/>
	</g>
</g>
<path fill="#FFFFFF" d="M25,1c12.684,0,23,10.318,23,23c0,12.684-10.316,23-23,23C12.318,47,2,36.684,2,24C2,11.318,12.318,1,25,1
	 M25-1C11.193-1,0,10.193,0,24c0,13.809,11.193,25,25,25c13.807,0,25-11.191,25-25C50,10.193,38.807-1,25-1L25-1z"/>
</svg>
