<?xml version="1.0" encoding="utf-8"?>
<!DOCTYPE svg PUBLIC "-//W3C//DTD SVG 1.1//EN" "http://www.w3.org/Graphics/SVG/1.1/DTD/svg11.dtd">
<svg version="1.1" id="Layer_1" xmlns="http://www.w3.org/2000/svg" xmlns:xlink="http://www.w3.org/1999/xlink" x="0px" y="0px"
	 viewBox="0 0 226.1 226.1" enable-background="new 0 0 226.1 226.1" xml:space="preserve">

<g>
	<path fill="#009490" d="M129.4,182l0.2,0.7c2.8-0.7,5.7-1.5,8.5-2.5l-0.2-0.7C135,180.5,132.2,181.4,129.4,182z"/>
	<path fill="#009490" d="M87.5,180.2c2.8,1,5.6,1.8,8.5,2.5l0.2-0.7c-2.8-0.6-5.6-1.5-8.4-2.5L87.5,180.2z"/>
	<path fill="#009490" d="M53.2,112.2c0-1-0.1-2-0.1-2s-0.5,0.5-1,1c-0.5,0.5-1,1-1,1s0.5,0.5,1,1c0.5,0.5,1.1,0.9,1.1,0.9
		s0-0.2,0-0.6C53.2,113.2,53.2,112.7,53.2,112.2z"/>
	<path fill="#009490" d="M53.4,116.2c-0.1-1-0.1-2-0.1-2s-0.5,0.5-0.9,1.1c-0.5,0.5-0.9,1.1-0.9,1.1s0.1,0.1,0.3,0.3
		c0.2,0.2,0.5,0.4,0.8,0.6c0.6,0.4,1.1,0.9,1.1,0.9s0-0.2-0.1-0.6C53.5,117.2,53.5,116.7,53.4,116.2z"/>
	<path fill="#009490" d="M53.8,119.4c0-0.2-0.1-0.4-0.1-0.6c0-0.4-0.1-0.6-0.1-0.6s-0.4,0.6-0.9,1.1c-0.2,0.3-0.4,0.6-0.6,0.8
		c-0.1,0.2-0.3,0.4-0.3,0.4s0.6,0.4,1.2,0.8c0.6,0.4,1.2,0.8,1.2,0.8s-0.2-1-0.3-1.9C53.9,119.8,53.9,119.6,53.8,119.4z"/>
	<path fill="#009490" d="M54.7,124c-0.1-0.5-0.2-1-0.3-1.3c-0.1-0.4-0.1-0.6-0.1-0.6s-0.1,0.1-0.3,0.4c-0.1,0.2-0.3,0.5-0.5,0.8
		c-0.4,0.6-0.7,1.2-0.7,1.2s0.6,0.4,1.2,0.7c0.3,0.2,0.6,0.4,0.8,0.5c0.2,0.1,0.4,0.2,0.4,0.2s-0.1-0.2-0.2-0.6
		C54.9,124.9,54.8,124.4,54.7,124z"/>
	<path fill="#009490" d="M170.5,125.2c-0.1,0.2-0.1,0.5-0.2,0.7c-0.3,0.9-0.5,1.9-0.5,1.9s0.6-0.3,1.2-0.7c0.6-0.4,1.2-0.7,1.2-0.7
		s-0.1-0.2-0.2-0.4c-0.1-0.2-0.3-0.5-0.5-0.8c-0.4-0.6-0.7-1.2-0.7-1.2s-0.1,0.2-0.1,0.6C170.6,124.7,170.6,124.9,170.5,125.2z"/>
	<path fill="#009490" d="M170.9,123.4c-0.1,0.4-0.1,0.6-0.1,0.6s0.6-0.4,1.2-0.7c0.3-0.2,0.6-0.4,0.8-0.5c0.2-0.1,0.4-0.2,0.4-0.2
		s-0.4-0.6-0.8-1.2c-0.4-0.6-0.8-1.2-0.8-1.2s-0.2,1-0.3,1.9C171.1,122.5,171,123,170.9,123.4z"/>
	<path fill="#009490" d="M172,116.8c0,0.4-0.1,0.9-0.2,1.3c-0.1,0.5-0.1,1-0.2,1.3c-0.1,0.4-0.1,0.6-0.1,0.6s0.1-0.1,0.4-0.3
		c0.2-0.2,0.5-0.4,0.8-0.6c0.6-0.4,1.1-0.9,1.1-0.9s-0.4-0.6-0.9-1.1c-0.2-0.3-0.4-0.5-0.6-0.8c-0.2-0.2-0.3-0.3-0.3-0.3
		s0,0.1,0,0.2C172.1,116.5,172.1,116.6,172,116.8z"/>
	<path fill="#009490" d="M172.3,114.2c-0.1,1-0.2,2-0.2,2s0.5-0.4,1.1-0.9c0.5-0.5,1.1-0.9,1.1-0.9s-0.5-0.5-0.9-1.1
		c-0.5-0.5-1-1-1-1s0,0.2,0,0.6C172.3,113.2,172.3,113.7,172.3,114.2z"/>
	<path fill="#009490" d="M172.3,112.2c0,0,0.5-0.5,1-1c0.5-0.5,1-1,1-1s-0.5-0.5-1-1c-0.5-0.5-1-1-1-1s0,1,0.1,2
		C172.4,111.3,172.3,112.2,172.3,112.2z"/>
	<path fill="#009490" d="M172.3,107.7c0,0.4,0,0.6,0,0.6s0.5-0.5,1-1c0.5-0.5,0.9-1.1,0.9-1.1s-0.5-0.5-1.1-0.9
		c-0.5-0.5-1.1-0.9-1.1-0.9s0.1,1,0.2,2C172.3,106.8,172.3,107.3,172.3,107.7z"/>
	<path fill="#009490" d="M171.9,102.4c0.1,0.5,0.1,1,0.2,1.3c0,0.2,0,0.3,0.1,0.4c0,0.1,0,0.2,0,0.2s0.1-0.1,0.3-0.3
		c0.2-0.2,0.4-0.5,0.6-0.8c0.4-0.6,0.9-1.1,0.9-1.1s-0.6-0.4-1.1-0.9c-0.3-0.2-0.6-0.4-0.8-0.6c-0.2-0.2-0.4-0.3-0.4-0.3
		s0,0.2,0.1,0.6C171.7,101.4,171.8,101.9,171.9,102.4z"/>
	<path fill="#009490" d="M171.2,98.5c0.2,1,0.3,1.9,0.3,1.9s0.4-0.6,0.8-1.2c0.4-0.6,0.8-1.2,0.8-1.2s-0.1-0.1-0.4-0.2
		c-0.2-0.1-0.5-0.3-0.8-0.5c-0.6-0.4-1.2-0.7-1.2-0.7s0.1,0.2,0.1,0.6C171,97.6,171.1,98,171.2,98.5z"/>
	<path fill="#009490" d="M170.5,95.4c0.1,0.2,0.1,0.4,0.1,0.6c0.1,0.4,0.1,0.6,0.1,0.6s0.4-0.6,0.7-1.2c0.2-0.3,0.4-0.6,0.5-0.8
		c0.1-0.2,0.2-0.4,0.2-0.4s-0.6-0.4-1.2-0.7c-0.6-0.3-1.2-0.7-1.2-0.7s0.3,0.9,0.5,1.9C170.4,94.9,170.5,95.2,170.5,95.4z"/>
	<path fill="#009490" d="M169.2,90.9c0.2,0.5,0.3,0.9,0.4,1.3c0.1,0.3,0.2,0.6,0.2,0.6s0.1-0.2,0.2-0.4c0.1-0.2,0.3-0.5,0.4-0.9
		c0.3-0.6,0.6-1.3,0.6-1.3s-0.6-0.3-1.3-0.6c-0.3-0.2-0.6-0.3-0.9-0.4c-0.2-0.1-0.4-0.2-0.4-0.2s0.1,0.2,0.2,0.6
		C168.9,90,169,90.4,169.2,90.9z"/>
	<path fill="#009490" d="M167.8,87.2c0.4,0.9,0.7,1.8,0.7,1.8s0.3-0.6,0.6-1.3c0.3-0.7,0.6-1.3,0.6-1.3s-0.2-0.1-0.4-0.2
		c-0.3-0.1-0.6-0.2-0.9-0.4c-0.7-0.2-1.3-0.5-1.3-0.5s0.1,0.2,0.3,0.6C167.4,86.3,167.6,86.8,167.8,87.2z"/>
	<path fill="#009490" d="M166.7,84.9c0.2,0.3,0.3,0.6,0.3,0.6s0.3-0.7,0.5-1.3c0.2-0.7,0.4-1.3,0.4-1.3s-0.7-0.2-1.4-0.4
		c-0.7-0.2-1.3-0.4-1.3-0.4s0.5,0.9,0.9,1.8C166.3,84.1,166.6,84.5,166.7,84.9z"/>
	<path fill="#009490" d="M164.2,80.2c0.5,0.9,1,1.7,1,1.7s0.1-0.2,0.1-0.4c0.1-0.3,0.2-0.6,0.3-0.9c0.2-0.7,0.4-1.4,0.4-1.4
		s-0.7-0.2-1.4-0.4c-0.7-0.2-1.4-0.3-1.4-0.3s0.1,0.2,0.3,0.5C163.8,79.3,164,79.7,164.2,80.2z"/>
	<path fill="#009490" d="M163.2,78.5c0,0,0.2-0.7,0.3-1.4c0.1-0.4,0.1-0.7,0.2-1c0.1-0.3,0.1-0.4,0.1-0.4s-0.7-0.1-1.4-0.3
		c-0.7-0.1-1.4-0.2-1.4-0.2s0.6,0.8,1.1,1.6C162.7,77.7,163.2,78.5,163.2,78.5z"/>
	<path fill="#009490" d="M159.8,73.7c0.3,0.4,0.6,0.8,0.8,1.1c0.2,0.3,0.4,0.5,0.4,0.5s0-0.2,0.1-0.4c0-0.3,0.1-0.6,0.1-1
		c0.1-0.7,0.2-1.4,0.2-1.4s-0.7-0.1-1.4-0.2c-0.3,0-0.7-0.1-1-0.1c-0.3,0-0.4,0-0.4,0s0.2,0.2,0.4,0.5
		C159.2,72.9,159.5,73.3,159.8,73.7z"/>
	<path fill="#009490" d="M157.3,70.6c0.6,0.7,1.3,1.5,1.3,1.5s0.1-0.7,0.1-1.4c0-0.7,0.1-1.4,0.1-1.4s-0.2,0-0.4,0c-0.3,0-0.6,0-1,0
		c-0.7,0-1.4,0-1.4,0s0.2,0.2,0.4,0.4C156.6,69.9,157,70.2,157.3,70.6z"/>
	<path fill="#009490" d="M155.5,68.7c0.2,0.3,0.4,0.4,0.4,0.4s0-0.7,0-1.4c0-0.7,0-1.4,0-1.4s-0.7,0-1.4,0c-0.7,0-1.4,0-1.4,0
		s0.7,0.7,1.4,1.4C154.9,68.1,155.3,68.5,155.5,68.7z"/>
	<path fill="#009490" d="M151.7,65.1c0.4,0.3,0.7,0.6,1,0.9c0.1,0.1,0.2,0.2,0.3,0.3c0.1,0.1,0.1,0.1,0.1,0.1s0-0.2,0-0.4
		c0-0.3,0-0.6-0.1-1c-0.1-0.7-0.1-1.4-0.1-1.4s-0.7,0.1-1.4,0.1c-0.4,0-0.7,0.1-1,0.1c-0.3,0-0.4,0.1-0.4,0.1s0.2,0.2,0.5,0.4
		C150.9,64.5,151.3,64.8,151.7,65.1z"/>
	<path fill="#009490" d="M96.9,51.7c-0.6-0.3-1.2-0.7-1.2-0.7s-0.3,0.6-0.7,1.2c-0.2,0.3-0.3,0.6-0.4,0.9c-0.1,0.2-0.2,0.4-0.2,0.4
		s0.2-0.1,0.6-0.2c0.4-0.1,0.8-0.2,1.3-0.4c0.5-0.1,0.9-0.3,1.3-0.4c0.4-0.1,0.6-0.2,0.6-0.2s-0.1-0.1-0.4-0.2
		C97.5,52.1,97.2,51.9,96.9,51.7z"/>
	<path fill="#009490" d="M91.8,52.3c0,0-0.1,0.2-0.2,0.4c-0.1,0.2-0.3,0.6-0.4,0.9c-0.3,0.6-0.6,1.3-0.6,1.3s0.2-0.1,0.6-0.2
		c0.3-0.1,0.8-0.3,1.3-0.5c0.9-0.3,1.9-0.6,1.9-0.6s-0.6-0.3-1.3-0.6C92.4,52.6,91.8,52.3,91.8,52.3z"/>
	<path fill="#009490" d="M88.4,54c-0.3-0.1-0.4-0.2-0.4-0.2s-0.3,0.7-0.5,1.3c-0.2,0.7-0.5,1.3-0.5,1.3s0.9-0.4,1.8-0.8
		c0.4-0.2,0.9-0.4,1.2-0.5c0.3-0.1,0.6-0.2,0.6-0.2s-0.7-0.3-1.3-0.6C89,54.2,88.7,54.1,88.4,54z"/>
	<path fill="#009490" d="M85.7,56c-0.7-0.2-1.4-0.4-1.4-0.4s-0.2,0.7-0.4,1.3c-0.2,0.7-0.4,1.4-0.4,1.4s0.8-0.5,1.7-0.9
		c0.4-0.2,0.9-0.4,1.2-0.6c0.2-0.1,0.3-0.2,0.4-0.2c0.1,0,0.2-0.1,0.2-0.1s-0.2-0.1-0.4-0.1C86.4,56.2,86,56.1,85.7,56z"/>
	<path fill="#009490" d="M83.5,58.3c0,0-0.7-0.2-1.4-0.4c-0.7-0.2-1.4-0.4-1.4-0.4s-0.2,0.7-0.3,1.4c-0.1,0.7-0.3,1.4-0.3,1.4
		s0.8-0.5,1.7-1.1C82.7,58.8,83.5,58.3,83.5,58.3z"/>
	<path fill="#009490" d="M78.5,61.5c0.4-0.3,0.8-0.6,1.1-0.8c0.3-0.2,0.5-0.3,0.5-0.3s-0.7-0.2-1.4-0.3c-0.7-0.1-1.4-0.2-1.4-0.2
		s-0.1,0.7-0.2,1.4c-0.1,0.3-0.1,0.7-0.1,1c0,0.3-0.1,0.4-0.1,0.4s0.2-0.2,0.5-0.4C77.7,62,78.1,61.8,78.5,61.5z"/>
	<path fill="#009490" d="M74.8,64.3c0.2-0.1,0.4-0.3,0.6-0.4c0.8-0.6,1.5-1.2,1.5-1.2s-0.7-0.1-1.4-0.2c-0.7-0.1-1.4-0.2-1.4-0.2
		s0,0.2-0.1,0.4c0,0.3-0.1,0.6-0.1,1c-0.1,0.7-0.1,1.4-0.1,1.4s0.2-0.2,0.5-0.4C74.5,64.6,74.6,64.4,74.8,64.3z"/>
	<path fill="#009490" d="M73.4,65.5c0.3-0.2,0.5-0.4,0.5-0.4S73.2,65,72.4,65c-0.4,0-0.7,0-1-0.1c-0.3,0-0.4,0-0.4,0s0,0.7,0,1.4
		c0,0.7,0,1.4,0,1.4s0.7-0.7,1.4-1.4C72.7,66.1,73.1,65.7,73.4,65.5z"/>
	<path fill="#009490" d="M69.6,69.2c0.3-0.4,0.7-0.7,0.9-1c0.3-0.3,0.4-0.4,0.4-0.4s-0.7,0-1.4,0c-0.7,0-1.4,0-1.4,0s0,0.7,0,1.4
		c0,0.4,0,0.7,0,1c0,0.3,0,0.4,0,0.4s0.2-0.2,0.4-0.5C68.9,69.9,69.2,69.5,69.6,69.2z"/>
	<path fill="#009490" d="M66.9,72.1c0.6-0.7,1.3-1.5,1.3-1.5s-0.7,0-1.4,0.1c-0.7,0.1-1.4,0.1-1.4,0.1s0,0.2,0,0.4
		c0,0.3,0.1,0.6,0.1,1c0.1,0.7,0.2,1.4,0.2,1.4s0.2-0.2,0.4-0.5C66.3,72.9,66.6,72.5,66.9,72.1z"/>
	<path fill="#009490" d="M64.9,74.6c0.1-0.2,0.3-0.4,0.4-0.5c0.2-0.3,0.4-0.5,0.4-0.5s-0.7,0.1-1.4,0.2c-0.4,0-0.7,0.1-1,0.1
		c-0.3,0-0.4,0.1-0.4,0.1s0.1,0.7,0.2,1.4c0.1,0.7,0.2,1.4,0.2,1.4s0.6-0.8,1.1-1.6C64.7,75,64.8,74.8,64.9,74.6z"/>
	<path fill="#009490" d="M63,77.4c0.1-0.2,0.2-0.3,0.2-0.4c0.1-0.1,0.1-0.1,0.1-0.1s-0.2,0-0.4,0.1C62.7,77,62.4,77,62,77.1
		c-0.7,0.2-1.4,0.3-1.4,0.3s0.2,0.7,0.3,1.4c0.2,0.7,0.4,1.4,0.4,1.4s0.5-0.9,1-1.7C62.6,78.1,62.8,77.7,63,77.4z"/>
	<path fill="#009490" d="M61.3,80.2c0,0-0.7,0.2-1.4,0.4c-0.3,0.1-0.7,0.2-0.9,0.3c-0.3,0.1-0.4,0.1-0.4,0.1s0.2,0.7,0.4,1.4
		c0.2,0.7,0.4,1.3,0.4,1.3s0.4-0.9,0.9-1.8C60.8,81,61.3,80.2,61.3,80.2z"/>
	<path fill="#009490" d="M58,86.7c0.2-0.3,0.4-0.8,0.6-1.2c0.2-0.4,0.4-0.9,0.6-1.2c0.2-0.3,0.3-0.5,0.3-0.5s-0.7,0.2-1.3,0.4
		c-0.7,0.2-1.3,0.5-1.3,0.5s0.3,0.7,0.5,1.3c0.1,0.3,0.3,0.7,0.4,0.9c0.1,0.2,0.2,0.4,0.2,0.4s0-0.1,0.1-0.2
		C57.9,87,57.9,86.8,58,86.7z"/>
	<path fill="#009490" d="M56.8,89.7c0.1-0.2,0.2-0.4,0.3-0.7c0.4-0.9,0.7-1.8,0.7-1.8s-0.6,0.3-1.3,0.5c-0.7,0.3-1.3,0.6-1.3,0.6
		s0.1,0.2,0.2,0.4c0.1,0.2,0.2,0.6,0.4,0.9c0.3,0.6,0.6,1.3,0.6,1.3s0.1-0.2,0.2-0.6C56.6,90.2,56.7,89.9,56.8,89.7z"/>
	<path fill="#009490" d="M56.2,91.5c0.1-0.4,0.2-0.6,0.2-0.6s-0.6,0.3-1.3,0.6c-0.3,0.2-0.6,0.3-0.9,0.4c-0.2,0.1-0.4,0.2-0.4,0.2
		s0.3,0.6,0.7,1.3c0.3,0.6,0.7,1.2,0.7,1.2s0.3-0.9,0.5-1.9C55.9,92.3,56.1,91.8,56.2,91.5z"/>
	<path fill="#009490" d="M54.7,96.6c0.1-0.5,0.2-1,0.3-1.3c0.1-0.4,0.2-0.6,0.2-0.6s-0.2,0.1-0.4,0.2c-0.2,0.1-0.5,0.3-0.8,0.5
		c-0.6,0.4-1.2,0.7-1.2,0.7s0.4,0.6,0.7,1.2c0.2,0.3,0.4,0.6,0.5,0.8c0.1,0.2,0.3,0.4,0.3,0.4s0-0.2,0.1-0.6
		C54.5,97.6,54.6,97.1,54.7,96.6z"/>
	<path fill="#009490" d="M53.8,101.2c0-0.2,0.1-0.5,0.1-0.7c0.2-1,0.3-1.9,0.3-1.9s-0.6,0.4-1.2,0.8c-0.6,0.4-1.2,0.8-1.2,0.8
		s0.1,0.1,0.3,0.4c0.2,0.2,0.4,0.5,0.6,0.8c0.4,0.6,0.9,1.1,0.9,1.1s0-0.2,0.1-0.6C53.8,101.6,53.8,101.4,53.8,101.2z"/>
	<path fill="#009490" d="M53.6,103c0-0.4,0.1-0.6,0.1-0.6s-0.6,0.4-1.1,0.9c-0.3,0.2-0.6,0.4-0.8,0.6c-0.2,0.2-0.3,0.3-0.3,0.3
		s0.5,0.5,0.9,1.1c0.5,0.5,0.9,1.1,0.9,1.1s0.1-1,0.1-2C53.5,103.9,53.5,103.4,53.6,103z"/>
	<path fill="#009490" d="M53.2,106.9c0-0.4,0-0.6,0-0.6s-0.5,0.5-1.1,0.9c-0.5,0.5-1,1-1,1s0.5,0.5,1,1c0.5,0.5,1,1,1,1s0-1,0.1-2
		C53.2,107.8,53.2,107.3,53.2,106.9z"/>
	<path fill="#009490" d="M111.9,82.3c0.1,0.4,0.2,0.7,0.3,1c-1.2,0.4-2.4,0.2-3.7,0.1c-2.1-0.2-4.3-0.4-6.4-0.5
		c-0.7,0-1.4,0.2-2,0.5c-0.6,0.3-0.7,1-0.3,1.3c1.4,1.2,1.9,2.7,1.9,4.5c0.3,1.3,2.2,1.9,3,2c3,0.2,5.1-1.2,6.4-3.9
		c0.5-1,1-1.9,1.5-2.9c0.2,0.4,0.3,0.6,0.5,0.8C113.5,84.3,113,83,111.9,82.3z M107.3,84.4c-1.9-0.2-3.9-0.3-5.8-0.5
		C103.4,83.6,105.4,83.8,107.3,84.4z M104.2,89.6c0.9,0,1.6,0,2.3,0C106,90.1,105.3,90.2,104.2,89.6z M106.8,88.4
		c-1,0.2-3.4,0.5-4.5-1.2c-0.4-0.5-0.6-1.2-1-2c1.3,0.1,2.5,0.1,3.7,0.2c2.2,0.2,4.4,0.4,6.6-0.7C109.9,86,108.9,87.9,106.8,88.4z"
		/>
	<path fill="#009490" d="M125.7,79.4c-0.9-1.1-1.1-2.3,1.5-5.5c-1.4,0.8-2.8,2.8-2.8,4.4c0.2,1.8,1.4,2.9,1.9,3.5
		C126.6,81,126,79.8,125.7,79.4z"/>
	<path fill="#009490" d="M104.8,80.2c0.7,0.1,1.5,0.4,2.2,0.5c0.7,0.1,2.3-0.2,1.1-2.3c0.3,2-1.3,1.9-2.9,1.2
		c-1-0.5-1.6-0.4-2.7-0.2c0,0-0.4,0,0.1-0.9c0,0-0.7,0.4-0.6,1.3C102,80.2,102.8,79.6,104.8,80.2z"/>
	<path fill="#009490" d="M84.5,110.5c-6.9-1.4-8.7,4.2-8.7,4.2C78.6,110.3,84.5,110.5,84.5,110.5z"/>
	<path fill="#009490" d="M113.6,69.3c-3.5,0-4.2,1.8-4.2,1.8s1.5-1.6,4.2-1.4c2.5,0.2,3.3,1,3.6,1.4c-3.4-0.2-6.2-1.1-8.5,2.8
		c0,0,1.1-1.2,2.7-1.9c0.3-0.1,0.5-0.2,0.8-0.2c0,0,0,0.1,0,0.1c0,0.3,0.1,0.6,0.2,0.9l0.6-0.4c-0.1-0.2-0.1-0.3-0.1-0.5
		c0-0.1,0-0.1,0-0.2c0.1,0,0.3,0,0.4,0c0,0.1,0,0.1,0,0.2c0,0.5,0.4,0.9,0.9,0.9c0.5,0,0.8-0.4,0.9-0.8c0.1,0,0.3,0,0.4,0.1
		c0,0.6-0.6,1.2-1.2,1.2c-0.3,0-0.5-0.1-0.7-0.2l-0.5,0.5c0.3,0.3,0.7,0.4,1.2,0.4c1,0,1.9-0.8,1.9-1.8c0,0,0,0,0,0
		c1.7,0.2,2.1,0.1,2.1,0.1c-0.2,1.9-3.9,1.9-3.9,1.9c4.8,0.2,4.6-2,4.6-2c1-0.4,1.2-1.1,1.2-1.1c-0.5,0.1-1,0.1-1.5,0.1
		C118.3,70.6,117.2,69.3,113.6,69.3z"/>
	<path fill="#009490" d="M109.4,66.4c0.6,1.2,4.6,0,6.8,0.2c2.1,0.1,3.6,1.2,3.6,1.2c-1.8-3.7-6.7-2.2-9.2-2.9
		C109.6,64.5,108.7,65.1,109.4,66.4z"/>
	<path fill="#009490" d="M106.1,73.8c0.1-0.3,0.6-1.3,0.6-2.4c0-0.6-0.5-0.6-0.5,0.4c0,0.8-0.1,1.2-0.4,2.1
		C105.5,74.7,105.9,74.2,106.1,73.8z"/>
	<path fill="#009490" d="M99.4,134.8c-0.9-0.2-1.7,0.3-1.9,1.1c-0.2,0.8,0.4,1.6,1.3,1.8c0.9,0.2,1.7-0.3,1.9-1.1
		C100.9,135.8,100.3,135,99.4,134.8z M100.3,136.5c-0.1,0.6-0.7,0.9-1.4,0.8c0,0,0,0,0,0c0.4-0.1,0.7-0.4,0.8-0.8
		c0.1-0.5-0.3-1.1-0.8-1.2c-0.1,0-0.3,0-0.4,0c0.3-0.1,0.6-0.2,0.9-0.1C99.9,135.3,100.4,135.9,100.3,136.5z"/>
	<path fill="#009490" d="M99.2,138.9c-0.9-0.2-1.7,0.3-1.9,1.1c-0.2,0.8,0.4,1.6,1.3,1.8c0.9,0.2,1.7-0.3,1.9-1.1
		C100.6,139.9,100,139.1,99.2,138.9z M100,140.6c-0.1,0.6-0.7,0.9-1.4,0.8c0,0,0,0,0,0c0.4-0.1,0.7-0.4,0.8-0.8
		c0.1-0.5-0.3-1.1-0.8-1.2c-0.1,0-0.3,0-0.4,0c0.3-0.1,0.6-0.2,0.9-0.1C99.7,139.4,100.1,140,100,140.6z"/>
	<path fill="#009490" d="M172.7,137.7l-2.8-6.9c0.6-0.3,1.1-0.6,1.1-0.6s-0.3-0.6-0.6-1.3c-0.2-0.3-0.3-0.6-0.4-0.9
		c-0.1-0.2-0.2-0.4-0.2-0.4s-0.1,0.2-0.2,0.6c-0.1,0.3-0.2,0.6-0.3,0.9l-0.4-1.1c1.8-5.6,2.7-11.6,2.7-17.7c0-19.8-9.9-37.4-25-48.1
		c0.3-0.1,0.8-0.3,1.2-0.3c0.2,0.2,0.5,0.3,0.8,0.5c0.8,0.6,1.5,1.2,1.5,1.2s-0.1-0.7-0.2-1.4c-0.1-0.7-0.2-1.4-0.2-1.4
		s-0.2,0-0.4,0.1c-0.3,0-0.6,0.1-1,0.2c-0.7,0.1-1.4,0.2-1.4,0.2s0.2,0.1,0.5,0.4c0.1,0.1,0.2,0.1,0.2,0.2c-0.5,0-1.1,0.1-1.4,0.2
		c0,0,0,0,0,0c-0.4-0.3-0.9-0.6-1.3-0.9c0.3-0.1,0.8-0.2,1.4-0.3c0,0,0.1,0.1,0.1,0.1c0.3,0.2,0.5,0.4,0.5,0.4s0-0.2-0.1-0.5
		c0.3-0.1,0.6-0.1,0.8-0.2c0.8-0.2,1.3-0.4,0.9-0.4c-0.3,0-1.2,0.1-1.7,0.2c0-0.1,0-0.2,0-0.2c0.1-0.1,0.2-0.2,0.4-0.3
		c0.3-0.3,1.6-0.5,2.4-0.6c0.9-0.1,2-0.6,2-0.6s-2.2,0.3-3,0.4c-0.8,0.1-2,0.2-1.3-0.3c0.7-0.5,4.1-2.2,4.1-2.2s-0.3,0-0.9,0.2
		c-0.6,0.2-3,1.4-3.3,1.6c-0.3,0.2-1-0.2-1.5-0.3c-0.5-0.1,2.3-1.7,2.3-1.7s-2.1,1.1-2.7,1.5c-0.7,0.5-1.5,0.3-1.2-0.1
		c0.4-0.4,1.5-1.5,1.1-1.2c-0.2,0.1-0.9,0.7-1.7,1.3c0,0,0,0,0,0c-0.2-0.7-0.4-1.4-0.4-1.4s-0.3,0.1-0.8,0.2
		c-1.3-2.6-3.4-3.8-3.4-3.8s-0.8-5.1-5.2-8.6c-3.2-2.5-6.1-1.7-6.1-1.7s-0.6-0.7-2.1-1.2c-1.5-0.5-3-0.1-3-0.1s-3.1-2.9-8-2.5
		c-5.7,0.4-8.3,4.6-8.3,4.6s-3.4,0.2-5.1,2.3c-1.9,2.3-2.5,4.8-2.8,6.6c-0.1,0.2-0.2,0.2-0.2,0.2s0,0,0.1,0c0,0.4-0.1,0.7-0.1,1.1
		c-25.4,6.5-44.2,29.6-44.2,57c0,6.2,1,12.1,2.7,17.7l-0.4,1.1c0-0.1,0-0.1-0.1-0.2c-0.1-0.4-0.3-0.8-0.4-1.3
		c-0.3-0.9-0.5-1.9-0.5-1.9s-0.3,0.6-0.7,1.2c-0.3,0.6-0.7,1.3-0.7,1.3s0.2,0.1,0.4,0.2c0.2,0.1,0.6,0.3,0.9,0.4
		c0.4,0.2,0.8,0.4,1,0.5l-3.4,8.2l-9.7-2.1l0.3,0.9c3.9,10.4,10.2,20,18.3,27.6l0.4,0.4l3.5-3.9c0,0.3,0,0.6,0,1
		c0.1,0.7,0.1,1.4,0.1,1.4s0.7,0,1.4-0.1c0.7-0.1,1.4-0.1,1.4-0.1s-0.8-0.7-1.5-1.3c-0.4-0.3-0.8-0.7-1-0.9
		c-0.1-0.1-0.2-0.1-0.2-0.2l0,0l-0.2-0.2c0,0,0,0,0,0c-0.1-0.1-0.8-0.7-1.4-1.4c-0.4-0.3-0.7-0.7-1-1c-0.1-0.1-0.2-0.2-0.3-0.3
		c-0.1-0.1-0.1-0.1-0.1-0.1s0,0.2,0,0.4c0,0.3,0,0.6,0,1c0,0.7,0,1.4,0,1.4s0.7,0,1.4,0c0.1,0,0.3,0,0.4,0l-2.5,2.8
		c-5.5-5.3-10.1-11.5-13.7-18.2l6.7,1.4l-0.1,0.1c3.2,4.9,7,9.5,11.3,13.4c12.2,11.3,28.6,18.1,46.5,18.1c18,0,34.3-6.9,46.5-18.1
		c4.3-4,8.1-8.5,11.3-13.4l-0.1-0.1l6.7-1.4c-3.6,6.7-8.2,12.9-13.7,18.2l-2.5-2.8c0.1,0,0.3,0,0.4,0c0.7,0,1.4,0,1.4,0s0-0.7,0-1.4
		c0-0.4,0-0.7,0-1c0-0.3,0-0.4,0-0.4s0,0-0.1,0.1c-0.1,0.1-0.2,0.2-0.3,0.3c-0.3,0.3-0.6,0.6-1,1c-0.6,0.6-1.3,1.3-1.4,1.4
		c0,0,0,0,0,0l-0.3,0.2l0,0c-0.1,0.1-0.1,0.1-0.2,0.2c-0.3,0.2-0.7,0.6-1,0.9c-0.8,0.7-1.5,1.3-1.5,1.3s0.7,0.1,1.4,0.1
		c0.7,0,1.4,0.1,1.4,0.1s0-0.7,0.1-1.4c0-0.3,0-0.7,0-1l3.5,3.9l0.4-0.4c8.1-7.7,14.4-17.2,18.3-27.6l0.3-0.9L172.7,137.7z
		 M147.3,59.6c0,0-0.3,0.1-0.6,0.3c0-0.2-0.1-0.5-0.1-0.7C147,59.4,147.3,59.6,147.3,59.6z M162.1,140.4l-0.6-0.4
		c0.3-0.1,0.7-0.2,1-0.3C162.4,139.9,162.3,140.1,162.1,140.4z M165.9,130.6c0.2,0.4,0.3,0.8,0.5,1.3c-0.3,0.8-0.6,1.5-1,2.3
		c-0.1-0.4-0.2-0.7-0.3-1.1c-0.2-0.6-0.4-1.2-0.6-1.8c-0.2-0.6-0.4-1.1-0.6-1.5c-0.3-0.9-0.6-1.5-0.6-1.5s0.5-0.3,1.4-0.8
		c0.4-0.2,0.9-0.5,1.4-0.8c0.5-0.3,1-0.7,1.6-1c0.3-0.2,0.6-0.4,0.9-0.6c-0.2,0.8-0.5,1.7-0.7,2.5c-0.4,0.3-0.9,0.5-1.2,0.7
		c-0.9,0.5-1.4,0.8-1.4,0.8S165.6,129.7,165.9,130.6z M170.5,110.5c0,0.5,0,1,0,1.5c-0.3,0.4-0.7,0.7-0.9,1
		c-0.3,0.4-0.6,0.6-0.8,0.8c-0.2,0.2-0.3,0.3-0.3,0.3s0.4,0.5,1,1.3c0.3,0.3,0.5,0.7,0.8,1.1c-0.1,0.8-0.2,1.6-0.3,2.4
		c-0.2-0.3-0.4-0.6-0.6-0.9c-0.7-1.1-1.4-2.1-2-2.9c-0.6-0.7-1-1.2-1-1.2s0.1-0.1,0.3-0.3c0.2-0.2,0.5-0.5,0.8-0.8
		c0.7-0.7,1.5-1.6,2.4-2.6c0.2-0.3,0.4-0.5,0.7-0.8C170.5,109.8,170.5,110.1,170.5,110.5z M168.1,94c0.2,0.8,0.5,1.6,0.7,2.4
		c-0.2,0.4-0.4,0.8-0.6,1.1c-0.5,0.8-0.8,1.4-0.8,1.4s0.1,0.1,0.4,0.3c0.2,0.2,0.5,0.4,0.9,0.7c0.3,0.2,0.7,0.5,1,0.8
		c0.1,0.8,0.3,1.6,0.4,2.4c-0.2-0.2-0.5-0.4-0.7-0.7c-0.9-0.9-2-1.7-2.7-2.2c-0.4-0.3-0.7-0.5-0.9-0.7c-0.2-0.2-0.3-0.3-0.3-0.3
		c0,0,0.3-0.5,0.8-1.4c0.2-0.4,0.5-0.9,0.8-1.4c0.3-0.5,0.5-1.1,0.8-1.7C167.9,94.5,168,94.3,168.1,94z M160.6,85.1
		c0.1-0.3,0.2-0.7,0.3-1.1c0.2-0.9,0.5-2.2,0.7-3.4c0-0.2,0.1-0.5,0.1-0.7c0.4,0.7,0.9,1.4,1.3,2.1c-0.1,0.4-0.2,0.8-0.3,1.2
		c-0.1,0.5-0.2,0.9-0.3,1.2c-0.1,0.3-0.1,0.4-0.1,0.4s0.6,0.2,1.5,0.6c0.3,0.1,0.7,0.3,1.1,0.5c0.3,0.7,0.7,1.4,1,2.2
		c-0.2-0.1-0.5-0.2-0.8-0.4c-0.6-0.3-1.2-0.5-1.7-0.8c-0.5-0.2-1-0.5-1.5-0.6c-0.9-0.3-1.5-0.6-1.5-0.6S160.5,85.3,160.6,85.1z
		 M153.4,69.5c0,0.4,0,0.7,0,1.1c0,1,0,1.6,0,1.6s0.2,0,0.5,0c0.3,0,0.7,0,1.2,0.1c0.3,0,0.7,0.1,1.1,0.1c0.5,0.6,1,1.2,1.5,1.8
		c-0.2,0-0.5-0.1-0.7-0.1c-1.3-0.2-2.6-0.4-3.5-0.5c-0.5-0.1-0.9-0.1-1.1-0.1c-0.3,0-0.4,0-0.4,0s0-0.6,0-1.6c0-1-0.1-2.2-0.2-3.5
		c0-0.2,0-0.4-0.1-0.6C152.3,68.4,152.9,68.9,153.4,69.5z M145.2,62.7c0.4,0.3,0.8,0.5,1.1,0.8c-0.2,0-0.4,0-0.6,0.1
		c-0.6,0.1-1.3,0.1-1.9,0.2c-0.3,0-0.5,0.1-0.8,0.1c0-0.1,0-0.2,0.1-0.3c0.5-0.3,0.5-0.7,0.5-0.7S144.4,62.8,145.2,62.7z
		 M143.1,63.1c0-0.2,0-0.4,0.1-0.6c0,0,0,0,0.1,0C143.3,62.5,143.3,62.8,143.1,63.1z M143.7,62.4c0.1,0,0.2-0.1,0.3-0.3
		c0.1,0,0.2,0,0.3,0c0.1,0.1,0.3,0.2,0.4,0.3C144.3,62.4,143.8,62.4,143.7,62.4z M144.8,61.1c-0.2-0.1-0.4-0.2-0.5-0.3
		c0.4,0.1,0.8,0.2,0.8,0.2S144.9,61.1,144.8,61.1z M144.2,59.6c0.3,0.2,0.7,0.5,1.1,0.7c0.2,0.1,0.3,0.2,0.5,0.3
		c-0.2,0.1-0.4,0.1-0.6,0.1c-0.3,0-1.3-0.4-1.3-0.4S144.3,60,144.2,59.6z M143,58.9c0.4,0.3,0.8,0.4,0.8,0.4s-0.1-0.4-0.2-0.9
		c0.1-0.1,0.2-0.1,0.2-0.1s-0.2,0.3,0,0.8c0,0.1,0,0.1,0.1,0.2c0,0-0.1,0-0.1,0s0,0,0.1,0c0,0.4-0.1,0.7-0.3,1
		c-0.1-0.1-0.2-0.1-0.3-0.2c0-0.3-0.1-0.7-0.2-1.1C143,59,143,58.9,143,58.9C142.9,58.9,143,58.9,143,58.9z M144.4,65.4
		c0.6-0.1,1.2-0.1,1.8-0.2c0.6,0,1.1-0.1,1.6-0.1c0.3,0,0.5,0,0.7,0c0.4,0.3,0.7,0.6,1.1,0.9c0,0.2,0.1,0.4,0.1,0.7
		c0.1,0.5,0.2,1,0.2,1.6c0,0.3,0.1,0.6,0.1,0.9c0,0.3,0.1,0.6,0.1,0.9c0.1,1.2,0.2,2.4,0.2,3.4c0,0.9,0,1.5,0,1.5s0.1,0,0.4,0
		c0.3,0,0.6,0,1.1,0.1c0.9,0.1,2.1,0.2,3.3,0.5c1.2,0.2,2.5,0.5,3.4,0.7c0.3,0.1,0.6,0.1,0.8,0.2c0.2,0.3,0.5,0.6,0.7,1
		c0,0.2,0,0.5-0.1,0.8c-0.1,1-0.3,2.2-0.5,3.4c-0.2,1.2-0.5,2.4-0.7,3.3c-0.1,0.4-0.2,0.8-0.3,1.1c-0.1,0.3-0.1,0.4-0.1,0.4
		s0.6,0.2,1.4,0.5c0.4,0.2,0.9,0.4,1.4,0.6c0.5,0.2,1.1,0.5,1.7,0.7c0.6,0.3,1.1,0.5,1.6,0.8c0.5,0.3,1,0.5,1.4,0.8
		c0.3,0.2,0.6,0.3,0.8,0.5c0.1,0.3,0.2,0.6,0.3,0.9c-0.1,0.2-0.2,0.5-0.3,0.9c-0.2,0.4-0.4,1-0.6,1.5c-0.2,0.5-0.5,1.1-0.8,1.7
		c-0.3,0.6-0.5,1.1-0.8,1.6c-0.3,0.5-0.5,1-0.8,1.4c-0.4,0.8-0.7,1.3-0.7,1.3s0.1,0.1,0.3,0.2c0.2,0.2,0.5,0.4,0.9,0.7
		c0.7,0.6,1.7,1.3,2.6,2.1c0.9,0.8,1.9,1.7,2.5,2.4c0.3,0.3,0.6,0.6,0.8,0.8c0,0.3,0,0.5,0.1,0.8c-0.2,0.2-0.4,0.5-0.6,0.9
		c-0.6,0.8-1.4,1.7-2.2,2.7c-0.8,0.9-1.7,1.8-2.3,2.5c-0.3,0.3-0.6,0.6-0.8,0.8c-0.2,0.2-0.3,0.3-0.3,0.3s0.4,0.5,0.9,1.2
		c0.6,0.7,1.2,1.7,1.9,2.8c0.7,1,1.3,2.1,1.8,3c0.2,0.4,0.4,0.8,0.6,1c0,0.2-0.1,0.4-0.1,0.7c-0.2,0.2-0.5,0.4-0.9,0.7
		c-0.4,0.3-0.8,0.6-1.3,1c-0.5,0.3-1,0.7-1.5,1c-0.5,0.3-1,0.7-1.5,1c-0.5,0.3-1,0.6-1.4,0.8c-0.8,0.4-1.3,0.7-1.3,0.7
		s0.3,0.6,0.6,1.4c0.2,0.4,0.3,0.9,0.5,1.5c0.2,0.5,0.4,1.1,0.6,1.7c0.2,0.6,0.4,1.2,0.5,1.8c0.2,0.6,0.3,1.1,0.4,1.6
		c0.1,0.5,0.2,0.9,0.3,1.2c-0.1,0.2-0.2,0.4-0.3,0.5c0,0,0,0,0,0c-0.3,0.1-0.6,0.3-1.1,0.4c-0.9,0.3-2,0.7-3.1,1.1l-1.2-0.8
		c1-0.3,2.1-0.7,2.9-1c0.4-0.2,0.8-0.3,1-0.4c0.3-0.1,0.4-0.2,0.4-0.2s-0.1-0.6-0.3-1.5c-0.1-0.4-0.2-1-0.4-1.5
		c-0.2-0.6-0.3-1.1-0.5-1.7c-0.2-0.6-0.4-1.1-0.6-1.7c-0.2-0.5-0.4-1-0.5-1.4c-0.2-0.4-0.3-0.8-0.4-1c0.1-0.2,0.1-0.4,0.2-0.5
		c0.2-0.1,0.5-0.3,0.9-0.5c0.4-0.2,0.8-0.5,1.3-0.8c0.5-0.3,1-0.6,1.5-0.9c0.5-0.3,1-0.7,1.5-1c0.5-0.3,0.9-0.7,1.3-0.9
		c0.7-0.6,1.2-1,1.2-1s-0.1-0.1-0.2-0.4c-0.1-0.2-0.3-0.6-0.6-1c-0.5-0.8-1.1-1.9-1.7-2.9c-0.7-1-1.3-2-1.9-2.7
		c-0.3-0.4-0.5-0.7-0.7-0.9c0-0.2,0-0.3,0-0.5c0,0,0,0,0.1,0c0.2-0.2,0.5-0.4,0.8-0.7c0.6-0.6,1.4-1.5,2.2-2.4
		c0.8-0.9,1.5-1.9,2.1-2.6c0.3-0.4,0.5-0.7,0.7-0.9c0.2-0.2,0.2-0.3,0.2-0.3s-0.4-0.4-1.1-1.1c-0.6-0.7-1.6-1.5-2.5-2.3
		c-0.9-0.8-1.8-1.5-2.5-2.1c-0.3-0.3-0.6-0.5-0.8-0.6c-0.1,0-0.1-0.1-0.2-0.1c0-0.1,0-0.2-0.1-0.3c0.1-0.2,0.3-0.6,0.6-1.1
		c0.2-0.4,0.5-0.8,0.7-1.3c0.3-0.5,0.5-1,0.8-1.6c0.3-0.5,0.5-1.1,0.7-1.6c0.2-0.5,0.4-1,0.6-1.5c0.3-0.9,0.6-1.5,0.6-1.5
		s-0.5-0.3-1.3-0.8c-0.4-0.2-0.9-0.5-1.4-0.7c-0.5-0.3-1-0.5-1.6-0.8c-0.5-0.3-1.1-0.5-1.6-0.7c-0.5-0.2-1-0.4-1.4-0.6
		c-0.6-0.2-1.1-0.4-1.3-0.5c0,0,0-0.1-0.1-0.1c0-0.1,0-0.2,0.1-0.3c0.1-0.2,0.2-0.6,0.3-1c0.2-0.9,0.4-2,0.7-3.2
		c0.2-1.2,0.3-2.4,0.5-3.3c0.1-0.9,0.1-1.5,0.1-1.5s-0.6-0.2-1.5-0.4c-0.9-0.2-2.1-0.5-3.3-0.7c-1.2-0.2-2.4-0.3-3.2-0.4
		c-0.4-0.1-0.8-0.1-1.1-0.1c-0.2,0-0.4,0-0.4,0c0,0,0,0,0,0c0,0,0-0.6,0-1.5c0-0.9-0.1-2.1-0.2-3.3c0-0.3-0.1-0.6-0.1-0.9
		c0-0.3-0.1-0.6-0.1-0.9c-0.1-0.6-0.2-1.1-0.2-1.6c-0.1-0.5-0.1-0.8-0.2-1.1c-0.1-0.3-0.1-0.4-0.1-0.4s-0.6,0-1.6,0
		c-0.5,0-1,0-1.6,0.1c-0.6,0-1.2,0.1-1.8,0.2c-0.4,0-0.9,0.1-1.3,0.1c0.1-0.2,0.3-0.6,0.4-1.2C143.2,65.5,143.8,65.4,144.4,65.4z
		 M69.2,136.3l-0.4,0.3c-0.9-0.3-1.9-0.6-2.6-0.9c-0.4-0.2-0.8-0.3-1-0.4c-0.2-0.1-0.4-0.2-0.4-0.2s0.1-0.6,0.4-1.5
		c0.1-0.4,0.3-0.9,0.4-1.5c0.2-0.5,0.3-1.1,0.5-1.7c0.1-0.2,0.2-0.5,0.2-0.7c0.1,0.2,0.1,0.3,0.2,0.5c0,0.1,0,0.1,0,0.2
		c0,0.5,0.1,0.9,0.1,1.3c0,0.4,0.1,0.8,0.1,1.2c0.1,0.7,0.2,1.2,0.2,1.2s0.3,0.3,0.8,0.8C68.2,135.4,68.7,135.8,69.2,136.3z
		 M62.9,122c0.2,0.3,0.4,0.6,0.6,1c0.2,0.4,0.5,0.7,0.8,1.1c0,0,0.1,0.1,0.1,0.1c0,0.1,0,0.1,0.1,0.2c-0.2-0.1-0.4-0.3-0.6-0.4
		c-0.5-0.3-1-0.6-1.5-0.9c-0.5-0.3-0.9-0.6-1.2-0.9c-0.7-0.5-1.2-0.9-1.2-0.9s0.1-0.1,0.2-0.4c0.1-0.2,0.3-0.6,0.6-1
		c0.5-0.8,1.1-1.8,1.8-2.8c0.2-0.2,0.3-0.4,0.4-0.6c0,0.2,0.1,0.5,0.1,0.7c0,0,0,0.1,0,0.1c-0.2,0.9-0.3,1.8-0.5,2.5
		c-0.1,0.3-0.1,0.6-0.1,0.8c0,0.2,0,0.3,0,0.3S62.5,121.4,62.9,122z M61.4,107.3c0.1,0.2,0.1,0.5,0.2,0.8c0.2,0.7,0.5,1.5,0.8,2.4
		c0,0,0,0.1,0,0.1c0,0.1,0,0.2,0,0.3c-0.2-0.2-0.4-0.4-0.6-0.6c-0.8-0.9-1.5-1.8-2.1-2.5c-0.3-0.4-0.5-0.7-0.7-0.9
		c-0.2-0.2-0.2-0.3-0.2-0.3s0.4-0.4,1.1-1.1c0.6-0.6,1.5-1.4,2.4-2.2c0.2-0.2,0.4-0.4,0.7-0.6c0,0.3-0.1,0.5-0.1,0.8
		c0,0,0,0.1,0,0.1c-0.4,0.8-0.9,1.6-1.1,2.3c-0.3,0.6-0.5,1.1-0.5,1.1S61.4,107.1,61.4,107.3z M64.2,94.3c0,0.3,0,0.7,0,1.2
		c0,0.4,0.1,0.9,0.1,1.3c0,0,0,0.1,0,0.1c0,0.1-0.1,0.2-0.1,0.3c-0.1-0.3-0.3-0.5-0.4-0.8c-0.3-0.5-0.5-1.1-0.8-1.6
		c-0.2-0.5-0.4-1-0.6-1.4c-0.3-0.8-0.6-1.4-0.6-1.4s0.5-0.3,1.3-0.7c0.4-0.2,0.9-0.5,1.4-0.7c0.5-0.2,1-0.5,1.6-0.7
		c0.3-0.1,0.6-0.3,0.9-0.4c-0.1,0.2-0.2,0.5-0.3,0.7c0,0-0.1,0.1-0.1,0.1c-0.3,0.3-0.6,0.7-0.9,1c-0.3,0.3-0.6,0.6-0.8,0.9
		c-0.5,0.5-0.7,0.9-0.7,0.9S64.2,93.6,64.2,94.3z M68.6,79.1c0,0,0.6-0.1,1.5-0.4c0.9-0.2,2.1-0.4,3.2-0.6C73.7,78,74,78,74.4,78
		c-0.2,0.2-0.3,0.4-0.5,0.6c-0.1,0-0.1,0.1-0.2,0.1c-0.8,0.5-1.6,1-2.1,1.4c-0.6,0.4-0.9,0.7-0.9,0.7s-0.1,0.4-0.3,1.1
		c-0.2,0.7-0.4,1.6-0.6,2.5c0,0.1,0,0.1,0,0.2c-0.1,0.1-0.1,0.2-0.2,0.3c-0.1-0.3-0.1-0.7-0.2-1c-0.2-1.1-0.4-2.3-0.5-3.2
		C68.7,79.6,68.6,79.1,68.6,79.1z M78,74.1c0-0.4,0-0.7,0.1-1.1c0-0.3,0-0.6,0.1-0.9c0-0.3,0.1-0.6,0.1-0.8c0.1-0.6,0.1-1.1,0.2-1.5
		c0.1-0.5,0.1-0.8,0.2-1.1c0-0.3,0.1-0.4,0.1-0.4s0.6,0,1.5,0.1c0.5,0,1,0,1.5,0.1c0.6,0.1,1.1,0.1,1.7,0.2c0.4,0.1,0.8,0.1,1.2,0.2
		c-0.2,0.1-0.4,0.3-0.6,0.4c-0.1,0-0.2,0-0.3,0.1c-0.4,0.1-0.9,0.3-1.3,0.4c-0.4,0.1-0.8,0.3-1.1,0.4c-0.7,0.2-1.1,0.4-1.1,0.4
		s-0.1,0.1-0.2,0.3c-0.1,0.2-0.2,0.4-0.4,0.7c-0.2,0.3-0.4,0.7-0.6,1c-0.1,0.2-0.2,0.4-0.3,0.6c-0.1,0.2-0.2,0.4-0.3,0.6
		c0,0.1-0.1,0.1-0.1,0.2C78.2,73.9,78.1,74,78,74.1z M89,66.2c0.1-0.4,0.3-0.8,0.4-1.2c0.2-0.6,0.4-1.1,0.6-1.6
		c0.2-0.5,0.4-1,0.6-1.4c0.4-0.8,0.6-1.4,0.6-1.4s0.1,0,0.4,0.1c0.2,0.1,0.6,0.2,1,0.3c-0.5,0.9-0.8,1.8-1.1,2.7
		c0,0-0.1,0.1-0.1,0.1c-0.2,0.2-0.5,0.5-0.8,0.8c-0.3,0.3-0.6,0.7-0.9,1c-0.1,0.1-0.1,0.2-0.2,0.2C89.2,66,89.1,66.1,89,66.2z
		 M96.2,71.4c-0.2,0.2-0.3,0.4-0.4,0.6c-0.4,0-0.9,0-1.4-0.1c0,0,0.5,0.6,1.2,1c0,0,0.1,0.5,0.4,1c-0.8,1.3-1.3,2.4-1.7,3.3
		c-0.2-0.6-0.5-1.6-0.4-3.3c0.1-1.2,0.6-3.1,1.7-5.3C95.6,69.7,96,70.9,96.2,71.4z M94,78.5c-0.6,3,0.9,4.9,2.4,7.6
		c2.3,4,4,7.3,4,7.3s0.1,1.6,1.3,2.6c-1.7,0.2-2.4,1.4-2.4,1.4c-3.1,0.1-4.1,3-4.1,3c-3.8,1.2-3.8,4.5-3.8,4.5
		c-1.2,0.7-1.8,1.7-2.2,2.5c-0.9-0.1-2.4,0-4.1,0.8c0,0,0,0,0,0c-8-2.3-11,3.6-13,7.4c-1,2-2.5,6.9-5.2,12.7
		c-2.2-5.6-3.3-11.6-3.3-17.7c0-13.1,5.1-25.4,14.4-34.7c3.8-3.8,8.1-6.9,12.8-9.3c-0.3,2.4-0.1,4.5,0.4,6.3
		C92,75.7,93.4,77.6,94,78.5z M105.9,97c3,0,6.9-1.7,10.9-4.3c3-2,5-3.2,6.3-4.5c-1.3,2.6-2.8,6.8-4.2,11.2c-1.2,3.8-3.6,6.8-4,8.8
		c-0.5,2.2-0.2,3.6-0.2,3.6c0.4,0,1.1-2.7,1.7-3.8c2.7-5.4,4.4-12.8,6.2-16c-2.3,10.7,2.8,14.1,6.9,15.2c0,0,0,0.1,0,0.1
		c-0.5,0.3-0.9,0.8-1,1.3c0,0,0,0,0,0c-0.8,0-1.5,0.5-1.8,1.3c0,0-0.1,0-0.1,0c-0.8,0-1.4,0.4-1.7,1.1c-0.2,0-0.3-0.1-0.5-0.1
		c-0.7,0-1.4,0.4-1.7,1c-0.2-0.1-0.5-0.2-0.8-0.2c-0.8,0-1.5,0.5-1.8,1.3c-0.3-0.2-0.7-0.4-1.1-0.4c-0.8,0-1.5,0.5-1.7,1.2
		c-0.3-0.3-0.7-0.4-1.2-0.4c-0.7,0-1.4,0.4-1.7,1.1c-0.3-0.4-0.8-0.6-1.4-0.6c-0.7,0-1.4,0.4-1.7,1.1c-0.3-0.5-0.9-0.8-1.5-0.8
		c-0.6,0-1.1,0.3-1.4,0.7c-0.3-0.5-0.9-0.9-1.6-0.9c-0.4,0-0.7,0.1-1,0.3c-0.3-0.6-0.9-1-1.6-1c-0.2,0-0.4,0-0.6,0.1
		c-0.2-0.8-0.9-1.3-1.8-1.3c-0.2,0-0.3,0-0.4,0.1c-0.2-0.7-0.8-1.3-1.5-1.5c-0.1-0.6-0.5-1.2-1-1.5c0,0,0-0.1,0-0.1
		c0-0.4-0.1-0.8-0.4-1.1c0,0,0,0,0,0C102.6,107.6,106.4,103.2,105.9,97z M116.4,53.1c-0.2-2.1-0.2-2.8,0.2-3c0.4-0.2,2-0.1,5.2,2.9
		c3.2,3,4.3,5.1,4.3,5.2c-0.2,0-0.3,0.1-0.4,0.1c-0.4,0.1-1.2,1.2-1.5,1.7c-0.3,0.5-0.5,1.3-0.7,1.7c-0.2,0.4-0.8,1.5-0.7,2.5
		c0.1,1,0.8,1.9,1.8,2.3c1,0.5,2.9,1,4.1,0.7c0.1,0,0.1,0,0.2,0c-0.8,0.3-1.8,0.5-2.7,0.3c-0.6-0.2-1.2-1-1.8-0.6
		c-0.3,0.2-0.4,0.4-0.5,0.7c-0.6-1.3-1-1.7-1-1.7s2,3.9,1.4,4.1c-0.5,0.2-1.3-4.4-4.9-7.6c-3.6-3.2-4.9-3.9-5.4-5.4
		c-0.5-1.5-0.5-3,0.7-2.2c1.2,0.8,5.3,4.5,5.3,4.5S116.6,55.2,116.4,53.1z M127.3,58.4c0.4-0.2,1.3-0.8,2.7-0.8
		c1.3,0,1.6,1.4,1.7,1.6c0.1,0.2,1,1.1,0.4,2.5c-0.7,1.6-0.7,3-0.7,3.2c0,0,0,0,0,0c-0.2,0-0.4,0.1-0.6,0.2
		c-0.1-0.8-0.7-3.6-1.3-4.9c0,0,0.5,1.4,0.8,3.4c0.1,0.9,0.2,1.4,0.3,1.6c-0.1,0.1-0.2,0.2-0.3,0.4c-0.1-0.1-0.4-0.4-0.7-0.8
		c-0.4-0.5-2-3.6-2-3.6c1.6,3.9,2.2,4.2,2.5,4.5c0,0,0.1,0.1,0.1,0.1c-0.1,0.1-0.1,0.3-0.1,0.4c0,0.1,0,0.3,0,0.4c0,0,0,0-0.1,0.1
		c0,0-1.3,0.4-1.8,0.4c-0.4,0-3.1-0.1-4.4-1.7c-1.2-1.6,0.2-3,0.4-3.8c0.1-0.6,0.4-1.4,0.8-2.1c0.1,0.3,0.3,0.9,1.2,1.3
		c0,0-0.9-0.6-1-1.5c0.1-0.1,0.2-0.3,0.3-0.4c0.5-0.5,1.1-0.5,1.6-0.5c0.8,0.8,1.7,2.8,1.7,2.8C128.2,59.8,127.6,58.9,127.3,58.4z
		 M131.1,52.2c0.4,0.2,0.5,0.7,0.5,0.7s-0.8,1.1-0.9,1.4c0,0.3-0.6,0.2-1-0.7c-0.5-1.2,0.3-1.9,0.8-2.7
		C130.6,50.9,130.4,51.8,131.1,52.2z M133.6,57.7L133.6,57.7c-0.2,0.1-0.3,0.3-0.4,0.5c-0.2,0.2-0.4,0.5-0.5,0.6
		c-0.1,0.2-1-0.9-0.7-1.6c0.3-0.7,1.1-1.3,1.2-2.2c0,0,0.2,0.8,0.1,2C133.2,57.7,133.6,57.7,133.6,57.7z M140.4,63.2L140.4,63.2
		c-0.1-0.3-0.1-0.4-0.1-0.6c0.2-0.2,0.9-0.9,1.5-0.8c0.3,0,0.5,0.2,0.7,0.4c0,0.4,0,0.8-0.1,1.2C141.5,63.4,140.4,63.2,140.4,63.2z
		 M142.3,63.8c0,0.2-0.1,0.4-0.1,0.6c-0.5-0.2-0.9-0.5-0.9-0.5S141.8,63.8,142.3,63.8z M141.5,61.5c0,0-0.8,0.1-1.1,0.6
		c0,0-0.3-0.3-0.2-0.9c0.1-0.5,1.1-1.4,1.1-1.4s0,0.5,0.3,0.6C141.8,60.7,141.5,61.5,141.5,61.5z M140.3,64.1l0.6,0.1
		c0,0,0.6,0.2,1.3,0.5c-0.7,3.1-2.2,5.1-2.2,5.1c1.2-1,1.6-1.9,1.6-1.9s1.1,2.6-0.7,5.5c-1.3,2-5.4,6.2-5.4,6.2l2.5-1.8
		c0,0-0.1,3.9-2.5,6.1c-2.2,2.1-5.2,3.4-5.7,2.1c-1.6-4.7,4.7-9,4.7-9c-1.3,0.4-2.4,1.1-3.3,2c0.9-2.4,2.2-4.1,2.7-4.6
		c0.9,0,1.1,0,2-0.7c1.1-0.7,1.2-0.6,1.8-1.1c0.6-0.6,0.8-1,1-1.7c0.2-0.7,0.9-2.3,1.1-2.8c0.2-0.5,0-1.1-0.3-1.5
		c-0.2-0.4-1.2-0.8-1.2-0.8s1.3,0,1.7-0.9C140.2,64.6,140.3,64.4,140.3,64.1z M130.4,67.5c0,0,0.1,0.1,0.1,0.1
		c-0.2,0.3-0.8,1.3-1.9,1.2c0,0,1,0.4,2.1-1.1c0.1,0.1,0.3,0.1,0.4,0.2c0.1,0,0.3,0,0.4,0c-0.1,0.1-0.3,0.7-0.3,1.1
		c0,0.5,0.4,1.3,0.1,1.6c-0.3,0.3-1.6,0.8-2.5-0.5c-0.9-1.3-1.3-1-1.6-1.1c-0.3-0.1-1.7-0.2-2.1-0.6c-0.4-0.3-1.1-0.6-0.5-1.1
		c0.6-0.5,1.1,0.5,1.7,0.6c0.6,0.1,1.7-0.2,2.3-0.4c0.5-0.2,1-0.5,1.2-0.6c0,0,0.1,0,0.1-0.1c0,0.2,0.1,0.4,0.2,0.5
		c-0.4,0.3-1.9,1.4-4.4,0.8C125.9,68.1,128.2,69.1,130.4,67.5z M132.3,65.6c0.1,0.2,0.2,0.5,0.1,0.8c-0.1,0.7-0.7,1.1-1.2,1
		c-0.5-0.1-0.9-0.6-0.9-1.2c0.1,0.4,0.4,0.8,0.8,0.8c0.6,0.1,1.1-0.3,1.2-0.9C132.4,66,132.3,65.8,132.3,65.6z M131.4,71.5
		c0.3-0.2,0.5-0.8,0.5-1.4c0,0,0,0,0,0c0.5,0.9,1.2,1.3,1.2,1.3c-1.2-1-1.3-2.4-1.3-2.9c0.1-0.3,0.2-0.5,0.2-0.6
		c0.1,0,0.2-0.1,0.2-0.2l-0.1,0.1c0.5,1.6,1.4,2.5,1.7,2.8c0.3,0.3,1.3,0.9,1.3,0.9s-0.6-0.5-1.3-1.2c-0.8-0.7-1.5-2.5-1.5-2.7
		c0.1-0.1,0.1-0.2,0.2-0.2c0.2-0.1,0.6-0.1,1.3,0.1c1.1,0.3,2.7,1.3,2.7,1.3s-1.6-1.2-2.3-1.5c-0.6-0.2-1.3-0.2-1.6-0.2
		c0,0,0,0,0-0.1c0.2,0,0.7,0,1,0c0.3,0,1.6-0.2,2.6-0.7c1-0.4,1.8,0,2,0c0.2,0,1.2,0.2,1.4,1c0.2,0.8-1.1,1.9-1.4,2.8
		s-0.3,1.9-1.8,2.6c-0.5,0.2-0.8,0.4-1.1,0.6c-0.1-0.2-0.3-0.5-0.7-0.8c0,0,0.4,0.4,0.5,0.9c-0.1,0-0.2,0.1-0.2,0.1
		c-0.1-0.3-0.4-0.8-1-1.1c0,0,0.6,0.5,0.9,1.2c-0.3,0.1-0.5,0.2-0.7,0.2c-0.5,0-1.3-0.2-1.6-0.2c-0.3,0-1.1,0.6-1.4-0.1
		C130.9,72.7,131.1,71.7,131.4,71.5z M139.3,64.7c-0.7,0.8-2.2,0.7-3.4,1.2c-1.3,0.4-1.8,0.9-2.4,0.9c-0.4,0-0.7,0-0.8,0
		c0,0,0,0,0-0.1c0-0.2,0-0.4,0-0.6c2.6-0.2,4.6-2.2,4.6-2.2c-2.4,1.6-4.3,1.9-4.7,1.9c-0.1-0.2-0.2-0.3-0.3-0.5l0.1,0
		c1.1-0.7,1.3-3.2,1.3-3.2c-0.5,2.4-1.2,2.9-1.5,3c-0.2-0.1-0.4-0.3-0.6-0.3c0,0,0,0,0,0c0-0.2,0.2-1,0.3-1.6
		c0.1-0.7,0.7-1.6,0.8-1.9c0.1-0.3-0.1-1.5,0.2-2.1c0.3-0.6,0.8-1.8,2.7-1.3c1.9,0.4,2.3,1.9,2.6,2.2c0.3,0.3,1.4,0.7,1.5,2
		C139.7,63,140,64,139.3,64.7z M132.8,55.2c0,0-0.7,0.9-0.8,1.4c-0.1,0.5-1.4-0.5-1-1.8c0.3-1.1,0.8-1.4,1.2-2c0,0,0,1,0.4,1.6
		C132.8,55,132.8,55.2,132.8,55.2z M129.5,51.6c-0.5,0.1-0.8,0-1-0.6c-0.2-0.6-0.9-0.7-0.8-1.8c0,0,0.5,0.5,1.4,0.6
		c1.1,0,1.2,1.1,1.2,1.1S129.9,51.5,129.5,51.6z M128.3,51.6c0.2,0.7,1.3,0.3,1.3,0.3s-0.7,0.7-0.2,2c0,0-0.7-0.4-1-1.7
		c0,0-0.7,0.4-0.7,1.2c0,0-0.7-1.5-0.3-3.1C127.4,50.4,128,50.5,128.3,51.6z M128.3,52.9c0.3,1.6,2.5,1.6,2.2,2
		c-0.3,0.5,0.2,1.3,0.2,1.3s-0.3-0.1-0.8-0.2c-0.4-0.1-0.9,0.3-0.9,0.3s-0.5,0-0.9-1.1C127.4,53.5,128.3,52.9,128.3,52.9z
		 M129.5,56.5c0.4-0.4,1.8-0.2,2.1,1.2c0,0-1.3-1-2.1-0.6c-0.8,0.3-0.9-0.1-0.9-0.1S129.1,56.9,129.5,56.5z M124.4,68.4
		c0,0,0.3,0.5,1.1,0.6c0.8,0.1,1.4,0,1.8,0.4c0.4,0.4,0.9,1.5,1.9,1.8c1,0.3,1.6,0,1.6,0s0,0-0.1,0.1c-0.2,0.1-0.4,0.1-0.6,0.2
		c-0.3,0-0.7,0-1.1-0.2c-0.6-0.3-1.7-1.2-2.2-1.5c-0.6-0.2-1.2,0-1.6-0.5C124.7,68.9,124.4,68.4,124.4,68.4z M137.2,83
		c1.6-2.3,1.5-5.8,1.5-5.8s2.9-2.4,3.9-5.6c1.7,1.3,3.4,2.7,4.9,4.3c9.3,9.3,14.4,21.6,14.4,34.7c0,4.1-0.5,8.2-1.5,12.1
		c-0.3-0.4-0.5-0.8-0.8-1.1c-2.5-3.1-5.4-11.5-9.8-12.6c-1.5-0.4-2.5-0.2-3.3,0.1c-1.9-2.3-5.3-3.1-5.3-3.1c0,0.2-0.1,0.3-0.1,0.5
		c-0.9,0.2-3.3,0.8-7.1,0.7c-0.3,0-0.5,0-0.8,0c-0.2-0.8-0.9-1.3-1.8-1.3c-0.6,0-1.2,0.3-1.5,0.7c-4.7-1.4-8.7-5.7-5.8-15.9
		c0.2,0.1,0.5,0.1,0.9-0.1c2-0.8,2.9-1.8,3.4-2.6c0.1,0,0.2,0.1,0.2,0.1C132.3,88.2,135.6,85.3,137.2,83z M142.6,68.6
		c0.4,0,0.8-0.1,1.3-0.1c0.6,0,1.1-0.1,1.5-0.1c0.9,0,1.5-0.1,1.5-0.1s0,0.1,0.1,0.4c0,0.3,0.1,0.6,0.2,1.1c0.1,0.4,0.1,1,0.2,1.5
		c0,0.3,0.1,0.6,0.1,0.8c0,0.3,0,0.6,0.1,0.9c0,0.4,0.1,0.8,0.1,1.1c-0.1-0.1-0.2-0.2-0.3-0.3c0-0.1-0.1-0.1-0.1-0.2
		c-0.1-0.2-0.2-0.4-0.3-0.6c-0.1-0.2-0.2-0.4-0.3-0.6c-0.2-0.4-0.4-0.7-0.6-1c-0.2-0.3-0.3-0.6-0.4-0.7c-0.1-0.2-0.2-0.3-0.2-0.3
		s-0.4-0.2-1.1-0.4c-0.3-0.1-0.7-0.2-1.1-0.4c-0.1,0-0.2-0.1-0.4-0.1C142.7,69.2,142.6,68.9,142.6,68.6z M151.1,78
		c0.4,0,0.7,0.1,1.1,0.2c1.1,0.2,2.3,0.4,3.2,0.6c0.9,0.2,1.5,0.4,1.5,0.4s-0.1,0.6-0.2,1.5c-0.1,0.9-0.3,2.1-0.5,3.2
		c-0.1,0.4-0.1,0.7-0.2,1c-0.1-0.1-0.1-0.2-0.2-0.3c0-0.1,0-0.2-0.1-0.3c-0.2-0.9-0.4-1.8-0.6-2.5c-0.2-0.7-0.3-1.1-0.3-1.1
		s-0.4-0.3-0.9-0.7c-0.6-0.4-1.4-0.9-2.1-1.4c-0.1,0-0.2-0.1-0.2-0.1C151.4,78.3,151.3,78.1,151.1,78z M160.6,92.3
		c-0.2-0.3-0.5-0.6-0.8-0.9c-0.3-0.3-0.6-0.7-0.9-1c-0.1-0.1-0.1-0.1-0.2-0.2c-0.1-0.2-0.2-0.4-0.3-0.7c0.3,0.1,0.6,0.3,0.9,0.4
		c0.6,0.2,1.1,0.5,1.6,0.7c0.5,0.2,1,0.5,1.4,0.7c0.8,0.4,1.3,0.7,1.3,0.7s-0.2,0.6-0.6,1.4c-0.2,0.4-0.4,0.9-0.6,1.4
		c-0.2,0.5-0.5,1-0.8,1.6c-0.1,0.3-0.3,0.6-0.4,0.8c0-0.1-0.1-0.2-0.1-0.3c0-0.1,0-0.1,0-0.2c0-0.5,0.1-0.9,0.1-1.3
		c0-0.4,0-0.8,0-1.2c0-0.7,0-1.2,0-1.2S161.1,92.8,160.6,92.3z M163.7,105.9c-0.3-0.6-0.7-1.5-1.1-2.3c0,0,0-0.1-0.1-0.1
		c0-0.2-0.1-0.5-0.1-0.7c0.2,0.2,0.5,0.4,0.7,0.6c0.9,0.8,1.8,1.6,2.4,2.2c0.6,0.6,1.1,1.1,1.1,1.1s-0.1,0.1-0.2,0.3
		c-0.2,0.2-0.4,0.5-0.7,0.9c-0.6,0.7-1.3,1.6-2.1,2.5c-0.2,0.2-0.4,0.4-0.6,0.6c0-0.1,0-0.2,0-0.3c0,0,0-0.1,0-0.1
		c0.3-0.9,0.6-1.8,0.8-2.4c0.1-0.3,0.2-0.6,0.2-0.8c0.1-0.2,0.1-0.3,0.1-0.3S164,106.5,163.7,105.9z M130.1,156.1
		c1.9-4.5,4-8.8,4.6-10c0.9,2.4,2,4.5,3.2,6.3C135.5,153.8,132.9,155.1,130.1,156.1z M126.4,147.2c-4.8,2.3-9.9,0.7-9.9,0.7
		c1.8-2.5,4.4-3.8,5.8-3.1c1,0.5-2.5,1.9-2.5,1.9c1.9,0.4,4.3-1.1,3.2-2c-1.7-1.5-4.7,0.1-6.8,2.5c-1.6,1.8-4.4,0.2-4.4,0.2
		s1.5-1.3,1.8-2.4c0,0-2,2.2-3.2,2.2c-5.7,0.3-5.7-4.2-9.8-4.6c0,0,1.7,0.6,2.5,1.9c0,0-7.3,1-12.5-4.4c0,0,0.4,1.5,1.9,2.5
		c0,0-0.7,1-2.5,0.8c-2.2-0.4-3.4-1.4-3.4-1.4s0.2,0.8-0.9,0.7c-8.1-0.3-10.7-8.4-10.6-13.4c0.2-1.9,0.7-3.3,1.2-4.3
		c0.5,5.4,4.9,7.2,4.9,7.2c-3.2-2.4-4.2-6.3-4.2-8.4c0.1,0.2,1.8,5.7,9.3,8.7c7.2,2.9,13.1,0.6,13.1,0.6s6.5,6.5,19.7,5.3
		c13.4-1.2,15.4-6.9,15.4-6.9S138.1,141.7,126.4,147.2z M77.6,122.7C77.6,122.7,77.6,122.7,77.6,122.7c0.7,1.5,2.9,5.6,9.1,8.2
		c7.2,2.9,13.1,0.6,13.1,0.6s6.5,6.5,19.7,5.3c7.3-0.7,11.2-2.6,13.2-4.2c-1.9,2-6.1,4.4-14.8,5c-12.2,0.9-18.4-5.6-18.4-5.6
		s-4.7,2.4-12.7-0.5C81.3,129.4,78.1,125.3,77.6,122.7z M132.7,125.6c-2.6-3.5-5.9-3.8-5.9-3.8c3.8,1.3,6.2,5,7.3,8.3
		c-1.3,2.1-4.8,5.4-15.7,6.2c-10,0.7-15.9-3.5-17.8-5.1c1-3.7,3.9-9.1,11.8-9.8c0,0-6.4-0.3-10.2,4.5c-0.4-1.9-1.4-3.1-2.1-3.7
		c0.9-1.5,1.5-3.6,0.7-6.4c0.3,0.2,0.6,0.3,0.9,0.3c0.2,0,0.4,0,0.6-0.1c0.2,0.8,0.9,1.3,1.8,1.3c0.4,0,0.7-0.1,1-0.3
		c0.3,0.6,0.9,1,1.6,1c0.6,0,1.1-0.3,1.4-0.7c0.3,0.5,0.9,0.9,1.6,0.9c0.7,0,1.4-0.4,1.7-1.1c0.3,0.5,0.9,0.8,1.5,0.8
		c0.7,0,1.4-0.4,1.7-1.1c0.3,0.4,0.8,0.6,1.4,0.6c0.8,0,1.5-0.5,1.7-1.2c0.3,0.3,0.7,0.4,1.2,0.4c0.8,0,1.5-0.5,1.8-1.3
		c0.3,0.2,0.7,0.4,1.1,0.4c0.7,0,1.4-0.4,1.7-1c0.2,0.1,0.5,0.2,0.8,0.2c0.7,0,1.4-0.4,1.7-1.1c0.2,0,0.3,0.1,0.5,0.1
		c0.8,0,1.5-0.5,1.8-1.3c0,0,0.1,0,0.1,0c0.9,0,1.7-0.7,1.9-1.6c0,0,0,0,0,0c1,0,1.7-0.7,1.9-1.7c0.6-0.3,0.9-0.8,1-1.5c0,0,0,0,0,0
		c4,0.2,6.7-0.4,7.6-0.6C139,113.1,132.4,116.4,132.7,125.6z M90.7,112.9c0.5,0,0.8-0.1,0.8-0.1s0.3,0.9,0.2,1.4
		c-0.1,0.7-0.5,1.4-0.8,1.8c-0.1,0-0.3,0-0.4,0.1c-0.2,0-0.2-0.2-0.4-0.2C90.8,114.6,90.8,113.6,90.7,112.9z M92,112.7
		c2.2-1.1,1.7-3,1.7-3c0.4-0.1,0.8-0.2,1.1-0.3c0.1,0.1,0.1,0.1,0.2,0.2c0.1,0.6,0.5,1,1,1.3c0,0,0,0.1,0,0.1c0,0.9,0.7,1.7,1.5,1.8
		c0.1,0.9,0.9,1.7,1.9,1.7c0.2,0,0.3,0,0.4-0.1c0.1,0.5,0.4,0.8,0.7,1.1c-0.5,0.8-2.7,4.3-6.4,4c2.3-0.4,2-4.4-2.9-3.7
		C93.1,114.6,92,112.7,92,112.7z M96.9,107.7c0.8,0,1.5,0.7,1.5,1.5c0,0,0,0,0,0c-0.1,0-0.2,0-0.4,0c-0.8,0-1.5,0.5-1.8,1.3
		c-0.5-0.2-0.8-0.7-0.8-1.3C95.4,108.3,96.1,107.7,96.9,107.7z M96.8,107.1c3.9,0.1,4-2.3,4-2.3s1,0.2,2.1-0.1
		c-1.3,1.7-3.1,2.6-4.3,2.9c-0.2,0-0.4,0.1-0.5,0.1c-0.3-0.2-0.7-0.4-1.1-0.4c0,0-0.1,0-0.1,0C96.9,107.2,96.8,107.1,96.8,107.1z
		 M108,116.6c-0.3,0.5-0.7,0.8-1.3,0.8c-0.8,0-1.5-0.7-1.5-1.5c0-0.8,0.7-1.5,1.5-1.5c0.6,0,1.2,0.4,1.4,1c-0.1,0.2-0.2,0.5-0.2,0.8
		C108,116.3,108,116.5,108,116.6z M105,116c0,0.1,0,0.3,0,0.4c-0.2,0.2-0.5,0.3-0.9,0.3c-0.8,0-1.5-0.7-1.5-1.5
		c0-0.8,0.7-1.5,1.5-1.5c0.6,0,1.1,0.4,1.4,0.9C105.2,115,105,115.5,105,116z M102.3,115.3C102.3,115.3,102.4,115.4,102.3,115.3
		c-0.2,0.1-0.4,0.2-0.6,0.2c-0.8,0-1.5-0.7-1.5-1.5c0-0.8,0.7-1.5,1.5-1.5c0.7,0,1.3,0.5,1.4,1.2
		C102.7,114.1,102.3,114.7,102.3,115.3z M99.9,114c-0.2,0.1-0.3,0.1-0.5,0.1c-0.8,0-1.5-0.7-1.5-1.5c0-0.8,0.7-1.5,1.5-1.5
		c0.8,0,1.4,0.6,1.5,1.4C100.3,112.8,100,113.3,99.9,114z M97.7,112.4c-0.7-0.1-1.2-0.7-1.2-1.5c0-0.8,0.7-1.5,1.5-1.5
		c0.8,0,1.4,0.6,1.5,1.3C98.5,110.9,97.8,111.6,97.7,112.4z M93.1,118.2c-0.6,0.3-2.3-0.8-2.7-1.1c0,0,0-0.1,0-0.1
		C93.6,116.3,93.8,117.8,93.1,118.2z M93,122.5l-0.2-1.1l1.4-0.4c-1.3-0.6-2.8-1.5-3-2.4c0.1,0.1,0.2,0.2,0.4,0.2
		c0.7,0.7,4.4,4.1,8.7-0.9c0,0,0.2,5.1-5.1,6.7c0,0,1.2,0.7,2.1,0.8c0,0-1.5,1.6-4.1,1.3c-3.8-0.5-6.4-4-4.7-9.7
		c0.2-0.1,0.5-0.2,0.7-0.1c0,0.1,0.1,0.1,0.1,0.2c0.1,0.1,0.2,0.2,0.3,0.2C89.7,121.6,93,122.5,93,122.5z M108.3,116.1
		c0-0.8,0.7-1.5,1.5-1.5c0.8,0,1.5,0.7,1.5,1.5c0,0.8-0.7,1.5-1.5,1.5C108.9,117.6,108.3,116.9,108.3,116.1z M111.6,115.4
		c0.2-0.6,0.7-1.1,1.4-1.1c0.8,0,1.5,0.7,1.5,1.5c0,0.8-0.7,1.5-1.5,1.5c-0.6,0-1-0.3-1.3-0.8c0-0.1,0-0.2,0-0.4
		C111.7,115.9,111.7,115.7,111.6,115.4z M114.6,114.9c0.2-0.6,0.7-1,1.4-1c0.8,0,1.5,0.7,1.5,1.5c0,0.8-0.7,1.5-1.5,1.5
		c-0.4,0-0.8-0.2-1.1-0.5c0-0.1,0-0.3,0-0.4C115,115.5,114.8,115.2,114.6,114.9z M130.2,107.5c0.8,0,1.5,0.7,1.5,1.5
		c0,0.8-0.6,1.4-1.4,1.5c-0.1-0.8-0.7-1.5-1.5-1.7C128.9,108,129.5,107.5,130.2,107.5z M129.8,107.3c0.1-0.7,0.7-1.2,1.4-1.2
		c0.8,0,1.5,0.7,1.5,1.5c0,0.5-0.2,0.9-0.5,1.1c-0.2-0.9-0.9-1.5-1.8-1.5C130.1,107.2,129.9,107.2,129.8,107.3z M129.8,110.5
		c0,0.8-0.6,1.4-1.4,1.5c0,0,0-0.1,0-0.1c0-0.9-0.6-1.7-1.5-1.8c0.2-0.6,0.7-1,1.4-1C129.2,109,129.8,109.7,129.8,110.5z
		 M127.9,111.8c0,0.8-0.7,1.5-1.5,1.5c-0.1,0-0.2,0-0.2,0c0-0.1,0-0.2,0-0.4c0-0.8-0.5-1.4-1.1-1.7c0.2-0.5,0.7-0.8,1.3-0.8
		C127.3,110.3,127.9,111,127.9,111.8z M125.8,112.8c0,0.8-0.7,1.5-1.5,1.5c-0.2,0-0.4,0-0.5-0.1c0-0.1,0.1-0.3,0.1-0.4
		c0-0.7-0.3-1.2-0.9-1.6c0.2-0.5,0.7-0.8,1.3-0.8C125.1,111.3,125.8,112,125.8,112.8z M123.3,113.7c0,0.8-0.7,1.5-1.5,1.5
		c-0.3,0-0.7-0.1-0.9-0.3c0,0,0-0.1,0-0.1c0-0.5-0.2-1-0.5-1.3c0.1-0.7,0.7-1.2,1.4-1.2C122.7,112.2,123.3,112.9,123.3,113.7z
		 M120.4,114.6c0,0.8-0.7,1.5-1.5,1.5c-0.4,0-0.7-0.1-1-0.4c0-0.1,0-0.2,0-0.3c0-0.5-0.2-0.9-0.5-1.2c0.2-0.6,0.7-1.1,1.4-1.1
		C119.8,113.1,120.4,113.8,120.4,114.6z M105,99.8c-1.3,1.5-3.8,1.4-3.8,1.4c1.2,0.9,2.6,0.5,3.4,0.2c-0.1,0.4-0.3,0.8-0.4,1.2
		c-2.2,2-6.7,1.1-6.7,1.1c1.3,0.8,1.9,0.9,1.9,0.9c-0.1,2.2-5.6,1.7-5.6,1.7c1,0.6,1.7,0.7,1.7,0.7c0.4,2.2-4.3,2.5-4.3,2.5
		c0.6,0.3,1.5,0.3,1.5,0.3c0.1,1.9-1.4,2.7-2.1,3c-0.6-1.8-3.2-0.6-1.3,3.2c-3.5-0.4-4.6,4-4.6,4l1-0.6l0.6,1.2c0.1-1,0.6-2,1.2-2.7
		c-2.6,9.5,7.1,12.1,10.9,7.5c0,0-0.7,0-1.4-0.5c0,0,1.7-0.8,2.9-2.6c1,1.4,1.5,3.1,1.6,4.4c-0.7,1.1-1.3,2.4-1.7,3.9
		c-0.8,0.3-5.3,2.1-12.6-0.5c-6.1-2.2-8.7-6.5-9.3-8.2c1.3-1.9,3.1-3.4,6.5-4.1c0,0-0.9-0.2-2.1,0.1c2.3-1.6,3.9-3.5,5.1-5.3
		c0,1.6,1,2.8,1,2.8c-1.4-3.3,0.8-4.8,0.8-4.8c0.3,0.6,0.6,0.5,0.6,0.5c-0.5-0.9-0.5-1.8-0.3-2.6c0.1-0.3,0.2-0.6,0.3-0.8
		c0.6-1.2,1.6-2,1.6-2c0.1,1.5,0.5,1.7,0.5,1.7c-0.6-5.7,3.1-6.4,3.1-6.4c-0.2,1.2,0.3,2.6,0.3,2.6c-0.2-5.6,3.7-6,3.7-6
		c-0.2,0.8,0,1.6,0,1.6c0.5-2.3,2.7-2.8,4.1-2.8c0.5,0.1,1.1,0.2,1.8,0.3C105.1,98,105.1,98.9,105,99.8z M67.5,129.7
		c1.3-2.7,2.4-5.3,3.3-7.9c4.2-11.6,8.2-14.5,13.8-13c1.1,0.3,0.3,3.9-0.5,5.7c-0.7,1.5-1.8,3-2.4,3.7c-1.2,0.4-2.6,1.3-4,3
		c-0.3-0.4-0.7-0.5-1-0.2c-0.4,0.5-0.2,1.5-0.1,1.8c-0.3,0.4-0.5,0.9-0.8,1.4l0,0c-3.2,6.3-0.6,16.2,6.2,18.4c0,0,0,0,0,0
		c0.3,2.9,1.1,5.4,2.2,7.7c-4.3-3-8.1-6.7-11.2-10.8C70.9,136.4,69,133.2,67.5,129.7z M144.1,148.1c-3.1-5.5-4.3-10.4-4.3-10.4
		s-0.3,4.1,3.6,10.9c-1.5,1.1-3,2.2-4.6,3.2c-3.3-4.9-4.2-9.2-4.4-10.7c2.1-4.1,1.8-8.5,0.7-10.7c0.3-0.5,0.5-1.2,0-1.4
		c-0.1,0-0.2-0.1-0.2-0.1c0.7-1.7,0.3-5.6,1.1-7c1.5-2.6,4.9-1.4,4.9-1.4c-0.8-5.7,1.5-6.2,1.5-6.2c2.7,0,4,2.1,4,2.1
		c-1.1-2.9-4-2.6-4-2.6s-0.1-3.2,3.6-1.2c1.8,0.9,7.9,7.4,7.9,7.4c-4.7-7.4-9.1-8.6-9.1-8.6s1.1-2.4,4.2-1.8c3.4,0.7,5.5,4.9,8,9.2
		c0.9,1.6,2.1,3,3.3,4.9c-1.6,5.6-4.1,10.8-7.5,15.5C150.1,142.6,147.2,145.6,144.1,148.1z M163.2,120.7c0-0.2-0.1-0.5-0.1-0.8
		c-0.1-0.7-0.2-1.6-0.5-2.5c0,0,0-0.1,0-0.1c0-0.2,0.1-0.5,0.1-0.7c0.1,0.2,0.3,0.4,0.4,0.6c0.7,1,1.3,2,1.8,2.8
		c0.2,0.4,0.4,0.7,0.6,1c0.1,0.2,0.2,0.4,0.2,0.4s-0.5,0.4-1.2,0.9c-0.4,0.3-0.8,0.6-1.2,0.9c-0.4,0.3-1,0.6-1.5,0.9
		c-0.2,0.1-0.4,0.3-0.6,0.4c0-0.1,0-0.1,0.1-0.2c0,0,0.1-0.1,0.1-0.1c0.3-0.4,0.5-0.7,0.8-1.1c0.2-0.4,0.4-0.7,0.6-1
		c0.4-0.6,0.6-1,0.6-1S163.3,120.9,163.2,120.7z M157.7,135.1c0.5-0.5,0.8-0.8,0.8-0.8s0.1-0.5,0.2-1.2c0.1-0.3,0.1-0.7,0.1-1.2
		c0-0.4,0.1-0.9,0.1-1.3c0-0.1,0-0.1,0-0.2c0.1-0.2,0.1-0.3,0.2-0.5c0.1,0.2,0.2,0.5,0.2,0.7c0.2,0.6,0.4,1.1,0.5,1.7
		c0.2,0.5,0.3,1,0.4,1.5c0.2,0.9,0.4,1.5,0.4,1.5s-0.1,0.1-0.4,0.2c-0.2,0.1-0.6,0.2-1,0.4c-0.7,0.3-1.7,0.6-2.6,0.9l-0.4-0.3
		C156.8,135.8,157.3,135.4,157.7,135.1z M142.4,61.8c-0.3-0.2-0.6-0.2-0.6-0.2c0.1-0.2,0.3-0.4,0.5-0.5
		C142.4,61.3,142.4,61.5,142.4,61.8z M142.2,59.3c0,0.1,0.1,0.2,0.1,0.4c0.1,0.3,0.1,0.7,0.1,1c-0.1,0.1-0.2,0.2-0.3,0.3
		c0,0-0.6-0.7-0.4-1.1C141.9,59.5,142,59.4,142.2,59.3z M99.1,55c4.4-4,10.1-4.1,12.2-4.2c2.1-0.1,1.8-1.3,1.8-1.3s-3.5,0.5-5.4,0.8
		c-0.3,0-0.6,0.1-1,0.2c0.5-0.8,1-2.3,0.7-3.1c0,0-0.8,2.4-2.5,3.5c-1.6,0.4-3.5,1.1-5.5,2.4c0.2-1.3,0.7-4.4,2.6-6.5
		c3-3.2,7.3-2.2,7.3-2.2c-0.8-0.7-2.1-0.8-2.1-0.8s2.5-3.6,7.1-3.9c6.7-0.5,10.2,4.6,10.2,4.6c-0.6-1.5-1.3-2.3-1.3-2.3
		s1-0.5,2.7,0.3c1.9,0.9,2.8,2.8,2.8,2.8c-0.3-1.4-0.8-1.8-0.8-1.8s2.6-0.5,5.7,2c5.4,4.5,4.5,11.1,4.5,11.1
		c0.6-1.3,0.6-2.6,0.6-2.6s2.5,1.5,3.3,5c-0.7,0.5-1.2,0.8-1.3,0.7c-0.3-0.2,0.7-2.1,0.7-2.1l-1.8,3.2c0-0.1-0.1-0.1-0.2-0.2
		c-0.3-0.4-1.8-2-2.5-2.5c-0.6-0.4-1.7-1-2.6-0.7c0-0.5,0.1-1.4,0.2-1.8c0.3-1.1,0.2-1.9,0.2-1.9s-0.3,1.4-0.5,2.5
		c-0.1,0.6-0.5,0.9-0.5,0.9s-0.1-1.2-0.2-1.6c0-0.4,0.2-2.9,0-3c-0.2-0.1-0.2,2-0.6,1.8c-0.3-0.2-0.5-1.4-0.4-2.4
		c0.1-1-0.2-1.9-0.4-1.7c-0.1,0.2,0.2,1.9-0.1,2.3c-0.9,0.8-0.6-2.9-0.6-3.4c0-0.5-0.4,0.1-0.4,1.1c0,1-0.7,0.1-0.7,0.1
		s-0.5-1-0.7-1.8c-0.2-0.8-0.4-1.3-0.4-1.4c-0.2-0.6-0.1,0.6,0,1.1c0.1,0.5,0.2,1.6-0.9,1.2c-1.1-0.4-1.6-2.3-2-2.9
		c-0.3-0.6-0.4,0-0.2,0.6c0.3,0.5,1.1,2.4,1,2.7c-0.1,0.3-0.3,0.4-0.5,0.3c-0.3-0.1-0.6-0.5-0.6-0.5s0.3,0.6,0.6,0.8
		c0.3,0.2,0.4,0.5,0.3,1.1c-0.1,0.6,0.4,2.1,0.4,2.1s-0.3-0.4-0.6-0.6c-0.3-0.2-0.7-0.3-0.7-0.3s0.4,0.3,0.9,0.9
		c0.5,0.6,0.4,0.9,0.5,1.6c0.1,0.7,0.5,1.4,0.5,1.4s-0.5-0.2-0.7-0.3c-0.2-0.1-0.6-0.6-0.3,0c0.2,0.4,1,1,1.5,1.3
		c-0.2,0.1-0.4,0.2-0.6,0.2c-0.2,0.1-0.4,0.1-0.6,0.2c-0.3-0.7-1.7-2.7-3.5-4.6c1,0.2,1.9,0.1,2.4-0.1c0,0-1.7-0.1-3.3-0.9
		c-1.3-1.2-2.7-2.3-4.1-2.8c2.4-0.2,4.3-1.2,5.1-2.2c0,0-5.8,2.8-9.9,0.7c1.1-0.8,2-2.3,2.1-4.7c0,0-1.3,5.5-7.5,5.7
		c0,0,2.4,0.6,4.5-0.4c1,0.5,2,0.8,3,0.9c-0.4,0.1-0.7,0.3-1.1,0.6c0,0-0.2,1.8-0.9,2.8c-0.7,1-1.5,2.2-1.5,3.4
		c0,1.2,0.8,2.5,5.1,5.8c4.3,3.3,6.2,9.6,5.9,11.9c-0.4,2.9-1.7,1.2-1.7,1.2s-0.3,1.1,0.8,1.3c0.7,0.2,1.2-0.6,1.7-1.5
		c0.5-0.6,2-2.4,3.1-2.3c1.5,0.2,1.3,2,0.7,4.6c-0.6,2.6-1.5,5.9-3.5,6.3c-0.8,0.2-0.5,2.8-3,4.8c-2.8,2.2-10,7-14.1,7.6
		c-6.7,1.1-6.7-2.6-6.9-3c-0.1-0.5-2.9-5.6-4.4-8.2c-1.6-2.8-3.2-5.4,0.2-10.3c0.5,0.3,1.2,0.6,2.2,0.5c0,0-1.9-0.1-2.7-2
		c0,0,0.1,0.1,1.1,0c0,0.2,0.1,0.4,0.2,0.6l0.6-0.3c-0.1-0.1-0.1-0.3-0.1-0.4c0.1,0,0.2,0,0.4-0.1c0,0.5,0.4,0.8,0.8,0.8
		c0.4,0,0.8-0.4,0.8-0.8c0-0.1,0-0.1,0-0.2c0.1,0,0.3,0,0.4,0c0,0.1,0,0.1,0,0.2c0,0.7-0.5,1.2-1.2,1.2c-0.3,0-0.5-0.1-0.7-0.2
		l-0.4,0.5c0.3,0.2,0.7,0.4,1.1,0.4c1,0,1.8-0.8,1.9-1.8c0,0,0,0,0.1,0c0.7,0.4,1.6,1.3,1.6,1.3c-1.8-3.3-3.5-2.4-5.9-2.1
		c0.1-0.4,0.6-1,2.4-1.1c2.1-0.2,3.5,1.1,3.5,1.1s-0.9-1.6-3.5-1.6c-0.9,0-1.6,0.2-2.1,0.5c-0.4-1.4-0.5-2.4-0.5-3
		c2.8-1.4,6-0.4,6.4-1.4c0.4-1.2-0.4-1.3-1.3-1.3c-2.2,0.1-3.5,0.7-4.4,1.4c1.7-2.4,4.3-4.8,8.1-6.8c8.4-4.4,9.3-10,9.3-10
		c-2.1,2.9-7.4,1.7-10.1,5.1c0,0,2.1-1.3,3.7-1.2c0,0-2.6,1.5-3.6,3.5c0,0,4.1-3.3,6.9-3.2c0,0-3.8,3.3-7.8,5.3
		c-7.1,3.6-8.8,8.4-8.8,8.4s-0.2-1.6,0.9-4c1.1-2.4,4.4-6,4.4-6s-3.6,2.6-5.2,5.6c-2.4,4.4-2.4,7.8-2.4,7.8s-0.9-2.5-0.2-5.2
		C93.1,63,94.7,59,99.1,55z M95.4,55.4c0.3,0.1,0.6,0.3,0.9,0.4c-0.4,0.4-0.7,0.8-1,1.2c-0.5-0.2-1-0.4-1.5-0.6
		c-0.2-0.1-0.3-0.1-0.5-0.2C93.9,55.9,94.6,55.6,95.4,55.4z M81.2,62.1c0.4,0.1,0.7,0.1,1,0.2c1,0.2,1.6,0.3,1.6,0.3s0-0.2,0.1-0.4
		c0.1-0.3,0.2-0.7,0.3-1.1c0.1-0.3,0.2-0.6,0.3-1c0.7-0.4,1.4-0.8,2.1-1.1c-0.1,0.2-0.1,0.3-0.2,0.5c-0.5,1.2-0.9,2.4-1.2,3.3
		c-0.1,0.4-0.3,0.8-0.3,1.1c-0.1,0.3-0.1,0.4-0.1,0.4s-0.6-0.1-1.5-0.3c-0.5-0.1-1-0.2-1.6-0.3c-0.6-0.1-1.2-0.1-1.9-0.2
		c-0.2,0-0.4,0-0.6-0.1C79.9,63,80.5,62.6,81.2,62.1z M69.3,72.5c0.4,0,0.8-0.1,1.1-0.1c0.5-0.1,0.9-0.1,1.2-0.1c0.3,0,0.4,0,0.4,0
		s0-0.7,0-1.6c0-0.3,0-0.7,0-1.1c0.6-0.6,1.2-1.1,1.8-1.7c0,0.2,0,0.4-0.1,0.6c-0.1,1.3-0.2,2.5-0.2,3.5c0,0.9,0,1.6,0,1.6
		s-0.2,0-0.4,0c-0.3,0-0.7,0-1.1,0.1c-0.9,0.1-2.2,0.3-3.5,0.5c-0.2,0-0.5,0.1-0.7,0.1C68.3,73.7,68.8,73.1,69.3,72.5z M60.6,85.7
		c0.4-0.2,0.8-0.3,1.1-0.5c0.9-0.3,1.5-0.6,1.5-0.6s0-0.2-0.1-0.4c-0.1-0.3-0.2-0.7-0.3-1.2c-0.1-0.3-0.2-0.7-0.3-1.2
		c0.4-0.7,0.8-1.4,1.3-2.1c0,0.2,0.1,0.5,0.1,0.7c0.2,1.3,0.5,2.5,0.7,3.4c0.1,0.5,0.2,0.8,0.3,1.1c0.1,0.3,0.1,0.4,0.1,0.4
		s-0.6,0.2-1.5,0.6c-0.5,0.2-1,0.4-1.5,0.6c-0.5,0.2-1.1,0.5-1.7,0.8c-0.3,0.1-0.5,0.2-0.8,0.4C59.9,87.1,60.3,86.4,60.6,85.7z
		 M55.8,100.8c0.4-0.3,0.7-0.6,1-0.8c0.4-0.3,0.7-0.5,0.9-0.7c0.2-0.2,0.4-0.3,0.4-0.3s-0.3-0.6-0.8-1.4c-0.2-0.3-0.4-0.7-0.6-1.1
		c0.2-0.8,0.4-1.6,0.7-2.4c0.1,0.3,0.3,0.6,0.4,0.8c0.3,0.6,0.5,1.2,0.8,1.7c0.3,0.5,0.6,1,0.8,1.4c0.5,0.8,0.8,1.4,0.8,1.4
		s-0.1,0.1-0.3,0.3c-0.2,0.2-0.5,0.4-0.9,0.7c-0.7,0.6-1.8,1.4-2.7,2.2c-0.2,0.2-0.5,0.4-0.7,0.7C55.6,102.3,55.7,101.5,55.8,100.8z
		 M55.3,116.5c0.3-0.4,0.6-0.8,0.8-1.1c0.6-0.8,1-1.3,1-1.3s-0.1-0.1-0.3-0.3c-0.2-0.2-0.5-0.5-0.9-0.8c-0.3-0.3-0.6-0.6-0.9-1
		c0-0.5,0-1,0-1.5c0-0.3,0-0.7,0-1c0.2,0.3,0.4,0.5,0.7,0.8c0.9,1,1.7,1.9,2.4,2.6c0.3,0.3,0.6,0.6,0.8,0.8c0.2,0.2,0.3,0.3,0.3,0.3
		s-0.4,0.5-1,1.2c-0.6,0.8-1.3,1.8-2,2.9c-0.2,0.3-0.4,0.6-0.6,0.9C55.5,118.1,55.4,117.3,55.3,116.5z M56.2,122.4
		c0-0.2-0.1-0.4-0.1-0.7c0.1-0.2,0.3-0.6,0.6-1c0.5-0.8,1.1-1.9,1.8-3c0.7-1,1.4-2,1.9-2.8c0.6-0.7,0.9-1.2,0.9-1.2
		s-0.1-0.1-0.3-0.3c-0.2-0.2-0.5-0.4-0.8-0.8c-0.6-0.6-1.5-1.5-2.3-2.5c-0.8-0.9-1.6-1.9-2.2-2.7c-0.3-0.3-0.5-0.6-0.6-0.9
		c0-0.3,0-0.5,0.1-0.8c0.2-0.2,0.5-0.5,0.8-0.8c0.6-0.7,1.6-1.5,2.5-2.4c0.9-0.8,1.9-1.6,2.6-2.1c0.4-0.3,0.7-0.5,0.9-0.7
		c0.2-0.2,0.3-0.2,0.3-0.2s-0.3-0.5-0.7-1.3c-0.2-0.4-0.5-0.9-0.8-1.4c-0.3-0.5-0.5-1.1-0.8-1.6c-0.3-0.6-0.5-1.1-0.8-1.7
		c-0.2-0.5-0.4-1-0.6-1.5c-0.1-0.4-0.3-0.7-0.3-0.9c0.1-0.3,0.2-0.6,0.3-0.9c0.2-0.1,0.5-0.3,0.8-0.5c0.4-0.2,0.9-0.5,1.4-0.8
		c0.5-0.3,1.1-0.6,1.6-0.8c0.6-0.3,1.1-0.5,1.7-0.8c0.5-0.2,1-0.4,1.4-0.6c0.9-0.3,1.4-0.5,1.4-0.5s0-0.1-0.1-0.4
		c-0.1-0.3-0.2-0.6-0.3-1.1c-0.2-0.9-0.5-2.1-0.7-3.3c-0.2-1.2-0.4-2.5-0.5-3.4c0-0.3,0-0.6-0.1-0.8c0.2-0.3,0.5-0.7,0.7-1
		c0.2-0.1,0.5-0.1,0.8-0.2c0.9-0.2,2.2-0.5,3.4-0.7c1.2-0.2,2.5-0.4,3.3-0.5c0.4-0.1,0.8-0.1,1.1-0.1c0.3,0,0.4,0,0.4,0s0-0.6,0-1.5
		c0-0.9,0.1-2.1,0.2-3.4c0-0.3,0.1-0.6,0.1-0.9c0-0.3,0.1-0.6,0.1-0.9c0.1-0.6,0.2-1.1,0.3-1.6c0-0.3,0.1-0.5,0.1-0.7
		c0.4-0.3,0.7-0.6,1.1-0.9c0.2,0,0.4,0,0.7,0c0.5,0,1,0,1.6,0.1c0.6,0,1.2,0.1,1.8,0.2c0.6,0.1,1.2,0.1,1.8,0.2
		c0.6,0.1,1.1,0.2,1.5,0.2c0.9,0.2,1.5,0.3,1.5,0.3s0-0.1,0.1-0.4c0.1-0.3,0.2-0.6,0.3-1c0.3-0.9,0.7-2,1.1-3.2
		c0.2-0.6,0.5-1.2,0.7-1.7c0.2-0.6,0.5-1,0.7-1.5c0.1-0.2,0.2-0.4,0.3-0.6c0.5-0.2,0.9-0.4,1.4-0.6c0.2,0.1,0.4,0.1,0.6,0.2
		c0.5,0.1,1,0.3,1.5,0.5c0.5,0.2,1,0.3,1.5,0.5c-0.2,0.3-0.5,0.7-0.7,1c-0.1,0-0.1-0.1-0.2-0.1c-0.5-0.2-1-0.4-1.5-0.5
		c-0.4-0.1-0.8-0.3-1.1-0.3c-0.3-0.1-0.4-0.1-0.4-0.1s-0.3,0.6-0.7,1.4c-0.2,0.4-0.4,0.9-0.7,1.4c-0.2,0.5-0.5,1.1-0.7,1.7
		c-0.5,1.1-0.8,2.3-1.1,3.1c-0.1,0.4-0.2,0.8-0.3,1c-0.1,0.2-0.1,0.4-0.1,0.4s-0.6-0.1-1.4-0.3c-0.4-0.1-0.9-0.2-1.5-0.2
		c-0.6-0.1-1.1-0.1-1.7-0.2c-0.6-0.1-1.2-0.1-1.8-0.2c-0.6,0-1.1-0.1-1.6-0.1c-0.9,0-1.6,0-1.6,0s0,0.2-0.1,0.4
		c0,0.3-0.1,0.7-0.2,1.1c-0.1,0.5-0.2,1-0.2,1.6c0,0.3-0.1,0.6-0.1,0.9c0,0.3-0.1,0.6-0.1,0.9c-0.1,1.2-0.2,2.4-0.2,3.3
		c0,0.8,0,1.3,0,1.4c0,0,0,0,0,0c-0.1,0-0.2,0-0.4,0c-0.3,0-0.6,0-1.1,0.1c-0.9,0.1-2.1,0.2-3.2,0.4c-1.2,0.2-2.4,0.5-3.3,0.7
		c-0.9,0.2-1.5,0.4-1.5,0.4s0.1,0.6,0.1,1.5c0.1,0.9,0.3,2.2,0.5,3.3c0.2,1.2,0.5,2.4,0.7,3.2c0.1,0.4,0.2,0.8,0.3,1
		c0,0.1,0.1,0.2,0.1,0.3c0,0.1-0.1,0.1-0.1,0.2c-0.2,0.1-0.7,0.2-1.3,0.5c-0.4,0.2-0.9,0.4-1.4,0.6c-0.5,0.2-1.1,0.5-1.6,0.7
		c-0.6,0.3-1.1,0.5-1.6,0.8c-0.5,0.3-1,0.5-1.4,0.7c-0.8,0.4-1.3,0.8-1.3,0.8s0.2,0.6,0.5,1.5c0.2,0.4,0.4,0.9,0.6,1.5
		c0.2,0.5,0.5,1.1,0.7,1.6c0.3,0.5,0.5,1.1,0.8,1.6c0.3,0.5,0.5,1,0.7,1.3c0.3,0.5,0.5,0.9,0.6,1.1c0,0.1,0,0.2-0.1,0.3
		c0,0-0.1,0.1-0.1,0.1c-0.2,0.2-0.5,0.4-0.8,0.6c-0.7,0.5-1.7,1.3-2.5,2.1c-0.9,0.8-1.8,1.6-2.4,2.3c-0.6,0.7-1.1,1.1-1.1,1.1
		s0.1,0.1,0.2,0.3c0.2,0.2,0.4,0.5,0.7,0.9c0.6,0.7,1.3,1.7,2.1,2.6c0.8,0.9,1.6,1.8,2.2,2.4c0.3,0.3,0.6,0.6,0.8,0.7c0,0,0,0,0.1,0
		c0,0.2,0,0.3,0,0.5c-0.2,0.2-0.4,0.5-0.7,0.9c-0.6,0.7-1.2,1.7-1.9,2.7c-0.7,1-1.3,2.1-1.7,2.9c-0.2,0.4-0.4,0.7-0.6,1
		c-0.1,0.2-0.2,0.4-0.2,0.4s0.5,0.4,1.2,1c0.4,0.3,0.8,0.6,1.3,0.9c0.5,0.3,1,0.7,1.5,1c0.5,0.3,1,0.7,1.5,0.9
		c0.5,0.3,0.9,0.5,1.3,0.8c0.4,0.2,0.7,0.4,0.9,0.5c0.1,0.2,0.1,0.4,0.2,0.5c-0.1,0.2-0.2,0.6-0.4,1c-0.2,0.4-0.3,0.9-0.5,1.4
		c-0.2,0.5-0.4,1.1-0.6,1.7c-0.2,0.6-0.3,1.2-0.5,1.7c-0.2,0.6-0.3,1.1-0.4,1.5c-0.2,0.9-0.3,1.5-0.3,1.5s0.1,0.1,0.4,0.2
		c0.3,0.1,0.6,0.3,1,0.4c0.8,0.3,1.8,0.7,2.9,1l-1.2,0.8c-1.1-0.4-2.2-0.8-3.1-1.1c-0.5-0.2-0.8-0.3-1.1-0.4c0,0,0,0,0,0
		c-0.1-0.2-0.2-0.4-0.3-0.5c0.1-0.3,0.2-0.7,0.3-1.2c0.1-0.5,0.3-1,0.4-1.6c0.2-0.6,0.3-1.2,0.5-1.8c0.2-0.6,0.4-1.2,0.6-1.7
		c0.2-0.5,0.4-1,0.5-1.5c0.3-0.8,0.6-1.4,0.6-1.4s-0.5-0.3-1.3-0.7c-0.4-0.2-0.9-0.5-1.4-0.8c-0.5-0.3-1-0.6-1.5-1
		c-0.5-0.3-1.1-0.7-1.5-1c-0.5-0.3-0.9-0.7-1.3-1C56.8,122.8,56.5,122.5,56.2,122.4z M62.9,139.6c0.3,0.1,0.7,0.2,1,0.4l0,0
		l-0.6,0.4C63.2,140.1,63.1,139.9,62.9,139.6z M58.8,128.3c-0.4-0.2-0.8-0.4-1.2-0.7c-0.3-0.8-0.5-1.7-0.7-2.5
		c0.3,0.2,0.6,0.4,0.9,0.6c0.5,0.4,1.1,0.7,1.6,1c0.5,0.3,1,0.6,1.4,0.8c0.8,0.5,1.4,0.8,1.4,0.8s-0.3,0.6-0.6,1.5
		c-0.2,0.4-0.4,1-0.6,1.5c-0.2,0.6-0.4,1.2-0.6,1.8c-0.1,0.4-0.2,0.7-0.3,1.1c-0.3-0.7-0.7-1.5-1-2.3c0.2-0.5,0.3-0.9,0.5-1.3
		c0.3-0.9,0.6-1.5,0.6-1.5S59.6,128.7,58.8,128.3z M44.7,137l8.7,1.9l3.7-9c0.1,0.4,0.3,0.8,0.5,1.2l-3.7,8.8l-8.8-1.9
		C45,137.7,44.9,137.4,44.7,137z M47,142.3c-0.4-0.8-0.8-1.6-1.1-2.5l9,1.9l3.6-8.5c0.3,0.8,0.7,1.6,1.1,2.3l-3.6,8.7L47,142.3z
		 M60.8,138c0.5,1,1.1,2,1.7,3l-4.2,2.9L60.8,138z M145.7,168.3c-10,5.6-21.4,8.5-33,8.5c-11.6,0-23-3-33-8.5
		c-9.4-5.3-17.5-12.7-23.4-21.7l13.7-9.6c0.7,1.1,1.5,2.2,2.3,3.3c0.1,0.1,0.2,0.3,0.3,0.4c0.1,0.1,0.1,0.2,0.2,0.2
		c1.3,1.8,2.8,3.4,4.4,5c9.5,9.5,22.1,14.7,35.5,14.7c13.4,0,26-5.2,35.5-14.7c1.6-1.6,3-3.2,4.4-5c0.1-0.2,0.3-0.4,0.5-0.6
		c0,0,0,0,0-0.1c0.8-1.1,1.6-2.2,2.3-3.3l13.7,9.6C163.2,155.6,155.1,163,145.7,168.3z M163,141c0.6-1,1.2-2,1.7-3l2.5,5.9L163,141z
		 M178.5,142.3l-8.9,1.9l-3.6-8.7c0.4-0.8,0.7-1.5,1.1-2.3l3.6,8.5l9-1.9C179.3,140.6,178.9,141.4,178.5,142.3z M180.4,138.1
		l-8.8,1.9l-3.7-8.8c0.2-0.4,0.3-0.8,0.5-1.2l3.7,9l8.7-1.9C180.6,137.4,180.5,137.7,180.4,138.1z"/>
	<polygon fill="#009490" points="98.9,183.9 101.2,184.3 101.3,183.8 99.6,183.6 99.7,182.8 101.2,183.1 101.3,182.6 99.8,182.3 
		99.9,181.8 101.5,182.1 101.6,181.6 99.3,181.2 	"/>
	<polygon fill="#009490" points="102.6,182.2 103.5,182.3 103.2,184.6 103.8,184.7 104.1,182.4 105,182.5 105.1,182.1 102.6,181.8 	
		"/>
	<polygon fill="#009490" points="107.9,183.3 106.7,183.2 106.8,182.2 106.2,182.2 106,184.9 106.6,184.9 106.7,183.7 107.9,183.8 
		107.8,185 108.4,185.1 108.6,182.3 108,182.3 	"/>
	<path fill="#009490" d="M111.3,182.4c-0.4,0-1.5,0.1-1.5,1.4c0,1.3,1,1.5,1.4,1.5c0.4,0,1.5-0.1,1.5-1.4
		C112.8,182.6,111.7,182.4,111.3,182.4z M111.2,184.8c-0.3,0-0.8-0.2-0.8-1c0-0.8,0.5-0.9,0.9-0.9c0.3,0,0.8,0.2,0.8,1
		C112.1,184.6,111.6,184.8,111.2,184.8z"/>
	
		<rect x="114.3" y="183.6" transform="matrix(-1.828489e-02 -0.9998 0.9998 -1.828489e-02 -67.5493 302.0858)" fill="#009490" width="0.4" height="1.2"/>
	<polygon fill="#009490" points="116.3,182.4 116.5,185.1 117.1,185.1 117,182.8 118.2,182.7 118.3,185 118.9,184.9 118.8,182.2 	
		"/>
	<path fill="#009490" d="M120.9,182l-0.8,2.8l0.7-0.1l0.2-0.6l1.1-0.1l0.3,0.5l0.7-0.1l-1.4-2.6L120.9,182z M121.1,183.7l0.3-1.1h0
		l0.5,1L121.1,183.7z"/>
	<path fill="#009490" d="M125.4,182.4l-0.8,0.1l-0.1-0.6l1.6-0.3l-0.1-0.5l-2.2,0.4l0.5,2.7l1.4-0.2c0.6-0.1,1-0.5,0.9-1
		C126.5,182.5,126,182.3,125.4,182.4z M125.6,183.6l-0.7,0.1l-0.1-0.7l0.7-0.1c0.3,0,0.5,0,0.5,0.3
		C126,183.4,125.9,183.6,125.6,183.6z"/>
	<path fill="#009490" d="M55.1,149.4c-0.1,0.7-0.2,1.4-0.2,1.4s0.7,0.1,1.4,0.3c0.7,0.1,1.4,0.2,1.4,0.2l-2.3-3.3
		C55.4,148,55.2,148.7,55.1,149.4z"/>
	<path fill="#009490" d="M58,151.8c-0.1-0.1-0.2-0.3-0.3-0.4c-0.1-0.1-0.1-0.1-0.1-0.1s0,0.2-0.1,0.4c0,0.3-0.1,0.6-0.1,1
		c-0.1,0.7-0.2,1.4-0.2,1.4s0.7,0.1,1.4,0.2c0.7,0.1,1.4,0.1,1.4,0.1s-0.6-0.8-1.2-1.6C58.6,152.4,58.2,152,58,151.8z"/>
	<path fill="#009490" d="M60.5,154.9c-0.3-0.3-0.4-0.5-0.4-0.5s0,0.2,0,0.4c0,0.3,0,0.6-0.1,1c0,0.7-0.1,1.4-0.1,1.4s0.7,0,1.4,0.1
		c0.7,0,1.4,0.1,1.4,0.1s-0.7-0.7-1.3-1.5C61.1,155.5,60.8,155.1,60.5,154.9z"/>
	<path fill="#009490" d="M68.7,164.2c0.1,0.7,0.2,1.4,0.2,1.4s0.7-0.1,1.4-0.2c0.7-0.1,1.4-0.2,1.4-0.2s-0.8-0.6-1.6-1.2
		c-0.4-0.3-0.8-0.6-1.1-0.8c-0.3-0.2-0.5-0.4-0.5-0.4s0,0.2,0,0.4C68.6,163.5,68.7,163.9,68.7,164.2z"/>
	<path fill="#009490" d="M71.9,166.7c0.1,0.7,0.3,1.4,0.3,1.4s0.7-0.1,1.4-0.3c0.7-0.1,1.4-0.3,1.4-0.3s-0.8-0.6-1.7-1.1
		c-0.4-0.3-0.8-0.5-1.1-0.8c-0.3-0.2-0.5-0.4-0.5-0.4s0,0.2,0.1,0.4C71.8,166,71.9,166.4,71.9,166.7z"/>
	<path fill="#009490" d="M75.6,170.3c0,0,0.7-0.2,1.4-0.3c0.7-0.2,1.4-0.4,1.4-0.4s-0.9-0.5-1.7-1c-0.4-0.3-0.9-0.5-1.2-0.7
		c-0.3-0.2-0.5-0.3-0.5-0.3s0.1,0.7,0.3,1.4C75.5,169.7,75.6,170.3,75.6,170.3z"/>
	<path fill="#009490" d="M79.1,172c0.1,0.3,0.1,0.4,0.1,0.4s0.7-0.2,1.4-0.4c0.7-0.2,1.3-0.4,1.3-0.4s-0.9-0.5-1.8-0.9
		c-0.2-0.1-0.4-0.2-0.7-0.3c-0.2-0.1-0.4-0.2-0.5-0.3c-0.3-0.2-0.5-0.3-0.5-0.3s0.2,0.7,0.4,1.4C78.9,171.4,79,171.7,79.1,172z"/>
	<path fill="#009490" d="M82.9,174.2c0,0,0.7-0.3,1.3-0.5c0.7-0.3,1.3-0.5,1.3-0.5s-0.9-0.4-1.8-0.8c-0.5-0.2-0.9-0.4-1.2-0.6
		c-0.3-0.2-0.6-0.3-0.6-0.3s0.2,0.7,0.5,1.4C82.6,173.6,82.9,174.2,82.9,174.2z"/>
	<path fill="#009490" d="M86.5,175.4c0.1,0.2,0.2,0.4,0.2,0.4s0.7-0.3,1.3-0.6c0.6-0.3,1.3-0.6,1.3-0.6s-0.9-0.3-1.9-0.7
		c-0.5-0.2-0.9-0.4-1.3-0.5c-0.3-0.1-0.6-0.2-0.6-0.2s0.3,0.7,0.5,1.3C86.2,174.8,86.4,175.2,86.5,175.4z"/>
	<path fill="#009490" d="M90.5,177.2c0,0,0.6-0.3,1.3-0.7c0.6-0.3,1.3-0.7,1.3-0.7s-1-0.3-1.9-0.6c-0.9-0.3-1.9-0.7-1.9-0.7
		s0.3,0.6,0.6,1.3C90.2,176.6,90.5,177.2,90.5,177.2z"/>
	<path fill="#009490" d="M94.5,178.4c0,0,0.2-0.1,0.4-0.2c0.2-0.1,0.5-0.3,0.9-0.5c0.6-0.4,1.2-0.8,1.2-0.8s-0.2-0.1-0.6-0.1
		c-0.4-0.1-0.9-0.2-1.3-0.3c-1-0.3-1.9-0.6-1.9-0.6s0.3,0.6,0.7,1.2C94.1,177.7,94.5,178.4,94.5,178.4z"/>
	<path fill="#009490" d="M98.5,179.3c0,0,0.1-0.1,0.4-0.2c0.2-0.1,0.5-0.3,0.8-0.5c0.6-0.4,1.2-0.8,1.2-0.8s-0.2,0-0.6-0.1
		c-0.2,0-0.4-0.1-0.6-0.1c-0.2,0-0.5-0.1-0.7-0.2c-1-0.2-1.9-0.4-1.9-0.4s0.4,0.6,0.8,1.2C98.1,178.7,98.5,179.3,98.5,179.3z"/>
	<path fill="#009490" d="M102.5,180c0,0,0.6-0.4,1.1-0.8c0.6-0.4,1.1-0.9,1.1-0.9s-0.2,0-0.6-0.1c-0.4,0-0.9-0.1-1.4-0.2
		c-1-0.2-2-0.3-2-0.3s0.4,0.6,0.8,1.1C102.1,179.4,102.5,180,102.5,180z"/>
	<path fill="#009490" d="M106.6,180.4c0,0,0.5-0.5,1.1-0.9c0.5-0.4,1.1-0.9,1.1-0.9s-0.1,0-0.2,0c-0.1,0-0.3,0-0.5,0
		c-0.4,0-0.9-0.1-1.4-0.1c-1-0.1-2-0.2-2-0.2s0.5,0.5,0.9,1.1C106.2,179.9,106.6,180.4,106.6,180.4z"/>
	<path fill="#009490" d="M109.7,179.6c0.5,0.5,1,1,1,1s0.5-0.5,1-1c0.5-0.5,1-1,1-1l-4-0.1C108.8,178.6,109.2,179.1,109.7,179.6z"/>
	<path fill="#009490" d="M113.8,179.7c0.5,0.5,1,1,1,1s0.5-0.5,1-1c0.5-0.5,1-1,1-1l-4,0.1C112.8,178.7,113.3,179.2,113.8,179.7z"/>
	<path fill="#009490" d="M117.4,178.6c-0.2,0-0.3,0-0.5,0c-0.1,0-0.2,0-0.2,0s0.5,0.5,1.1,0.9c0.5,0.5,1.1,0.9,1.1,0.9
		s0.5-0.5,0.9-1.1c0.4-0.5,0.9-1.1,0.9-1.1s-1,0.1-2,0.2C118.3,178.5,117.8,178.5,117.4,178.6z"/>
	<path fill="#009490" d="M121.4,178.2c-0.4,0-0.6,0.1-0.6,0.1s0.6,0.5,1.1,0.9c0.6,0.4,1.1,0.8,1.1,0.8s0.4-0.6,0.9-1.2
		c0.4-0.6,0.8-1.1,0.8-1.1s-1,0.2-2,0.3C122.2,178.1,121.7,178.2,121.4,178.2z"/>
	<path fill="#009490" d="M125.9,177.5c-0.2,0-0.4,0.1-0.6,0.1c-0.4,0.1-0.6,0.1-0.6,0.1s0.6,0.4,1.2,0.8c0.3,0.2,0.6,0.4,0.8,0.5
		c0.2,0.1,0.4,0.2,0.4,0.2s0.4-0.6,0.8-1.2c0.4-0.6,0.8-1.2,0.8-1.2s-1,0.2-1.9,0.4C126.4,177.4,126.2,177.4,125.9,177.5z"/>
	<path fill="#009490" d="M129.2,176.7c-0.4,0.1-0.6,0.1-0.6,0.1s0.6,0.4,1.2,0.8c0.3,0.2,0.6,0.4,0.9,0.5c0.2,0.1,0.4,0.2,0.4,0.2
		s0.4-0.6,0.7-1.3c0.3-0.6,0.7-1.2,0.7-1.2s-1,0.3-1.9,0.6C130.1,176.6,129.6,176.7,129.2,176.7z"/>
	<path fill="#009490" d="M132.5,175.9c0,0,0.6,0.3,1.3,0.7c0.6,0.3,1.3,0.7,1.3,0.7s0.3-0.6,0.6-1.3c0.3-0.6,0.6-1.3,0.6-1.3
		s-0.9,0.3-1.9,0.7C133.4,175.6,132.5,175.9,132.5,175.9z"/>
	<path fill="#009490" d="M138.1,174c-0.9,0.3-1.9,0.7-1.9,0.7s0.6,0.3,1.3,0.6c0.7,0.3,1.3,0.6,1.3,0.6s0.1-0.2,0.2-0.4
		c0.1-0.3,0.2-0.6,0.4-0.9c0.3-0.7,0.5-1.3,0.5-1.3s-0.2,0.1-0.6,0.2C139,173.6,138.6,173.8,138.1,174z"/>
	<path fill="#009490" d="M141.8,172.4c-0.9,0.4-1.8,0.8-1.8,0.8s0.7,0.3,1.3,0.5c0.7,0.3,1.3,0.5,1.3,0.5s0.3-0.6,0.5-1.3
		c0.2-0.7,0.5-1.4,0.5-1.4s-0.2,0.1-0.6,0.3C142.7,172,142.3,172.2,141.8,172.4z"/>
	<path fill="#009490" d="M146,170.3c-0.2,0.1-0.4,0.2-0.7,0.3c-0.9,0.5-1.8,0.9-1.8,0.9s0.7,0.2,1.3,0.4c0.7,0.2,1.4,0.4,1.4,0.4
		s0.1-0.2,0.1-0.4c0.1-0.3,0.2-0.6,0.3-0.9c0.2-0.7,0.4-1.4,0.4-1.4s-0.2,0.1-0.5,0.3C146.4,170,146.2,170.2,146,170.3z"/>
	<path fill="#009490" d="M148.8,168.6c-0.9,0.5-1.7,1-1.7,1s0.7,0.2,1.4,0.4c0.7,0.2,1.4,0.3,1.4,0.3s0.2-0.7,0.3-1.4
		c0.1-0.7,0.3-1.4,0.3-1.4s-0.2,0.1-0.5,0.3C149.7,168.1,149.3,168.4,148.8,168.6z"/>
	<path fill="#009490" d="M152.2,166.4c-0.8,0.6-1.7,1.1-1.7,1.1s0.7,0.1,1.4,0.3c0.7,0.1,1.4,0.3,1.4,0.3s0.1-0.7,0.3-1.4
		c0.1-0.3,0.1-0.7,0.1-1c0-0.3,0.1-0.4,0.1-0.4s-0.2,0.2-0.5,0.4C153,165.9,152.6,166.2,152.2,166.4z"/>
	<path fill="#009490" d="M155.4,164.1c-0.8,0.6-1.6,1.2-1.6,1.2s0.7,0.1,1.4,0.2c0.7,0.1,1.4,0.2,1.4,0.2s0.1-0.7,0.2-1.4
		c0-0.3,0.1-0.7,0.1-1c0-0.3,0-0.4,0-0.4s-0.2,0.2-0.5,0.4C156.2,163.5,155.8,163.8,155.4,164.1z"/>
	<path fill="#009490" d="M165.6,157.2c0,0,0-0.7-0.1-1.4c0-0.3,0-0.7-0.1-1c0-0.3,0-0.4,0-0.4s-0.1,0.2-0.4,0.5
		c-0.2,0.3-0.6,0.6-0.9,1c-0.7,0.7-1.3,1.5-1.3,1.5s0.7,0,1.4-0.1C164.9,157.3,165.6,157.2,165.6,157.2z"/>
	<path fill="#009490" d="M168.2,154.1c0,0-0.1-0.7-0.2-1.4c0-0.3-0.1-0.7-0.1-1c0-0.3-0.1-0.4-0.1-0.4s0,0.1-0.1,0.1
		c-0.1,0.1-0.2,0.2-0.3,0.4c-0.2,0.3-0.5,0.7-0.9,1.1c-0.6,0.8-1.2,1.6-1.2,1.6s0.7-0.1,1.4-0.1
		C167.5,154.2,168.2,154.1,168.2,154.1z"/>
	<path fill="#009490" d="M170.7,150.8c0,0-0.1-0.7-0.2-1.4c-0.1-0.7-0.3-1.4-0.3-1.4l-2.3,3.3c0,0,0.7-0.1,1.4-0.2
		C170,150.9,170.7,150.8,170.7,150.8z"/>
	<path fill="#009490" d="M70.7,152c0.1-0.5,0.1-1,0-1.6c-0.1-0.5-0.4-1-0.7-1.5c-0.4-0.5-0.8-0.9-1.3-1.2l1.6-1.3
		c0.2-0.1,0.3-0.2,0.5-0.2c0.2,0,0.4,0.1,0.5,0.3c0.2,0.3,0.4,0.5,0.6,0.7c0.2,0.2,0.3,0.5,0.3,0.7c0.1,0.2,0.1,0.4,0,0.6
		c0,0.2-0.2,0.4-0.4,0.6c-0.1,0.1-0.1,0.1-0.2,0.2c-0.1,0.1-0.2,0.1-0.2,0.1c0,0.1,0,0.1,0.1,0.2c0,0.1,0.1,0.1,0.1,0.2
		c0.3,0.4,0.6,0.5,0.9,0.5c0.3,0,0.6-0.2,0.8-0.4c0.1-0.1,0.2-0.2,0.3-0.4c0.1-0.1,0.2-0.3,0.2-0.4c0.1-0.1,0.1-0.3,0.2-0.4
		c0.1-0.1,0.1-0.2,0.2-0.3c0.1-0.1,0.2-0.1,0.3-0.2c0.1-0.1,0.2-0.1,0.3-0.1c-0.1-0.1-0.3-0.1-0.4-0.2c-0.2-0.1-0.3-0.2-0.5-0.4
		c-0.3-0.3-0.6-0.7-0.9-1.2c-0.3-0.5-0.7-0.9-1.1-1.4c-0.2-0.3-0.5-0.5-0.8-0.6c-0.3-0.1-0.6-0.1-0.8,0c0.1-0.2,0.1-0.5,0.1-0.8
		c0-0.3-0.2-0.6-0.4-0.9c-0.1-0.1-0.2-0.2-0.4-0.3c-0.1-0.1-0.3-0.2-0.4-0.2c-0.2,0-0.3,0-0.5,0c-0.2,0-0.3,0.1-0.5,0.2
		c-0.2,0.2-0.3,0.3-0.4,0.5c0.1,0,0.3,0,0.4,0c0.1,0,0.3,0.1,0.3,0.2c0.1,0.2,0.2,0.3,0.2,0.5c0,0.2-0.1,0.3-0.3,0.5l-1.6,1.4
		c-0.1-0.1-0.1-0.2-0.2-0.2c-0.2-0.3-0.5-0.4-0.8-0.4c-0.3,0-0.6,0.1-0.9,0.3c-0.1,0.1-0.2,0.2-0.3,0.4c-0.1,0.1-0.1,0.3-0.1,0.4
		c0.2-0.1,0.3-0.1,0.4-0.1c0.1,0,0.3,0.1,0.3,0.2c0.1,0.2,0.2,0.3,0.1,0.5c-0.1,0.2-0.2,0.3-0.4,0.5l-1.3,1.1
		c-0.2,0.1-0.3,0.2-0.5,0.2c-0.2,0-0.3-0.1-0.5-0.2c-0.1-0.1-0.1-0.2-0.2-0.4c0-0.1,0-0.3,0-0.4c-0.2,0-0.4,0.1-0.6,0.3
		c-0.2,0.1-0.3,0.3-0.3,0.4c-0.1,0.2-0.1,0.3-0.1,0.5c0,0.2,0.1,0.3,0.1,0.5c0.1,0.2,0.2,0.3,0.3,0.4c0.5,0.6,1,0.8,1.5,0.6
		c-0.1,0.2-0.1,0.4-0.1,0.6c0,0.2,0.1,0.4,0.2,0.7c0.1,0.2,0.2,0.4,0.4,0.6c0.1,0.2,0.3,0.4,0.5,0.6c0.4,0.5,0.8,0.9,1.2,1.2
		c0.4,0.3,0.9,0.5,1.3,0.6c0.5,0.1,0.9,0,1.4-0.1c0.5-0.2,0.9-0.5,1.4-0.9C70.4,153,70.6,152.5,70.7,152z M68.7,149.9
		c-0.1,0.4-0.3,0.7-0.7,1c-0.2,0.1-0.4,0.3-0.6,0.4c-0.2,0.1-0.5,0.2-0.7,0.3c-0.2,0.1-0.4,0.1-0.7,0.1c-0.2,0-0.4-0.1-0.5-0.3
		c-0.2-0.2-0.3-0.4-0.2-0.6c0-0.2,0.1-0.4,0.3-0.6l1.8-1.6c0.2-0.1,0.3-0.2,0.5-0.1c0.2,0.1,0.3,0.2,0.4,0.3
		C68.7,149.2,68.8,149.5,68.7,149.9z"/>
	<path fill="#009490" d="M77.5,162.1c-0.2-0.1-0.3-0.3-0.3-0.4c0-0.2,0-0.3,0.1-0.6l2.4-5.7c0.1-0.1,0.1-0.3,0.2-0.4
		c0.1-0.1,0.2-0.2,0.3-0.2c0.1,0,0.2,0,0.4,0.1c0.1,0.1,0.1,0.2,0.2,0.3c0,0.1,0,0.2,0,0.3c0.1,0,0.1-0.1,0.2-0.1
		c0,0,0.1-0.1,0.1-0.1c0.2-0.2,0.3-0.4,0.3-0.6c0-0.2,0-0.4,0-0.6c-0.1-0.2-0.1-0.3-0.3-0.5c-0.1-0.2-0.2-0.3-0.4-0.4
		c-0.2-0.2-0.5-0.3-0.7-0.4c-0.3-0.1-0.6,0-0.9,0.1c0-0.4,0-0.7-0.1-0.9c-0.1-0.3-0.3-0.5-0.5-0.7c-0.1-0.1-0.3-0.2-0.5-0.3
		c-0.2-0.1-0.4-0.1-0.5-0.1c-0.2,0-0.4,0-0.6,0.1c-0.2,0.1-0.4,0.2-0.5,0.4c-0.1,0.1-0.1,0.2-0.2,0.3c0.1,0,0.2-0.1,0.3-0.1
		s0.2,0,0.3,0.1c0.1,0.1,0.2,0.2,0.2,0.3c0,0.1-0.1,0.2-0.2,0.3c0,0.1-0.1,0.1-0.2,0.2c-0.1,0.1-0.1,0.1-0.2,0.1l-1.6,1.2
		c0-0.1-0.1-0.2-0.3-0.3c-0.1-0.1-0.3-0.2-0.5-0.3c-0.2-0.1-0.3-0.1-0.5-0.1c-0.2,0-0.3,0-0.5,0.1c-0.2,0.1-0.3,0.2-0.5,0.4
		c-0.1,0.1-0.2,0.2-0.2,0.4c0,0.1-0.1,0.2-0.1,0.2c0.1-0.1,0.2-0.1,0.4-0.1c0.2,0,0.3,0,0.5,0.2c0.1,0.1,0.2,0.2,0.2,0.3
		c0,0.1-0.1,0.2-0.1,0.3c0,0-0.1,0.1-0.1,0.1c0,0-0.1,0.1-0.1,0.1l-1.6,1.1c-0.2,0.1-0.3,0.2-0.5,0.2c-0.2,0-0.3,0-0.5-0.1
		c-0.1-0.1-0.2-0.2-0.2-0.3c0-0.1,0-0.2,0-0.3c-0.2,0.1-0.4,0.2-0.6,0.4c-0.2,0.3-0.3,0.6-0.3,0.8c0,0.3,0.2,0.5,0.4,0.7
		c0.3,0.2,0.5,0.3,0.8,0.3c0.3,0,0.5,0,0.6-0.1c-0.1,0.2-0.1,0.5,0,0.7c0.1,0.2,0.2,0.4,0.5,0.6c0.1,0.1,0.2,0.2,0.4,0.2
		c0.1,0.1,0.3,0.1,0.4,0.1c0.1,0,0.3,0,0.4-0.1c0.1-0.1,0.3-0.2,0.5-0.4c0.1-0.1,0.1-0.2,0.2-0.3c0-0.1,0.1-0.2,0.1-0.2
		c-0.2,0-0.3,0-0.4,0c-0.1,0-0.3-0.1-0.4-0.2c-0.3-0.2-0.3-0.4-0.1-0.7c0.1-0.1,0.1-0.1,0.2-0.2l0.5-0.4c0.2,0,0.4,0.1,0.6,0.2
		c0.2,0.1,0.4,0.2,0.6,0.3c0.2,0.1,0.3,0.3,0.4,0.5c0.1,0.2,0.2,0.4,0.3,0.6l-0.3,0.6c0,0-0.1,0.1-0.1,0.1c0,0-0.1,0.1-0.1,0.1
		c-0.2,0.2-0.4,0.2-0.7,0c-0.2-0.2-0.3-0.4-0.3-0.7c-0.1,0-0.2,0.1-0.2,0.1c-0.1,0-0.2,0.1-0.2,0.2c-0.2,0.2-0.2,0.4-0.3,0.6
		c0,0.2,0,0.3,0,0.5c0.1,0.2,0.1,0.3,0.3,0.4c0.1,0.1,0.2,0.2,0.4,0.4c0.3,0.2,0.6,0.4,0.9,0.4c0.3,0,0.5,0,0.7-0.1
		c-0.1,0.2,0,0.5,0.1,0.7c0.1,0.3,0.3,0.5,0.6,0.8c0.1,0.1,0.3,0.2,0.4,0.3c0.2,0.1,0.3,0.1,0.5,0.1c0.2,0,0.3,0,0.5-0.1
		c0.2-0.1,0.3-0.2,0.4-0.3c0.2-0.2,0.3-0.4,0.3-0.6c-0.1,0-0.2,0.1-0.4,0.1C77.7,162.3,77.6,162.2,77.5,162.1z M76,157
		c-0.1-0.1-0.2-0.2-0.2-0.3c-0.1-0.1-0.2-0.2-0.3-0.2c-0.2-0.1-0.4-0.3-0.7-0.4l2.3-1.7L76,157z"/>
	<path fill="#009490" d="M89.1,161.9c-0.1,0.1-0.1,0.2-0.2,0.2c0,0,0.1,0.1,0.1,0.1c0.1,0,0.1,0.1,0.2,0.1c0.4,0.2,0.7,0.3,1,0.1
		c0.3-0.1,0.5-0.4,0.6-0.7c0.1-0.1,0.1-0.3,0.2-0.5c0-0.2,0.1-0.3,0.1-0.5c0-0.2,0-0.3,0.1-0.4c0-0.1,0.1-0.3,0.1-0.4
		c0-0.1,0.1-0.2,0.2-0.3c0.1-0.1,0.2-0.2,0.3-0.3c-0.1,0-0.3,0-0.5,0c-0.2,0-0.4-0.1-0.7-0.2c-0.4-0.2-0.8-0.4-1.3-0.7
		c-0.5-0.3-1-0.6-1.5-0.9c-0.3-0.2-0.7-0.2-1-0.2c-0.3,0-0.6,0.1-0.8,0.3c0-0.3-0.1-0.5-0.2-0.8c-0.1-0.3-0.4-0.5-0.7-0.6
		c-0.1-0.1-0.3-0.1-0.5-0.2c-0.2,0-0.3-0.1-0.5,0c-0.2,0-0.3,0.1-0.5,0.2c-0.1,0.1-0.3,0.2-0.4,0.4c-0.1,0.2-0.2,0.4-0.2,0.6
		c0.1-0.1,0.2-0.1,0.4-0.1c0.1,0,0.3,0,0.4,0.1c0.2,0.1,0.3,0.2,0.3,0.4c0,0.2,0,0.4-0.1,0.5l-1,1.8c-0.1-0.1-0.2-0.1-0.2-0.2
		c-0.3-0.2-0.6-0.2-0.9-0.1c-0.3,0.1-0.5,0.3-0.7,0.6c-0.1,0.2-0.1,0.3-0.2,0.5c0,0.2,0,0.3,0,0.4c0.1-0.1,0.3-0.2,0.4-0.2
		c0.1,0,0.3,0,0.4,0c0.2,0.1,0.3,0.2,0.3,0.4c0,0.2,0,0.4-0.2,0.6l-0.8,1.6c-0.1,0.2-0.2,0.3-0.4,0.4c-0.2,0.1-0.3,0.1-0.5,0
		c-0.1-0.1-0.2-0.1-0.3-0.3c-0.1-0.1-0.1-0.3-0.1-0.4c-0.2,0.1-0.3,0.3-0.4,0.5c-0.1,0.2-0.1,0.4-0.1,0.5c0,0.2,0.1,0.3,0.1,0.5
		c0.1,0.1,0.2,0.3,0.3,0.4c0.1,0.1,0.3,0.2,0.4,0.3c0.7,0.3,1.2,0.3,1.6,0c0,0.2,0.1,0.4,0.2,0.6c0.1,0.2,0.3,0.4,0.4,0.5
		c0.2,0.2,0.4,0.3,0.6,0.5c0.2,0.1,0.4,0.3,0.6,0.4c0.6,0.3,1.1,0.5,1.6,0.6c0.5,0.1,1,0.1,1.4,0c0.4-0.1,0.9-0.3,1.2-0.6
		c0.4-0.3,0.7-0.8,1-1.4c0.2-0.5,0.3-1,0.2-1.5c-0.1-0.5-0.3-1-0.6-1.4c-0.3-0.4-0.7-0.8-1.3-1.1c-0.5-0.3-1.1-0.5-1.7-0.6l1-1.8
		c0.1-0.2,0.2-0.3,0.4-0.4c0.2-0.1,0.4,0,0.6,0.1c0.3,0.2,0.6,0.3,0.8,0.5c0.2,0.2,0.4,0.3,0.6,0.5c0.2,0.2,0.2,0.4,0.3,0.6
		c0,0.2,0,0.4-0.1,0.7C89.2,161.7,89.2,161.8,89.1,161.9z M85.9,162.7c0.4,0.2,0.6,0.5,0.7,0.9c0.1,0.4,0,0.8-0.2,1.2
		c-0.1,0.2-0.2,0.4-0.4,0.6c-0.2,0.2-0.3,0.4-0.5,0.5c-0.2,0.2-0.4,0.3-0.6,0.3c-0.2,0.1-0.4,0-0.6-0.1c-0.2-0.1-0.4-0.3-0.5-0.5
		c-0.1-0.2-0.1-0.4,0.1-0.6l1.1-2.2c0.1-0.2,0.2-0.3,0.4-0.3C85.6,162.6,85.8,162.6,85.9,162.7z"/>
	<path fill="#009490" d="M99.9,162.7c-0.1-0.1-0.3-0.3-0.4-0.4c-0.2-0.1-0.3-0.2-0.5-0.2c-0.3-0.1-0.6-0.1-0.8-0.1
		c-0.3,0-0.6,0.2-0.8,0.4c-0.1-0.3-0.2-0.6-0.5-0.8c-0.2-0.2-0.5-0.3-0.8-0.4c-0.2,0-0.3-0.1-0.5-0.1c-0.2,0-0.4,0-0.6,0.1
		c-0.2,0.1-0.3,0.2-0.5,0.3c-0.2,0.1-0.3,0.3-0.3,0.6c0,0.1-0.1,0.2,0,0.4c0.1-0.1,0.1-0.1,0.2-0.2c0.1-0.1,0.2-0.1,0.3,0
		c0.2,0,0.3,0.1,0.3,0.2c0,0.1,0,0.2,0,0.4c0,0.1,0,0.1-0.1,0.2c0,0.1-0.1,0.1-0.1,0.2l-1,1.7c-0.1-0.1-0.2-0.1-0.4-0.2
		c-0.2-0.1-0.4-0.1-0.5-0.1c-0.2,0-0.3,0-0.5,0.1c-0.2,0.1-0.3,0.2-0.4,0.3c-0.1,0.1-0.2,0.3-0.3,0.6c0,0.1-0.1,0.3-0.1,0.4
		c0,0.1,0,0.2,0,0.3c0.1-0.1,0.2-0.2,0.3-0.3c0.2-0.1,0.3-0.1,0.5,0c0.2,0.1,0.3,0.1,0.3,0.3c0,0.1,0,0.2,0,0.3c0,0,0,0.1,0,0.1
		c0,0,0,0.1-0.1,0.1l-1.1,1.7c-0.1,0.2-0.2,0.3-0.4,0.4c-0.1,0.1-0.3,0.1-0.5,0.1c-0.1,0-0.2-0.1-0.3-0.2c-0.1-0.1-0.1-0.2-0.1-0.3
		c-0.2,0.1-0.3,0.3-0.4,0.6c-0.1,0.4-0.1,0.7,0,0.9c0.1,0.2,0.3,0.4,0.6,0.5c0.3,0.1,0.6,0.1,0.8,0c0.2-0.1,0.4-0.2,0.5-0.4
		c0,0.2,0.1,0.5,0.3,0.6c0.2,0.2,0.4,0.3,0.7,0.4c0.1,0,0.3,0.1,0.4,0.1c0.1,0,0.3,0,0.4-0.1c0.1-0.1,0.2-0.1,0.3-0.3
		c0.1-0.1,0.2-0.3,0.3-0.6c0-0.1,0.1-0.2,0.1-0.3c0-0.1,0-0.2,0-0.3c-0.1,0.1-0.3,0.2-0.4,0.2c-0.1,0-0.3,0-0.4,0
		c-0.3-0.1-0.4-0.3-0.4-0.6c0-0.1,0.1-0.2,0.1-0.3l0.3-0.6c0.2-0.1,0.4-0.1,0.7-0.1c0.2,0,0.5,0,0.7,0.1c0.2,0.1,0.4,0.1,0.6,0.3
		c0.2,0.1,0.4,0.3,0.5,0.4l0,0.7c0,0.1,0,0.1,0,0.2c0,0.1,0,0.1,0,0.1c-0.1,0.3-0.3,0.4-0.6,0.3c-0.3-0.1-0.5-0.3-0.6-0.6
		c-0.1,0.1-0.1,0.1-0.2,0.2c-0.1,0.1-0.1,0.2-0.1,0.3c-0.1,0.2-0.1,0.4,0,0.6c0,0.2,0.1,0.3,0.2,0.5c0.1,0.1,0.2,0.2,0.4,0.3
		c0.2,0.1,0.3,0.1,0.5,0.2c0.4,0.1,0.7,0.1,0.9,0c0.3-0.1,0.5-0.2,0.6-0.3c0,0.2,0.1,0.4,0.4,0.7c0.2,0.2,0.5,0.4,0.9,0.5
		c0.2,0,0.3,0.1,0.5,0.1c0.2,0,0.3,0,0.5-0.1c0.2-0.1,0.3-0.1,0.4-0.2c0.1-0.1,0.2-0.3,0.3-0.4c0.1-0.3,0.1-0.5,0-0.7
		c-0.1,0.1-0.2,0.1-0.3,0.2c-0.1,0-0.3,0-0.4,0c-0.2-0.1-0.3-0.2-0.4-0.3c-0.1-0.1-0.1-0.3-0.1-0.6l0.1-6.2c0-0.1,0-0.3,0.1-0.4
		c0-0.1,0.1-0.2,0.2-0.3c0.1-0.1,0.2-0.1,0.4,0c0.1,0,0.2,0.1,0.3,0.2c0.1,0.1,0.1,0.2,0.1,0.3c0-0.1,0.1-0.1,0.1-0.2
		c0,0,0.1-0.1,0.1-0.2c0.1-0.2,0.1-0.5,0-0.7C100.1,163.1,100,162.9,99.9,162.7z M96,167.4c-0.1-0.1-0.2-0.1-0.3-0.2
		c-0.1,0-0.2-0.1-0.3-0.1c-0.2-0.1-0.5-0.1-0.8-0.1l1.5-2.4L96,167.4z"/>
	<path fill="#009490" d="M119.9,166.4c-0.4-0.2-0.8-0.4-1.2-0.5c-0.5-0.1-0.9-0.1-1.4-0.1c-0.2,0-0.4,0-0.5,0
		c-0.2,0-0.3,0.1-0.4,0.1c0-0.2,0.1-0.4,0.2-0.5c0.1-0.1,0.3-0.2,0.5-0.2c0.1,0,0.3,0,0.4,0.1c0.1,0.1,0.2,0.2,0.3,0.3
		c0.1-0.2,0.1-0.4,0.1-0.6c0-0.2-0.1-0.4-0.1-0.5c-0.1-0.1-0.2-0.3-0.3-0.4c-0.1-0.1-0.3-0.2-0.5-0.2c-0.2,0-0.3-0.1-0.5,0
		c-0.4,0-0.7,0.1-0.9,0.3c-0.3,0.2-0.4,0.4-0.5,0.6c-0.1-0.2-0.3-0.4-0.6-0.6c-0.3-0.1-0.6-0.2-1-0.2c-0.2,0-0.3,0-0.5,0.1
		c-0.2,0-0.3,0.1-0.4,0.2c-0.1,0.1-0.2,0.2-0.3,0.4c-0.1,0.2-0.1,0.3-0.1,0.5c0,0.2,0.1,0.4,0.2,0.6c0.1-0.1,0.2-0.2,0.3-0.3
		c0.1-0.1,0.2-0.1,0.4-0.1c0.2,0,0.4,0.1,0.5,0.2c0.1,0.1,0.2,0.3,0.2,0.5c-0.1,0-0.2,0-0.4-0.1c-0.2,0-0.4,0-0.5,0
		c-0.4,0-0.9,0.1-1.3,0.2c-0.4,0.1-0.8,0.2-1.1,0.4c-0.3,0.2-0.6,0.4-0.8,0.7c-0.2,0.3-0.4,0.6-0.5,1c-0.2,0-0.4,0-0.6,0
		c-0.2,0-0.3,0.1-0.5,0.2c-0.1,0.1-0.2,0.2-0.3,0.4c-0.1,0.2-0.1,0.3-0.1,0.5c0,0.2,0,0.3,0.1,0.5c0.1,0.1,0.1,0.3,0.2,0.3
		c0-0.2,0.1-0.3,0.3-0.4c0.1-0.1,0.2-0.1,0.4-0.1c0.1,0,0.3,0.1,0.4,0.2c0.1,0.1,0.2,0.2,0.3,0.4c0.2,0.6,0.7,1.1,1.2,1.3
		c0.6,0.3,1.3,0.4,2.1,0.4c0.2,0,0.5,0,0.7-0.1c0.2,0,0.4-0.1,0.6-0.2v0.5c0,0.2-0.1,0.4-0.2,0.5c-0.1,0.1-0.3,0.2-0.5,0.2
		c-0.1,0-0.3,0-0.4-0.1c-0.1-0.1-0.2-0.2-0.3-0.3c-0.1,0.2-0.1,0.4-0.1,0.6c0,0.2,0,0.4,0.1,0.5c0.1,0.1,0.2,0.3,0.3,0.4
		c0.1,0.1,0.3,0.2,0.5,0.2c0.2,0,0.3,0.1,0.5,0c0.8,0,1.3-0.3,1.5-0.8c0.2,0.5,0.8,0.7,1.5,0.7c0.2,0,0.3,0,0.5-0.1
		c0.2,0,0.3-0.1,0.4-0.2c0.1-0.1,0.2-0.2,0.3-0.4c0.1-0.2,0.1-0.3,0.1-0.5c0-0.2-0.1-0.4-0.2-0.6c-0.1,0.1-0.2,0.2-0.3,0.3
		c-0.1,0.1-0.2,0.1-0.4,0.1c-0.2,0-0.4-0.1-0.5-0.2c-0.1-0.1-0.2-0.3-0.2-0.5l0-0.5c0.2,0.1,0.4,0.1,0.6,0.2c0.2,0,0.5,0,0.7,0
		c0.5,0,1-0.1,1.4-0.2c0.4-0.1,0.8-0.3,1.1-0.6c0.3-0.2,0.5-0.6,0.7-1c0.2-0.4,0.2-0.9,0.2-1.4c0-0.6-0.1-1-0.3-1.4
		C120.6,167,120.3,166.7,119.9,166.4z M113.3,170.6c-0.1,0-0.2,0.1-0.4,0.1c-0.3,0-0.5,0-0.7-0.2c-0.2-0.1-0.3-0.3-0.4-0.5
		c-0.1-0.2-0.1-0.4-0.1-0.6c0-0.2,0-0.5,0-0.7c0-0.2,0-0.4,0-0.5c0-0.2,0.1-0.3,0.2-0.5c0.1-0.1,0.2-0.3,0.3-0.4
		c0.1-0.1,0.3-0.1,0.5-0.2c0.2,0,0.4,0.1,0.6,0.2c0.1,0.1,0.2,0.3,0.2,0.5l0.1,2.5C113.5,170.5,113.4,170.6,113.3,170.6z
		 M118.1,169.9c-0.1,0.2-0.2,0.4-0.3,0.5c-0.2,0.1-0.4,0.2-0.6,0.2c-0.2,0-0.3,0-0.4-0.1c-0.1,0-0.2-0.1-0.3-0.2l-0.1-2.5
		c0-0.2,0.1-0.4,0.2-0.5c0.1-0.1,0.3-0.2,0.5-0.2c0.2,0,0.4,0,0.5,0.1c0.1,0.1,0.3,0.2,0.3,0.3c0.1,0.1,0.1,0.3,0.2,0.5
		c0,0.2,0.1,0.4,0.1,0.5c0,0.2,0,0.4,0,0.7C118.2,169.5,118.2,169.7,118.1,169.9z"/>
	<path fill="#009490" d="M130.3,162.9c-0.3-0.4-0.7-0.6-1.1-0.8c-0.4-0.2-0.8-0.3-1.3-0.3c-0.5,0-0.9,0.1-1.4,0.2
		c-0.2,0.1-0.5,0.1-0.7,0.2c-0.2,0.1-0.4,0.2-0.6,0.3c-0.2,0.1-0.3,0.3-0.5,0.4c-0.1,0.2-0.2,0.4-0.3,0.6c-0.2-0.2-0.4-0.4-0.7-0.4
		c-0.3-0.1-0.6-0.1-1,0c-0.2,0-0.3,0.1-0.5,0.2c-0.2,0.1-0.3,0.2-0.4,0.3c-0.1,0.1-0.2,0.3-0.2,0.4c-0.1,0.2-0.1,0.4,0,0.6
		c0.1,0.2,0.2,0.4,0.3,0.6c0-0.1,0.1-0.2,0.2-0.3c0.1-0.1,0.2-0.2,0.3-0.2c0.2-0.1,0.4,0,0.5,0.1c0.1,0.1,0.2,0.3,0.3,0.5l0.5,2
		c-0.1,0-0.1,0-0.2,0c-0.1,0-0.1,0-0.2,0c-0.3,0.1-0.6,0.3-0.7,0.5c-0.1,0.3-0.2,0.6-0.1,0.9c0,0.2,0.1,0.3,0.2,0.5
		c0.1,0.1,0.2,0.2,0.3,0.3c0-0.2,0.1-0.3,0.1-0.4c0.1-0.1,0.2-0.2,0.3-0.2c0.2,0,0.4,0,0.5,0.1c0.1,0.1,0.2,0.3,0.3,0.6l0.4,1.7
		c0.1,0.2,0,0.4,0,0.6c-0.1,0.2-0.2,0.3-0.4,0.3c-0.1,0-0.3,0-0.4,0c-0.1,0-0.3-0.1-0.4-0.2c0,0.2,0,0.4,0,0.6
		c0.1,0.2,0.1,0.4,0.3,0.5c0.1,0.1,0.3,0.2,0.4,0.3c0.2,0.1,0.3,0.1,0.5,0.1c0.2,0,0.3,0,0.5-0.1c0.7-0.2,1.1-0.5,1.2-1.1
		c0.4,0.4,0.9,0.5,1.6,0.4c0.2,0,0.3-0.1,0.5-0.2c0.2-0.1,0.3-0.2,0.4-0.3c0.1-0.1,0.2-0.3,0.2-0.4c0-0.2,0-0.3,0-0.6
		c-0.1-0.2-0.1-0.4-0.3-0.6c0,0.1-0.1,0.2-0.2,0.3c-0.1,0.1-0.2,0.2-0.3,0.2c-0.2,0-0.4,0-0.5-0.1c-0.2-0.1-0.3-0.3-0.3-0.5
		l-0.4-1.7c0.2,0,0.4,0.1,0.6,0c0.2,0,0.5,0,0.7-0.1c0.5-0.1,1-0.3,1.3-0.5c0.4-0.2,0.7-0.5,0.9-0.9c0.2-0.3,0.3-0.7,0.4-1.2
		c0-0.5,0-1-0.2-1.6C130.9,163.7,130.6,163.2,130.3,162.9z M128.2,166.9c-0.1,0.2-0.3,0.3-0.6,0.4c-0.2,0-0.3,0-0.4,0
		c-0.1,0-0.2-0.1-0.3-0.1l-0.7-2.8c-0.1-0.2,0-0.4,0-0.6c0.1-0.2,0.2-0.3,0.5-0.4c0.2-0.1,0.4,0,0.5,0c0.2,0.1,0.3,0.2,0.4,0.3
		c0.1,0.1,0.2,0.3,0.3,0.5c0.1,0.2,0.1,0.4,0.2,0.6c0.1,0.2,0.1,0.5,0.2,0.7c0.1,0.3,0.1,0.5,0.1,0.7
		C128.4,166.6,128.3,166.8,128.2,166.9z"/>
	<path fill="#009490" d="M143.6,164.6c0,0.1,0,0.2-0.1,0.3c-0.1,0.1-0.2,0.2-0.3,0.3c-0.2,0.1-0.4,0.1-0.5,0
		c-0.1-0.1-0.3-0.2-0.4-0.4l-4.1-4.7c-0.1-0.1-0.2-0.2-0.2-0.4c-0.1-0.1-0.1-0.3-0.1-0.4c0-0.1,0.1-0.2,0.3-0.3
		c0.1-0.1,0.2-0.1,0.3,0c0.1,0,0.2,0.1,0.3,0.1c0-0.1,0-0.1,0-0.2c0-0.1,0-0.1-0.1-0.2c-0.1-0.2-0.3-0.4-0.4-0.5
		c-0.2-0.1-0.4-0.2-0.5-0.2c-0.2,0-0.4,0-0.6,0c-0.2,0-0.4,0.1-0.5,0.2c-0.3,0.1-0.5,0.3-0.7,0.5c-0.2,0.2-0.3,0.5-0.3,0.8
		c-0.3-0.2-0.6-0.3-0.9-0.3c-0.3,0-0.6,0.1-0.8,0.2c-0.1,0.1-0.3,0.2-0.4,0.3c-0.1,0.1-0.3,0.3-0.4,0.4c-0.1,0.2-0.2,0.4-0.2,0.6
		c0,0.2,0,0.4,0.1,0.7c0.1,0.1,0.1,0.2,0.2,0.3c0-0.1,0-0.2,0.1-0.3c0-0.1,0.1-0.2,0.2-0.3c0.2-0.1,0.3-0.1,0.4,0
		c0.1,0.1,0.2,0.2,0.2,0.3c0,0.1,0.1,0.1,0.1,0.2c0,0.1,0,0.2,0,0.2l0.3,1.9c-0.1,0-0.2,0-0.4,0.1c-0.2,0.1-0.3,0.2-0.5,0.3
		c-0.1,0.1-0.2,0.2-0.3,0.4c-0.1,0.2-0.1,0.3-0.1,0.5c0,0.2,0.1,0.4,0.2,0.6c0.1,0.1,0.1,0.3,0.2,0.4c0.1,0.1,0.1,0.2,0.2,0.2
		c0-0.1,0-0.3,0.1-0.4c0.1-0.2,0.2-0.3,0.4-0.4c0.2-0.1,0.3-0.1,0.4,0c0.1,0.1,0.2,0.2,0.2,0.2c0,0,0,0.1,0,0.1c0,0,0,0.1,0,0.1
		l0.3,1.9c0,0.2,0,0.4,0,0.5c0,0.2-0.2,0.3-0.3,0.4c-0.1,0.1-0.3,0.1-0.4,0c-0.1,0-0.2-0.1-0.3-0.2c0,0.2,0,0.5,0.1,0.7
		c0.2,0.3,0.4,0.6,0.6,0.6c0.2,0.1,0.5,0.1,0.8-0.1c0.3-0.1,0.5-0.3,0.6-0.6c0.1-0.2,0.2-0.4,0.2-0.6c0.2,0.2,0.4,0.3,0.6,0.3
		c0.2,0,0.5,0,0.8-0.1c0.1-0.1,0.2-0.1,0.4-0.2c0.1-0.1,0.2-0.2,0.3-0.3c0.1-0.1,0.1-0.3,0.1-0.4c0-0.2-0.1-0.4-0.2-0.6
		c-0.1-0.1-0.1-0.2-0.2-0.3c-0.1-0.1-0.1-0.1-0.2-0.2c0,0.2-0.1,0.3-0.2,0.4c-0.1,0.1-0.2,0.2-0.3,0.2c-0.3,0.1-0.5,0.1-0.6-0.2
		c0-0.1-0.1-0.2-0.1-0.3l-0.1-0.6c0.1-0.2,0.2-0.3,0.4-0.5c0.2-0.2,0.4-0.3,0.6-0.4c0.2-0.1,0.4-0.1,0.6-0.2c0.2,0,0.4,0,0.6,0
		l0.4,0.5c0,0,0.1,0.1,0.1,0.1c0,0,0,0.1,0.1,0.1c0.1,0.3,0,0.5-0.3,0.6c-0.3,0.1-0.5,0.1-0.8,0c0,0.1,0,0.2,0,0.3
		c0,0.1,0,0.2,0.1,0.3c0.1,0.2,0.2,0.4,0.4,0.5c0.1,0.1,0.3,0.2,0.5,0.2c0.2,0,0.3,0,0.5,0c0.2,0,0.3-0.1,0.5-0.2
		c0.3-0.2,0.6-0.4,0.7-0.6c0.2-0.2,0.2-0.5,0.2-0.7c0.2,0.1,0.4,0.2,0.7,0.2c0.3,0,0.6-0.1,0.9-0.2c0.1-0.1,0.3-0.2,0.4-0.3
		c0.1-0.1,0.2-0.2,0.3-0.4c0.1-0.1,0.1-0.3,0.1-0.5c0-0.2,0-0.3-0.1-0.5C143.9,164.8,143.7,164.7,143.6,164.6z M137.6,164.3
		c-0.1,0-0.2,0.1-0.3,0.1c-0.2,0.1-0.4,0.2-0.6,0.4l-0.5-2.8l1.8,2.1C137.8,164.2,137.7,164.3,137.6,164.3z"/>
	<path fill="#009490" d="M155.1,157c-0.2-0.2-0.3-0.3-0.5-0.4c0,0.1,0,0.3-0.1,0.4c0,0.1-0.1,0.2-0.2,0.3c-0.2,0.1-0.3,0.2-0.5,0.1
		c-0.2,0-0.3-0.1-0.5-0.3l-3.7-4.9c-0.1-0.2-0.2-0.4-0.2-0.5c0-0.2,0.1-0.3,0.3-0.5c0.1-0.1,0.2-0.1,0.4-0.1c0.1,0,0.3,0,0.4,0
		c0-0.2-0.1-0.4-0.3-0.6c-0.1-0.2-0.3-0.3-0.4-0.4c-0.2-0.1-0.3-0.1-0.5-0.1c-0.2,0-0.3,0-0.5,0.1c-0.2,0.1-0.3,0.2-0.4,0.3
		c-0.3,0.2-0.5,0.5-0.6,0.8c-0.1,0.3-0.1,0.5-0.1,0.8c-0.2-0.1-0.5-0.2-0.8-0.2c-0.3,0-0.6,0.1-0.8,0.3c-0.1,0.1-0.2,0.2-0.3,0.3
		c-0.1,0.1-0.2,0.3-0.2,0.4c0,0.1,0,0.3,0,0.5c0,0.2,0.1,0.3,0.2,0.5c0.1,0.2,0.3,0.3,0.5,0.4c0-0.1,0-0.2,0-0.3
		c0-0.1,0.1-0.2,0.2-0.3c0.2-0.1,0.3-0.2,0.5-0.1c0.1,0.1,0.3,0.2,0.4,0.3l1.5,1.9c-0.3,0-0.5,0-0.7,0.1c-0.2,0.1-0.4,0.2-0.6,0.4
		c-0.2,0.2-0.4,0.4-0.6,0.6c-0.2,0.2-0.3,0.4-0.3,0.6l-1.5-1.9c-0.1-0.2-0.2-0.3-0.2-0.5c0-0.2,0.1-0.3,0.2-0.4
		c0.1-0.1,0.2-0.1,0.4-0.1c0.1,0,0.2,0,0.3,0.1c0-0.2-0.1-0.4-0.3-0.6c-0.3-0.3-0.5-0.5-0.8-0.5c-0.3,0-0.6,0.1-0.9,0.3
		c-0.3,0.2-0.5,0.4-0.6,0.7c-0.1,0.3-0.1,0.5-0.1,0.8c-0.2-0.1-0.5-0.2-0.8-0.2c-0.3,0-0.6,0.2-0.9,0.4c-0.1,0.1-0.2,0.2-0.3,0.3
		c-0.1,0.1-0.2,0.3-0.2,0.4c-0.1,0.2-0.1,0.3,0,0.5c0,0.2,0.1,0.3,0.2,0.5c0.1,0.2,0.3,0.3,0.5,0.4c0-0.1,0-0.3,0.1-0.4
		c0.1-0.1,0.1-0.2,0.2-0.3c0.2-0.1,0.3-0.2,0.5-0.1c0.2,0,0.3,0.1,0.5,0.3l1.3,1.7c-0.1,0-0.1,0-0.1,0.1c0,0-0.1,0.1-0.1,0.1
		c-0.3,0.2-0.4,0.5-0.5,0.8c0,0.3,0.1,0.6,0.3,0.9c0.1,0.1,0.2,0.3,0.4,0.3c0.1,0.1,0.3,0.1,0.3,0.2c0-0.2-0.1-0.3,0-0.4
		c0-0.1,0.1-0.2,0.2-0.3c0.2-0.1,0.3-0.2,0.5-0.1c0.2,0.1,0.3,0.2,0.5,0.4l1.1,1.4c0.1,0.2,0.2,0.3,0.2,0.5c0,0.2-0.1,0.3-0.3,0.5
		c-0.1,0.1-0.2,0.1-0.4,0.1c-0.1,0-0.3,0-0.4,0c0,0.2,0.1,0.4,0.2,0.6c0.1,0.2,0.3,0.3,0.4,0.3c0.2,0.1,0.3,0.1,0.5,0.1
		c0.2,0,0.3,0,0.5-0.1c0.2-0.1,0.3-0.1,0.4-0.2c0.6-0.5,0.8-0.9,0.7-1.5c0.5,0.3,1,0.2,1.6-0.3c0.3-0.2,0.5-0.5,0.6-0.7
		c0.1-0.3,0-0.6-0.3-0.9c-0.2-0.2-0.3-0.3-0.5-0.4c0,0.1,0,0.2,0,0.3c0,0.1-0.1,0.2-0.2,0.3c-0.2,0.1-0.3,0.2-0.5,0.1
		c-0.2-0.1-0.3-0.2-0.4-0.3l-1.2-1.6c0-0.3,0.1-0.5,0.2-0.8c0.1-0.2,0.3-0.4,0.5-0.6c0.3-0.2,0.5-0.3,0.8-0.4c0.3,0,0.5,0,0.7,0
		l1.2,1.6c0.1,0.2,0.2,0.3,0.2,0.5c0,0.2,0,0.3-0.2,0.4c-0.1,0.1-0.2,0.1-0.3,0.1c-0.1,0-0.2,0-0.4-0.1c0,0.2,0.1,0.4,0.3,0.6
		c0.1,0.2,0.3,0.3,0.4,0.4c0.1,0.1,0.3,0.1,0.5,0.1c0.2,0,0.3,0,0.5-0.1c0.1-0.1,0.3-0.1,0.4-0.2c0.3-0.2,0.5-0.5,0.6-0.7
		c0.1-0.2,0.1-0.5,0.1-0.7c0.5,0.3,1,0.2,1.6-0.3c0.1-0.1,0.3-0.2,0.4-0.4c0.1-0.1,0.2-0.3,0.2-0.4c0-0.2,0.1-0.3,0-0.5
		C155.3,157.3,155.2,157.2,155.1,157z"/>
	<path fill="#009490" d="M155,143.6c0,0.3,0,0.6,0.1,0.8c-0.5,0-0.9,0.1-1.4,0.3c-0.4,0.3-0.8,0.6-1.1,0.9c-0.3,0.4-0.6,0.8-0.8,1.2
		c-0.2,0.4-0.4,0.8-0.4,1.2c-0.1,0.4,0,0.8,0.1,1.2c0.1,0.4,0.4,0.8,0.9,1.2c0.5,0.4,1,0.6,1.5,0.6c0.5,0,1.1-0.2,1.5-0.6l0.1,0.1
		c-0.2,0.2-0.3,0.5-0.4,0.8c-0.1,0.3-0.1,0.6,0,0.9c0.1,0.2,0.2,0.4,0.4,0.6c0.2,0.2,0.4,0.4,0.5,0.5c0.4,0.3,0.6,0.6,0.8,0.8
		c0.2,0.2,0.1,0.5,0,0.7c-0.1,0.1-0.2,0.2-0.4,0.2c-0.1,0-0.3,0-0.4,0c0.1,0.1,0.2,0.2,0.3,0.3c0.2,0.2,0.4,0.3,0.7,0.3
		c0.2,0,0.4,0,0.6-0.1c0.2-0.1,0.4-0.2,0.6-0.3c0.2-0.2,0.4-0.3,0.5-0.5c0.5-0.6,0.7-1.1,0.7-1.5c0-0.5-0.2-0.9-0.8-1.4l-1.1-1
		c-0.3-0.2-0.5-0.5-0.5-0.7c-0.1-0.2,0-0.5,0.3-0.8c0.2-0.2,0.4-0.3,0.6-0.3c0.2,0,0.5,0.1,0.7,0.3l1,0.9c0.2,0.1,0.3,0.3,0.3,0.5
		c0,0.2,0,0.3-0.2,0.5c-0.1,0.1-0.2,0.2-0.3,0.2c-0.1,0-0.3,0.1-0.4,0c0.1,0.2,0.2,0.4,0.4,0.5c0.2,0.1,0.3,0.2,0.5,0.3
		c0.2,0,0.3,0,0.5,0c0.2,0,0.3-0.1,0.5-0.2c0.1-0.1,0.3-0.2,0.4-0.3c0.5-0.6,0.6-1.1,0.4-1.6c0.5,0.2,1-0.1,1.5-0.6
		c0.1-0.1,0.2-0.3,0.3-0.4c0.1-0.2,0.1-0.3,0.1-0.5c0-0.2,0-0.3-0.1-0.5c-0.1-0.2-0.2-0.3-0.3-0.5c-0.2-0.1-0.4-0.2-0.5-0.3
		c0,0.1,0,0.3,0,0.4c0,0.1-0.1,0.3-0.2,0.4c-0.1,0.2-0.3,0.2-0.5,0.2c-0.2,0-0.3-0.1-0.5-0.2l-1.3-1.2l-3.3-2.9
		c-0.2-0.1-0.3-0.3-0.3-0.5c0-0.2,0-0.3,0.2-0.5c0.1-0.1,0.2-0.2,0.3-0.2c0.1,0,0.3-0.1,0.4,0c-0.1-0.2-0.2-0.3-0.4-0.5
		c-0.2-0.1-0.3-0.2-0.5-0.3c-0.2,0-0.3,0-0.5,0c-0.2,0-0.3,0.1-0.4,0.2c-0.1,0.1-0.3,0.2-0.4,0.3C155.2,143,155.1,143.3,155,143.6z
		 M156.9,147.8c0,0.2,0,0.5-0.2,0.7c-0.2,0.2-0.4,0.3-0.5,0.4c-0.2,0.1-0.4,0.1-0.6,0c-0.2,0-0.4-0.1-0.6-0.2
		c-0.2-0.1-0.4-0.3-0.6-0.4c-0.1-0.1-0.3-0.3-0.4-0.4c-0.1-0.2-0.2-0.3-0.2-0.5c0-0.2,0-0.4,0-0.5c0-0.2,0.1-0.4,0.3-0.5
		c0.1-0.2,0.3-0.2,0.5-0.2c0.2,0,0.4,0.1,0.6,0.2L156.9,147.8z"/>
</g>
</svg>
