<?xml version="1.0" encoding="utf-8"?>
<!-- Generator: Adobe Illustrator 16.0.0, SVG Export Plug-In . SVG Version: 6.00 Build 0)  -->
<!DOCTYPE svg PUBLIC "-//W3C//DTD SVG 1.1//EN" "http://www.w3.org/Graphics/SVG/1.1/DTD/svg11.dtd">
<svg version="1.1" id="Layer_1" xmlns="http://www.w3.org/2000/svg" xmlns:xlink="http://www.w3.org/1999/xlink" x="0px" y="0px"
	 width="124px" height="124px" viewBox="0 0 124 124" enable-background="new 0 0 124 124" xml:space="preserve">
<circle fill="#009490" cx="62" cy="62" r="62"/>
<g>
	<path fill-rule="evenodd" clip-rule="evenodd" fill="#FFFFFF" d="M59.58,25.422c1.276,0,2.559,0,3.842,0
		c0.542,0.062,1.083,0.126,1.622,0.185c7.415,0.821,13.984,3.604,19.583,8.542c6.448,5.691,10.327,12.809,11.615,21.32
		c0.161,1.054,0.271,2.117,0.405,3.179c0,1.327,0,2.65,0,3.98c-0.112,0.9-0.209,1.803-0.34,2.703
		c-1.19,8.21-4.744,15.23-10.831,20.87c-7.756,7.19-16.995,10.262-27.503,9.307c-6.885-0.626-13.064-3.18-18.438-7.547
		c-7.113-5.781-11.388-13.219-12.777-22.293c-0.161-1.057-0.271-2.12-0.405-3.177c0-1.281,0-2.564,0-3.844
		c0.047-0.244,0.121-0.484,0.137-0.727c0.434-6.03,2.285-11.598,5.651-16.604c5.838-8.689,13.955-13.881,24.322-15.501
		C57.497,25.653,58.539,25.552,59.58,25.422z M60.884,32.176c-16.049,0.305-29.115,14.264-27.68,30.879
		c1.252,14.53,13.768,26.471,29.361,25.888C78.307,88.356,90.463,75.091,89.88,59.55C89.288,43.675,75.992,31.807,60.884,32.176z"/>
	<path fill-rule="evenodd" clip-rule="evenodd" fill="#FFFFFF" d="M61.555,86.833c-3.445,0.104-6.659-2.877-6.747-6.327
		c-0.018-0.66-0.258-0.929-0.839-1.173c-6.062-2.55-10.06-6.977-11.939-13.286c-0.481-1.62,0.229-3.054,1.713-3.529
		c1.431-0.46,2.887,0.273,3.368,1.871c0.945,3.138,2.604,5.771,5.16,7.833c8.012,6.464,20.362,2.695,23.385-7.14
		c0.084-0.262,0.161-0.525,0.252-0.783c0.521-1.495,1.889-2.213,3.37-1.776c1.385,0.411,2.164,1.862,1.739,3.342
		c-1.827,6.357-5.79,10.84-11.875,13.422c-0.656,0.28-0.932,0.568-0.953,1.312C68.085,83.96,65.097,86.729,61.555,86.833z
		 M57.482,77.692c0,1.007-0.066,1.944,0.011,2.869c0.235,2.778,3.351,4.458,5.825,3.172c1.944-1.013,2.897-3.705,2.122-6.025
		c-1.146,0.147-2.294,0.297-3.522,0.456c0,0.235,0.003,0.455,0,0.678c-0.002,0.867,0.018,1.739-0.024,2.604
		c-0.004,0.167-0.235,0.326-0.36,0.488c-0.152-0.162-0.351-0.304-0.442-0.497c-0.07-0.147-0.014-0.356-0.014-0.539
		c0.002-0.909,0.002-1.816,0.002-2.734C59.847,78.003,58.699,77.854,57.482,77.692z"/>
	<path fill-rule="evenodd" clip-rule="evenodd" fill="#FFFFFF" d="M64.245,52.433c0.014-2.234,1.772-3.994,4.005-4.007
		c2.203-0.014,4.077,1.867,4.048,4.06c-0.028,2.21-1.818,3.982-4.028,3.987C66.013,56.477,64.231,54.689,64.245,52.433z"/>
	<path fill-rule="evenodd" clip-rule="evenodd" fill="#FFFFFF" d="M54.73,56.473c-2.224-0.012-4.04-1.819-4.031-4.012
		c0.011-2.224,1.882-4.072,4.088-4.033c2.235,0.04,3.979,1.82,3.97,4.06C58.743,54.711,56.954,56.485,54.73,56.473z"/>
</g>
</svg>
