<?xml version="1.0" encoding="utf-8"?>
<!-- Generator: Adobe Illustrator 18.0.0, SVG Export Plug-In . SVG Version: 6.00 Build 0)  -->
<!DOCTYPE svg PUBLIC "-//W3C//DTD SVG 1.1//EN" "http://www.w3.org/Graphics/SVG/1.1/DTD/svg11.dtd">
<svg version="1.1" id="Layer_1" xmlns="http://www.w3.org/2000/svg" xmlns:xlink="http://www.w3.org/1999/xlink" x="0px" y="0px"
	 viewBox="0 0 48.1 51.2" enable-background="new 0 0 48.1 51.2" xml:space="preserve">
<g>
	<g>
		<path fill="#009490" d="M30.7,31.5c-0.1,0-0.1,0.1-0.2,0.1c3,1.5,7.8,3,12.4,3.1c1.3-2.2,2.4-4.6,3.2-7.1
			c-4.3,1.8-8.9,2.6-13.8,2.8C31.9,30.8,31.3,31.1,30.7,31.5z"/>
		<path fill="#009490" d="M35.1,28.5c4.4-0.7,9.2-2.4,11.9-4.2c0.7-2.9,1.1-6,1.1-9.1c0-1.3-0.1-2.6-0.2-3.9
			C45.3,18.1,40.8,24.1,35.1,28.5z"/>
		<path fill="#009490" d="M42.1,35.8c-5.1,0-10-1-14.5-2.7c-2.7-1.1-5.2-2.4-7.6-4c0,0,0,0-0.1,0c-9.6-6.5-16.2-17-17.3-29
			C0.9,4.4,0,9.2,0,14.2c0,0.7,0,1.4,0.1,2.1c0,0.5,0.1,1,0.1,1.5c0.1,1.6,0.3,3.1,0.7,4.7c0.1,0.5,0.1,0.3,0.1,0.5
			c2.8,2.9,8.5,6.5,10,7.6c-1.5-0.3-6.9-2.9-9.1-4.4c1.2,4,3.1,7.9,5.6,11.2c1.8,0.8,5.3,2.5,6.5,2.9c-1.6-0.2-3.8-0.8-5.2-1.2
			c4.1,5.2,9.6,9.3,15.8,11.9c0.2,0.1,0.5,0.2,0.7,0.3c1.2-0.5,2.3-1.1,3.4-1.8c5.6-3.3,10.3-8,13.7-13.6
			C42.3,35.8,42.2,35.8,42.1,35.8z"/>
	</g>
</g>
</svg>
