<?xml version="1.0" encoding="utf-8"?>
<!-- Generator: Adobe Illustrator 18.0.0, SVG Export Plug-In . SVG Version: 6.00 Build 0)  -->
<!DOCTYPE svg PUBLIC "-//W3C//DTD SVG 1.1//EN" "http://www.w3.org/Graphics/SVG/1.1/DTD/svg11.dtd">
<svg version="1.1" id="Layer_1" xmlns="http://www.w3.org/2000/svg" xmlns:xlink="http://www.w3.org/1999/xlink" x="0px" y="0px"
	 viewBox="0 0 24 23.6" enable-background="new 0 0 24 23.6" xml:space="preserve">
<g>
	<path fill="#FFFFFF" d="M11.3,15.9l3.2-3.3c-0.6-1-1.5-1.8-2.4-2.4c1.2-1.1,1.9-2.6,1.9-4.3c0-3.3-2.6-5.9-5.9-5.9
		C4.9,0,2.3,2.6,2.3,5.9c0,1.7,0.7,3.2,1.8,4.3C1.6,11.7,0,14.5,0,17.7c0,0.6,0.8,2,1.2,2.6C1.8,21.3,4.4,23,4.4,23h3.4L11.3,15.9
		L11.3,15.9z"/>
	<path fill="#FFFFFF" d="M23.3,12.6c1-1,1-2.5,0-3.5c-1-1-2.5-1-3.5,0l-0.5,0.5l3.5,3.5L23.3,12.6z"/>
	<polygon fill="#FFFFFF" points="21.7,14.1 18.3,10.7 12.2,16.8 15.7,20.2 	"/>
	<polygon fill="#FFFFFF" points="14.7,21.2 11.2,17.7 8.7,23.6 	"/>
</g>
</svg>
