<?xml version="1.0" encoding="utf-8"?>
<!-- Generator: Adobe Illustrator 16.0.3, SVG Export Plug-In . SVG Version: 6.00 Build 0)  -->
<!DOCTYPE svg PUBLIC "-//W3C//DTD SVG 1.1//EN" "http://www.w3.org/Graphics/SVG/1.1/DTD/svg11.dtd">
<svg version="1.1" id="Layer_1" xmlns="http://www.w3.org/2000/svg" xmlns:xlink="http://www.w3.org/1999/xlink" x="0px" y="0px"
	 width="60px" height="60px" viewBox="0 0 60 60" enable-background="new 0 0 60 60" xml:space="preserve">
<path fill="#222944" d="M46.605,3.506l-15.61,15.607L15.391,3.506c-2.009-2.009-5.254-2.009-7.26,0L4.496,7.131
	C2.5,9.134,2.5,12.385,4.503,14.395l15.604,15.604L4.503,45.603C2.5,47.612,2.5,50.864,4.496,52.866l3.635,3.632
	c2.006,2.003,5.251,2.003,7.26,0l15.604-15.61l15.61,15.61c2.002,2.003,5.254,2.003,7.258,0l3.627-3.632
	c2.01-2.002,2.01-5.254,0-7.264L41.887,29.999L57.49,14.395c2.01-2.01,2.01-5.261,0-7.264l-3.627-3.625
	C51.859,1.498,48.607,1.498,46.605,3.506z"/>
</svg>
