<?xml version="1.0" encoding="utf-8"?>
<!-- Generator: Adobe Illustrator 18.0.0, SVG Export Plug-In . SVG Version: 6.00 Build 0)  -->
<!DOCTYPE svg PUBLIC "-//W3C//DTD SVG 1.1//EN" "http://www.w3.org/Graphics/SVG/1.1/DTD/svg11.dtd">
<svg version="1.1" id="Layer_1" xmlns="http://www.w3.org/2000/svg" xmlns:xlink="http://www.w3.org/1999/xlink" x="0px" y="0px"
	 viewBox="0 0 47.6 50" enable-background="new 0 0 47.6 50" xml:space="preserve">
<g>
	<path fill="#FFFFFF" d="M29.5,48.9l0.1,0.2c1-0.2,1.9-0.5,2.9-0.8L32.3,48C31.4,48.4,30.4,48.7,29.5,48.9z"/>
	<path fill="#FFFFFF" d="M15.2,48.3c0.9,0.3,1.9,0.6,2.9,0.8l0.1-0.2c-1-0.2-1.9-0.5-2.9-0.8L15.2,48.3z"/>
	<path fill="#FFFFFF" d="M3.5,25.1c0-0.3,0-0.7,0-0.7s-0.2,0.2-0.3,0.3c-0.2,0.2-0.3,0.4-0.3,0.4s0.2,0.2,0.4,0.3
		c0.2,0.2,0.4,0.3,0.4,0.3s0-0.1,0-0.2C3.5,25.4,3.5,25.3,3.5,25.1z"/>
	<path fill="#FFFFFF" d="M3.5,26.4c0-0.3-0.1-0.7-0.1-0.7s-0.2,0.2-0.3,0.4c-0.2,0.2-0.3,0.4-0.3,0.4s0,0,0.1,0.1
		c0.1,0.1,0.2,0.1,0.3,0.2c0.2,0.1,0.4,0.3,0.4,0.3s0-0.1,0-0.2C3.6,26.8,3.6,26.6,3.5,26.4z"/>
	<path fill="#FFFFFF" d="M3.7,27.5c0-0.1,0-0.2,0-0.2c0-0.1,0-0.2,0-0.2s-0.1,0.2-0.3,0.4c-0.1,0.1-0.1,0.2-0.2,0.3
		C3.1,27.8,3,27.9,3,27.9s0.2,0.1,0.4,0.3c0.2,0.1,0.4,0.3,0.4,0.3s-0.1-0.3-0.1-0.7C3.7,27.7,3.7,27.6,3.7,27.5z"/>
	<path fill="#FFFFFF" d="M4,29.1c0-0.2-0.1-0.3-0.1-0.5c0-0.1,0-0.2,0-0.2s0,0.1-0.1,0.1c0,0.1-0.1,0.2-0.2,0.3
		c-0.1,0.2-0.3,0.4-0.3,0.4s0.2,0.1,0.4,0.3c0.1,0.1,0.2,0.1,0.3,0.2c0.1,0,0.1,0.1,0.1,0.1s0-0.1-0.1-0.2C4.1,29.4,4,29.2,4,29.1z"
		/>
	<path fill="#FFFFFF" d="M43.5,29.5c0,0.1,0,0.2-0.1,0.2c-0.1,0.3-0.2,0.6-0.2,0.6s0.2-0.1,0.4-0.2c0.2-0.1,0.4-0.2,0.4-0.2
		s0-0.1-0.1-0.1c0-0.1-0.1-0.2-0.2-0.3c-0.1-0.2-0.3-0.4-0.3-0.4s0,0.1,0,0.2C43.5,29.3,43.5,29.4,43.5,29.5z"/>
	<path fill="#FFFFFF" d="M43.6,28.9c0,0.1,0,0.2,0,0.2s0.2-0.1,0.4-0.3c0.1-0.1,0.2-0.1,0.3-0.2c0.1-0.1,0.1-0.1,0.1-0.1
		s-0.1-0.2-0.3-0.4c-0.1-0.2-0.3-0.4-0.3-0.4s-0.1,0.3-0.1,0.7C43.7,28.6,43.7,28.7,43.6,28.9z"/>
	<path fill="#FFFFFF" d="M44,26.6c0,0.1,0,0.3-0.1,0.5c0,0.2,0,0.3-0.1,0.5c0,0.1,0,0.2,0,0.2s0,0,0.1-0.1c0.1-0.1,0.2-0.1,0.3-0.2
		c0.2-0.1,0.4-0.3,0.4-0.3s-0.1-0.2-0.3-0.4c-0.1-0.1-0.1-0.2-0.2-0.3c-0.1-0.1-0.1-0.1-0.1-0.1s0,0,0,0.1C44,26.5,44,26.6,44,26.6z
		"/>
	<path fill="#FFFFFF" d="M44.1,25.8c0,0.3-0.1,0.7-0.1,0.7s0.2-0.2,0.4-0.3c0.2-0.2,0.4-0.3,0.4-0.3s-0.2-0.2-0.3-0.4
		c-0.2-0.2-0.3-0.4-0.3-0.4s0,0.1,0,0.2C44.1,25.4,44.1,25.6,44.1,25.8z"/>
	<path fill="#FFFFFF" d="M44.1,25.1c0,0,0.2-0.2,0.4-0.3c0.2-0.2,0.4-0.3,0.4-0.3s-0.2-0.2-0.4-0.3c-0.2-0.2-0.4-0.3-0.4-0.3
		s0,0.3,0,0.7C44.1,24.7,44.1,25.1,44.1,25.1z"/>
	<path fill="#FFFFFF" d="M44.1,23.5c0,0.1,0,0.2,0,0.2s0.2-0.2,0.3-0.4c0.2-0.2,0.3-0.4,0.3-0.4s-0.2-0.2-0.4-0.3
		c-0.2-0.2-0.4-0.3-0.4-0.3s0,0.3,0.1,0.7C44.1,23.2,44.1,23.4,44.1,23.5z"/>
	<path fill="#FFFFFF" d="M44,21.7c0,0.2,0,0.3,0.1,0.5c0,0.1,0,0.1,0,0.2c0,0,0,0.1,0,0.1s0,0,0.1-0.1c0.1-0.1,0.1-0.2,0.2-0.3
		c0.1-0.2,0.3-0.4,0.3-0.4s-0.2-0.1-0.4-0.3c-0.1-0.1-0.2-0.1-0.3-0.2c-0.1-0.1-0.1-0.1-0.1-0.1s0,0.1,0,0.2
		C43.9,21.4,43.9,21.6,44,21.7z"/>
	<path fill="#FFFFFF" d="M43.7,20.4c0.1,0.3,0.1,0.7,0.1,0.7s0.1-0.2,0.3-0.4c0.1-0.2,0.3-0.4,0.3-0.4s0,0-0.1-0.1
		c-0.1,0-0.2-0.1-0.3-0.2c-0.2-0.1-0.4-0.3-0.4-0.3s0,0.1,0,0.2C43.7,20.1,43.7,20.2,43.7,20.4z"/>
	<path fill="#FFFFFF" d="M43.5,19.3c0,0.1,0,0.1,0,0.2c0,0.1,0,0.2,0,0.2s0.1-0.2,0.3-0.4c0.1-0.1,0.1-0.2,0.2-0.3
		c0-0.1,0.1-0.1,0.1-0.1s-0.2-0.1-0.4-0.2c-0.2-0.1-0.4-0.2-0.4-0.2s0.1,0.3,0.2,0.6C43.5,19.2,43.5,19.2,43.5,19.3z"/>
	<path fill="#FFFFFF" d="M43,17.8c0.1,0.2,0.1,0.3,0.1,0.4c0,0.1,0.1,0.2,0.1,0.2s0-0.1,0.1-0.1c0-0.1,0.1-0.2,0.1-0.3
		c0.1-0.2,0.2-0.4,0.2-0.4s-0.2-0.1-0.4-0.2c-0.1-0.1-0.2-0.1-0.3-0.1c-0.1,0-0.1-0.1-0.1-0.1s0,0.1,0.1,0.2
		C42.9,17.5,43,17.6,43,17.8z"/>
	<path fill="#FFFFFF" d="M42.6,16.5c0.1,0.3,0.2,0.6,0.2,0.6s0.1-0.2,0.2-0.4c0.1-0.2,0.2-0.5,0.2-0.5s-0.1,0-0.1-0.1
		c-0.1,0-0.2-0.1-0.3-0.1c-0.2-0.1-0.5-0.2-0.5-0.2s0,0.1,0.1,0.2C42.4,16.2,42.5,16.4,42.6,16.5z"/>
	<path fill="#FFFFFF" d="M42.2,15.7c0.1,0.1,0.1,0.2,0.1,0.2s0.1-0.2,0.2-0.5c0.1-0.2,0.2-0.5,0.2-0.5s-0.2-0.1-0.5-0.2
		c-0.2-0.1-0.5-0.1-0.5-0.1s0.2,0.3,0.3,0.6C42.1,15.5,42.2,15.6,42.2,15.7z"/>
	<path fill="#FFFFFF" d="M41.4,14.1c0.2,0.3,0.3,0.6,0.3,0.6s0-0.1,0-0.1c0-0.1,0.1-0.2,0.1-0.3c0.1-0.2,0.1-0.5,0.1-0.5
		s-0.2-0.1-0.5-0.1c-0.2-0.1-0.5-0.1-0.5-0.1s0,0.1,0.1,0.2C41.2,13.8,41.3,14,41.4,14.1z"/>
	<path fill="#FFFFFF" d="M41,13.6c0,0,0.1-0.2,0.1-0.5c0-0.1,0-0.2,0.1-0.3c0-0.1,0-0.2,0-0.2s-0.2,0-0.5-0.1
		c-0.2,0-0.5-0.1-0.5-0.1s0.2,0.3,0.4,0.5C40.8,13.3,41,13.6,41,13.6z"/>
	<path fill="#FFFFFF" d="M39.9,11.9c0.1,0.1,0.2,0.3,0.3,0.4c0.1,0.1,0.1,0.2,0.1,0.2s0-0.1,0-0.1c0-0.1,0-0.2,0.1-0.3
		c0-0.2,0.1-0.5,0.1-0.5s-0.2,0-0.5-0.1c-0.1,0-0.2,0-0.3,0c-0.1,0-0.2,0-0.2,0s0.1,0.1,0.1,0.2C39.6,11.6,39.7,11.8,39.9,11.9z"/>
	<path fill="#FFFFFF" d="M39,10.9c0.2,0.3,0.4,0.5,0.4,0.5s0-0.2,0-0.5c0-0.2,0-0.5,0-0.5s-0.1,0-0.2,0c-0.1,0-0.2,0-0.3,0
		c-0.2,0-0.5,0-0.5,0s0.1,0.1,0.1,0.2C38.8,10.6,38.9,10.7,39,10.9z"/>
	<path fill="#FFFFFF" d="M38.4,10.2c0.1,0.1,0.1,0.2,0.1,0.2s0-0.2,0-0.5c0-0.2,0-0.5,0-0.5s-0.2,0-0.5,0c-0.2,0-0.5,0-0.5,0
		s0.2,0.2,0.5,0.5C38.2,10,38.3,10.1,38.4,10.2z"/>
	<path fill="#FFFFFF" d="M37.1,9c0.1,0.1,0.3,0.2,0.4,0.3c0,0,0.1,0.1,0.1,0.1c0,0,0,0,0,0s0-0.1,0-0.2c0-0.1,0-0.2,0-0.3
		c0-0.2,0-0.5,0-0.5s-0.2,0-0.5,0c-0.1,0-0.2,0-0.3,0c-0.1,0-0.2,0-0.2,0s0.1,0.1,0.2,0.1C36.8,8.8,36.9,8.9,37.1,9z"/>
	<path fill="#FFFFFF" d="M18.4,4.4C18.2,4.3,18,4.2,18,4.2s-0.1,0.2-0.2,0.4c-0.1,0.1-0.1,0.2-0.2,0.3c0,0.1-0.1,0.1-0.1,0.1
		s0.1,0,0.2-0.1c0.1,0,0.3-0.1,0.4-0.1c0.2,0,0.3-0.1,0.4-0.1c0.1,0,0.2-0.1,0.2-0.1s-0.1,0-0.1-0.1C18.6,4.6,18.5,4.5,18.4,4.4z"/>
	<path fill="#FFFFFF" d="M16.6,4.6c0,0,0,0.1-0.1,0.1c0,0.1-0.1,0.2-0.1,0.3c-0.1,0.2-0.2,0.4-0.2,0.4s0.1,0,0.2-0.1
		c0.1,0,0.3-0.1,0.4-0.2c0.3-0.1,0.6-0.2,0.6-0.2s-0.2-0.1-0.4-0.2C16.9,4.7,16.6,4.6,16.6,4.6z"/>
	<path fill="#FFFFFF" d="M15.5,5.2c-0.1,0-0.1-0.1-0.1-0.1s-0.1,0.2-0.2,0.5C15.1,5.8,15,6,15,6s0.3-0.1,0.6-0.3
		c0.2-0.1,0.3-0.1,0.4-0.2c0.1,0,0.2-0.1,0.2-0.1S16,5.4,15.8,5.3C15.7,5.3,15.6,5.2,15.5,5.2z"/>
	<path fill="#FFFFFF" d="M14.5,5.9c-0.2-0.1-0.5-0.1-0.5-0.1S14,6,13.9,6.2c-0.1,0.2-0.1,0.5-0.1,0.5s0.3-0.2,0.6-0.3
		c0.1-0.1,0.3-0.2,0.4-0.2c0.1,0,0.1-0.1,0.1-0.1c0,0,0.1,0,0.1,0s-0.1,0-0.1,0C14.8,6,14.7,5.9,14.5,5.9z"/>
	<path fill="#FFFFFF" d="M13.8,6.7c0,0-0.2-0.1-0.5-0.1c-0.2-0.1-0.5-0.1-0.5-0.1s-0.1,0.2-0.1,0.5c0,0.2-0.1,0.5-0.1,0.5
		s0.3-0.2,0.6-0.4C13.5,6.8,13.8,6.7,13.8,6.7z"/>
	<path fill="#FFFFFF" d="M12.1,7.8c0.1-0.1,0.3-0.2,0.4-0.3c0.1-0.1,0.2-0.1,0.2-0.1s-0.2-0.1-0.5-0.1c-0.2,0-0.5-0.1-0.5-0.1
		s0,0.2-0.1,0.5c0,0.1,0,0.2-0.1,0.3c0,0.1,0,0.2,0,0.2s0.1-0.1,0.2-0.1C11.8,7.9,12,7.8,12.1,7.8z"/>
	<path fill="#FFFFFF" d="M10.8,8.7c0.1,0,0.1-0.1,0.2-0.2c0.3-0.2,0.5-0.4,0.5-0.4s-0.2,0-0.5-0.1c-0.2,0-0.5-0.1-0.5-0.1
		s0,0.1,0,0.2c0,0.1,0,0.2,0,0.3c0,0.2,0,0.5,0,0.5s0.1-0.1,0.2-0.1C10.7,8.8,10.8,8.8,10.8,8.7z"/>
	<path fill="#FFFFFF" d="M10.4,9.1C10.4,9,10.5,9,10.5,9S10.3,9,10,9c-0.1,0-0.2,0-0.3,0c-0.1,0-0.2,0-0.2,0s0,0.2,0,0.5
		c0,0.2,0,0.5,0,0.5S9.8,9.7,10,9.4C10.1,9.3,10.3,9.2,10.4,9.1z"/>
	<path fill="#FFFFFF" d="M9.1,10.4c0.1-0.1,0.2-0.2,0.3-0.3C9.5,10,9.5,9.9,9.5,9.9s-0.2,0-0.5,0c-0.2,0-0.5,0-0.5,0s0,0.2,0,0.5
		c0,0.1,0,0.2,0,0.3c0,0.1,0,0.2,0,0.2s0.1-0.1,0.1-0.2C8.8,10.6,8.9,10.5,9.1,10.4z"/>
	<path fill="#FFFFFF" d="M8.2,11.4c0.2-0.3,0.4-0.5,0.4-0.5s-0.2,0-0.5,0c-0.2,0-0.5,0-0.5,0s0,0.1,0,0.2c0,0.1,0,0.2,0,0.3
		c0,0.2,0.1,0.5,0.1,0.5s0.1-0.1,0.1-0.2C7.9,11.6,8,11.5,8.2,11.4z"/>
	<path fill="#FFFFFF" d="M7.5,12.2c0-0.1,0.1-0.1,0.1-0.2c0.1-0.1,0.1-0.2,0.1-0.2s-0.2,0-0.5,0.1C7.1,12,7,12,6.9,12
		c-0.1,0-0.1,0-0.1,0s0,0.2,0.1,0.5c0,0.2,0.1,0.5,0.1,0.5s0.2-0.3,0.4-0.5C7.4,12.4,7.4,12.3,7.5,12.2z"/>
	<path fill="#FFFFFF" d="M6.8,13.2c0-0.1,0.1-0.1,0.1-0.1c0,0,0,0,0,0s-0.1,0-0.1,0c-0.1,0-0.2,0-0.3,0.1C6.2,13.1,6,13.2,6,13.2
		s0.1,0.2,0.1,0.5c0.1,0.2,0.1,0.5,0.1,0.5s0.2-0.3,0.3-0.6C6.7,13.4,6.8,13.3,6.8,13.2z"/>
	<path fill="#FFFFFF" d="M6.2,14.1c0,0-0.2,0.1-0.5,0.1c-0.1,0-0.2,0.1-0.3,0.1c-0.1,0-0.1,0-0.1,0s0.1,0.2,0.1,0.5
		c0.1,0.2,0.2,0.5,0.2,0.5s0.2-0.3,0.3-0.6C6.1,14.4,6.2,14.1,6.2,14.1z"/>
	<path fill="#FFFFFF" d="M5.1,16.3c0.1-0.1,0.1-0.3,0.2-0.4c0.1-0.2,0.1-0.3,0.2-0.4c0.1-0.1,0.1-0.2,0.1-0.2s-0.2,0.1-0.5,0.2
		c-0.2,0.1-0.5,0.2-0.5,0.2s0.1,0.2,0.2,0.5c0,0.1,0.1,0.2,0.1,0.3C5,16.5,5,16.5,5,16.5s0,0,0-0.1C5.1,16.5,5.1,16.4,5.1,16.3z"/>
	<path fill="#FFFFFF" d="M4.7,17.4c0-0.1,0.1-0.2,0.1-0.2C4.9,16.9,5,16.5,5,16.5s-0.2,0.1-0.4,0.2c-0.2,0.1-0.4,0.2-0.4,0.2
		s0,0.1,0.1,0.1c0,0.1,0.1,0.2,0.1,0.3c0.1,0.2,0.2,0.4,0.2,0.4s0-0.1,0.1-0.2C4.6,17.5,4.7,17.5,4.7,17.4z"/>
	<path fill="#FFFFFF" d="M4.5,18c0-0.1,0.1-0.2,0.1-0.2S4.3,17.9,4.1,18c-0.1,0.1-0.2,0.1-0.3,0.2c-0.1,0-0.1,0.1-0.1,0.1
		s0.1,0.2,0.2,0.4c0.1,0.2,0.2,0.4,0.2,0.4s0.1-0.3,0.2-0.6C4.4,18.3,4.4,18.1,4.5,18z"/>
	<path fill="#FFFFFF" d="M4,19.7c0-0.2,0.1-0.3,0.1-0.5c0-0.1,0.1-0.2,0.1-0.2s-0.1,0-0.1,0.1c-0.1,0-0.2,0.1-0.3,0.2
		c-0.2,0.1-0.4,0.3-0.4,0.3s0.1,0.2,0.3,0.4c0.1,0.1,0.1,0.2,0.2,0.3c0.1,0.1,0.1,0.1,0.1,0.1s0-0.1,0-0.2C3.9,20.1,3.9,19.9,4,19.7
		z"/>
	<path fill="#FFFFFF" d="M3.7,21.3c0-0.1,0-0.2,0-0.2c0.1-0.3,0.1-0.7,0.1-0.7s-0.2,0.1-0.4,0.3C3.2,20.8,3,20.9,3,20.9
		s0,0.1,0.1,0.1c0.1,0.1,0.1,0.2,0.2,0.3c0.1,0.2,0.3,0.4,0.3,0.4s0-0.1,0-0.2C3.7,21.5,3.7,21.4,3.7,21.3z"/>
	<path fill="#FFFFFF" d="M3.6,21.9c0-0.1,0-0.2,0-0.2S3.4,21.9,3.2,22C3.1,22.1,3,22.2,3,22.2c-0.1,0.1-0.1,0.1-0.1,0.1
		s0.2,0.2,0.3,0.4c0.2,0.2,0.3,0.4,0.3,0.4s0-0.3,0.1-0.7C3.6,22.2,3.6,22.1,3.6,21.9z"/>
	<path fill="#FFFFFF" d="M3.5,23.3c0-0.1,0-0.2,0-0.2s-0.2,0.2-0.4,0.3c-0.2,0.2-0.4,0.3-0.4,0.3s0.2,0.2,0.3,0.4
		c0.2,0.2,0.3,0.3,0.3,0.3s0-0.3,0-0.7C3.5,23.6,3.5,23.4,3.5,23.3z"/>
	<path fill="#FFFFFF" d="M23.5,14.9c0,0.1,0.1,0.2,0.1,0.3c-0.4,0.1-0.8,0.1-1.3,0c-0.7-0.1-1.5-0.1-2.2-0.2c-0.2,0-0.5,0.1-0.7,0.2
		c-0.2,0.1-0.3,0.3-0.1,0.5c0.5,0.4,0.6,0.9,0.7,1.5c0.1,0.4,0.7,0.6,1,0.7c1,0.1,1.7-0.4,2.2-1.3c0.2-0.3,0.3-0.6,0.5-1
		c0.1,0.1,0.1,0.2,0.2,0.3C24.1,15.5,23.9,15.1,23.5,14.9z M21.9,15.6c-0.7-0.1-1.3-0.1-2-0.2C20.6,15.3,21.3,15.4,21.9,15.6z
		 M20.9,17.4c0.3,0,0.5,0,0.8,0C21.5,17.5,21.3,17.5,20.9,17.4z M21.8,17c-0.3,0.1-1.2,0.2-1.5-0.4c-0.1-0.2-0.2-0.4-0.3-0.7
		c0.4,0,0.9,0,1.3,0.1c0.8,0.1,1.5,0.1,2.2-0.2C22.8,16.1,22.5,16.8,21.8,17z"/>
	<path fill="#FFFFFF" d="M28.2,13.9c-0.3-0.4-0.4-0.8,0.5-1.9c-0.5,0.3-1,1-0.9,1.5c0.1,0.6,0.5,1,0.6,1.2
		C28.5,14.4,28.3,14,28.2,13.9z"/>
	<path fill="#FFFFFF" d="M21.1,14.1c0.3,0,0.5,0.1,0.8,0.2c0.2,0,0.8-0.1,0.4-0.8c0.1,0.7-0.5,0.6-1,0.4c-0.4-0.2-0.5-0.1-0.9-0.1
		c0,0-0.1,0,0-0.3c0,0-0.3,0.1-0.2,0.4C20.1,14.1,20.4,13.9,21.1,14.1z"/>
	<path fill="#FFFFFF" d="M14.1,24.5c-2.4-0.5-3,1.4-3,1.4C12.1,24.4,14.1,24.5,14.1,24.5z"/>
	<path fill="#FFFFFF" d="M24.1,10.4c-1.2,0-1.4,0.6-1.4,0.6s0.5-0.6,1.4-0.5c0.8,0.1,1.1,0.3,1.2,0.5c-1.2-0.1-2.1-0.4-2.9,0.9
		c0,0,0.4-0.4,0.9-0.7c0.1,0,0.2-0.1,0.3-0.1c0,0,0,0,0,0c0,0.1,0,0.2,0.1,0.3l0.2-0.1c0-0.1,0-0.1,0-0.2c0,0,0,0,0-0.1
		c0,0,0.1,0,0.1,0c0,0,0,0,0,0.1c0,0.2,0.1,0.3,0.3,0.3c0.2,0,0.3-0.1,0.3-0.3c0,0,0.1,0,0.1,0c0,0.2-0.2,0.4-0.4,0.4
		c-0.1,0-0.2,0-0.2-0.1l-0.2,0.2c0.1,0.1,0.3,0.1,0.4,0.1c0.3,0,0.6-0.3,0.7-0.6c0,0,0,0,0,0c0.6,0.1,0.7,0,0.7,0
		c-0.1,0.7-1.3,0.7-1.3,0.7c1.6,0.1,1.6-0.7,1.6-0.7c0.3-0.1,0.4-0.4,0.4-0.4c-0.2,0-0.3,0-0.5,0C25.7,10.9,25.3,10.4,24.1,10.4z"/>
	<path fill="#FFFFFF" d="M22.6,9.4c0.2,0.4,1.6,0,2.3,0.1c0.7,0,1.2,0.4,1.2,0.4c-0.6-1.3-2.3-0.8-3.1-1C22.7,8.8,22.4,9,22.6,9.4z"
		/>
	<path fill="#FFFFFF" d="M21.5,12c0-0.1,0.2-0.5,0.2-0.8c0-0.2-0.2-0.2-0.2,0.1c0,0.3,0,0.4-0.1,0.7C21.3,12.3,21.4,12.1,21.5,12z"
		/>
	<path fill="#FFFFFF" d="M19.2,32.8c-0.3-0.1-0.6,0.1-0.6,0.4c-0.1,0.3,0.1,0.5,0.4,0.6c0.3,0.1,0.6-0.1,0.6-0.4
		C19.7,33.1,19.5,32.9,19.2,32.8z M19.5,33.3c0,0.2-0.3,0.3-0.5,0.3c0,0,0,0,0,0c0.1,0,0.2-0.1,0.3-0.3c0-0.2-0.1-0.4-0.3-0.4
		c0,0-0.1,0-0.1,0c0.1,0,0.2-0.1,0.3,0C19.4,33,19.6,33.1,19.5,33.3z"/>
	<path fill="#FFFFFF" d="M19.1,34.2c-0.3-0.1-0.6,0.1-0.6,0.4c-0.1,0.3,0.1,0.5,0.4,0.6c0.3,0.1,0.6-0.1,0.6-0.4
		C19.6,34.5,19.4,34.3,19.1,34.2z M19.4,34.7c0,0.2-0.3,0.3-0.5,0.3c0,0,0,0,0,0c0.1,0,0.2-0.1,0.3-0.3c0-0.2-0.1-0.4-0.3-0.4
		c0,0-0.1,0-0.1,0c0.1,0,0.2-0.1,0.3,0C19.3,34.4,19.5,34.6,19.4,34.7z"/>
	<path fill="#FFFFFF" d="M44.3,33.8l-1-2.4c0.2-0.1,0.4-0.2,0.4-0.2s-0.1-0.2-0.2-0.4c-0.1-0.1-0.1-0.2-0.1-0.3
		c0-0.1-0.1-0.1-0.1-0.1s0,0.1-0.1,0.2c0,0.1-0.1,0.2-0.1,0.3l-0.1-0.4c0.6-1.9,0.9-3.9,0.9-6.1c0-6.8-3.4-12.8-8.5-16.4
		C35.5,8,35.6,8,35.8,8C35.8,8,35.9,8.1,36,8.1c0.3,0.2,0.5,0.4,0.5,0.4s0-0.2-0.1-0.5c0-0.2-0.1-0.5-0.1-0.5s-0.1,0-0.1,0
		c-0.1,0-0.2,0-0.3,0.1c-0.2,0-0.5,0.1-0.5,0.1s0.1,0,0.2,0.1c0,0,0.1,0,0.1,0.1c-0.2,0-0.4,0-0.5,0.1h0c-0.2-0.1-0.3-0.2-0.5-0.3
		c0.1,0,0.3-0.1,0.5-0.1c0,0,0,0,0,0c0.1,0.1,0.2,0.1,0.2,0.1s0-0.1,0-0.2c0.1,0,0.2,0,0.3-0.1C36,7.5,36.2,7.4,36,7.4
		c-0.1,0-0.4,0-0.6,0.1c0,0,0-0.1,0-0.1c0,0,0.1-0.1,0.1-0.1c0.1-0.1,0.5-0.2,0.8-0.2c0.3,0,0.7-0.2,0.7-0.2S36.3,6.9,36,7
		c-0.3,0-0.7,0.1-0.4-0.1C35.8,6.7,37,6.1,37,6.1s-0.1,0-0.3,0.1c-0.2,0.1-1,0.5-1.1,0.5c-0.1,0.1-0.3-0.1-0.5-0.1
		c-0.2,0,0.8-0.6,0.8-0.6s-0.7,0.4-0.9,0.5c-0.2,0.2-0.5,0.1-0.4,0C34.6,6.4,35,6,34.8,6.1c-0.1,0-0.3,0.2-0.6,0.4c0,0,0,0,0,0
		c-0.1-0.2-0.1-0.5-0.1-0.5s-0.1,0-0.3,0.1c-0.4-0.9-1.2-1.3-1.2-1.3s-0.3-1.8-1.8-2.9c-1.1-0.8-2.1-0.6-2.1-0.6s-0.2-0.3-0.7-0.4
		c-0.5-0.2-1,0-1,0S26-0.1,24.4,0c-1.9,0.1-2.8,1.6-2.8,1.6s-1.1,0.1-1.7,0.8c-0.6,0.8-0.9,1.6-0.9,2.2c0,0.1-0.1,0.1-0.1,0.1
		s0,0,0,0c0,0.1,0,0.3,0,0.4C10.1,7.2,3.7,15.1,3.7,24.5c0,2.1,0.3,4.1,0.9,6.1l-0.1,0.4c0,0,0,0,0-0.1c0-0.1-0.1-0.3-0.1-0.4
		c-0.1-0.3-0.2-0.6-0.2-0.6S4,29.9,3.9,30.1c-0.1,0.2-0.2,0.4-0.2,0.4s0.1,0,0.1,0.1c0.1,0,0.2,0.1,0.3,0.2c0.1,0.1,0.3,0.1,0.4,0.2
		l-1.1,2.8L0,33.1l0.1,0.3c1.3,3.6,3.5,6.8,6.3,9.4l0.1,0.1l1.2-1.3c0,0.1,0,0.2,0,0.3c0,0.2,0,0.5,0,0.5s0.2,0,0.5,0
		c0.2,0,0.5,0,0.5,0s-0.3-0.2-0.5-0.4c-0.1-0.1-0.3-0.2-0.4-0.3c0,0-0.1,0-0.1-0.1l0,0l-0.1-0.1c0,0,0,0,0,0c0,0-0.3-0.3-0.5-0.5
		c-0.1-0.1-0.2-0.2-0.3-0.3c0,0-0.1-0.1-0.1-0.1c0,0,0,0,0,0s0,0.1,0,0.2c0,0.1,0,0.2,0,0.3c0,0.2,0,0.5,0,0.5s0.2,0,0.5,0
		c0,0,0.1,0,0.1,0l-0.9,1c-1.9-1.8-3.5-3.9-4.7-6.2l2.3,0.5l0,0c1.1,1.7,2.4,3.2,3.8,4.6c4.2,3.8,9.7,6.2,15.9,6.2
		c6.1,0,11.7-2.4,15.9-6.2c1.5-1.4,2.8-2.9,3.8-4.6l0,0l2.3-0.5c-1.2,2.3-2.8,4.4-4.7,6.2l-0.9-1c0,0,0.1,0,0.1,0c0.2,0,0.5,0,0.5,0
		s0-0.2,0-0.5c0-0.1,0-0.2,0-0.3c0-0.1,0-0.2,0-0.2s0,0,0,0c0,0-0.1,0.1-0.1,0.1c-0.1,0.1-0.2,0.2-0.3,0.3c-0.2,0.2-0.4,0.4-0.5,0.5
		c0,0,0,0,0,0l-0.1,0.1l0,0c0,0,0,0-0.1,0.1c-0.1,0.1-0.2,0.2-0.4,0.3c-0.3,0.2-0.5,0.4-0.5,0.4s0.2,0,0.5,0c0.2,0,0.5,0,0.5,0
		s0-0.2,0-0.5c0-0.1,0-0.2,0-0.3l1.2,1.3l0.1-0.1c2.8-2.6,4.9-5.9,6.3-9.4l0.1-0.3L44.3,33.8z M35.6,7.1c0,0-0.1,0-0.2,0.1
		c0-0.1,0-0.2,0-0.2C35.5,7.1,35.6,7.1,35.6,7.1z M40.6,34.7l-0.2-0.1c0.1,0,0.2-0.1,0.4-0.1C40.7,34.5,40.7,34.6,40.6,34.7z
		 M41.9,31.3c0.1,0.1,0.1,0.3,0.2,0.4c-0.1,0.3-0.2,0.5-0.3,0.8c0-0.1-0.1-0.2-0.1-0.4c-0.1-0.2-0.1-0.4-0.2-0.6
		c-0.1-0.2-0.1-0.4-0.2-0.5c-0.1-0.3-0.2-0.5-0.2-0.5s0.2-0.1,0.5-0.3c0.1-0.1,0.3-0.2,0.5-0.3c0.2-0.1,0.4-0.2,0.5-0.3
		c0.1-0.1,0.2-0.1,0.3-0.2c-0.1,0.3-0.2,0.6-0.2,0.9c-0.1,0.1-0.3,0.2-0.4,0.2c-0.3,0.2-0.5,0.3-0.5,0.3S41.8,31,41.9,31.3z
		 M43.5,24.5c0,0.2,0,0.4,0,0.5c-0.1,0.1-0.2,0.2-0.3,0.3c-0.1,0.1-0.2,0.2-0.3,0.3c-0.1,0.1-0.1,0.1-0.1,0.1s0.1,0.2,0.3,0.4
		c0.1,0.1,0.2,0.2,0.3,0.4c0,0.3-0.1,0.5-0.1,0.8c-0.1-0.1-0.1-0.2-0.2-0.3c-0.2-0.4-0.5-0.7-0.7-1c-0.2-0.3-0.3-0.4-0.3-0.4
		s0,0,0.1-0.1c0.1-0.1,0.2-0.2,0.3-0.3c0.2-0.2,0.5-0.5,0.8-0.9c0.1-0.1,0.1-0.2,0.2-0.3C43.5,24.2,43.5,24.4,43.5,24.5z M42.7,18.9
		c0.1,0.3,0.2,0.6,0.2,0.8c-0.1,0.1-0.1,0.3-0.2,0.4c-0.2,0.3-0.3,0.5-0.3,0.5s0,0,0.1,0.1c0.1,0.1,0.2,0.1,0.3,0.2
		c0.1,0.1,0.2,0.2,0.4,0.3c0,0.3,0.1,0.5,0.1,0.8c-0.1-0.1-0.2-0.2-0.3-0.2c-0.3-0.3-0.7-0.6-0.9-0.8c-0.1-0.1-0.2-0.2-0.3-0.2
		c-0.1-0.1-0.1-0.1-0.1-0.1c0,0,0.1-0.2,0.3-0.5c0.1-0.1,0.2-0.3,0.3-0.5c0.1-0.2,0.2-0.4,0.3-0.6C42.6,19,42.6,18.9,42.7,18.9z
		 M40.1,15.8c0-0.1,0.1-0.2,0.1-0.4c0.1-0.3,0.2-0.7,0.2-1.2c0-0.1,0-0.2,0-0.3c0.2,0.2,0.3,0.5,0.4,0.7c0,0.1-0.1,0.3-0.1,0.4
		c0,0.2-0.1,0.3-0.1,0.4c0,0.1,0,0.1,0,0.1s0.2,0.1,0.5,0.2c0.1,0,0.2,0.1,0.4,0.2c0.1,0.2,0.2,0.5,0.3,0.7c-0.1,0-0.2-0.1-0.3-0.1
		c-0.2-0.1-0.4-0.2-0.6-0.3c-0.2-0.1-0.4-0.2-0.5-0.2C40.3,16,40.1,16,40.1,16S40.1,15.9,40.1,15.8z M37.7,10.5c0,0.1,0,0.3,0,0.4
		c0,0.3,0,0.6,0,0.6s0.1,0,0.2,0c0.1,0,0.2,0,0.4,0c0.1,0,0.2,0,0.4,0c0.2,0.2,0.3,0.4,0.5,0.6c-0.1,0-0.2,0-0.2,0
		C38.5,12,38,12,37.7,11.9c-0.2,0-0.3,0-0.4,0c-0.1,0-0.1,0-0.1,0s0-0.2,0-0.5c0-0.3,0-0.8-0.1-1.2c0-0.1,0-0.1,0-0.2
		C37.3,10.1,37.5,10.3,37.7,10.5z M34.8,8.2c0.1,0.1,0.3,0.2,0.4,0.3c-0.1,0-0.1,0-0.2,0c-0.2,0-0.4,0-0.6,0.1c-0.1,0-0.2,0-0.3,0
		c0,0,0-0.1,0-0.1c0.2-0.1,0.2-0.2,0.2-0.2S34.6,8.2,34.8,8.2z M34.2,8.3c0-0.1,0-0.1,0-0.2c0,0,0,0,0,0C34.2,8.1,34.2,8.2,34.2,8.3
		z M34.4,8.1c0,0,0.1,0,0.1-0.1c0,0,0.1,0,0.1,0c0,0,0.1,0.1,0.1,0.1C34.5,8.1,34.4,8.1,34.4,8.1z M34.7,7.6c-0.1,0-0.1-0.1-0.2-0.1
		C34.7,7.6,34.8,7.6,34.7,7.6C34.8,7.6,34.8,7.6,34.7,7.6z M34.5,7.1c0.1,0.1,0.2,0.2,0.4,0.3c0.1,0,0.1,0.1,0.2,0.1
		c-0.1,0-0.1,0-0.2,0c-0.1,0-0.4-0.1-0.4-0.1S34.5,7.3,34.5,7.1z M34.1,6.9C34.2,6.9,34.4,7,34.4,7s0-0.1-0.1-0.3c0,0,0.1,0,0.1,0
		s-0.1,0.1,0,0.3c0,0,0,0,0,0.1c0,0,0,0,0,0s0,0,0,0c0,0.1,0,0.2-0.1,0.3c0,0-0.1,0-0.1-0.1C34.2,7.2,34.1,7.1,34.1,6.9
		C34.1,6.9,34.1,6.9,34.1,6.9C34.1,6.9,34.1,6.9,34.1,6.9z M34.6,9.1c0.2,0,0.4,0,0.6-0.1c0.2,0,0.4,0,0.5,0c0.1,0,0.2,0,0.2,0
		c0.1,0.1,0.2,0.2,0.4,0.3c0,0.1,0,0.1,0,0.2c0,0.2,0.1,0.3,0.1,0.5c0,0.1,0,0.2,0,0.3c0,0.1,0,0.2,0,0.3c0,0.4,0.1,0.8,0.1,1.2
		c0,0.3,0,0.5,0,0.5s0.1,0,0.1,0c0.1,0,0.2,0,0.4,0c0.3,0,0.7,0.1,1.1,0.2c0.4,0.1,0.8,0.2,1.2,0.2c0.1,0,0.2,0,0.3,0.1
		c0.1,0.1,0.2,0.2,0.2,0.3c0,0.1,0,0.2,0,0.3c0,0.3-0.1,0.8-0.2,1.2c-0.1,0.4-0.2,0.8-0.2,1.1c0,0.2-0.1,0.3-0.1,0.4
		c0,0.1,0,0.1,0,0.1s0.2,0.1,0.5,0.2c0.1,0.1,0.3,0.1,0.5,0.2c0.2,0.1,0.4,0.2,0.6,0.3c0.2,0.1,0.4,0.2,0.6,0.3
		c0.2,0.1,0.3,0.2,0.5,0.3c0.1,0.1,0.2,0.1,0.3,0.2c0,0.1,0.1,0.2,0.1,0.3c0,0.1-0.1,0.2-0.1,0.3c-0.1,0.2-0.1,0.3-0.2,0.5
		c-0.1,0.2-0.2,0.4-0.3,0.6c-0.1,0.2-0.2,0.4-0.3,0.6c-0.1,0.2-0.2,0.3-0.3,0.5c-0.2,0.3-0.3,0.4-0.3,0.4s0,0,0.1,0.1
		c0.1,0.1,0.2,0.1,0.3,0.2c0.2,0.2,0.6,0.4,0.9,0.7c0.3,0.3,0.6,0.6,0.9,0.8c0.1,0.1,0.2,0.2,0.3,0.3c0,0.1,0,0.2,0,0.3
		c-0.1,0.1-0.1,0.2-0.2,0.3c-0.2,0.3-0.5,0.6-0.7,0.9c-0.3,0.3-0.6,0.6-0.8,0.8c-0.1,0.1-0.2,0.2-0.3,0.3c-0.1,0.1-0.1,0.1-0.1,0.1
		s0.1,0.2,0.3,0.4c0.2,0.2,0.4,0.6,0.7,0.9c0.2,0.4,0.4,0.7,0.6,1c0.1,0.1,0.1,0.3,0.2,0.3c0,0.1,0,0.1,0,0.2
		c-0.1,0.1-0.2,0.1-0.3,0.2c-0.1,0.1-0.3,0.2-0.4,0.3c-0.2,0.1-0.3,0.2-0.5,0.4c-0.2,0.1-0.4,0.2-0.5,0.3c-0.2,0.1-0.3,0.2-0.5,0.3
		c-0.3,0.2-0.4,0.2-0.4,0.2s0.1,0.2,0.2,0.5c0.1,0.1,0.1,0.3,0.2,0.5c0.1,0.2,0.1,0.4,0.2,0.6c0.1,0.2,0.1,0.4,0.2,0.6
		c0.1,0.2,0.1,0.4,0.1,0.5c0,0.2,0.1,0.3,0.1,0.4c0,0.1-0.1,0.1-0.1,0.2c0,0,0,0,0,0c-0.1,0-0.2,0.1-0.4,0.1
		c-0.3,0.1-0.7,0.2-1.1,0.4l-0.4-0.3c0.4-0.1,0.7-0.2,1-0.3c0.1-0.1,0.3-0.1,0.4-0.1c0.1,0,0.1-0.1,0.1-0.1s0-0.2-0.1-0.5
		c0-0.2-0.1-0.3-0.1-0.5c-0.1-0.2-0.1-0.4-0.2-0.6c-0.1-0.2-0.1-0.4-0.2-0.6c-0.1-0.2-0.1-0.3-0.2-0.5C40,30.5,40,30.3,40,30.3
		c0-0.1,0-0.1,0.1-0.2c0.1,0,0.2-0.1,0.3-0.2c0.1-0.1,0.3-0.2,0.5-0.3c0.2-0.1,0.3-0.2,0.5-0.3c0.2-0.1,0.3-0.2,0.5-0.3
		c0.2-0.1,0.3-0.2,0.4-0.3c0.3-0.2,0.4-0.3,0.4-0.3s0,0-0.1-0.1c0-0.1-0.1-0.2-0.2-0.3c-0.2-0.3-0.4-0.6-0.6-1
		c-0.2-0.3-0.5-0.7-0.6-0.9c-0.1-0.1-0.2-0.2-0.2-0.3c0-0.1,0-0.1,0-0.2c0,0,0,0,0,0c0.1-0.1,0.2-0.1,0.3-0.3
		c0.2-0.2,0.5-0.5,0.8-0.8c0.3-0.3,0.5-0.6,0.7-0.9c0.1-0.1,0.2-0.2,0.2-0.3c0.1-0.1,0.1-0.1,0.1-0.1s-0.1-0.2-0.4-0.4
		c-0.2-0.2-0.5-0.5-0.8-0.8c-0.3-0.3-0.6-0.5-0.9-0.7c-0.1-0.1-0.2-0.2-0.3-0.2c0,0,0,0-0.1,0c0,0,0-0.1,0-0.1
		c0-0.1,0.1-0.2,0.2-0.4c0.1-0.1,0.2-0.3,0.3-0.5c0.1-0.2,0.2-0.4,0.3-0.5c0.1-0.2,0.2-0.4,0.3-0.6c0.1-0.2,0.1-0.3,0.2-0.5
		c0.1-0.3,0.2-0.5,0.2-0.5s-0.2-0.1-0.5-0.3c-0.1-0.1-0.3-0.2-0.5-0.3c-0.2-0.1-0.4-0.2-0.5-0.3c-0.2-0.1-0.4-0.2-0.5-0.2
		c-0.2-0.1-0.3-0.1-0.5-0.2c-0.2-0.1-0.4-0.1-0.4-0.2c0,0,0,0,0,0c0,0,0-0.1,0-0.1c0-0.1,0.1-0.2,0.1-0.4c0.1-0.3,0.2-0.7,0.2-1.1
		c0.1-0.4,0.1-0.8,0.2-1.1c0-0.3,0-0.5,0-0.5s-0.2-0.1-0.5-0.1c-0.3-0.1-0.7-0.2-1.1-0.2c-0.4-0.1-0.8-0.1-1.1-0.2
		c-0.1,0-0.3,0-0.4,0c-0.1,0-0.1,0-0.1,0c0,0,0,0,0,0c0,0,0-0.2,0-0.5c0-0.3,0-0.7-0.1-1.1c0-0.1,0-0.2,0-0.3c0-0.1,0-0.2,0-0.3
		c0-0.2-0.1-0.4-0.1-0.5c0-0.2,0-0.3-0.1-0.4c0-0.1,0-0.1,0-0.1s-0.2,0-0.5,0c-0.2,0-0.3,0-0.5,0c-0.2,0-0.4,0-0.6,0.1
		c-0.2,0-0.3,0-0.4,0c0-0.1,0.1-0.2,0.2-0.4C34.2,9.1,34.4,9.1,34.6,9.1z M8.9,33.3l-0.1,0.1c-0.3-0.1-0.6-0.2-0.9-0.3
		C7.8,33,7.6,33,7.6,33c-0.1,0-0.1-0.1-0.1-0.1s0-0.2,0.1-0.5c0-0.1,0.1-0.3,0.1-0.5c0.1-0.2,0.1-0.4,0.2-0.6c0-0.1,0.1-0.2,0.1-0.2
		c0,0.1,0,0.1,0.1,0.2c0,0,0,0,0,0.1c0,0.2,0,0.3,0,0.5c0,0.1,0,0.3,0,0.4c0,0.2,0.1,0.4,0.1,0.4s0.1,0.1,0.3,0.3
		C8.6,33,8.8,33.1,8.9,33.3z M6.8,28.4c0.1,0.1,0.1,0.2,0.2,0.3c0.1,0.1,0.2,0.2,0.3,0.4c0,0,0,0,0,0c0,0,0,0,0,0.1
		c-0.1,0-0.1-0.1-0.2-0.1c-0.2-0.1-0.3-0.2-0.5-0.3c-0.2-0.1-0.3-0.2-0.4-0.3c-0.3-0.2-0.4-0.3-0.4-0.3s0,0,0.1-0.1
		c0-0.1,0.1-0.2,0.2-0.3c0.2-0.3,0.4-0.6,0.6-0.9c0.1-0.1,0.1-0.1,0.2-0.2c0,0.1,0,0.2,0,0.2c0,0,0,0,0,0c-0.1,0.3-0.1,0.6-0.2,0.8
		c0,0.1,0,0.2,0,0.3c0,0.1,0,0.1,0,0.1S6.6,28.2,6.8,28.4z M6.3,23.4c0,0.1,0,0.2,0.1,0.3c0.1,0.2,0.2,0.5,0.3,0.8c0,0,0,0,0,0
		c0,0,0,0.1,0,0.1c-0.1-0.1-0.1-0.1-0.2-0.2c-0.3-0.3-0.5-0.6-0.7-0.9c-0.1-0.1-0.2-0.2-0.2-0.3c-0.1-0.1-0.1-0.1-0.1-0.1
		s0.1-0.1,0.4-0.4C6,22.6,6.3,22.3,6.6,22c0.1-0.1,0.2-0.1,0.2-0.2c0,0.1,0,0.2,0,0.3c0,0,0,0,0,0c-0.1,0.3-0.3,0.6-0.4,0.8
		c-0.1,0.2-0.2,0.4-0.2,0.4S6.2,23.3,6.3,23.4z M7.2,19c0,0.1,0,0.3,0,0.4c0,0.1,0,0.3,0,0.5c0,0,0,0,0,0c0,0,0,0.1,0,0.1
		c0-0.1-0.1-0.2-0.1-0.3c-0.1-0.2-0.2-0.4-0.3-0.5c-0.1-0.2-0.1-0.3-0.2-0.5c-0.1-0.3-0.2-0.5-0.2-0.5s0.2-0.1,0.5-0.2
		c0.1-0.1,0.3-0.2,0.5-0.2c0.2-0.1,0.3-0.2,0.5-0.3c0.1,0,0.2-0.1,0.3-0.1c0,0.1-0.1,0.2-0.1,0.2c0,0,0,0,0,0
		c-0.1,0.1-0.2,0.2-0.3,0.3c-0.1,0.1-0.2,0.2-0.3,0.3c-0.2,0.2-0.3,0.3-0.3,0.3S7.2,18.7,7.2,19z M8.7,13.8c0,0,0.2,0,0.5-0.1
		c0.3-0.1,0.7-0.1,1.1-0.2c0.1,0,0.2,0,0.4-0.1c-0.1,0.1-0.1,0.1-0.2,0.2c0,0,0,0-0.1,0c-0.3,0.2-0.5,0.3-0.7,0.5
		c-0.2,0.1-0.3,0.2-0.3,0.2s0,0.2-0.1,0.4c-0.1,0.2-0.1,0.5-0.2,0.8c0,0,0,0,0,0.1c0,0,0,0.1-0.1,0.1c0-0.1,0-0.2-0.1-0.3
		c-0.1-0.4-0.1-0.8-0.2-1.1C8.8,14,8.7,13.8,8.7,13.8z M11.9,12.1c0-0.1,0-0.3,0-0.4c0-0.1,0-0.2,0-0.3c0-0.1,0-0.2,0-0.3
		c0-0.2,0-0.4,0.1-0.5c0-0.2,0-0.3,0.1-0.4c0-0.1,0-0.1,0-0.1s0.2,0,0.5,0c0.2,0,0.3,0,0.5,0c0.2,0,0.4,0,0.6,0.1
		c0.1,0,0.3,0,0.4,0.1c-0.1,0-0.1,0.1-0.2,0.1c0,0-0.1,0-0.1,0c-0.2,0-0.3,0.1-0.4,0.1c-0.1,0-0.3,0.1-0.4,0.1
		c-0.2,0.1-0.4,0.1-0.4,0.1s0,0-0.1,0.1c0,0.1-0.1,0.1-0.1,0.2c-0.1,0.1-0.1,0.2-0.2,0.4c0,0.1-0.1,0.1-0.1,0.2
		c0,0.1-0.1,0.1-0.1,0.2c0,0,0,0,0,0.1C12,12,12,12,11.9,12.1z M15.7,9.4c0-0.1,0.1-0.3,0.1-0.4C15.9,8.8,16,8.6,16,8.4
		c0.1-0.2,0.1-0.3,0.2-0.5c0.1-0.3,0.2-0.5,0.2-0.5s0,0,0.1,0c0.1,0,0.2,0.1,0.3,0.1c-0.2,0.3-0.3,0.6-0.4,0.9c0,0,0,0,0,0
		c-0.1,0.1-0.2,0.2-0.3,0.3C16.1,9,16,9.1,15.9,9.2c0,0,0,0.1-0.1,0.1C15.8,9.3,15.7,9.3,15.7,9.4z M18.1,11.1
		c-0.1,0.1-0.1,0.1-0.1,0.2c-0.2,0-0.3,0-0.5,0c0,0,0.2,0.2,0.4,0.3c0,0,0,0.2,0.1,0.3c-0.3,0.4-0.5,0.8-0.6,1.1
		c-0.1-0.2-0.2-0.5-0.1-1.1c0-0.4,0.2-1.1,0.6-1.8C17.9,10.6,18.1,11,18.1,11.1z M17.4,13.6c-0.2,1,0.3,1.7,0.8,2.6
		c0.8,1.4,1.4,2.5,1.4,2.5s0,0.6,0.5,0.9c-0.6,0.1-0.8,0.5-0.8,0.5c-1.1,0-1.4,1-1.4,1c-1.3,0.4-1.3,1.5-1.3,1.5
		c-0.4,0.3-0.6,0.6-0.7,0.9c-0.3,0-0.8,0-1.4,0.3c0,0,0,0,0,0c-2.7-0.8-3.8,1.2-4.4,2.5c-0.3,0.7-0.9,2.4-1.8,4.3
		c-0.7-1.9-1.1-3.9-1.1-6c0-4.5,1.7-8.7,4.9-11.9c1.3-1.3,2.8-2.4,4.4-3.2c-0.1,0.8,0,1.5,0.1,2.1C16.7,12.6,17.2,13.3,17.4,13.6z
		 M21.4,19.9c1,0,2.4-0.6,3.7-1.5c1-0.7,1.7-1.1,2.1-1.5c-0.5,0.9-1,2.3-1.4,3.8c-0.4,1.3-1.2,2.3-1.4,3c-0.2,0.7-0.1,1.2-0.1,1.2
		c0.1,0,0.4-0.9,0.6-1.3c0.9-1.8,1.5-4.4,2.1-5.5c-0.8,3.6,1,4.8,2.4,5.2c0,0,0,0,0,0.1c-0.2,0.1-0.3,0.3-0.3,0.5c0,0,0,0,0,0
		c-0.3,0-0.5,0.2-0.6,0.4c0,0,0,0,0,0c-0.3,0-0.5,0.2-0.6,0.4c-0.1,0-0.1,0-0.2,0c-0.3,0-0.5,0.1-0.6,0.4C27.1,25,27,25,26.9,25
		c-0.3,0-0.5,0.2-0.6,0.4c-0.1-0.1-0.2-0.1-0.4-0.1c-0.3,0-0.5,0.2-0.6,0.4c-0.1-0.1-0.3-0.1-0.4-0.1c-0.3,0-0.5,0.1-0.6,0.4
		c-0.1-0.1-0.3-0.2-0.5-0.2c-0.3,0-0.5,0.1-0.6,0.4c-0.1-0.2-0.3-0.3-0.5-0.3c-0.2,0-0.4,0.1-0.5,0.2c-0.1-0.2-0.3-0.3-0.5-0.3
		c-0.1,0-0.2,0-0.3,0.1c-0.1-0.2-0.3-0.3-0.6-0.3c-0.1,0-0.2,0-0.2,0c-0.1-0.3-0.3-0.5-0.6-0.5c-0.1,0-0.1,0-0.2,0
		c-0.1-0.3-0.3-0.5-0.5-0.5c0-0.2-0.2-0.4-0.3-0.5c0,0,0,0,0,0c0-0.1,0-0.3-0.1-0.4c0,0,0,0,0,0C20.3,23.5,21.6,22,21.4,19.9z
		 M25,4.9c-0.1-0.7-0.1-1,0.1-1c0.1-0.1,0.7,0,1.8,1c1.1,1,1.5,1.8,1.5,1.8c-0.1,0-0.1,0-0.1,0c-0.1,0-0.4,0.4-0.5,0.6
		c-0.1,0.2-0.2,0.4-0.2,0.6c-0.1,0.2-0.3,0.5-0.2,0.9c0,0.3,0.3,0.6,0.6,0.8c0.3,0.2,1,0.4,1.4,0.3c0,0,0,0,0.1,0
		c-0.3,0.1-0.6,0.2-0.9,0.1c-0.2-0.1-0.4-0.3-0.6-0.2c-0.1,0.1-0.2,0.1-0.2,0.2c-0.2-0.5-0.3-0.6-0.3-0.6s0.7,1.3,0.5,1.4
		c-0.2,0.1-0.4-1.5-1.7-2.6c-1.2-1.1-1.7-1.3-1.8-1.8c-0.2-0.5-0.2-1,0.2-0.8C24.9,5.7,26.3,7,26.3,7S25.1,5.6,25,4.9z M28.8,6.7
		c0.1-0.1,0.5-0.3,0.9-0.3c0.4,0,0.5,0.5,0.6,0.5c0,0.1,0.3,0.4,0.1,0.8c-0.3,0.6-0.3,1-0.2,1.1c0,0,0,0,0,0C30,8.9,30,9,29.9,9
		c0-0.3-0.2-1.2-0.4-1.7c0,0,0.2,0.5,0.3,1.2c0,0.3,0.1,0.5,0.1,0.5c0,0-0.1,0.1-0.1,0.1c0,0-0.1-0.1-0.3-0.3
		c-0.2-0.2-0.7-1.2-0.7-1.2c0.5,1.3,0.7,1.4,0.9,1.5c0,0,0,0,0,0c0,0,0,0.1,0,0.1c0,0,0,0.1,0,0.1c0,0,0,0,0,0c0,0-0.5,0.1-0.6,0.1
		c-0.1,0-1.1,0-1.5-0.6c-0.4-0.5,0.1-1,0.1-1.3c0-0.2,0.1-0.5,0.3-0.7c0,0.1,0.1,0.3,0.4,0.5c0,0-0.3-0.2-0.4-0.5
		c0,0,0.1-0.1,0.1-0.1c0.2-0.2,0.4-0.2,0.5-0.2c0.3,0.3,0.6,1,0.6,1C29.1,7.2,28.9,6.9,28.8,6.7z M30,4.6c0.2,0.1,0.2,0.2,0.2,0.2
		s-0.3,0.4-0.3,0.5c0,0.1-0.2,0.1-0.3-0.2c-0.2-0.4,0.1-0.7,0.3-0.9C29.9,4.1,29.8,4.5,30,4.6z M30.9,6.5L30.9,6.5
		c-0.1,0-0.1,0.1-0.2,0.2c-0.1,0.1-0.1,0.2-0.2,0.2c0,0.1-0.3-0.3-0.2-0.5c0.1-0.2,0.4-0.4,0.4-0.7c0,0,0.1,0.3,0,0.7
		C30.8,6.5,30.9,6.5,30.9,6.5z M33.2,8.3L33.2,8.3c0-0.1,0-0.1,0-0.2c0.1-0.1,0.3-0.3,0.5-0.3c0.1,0,0.2,0.1,0.3,0.1
		c0,0.1,0,0.3,0,0.4C33.6,8.4,33.2,8.3,33.2,8.3z M33.9,8.5c0,0.1,0,0.1,0,0.2c-0.2-0.1-0.3-0.2-0.3-0.2S33.7,8.6,33.9,8.5z
		 M33.6,7.8c0,0-0.3,0-0.4,0.2c0,0-0.1-0.1-0.1-0.3c0-0.2,0.4-0.5,0.4-0.5s0,0.2,0.1,0.2C33.7,7.5,33.6,7.8,33.6,7.8z M33.2,8.7
		l0.2,0c0,0,0.2,0.1,0.4,0.2c-0.2,1.1-0.7,1.7-0.7,1.7c0.4-0.4,0.5-0.6,0.5-0.6s0.4,0.9-0.2,1.9c-0.4,0.7-1.9,2.1-1.9,2.1l0.8-0.6
		c0,0,0,1.3-0.8,2.1c-0.8,0.7-1.8,1.2-1.9,0.7C29,14.5,31.2,13,31.2,13c-0.4,0.1-0.8,0.4-1.1,0.7c0.3-0.8,0.8-1.4,0.9-1.6
		c0.3,0,0.4,0,0.7-0.2c0.4-0.2,0.4-0.2,0.6-0.4c0.2-0.2,0.3-0.3,0.3-0.6c0.1-0.2,0.3-0.8,0.4-0.9c0.1-0.2,0-0.4-0.1-0.5
		c-0.1-0.1-0.4-0.3-0.4-0.3s0.5,0,0.6-0.3C33.1,8.8,33.2,8.7,33.2,8.7z M29.8,9.8C29.8,9.8,29.8,9.8,29.8,9.8c0,0.1-0.2,0.5-0.6,0.5
		c0,0,0.4,0.2,0.7-0.4c0,0,0.1,0,0.2,0.1c0,0,0.1,0,0.1,0c0,0-0.1,0.2-0.1,0.4c0,0.2,0.1,0.4,0,0.5c-0.1,0.1-0.5,0.3-0.9-0.2
		c-0.3-0.4-0.4-0.3-0.5-0.4c-0.1,0-0.6-0.1-0.7-0.2c-0.1-0.1-0.4-0.2-0.2-0.4c0.2-0.2,0.4,0.2,0.6,0.2c0.2,0,0.6-0.1,0.8-0.1
		c0.2-0.1,0.3-0.2,0.4-0.2c0,0,0,0,0,0C29.7,9.7,29.7,9.7,29.8,9.8c-0.2,0.1-0.7,0.4-1.5,0.2C28.3,10,29,10.4,29.8,9.8z M30.4,9.2
		c0,0.1,0.1,0.2,0,0.3c0,0.2-0.2,0.4-0.4,0.4c-0.2,0-0.3-0.2-0.3-0.4c0,0.1,0.1,0.3,0.3,0.3c0.2,0,0.4-0.1,0.4-0.3
		C30.5,9.3,30.5,9.2,30.4,9.2z M30.1,11.2c0.1-0.1,0.2-0.3,0.2-0.5v0c0.2,0.3,0.4,0.4,0.4,0.4c-0.4-0.3-0.5-0.8-0.5-1
		c0-0.1,0.1-0.2,0.1-0.2c0,0,0.1,0,0.1-0.1l0,0c0.2,0.6,0.5,0.8,0.6,0.9c0.1,0.1,0.5,0.3,0.5,0.3S31.2,11,31,10.8
		c-0.3-0.3-0.5-0.9-0.5-0.9c0,0,0.1-0.1,0.1-0.1c0.1,0,0.2,0,0.4,0c0.4,0.1,0.9,0.4,0.9,0.4s-0.5-0.4-0.8-0.5
		c-0.2-0.1-0.4-0.1-0.5-0.1c0,0,0,0,0,0c0.1,0,0.2,0,0.3,0c0.1,0,0.6-0.1,0.9-0.2c0.3-0.1,0.6,0,0.7,0c0.1,0,0.4,0.1,0.5,0.3
		c0.1,0.3-0.4,0.6-0.5,1c-0.1,0.3-0.1,0.6-0.6,0.9c-0.2,0.1-0.3,0.1-0.4,0.2c0-0.1-0.1-0.2-0.2-0.3c0,0,0.1,0.1,0.2,0.3
		c0,0-0.1,0-0.1,0c0-0.1-0.1-0.3-0.3-0.4c0,0,0.2,0.2,0.3,0.4c-0.1,0-0.2,0.1-0.2,0.1c-0.2,0-0.4-0.1-0.5-0.1c-0.1,0-0.4,0.2-0.5,0
		C30,11.6,30,11.2,30.1,11.2z M32.9,8.9c-0.2,0.3-0.7,0.3-1.2,0.4c-0.4,0.1-0.6,0.3-0.8,0.3c-0.1,0-0.2,0-0.3,0c0,0,0,0,0,0
		c0-0.1,0-0.1,0-0.2c0.9-0.1,1.6-0.7,1.6-0.7c-0.8,0.6-1.5,0.7-1.6,0.7c0-0.1-0.1-0.1-0.1-0.2l0,0C30.9,8.9,30.9,8,30.9,8
		c-0.2,0.8-0.4,1-0.5,1C30.4,9,30.3,9,30.2,8.9c0,0,0,0,0,0c0-0.1,0.1-0.3,0.1-0.5c0-0.3,0.2-0.6,0.3-0.6c0-0.1,0-0.5,0.1-0.7
		c0.1-0.2,0.3-0.6,0.9-0.5c0.6,0.2,0.8,0.6,0.9,0.8C32.6,7.4,32.9,7.6,33,8C33,8.3,33.1,8.6,32.9,8.9z M30.6,5.6
		c0,0-0.2,0.3-0.3,0.5c0,0.2-0.5-0.2-0.3-0.6c0.1-0.4,0.3-0.5,0.4-0.7c0,0,0,0.4,0.1,0.5C30.6,5.5,30.6,5.6,30.6,5.6z M29.5,4.4
		c-0.2,0-0.3,0-0.3-0.2C29.1,4,28.8,4,28.9,3.6c0,0,0.2,0.2,0.5,0.2c0.4,0,0.4,0.4,0.4,0.4S29.7,4.3,29.5,4.4z M29.1,4.4
		c0.1,0.2,0.5,0.1,0.5,0.1s-0.2,0.2-0.1,0.7c0,0-0.2-0.1-0.4-0.6c0,0-0.2,0.1-0.2,0.4c0,0-0.2-0.5-0.1-1.1C28.8,4,29,4,29.1,4.4z
		 M29.1,4.8c0.1,0.5,0.8,0.5,0.8,0.7C29.8,5.6,29.9,6,29.9,6s-0.1,0-0.3-0.1c-0.1,0-0.3,0.1-0.3,0.1S29.2,6,29,5.6
		C28.8,5,29.1,4.8,29.1,4.8z M29.5,6.1c0.1-0.1,0.6-0.1,0.7,0.4c0,0-0.5-0.3-0.7-0.2c-0.3,0.1-0.3,0-0.3,0S29.4,6.2,29.5,6.1z
		 M27.8,10.1c0,0,0.1,0.2,0.4,0.2c0.3,0,0.5,0,0.6,0.1c0.1,0.1,0.3,0.5,0.6,0.6c0.3,0.1,0.5,0,0.5,0s0,0,0,0c-0.1,0-0.1,0-0.2,0.1
		c-0.1,0-0.3,0-0.4-0.1c-0.2-0.1-0.6-0.4-0.8-0.5c-0.2-0.1-0.4,0-0.6-0.2C27.9,10.3,27.8,10.1,27.8,10.1z M32.1,15.1
		c0.5-0.8,0.5-2,0.5-2s1-0.8,1.3-1.9c0.6,0.4,1.1,0.9,1.7,1.5c3.2,3.2,4.9,7.4,4.9,11.9c0,1.4-0.2,2.8-0.5,4.1
		c-0.1-0.1-0.2-0.3-0.3-0.4c-0.9-1.1-1.9-3.9-3.3-4.3c-0.5-0.1-0.9-0.1-1.1,0c-0.6-0.8-1.8-1.1-1.8-1.1c0,0.1,0,0.1,0,0.2
		c-0.3,0.1-1.1,0.3-2.4,0.2c-0.1,0-0.2,0-0.3,0c-0.1-0.3-0.3-0.5-0.6-0.5c-0.2,0-0.4,0.1-0.5,0.3c-1.6-0.5-3-1.9-2-5.4
		c0.1,0,0.2,0,0.3,0c0.7-0.3,1-0.6,1.2-0.9c0,0,0.1,0,0.1,0C30.5,16.9,31.6,15.9,32.1,15.1z M34,10.2c0.1,0,0.3,0,0.4,0
		c0.2,0,0.4,0,0.5,0c0.3,0,0.5,0,0.5,0s0,0.1,0,0.1c0,0.1,0,0.2,0.1,0.4c0,0.2,0,0.3,0.1,0.5c0,0.1,0,0.2,0,0.3c0,0.1,0,0.2,0,0.3
		c0,0.1,0,0.3,0,0.4c0,0-0.1-0.1-0.1-0.1c0,0,0,0,0-0.1c0-0.1-0.1-0.1-0.1-0.2c0-0.1-0.1-0.1-0.1-0.2c-0.1-0.1-0.1-0.2-0.2-0.4
		C35,11,35,11,35,10.9c0-0.1-0.1-0.1-0.1-0.1s-0.1-0.1-0.4-0.1c-0.1,0-0.2-0.1-0.4-0.1c0,0-0.1,0-0.1,0C34,10.4,34,10.3,34,10.2z
		 M36.9,13.4c0.1,0,0.2,0,0.4,0.1c0.4,0.1,0.8,0.1,1.1,0.2c0.3,0.1,0.5,0.1,0.5,0.1s0,0.2-0.1,0.5c0,0.3-0.1,0.7-0.2,1.1
		c0,0.1,0,0.2-0.1,0.4c0,0,0-0.1-0.1-0.1c0,0,0-0.1,0-0.1c-0.1-0.3-0.1-0.6-0.2-0.8c-0.1-0.2-0.1-0.4-0.1-0.4s-0.1-0.1-0.3-0.2
		c-0.2-0.1-0.5-0.3-0.7-0.5c0,0-0.1,0-0.1,0C37,13.5,36.9,13.4,36.9,13.4z M40.1,18.3c-0.1-0.1-0.2-0.2-0.3-0.3
		c-0.1-0.1-0.2-0.2-0.3-0.3c0,0,0,0-0.1-0.1c0-0.1-0.1-0.2-0.1-0.2c0.1,0,0.2,0.1,0.3,0.1c0.2,0.1,0.4,0.2,0.5,0.3
		c0.2,0.1,0.3,0.2,0.5,0.2c0.3,0.1,0.5,0.2,0.5,0.2s-0.1,0.2-0.2,0.5c-0.1,0.1-0.1,0.3-0.2,0.5c-0.1,0.2-0.2,0.4-0.3,0.5
		c-0.1,0.1-0.1,0.2-0.1,0.3c0,0,0-0.1,0-0.1c0,0,0,0,0-0.1c0-0.2,0-0.3,0-0.5c0-0.1,0-0.3,0-0.4c0-0.2,0-0.4,0-0.4
		S40.3,18.4,40.1,18.3z M41.2,22.9c-0.1-0.2-0.2-0.5-0.4-0.8c0,0,0,0,0,0c0-0.1,0-0.2,0-0.3c0.1,0.1,0.2,0.1,0.2,0.2
		c0.3,0.3,0.6,0.5,0.8,0.7c0.2,0.2,0.4,0.4,0.4,0.4s0,0-0.1,0.1c-0.1,0.1-0.1,0.2-0.2,0.3c-0.2,0.2-0.5,0.6-0.7,0.9
		c-0.1,0.1-0.1,0.1-0.2,0.2c0,0,0-0.1,0-0.1c0,0,0,0,0,0c0.1-0.3,0.2-0.6,0.3-0.8c0-0.1,0.1-0.2,0.1-0.3c0-0.1,0-0.1,0-0.1
		S41.3,23.1,41.2,22.9z M29.7,40.1c0.6-1.5,1.4-3,1.6-3.4c0.3,0.8,0.7,1.5,1.1,2.2C31.5,39.3,30.7,39.7,29.7,40.1z M28.4,37
		c-1.6,0.8-3.4,0.2-3.4,0.2c0.6-0.9,1.5-1.3,2-1.1c0.3,0.2-0.9,0.6-0.9,0.6c0.6,0.1,1.5-0.4,1.1-0.7c-0.6-0.5-1.6,0-2.3,0.8
		c-0.5,0.6-1.5,0.1-1.5,0.1s0.5-0.5,0.6-0.8c0,0-0.7,0.7-1.1,0.8c-1.9,0.1-1.9-1.4-3.3-1.6c0,0,0.6,0.2,0.9,0.6c0,0-2.5,0.3-4.3-1.5
		c0,0,0.1,0.5,0.6,0.8c0,0-0.3,0.4-0.8,0.3c-0.7-0.1-1.2-0.5-1.2-0.5s0.1,0.3-0.3,0.3c-2.8-0.1-3.7-2.9-3.6-4.6
		c0.1-0.6,0.2-1.1,0.4-1.5c0.2,1.9,1.7,2.5,1.7,2.5c-1.1-0.8-1.4-2.2-1.4-2.9c0,0.1,0.6,2,3.2,3c2.5,1,4.5,0.2,4.5,0.2
		s2.2,2.2,6.7,1.8c4.6-0.4,5.3-2.4,5.3-2.4S32.4,35.1,28.4,37z M11.8,28.6C11.8,28.6,11.8,28.6,11.8,28.6c0.2,0.5,1,1.9,3.1,2.8
		c2.5,1,4.5,0.2,4.5,0.2s2.2,2.2,6.7,1.8c2.5-0.2,3.8-0.9,4.5-1.4c-0.7,0.7-2.1,1.5-5,1.7c-4.2,0.3-6.3-1.9-6.3-1.9
		s-1.6,0.8-4.3-0.2C13.1,30.9,12,29.5,11.8,28.6z M30.6,29.6c-0.9-1.2-2-1.3-2-1.3c1.3,0.4,2.1,1.7,2.5,2.8
		c-0.4,0.7-1.6,1.8-5.4,2.1c-3.4,0.2-5.4-1.2-6.1-1.7c0.3-1.3,1.3-3.1,4-3.3c0,0-2.2-0.1-3.5,1.5c-0.1-0.6-0.5-1.1-0.7-1.3
		c0.3-0.5,0.5-1.2,0.3-2.2c0.1,0.1,0.2,0.1,0.3,0.1c0.1,0,0.2,0,0.2,0c0.1,0.3,0.3,0.5,0.6,0.5c0.1,0,0.2,0,0.3-0.1
		c0.1,0.2,0.3,0.3,0.6,0.3c0.2,0,0.4-0.1,0.5-0.2c0.1,0.2,0.3,0.3,0.5,0.3c0.3,0,0.5-0.1,0.6-0.4c0.1,0.2,0.3,0.3,0.5,0.3
		c0.3,0,0.5-0.1,0.6-0.4c0.1,0.1,0.3,0.2,0.5,0.2c0.3,0,0.5-0.2,0.6-0.4c0.1,0.1,0.3,0.1,0.4,0.1c0.3,0,0.5-0.2,0.6-0.4
		c0.1,0.1,0.2,0.1,0.4,0.1c0.3,0,0.5-0.1,0.6-0.4c0.1,0,0.2,0.1,0.3,0.1c0.3,0,0.5-0.2,0.6-0.4c0.1,0,0.1,0,0.2,0
		c0.3,0,0.5-0.2,0.6-0.4c0,0,0,0,0,0c0.3,0,0.6-0.2,0.6-0.5c0,0,0,0,0,0c0.3,0,0.6-0.2,0.6-0.6c0.2-0.1,0.3-0.3,0.3-0.5c0,0,0,0,0,0
		c1.4,0.1,2.3-0.1,2.6-0.2C32.8,25.4,30.5,26.5,30.6,29.6z M16.3,25.3c0.2,0,0.3,0,0.3,0s0.1,0.3,0.1,0.5c0,0.3-0.2,0.5-0.3,0.6
		c0,0-0.1,0-0.1,0c-0.1,0-0.1-0.1-0.1-0.1C16.3,25.9,16.3,25.5,16.3,25.3z M16.7,25.2c0.7-0.4,0.6-1,0.6-1c0.1,0,0.3-0.1,0.4-0.1
		c0,0,0.1,0,0.1,0.1c0,0.2,0.2,0.4,0.3,0.4c0,0,0,0,0,0c0,0.3,0.2,0.6,0.5,0.6c0,0.3,0.3,0.6,0.6,0.6c0.1,0,0.1,0,0.2,0
		c0,0.2,0.1,0.3,0.2,0.4c-0.2,0.3-0.9,1.5-2.2,1.4c0.8-0.1,0.7-1.5-1-1.2C17.1,25.9,16.7,25.2,16.7,25.2z M18.4,23.5
		c0.3,0,0.5,0.2,0.5,0.5c0,0,0,0,0,0c0,0-0.1,0-0.1,0c-0.3,0-0.5,0.2-0.6,0.4c-0.2-0.1-0.3-0.3-0.3-0.4
		C17.9,23.7,18.1,23.5,18.4,23.5z M18.4,23.3c1.3,0,1.4-0.8,1.4-0.8s0.3,0.1,0.7,0c-0.5,0.6-1,0.9-1.5,1c-0.1,0-0.1,0-0.2,0
		C18.7,23.5,18.5,23.4,18.4,23.3C18.4,23.4,18.4,23.4,18.4,23.3C18.4,23.4,18.4,23.3,18.4,23.3z M22.2,26.6
		c-0.1,0.2-0.2,0.3-0.4,0.3c-0.3,0-0.5-0.2-0.5-0.5c0-0.3,0.2-0.5,0.5-0.5c0.2,0,0.4,0.1,0.5,0.3c0,0.1-0.1,0.2-0.1,0.3
		C22.2,26.5,22.2,26.5,22.2,26.6z M21.1,26.4c0,0,0,0.1,0,0.1c-0.1,0.1-0.2,0.1-0.3,0.1c-0.3,0-0.5-0.2-0.5-0.5
		c0-0.3,0.2-0.5,0.5-0.5c0.2,0,0.4,0.1,0.5,0.3C21.2,26,21.1,26.2,21.1,26.4z M20.2,26.1L20.2,26.1c-0.1,0-0.1,0.1-0.2,0.1
		c-0.3,0-0.5-0.2-0.5-0.5c0-0.3,0.2-0.5,0.5-0.5c0.2,0,0.5,0.2,0.5,0.4C20.3,25.7,20.2,25.9,20.2,26.1z M19.4,25.7
		c-0.1,0-0.1,0-0.2,0c-0.3,0-0.5-0.2-0.5-0.5c0-0.3,0.2-0.5,0.5-0.5c0.3,0,0.5,0.2,0.5,0.5C19.6,25.3,19.4,25.5,19.4,25.7z
		 M18.6,25.1c-0.2,0-0.4-0.2-0.4-0.5c0-0.3,0.2-0.5,0.5-0.5c0.3,0,0.5,0.2,0.5,0.5C18.9,24.6,18.7,24.8,18.6,25.1z M17.1,27.1
		c-0.2,0.1-0.8-0.3-0.9-0.4c0,0,0,0,0,0C17.3,26.5,17.3,27,17.1,27.1z M17,28.6L17,28.2l0.5-0.2c-0.5-0.2-1-0.5-1-0.8
		c0,0,0.1,0.1,0.1,0.1c0.2,0.2,1.5,1.4,3-0.3c0,0,0.1,1.7-1.7,2.3c0,0,0.4,0.2,0.7,0.3c0,0-0.5,0.6-1.4,0.4
		c-1.3-0.2-2.2-1.3-1.6-3.3c0.1,0,0.2-0.1,0.2,0c0,0,0,0.1,0,0.1c0,0,0.1,0.1,0.1,0.1C15.9,28.3,17,28.6,17,28.6z M22.3,26.4
		c0-0.3,0.2-0.5,0.5-0.5c0.3,0,0.5,0.2,0.5,0.5c0,0.3-0.2,0.5-0.5,0.5C22.5,26.9,22.3,26.7,22.3,26.4z M23.4,26.2
		c0.1-0.2,0.3-0.4,0.5-0.4c0.3,0,0.5,0.2,0.5,0.5c0,0.3-0.2,0.5-0.5,0.5c-0.2,0-0.4-0.1-0.4-0.3c0,0,0-0.1,0-0.1
		C23.4,26.3,23.4,26.3,23.4,26.2z M24.4,26c0.1-0.2,0.3-0.3,0.5-0.3c0.3,0,0.5,0.2,0.5,0.5c0,0.3-0.2,0.5-0.5,0.5
		c-0.2,0-0.3-0.1-0.4-0.2c0,0,0-0.1,0-0.1C24.5,26.2,24.5,26.1,24.4,26z M29.8,23.5c0.3,0,0.5,0.2,0.5,0.5c0,0.3-0.2,0.5-0.5,0.5
		c0-0.3-0.2-0.5-0.5-0.6C29.3,23.6,29.5,23.5,29.8,23.5z M29.6,23.4c0-0.2,0.2-0.4,0.5-0.4c0.3,0,0.5,0.2,0.5,0.5
		c0,0.2-0.1,0.3-0.2,0.4c-0.1-0.3-0.3-0.5-0.6-0.5C29.7,23.3,29.7,23.4,29.6,23.4z M29.6,24.5c0,0.3-0.2,0.5-0.5,0.5c0,0,0,0,0,0
		c0-0.3-0.2-0.6-0.5-0.6c0.1-0.2,0.3-0.3,0.5-0.3C29.4,24,29.6,24.2,29.6,24.5z M29,24.9c0,0.3-0.2,0.5-0.5,0.5c0,0-0.1,0-0.1,0
		c0,0,0-0.1,0-0.1c0-0.3-0.2-0.5-0.4-0.6c0.1-0.2,0.3-0.3,0.5-0.3C28.7,24.4,29,24.7,29,24.9z M28.2,25.3c0,0.3-0.2,0.5-0.5,0.5
		c-0.1,0-0.1,0-0.2,0c0,0,0-0.1,0-0.1c0-0.2-0.1-0.4-0.3-0.5c0.1-0.2,0.3-0.3,0.5-0.3C28,24.8,28.2,25,28.2,25.3z M27.4,25.6
		c0,0.3-0.2,0.5-0.5,0.5c-0.1,0-0.2,0-0.3-0.1c0,0,0,0,0,0c0-0.2-0.1-0.3-0.2-0.4c0-0.2,0.2-0.4,0.5-0.4
		C27.2,25.1,27.4,25.3,27.4,25.6z M26.4,25.9c0,0.3-0.2,0.5-0.5,0.5c-0.1,0-0.2-0.1-0.3-0.1c0,0,0-0.1,0-0.1c0-0.2-0.1-0.3-0.2-0.4
		c0.1-0.2,0.3-0.4,0.5-0.4C26.2,25.4,26.4,25.6,26.4,25.9z M21.1,20.8c-0.4,0.5-1.3,0.5-1.3,0.5c0.4,0.3,0.9,0.2,1.2,0.1
		c0,0.1-0.1,0.3-0.1,0.4c-0.8,0.7-2.3,0.4-2.3,0.4c0.4,0.3,0.6,0.3,0.6,0.3c0,0.7-1.9,0.6-1.9,0.6c0.3,0.2,0.6,0.2,0.6,0.2
		c0.1,0.7-1.5,0.8-1.5,0.8c0.2,0.1,0.5,0.1,0.5,0.1c0,0.6-0.5,0.9-0.7,1c-0.2-0.6-1.1-0.2-0.4,1.1c-1.2-0.1-1.6,1.4-1.6,1.4l0.3-0.2
		l0.2,0.4c0-0.3,0.2-0.7,0.4-0.9c-0.9,3.2,2.4,4.1,3.7,2.6c0,0-0.2,0-0.5-0.2c0,0,0.6-0.3,1-0.9c0.3,0.5,0.5,1,0.5,1.5
		c-0.2,0.4-0.4,0.8-0.6,1.3c-0.3,0.1-1.8,0.7-4.3-0.2c-2.1-0.8-3-2.2-3.2-2.8c0.5-0.7,1.1-1.2,2.2-1.4c0,0-0.3-0.1-0.7,0.1
		c0.8-0.6,1.3-1.2,1.7-1.8c0,0.5,0.3,1,0.3,1c-0.5-1.1,0.3-1.6,0.3-1.6c0.1,0.2,0.2,0.2,0.2,0.2c-0.2-0.3-0.2-0.6-0.1-0.9
		c0-0.1,0.1-0.2,0.1-0.3c0.2-0.4,0.5-0.7,0.5-0.7c0,0.5,0.2,0.6,0.2,0.6c-0.2-1.9,1.1-2.2,1.1-2.2c-0.1,0.4,0.1,0.9,0.1,0.9
		c-0.1-1.9,1.2-2,1.2-2c-0.1,0.3,0,0.5,0,0.5c0.2-0.8,0.9-0.9,1.4-1c0.2,0,0.4,0.1,0.6,0.1C21.2,20.2,21.2,20.5,21.1,20.8z M8.4,31
		c0.5-0.9,0.8-1.8,1.1-2.7c1.4-4,2.8-5,4.7-4.4c0.4,0.1,0.1,1.3-0.2,1.9c-0.2,0.5-0.6,1-0.8,1.3c-0.4,0.1-0.9,0.4-1.4,1
		c-0.1-0.1-0.3-0.2-0.3-0.1c-0.1,0.2-0.1,0.5,0,0.6c-0.1,0.1-0.2,0.3-0.3,0.5l0,0c-1.1,2.1-0.2,5.5,2.1,6.3c0,0,0,0,0,0
		c0.1,1,0.4,1.8,0.7,2.6c-1.5-1-2.8-2.3-3.8-3.7C9.5,33.3,8.9,32.2,8.4,31z M34.5,37.3c-1.1-1.9-1.5-3.5-1.5-3.5s-0.1,1.4,1.2,3.7
		c-0.5,0.4-1,0.8-1.6,1.1c-1.1-1.7-1.4-3.1-1.5-3.7c0.7-1.4,0.6-2.9,0.2-3.6c0.1-0.2,0.2-0.4,0-0.5c0,0-0.1,0-0.1,0
		c0.2-0.6,0.1-1.9,0.4-2.4c0.5-0.9,1.7-0.5,1.7-0.5c-0.3-1.9,0.5-2.1,0.5-2.1c0.9,0,1.4,0.7,1.4,0.7c-0.4-1-1.4-0.9-1.4-0.9
		s0-1.1,1.2-0.4c0.6,0.3,2.7,2.5,2.7,2.5c-1.6-2.5-3.1-2.9-3.1-2.9s0.4-0.8,1.4-0.6c1.2,0.3,1.9,1.7,2.7,3.1c0.3,0.5,0.7,1,1.1,1.7
		c-0.5,1.9-1.4,3.7-2.6,5.3C36.5,35.4,35.6,36.5,34.5,37.3z M41,28c0-0.1,0-0.2,0-0.3c0-0.2-0.1-0.5-0.2-0.8c0,0,0,0,0,0
		c0-0.1,0-0.2,0-0.2c0.1,0.1,0.1,0.1,0.2,0.2c0.2,0.3,0.4,0.7,0.6,0.9c0.1,0.1,0.1,0.2,0.2,0.3c0,0.1,0.1,0.1,0.1,0.1
		s-0.2,0.1-0.4,0.3c-0.1,0.1-0.3,0.2-0.4,0.3c-0.2,0.1-0.3,0.2-0.5,0.3c-0.1,0-0.1,0.1-0.2,0.1c0,0,0,0,0-0.1c0,0,0,0,0,0
		c0.1-0.1,0.2-0.3,0.3-0.4c0.1-0.1,0.2-0.2,0.2-0.3c0.1-0.2,0.2-0.3,0.2-0.3S41,28,41,28z M39.1,32.9c0.2-0.2,0.3-0.3,0.3-0.3
		s0-0.2,0.1-0.4c0-0.1,0-0.3,0-0.4c0-0.1,0-0.3,0-0.5c0,0,0,0,0-0.1c0-0.1,0-0.1,0.1-0.2c0,0.1,0.1,0.2,0.1,0.2
		c0.1,0.2,0.1,0.4,0.2,0.6c0.1,0.2,0.1,0.4,0.1,0.5c0.1,0.3,0.1,0.5,0.1,0.5s0,0-0.1,0.1c-0.1,0-0.2,0.1-0.3,0.1
		c-0.2,0.1-0.6,0.2-0.9,0.3l-0.1-0.1C38.8,33.1,39,33,39.1,32.9z M33.9,7.9c-0.1-0.1-0.2-0.1-0.2-0.1c0-0.1,0.1-0.1,0.2-0.2
		C33.9,7.7,33.9,7.8,33.9,7.9z M33.8,7c0,0,0,0.1,0,0.1c0,0.1,0,0.2,0,0.3c0,0-0.1,0.1-0.1,0.1c0,0-0.2-0.2-0.1-0.4
		C33.7,7.1,33.8,7,33.8,7z M19.1,5.5c1.5-1.4,3.4-1.4,4.2-1.4c0.7,0,0.6-0.4,0.6-0.4s-1.2,0.2-1.8,0.3c-0.1,0-0.2,0-0.3,0.1
		c0.2-0.3,0.4-0.8,0.3-1.1c0,0-0.3,0.8-0.8,1.2c-0.5,0.1-1.2,0.4-1.9,0.8c0.1-0.5,0.2-1.5,0.9-2.2c1-1.1,2.5-0.7,2.5-0.7
		c-0.3-0.2-0.7-0.3-0.7-0.3s0.9-1.2,2.4-1.3c2.3-0.2,3.5,1.6,3.5,1.6c-0.2-0.5-0.5-0.8-0.5-0.8s0.3-0.2,0.9,0.1c0.7,0.3,1,0.9,1,0.9
		C29.1,1.7,29,1.6,29,1.6s0.9-0.2,1.9,0.7c1.8,1.5,1.5,3.8,1.5,3.8c0.2-0.4,0.2-0.9,0.2-0.9s0.8,0.5,1.1,1.7
		c-0.2,0.2-0.4,0.3-0.4,0.3c-0.1-0.1,0.2-0.7,0.2-0.7L33,7.5c0,0,0,0-0.1-0.1c-0.1-0.1-0.6-0.7-0.8-0.9c-0.2-0.2-0.6-0.3-0.9-0.3
		c0-0.2,0-0.5,0.1-0.6c0.1-0.4,0.1-0.6,0.1-0.6s-0.1,0.5-0.2,0.9c0,0.2-0.2,0.3-0.2,0.3s0-0.4-0.1-0.5c0-0.1,0.1-1,0-1
		c-0.1,0-0.1,0.7-0.2,0.6c-0.1-0.1-0.2-0.5-0.1-0.8c0-0.3-0.1-0.7-0.1-0.6c0,0.1,0.1,0.6,0,0.8c-0.3,0.3-0.2-1-0.2-1.1
		c0-0.2-0.1,0-0.1,0.4c0,0.3-0.2,0-0.2,0s-0.2-0.3-0.2-0.6c-0.1-0.3-0.1-0.4-0.1-0.5c-0.1-0.2,0,0.2,0,0.4c0,0.2,0.1,0.5-0.3,0.4
		c-0.4-0.1-0.6-0.8-0.7-1c-0.1-0.2-0.2,0-0.1,0.2c0.1,0.2,0.4,0.8,0.4,0.9c0,0.1-0.1,0.1-0.2,0.1c-0.1,0-0.2-0.2-0.2-0.2
		s0.1,0.2,0.2,0.3c0.1,0.1,0.2,0.2,0.1,0.4c0,0.2,0.1,0.7,0.1,0.7s-0.1-0.1-0.2-0.2c-0.1-0.1-0.2-0.1-0.2-0.1s0.1,0.1,0.3,0.3
		c0.2,0.2,0.2,0.3,0.2,0.5C28.9,5.8,29,6,29,6s-0.2-0.1-0.2-0.1c-0.1,0-0.2-0.2-0.1,0c0.1,0.1,0.3,0.3,0.5,0.4
		c-0.1,0-0.2,0.1-0.2,0.1c-0.1,0-0.1,0-0.2,0.1c-0.1-0.2-0.6-0.9-1.2-1.6c0.3,0.1,0.6,0,0.8,0c0,0-0.6,0-1.1-0.3
		c-0.4-0.4-0.9-0.8-1.4-1c0.8-0.1,1.5-0.4,1.8-0.8c0,0-2,1-3.4,0.2c0.4-0.3,0.7-0.8,0.7-1.6c0,0-0.4,1.9-2.6,1.9
		c0,0,0.8,0.2,1.5-0.1c0.4,0.2,0.7,0.3,1,0.3c-0.1,0-0.3,0.1-0.4,0.2c0,0-0.1,0.6-0.3,1C24,5.1,23.8,5.5,23.8,6c0,0.4,0.3,0.8,1.7,2
		c1.5,1.1,2.1,3.3,2,4c-0.1,1-0.6,0.4-0.6,0.4s-0.1,0.4,0.3,0.5c0.3,0.1,0.4-0.2,0.6-0.5c0.2-0.2,0.7-0.8,1.1-0.8
		c0.5,0.1,0.4,0.7,0.2,1.6c-0.2,0.9-0.5,2-1.2,2.2c-0.3,0.1-0.2,1-1,1.6c-1,0.8-3.4,2.4-4.8,2.6c-2.3,0.4-2.3-0.9-2.3-1
		c-0.1-0.2-1-1.9-1.5-2.8c-0.5-0.9-1.1-1.8,0.1-3.5c0.2,0.1,0.4,0.2,0.7,0.2c0,0-0.6,0-0.9-0.7c0,0,0.1,0,0.4,0c0,0.1,0,0.2,0.1,0.2
		l0.2-0.1c0,0,0-0.1,0-0.1c0,0,0.1,0,0.1,0c0,0.2,0.1,0.3,0.3,0.3c0.2,0,0.3-0.1,0.3-0.3c0,0,0,0,0-0.1c0,0,0.1,0,0.1,0
		c0,0,0,0,0,0.1c0,0.2-0.2,0.4-0.4,0.4c-0.1,0-0.2,0-0.2-0.1l-0.1,0.2c0.1,0.1,0.2,0.1,0.4,0.1c0.3,0,0.6-0.3,0.6-0.6c0,0,0,0,0,0
		c0.2,0.1,0.5,0.4,0.5,0.4c-0.6-1.1-1.2-0.8-2-0.7c0-0.1,0.2-0.3,0.8-0.4c0.7-0.1,1.2,0.4,1.2,0.4s-0.3-0.5-1.2-0.5
		c-0.3,0-0.5,0.1-0.7,0.2c-0.1-0.5-0.2-0.8-0.2-1c0.9-0.5,2-0.1,2.2-0.5C20.5,9,20.3,9,20,9c-0.7,0-1.2,0.2-1.5,0.5
		c0.6-0.8,1.5-1.7,2.8-2.3c2.9-1.5,3.2-3.4,3.2-3.4c-0.7,1-2.5,0.6-3.4,1.8c0,0,0.7-0.5,1.3-0.4c0,0-0.9,0.5-1.2,1.2
		c0,0,1.4-1.1,2.4-1.1c0,0-1.3,1.1-2.7,1.8c-2.4,1.2-3,2.9-3,2.9S17.6,9.3,18,8.5c0.4-0.8,1.5-2,1.5-2s-1.2,0.9-1.8,1.9
		c-0.8,1.5-0.8,2.7-0.8,2.7s-0.3-0.8-0.1-1.8C17.1,8.3,17.6,6.9,19.1,5.5z M17.9,5.7c0.1,0,0.2,0.1,0.3,0.1
		c-0.1,0.1-0.2,0.3-0.4,0.4c-0.2-0.1-0.3-0.1-0.5-0.2c-0.1,0-0.1,0-0.2-0.1C17.4,5.8,17.6,5.8,17.9,5.7z M13,8c0.1,0,0.2,0,0.3,0.1
		c0.3,0.1,0.5,0.1,0.5,0.1s0-0.1,0-0.1c0-0.1,0.1-0.2,0.1-0.4c0-0.1,0.1-0.2,0.1-0.3c0.2-0.1,0.5-0.3,0.7-0.4c0,0.1,0,0.1-0.1,0.2
		c-0.2,0.4-0.3,0.8-0.4,1.1c0,0.2-0.1,0.3-0.1,0.4c0,0.1,0,0.1,0,0.1s-0.2,0-0.5-0.1c-0.2,0-0.3-0.1-0.6-0.1c-0.2,0-0.4-0.1-0.6-0.1
		c-0.1,0-0.1,0-0.2,0C12.6,8.3,12.8,8.1,13,8z M9,11.5c0.1,0,0.3,0,0.4,0c0.2,0,0.3,0,0.4,0c0.1,0,0.2,0,0.2,0s0-0.2,0-0.6
		c0-0.1,0-0.2,0-0.4c0.2-0.2,0.4-0.4,0.6-0.6c0,0.1,0,0.1,0,0.2c0,0.4-0.1,0.9-0.1,1.2c0,0.3,0,0.5,0,0.5s-0.1,0-0.1,0
		c-0.1,0-0.2,0-0.4,0c-0.3,0-0.8,0.1-1.2,0.2c-0.1,0-0.2,0-0.2,0C8.6,11.9,8.8,11.7,9,11.5z M6,16c0.1-0.1,0.3-0.1,0.4-0.2
		c0.3-0.1,0.5-0.2,0.5-0.2s0-0.1,0-0.1c0-0.1-0.1-0.2-0.1-0.4c0-0.1-0.1-0.2-0.1-0.4C6.8,14.5,7,14.2,7.1,14c0,0.1,0,0.2,0,0.3
		c0.1,0.4,0.2,0.9,0.2,1.2c0,0.2,0.1,0.3,0.1,0.4c0,0.1,0,0.1,0,0.1S7.3,16,7,16.1c-0.2,0.1-0.3,0.1-0.5,0.2
		c-0.2,0.1-0.4,0.2-0.6,0.3c-0.1,0-0.2,0.1-0.3,0.1C5.8,16.5,5.9,16.3,6,16z M4.4,21.2c0.1-0.1,0.2-0.2,0.4-0.3
		C4.8,20.8,5,20.7,5,20.6c0.1-0.1,0.1-0.1,0.1-0.1S5,20.4,4.9,20.1c-0.1-0.1-0.1-0.2-0.2-0.4c0.1-0.3,0.1-0.6,0.2-0.8
		C4.9,18.9,5,19,5,19.1c0.1,0.2,0.2,0.4,0.3,0.6c0.1,0.2,0.2,0.4,0.3,0.5c0.2,0.3,0.3,0.5,0.3,0.5s0,0-0.1,0.1
		c-0.1,0.1-0.2,0.1-0.3,0.2c-0.3,0.2-0.6,0.5-0.9,0.8c-0.1,0.1-0.2,0.1-0.3,0.2C4.3,21.7,4.3,21.4,4.4,21.2z M4.2,26.6
		c0.1-0.1,0.2-0.3,0.3-0.4c0.2-0.3,0.3-0.4,0.3-0.4s0,0-0.1-0.1c-0.1-0.1-0.2-0.2-0.3-0.3c-0.1-0.1-0.2-0.2-0.3-0.3
		c0-0.2,0-0.4,0-0.5c0-0.1,0-0.2,0-0.3c0.1,0.1,0.1,0.2,0.2,0.3c0.3,0.3,0.6,0.7,0.8,0.9c0.1,0.1,0.2,0.2,0.3,0.3
		c0.1,0.1,0.1,0.1,0.1,0.1s-0.1,0.2-0.3,0.4c-0.2,0.3-0.4,0.6-0.7,1c-0.1,0.1-0.1,0.2-0.2,0.3C4.2,27.1,4.2,26.8,4.2,26.6z
		 M4.5,28.5c0-0.1,0-0.1,0-0.2c0-0.1,0.1-0.2,0.2-0.3c0.2-0.3,0.4-0.7,0.6-1c0.2-0.4,0.5-0.7,0.7-0.9c0.2-0.2,0.3-0.4,0.3-0.4
		s0,0-0.1-0.1c-0.1-0.1-0.2-0.2-0.3-0.3c-0.2-0.2-0.5-0.5-0.8-0.8c-0.3-0.3-0.5-0.7-0.7-0.9c-0.1-0.1-0.2-0.2-0.2-0.3
		c0-0.1,0-0.2,0-0.3c0.1-0.1,0.2-0.2,0.3-0.3c0.2-0.2,0.5-0.5,0.9-0.8c0.3-0.3,0.6-0.5,0.9-0.7c0.1-0.1,0.2-0.2,0.3-0.2
		c0.1-0.1,0.1-0.1,0.1-0.1s-0.1-0.2-0.3-0.4c-0.1-0.1-0.2-0.3-0.3-0.5c-0.1-0.2-0.2-0.4-0.3-0.6c-0.1-0.2-0.2-0.4-0.3-0.6
		c-0.1-0.2-0.1-0.4-0.2-0.5c0-0.1-0.1-0.2-0.1-0.3c0-0.1,0.1-0.2,0.1-0.3c0.1,0,0.2-0.1,0.3-0.2c0.1-0.1,0.3-0.2,0.5-0.3
		c0.2-0.1,0.4-0.2,0.6-0.3c0.2-0.1,0.4-0.2,0.6-0.3c0.2-0.1,0.3-0.1,0.5-0.2c0.3-0.1,0.5-0.2,0.5-0.2s0-0.1,0-0.1
		c0-0.1-0.1-0.2-0.1-0.4c-0.1-0.3-0.2-0.7-0.2-1.1c-0.1-0.4-0.1-0.8-0.2-1.2c0-0.1,0-0.2,0-0.3c0.1-0.1,0.2-0.2,0.2-0.3
		c0.1,0,0.2,0,0.3-0.1c0.3-0.1,0.7-0.2,1.2-0.2c0.4-0.1,0.8-0.1,1.1-0.2c0.2,0,0.3,0,0.4,0c0.1,0,0.1,0,0.1,0s0-0.2,0-0.5
		c0-0.3,0-0.7,0.1-1.2c0-0.1,0-0.2,0-0.3c0-0.1,0-0.2,0-0.3c0-0.2,0.1-0.4,0.1-0.5c0-0.1,0-0.2,0-0.2c0.1-0.1,0.2-0.2,0.4-0.3
		c0.1,0,0.1,0,0.2,0c0.2,0,0.3,0,0.5,0c0.2,0,0.4,0,0.6,0.1c0.2,0,0.4,0,0.6,0.1c0.2,0,0.4,0.1,0.5,0.1c0.3,0.1,0.5,0.1,0.5,0.1
		s0,0,0-0.1c0-0.1,0.1-0.2,0.1-0.4c0.1-0.3,0.2-0.7,0.4-1.1c0.1-0.2,0.2-0.4,0.2-0.6c0.1-0.2,0.2-0.4,0.2-0.5c0-0.1,0.1-0.1,0.1-0.2
		c0.2-0.1,0.3-0.1,0.5-0.2c0.1,0,0.1,0,0.2,0.1c0.2,0.1,0.3,0.1,0.5,0.2c0.2,0.1,0.3,0.1,0.5,0.2c-0.1,0.1-0.2,0.2-0.2,0.4
		c0,0,0,0-0.1,0C17,7,16.8,6.9,16.6,6.9c-0.2-0.1-0.3-0.1-0.4-0.1c-0.1,0-0.1,0-0.1,0S16,6.9,15.9,7.2c-0.1,0.1-0.1,0.3-0.2,0.5
		c-0.1,0.2-0.2,0.4-0.2,0.6c-0.2,0.4-0.3,0.8-0.4,1.1c0,0.1-0.1,0.3-0.1,0.3c0,0.1,0,0.1,0,0.1s-0.2,0-0.5-0.1
		c-0.1,0-0.3-0.1-0.5-0.1c-0.2,0-0.4,0-0.6-0.1c-0.2,0-0.4,0-0.6-0.1c-0.2,0-0.4,0-0.5,0c-0.3,0-0.5,0-0.5,0s0,0.1,0,0.1
		c0,0.1,0,0.2-0.1,0.4c0,0.2-0.1,0.3-0.1,0.5c0,0.1,0,0.2,0,0.3c0,0.1,0,0.2,0,0.3c0,0.4-0.1,0.8-0.1,1.1c0,0.3,0,0.4,0,0.5
		c0,0,0,0,0,0c0,0-0.1,0-0.1,0c-0.1,0-0.2,0-0.4,0c-0.3,0-0.7,0.1-1.1,0.2c-0.4,0.1-0.8,0.2-1.1,0.2c-0.3,0.1-0.5,0.1-0.5,0.1
		s0,0.2,0,0.5c0,0.3,0.1,0.7,0.2,1.1c0.1,0.4,0.2,0.8,0.2,1.1c0,0.1,0.1,0.3,0.1,0.4c0,0,0,0.1,0,0.1c0,0,0,0,0,0.1
		c-0.1,0-0.2,0.1-0.4,0.2c-0.1,0.1-0.3,0.1-0.5,0.2c-0.2,0.1-0.4,0.2-0.5,0.2c-0.2,0.1-0.4,0.2-0.5,0.3c-0.2,0.1-0.3,0.2-0.5,0.3
		c-0.3,0.2-0.5,0.3-0.5,0.3s0.1,0.2,0.2,0.5C5.9,18.6,6,18.8,6,18.9c0.1,0.2,0.2,0.4,0.3,0.6c0.1,0.2,0.2,0.4,0.3,0.5
		c0.1,0.2,0.2,0.3,0.2,0.5C6.9,20.6,7,20.8,7,20.9c0,0,0,0.1,0,0.1c0,0,0,0,0,0c-0.1,0.1-0.2,0.1-0.3,0.2c-0.2,0.2-0.6,0.4-0.9,0.7
		c-0.3,0.3-0.6,0.6-0.8,0.8c-0.2,0.2-0.4,0.4-0.4,0.4s0,0,0.1,0.1c0.1,0.1,0.1,0.2,0.2,0.3c0.2,0.3,0.5,0.6,0.7,0.9
		c0.3,0.3,0.6,0.6,0.8,0.8c0.1,0.1,0.2,0.2,0.3,0.3c0,0,0,0,0,0c0,0.1,0,0.1,0,0.2c-0.1,0.1-0.1,0.2-0.2,0.3
		c-0.2,0.2-0.4,0.6-0.6,0.9c-0.2,0.3-0.4,0.7-0.6,1C5.1,28,5,28.1,5,28.2c0,0.1-0.1,0.1-0.1,0.1s0.2,0.1,0.4,0.3
		c0.1,0.1,0.3,0.2,0.4,0.3c0.2,0.1,0.3,0.2,0.5,0.3c0.2,0.1,0.3,0.2,0.5,0.3c0.2,0.1,0.3,0.2,0.4,0.3C7.4,30,7.5,30,7.6,30.1
		c0,0.1,0,0.1,0.1,0.2c0,0.1-0.1,0.2-0.1,0.3c-0.1,0.1-0.1,0.3-0.2,0.5c-0.1,0.2-0.1,0.4-0.2,0.6c-0.1,0.2-0.1,0.4-0.2,0.6
		c-0.1,0.2-0.1,0.4-0.1,0.5c-0.1,0.3-0.1,0.5-0.1,0.5s0,0,0.1,0.1c0.1,0,0.2,0.1,0.4,0.1c0.3,0.1,0.6,0.2,1,0.3l-0.4,0.3
		c-0.4-0.1-0.8-0.3-1-0.4c-0.2-0.1-0.3-0.1-0.4-0.1c0,0,0,0,0,0c0-0.1-0.1-0.1-0.1-0.2c0-0.1,0.1-0.2,0.1-0.4c0-0.2,0.1-0.3,0.1-0.5
		c0.1-0.2,0.1-0.4,0.2-0.6c0.1-0.2,0.1-0.4,0.2-0.6C6.9,31.1,7,30.9,7,30.8c0.1-0.3,0.2-0.5,0.2-0.5S7,30.2,6.8,30.1
		c-0.1-0.1-0.3-0.2-0.5-0.3c-0.2-0.1-0.3-0.2-0.5-0.3c-0.2-0.1-0.4-0.2-0.5-0.4c-0.2-0.1-0.3-0.2-0.4-0.3
		C4.7,28.7,4.6,28.6,4.5,28.5z M6.8,34.4c0.1,0,0.2,0.1,0.4,0.1l0,0l-0.2,0.1C6.9,34.6,6.8,34.5,6.8,34.4z M5.4,30.6
		c-0.1-0.1-0.3-0.1-0.4-0.2c-0.1-0.3-0.2-0.6-0.2-0.9c0.1,0.1,0.2,0.1,0.3,0.2c0.2,0.1,0.4,0.2,0.5,0.3c0.2,0.1,0.3,0.2,0.5,0.3
		c0.3,0.2,0.5,0.3,0.5,0.3s-0.1,0.2-0.2,0.5c-0.1,0.1-0.1,0.3-0.2,0.5C6.1,31.8,6,32,5.9,32.2c0,0.1-0.1,0.2-0.1,0.4
		c-0.1-0.3-0.2-0.5-0.3-0.8c0.1-0.2,0.1-0.3,0.2-0.4c0.1-0.3,0.2-0.5,0.2-0.5S5.7,30.7,5.4,30.6z M0.6,33.5l3,0.7l1.3-3.1
		c0.1,0.1,0.1,0.3,0.2,0.4l-1.3,3l-3-0.6C0.7,33.8,0.6,33.7,0.6,33.5z M1.4,35.3c-0.1-0.3-0.3-0.6-0.4-0.8L4,35.2l1.2-2.9
		c0.1,0.3,0.2,0.5,0.4,0.8l-1.2,3L1.4,35.3z M6.1,33.9c0.2,0.3,0.4,0.7,0.6,1l-1.4,1L6.1,33.9z M35,44.2c-3.4,1.9-7.3,2.9-11.3,2.9
		c-3.9,0-7.8-1-11.3-2.9c-3.2-1.8-6-4.3-8-7.4l4.7-3.3c0.2,0.4,0.5,0.8,0.8,1.1c0,0,0.1,0.1,0.1,0.1c0,0,0,0.1,0.1,0.1
		c0.5,0.6,1,1.2,1.5,1.7c3.2,3.2,7.5,5,12.1,5c4.6,0,8.9-1.8,12.1-5c0.5-0.5,1-1.1,1.5-1.7c0.1-0.1,0.1-0.1,0.2-0.2c0,0,0,0,0,0
		c0.3-0.4,0.5-0.7,0.8-1.1l4.7,3.3C41,39.9,38.3,42.4,35,44.2z M40.9,34.9c0.2-0.3,0.4-0.7,0.6-1l0.8,2L40.9,34.9z M46.2,35.3
		l-3,0.7L42,33c0.1-0.3,0.2-0.5,0.4-0.8l1.2,2.9l3.1-0.7C46.5,34.8,46.4,35.1,46.2,35.3z M46.9,33.9l-3,0.6l-1.3-3
		c0.1-0.1,0.1-0.3,0.2-0.4l1.3,3.1l3-0.7C47,33.7,46.9,33.8,46.9,33.9z"/>
	<polygon fill="#FFFFFF" points="19.1,49.5 19.8,49.7 19.9,49.5 19.3,49.4 19.3,49.2 19.8,49.3 19.9,49.1 19.4,49 19.4,48.8 
		19.9,48.9 20,48.8 19.2,48.6 	"/>
	<polygon fill="#FFFFFF" points="20.3,49 20.6,49 20.5,49.8 20.7,49.8 20.8,49 21.2,49.1 21.2,48.9 20.3,48.8 	"/>
	<polygon fill="#FFFFFF" points="22.1,49.3 21.7,49.3 21.8,49 21.5,48.9 21.5,49.9 21.7,49.9 21.7,49.5 22.1,49.5 22.1,49.9 
		22.3,49.9 22.4,49 22.2,49 	"/>
	<path fill="#FFFFFF" d="M23.3,49c-0.1,0-0.5,0-0.5,0.5c0,0.4,0.4,0.5,0.5,0.5c0.1,0,0.5,0,0.5-0.5C23.8,49.1,23.4,49,23.3,49z
		 M23.3,49.8c-0.1,0-0.3-0.1-0.3-0.3c0-0.3,0.2-0.3,0.3-0.3c0.1,0,0.3,0.1,0.3,0.3C23.6,49.8,23.4,49.8,23.3,49.8z"/>
	<rect x="24.2" y="49.6" fill="#FFFFFF" width="0.4" height="0.1"/>
	<polygon fill="#FFFFFF" points="25,49 25.1,50 25.3,49.9 25.2,49.2 25.6,49.1 25.7,49.9 25.9,49.9 25.8,49 	"/>
	<path fill="#FFFFFF" d="M26.6,48.9l-0.3,1l0.2,0l0.1-0.2l0.4,0l0.1,0.2l0.2,0l-0.5-0.9L26.6,48.9z M26.6,49.5l0.1-0.4h0l0.2,0.3
		L26.6,49.5z"/>
	<path fill="#FFFFFF" d="M28.1,49l-0.3,0l0-0.2l0.5-0.1l0-0.2l-0.8,0.1l0.2,0.9l0.5-0.1c0.2,0,0.3-0.2,0.3-0.3
		C28.5,49.1,28.3,49,28.1,49z M28.2,49.4l-0.2,0l0-0.3l0.2,0c0.1,0,0.2,0,0.2,0.1C28.3,49.4,28.3,49.4,28.2,49.4z"/>
	<path fill="#FFFFFF" d="M4.1,37.8C4.1,38,4,38.2,4,38.2s0.2,0,0.5,0.1c0.2,0,0.5,0.1,0.5,0.1l-0.8-1.1C4.2,37.3,4.2,37.5,4.1,37.8z
		"/>
	<path fill="#FFFFFF" d="M5.1,38.6c0-0.1-0.1-0.1-0.1-0.1c0,0,0,0,0,0s0,0.1,0,0.1c0,0.1,0,0.2,0,0.3c0,0.2-0.1,0.5-0.1,0.5
		s0.2,0,0.5,0.1c0.2,0,0.5,0.1,0.5,0.1s-0.2-0.3-0.4-0.5C5.3,38.8,5.2,38.7,5.1,38.6z"/>
	<path fill="#FFFFFF" d="M6,39.6c-0.1-0.1-0.1-0.2-0.1-0.2s0,0.1,0,0.2c0,0.1,0,0.2,0,0.3c0,0.2,0,0.5,0,0.5s0.2,0,0.5,0
		c0.2,0,0.5,0,0.5,0S6.5,40.2,6.3,40C6.2,39.9,6,39.7,6,39.6z"/>
	<path fill="#FFFFFF" d="M8.8,42.8c0,0.2,0.1,0.5,0.1,0.5s0.2,0,0.5-0.1c0.2,0,0.5-0.1,0.5-0.1S9.5,43,9.2,42.8
		c-0.1-0.1-0.3-0.2-0.4-0.3c-0.1-0.1-0.2-0.1-0.2-0.1s0,0.1,0,0.2C8.7,42.6,8.7,42.7,8.8,42.8z"/>
	<path fill="#FFFFFF" d="M9.9,43.7c0,0.2,0.1,0.5,0.1,0.5s0.2,0,0.5-0.1c0.2,0,0.5-0.1,0.5-0.1s-0.3-0.2-0.6-0.4
		c-0.1-0.1-0.3-0.2-0.4-0.3c-0.1-0.1-0.2-0.1-0.2-0.1s0,0.1,0,0.2C9.8,43.4,9.8,43.6,9.9,43.7z"/>
	<path fill="#FFFFFF" d="M11.1,44.9c0,0,0.2-0.1,0.5-0.1c0.2-0.1,0.5-0.1,0.5-0.1s-0.3-0.2-0.6-0.3c-0.1-0.1-0.3-0.2-0.4-0.2
		C11,44,10.9,44,10.9,44s0,0.2,0.1,0.5C11.1,44.7,11.1,44.9,11.1,44.9z"/>
	<path fill="#FFFFFF" d="M12.3,45.5c0,0.1,0,0.1,0,0.1s0.2-0.1,0.5-0.1c0.2-0.1,0.5-0.1,0.5-0.1S13,45.2,12.7,45
		c-0.1,0-0.2-0.1-0.2-0.1c-0.1,0-0.1-0.1-0.2-0.1c-0.1-0.1-0.2-0.1-0.2-0.1s0.1,0.2,0.1,0.5C12.2,45.3,12.3,45.4,12.3,45.5z"/>
	<path fill="#FFFFFF" d="M13.6,46.2c0,0,0.2-0.1,0.5-0.2c0.2-0.1,0.5-0.2,0.5-0.2s-0.3-0.1-0.6-0.3c-0.2-0.1-0.3-0.1-0.4-0.2
		c-0.1-0.1-0.2-0.1-0.2-0.1s0.1,0.2,0.2,0.5C13.5,46,13.6,46.2,13.6,46.2z"/>
	<path fill="#FFFFFF" d="M14.8,46.6c0,0.1,0.1,0.1,0.1,0.1s0.2-0.1,0.4-0.2c0.2-0.1,0.4-0.2,0.4-0.2s-0.3-0.1-0.6-0.2
		C15,46.1,14.8,46,14.7,46c-0.1-0.1-0.2-0.1-0.2-0.1s0.1,0.2,0.2,0.5C14.7,46.4,14.8,46.6,14.8,46.6z"/>
	<path fill="#FFFFFF" d="M16.2,47.3c0,0,0.2-0.1,0.4-0.2c0.2-0.1,0.4-0.2,0.4-0.2s-0.3-0.1-0.7-0.2c-0.3-0.1-0.6-0.2-0.6-0.2
		s0.1,0.2,0.2,0.4C16.1,47,16.2,47.3,16.2,47.3z"/>
	<path fill="#FFFFFF" d="M17.6,47.7c0,0,0.1,0,0.1-0.1c0.1,0,0.2-0.1,0.3-0.2c0.2-0.1,0.4-0.3,0.4-0.3s-0.1,0-0.2,0
		c-0.1,0-0.3-0.1-0.5-0.1c-0.3-0.1-0.7-0.2-0.7-0.2s0.1,0.2,0.2,0.4C17.4,47.4,17.6,47.7,17.6,47.7z"/>
	<path fill="#FFFFFF" d="M18.9,48c0,0,0.1,0,0.1-0.1c0.1,0,0.2-0.1,0.3-0.2c0.2-0.1,0.4-0.3,0.4-0.3s-0.1,0-0.2,0
		c-0.1,0-0.1,0-0.2,0c-0.1,0-0.2,0-0.2-0.1c-0.3-0.1-0.7-0.2-0.7-0.2s0.1,0.2,0.3,0.4C18.8,47.8,18.9,48,18.9,48z"/>
	<path fill="#FFFFFF" d="M20.3,48.2c0,0,0.2-0.1,0.4-0.3c0.2-0.2,0.4-0.3,0.4-0.3s-0.1,0-0.2,0c-0.1,0-0.3,0-0.5-0.1
		c-0.3-0.1-0.7-0.1-0.7-0.1s0.1,0.2,0.3,0.4C20.2,48,20.3,48.2,20.3,48.2z"/>
	<path fill="#FFFFFF" d="M21.7,48.4c0,0,0.2-0.2,0.4-0.3c0.2-0.1,0.4-0.3,0.4-0.3s0,0-0.1,0c0,0-0.1,0-0.2,0c-0.1,0-0.3,0-0.5,0
		c-0.3,0-0.7-0.1-0.7-0.1s0.2,0.2,0.3,0.4C21.5,48.2,21.7,48.4,21.7,48.4z"/>
	<path fill="#FFFFFF" d="M22.8,48.1c0.2,0.2,0.3,0.4,0.3,0.4s0.2-0.2,0.4-0.3c0.2-0.2,0.3-0.3,0.3-0.3l-1.4,0
		C22.4,47.7,22.6,47.9,22.8,48.1z"/>
	<path fill="#FFFFFF" d="M24.1,48.1c0.2,0.2,0.4,0.3,0.4,0.3s0.2-0.2,0.3-0.4c0.2-0.2,0.3-0.4,0.3-0.4l-1.4,0
		C23.8,47.8,24,47.9,24.1,48.1z"/>
	<path fill="#FFFFFF" d="M25.4,47.7c-0.1,0-0.1,0-0.2,0c0,0-0.1,0-0.1,0s0.2,0.2,0.4,0.3c0.2,0.2,0.4,0.3,0.4,0.3s0.2-0.2,0.3-0.4
		c0.2-0.2,0.3-0.4,0.3-0.4s-0.3,0-0.7,0.1C25.7,47.7,25.5,47.7,25.4,47.7z"/>
	<path fill="#FFFFFF" d="M26.7,47.6c-0.1,0-0.2,0-0.2,0s0.2,0.2,0.4,0.3c0.2,0.1,0.4,0.3,0.4,0.3s0.1-0.2,0.3-0.4
		c0.1-0.2,0.3-0.4,0.3-0.4s-0.3,0.1-0.7,0.1C27,47.5,26.9,47.6,26.7,47.6z"/>
	<path fill="#FFFFFF" d="M28.3,47.4c-0.1,0-0.2,0-0.2,0c-0.1,0-0.2,0-0.2,0s0.2,0.1,0.4,0.3c0.1,0.1,0.2,0.1,0.3,0.2
		c0.1,0,0.1,0.1,0.1,0.1s0.1-0.2,0.3-0.4c0.1-0.2,0.3-0.4,0.3-0.4s-0.3,0.1-0.7,0.2C28.4,47.3,28.4,47.3,28.3,47.4z"/>
	<path fill="#FFFFFF" d="M29.4,47.1c-0.1,0-0.2,0-0.2,0s0.2,0.1,0.4,0.3c0.1,0.1,0.2,0.1,0.3,0.2c0.1,0,0.1,0.1,0.1,0.1
		s0.1-0.2,0.2-0.4c0.1-0.2,0.2-0.4,0.2-0.4s-0.3,0.1-0.7,0.2C29.7,47,29.5,47.1,29.4,47.1z"/>
	<path fill="#FFFFFF" d="M30.5,46.8c0,0,0.2,0.1,0.4,0.2c0.2,0.1,0.4,0.2,0.4,0.2s0.1-0.2,0.2-0.4c0.1-0.2,0.2-0.4,0.2-0.4
		s-0.3,0.1-0.6,0.2C30.8,46.7,30.5,46.8,30.5,46.8z"/>
	<path fill="#FFFFFF" d="M32.5,46.1c-0.3,0.1-0.6,0.2-0.6,0.2s0.2,0.1,0.4,0.2c0.2,0.1,0.4,0.2,0.4,0.2s0-0.1,0.1-0.1
		c0-0.1,0.1-0.2,0.1-0.3c0.1-0.2,0.2-0.5,0.2-0.5s-0.1,0-0.2,0.1C32.8,46,32.6,46.1,32.5,46.1z"/>
	<path fill="#FFFFFF" d="M33.7,45.6c-0.3,0.1-0.6,0.3-0.6,0.3s0.2,0.1,0.5,0.2c0.2,0.1,0.5,0.2,0.5,0.2s0.1-0.2,0.2-0.5
		c0.1-0.2,0.2-0.5,0.2-0.5s-0.1,0-0.2,0.1C34,45.5,33.9,45.5,33.7,45.6z"/>
	<path fill="#FFFFFF" d="M35.1,44.9c-0.1,0-0.1,0.1-0.2,0.1c-0.3,0.2-0.6,0.3-0.6,0.3s0.2,0.1,0.5,0.1c0.2,0.1,0.5,0.1,0.5,0.1
		s0-0.1,0-0.1c0-0.1,0.1-0.2,0.1-0.3c0.1-0.2,0.1-0.5,0.1-0.5s-0.1,0-0.2,0.1C35.3,44.8,35.2,44.9,35.1,44.9z"/>
	<path fill="#FFFFFF" d="M36.1,44.3c-0.3,0.2-0.6,0.3-0.6,0.3s0.2,0.1,0.5,0.1c0.2,0.1,0.5,0.1,0.5,0.1s0.1-0.2,0.1-0.5
		c0-0.2,0.1-0.5,0.1-0.5s-0.1,0-0.2,0.1C36.4,44.2,36.3,44.2,36.1,44.3z"/>
	<path fill="#FFFFFF" d="M37.2,43.6C37,43.8,36.7,44,36.7,44s0.2,0,0.5,0.1c0.2,0,0.5,0.1,0.5,0.1s0-0.2,0.1-0.5
		c0-0.1,0-0.2,0.1-0.3c0-0.1,0-0.2,0-0.2s-0.1,0.1-0.2,0.1C37.5,43.4,37.4,43.5,37.2,43.6z"/>
	<path fill="#FFFFFF" d="M38.3,42.8c-0.3,0.2-0.5,0.4-0.5,0.4s0.2,0,0.5,0.1c0.2,0,0.5,0.1,0.5,0.1s0-0.2,0.1-0.5c0-0.1,0-0.2,0-0.3
		c0-0.1,0-0.2,0-0.2s-0.1,0.1-0.2,0.1C38.6,42.6,38.5,42.7,38.3,42.8z"/>
	<path fill="#FFFFFF" d="M41.8,40.4c0,0,0-0.2,0-0.5c0-0.1,0-0.2,0-0.3c0-0.1,0-0.2,0-0.2s-0.1,0.1-0.1,0.2
		c-0.1,0.1-0.2,0.2-0.3,0.3c-0.2,0.3-0.5,0.5-0.5,0.5s0.2,0,0.5,0C41.6,40.4,41.8,40.4,41.8,40.4z"/>
	<path fill="#FFFFFF" d="M42.7,39.4c0,0,0-0.2-0.1-0.5c0-0.1,0-0.2,0-0.3c0-0.1,0-0.1,0-0.1s0,0,0,0c0,0-0.1,0.1-0.1,0.1
		c-0.1,0.1-0.2,0.2-0.3,0.4c-0.2,0.3-0.4,0.5-0.4,0.5s0.2,0,0.5-0.1C42.5,39.4,42.7,39.4,42.7,39.4z"/>
	<path fill="#FFFFFF" d="M43.6,38.2c0,0,0-0.2-0.1-0.5c0-0.2-0.1-0.5-0.1-0.5l-0.8,1.1c0,0,0.2,0,0.5-0.1
		C43.3,38.3,43.6,38.2,43.6,38.2z"/>
	<path fill="#FFFFFF" d="M9.4,38.7c0-0.2,0-0.4,0-0.5c0-0.2-0.1-0.4-0.2-0.5c-0.1-0.2-0.3-0.3-0.5-0.4l0.5-0.5
		c0.1,0,0.1-0.1,0.2-0.1c0.1,0,0.1,0,0.2,0.1c0.1,0.1,0.1,0.2,0.2,0.3c0.1,0.1,0.1,0.2,0.1,0.2c0,0.1,0,0.1,0,0.2
		c0,0.1-0.1,0.1-0.1,0.2c0,0-0.1,0-0.1,0.1c0,0-0.1,0-0.1,0.1c0,0,0,0,0,0.1c0,0,0,0,0,0.1c0.1,0.1,0.2,0.2,0.3,0.2
		c0.1,0,0.2-0.1,0.3-0.1c0,0,0.1-0.1,0.1-0.1c0,0,0.1-0.1,0.1-0.1c0,0,0.1-0.1,0.1-0.1c0,0,0.1-0.1,0.1-0.1c0,0,0.1,0,0.1-0.1
		c0,0,0.1,0,0.1,0c0,0-0.1,0-0.1-0.1c-0.1,0-0.1-0.1-0.2-0.2c-0.1-0.1-0.2-0.2-0.3-0.4c-0.1-0.2-0.2-0.3-0.4-0.5
		c-0.1-0.1-0.2-0.2-0.3-0.2c-0.1,0-0.2,0-0.3,0c0-0.1,0.1-0.2,0-0.3c0-0.1-0.1-0.2-0.1-0.3c0,0-0.1-0.1-0.1-0.1c0,0-0.1-0.1-0.2-0.1
		c-0.1,0-0.1,0-0.2,0c-0.1,0-0.1,0-0.2,0.1c-0.1,0.1-0.1,0.1-0.1,0.2c0,0,0.1,0,0.1,0c0,0,0.1,0,0.1,0.1c0,0.1,0.1,0.1,0.1,0.2
		c0,0.1,0,0.1-0.1,0.2l-0.5,0.5c0,0,0-0.1-0.1-0.1c-0.1-0.1-0.2-0.1-0.3-0.1c-0.1,0-0.2,0-0.3,0.1c0,0-0.1,0.1-0.1,0.1
		c0,0,0,0.1,0,0.1c0.1,0,0.1,0,0.2,0c0,0,0.1,0,0.1,0.1c0,0.1,0.1,0.1,0,0.2c0,0.1-0.1,0.1-0.1,0.2l-0.5,0.4c-0.1,0-0.1,0.1-0.2,0.1
		c-0.1,0-0.1,0-0.2-0.1c0,0,0-0.1-0.1-0.1c0,0,0-0.1,0-0.1c-0.1,0-0.1,0-0.2,0.1c-0.1,0-0.1,0.1-0.1,0.2c0,0.1,0,0.1,0,0.2
		c0,0.1,0,0.1,0,0.2c0,0.1,0.1,0.1,0.1,0.1C6.7,38,6.9,38,7,38c0,0.1,0,0.1,0,0.2c0,0.1,0,0.2,0.1,0.2c0,0.1,0.1,0.1,0.1,0.2
		c0,0.1,0.1,0.1,0.2,0.2c0.1,0.2,0.3,0.3,0.4,0.4c0.1,0.1,0.3,0.2,0.5,0.2c0.2,0,0.3,0,0.5,0c0.2-0.1,0.3-0.2,0.5-0.3
		C9.3,39,9.4,38.8,9.4,38.7z M8.8,37.9c0,0.1-0.1,0.2-0.2,0.4c-0.1,0-0.1,0.1-0.2,0.1c-0.1,0-0.2,0.1-0.2,0.1c-0.1,0-0.2,0-0.2,0
		c-0.1,0-0.1,0-0.2-0.1c-0.1-0.1-0.1-0.1-0.1-0.2c0-0.1,0-0.1,0.1-0.2l0.6-0.5c0.1,0,0.1-0.1,0.2,0c0.1,0,0.1,0.1,0.1,0.1
		C8.7,37.7,8.8,37.8,8.8,37.9z"/>
	<path fill="#FFFFFF" d="M11.7,42.1c-0.1,0-0.1-0.1-0.1-0.1c0-0.1,0-0.1,0-0.2l0.8-1.9c0,0,0-0.1,0.1-0.1c0,0,0.1-0.1,0.1-0.1
		c0,0,0.1,0,0.1,0c0,0,0.1,0.1,0.1,0.1c0,0,0,0.1,0,0.1c0,0,0,0,0.1,0c0,0,0,0,0,0c0.1-0.1,0.1-0.1,0.1-0.2c0-0.1,0-0.1,0-0.2
		c0-0.1,0-0.1-0.1-0.2c0-0.1-0.1-0.1-0.1-0.1c-0.1-0.1-0.2-0.1-0.3-0.1c-0.1,0-0.2,0-0.3,0c0-0.1,0-0.2,0-0.3c0-0.1-0.1-0.2-0.2-0.2
		c0,0-0.1-0.1-0.2-0.1c-0.1,0-0.1,0-0.2,0c-0.1,0-0.1,0-0.2,0c-0.1,0-0.1,0.1-0.2,0.1c0,0,0,0.1-0.1,0.1c0,0,0.1,0,0.1,0
		c0,0,0.1,0,0.1,0c0,0,0.1,0.1,0.1,0.1c0,0,0,0.1-0.1,0.1c0,0,0,0-0.1,0.1c0,0,0,0-0.1,0l-0.5,0.4c0,0,0-0.1-0.1-0.1
		c0,0-0.1-0.1-0.2-0.1c-0.1,0-0.1,0-0.2,0c-0.1,0-0.1,0-0.2,0c-0.1,0-0.1,0.1-0.2,0.1c0,0-0.1,0.1-0.1,0.1c0,0,0,0.1,0,0.1
		c0,0,0.1,0,0.1,0c0.1,0,0.1,0,0.2,0.1c0.1,0,0.1,0.1,0.1,0.1c0,0,0,0.1,0,0.1c0,0,0,0,0,0c0,0,0,0,0,0l-0.5,0.4
		c-0.1,0-0.1,0.1-0.2,0.1c-0.1,0-0.1,0-0.2,0c0,0-0.1-0.1-0.1-0.1c0,0,0-0.1,0-0.1c-0.1,0-0.1,0.1-0.2,0.1C9,40.2,9,40.3,9,40.4
		c0,0.1,0.1,0.2,0.1,0.2c0.1,0.1,0.2,0.1,0.3,0.1c0.1,0,0.2,0,0.2,0c0,0.1,0,0.2,0,0.2c0,0.1,0.1,0.1,0.2,0.2c0,0,0.1,0.1,0.1,0.1
		c0,0,0.1,0,0.1,0c0,0,0.1,0,0.1,0c0,0,0.1-0.1,0.2-0.1c0,0,0-0.1,0.1-0.1c0,0,0-0.1,0-0.1c-0.1,0-0.1,0-0.2,0c0,0-0.1,0-0.1-0.1
		c-0.1-0.1-0.1-0.1,0-0.2c0,0,0,0,0.1-0.1l0.2-0.1c0.1,0,0.1,0,0.2,0.1c0.1,0,0.1,0.1,0.2,0.1c0.1,0,0.1,0.1,0.2,0.2
		c0,0.1,0.1,0.1,0.1,0.2l-0.1,0.2c0,0,0,0,0,0c0,0,0,0,0,0c-0.1,0.1-0.1,0.1-0.2,0c-0.1-0.1-0.1-0.1-0.1-0.3c0,0-0.1,0-0.1,0
		c0,0-0.1,0-0.1,0.1c-0.1,0.1-0.1,0.1-0.1,0.2c0,0.1,0,0.1,0,0.2c0,0.1,0,0.1,0.1,0.1c0,0,0.1,0.1,0.1,0.1c0.1,0.1,0.2,0.1,0.3,0.1
		c0.1,0,0.2,0,0.2,0c0,0.1,0,0.2,0,0.3c0,0.1,0.1,0.2,0.2,0.3c0,0,0.1,0.1,0.1,0.1c0.1,0,0.1,0,0.2,0c0.1,0,0.1,0,0.2,0
		c0.1,0,0.1-0.1,0.1-0.1c0.1-0.1,0.1-0.2,0.1-0.2c0,0-0.1,0-0.1,0C11.8,42.2,11.8,42.1,11.7,42.1z M11.2,40.4
		C11.2,40.3,11.2,40.3,11.2,40.4c-0.1-0.1-0.1-0.2-0.2-0.2c-0.1,0-0.1-0.1-0.2-0.1l0.8-0.6L11.2,40.4z"/>
	<path fill="#FFFFFF" d="M15.7,42C15.7,42.1,15.7,42.1,15.7,42c0,0.1,0,0.1,0,0.1c0,0,0,0,0.1,0c0.1,0.1,0.3,0.1,0.3,0
		c0.1,0,0.2-0.1,0.2-0.2c0-0.1,0-0.1,0.1-0.2c0-0.1,0-0.1,0-0.2c0-0.1,0-0.1,0-0.1c0,0,0-0.1,0-0.1c0,0,0-0.1,0.1-0.1
		c0,0,0.1-0.1,0.1-0.1c0,0-0.1,0-0.2,0c-0.1,0-0.1,0-0.2-0.1c-0.1-0.1-0.3-0.2-0.4-0.3c-0.2-0.1-0.3-0.2-0.5-0.3
		c-0.1-0.1-0.2-0.1-0.3-0.1c-0.1,0-0.2,0-0.3,0.1c0-0.1,0-0.2-0.1-0.3c-0.1-0.1-0.1-0.2-0.2-0.2c0,0-0.1,0-0.2-0.1
		c-0.1,0-0.1,0-0.2,0c-0.1,0-0.1,0-0.2,0.1c0,0-0.1,0.1-0.1,0.1c0,0.1-0.1,0.1-0.1,0.2c0,0,0.1,0,0.1,0c0,0,0.1,0,0.1,0
		c0.1,0,0.1,0.1,0.1,0.1c0,0.1,0,0.1,0,0.2l-0.3,0.6c0,0-0.1,0-0.1-0.1c-0.1-0.1-0.2-0.1-0.3,0c-0.1,0-0.2,0.1-0.2,0.2
		c0,0.1,0,0.1-0.1,0.2c0,0.1,0,0.1,0,0.1c0,0,0.1-0.1,0.1-0.1c0,0,0.1,0,0.1,0c0.1,0,0.1,0.1,0.1,0.1c0,0.1,0,0.1-0.1,0.2l-0.3,0.5
		c0,0.1-0.1,0.1-0.1,0.1c-0.1,0-0.1,0-0.2,0c0,0-0.1-0.1-0.1-0.1c0,0,0-0.1,0-0.1c-0.1,0-0.1,0.1-0.1,0.2c0,0.1,0,0.1,0,0.2
		c0,0.1,0,0.1,0,0.2c0,0,0.1,0.1,0.1,0.1c0,0,0.1,0.1,0.1,0.1c0.2,0.1,0.4,0.1,0.6,0c0,0.1,0,0.1,0.1,0.2c0,0.1,0.1,0.1,0.1,0.2
		c0.1,0.1,0.1,0.1,0.2,0.2c0.1,0,0.1,0.1,0.2,0.1c0.2,0.1,0.4,0.2,0.5,0.2c0.2,0,0.3,0,0.5,0c0.2,0,0.3-0.1,0.4-0.2
		c0.1-0.1,0.2-0.3,0.3-0.5c0.1-0.2,0.1-0.3,0.1-0.5c0-0.2-0.1-0.3-0.2-0.5c-0.1-0.2-0.3-0.3-0.4-0.4c-0.2-0.1-0.4-0.2-0.6-0.2
		l0.3-0.6c0-0.1,0.1-0.1,0.1-0.1c0.1,0,0.1,0,0.2,0c0.1,0.1,0.2,0.1,0.3,0.2c0.1,0.1,0.1,0.1,0.2,0.2c0.1,0.1,0.1,0.1,0.1,0.2
		C15.8,41.8,15.8,41.9,15.7,42C15.8,42,15.7,42,15.7,42z M14.6,42.3c0.1,0.1,0.2,0.2,0.2,0.3c0,0.1,0,0.3-0.1,0.4
		c0,0.1-0.1,0.1-0.1,0.2c-0.1,0.1-0.1,0.1-0.2,0.2c-0.1,0.1-0.1,0.1-0.2,0.1c-0.1,0-0.1,0-0.2,0c-0.1,0-0.1-0.1-0.2-0.2
		c0-0.1,0-0.1,0-0.2l0.4-0.7c0-0.1,0.1-0.1,0.1-0.1C14.5,42.3,14.6,42.3,14.6,42.3z"/>
	<path fill="#FFFFFF" d="M19.4,42.3c0-0.1-0.1-0.1-0.1-0.1c-0.1,0-0.1-0.1-0.2-0.1c-0.1,0-0.2,0-0.3,0c-0.1,0-0.2,0.1-0.3,0.1
		c0-0.1-0.1-0.2-0.2-0.3c-0.1-0.1-0.2-0.1-0.3-0.1c-0.1,0-0.1,0-0.2,0c-0.1,0-0.1,0-0.2,0c-0.1,0-0.1,0.1-0.2,0.1
		c-0.1,0-0.1,0.1-0.1,0.2c0,0,0,0.1,0,0.1c0,0,0,0,0.1-0.1c0,0,0.1,0,0.1,0c0.1,0,0.1,0,0.1,0.1c0,0,0,0.1,0,0.1c0,0,0,0,0,0.1
		c0,0,0,0,0,0.1l-0.3,0.6c0,0-0.1,0-0.1-0.1c-0.1,0-0.1,0-0.2,0c-0.1,0-0.1,0-0.2,0c-0.1,0-0.1,0.1-0.1,0.1c0,0.1-0.1,0.1-0.1,0.2
		c0,0,0,0.1,0,0.1s0,0.1,0,0.1c0,0,0.1-0.1,0.1-0.1c0.1,0,0.1,0,0.2,0c0.1,0,0.1,0,0.1,0.1c0,0,0,0.1,0,0.1c0,0,0,0,0,0c0,0,0,0,0,0
		l-0.4,0.6c0,0.1-0.1,0.1-0.1,0.1c0,0-0.1,0-0.2,0c0,0-0.1,0-0.1-0.1c0,0,0-0.1,0-0.1c-0.1,0-0.1,0.1-0.1,0.2c0,0.1,0,0.2,0,0.3
		c0,0.1,0.1,0.1,0.2,0.2c0.1,0,0.2,0,0.3,0c0.1,0,0.1-0.1,0.2-0.1c0,0.1,0,0.2,0.1,0.2c0.1,0.1,0.1,0.1,0.2,0.1c0,0,0.1,0,0.1,0
		c0,0,0.1,0,0.1,0c0,0,0.1-0.1,0.1-0.1c0,0,0.1-0.1,0.1-0.2c0,0,0-0.1,0-0.1c0,0,0-0.1,0-0.1c0,0-0.1,0.1-0.1,0.1c0,0-0.1,0-0.1,0
		c-0.1,0-0.1-0.1-0.1-0.2c0,0,0-0.1,0-0.1l0.1-0.2c0.1,0,0.1,0,0.2,0c0.1,0,0.2,0,0.2,0c0.1,0,0.1,0,0.2,0.1c0.1,0,0.1,0.1,0.2,0.1
		l0,0.2c0,0,0,0,0,0.1c0,0,0,0,0,0c0,0.1-0.1,0.1-0.2,0.1c-0.1,0-0.2-0.1-0.2-0.2c0,0,0,0-0.1,0.1c0,0,0,0.1,0,0.1
		c0,0.1,0,0.2,0,0.2c0,0.1,0,0.1,0.1,0.2c0,0,0.1,0.1,0.1,0.1c0.1,0,0.1,0,0.2,0.1c0.1,0,0.2,0,0.3,0c0.1,0,0.2-0.1,0.2-0.1
		c0,0.1,0.1,0.2,0.1,0.2c0.1,0.1,0.2,0.1,0.3,0.2c0.1,0,0.1,0,0.2,0c0.1,0,0.1,0,0.2,0c0.1,0,0.1,0,0.1-0.1c0,0,0.1-0.1,0.1-0.1
		c0-0.1,0-0.2,0-0.2c0,0-0.1,0.1-0.1,0.1c0,0-0.1,0-0.1,0c-0.1,0-0.1-0.1-0.1-0.1c0,0,0-0.1,0-0.2l0-2.1c0,0,0-0.1,0-0.1
		c0,0,0-0.1,0.1-0.1c0,0,0.1,0,0.1,0c0,0,0.1,0,0.1,0.1c0,0,0,0.1,0,0.1c0,0,0,0,0-0.1c0,0,0,0,0-0.1c0-0.1,0-0.2,0-0.2
		C19.5,42.4,19.4,42.4,19.4,42.3z M18.1,43.9c0,0-0.1,0-0.1-0.1c0,0-0.1,0-0.1,0c-0.1,0-0.2,0-0.3,0l0.5-0.8L18.1,43.9z"/>
	<path fill="#FFFFFF" d="M26.2,43.6c-0.1-0.1-0.3-0.1-0.4-0.2c-0.2,0-0.3,0-0.5,0c-0.1,0-0.1,0-0.2,0c-0.1,0-0.1,0-0.1,0
		c0-0.1,0-0.1,0.1-0.2c0,0,0.1-0.1,0.2-0.1c0,0,0.1,0,0.1,0c0,0,0.1,0.1,0.1,0.1c0-0.1,0-0.1,0-0.2c0-0.1,0-0.1,0-0.2
		c0-0.1-0.1-0.1-0.1-0.1c0,0-0.1-0.1-0.2-0.1c-0.1,0-0.1,0-0.2,0c-0.1,0-0.2,0-0.3,0.1c-0.1,0.1-0.1,0.1-0.2,0.2
		c0-0.1-0.1-0.1-0.2-0.2c-0.1-0.1-0.2-0.1-0.3-0.1c-0.1,0-0.1,0-0.2,0c-0.1,0-0.1,0-0.2,0.1c0,0-0.1,0.1-0.1,0.1c0,0.1,0,0.1,0,0.2
		c0,0.1,0,0.1,0.1,0.2c0,0,0.1-0.1,0.1-0.1c0,0,0.1,0,0.1,0c0.1,0,0.1,0,0.2,0.1c0,0,0.1,0.1,0.1,0.2c0,0-0.1,0-0.1,0
		c-0.1,0-0.1,0-0.2,0c-0.1,0-0.3,0-0.4,0.1c-0.1,0-0.3,0.1-0.4,0.1c-0.1,0.1-0.2,0.1-0.3,0.2c-0.1,0.1-0.1,0.2-0.2,0.4
		c-0.1,0-0.1,0-0.2,0c-0.1,0-0.1,0-0.2,0.1c0,0-0.1,0.1-0.1,0.1c0,0.1,0,0.1,0,0.2c0,0.1,0,0.1,0,0.2c0,0.1,0,0.1,0.1,0.1
		c0-0.1,0-0.1,0.1-0.1c0,0,0.1,0,0.1,0c0,0,0.1,0,0.1,0.1c0,0,0.1,0.1,0.1,0.1c0.1,0.2,0.2,0.4,0.4,0.4c0.2,0.1,0.4,0.1,0.7,0.1
		c0.1,0,0.2,0,0.2,0c0.1,0,0.1,0,0.2-0.1v0.2c0,0.1,0,0.1-0.1,0.2c0,0-0.1,0.1-0.2,0.1c0,0-0.1,0-0.1,0c0,0-0.1-0.1-0.1-0.1
		c0,0.1,0,0.1,0,0.2c0,0.1,0,0.1,0,0.2c0,0.1,0.1,0.1,0.1,0.1c0,0,0.1,0.1,0.2,0.1c0.1,0,0.1,0,0.2,0c0.3,0,0.4-0.1,0.5-0.3
		c0.1,0.2,0.3,0.2,0.5,0.2c0.1,0,0.1,0,0.2,0c0.1,0,0.1,0,0.2-0.1c0,0,0.1-0.1,0.1-0.1c0-0.1,0-0.1,0-0.2c0-0.1,0-0.1-0.1-0.2
		c0,0-0.1,0.1-0.1,0.1c0,0-0.1,0-0.1,0c-0.1,0-0.1,0-0.2-0.1c0,0-0.1-0.1-0.1-0.2l0-0.2c0.1,0,0.1,0,0.2,0.1c0.1,0,0.2,0,0.2,0
		c0.2,0,0.3,0,0.5-0.1c0.1,0,0.3-0.1,0.4-0.2c0.1-0.1,0.2-0.2,0.2-0.3c0.1-0.1,0.1-0.3,0.1-0.5c0-0.2,0-0.3-0.1-0.5
		C26.5,43.8,26.4,43.7,26.2,43.6z M24,45c0,0-0.1,0-0.1,0c-0.1,0-0.2,0-0.2-0.1c-0.1,0-0.1-0.1-0.1-0.2c0-0.1,0-0.1,0-0.2
		c0-0.1,0-0.2,0-0.2c0-0.1,0-0.1,0-0.2c0-0.1,0-0.1,0.1-0.2c0,0,0.1-0.1,0.1-0.1c0,0,0.1,0,0.2-0.1c0.1,0,0.1,0,0.2,0.1
		c0,0,0.1,0.1,0.1,0.2L24,45C24,45,24,45,24,45z M25.6,44.8c0,0.1-0.1,0.1-0.1,0.2c-0.1,0-0.1,0.1-0.2,0.1c-0.1,0-0.1,0-0.1,0
		c0,0-0.1,0-0.1-0.1l0-0.8c0-0.1,0-0.1,0.1-0.2c0,0,0.1-0.1,0.2-0.1c0.1,0,0.1,0,0.2,0c0,0,0.1,0.1,0.1,0.1c0,0,0,0.1,0.1,0.2
		c0,0.1,0,0.1,0,0.2c0,0.1,0,0.2,0,0.2C25.7,44.6,25.6,44.7,25.6,44.8z"/>
	<path fill="#FFFFFF" d="M29.8,42.4c-0.1-0.1-0.2-0.2-0.4-0.3C29.3,42,29.1,42,29,42c-0.2,0-0.3,0-0.5,0.1c-0.1,0-0.2,0-0.2,0.1
		c-0.1,0-0.1,0.1-0.2,0.1c-0.1,0-0.1,0.1-0.2,0.2c0,0.1-0.1,0.1-0.1,0.2c-0.1-0.1-0.1-0.1-0.2-0.2c-0.1,0-0.2,0-0.3,0
		c-0.1,0-0.1,0-0.2,0.1c-0.1,0-0.1,0.1-0.1,0.1c0,0-0.1,0.1-0.1,0.1c0,0.1,0,0.1,0,0.2c0,0.1,0.1,0.1,0.1,0.2c0,0,0-0.1,0.1-0.1
		c0,0,0.1-0.1,0.1-0.1c0.1,0,0.1,0,0.2,0c0,0,0.1,0.1,0.1,0.2l0.2,0.7c0,0,0,0-0.1,0c0,0,0,0-0.1,0c-0.1,0-0.2,0.1-0.2,0.2
		c0,0.1-0.1,0.2,0,0.3c0,0.1,0,0.1,0.1,0.2c0,0,0.1,0.1,0.1,0.1c0-0.1,0-0.1,0.1-0.1c0,0,0.1-0.1,0.1-0.1c0.1,0,0.1,0,0.2,0
		c0,0,0.1,0.1,0.1,0.2l0.1,0.6c0,0.1,0,0.1,0,0.2c0,0.1-0.1,0.1-0.1,0.1c0,0-0.1,0-0.1,0c0,0-0.1,0-0.1-0.1c0,0.1,0,0.1,0,0.2
		c0,0.1,0,0.1,0.1,0.2c0,0,0.1,0.1,0.1,0.1c0.1,0,0.1,0,0.2,0c0.1,0,0.1,0,0.2,0c0.2-0.1,0.4-0.2,0.4-0.4c0.1,0.1,0.3,0.2,0.6,0.1
		c0.1,0,0.1,0,0.2-0.1c0.1,0,0.1-0.1,0.1-0.1c0,0,0.1-0.1,0.1-0.1c0-0.1,0-0.1,0-0.2c0-0.1-0.1-0.1-0.1-0.2c0,0,0,0.1-0.1,0.1
		c0,0-0.1,0.1-0.1,0.1c-0.1,0-0.1,0-0.2,0c-0.1,0-0.1-0.1-0.1-0.2l-0.1-0.6c0.1,0,0.1,0,0.2,0c0.1,0,0.2,0,0.2,0
		c0.2,0,0.3-0.1,0.5-0.2c0.1-0.1,0.2-0.2,0.3-0.3c0.1-0.1,0.1-0.3,0.1-0.4c0-0.2,0-0.3-0.1-0.5C30,42.7,29.9,42.5,29.8,42.4z
		 M29.1,43.7c0,0.1-0.1,0.1-0.2,0.1c-0.1,0-0.1,0-0.1,0c0,0-0.1,0-0.1,0l-0.2-1c0-0.1,0-0.2,0-0.2c0-0.1,0.1-0.1,0.2-0.1
		c0.1,0,0.1,0,0.2,0c0.1,0,0.1,0.1,0.1,0.1c0,0.1,0.1,0.1,0.1,0.2c0,0.1,0,0.1,0.1,0.2c0,0.1,0,0.2,0.1,0.3c0,0.1,0,0.2,0,0.3
		C29.1,43.6,29.1,43.7,29.1,43.7z"/>
	<path fill="#FFFFFF" d="M34.3,42.9c0,0,0,0.1,0,0.1c0,0-0.1,0.1-0.1,0.1c-0.1,0-0.1,0-0.2,0c0,0-0.1-0.1-0.1-0.1l-1.4-1.6
		c0,0-0.1-0.1-0.1-0.1c0,0,0-0.1,0-0.1c0,0,0-0.1,0.1-0.1c0,0,0.1,0,0.1,0c0,0,0.1,0,0.1,0c0,0,0,0,0-0.1c0,0,0,0,0-0.1
		c0-0.1-0.1-0.1-0.1-0.2c-0.1,0-0.1-0.1-0.2-0.1c-0.1,0-0.1,0-0.2,0c-0.1,0-0.1,0-0.2,0.1c-0.1,0-0.2,0.1-0.2,0.2
		c-0.1,0.1-0.1,0.2-0.1,0.3c-0.1-0.1-0.2-0.1-0.3-0.1c-0.1,0-0.2,0-0.3,0.1c-0.1,0-0.1,0.1-0.2,0.1c0,0-0.1,0.1-0.1,0.1
		c0,0.1-0.1,0.1-0.1,0.2c0,0.1,0,0.1,0,0.2c0,0,0,0.1,0.1,0.1c0,0,0-0.1,0-0.1c0,0,0-0.1,0.1-0.1c0.1,0,0.1,0,0.1,0
		c0,0,0.1,0.1,0.1,0.1c0,0,0,0,0,0.1c0,0,0,0.1,0,0.1l0.1,0.7c0,0-0.1,0-0.1,0c-0.1,0-0.1,0.1-0.2,0.1c0,0-0.1,0.1-0.1,0.1
		c0,0.1,0,0.1,0,0.2c0,0.1,0,0.1,0.1,0.2c0,0,0,0.1,0.1,0.1c0,0,0,0.1,0.1,0.1c0,0,0-0.1,0-0.1c0-0.1,0.1-0.1,0.1-0.1
		c0.1,0,0.1,0,0.1,0c0,0,0.1,0.1,0.1,0.1c0,0,0,0,0,0c0,0,0,0,0,0l0.1,0.7c0,0.1,0,0.1,0,0.2c0,0.1-0.1,0.1-0.1,0.1c0,0-0.1,0-0.1,0
		c0,0-0.1,0-0.1-0.1c0,0.1,0,0.2,0,0.2c0.1,0.1,0.1,0.2,0.2,0.2c0.1,0,0.2,0,0.3,0c0.1,0,0.2-0.1,0.2-0.2c0-0.1,0.1-0.2,0.1-0.2
		c0.1,0.1,0.1,0.1,0.2,0.1c0.1,0,0.2,0,0.3,0c0,0,0.1,0,0.1-0.1c0,0,0.1-0.1,0.1-0.1c0,0,0-0.1,0-0.2c0-0.1,0-0.1-0.1-0.2
		c0,0,0-0.1-0.1-0.1c0,0,0,0-0.1-0.1c0,0.1,0,0.1-0.1,0.1c0,0-0.1,0.1-0.1,0.1c-0.1,0-0.2,0-0.2-0.1c0,0,0-0.1,0-0.1l0-0.2
		c0-0.1,0.1-0.1,0.1-0.2c0.1-0.1,0.1-0.1,0.2-0.1c0.1,0,0.1,0,0.2-0.1c0.1,0,0.2,0,0.2,0l0.1,0.2c0,0,0,0,0,0c0,0,0,0,0,0
		c0,0.1,0,0.2-0.1,0.2c-0.1,0-0.2,0-0.3,0c0,0,0,0.1,0,0.1c0,0,0,0.1,0,0.1c0,0.1,0.1,0.1,0.1,0.2c0.1,0,0.1,0.1,0.2,0.1
		c0.1,0,0.1,0,0.2,0c0.1,0,0.1,0,0.2-0.1c0.1-0.1,0.2-0.1,0.3-0.2c0.1-0.1,0.1-0.2,0.1-0.2c0.1,0,0.1,0.1,0.2,0.1
		c0.1,0,0.2,0,0.3-0.1c0.1,0,0.1-0.1,0.1-0.1c0,0,0.1-0.1,0.1-0.1c0,0,0-0.1,0.1-0.2c0-0.1,0-0.1,0-0.2C34.4,43,34.4,43,34.3,42.9z
		 M32.3,42.9c0,0-0.1,0-0.1,0c-0.1,0-0.1,0.1-0.2,0.1l-0.2-1l0.6,0.7C32.3,42.8,32.3,42.8,32.3,42.9z"/>
	<path fill="#FFFFFF" d="M38.2,40.4c-0.1-0.1-0.1-0.1-0.2-0.1c0,0,0,0.1,0,0.1c0,0,0,0.1-0.1,0.1c-0.1,0-0.1,0.1-0.2,0
		c-0.1,0-0.1,0-0.2-0.1l-1.3-1.7c0-0.1-0.1-0.1-0.1-0.2c0-0.1,0-0.1,0.1-0.2c0,0,0.1,0,0.1,0c0,0,0.1,0,0.1,0c0-0.1,0-0.1-0.1-0.2
		c0-0.1-0.1-0.1-0.1-0.1c-0.1,0-0.1,0-0.2,0c-0.1,0-0.1,0-0.2,0c-0.1,0-0.1,0.1-0.1,0.1c-0.1,0.1-0.2,0.2-0.2,0.3c0,0.1,0,0.2,0,0.3
		c-0.1,0-0.2-0.1-0.3-0.1c-0.1,0-0.2,0-0.3,0.1c0,0-0.1,0.1-0.1,0.1c0,0-0.1,0.1-0.1,0.1c0,0.1,0,0.1,0,0.2c0,0.1,0,0.1,0.1,0.2
		c0,0.1,0.1,0.1,0.2,0.1c0,0,0-0.1,0-0.1c0,0,0-0.1,0.1-0.1c0.1,0,0.1-0.1,0.2,0c0.1,0,0.1,0.1,0.1,0.1l0.5,0.7c-0.1,0-0.2,0-0.3,0
		c-0.1,0-0.2,0.1-0.2,0.1c-0.1,0.1-0.1,0.1-0.2,0.2c-0.1,0.1-0.1,0.1-0.1,0.2l-0.5-0.7c0-0.1-0.1-0.1-0.1-0.2c0-0.1,0-0.1,0.1-0.1
		c0,0,0.1,0,0.1,0c0,0,0.1,0,0.1,0c0-0.1,0-0.1-0.1-0.2c-0.1-0.1-0.2-0.2-0.3-0.2c-0.1,0-0.2,0-0.3,0.1c-0.1,0.1-0.2,0.1-0.2,0.2
		c0,0.1,0,0.2,0,0.3c-0.1,0-0.2-0.1-0.3-0.1c-0.1,0-0.2,0.1-0.3,0.1c0,0-0.1,0.1-0.1,0.1c0,0-0.1,0.1-0.1,0.1c0,0.1,0,0.1,0,0.2
		c0,0.1,0,0.1,0.1,0.2c0,0.1,0.1,0.1,0.2,0.1c0,0,0-0.1,0-0.1c0,0,0-0.1,0.1-0.1c0.1,0,0.1-0.1,0.2,0c0.1,0,0.1,0,0.2,0.1l0.4,0.6
		c0,0,0,0,0,0c0,0,0,0,0,0c-0.1,0.1-0.2,0.2-0.2,0.3c0,0.1,0,0.2,0.1,0.3c0,0,0.1,0.1,0.1,0.1c0,0,0.1,0,0.1,0.1c0-0.1,0-0.1,0-0.2
		c0,0,0-0.1,0.1-0.1c0.1,0,0.1-0.1,0.2,0c0.1,0,0.1,0.1,0.2,0.1l0.4,0.5c0,0.1,0.1,0.1,0.1,0.2c0,0.1,0,0.1-0.1,0.2c0,0-0.1,0-0.1,0
		c0,0-0.1,0-0.1,0c0,0.1,0,0.1,0.1,0.2c0,0.1,0.1,0.1,0.1,0.1c0.1,0,0.1,0,0.2,0c0.1,0,0.1,0,0.2,0c0.1,0,0.1-0.1,0.1-0.1
		c0.2-0.2,0.3-0.3,0.2-0.5c0.2,0.1,0.3,0.1,0.5-0.1c0.1-0.1,0.2-0.2,0.2-0.3c0-0.1,0-0.2-0.1-0.3c-0.1-0.1-0.1-0.1-0.2-0.1
		c0,0,0,0.1,0,0.1c0,0,0,0.1-0.1,0.1c-0.1,0-0.1,0.1-0.2,0c-0.1,0-0.1-0.1-0.1-0.1L35.7,41c0-0.1,0-0.2,0.1-0.3
		c0-0.1,0.1-0.1,0.2-0.2c0.1-0.1,0.2-0.1,0.3-0.1c0.1,0,0.2,0,0.3,0l0.4,0.5c0,0.1,0.1,0.1,0.1,0.2c0,0.1,0,0.1-0.1,0.1
		c0,0-0.1,0-0.1,0c0,0-0.1,0-0.1,0c0,0.1,0,0.1,0.1,0.2c0,0.1,0.1,0.1,0.1,0.1c0,0,0.1,0,0.2,0c0.1,0,0.1,0,0.2,0c0,0,0.1,0,0.1-0.1
		c0.1-0.1,0.2-0.2,0.2-0.2c0-0.1,0-0.2,0-0.3c0.2,0.1,0.4,0.1,0.6-0.1c0,0,0.1-0.1,0.1-0.1c0,0,0.1-0.1,0.1-0.1c0-0.1,0-0.1,0-0.2
		C38.3,40.5,38.3,40.4,38.2,40.4z"/>
	<path fill="#FFFFFF" d="M38.2,35.8c0,0.1,0,0.2,0,0.3c-0.2,0-0.3,0-0.5,0.1c-0.1,0.1-0.3,0.2-0.4,0.3c-0.1,0.1-0.2,0.3-0.3,0.4
		C37.1,37,37,37.2,37,37.3c0,0.1,0,0.3,0,0.4c0.1,0.1,0.1,0.3,0.3,0.4c0.2,0.1,0.3,0.2,0.5,0.2c0.2,0,0.4-0.1,0.5-0.2l0,0
		c-0.1,0.1-0.1,0.2-0.1,0.3c0,0.1,0,0.2,0,0.3c0,0.1,0.1,0.1,0.1,0.2c0.1,0.1,0.1,0.1,0.2,0.2c0.1,0.1,0.2,0.2,0.3,0.3
		c0.1,0.1,0.1,0.2,0,0.2c0,0-0.1,0.1-0.1,0.1c0,0-0.1,0-0.1,0c0,0,0.1,0.1,0.1,0.1c0.1,0.1,0.2,0.1,0.2,0.1c0.1,0,0.1,0,0.2,0
		c0.1,0,0.1-0.1,0.2-0.1c0.1-0.1,0.1-0.1,0.2-0.2c0.2-0.2,0.3-0.4,0.3-0.5c0-0.2-0.1-0.3-0.3-0.5l-0.4-0.3C39,38.2,39,38.1,39,38
		c0-0.1,0-0.2,0.1-0.3c0.1-0.1,0.1-0.1,0.2-0.1c0.1,0,0.2,0,0.2,0.1l0.3,0.3c0.1,0,0.1,0.1,0.1,0.2c0,0.1,0,0.1-0.1,0.2
		c0,0-0.1,0.1-0.1,0.1c0,0-0.1,0-0.1,0c0,0.1,0.1,0.1,0.1,0.2c0.1,0,0.1,0.1,0.2,0.1c0.1,0,0.1,0,0.2,0c0.1,0,0.1,0,0.2-0.1
		c0,0,0.1-0.1,0.1-0.1c0.2-0.2,0.2-0.4,0.1-0.6c0.2,0.1,0.4,0,0.5-0.2c0,0,0.1-0.1,0.1-0.1c0-0.1,0-0.1,0-0.2c0-0.1,0-0.1,0-0.2
		c0-0.1-0.1-0.1-0.1-0.2c-0.1,0-0.1-0.1-0.2-0.1c0,0,0,0.1,0,0.1c0,0,0,0.1-0.1,0.1c0,0.1-0.1,0.1-0.2,0.1c-0.1,0-0.1,0-0.2-0.1
		L40,37l-1.1-1c-0.1,0-0.1-0.1-0.1-0.2c0-0.1,0-0.1,0.1-0.2c0,0,0.1-0.1,0.1-0.1c0,0,0.1,0,0.1,0c0-0.1-0.1-0.1-0.1-0.2
		c-0.1,0-0.1-0.1-0.2-0.1c-0.1,0-0.1,0-0.2,0c-0.1,0-0.1,0-0.2,0.1c0,0-0.1,0.1-0.1,0.1C38.3,35.6,38.2,35.7,38.2,35.8z M38.8,37.2
		c0,0.1,0,0.2-0.1,0.3c-0.1,0.1-0.1,0.1-0.2,0.1c-0.1,0-0.1,0-0.2,0c-0.1,0-0.1,0-0.2-0.1c-0.1,0-0.1-0.1-0.2-0.1
		c-0.1,0-0.1-0.1-0.1-0.1c0-0.1-0.1-0.1-0.1-0.2c0-0.1,0-0.1,0-0.2c0-0.1,0-0.1,0.1-0.2c0-0.1,0.1-0.1,0.2-0.1c0.1,0,0.1,0,0.2,0.1
		L38.8,37.2z"/>
</g>
</svg>
