<?xml version="1.0" encoding="utf-8"?>
<!-- Generator: Adobe Illustrator 18.0.0, SVG Export Plug-In . SVG Version: 6.00 Build 0)  -->
<!DOCTYPE svg PUBLIC "-//W3C//DTD SVG 1.1//EN" "http://www.w3.org/Graphics/SVG/1.1/DTD/svg11.dtd">
<svg version="1.1" id="Layer_1" xmlns="http://www.w3.org/2000/svg" xmlns:xlink="http://www.w3.org/1999/xlink" x="0px" y="0px"
	 viewBox="0 0 70.1 50" enable-background="new 0 0 70.1 50" xml:space="preserve">
<g>
	<g>
		<path fill="#FFFFFF" d="M47.9,6.5c-0.1,0.1-0.1,0.2-0.2,0.2c-0.2,0.2-0.6,0.3-0.9,0.3c-0.1,0-0.3,0-0.4-0.1
			c-0.1,0-0.2-0.1-0.3-0.1c0,0.1,0,0.2,0,0.3c0.1,0.1,0.2,0.2,0.4,0.2c0.4,0.1,0.8,0,1.1-0.2C47.7,6.9,47.9,6.8,47.9,6.5
			C48,6.6,48,6.6,47.9,6.5C48,6.5,48,6.5,47.9,6.5C47.9,6.5,47.9,6.5,47.9,6.5z"/>
		<path fill="#FFFFFF" d="M35.2,31.9C35.2,31.9,35.2,31.9,35.2,31.9l-0.1,0c0,0,0,0-0.1,0c-5.3-1.2-10.5-4.8-12.2-7.7c0,0,0,0,0,0
			c1.4,2.8,6.7,6.7,12.3,8c0,0,0,0,0,0c0,0,0,0,0,0c5.6-1.2,10.9-5.2,12.3-8c0,0,0,0,0,0C45.7,27,40.5,30.7,35.2,31.9z"/>
		<path fill="#FFFFFF" d="M23.7,7.3c0.1,0,0.2-0.1,0.3-0.2c0-0.1,0-0.2,0-0.3C24,6.9,23.9,7,23.8,7c-0.1,0-0.3,0.1-0.4,0.1
			c-0.3,0-0.6-0.1-0.9-0.3c-0.1-0.1-0.1-0.1-0.2-0.2c0,0,0,0,0,0c0,0,0,0,0,0c0,0,0,0,0,0.1c0.1,0.2,0.2,0.3,0.4,0.5
			C22.9,7.3,23.3,7.4,23.7,7.3z"/>
		<path fill="#FFFFFF" d="M45.9,6.4c0-0.1,0-0.2,0-0.3c0,0.1,0,0.1,0,0.2c0.2,0.6,0.9,0.7,1.4,0.5c0.8-0.3,1.1-1.3,0.6-2
			c-0.6-0.9-2.6-2.1-4.8-3.1c-1.2-0.5-4.2-1.7-5.9-1.1c-0.3,0.1-0.5,0.3-0.7,0.4c-0.1-0.1-0.2-0.2-0.4-0.2c0,0,0,0,0-0.1
			c0-0.4-0.5-0.8-1.1-0.8c0,0,0,0,0,0c0,0,0,0,0,0C34.5,0,34,0.4,34,0.8c0,0,0,0,0,0.1c-0.1,0.1-0.3,0.1-0.4,0.2
			c-0.2-0.2-0.4-0.3-0.7-0.4c-1.6-0.6-4.7,0.6-5.9,1.1c-2.3,1-4.3,2.2-4.8,3.1c-0.4,0.6-0.1,1.7,0.6,2c0.5,0.2,1.2,0.1,1.4-0.5
			c0-0.1,0-0.1,0-0.2c0,0.1,0,0.2,0,0.3c0,0.5-0.2,2-0.6,4c-0.6,3.7-1.4,8.8-1.4,12.1c0,2.6,6.2,7.8,12.7,9.2c0,0,0,0,0,0
			c0,0,0,0,0.1,0c6.5-1.4,12.7-6.6,12.7-9.2c0-3.3-0.8-8.4-1.4-12.1C46.1,8.4,45.9,6.9,45.9,6.4z M47.7,5.8
			c-0.1,0.3-0.3,0.4-0.5,0.5c0,0-0.1,0-0.1,0c-0.3,0-0.7,0-0.8-0.4c-0.1-0.3,0.3-0.6,0.5-0.5C46.6,5.6,46.6,6,46.9,6
			c0.3,0,0.4-0.4,0.3-0.6C47.2,5.1,46.9,5,46.6,5c-1,0-1.2,1.1-1.1,1.8c0.1,1,0.3,2,0.4,3c0,0.3,0.1,0.7,0.1,1c0,0-0.1,0-0.1,0
			c-0.3-1.1-0.5-2.6-0.6-3.8c0-0.3,0-0.7,0-1c0.1-0.5,0.3-1,0.8-1.2c0.3-0.2,0.8-0.2,1.1,0C47.6,4.9,47.8,5.4,47.7,5.8z M39.3,1.1
			c0.7,0,2.1,0.2,4.6,1.4c1.2,0.6,2.4,1.4,3.1,1.9c-0.1,0-0.2,0-0.3,0c-0.1,0-0.2,0-0.3,0C43.6,2.4,40.8,1.3,39.3,1.1
			C39.3,1.1,39.3,1.1,39.3,1.1z M37.4,1.2C37.6,1.1,37.9,1,38.2,1c0,0,0,0,0,0.1c-0.5,0.1-0.9,0.4-1,0.7C37,2,37,2.4,37.1,2.7
			c0.1,0.4,0.5,0.5,0.9,0.5c0.1,0,0.2,0,0.4-0.1c0,0,0,0,0,0c0,0-0.1,0.1-0.1,0.1c-0.5,0.3-1.3-0.1-1.5-0.6
			c-0.1-0.1-0.1-0.3-0.1-0.5C36.8,1.8,37,1.4,37.4,1.2z M36.1,3.2C36.1,3.2,36.1,3.2,36.1,3.2c0.4,0,0.7,0,0.8,0.1c0,0,0,0,0,0.1
			c0,0,0,0.1-0.1,0.1c-0.1,0.1-0.4,0-0.8-0.1c0,0,0,0,0,0C36,3.3,36,3.2,36.1,3.2z M35.7,4C35.7,4,35.7,4,35.7,4
			c0-0.1,0-0.2,0.1-0.3c0.3,0.2,0.4,0.5,0.4,0.6c0,0,0,0.1-0.1,0.1c0,0-0.1,0-0.1,0c0,0-0.1-0.1-0.2-0.1c0,0-0.1-0.1-0.1-0.2
			C35.8,4.1,35.8,4.1,35.7,4z M35.8,4.7C35.8,4.7,35.7,4.7,35.8,4.7c-0.1,0.1-0.1,0.1-0.2,0.1c-0.1,0-0.1-0.1-0.2-0.2
			c0.1-0.1,0.1-0.2,0.2-0.3c0,0,0,0.1,0.1,0.1C35.8,4.4,35.8,4.6,35.8,4.7z M35.9,3.6C35.9,3.6,35.9,3.6,35.9,3.6c0,0,0-0.1,0-0.1
			c0,0,0,0,0,0c0.3,0.1,0.6,0.2,0.7,0.4c0,0,0,0.1,0,0.1c0,0,0,0,0,0c0,0,0,0,0,0c0,0,0,0-0.1,0C36.4,4,36.1,3.8,35.9,3.6z
			 M35.1,0.2c0.4,0,0.7,0.2,0.8,0.5c-0.1,0-0.2-0.1-0.3-0.1c-0.1-0.1-0.3-0.2-0.5-0.2c-0.2,0-0.4,0.1-0.5,0.2c-0.1,0-0.2,0-0.3,0.1
			C34.4,0.5,34.7,0.2,35.1,0.2z M34.4,2.6c0.1-0.3,0.4-1.3,0.4-1.8c0,0,0.2-0.1,0.2,0c0,0-0.2,1-0.2,1.1c-0.1,0.4-0.3,0.8-0.3,1
			c0,0.4,0.1,0.7,0.4,1C34.9,4,35,4,35,4.1c0,0,0,0,0.1,0c0,0,0,0,0.1,0C35.2,4,35.3,4,35.3,3.9c0.3-0.3,0.4-0.6,0.4-1
			c0-0.2-0.2-0.6-0.3-1c0-0.1-0.2-1-0.2-1.1c0,0,0.2,0,0.2,0c0,0.5,0.3,1.5,0.4,1.8C35.9,2.8,36,2.9,36,3c-0.1,0.4-0.4,1.3-0.9,1.8
			v0c0,0,0,0,0,0l0,0l0,0c0,0,0,0,0,0v0c-0.4-0.5-0.8-1.4-0.9-1.8C34.2,2.9,34.3,2.8,34.4,2.6z M34.4,4.4c0-0.1,0.1-0.1,0.1-0.2
			c0.1,0.1,0.1,0.2,0.2,0.3c-0.1,0.1-0.1,0.2-0.2,0.2c0,0-0.1,0-0.1,0c0,0,0,0-0.1-0.1C34.3,4.6,34.4,4.5,34.4,4.4z M34.2,4.3
			c-0.1,0.1-0.1,0.2-0.2,0.2c0,0-0.1,0-0.1,0c0,0,0-0.1,0-0.1c0-0.1,0.1-0.3,0.4-0.5c0,0.1,0.1,0.1,0.1,0.2
			C34.4,4.1,34.3,4.2,34.2,4.3z M34.2,3.6C34,3.9,33.8,4,33.7,4c0,0-0.1,0-0.1,0l0,0v0c0,0,0-0.1,0-0.1c0.1-0.1,0.3-0.3,0.6-0.3
			C34.2,3.5,34.2,3.6,34.2,3.6z M33.8,3.1c0,0,0.3,0,0.3,0c0,0.1,0,0.1,0.1,0.2c-0.3,0.1-0.6,0.2-0.7,0.1c-0.1-0.1,0-0.2,0.1-0.2
			C33.6,3.1,33.7,3.1,33.8,3.1z M32.8,1.2c0.4,0.2,0.7,0.6,0.7,1c0,0.2,0,0.3-0.1,0.5c-0.2,0.5-0.9,0.9-1.5,0.6c0,0-0.1-0.1-0.1-0.1
			c0,0,0,0,0,0c0.1,0.1,0.3,0.1,0.4,0.1c0.4,0,0.7-0.1,0.9-0.5c0.1-0.3,0.1-0.7-0.1-1c-0.2-0.3-0.6-0.6-1-0.7c0,0,0,0,0-0.1
			C32.3,1,32.6,1.1,32.8,1.2z M26.3,2.5c2.5-1.2,3.9-1.4,4.6-1.4c0,0,0,0,0,0.1c-1.5,0.2-4.3,1.3-7.1,3.2c-0.1,0-0.1,0-0.3,0
			c-0.1,0-0.2,0-0.3,0C23.8,3.9,25,3.1,26.3,2.5z M24.3,9.9c0.2-1,0.3-2,0.4-3C24.8,6.1,24.6,5,23.6,5c-0.2,0-0.6,0.1-0.6,0.4
			C22.9,5.6,23,6,23.3,6c0.3,0,0.3-0.4,0.1-0.5c0.3,0,0.6,0.2,0.5,0.5c-0.1,0.3-0.5,0.4-0.8,0.4c0,0-0.1,0-0.1,0
			c-0.2-0.1-0.5-0.3-0.5-0.5c-0.1-0.4,0.1-0.9,0.5-1c0.3-0.2,0.8-0.1,1.1,0C24.6,5,24.9,5.5,24.9,6c0,0.3,0,0.7,0,1
			c-0.1,1.2-0.4,2.7-0.6,3.8c0,0-0.1,0-0.1,0C24.2,10.5,24.3,10.2,24.3,9.9z M35.1,31.1L35.1,31.1C35.1,31.1,35.1,31.1,35.1,31.1
			C35.1,31.1,35.1,31.1,35.1,31.1L35.1,31.1c-2.9-0.6-6-2.1-8.5-4c0,0,0,0,0,0c2.6,1.8,5.6,3.1,8.5,3.7c2.9-0.6,5.9-1.9,8.5-3.7
			c0,0,0,0,0,0C41.1,29,38,30.5,35.1,31.1z M46.7,22.8c-0.4,1.4-2.2,3.1-4.8,4.7c-2.5,1.5-5.1,2.5-6.7,2.5h-0.1
			c-1.6,0-4.2-1-6.7-2.5c-2.6-1.6-4.4-3.3-4.8-4.7c-0.3-0.9,0.5-6.3,1-10.7c0.3-2.4,0.6-4.5,0.7-5.5c0.1-0.9-0.3-1.5-0.6-1.8
			c-0.1-0.1-0.1-0.1-0.2-0.2c0.6-0.4,1.2-0.8,1.8-1.1c1.3-0.7,2.6-1.5,4.1-1.8c0.5-0.1,1-0.2,1.4-0.1c0.3,0,0.6,0.2,0.7,0.4
			c0.1,0.2,0.1,0.5-0.1,0.7c-0.2,0.2-0.6,0.2-0.7-0.1c0.2,0,0.3-0.1,0.3-0.3c0-0.2-0.2-0.4-0.4-0.4c-0.3-0.1-0.6,0.2-0.6,0.5
			c-0.1,0.5,0.3,1,0.7,1.2c0.2,0.1,0.5,0.2,0.7,0.1c-0.1,0.3,0,0.6,0.1,0.9c0,0,0,0,0,0c0,0,0,0,0,0c0.3,0.5,0.8,0.6,1.2,0.6
			c0.1,0,0.2,0,0.2,0c0,0,0.3,1,1.2,1c0,0,0,0,0,0v0c0,0,0,0,0,0c0,0,0,0,0,0v0c0,0,0,0,0,0c0.9,0,1.2-0.9,1.2-1c0,0,0.1,0,0.2,0
			c0.3,0,0.9-0.1,1.2-0.6c0,0,0,0,0,0c0,0,0,0,0,0c0.2-0.3,0.2-0.6,0.1-0.9c0.3,0,0.5,0,0.7-0.1c0.4-0.2,0.9-0.7,0.7-1.2
			c-0.1-0.3-0.3-0.5-0.6-0.5c-0.2,0-0.4,0.2-0.4,0.4c0,0.2,0.1,0.3,0.3,0.3c-0.1,0.3-0.5,0.2-0.7,0.1c-0.2-0.2-0.2-0.5-0.1-0.7
			c0.1-0.3,0.5-0.4,0.7-0.4c0.5,0,1,0,1.4,0.1c1.4,0.4,2.8,1.1,4.1,1.8c0.6,0.3,1.2,0.7,1.8,1.1c-0.1,0-0.1,0.1-0.2,0.2
			c-0.3,0.3-0.6,0.8-0.6,1.8c0.1,1,0.4,3.1,0.7,5.5C46.2,16.4,47,21.8,46.7,22.8z"/>
	</g>
	<g>
		<path fill="#FFFFFF" d="M31,41.7c-0.1-0.1-0.2-0.1-0.2-0.2c0-0.1-0.1-0.1-0.1-0.2c0,0,0,0,0,0c0,0.1,0,0.2,0.1,0.3
			c0.1,0.1,0.1,0.1,0.2,0.2c0,0,0,0,0,0C31.1,41.9,31.1,41.8,31,41.7C31.1,41.8,31.1,41.7,31,41.7z"/>
		<path fill="#FFFFFF" d="M36.8,36.8c-0.1,0-0.3-0.1-0.3-0.3c0,0,0,0,0,0v0.1c0,0.2,0.1,0.3,0.3,0.4c0,0,0.2,0.1,0.4,0.3l0-0.1
			C37,36.9,36.8,36.8,36.8,36.8z"/>
		<path fill="#FFFFFF" d="M30.8,40.8c-0.2-0.2-0.6-0.3-1-0.3c-0.1,0-0.3,0-0.4,0v0.1c0,0,0,0,0,0c0.1,0,0.2,0,0.3,0
			c0.5,0,0.8,0.1,1,0.3c0,0,0,0,0,0C30.8,41,30.8,40.9,30.8,40.8C30.8,40.9,30.8,40.9,30.8,40.8z"/>
		<path fill="#FFFFFF" d="M29.7,41.4C29.7,41.4,29.7,41.4,29.7,41.4c-0.1,0.2-0.2,0.4-0.4,0.5V42c0,0,0,0,0,0
			C29.6,41.9,29.7,41.7,29.7,41.4C29.8,41.4,29.8,41.4,29.7,41.4C29.7,41.4,29.7,41.4,29.7,41.4z"/>
		<path fill="#FFFFFF" d="M35.1,41.3C35.1,41.3,35.1,41.3,35.1,41.3C35.1,41.3,35.1,41.3,35.1,41.3c0,0.3,0.1,0.4,0.2,0.5l0-0.1
			C35.3,41.6,35.2,41.4,35.1,41.3C35.1,41.3,35.1,41.3,35.1,41.3z"/>
		<path fill="#FFFFFF" d="M27.3,41.4C27.3,41.4,27.3,41.5,27.3,41.4c0,0.3,0.1,0.5,0.3,0.6c0,0,0,0,0-0.1v-0.1
			C27.5,41.8,27.4,41.6,27.3,41.4z"/>
		<path fill="#FFFFFF" d="M12.6,36.8c-0.1,0-0.3-0.1-0.3-0.3c0,0,0,0,0,0v0.1c0,0.2,0.1,0.3,0.3,0.4c0,0,0.2,0.1,0.4,0.3l0-0.1
			C12.8,36.9,12.6,36.8,12.6,36.8z"/>
		<path fill="#FFFFFF" d="M19.7,37.2C19.7,37.2,19.7,37.2,19.7,37.2C19.8,37.2,19.8,37.2,19.7,37.2c0-0.2,0-0.2,0-0.2
			c-0.2-0.2-0.5-0.2-0.5-0.2c-0.2,0-0.3-0.2-0.3-0.4l0,0v0.1c0,0.2,0.2,0.4,0.3,0.4C19.2,36.9,19.5,37,19.7,37.2
			C19.7,37.2,19.7,37.2,19.7,37.2z"/>
		<path fill="#FFFFFF" d="M27.5,37.2C27.5,37.2,27.5,37.2,27.5,37.2c0-0.1,0-0.2,0-0.2c-0.2-0.2-0.5-0.2-0.5-0.2
			c-0.2,0-0.3-0.2-0.3-0.4v0.2c0,0.2,0.2,0.4,0.3,0.4C26.9,37,27.2,37,27.5,37.2C27.4,37.2,27.5,37.2,27.5,37.2z"/>
		<path fill="#FFFFFF" d="M19.9,41.9c-0.1-0.1-0.2-0.2-0.3-0.3c0-0.1-0.1-0.1-0.1-0.2c0,0,0,0,0,0c0,0.2,0.1,0.3,0.1,0.4
			c0.1,0.1,0.2,0.2,0.3,0.3v0V41.9z"/>
		<path fill="#FFFFFF" d="M23.4,38.1C23.4,38.1,23.4,38.1,23.4,38.1c0-0.2-0.1-0.4-0.2-0.6c-0.3-0.2-0.7-0.4-1.2-0.4
			c-0.1,0-0.2,0-0.3,0l0,0.2c0.1,0,0.2,0,0.3,0c0.5,0,0.9,0.2,1.2,0.4C23.3,37.8,23.3,37.9,23.4,38.1z"/>
		<path fill="#FFFFFF" d="M51.6,41.8c-0.1-0.1-0.2-0.2-0.3-0.3c0,0,0-0.1-0.1-0.2c0,0,0,0,0,0c0,0.1,0,0.2,0.1,0.3
			c0.1,0.1,0.2,0.2,0.3,0.3c0,0,0,0,0-0.1L51.6,41.8z"/>
		<path fill="#FFFFFF" d="M58.1,41.3c-0.1,0.2-0.2,0.3-0.4,0.4l0,0.2c0.2-0.1,0.3-0.3,0.4-0.5C58.2,41.4,58.2,41.4,58.1,41.3
			C58.2,41.3,58.2,41.3,58.1,41.3z"/>
		<path fill="#FFFFFF" d="M66.8,33.1c-0.2-0.2-0.5-0.3-0.9-0.3c-1.1,0-2.6,0.9-3.1,2.5c0,0,0,0,0.1,0c0.6-1.5,2-2.4,3.1-2.4
			c0.4,0,0.7,0.1,0.9,0.3c0.1,0.1,0.2,0.3,0.3,0.5c0,0,0,0,0,0c0,0,0,0,0,0C67.1,33.5,67,33.3,66.8,33.1z"/>
		<path fill="#FFFFFF" d="M47.6,38.2c0-0.3-0.1-0.5-0.3-0.7c-0.3-0.2-0.7-0.4-1.2-0.4c-0.1,0-0.2,0-0.3,0v0.2c0.1,0,0.2,0,0.3,0
			c0.5,0,0.9,0.2,1.2,0.4C47.4,37.8,47.5,38,47.6,38.2C47.6,38.2,47.6,38.2,47.6,38.2z"/>
		<path fill="#FFFFFF" d="M54,37h-0.2c-0.3,0-0.4,0-0.4,0.1c0,0,0,0-0.1,0.1c0,0,0,0.1,0,0.2c0,0,0,0,0,0c0,0,0,0,0,0
			c0-0.1,0-0.1,0.1-0.1c0,0,0.1-0.1,0.4-0.1H54c0.2,0,0.4-0.2,0.4-0.4v-0.2C54.4,36.9,54.2,37,54,37z"/>
		<path fill="#FFFFFF" d="M43.9,37.3C43.9,37.3,43.9,37.3,43.9,37.3c0-0.2,0-0.3-0.1-0.3c-0.2-0.2-0.5-0.2-0.5-0.2
			c-0.2,0-0.3-0.2-0.3-0.4l0,0v0.1c0,0.2,0.2,0.4,0.3,0.4c0,0,0.3,0,0.5,0.2C43.9,37.2,43.9,37.2,43.9,37.3z"/>
		<path fill="#FFFFFF" d="M51.6,37.3C51.6,37.3,51.6,37.3,51.6,37.3c0-0.1,0-0.1,0-0.1c0-0.1,0-0.1-0.1-0.1c0,0-0.1-0.1-0.4-0.1H51
			c-0.2,0-0.4-0.2-0.4-0.4v0.2c0,0.2,0.2,0.4,0.4,0.4h0.2C51.5,37.2,51.6,37.2,51.6,37.3C51.6,37.3,51.6,37.3,51.6,37.3z"/>
		<path fill="#FFFFFF" d="M44.1,41.9c-0.1-0.1-0.2-0.2-0.3-0.3c0-0.1-0.1-0.1-0.1-0.2c0,0,0,0,0,0c0,0.2,0.1,0.3,0.1,0.4
			c0.1,0.1,0.2,0.2,0.3,0.3c0,0,0,0,0,0V41.9z"/>
		<path fill="#FFFFFF" d="M31.9,38.5h-0.2c-0.2,0-0.3-0.1-0.4-0.3c0-0.1,0-0.2-0.1-0.3c0-0.1-0.1-0.2-0.2-0.3
			c-0.1-0.1-0.1-0.2-0.2-0.2c0,0-0.1-0.1-0.1-0.1c-0.1,0-0.2,0-0.3,0c0,0-0.1,0-0.1,0h-1v0.2h1c0,0,0.1,0,0.1,0c0.1,0,0.2,0,0.3,0
			c0.1,0,0.1,0,0.1,0.1c0.1,0.1,0.1,0.1,0.2,0.2c0.1,0.1,0.1,0.2,0.2,0.3c0,0.1,0.1,0.2,0.1,0.3c0,0.2,0.2,0.3,0.4,0.3h0.2
			c0.2,0,0.4-0.2,0.4-0.4c0,0,0,0,0-0.1l0,0C32.3,38.4,32.1,38.5,31.9,38.5z"/>
		<path fill="#FFFFFF" d="M49.4,39.1C49.4,39.1,49.4,39.1,49.4,39.1c-0.1,0.2-0.1,0.4-0.2,0.6c-0.2,0.3-0.4,0.6-0.8,0.8
			c-0.3,0.2-0.7,0.4-1,0.5c-0.4,0.1-0.7,0.1-1.1,0.1c0,0,0,0.1,0,0.1c-0.1,0.3-0.3,0.6-0.5,0.6v0c0,0,0,0,0,0c0,0,0,0.1,0,0.1
			c0.2-0.1,0.4-0.3,0.5-0.6c0,0,0-0.1,0-0.1c0.4,0,0.8,0,1.1-0.1c0.4-0.1,0.7-0.3,1-0.5c0.3-0.2,0.6-0.5,0.8-0.8
			C49.3,39.6,49.4,39.4,49.4,39.1C49.4,39.1,49.4,39.1,49.4,39.1z"/>
		<path fill="#FFFFFF" d="M46.9,43.7c-0.1,0.1-0.2,0.2-0.3,0.2h-3.2c-0.1,0-0.3-0.1-0.3-0.2c0,0,0,0,0,0c0,0.2,0.2,0.4,0.4,0.4h3.2
			C46.7,44.1,46.9,43.9,46.9,43.7L46.9,43.7C46.9,43.7,46.9,43.7,46.9,43.7z"/>
		<path fill="#FFFFFF" d="M39,42L39,42c0.1,0.2,0.1,0.4,0.2,0.5c0.1,0.2,0.1,0.3,0.1,0.4c0,0,0,0,0.1,0c0-0.1-0.1-0.2-0.2-0.5
			c-0.1-0.1-0.1-0.3-0.2-0.4l0-0.1c-0.3,0-0.6-0.3-0.8-0.7c0-0.1,0-0.1,0-0.2h-0.8c0,0,0,0.1,0,0.1c0,0,0,0,0,0.1h0.7
			c0,0.1,0,0.1,0,0.2C38.4,41.7,38.7,42,39,42z"/>
		<path fill="#FFFFFF" d="M41.9,43.7c-0.1,0.1-0.2,0.2-0.3,0.2h-2.7c-0.1,0-0.3-0.1-0.3-0.2c0,0,0,0,0,0c0,0.2,0.2,0.3,0.4,0.3h2.7
			C41.8,44.1,42,43.9,41.9,43.7L41.9,43.7C42,43.7,41.9,43.7,41.9,43.7z"/>
		<path fill="#FFFFFF" d="M37.5,41.2c0,0.2-0.2,0.4-0.2,0.4c-0.1,0.2-0.3,0.3-0.6,0.3c0,0-0.1,0-0.1,0c-0.1,0.2-0.2,0.4-0.2,0.6
			c0,0.1,0,0.1,0,0.1c0,0,0,0,0,0.1c0,0,0,0,0,0c0-0.1,0.1-0.3,0.2-0.6c0,0,0.1,0,0.1,0c0.2,0,0.4-0.1,0.6-0.3
			C37.3,41.8,37.5,41.5,37.5,41.2C37.5,41.2,37.5,41.2,37.5,41.2z"/>
		<path fill="#FFFFFF" d="M10.9,41.3C10.9,41.3,10.9,41.3,10.9,41.3c0,0.3,0.1,0.4,0.2,0.5l0-0.1C11.1,41.6,11,41.4,10.9,41.3
			C10.9,41.3,10.9,41.3,10.9,41.3z"/>
		<path fill="#FFFFFF" d="M37.1,43.7c-0.1,0.1-0.2,0.2-0.3,0.2h-2.3c-0.2,0-0.3-0.1-0.3-0.2c0,0,0,0,0,0v0c0,0.2,0.2,0.4,0.4,0.4
			h2.3C37,44.1,37.2,43.9,37.1,43.7L37.1,43.7C37.1,43.7,37.1,43.7,37.1,43.7z"/>
		<path fill="#FFFFFF" d="M70.1,32.7c0,0.1-0.1,0.2-0.1,0.2c-0.1,0.1-0.1,0.1-0.2,0.1h0c-0.1,0-0.3,0-0.6,0.4
			c-0.2,0.2-0.3,0.3-0.4,0.6c0,0,0,0,0,0c0.1-0.2,0.2-0.3,0.3-0.5c0.3-0.3,0.6-0.4,0.6-0.4l0,0c0.1,0,0.2,0,0.2-0.1
			c0.1-0.1,0.1-0.2,0.1-0.3L70.1,32.7C70.1,32.7,70.1,32.7,70.1,32.7z"/>
		<path fill="#FFFFFF" d="M56,39v-0.2c-0.9,1.6-2.7,4.8-2.7,4.8c0,0,0,0,0,0.1C53.2,43.9,53,44,52.7,44c0,0-0.1,0-0.1,0
			c0,0-1.7,0-1.7,0c-0.1,0-0.3-0.1-0.3-0.2c0,0,0,0,0,0c0,0.2,0.2,0.3,0.4,0.3c0,0,1.7,0,1.7,0c0,0,0.1,0,0.1,0
			c0.2,0,0.5-0.2,0.6-0.4c0,0,0,0,0-0.1C53.4,43.8,55.1,40.6,56,39C56,39,56,39,56,39z"/>
		<path fill="#FFFFFF" d="M69.3,35.4C69.3,35.4,69.3,35.4,69.3,35.4c-0.2,0.4-0.5,0.7-1,0.7h0c0,0,0,0-0.1,0c-0.3,0-0.6-0.2-0.8-0.4
			c-0.2-0.2-0.2-0.4-0.3-0.6c0,0,0,0,0,0c0,0.3,0.1,0.5,0.3,0.8c0.2,0.2,0.4,0.3,0.8,0.4c0,0,0,0,0.1,0l0,0
			C68.9,36.2,69.3,35.9,69.3,35.4C69.4,35.4,69.4,35.4,69.3,35.4z"/>
		<path fill="#FFFFFF" d="M25.3,38.7c0,0.4-0.1,0.7-0.3,1c-0.2,0.3-0.4,0.6-0.8,0.8c-0.3,0.2-0.7,0.4-1,0.5
			c-0.4,0.1-0.7,0.1-1.1,0.1c0,0,0,0.1,0,0.1c-0.1,0.3-0.3,0.6-0.5,0.6v0c0,0,0,0,0,0c0,0,0,0.1,0,0.1c0.2-0.1,0.4-0.3,0.5-0.6
			c0,0,0-0.1,0-0.1c0.4,0,0.8,0,1.1-0.1c0.4-0.1,0.7-0.3,1-0.5c0.3-0.2,0.6-0.5,0.8-0.8C25.2,39.5,25.3,39.1,25.3,38.7
			C25.3,38.7,25.3,38.7,25.3,38.7z"/>
		<path fill="#FFFFFF" d="M69.1,43.4c0,0.1-0.1,0.1-0.1,0.2c-0.1,0.1-1.4,0.9-3,0.9c-0.1,0-0.1,0-0.2,0c-0.9,0-1.7-0.2-2.4-0.5
			c-0.7-0.3-1.3-0.7-1.8-1.3c-0.2-0.3-0.4-0.6-0.6-1.1c0,0,0,0,0,0c-0.2,0-0.4-0.1-0.6-0.2c-0.1-0.1-0.1-0.2-0.2-0.3c0,0,0,0,0,0
			c0,0.2,0.2,0.4,0.2,0.4c0.1,0.2,0.3,0.2,0.6,0.2c0,0,0,0,0,0c0.2,0.4,0.4,0.8,0.6,1.1c0.5,0.6,1.1,1,1.8,1.3
			c0.8,0.3,1.6,0.5,2.4,0.5c0.1,0,0.1,0,0.2,0c1.6,0,2.9-0.8,3-0.9C69,43.7,69.1,43.6,69.1,43.4C69.1,43.4,69.1,43.4,69.1,43.4
			C69.1,43.4,69.1,43.4,69.1,43.4z"/>
		<path fill="#FFFFFF" d="M56,41.8c-0.1-0.1-0.2-0.2-0.2-0.3c0-0.1-0.1-0.1-0.1-0.2c0,0,0,0,0,0c0,0.1,0,0.3,0.1,0.4
			c0.1,0.1,0.1,0.2,0.2,0.3c0,0,0,0,0.1,0L56,41.8C56,41.8,56,41.8,56,41.8z"/>
		<path fill="#FFFFFF" d="M58.8,43.8C58.7,44,58.6,44,58.4,44h-3.1c-0.1,0-0.2-0.1-0.3-0.2c0,0,0,0,0,0c0,0.2,0.2,0.3,0.4,0.3h3.1
			C58.6,44.2,58.8,44,58.8,43.8C58.8,43.8,58.8,43.8,58.8,43.8z"/>
		<path fill="#FFFFFF" d="M58.8,36.8c0,0.2-0.2,0.3-0.3,0.3l-0.2,0c-0.3,0-0.4,0.1-0.4,0.1c0,0,0,0-0.1,0.1c0,0.1,0,0.1,0,0.2
			c0,0,0,0,0,0v0c0-0.1,0-0.1,0.1-0.1c0,0,0.1-0.1,0.4-0.1l0.2,0C58.7,37.2,58.8,37,58.8,36.8L58.8,36.8
			C58.8,36.8,58.8,36.8,58.8,36.8z"/>
		<path fill="#FFFFFF" d="M33.2,41.4c-0.1,0.2-0.2,0.3-0.3,0.4c-0.1,0.7-0.4,1.3-0.9,1.6c-0.3,0.2-0.6,0.4-1,0.5
			c-0.4,0.1-0.7,0.1-1.1,0.1c0,0-0.1,0-0.2,0c-0.1,0-0.2,0-0.3,0l-0.4,0c-0.1,0-0.2,0-0.4,0H27c-0.1,0-0.3-0.1-0.3-0.2c0,0,0,0,0,0
			c0,0.2,0.2,0.4,0.4,0.4h1.5c0.1,0,0.2,0,0.4,0l0.4,0c0.1,0,0.2,0,0.3,0c0.1,0,0.2,0,0.2,0c0.4,0,0.8,0,1.1-0.1
			c0.4-0.1,0.7-0.3,1-0.5c0.5-0.3,0.8-1,0.9-1.6C33,41.8,33.1,41.7,33.2,41.4C33.2,41.4,33.2,41.4,33.2,41.4
			C33.2,41.4,33.2,41.4,33.2,41.4z"/>
		<path fill="#FFFFFF" d="M4,41.3c-0.1,0.2-0.2,0.4-0.4,0.4c0,0.1,0,0.1,0,0.2C3.8,41.8,4,41.6,4,41.3C4,41.3,4,41.3,4,41.3z"/>
		<path fill="#FFFFFF" d="M7,39.4C7,39.4,7,39.4,7,39.4c-0.1-0.5-0.2-0.9-0.5-1.2c-0.4-0.4-1.1-0.6-1.9-0.6c-0.3,0-0.5,0-0.6,0
			c-0.1,0-0.2,0-0.3,0c0,0,0,0.1,0,0.2c0.1,0,0.2,0,0.3,0c0.2,0,0.4,0,0.6,0c0.9,0,1.5,0.2,1.9,0.6C6.7,38.6,6.9,39,7,39.4z"/>
		<path fill="#FFFFFF" d="M5.6,33.6C5.6,33.6,5.6,33.6,5.6,33.6C5.6,33.6,5.6,33.6,5.6,33.6c0-0.3-0.1-0.4-0.2-0.5l-1.8,0l0,0.2
			c0,0,0,0,0,0l1.8,0C5.4,33.4,5.5,33.5,5.6,33.6z"/>
		<path fill="#FFFFFF" d="M7.9,35.3c-0.1,0.4-0.5,0.7-1,0.7c-0.3,0-0.5-0.1-0.7-0.2c-0.3-0.2-0.5-0.6-0.5-0.9c0,0,0,0,0,0
			c0,0.4,0.1,0.8,0.5,1.1c0.2,0.2,0.5,0.2,0.7,0.2C7.4,36.2,7.8,35.9,7.9,35.3C7.9,35.4,7.9,35.4,7.9,35.3z"/>
		<path fill="#FFFFFF" d="M1.4,33.7C1.5,33.7,1.5,33.7,1.4,33.7c0-0.5-0.1-0.7-0.2-0.7c-0.4-0.4-0.9-0.4-0.9-0.4
			c-0.2,0-0.3-0.2-0.3-0.4v0.2c0,0.2,0.2,0.4,0.3,0.4c0,0,0.5,0,0.9,0.4C1.3,33.2,1.4,33.4,1.4,33.7z"/>
		<path fill="#FFFFFF" d="M8.4,32.8L8.4,32.8c0.1,0,0.2,0,0.2-0.1c0.1-0.1,0.1-0.2,0.1-0.3v-0.2c0,0.1,0,0.2-0.1,0.3
			c-0.1,0.1-0.1,0.1-0.2,0.1l0,0c-0.1,0-0.5,0.1-0.9,0.4c-0.2,0.2-0.3,0.5-0.4,0.9c0,0,0,0,0,0c0.1-0.3,0.2-0.5,0.4-0.7
			C7.9,32.9,8.3,32.8,8.4,32.8z"/>
		<path fill="#FFFFFF" d="M9.6,41.2c-0.1,0.3-0.4,0.5-0.7,0.6c0,0,0,0,0,0c-0.2,0.5-0.7,0.9-1,1.1c-1.3,0.9-3.1,1-4,1
			c-0.3,0-0.4,0-0.5,0l-2.8,0c-0.1,0-0.3-0.1-0.3-0.2c0,0,0,0,0,0v0c0,0.2,0.2,0.4,0.4,0.4h2.8c0,0,0.2,0,0.5,0c0.9,0,2.7-0.1,4-1
			c0.3-0.2,0.8-0.6,1-1.1c0,0,0,0,0,0C9.3,41.9,9.5,41.7,9.6,41.2C9.6,41.3,9.6,41.3,9.6,41.2z"/>
		<path fill="#FFFFFF" d="M14.8,42L14.8,42c0.1,0.2,0.1,0.4,0.2,0.5c0.1,0.2,0.1,0.3,0.1,0.4c0,0,0,0,0.1,0c0-0.1-0.1-0.2-0.2-0.5
			c-0.1-0.1-0.1-0.3-0.2-0.4l0-0.1c-0.3,0-0.6-0.3-0.8-0.7c0-0.1,0-0.1,0-0.2h-0.8c0,0,0,0.1,0,0.1c0,0,0,0,0,0.1H14
			c0,0.1,0,0.1,0,0.2C14.2,41.7,14.5,42,14.8,42z"/>
		<path fill="#FFFFFF" d="M17.7,43.7c-0.1,0.1-0.2,0.2-0.3,0.2h-2.7c-0.2,0-0.3-0.1-0.3-0.2c0,0,0,0,0,0v0c0,0.2,0.2,0.4,0.4,0.4
			h2.7C17.6,44.1,17.8,43.9,17.7,43.7L17.7,43.7C17.8,43.7,17.8,43.7,17.7,43.7z"/>
		<path fill="#FFFFFF" d="M13.3,41.2c0,0.2-0.2,0.4-0.2,0.4c-0.1,0.2-0.3,0.3-0.6,0.3c0,0-0.1,0-0.1,0c-0.1,0.2-0.2,0.4-0.2,0.6
			c0,0.1,0,0.1,0,0.1c0,0,0,0,0,0.1c0,0,0,0,0,0c0-0.1,0.1-0.3,0.2-0.6c0,0,0.1,0,0.1,0c0.2,0,0.4-0.1,0.6-0.3
			C13.1,41.8,13.3,41.5,13.3,41.2C13.3,41.2,13.3,41.2,13.3,41.2z"/>
		<path fill="#FFFFFF" d="M1.1,41.2C1.1,41.2,1.1,41.2,1.1,41.2L1.1,41.2c0,0.4,0.2,0.6,0.5,0.7c0-0.1,0-0.1,0-0.2
			C1.4,41.7,1.2,41.5,1.1,41.2z"/>
		<path fill="#FFFFFF" d="M22.7,43.7c-0.1,0.1-0.2,0.2-0.3,0.2h-3.2c-0.1,0-0.3-0.1-0.3-0.2c0,0,0,0,0,0l0,0c0,0.2,0.2,0.4,0.4,0.4
			h3.2C22.6,44.1,22.7,43.9,22.7,43.7L22.7,43.7C22.7,43.7,22.7,43.7,22.7,43.7z"/>
		<path fill="#FFFFFF" d="M12.9,43.7c-0.1,0.1-0.2,0.2-0.3,0.2h-2.3c-0.2,0-0.3-0.1-0.3-0.2c0,0,0,0,0,0v0c0,0.2,0.2,0.4,0.4,0.4
			h2.3C12.8,44.1,13,43.9,12.9,43.7L12.9,43.7C13,43.7,12.9,43.7,12.9,43.7z"/>
		<path fill="#FFFFFF" d="M30.7,39.9"/>
		<g>
			<path fill="#FFFFFF" d="M69.8,32.1C69.8,32.1,69.8,32.1,69.8,32.1c-0.1,0-0.1,0-0.1,0c0,0-0.2,0.1-0.6,0.1c-0.2,0-0.5,0-0.7-0.1
				c-1-0.3-1.9-0.5-2.7-0.5c-2.9,0-4.2,2.2-4.6,3.1c-0.3,0.8-0.5,1.7-0.6,2.8c-0.1,1,0,1.9,0.2,2.6c0,0.1-0.2,0.4-0.3,0.4
				c-0.1,0-0.1,0-0.1,0.1c-0.1,0.1,0.1,0.4,0.2,0.5c0.1,0.1,0.2,0.2,0.4,0.2c0.1,0,0.1,0,0.2,0c0.2,0.5,0.4,0.9,0.7,1.2
				c0.4,0.5,1,1,1.7,1.2c0.7,0.3,1.5,0.5,2.4,0.5c0.1,0,0.1,0,0.2,0c1.6,0,2.8-0.8,2.9-0.9c0,0,0-0.1,0.1-0.1c0-0.4,0-0.5-0.1-0.6
				c0,0,0,0-0.1,0c0,0,0,0-0.1,0c0,0-1.1,0.6-2.5,0.6c-0.1,0-0.2,0-0.3,0c-0.7,0-1.2-0.2-1.8-0.5c-0.5-0.3-0.9-0.7-1.3-1.2
				c-0.1-0.1-0.2-0.3-0.3-0.4c0.1-0.1,0.1-0.2,0.2-0.3c0,0,0-0.1,0-0.1c0,0-0.1,0-0.1,0c0,0,0,0,0,0c-0.1,0-0.4-0.1-0.5-0.9
				c-0.1-0.6-0.2-1.4-0.1-2.3c0.1-0.8,0.2-1.6,0.5-2.4c0.6-1.8,2.2-2.7,3.4-2.7c0.5,0,0.8,0.1,1.1,0.4c0.3,0.3,0.4,0.7,0.4,1.3
				c0,0.1,0,0.1,0,0.2l0,0.1c-0.1,0.6,0.1,1.4,0.9,1.4c0,0,0,0,0.1,0c1,0,1.1-1.3,0.4-1.6c-0.1,0-0.2-0.1-0.2-0.1c0,0,0,0,0,0
				c0,0-0.1,0-0.1,0c0.1-0.6,0.2-0.7,0.5-1c0.5-0.4,0.8-0.5,0.8-0.5c0,0,0,0,0,0c0,0,0,0,0,0c0,0,0.1,0,0.1,0c0,0,0-0.1,0-0.1l0-0.4
				C69.9,32.2,69.8,32.2,69.8,32.1z M62,40.4c0,0.1,0.1,0.3,0.1,0.3c0,0.1,0.1,0.1,0.1,0.2c0.1,0.1,0.1,0.1,0.2,0.1c0,0,0,0,0,0.1
				c0,0,0,0,0,0c0,0,0,0,0,0c0,0-0.1,0-0.1,0c-0.1,0-0.2,0-0.2-0.1c0,0-0.1-0.1-0.1-0.1c0,0,0,0,0,0c0,0-0.1,0-0.1,0.1
				c0,0.1-0.1,0.2-0.3,0.2c-0.1,0-0.2-0.1-0.3-0.2c0,0,0-0.1-0.1-0.1c0,0,0,0,0,0c0,0-0.1,0-0.1,0c0,0,0,0,0,0c0,0,0,0,0,0
				c0,0,0,0,0,0c0,0-0.1,0-0.1,0c-0.1,0-0.3-0.1-0.3-0.3c0.1-0.1,0.2-0.1,0.3-0.4c0-0.1,0-0.1,0.1-0.2l0,0c0,0,0,0,0-0.1
				c0-0.1-0.1-0.5-0.2-1.1h0.1c0.1,0.6,0.3,1.3,0.6,1.3c0.2,0,0.3-0.7,0.3-1.3h0.1c0,0.4,0.1,0.8,0.1,0.9C61.9,40.1,62,40.2,62,40.4
				C62,40.3,62,40.3,62,40.4z M68.7,34.7c0.2,0,0.2,0.4,0.1,0.5c-0.2,0.3-0.8,0.3-1,0c0-0.1-0.1-0.2-0.1-0.3c-0.1-0.3,0-0.7,0-1.1
				c0-0.3-0.1-0.7-0.3-1c0.1,0,0.3,0.5,0.4,0.7c0.1,0.3,0.1,0.6,0.1,1c0,0,0,0.1,0,0.1c0,0.2,0.1,0.5,0.3,0.5
				C68.5,35.2,68.7,35,68.7,34.7z"/>
			<path fill="#FFFFFF" d="M32.8,41.1c-0.1,0-0.2-0.1-0.3-0.3c-0.1-0.2-0.3-0.5-0.7-0.8c-0.3-0.2-0.6-0.3-0.9-0.4
				c-0.3-0.1-0.7-0.1-1-0.1c-0.1,0-0.3,0-0.5,0c-0.1,0-0.2,0-0.3,0l0,0c0,0,0,0,0,0v-2.6h1.3c0.1,0,0.1,0,0.1,0c0.1,0,0.2,0,0.3,0.1
				c0.1,0,0.2,0.1,0.2,0.1c0.1,0.1,0.1,0.2,0.2,0.3c0.1,0.1,0.1,0.2,0.2,0.4c0,0.1,0.1,0.2,0.1,0.4c0,0.1,0.1,0.1,0.1,0.1h0.2
				c0.1,0,0.1-0.1,0.1-0.1c0,0,0,0,0,0L32,36.2c0-0.1-0.1-0.1-0.1-0.1h-2c0,0,0,0,0,0H27c-0.1,0-0.1,0.1-0.1,0.1v0.2
				c0,0.1,0.1,0.1,0.1,0.1c0,0,0.4,0,0.7,0.3c0.1,0.1,0.3,0.7,0.3,1.8c0,0.2,0,0.5,0,0.7c0,0.4,0,0.8,0,1.1c0,0.1,0,0.2,0,0.2
				c0,0.1-0.1,0.2-0.2,0.2c-0.1,0.1-0.2,0.1-0.2,0.2c0,0.3,0.2,0.4,0.4,0.5V42c0,0.3,0,0.7,0,0.8c0,0.1-0.1,0.2-0.2,0.3
				c-0.1,0-0.2,0.1-0.5,0.1H27c-0.1,0-0.1,0.1-0.1,0.1v0.3c0,0.1,0.1,0.1,0.1,0.1h1.5c0.1,0,0.2,0,0.4,0l0.4,0c0.1,0,0.2,0,0.4,0
				c0.1,0,0.2,0,0.2,0c0.4,0,0.7,0,1.1-0.1c0.3-0.1,0.7-0.2,0.9-0.4c0.4-0.3,0.8-1,0.8-1.6c0.2-0.1,0.3-0.1,0.3-0.4
				C33,41.2,33,41.2,32.8,41.1C32.9,41.1,32.9,41.1,32.8,41.1z M29,41.4C29,41.4,29,41.4,29,41.4L29,41.4C29,41.4,29,41.4,29,41.4
				c-0.1,0-0.1,0-0.1-0.1c0,0-0.1-0.1-0.1-0.1c0,0,0,0,0,0c0,0-0.1,0-0.1,0.1c0,0.1-0.2,0.2-0.2,0.2c0,0-0.1,0-0.2-0.2
				c0,0-0.1-0.1-0.1-0.1c0,0,0,0,0,0c0,0-0.1,0-0.1,0.1c0,0,0,0.1-0.1,0.1c0,0,0,0,0,0h0c0,0,0,0,0,0c0,0,0,0,0,0c0,0-0.1,0-0.2-0.1
				c0,0,0.2-0.2,0.2-0.2c0-0.1,0.1-0.1,0.1-0.2c0-0.1,0-1.3,0-1.3h0.1c0.1,0.8,0.2,1.3,0.3,1.3c0.1,0,0.2-0.5,0.3-1.3h0.1l0,1.1
				c0,0,0,0,0,0c0,0.2,0.1,0.5,0.3,0.6C29.2,41.3,29.1,41.4,29,41.4C29,41.4,29,41.4,29,41.4z M31.3,41.7c0,0.4-0.3,0.7-0.5,0.9
				c-0.1,0.1-0.3,0.2-0.5,0.3c-0.2,0.1-0.4,0.1-0.6,0.1h-0.2c-0.1,0-0.1,0-0.2,0c-0.1,0-0.1,0-0.1,0c0-0.1-0.1-0.1-0.1-0.2
				c0-0.1,0-0.4,0-0.7v-0.3c0.1,0,0.3-0.2,0.4-0.5c0,0,0-0.1,0-0.1c0,0-0.1,0-0.1,0c0,0,0,0,0,0h0c-0.1,0-0.2-0.2-0.2-0.4v-0.3
				c0,0,0,0,0,0c0.1,0,0.1,0,0.2,0c0.1,0,0.2,0,0.4,0c0.5,0,0.9,0.1,1.2,0.4c0.1,0.1,0.2,0.2,0.2,0.2c0,0.1,0,0.1-0.1,0.1
				c-0.1,0.1-0.1,0.2,0,0.3c0,0.1,0.1,0.1,0.1,0.1C31.2,41.5,31.3,41.6,31.3,41.7C31.3,41.6,31.3,41.7,31.3,41.7z M32.5,41.3
				C32.5,41.3,32.5,41.4,32.5,41.3C32.5,41.4,32.5,41.4,32.5,41.3L32.5,41.3c-0.1,0-0.1,0-0.2-0.1c0,0-0.1-0.1-0.1-0.1c0,0,0,0,0,0
				c0,0-0.1,0-0.1,0.1c0,0.1-0.2,0.2-0.2,0.2c0,0-0.1,0-0.2-0.2c0,0-0.1-0.1-0.1-0.1c0,0,0,0,0,0c0,0-0.1,0-0.1,0.1
				c0,0-0.1,0.1-0.1,0.1c0,0,0,0,0,0l0,0c0,0,0,0,0,0c0,0,0,0,0,0c0,0-0.1,0-0.2-0.1c0.1,0,0.1-0.1,0.2-0.2c0,0,0-0.1,0-0.1
				c-0.1-0.2-0.2-0.3-0.3-0.5c0,0-0.1,0-0.1-0.1c0,0,0,0,0,0c0.3,0.1,0.4,0.5,0.8,0.4c0.3,0,0-0.4-0.1-0.5c-0.2-0.2-0.5-0.4-0.7-0.5
				c0.6,0.1,1,0.5,1.4,1c0.1,0.2,0.2,0.3,0.3,0.4C32.6,41.3,32.6,41.3,32.5,41.3z"/>
			<path fill="#FFFFFF" d="M17.4,43.1c-0.2,0-0.4-0.1-0.5-0.2c-0.1-0.1-0.2-0.2-0.3-0.3l-0.3-0.7l-0.1-0.4c0.1-0.1,0.3-0.3,0.3-0.4
				c0-0.2-0.2-0.2-0.3-0.2c-0.2-0.1-0.3-0.2-0.3-0.3c0,0-1.7-4.3-1.7-4.3c0-0.1-0.1-0.1-0.1-0.1h-1.4c-0.1,0-0.1,0.1-0.1,0.1v0.2
				c0,0.1,0,0.1,0.1,0.1c0,0,0.3,0,0.7,0.6l-1.4,3.4c-0.3,0.3-0.6,0.5-0.6,0.5c0,0,0,0,0,0c0,0-0.1,0-0.1,0c0,0,0,0.1,0,0.1
				c0,0.3,0.2,0.4,0.3,0.5c0,0.1,0,0.1-0.1,0.1l-0.2,0.5c-0.1,0.3-0.2,0.5-0.3,0.6c-0.1,0.1-0.3,0.2-0.6,0.3c-0.1,0-0.1,0.1-0.1,0.1
				v0.3c0,0.1,0.1,0.1,0.1,0.1h2.3c0.1,0,0.1-0.1,0.1-0.1v-0.3c0-0.1-0.1-0.1-0.1-0.1c-0.2,0-0.4,0-0.5-0.1c-0.1,0-0.2-0.2-0.2-0.4
				c0,0,0-0.1,0-0.2c0.1-0.1,0.2-0.4,0.3-0.7c0,0,0.1,0,0.1-0.1c0.1,0,0.1,0.1,0.2,0.1c0.1,0,0.3-0.1,0.4-0.2
				c0.1-0.1,0.2-0.4,0.1-0.5c-0.1,0-0.1,0-0.2-0.1c-0.1-0.1-0.1-0.2-0.1-0.2h1.8c-0.1,0.1-0.2,0.2-0.2,0.2c0,0-0.1,0.1,0,0.2
				c0.1,0.3,0.4,0.6,0.7,0.5c0.1,0.2,0.2,0.4,0.3,0.7c0.2,0.5,0.2,0.6,0.2,0.6c0,0.1,0,0.2-0.1,0.2c-0.1,0-0.2,0.1-0.6,0.1
				c-0.1,0-0.1,0.1-0.1,0.1v0.3c0,0.1,0.1,0.1,0.1,0.1h2.7c0.1,0,0.1-0.1,0.1-0.1v-0.3C17.5,43.2,17.5,43.1,17.4,43.1z M12.8,41.2
				c0,0.1-0.1,0.2-0.2,0.2c-0.1,0-0.1,0-0.2-0.1c0,0,0-0.1-0.1-0.1c0,0,0,0,0,0c0,0,0,0,0,0c-0.1,0-0.1,0-0.1,0.1c0,0,0,0.1,0,0.1
				c0,0,0,0,0,0c0,0,0,0,0,0c-0.1,0-0.1,0-0.1-0.1c0-0.1,0-0.1-0.1-0.1c0,0,0,0,0,0c0,0,0,0,0,0c0,0-0.1,0-0.1,0.1c0,0,0,0,0,0
				c0,0,0,0,0,0h0c-0.1,0-0.1-0.1-0.2-0.2c0.1-0.1,0.3-0.2,0.5-0.3c0,0,0.1-0.1,0.1-0.1c0,0,0.1,0,0.1-0.1c0,0,0,0,0,0l0.1-0.2
				l0.1-0.2l0.3-0.7h0.1c0,0-0.2,0.5-0.2,0.8C12.4,40.5,12.4,41.1,12.8,41.2z M13.7,37.9l0.3,0.8c0,0,0,0,0,0l0.4,1.3h-1.5
				L13.7,37.9z M12.7,40.5l0-0.2h1.7l0,0.2H12.7z M16.1,41.3C16,41.3,16,41.3,16.1,41.3C16,41.3,16,41.3,16.1,41.3
				C16,41.3,16,41.3,16.1,41.3c-0.1,0-0.1,0-0.2,0c0,0-0.1-0.1-0.1-0.1c0,0,0,0,0,0c0,0-0.1,0-0.1,0.1c0,0.2-0.2,0.2-0.2,0.2
				c-0.1,0-0.2,0-0.2-0.2c0,0,0-0.1-0.1-0.1c0,0,0,0,0,0c0,0-0.1,0-0.1,0.1c0,0,0,0,0,0c0,0,0,0,0,0c0,0-0.1,0-0.1,0
				c-0.1,0-0.2-0.1-0.3-0.3c0,0,0.2-0.3,0.2-0.4c0-0.1,0-0.2,0-0.3c-0.1-0.2-0.2-0.5-0.3-0.9h0.1c0,0,0.3,0.8,0.5,1.1
				c0.3,0.3,0.3-0.2,0.2-0.5c-0.1-0.3-0.2-0.6-0.2-0.6l0.1,0l0.1,0.2l0.2,0.4l0.2,0.5c0,0.1,0.1,0.2,0.2,0.3c0,0,0.1,0.1,0.1,0.1
				c0.1,0.1,0.3,0.2,0.4,0.2C16.2,41.2,16.1,41.3,16.1,41.3z"/>
			<path fill="#FFFFFF" d="M41.6,43.1c-0.2,0-0.4-0.1-0.5-0.2c-0.1-0.1-0.2-0.2-0.3-0.3l-0.3-0.7l-0.1-0.4c0.1-0.1,0.3-0.3,0.3-0.4
				c0-0.2-0.2-0.2-0.3-0.2c-0.2-0.1-0.3-0.2-0.3-0.3c0,0-1.7-4.3-1.7-4.3c0-0.1-0.1-0.1-0.1-0.1h-1.4c-0.1,0-0.1,0.1-0.1,0.1v0.2
				c0,0.1,0,0.1,0.1,0.1c0,0,0.3,0,0.7,0.6l-1.4,3.4c-0.3,0.3-0.6,0.5-0.6,0.5c0,0,0,0,0,0c0,0-0.1,0-0.1,0c0,0,0,0.1,0,0.1
				c0,0.3,0.2,0.4,0.3,0.5c0,0.1,0,0.1-0.1,0.1l-0.2,0.5c-0.1,0.3-0.2,0.5-0.3,0.6c-0.1,0.1-0.3,0.2-0.6,0.3c-0.1,0-0.1,0.1-0.1,0.1
				v0.3c0,0.1,0.1,0.1,0.1,0.1h2.3c0.1,0,0.1-0.1,0.1-0.1v-0.3c0-0.1-0.1-0.1-0.1-0.1c-0.2,0-0.4,0-0.5-0.1c-0.1,0-0.2-0.2-0.2-0.4
				c0,0,0-0.1,0-0.2c0.1-0.1,0.2-0.4,0.3-0.7c0,0,0.1,0,0.1-0.1c0.1,0,0.1,0.1,0.2,0.1c0.1,0,0.3-0.1,0.4-0.2
				c0.1-0.1,0.2-0.4,0.1-0.5c-0.1,0-0.1,0-0.2-0.1c-0.1-0.1-0.1-0.2-0.1-0.2h1.8c-0.1,0.1-0.2,0.2-0.2,0.2c0,0-0.1,0.1,0,0.2
				c0.1,0.3,0.4,0.6,0.7,0.5c0.1,0.2,0.2,0.4,0.3,0.7c0.2,0.5,0.2,0.6,0.2,0.6c0,0.1,0,0.2-0.1,0.2c-0.1,0-0.2,0.1-0.6,0.1
				c-0.1,0-0.1,0.1-0.1,0.1v0.3c0,0.1,0.1,0.1,0.1,0.1h2.7c0.1,0,0.1-0.1,0.1-0.1v-0.3C41.7,43.2,41.7,43.1,41.6,43.1z M37,41.2
				c0,0.1-0.1,0.2-0.2,0.2c-0.1,0-0.1,0-0.2-0.1c0,0,0-0.1-0.1-0.1c0,0,0,0,0,0c0,0,0,0,0,0c-0.1,0-0.1,0-0.1,0.1c0,0,0,0.1,0,0.1
				c0,0,0,0,0,0c0,0,0,0,0,0c-0.1,0-0.1,0-0.1-0.1c0-0.1,0-0.1-0.1-0.1c0,0,0,0,0,0c0,0,0,0,0,0c0,0-0.1,0-0.1,0.1c0,0,0,0,0,0
				c0,0,0,0,0,0h0c-0.1,0-0.1-0.1-0.2-0.2c0.1-0.1,0.3-0.2,0.5-0.3c0,0,0.1-0.1,0.1-0.1c0,0,0.1,0,0.1-0.1c0,0,0,0,0,0l0.1-0.2
				l0.1-0.2l0.3-0.7h0.1c0,0-0.2,0.5-0.2,0.8C36.5,40.5,36.6,41.1,37,41.2z M37.9,37.9l0.3,0.8c0,0,0,0,0,0l0.4,1.3h-1.5L37.9,37.9z
				 M36.9,40.5l0-0.2h1.7l0,0.2H36.9z M40.2,41.3C40.2,41.3,40.2,41.3,40.2,41.3C40.2,41.3,40.2,41.3,40.2,41.3
				C40.2,41.3,40.2,41.3,40.2,41.3c-0.1,0-0.1,0-0.2,0c0,0-0.1-0.1-0.1-0.1c0,0,0,0,0,0c0,0-0.1,0-0.1,0.1c0,0.2-0.2,0.2-0.2,0.2
				c-0.1,0-0.2,0-0.2-0.2c0,0,0-0.1-0.1-0.1c0,0,0,0,0,0c0,0-0.1,0-0.1,0.1c0,0,0,0,0,0c0,0,0,0,0,0c0,0-0.1,0-0.1,0
				c-0.1,0-0.2-0.1-0.3-0.3c0,0,0.2-0.3,0.2-0.4c0-0.1,0-0.2,0-0.3c0-0.2-0.2-0.5-0.3-0.9h0.1c0,0,0.3,0.8,0.5,1.1
				c0.3,0.3,0.3-0.2,0.2-0.5c-0.1-0.3-0.2-0.6-0.2-0.6l0.1,0l0.1,0.2l0.2,0.4l0.2,0.5c0,0.1,0.1,0.2,0.2,0.3c0,0,0.1,0.1,0.1,0.1
				c0.1,0.1,0.3,0.2,0.4,0.2C40.4,41.2,40.3,41.3,40.2,41.3z"/>
			<path fill="#FFFFFF" d="M24.1,36.6c-0.3-0.2-0.6-0.3-0.9-0.4c-0.3-0.1-0.7-0.1-1-0.1l-0.3,0c-0.3,0-0.6,0-0.8,0
				c-0.3,0-0.7,0-1.1,0l-0.8,0c-0.1,0-0.1,0.1-0.1,0.1v0.1c0,0.1,0.1,0.1,0.1,0.1c0,0,0.4,0,0.7,0.3c0.1,0.1,0.2,0.3,0.3,1.6v2
				l0,0.1c0,0.2-0.1,0.5-0.3,0.5c-0.1,0-0.1,0-0.1,0.1c0,0.1,0,0.2,0.1,0.3c0.1,0.1,0.2,0.2,0.3,0.3V42c0,0.4,0,0.7,0,0.7
				c0,0.1-0.1,0.2-0.2,0.3c-0.1,0-0.2,0.1-0.5,0.1h-0.2c-0.1,0-0.1,0.1-0.1,0.1v0.3c0,0.1,0.1,0.1,0.1,0.1h3.2
				c0.1,0,0.1-0.1,0.1-0.1v-0.3c0-0.1-0.1-0.1-0.1-0.1h-0.2c-0.3,0-0.5-0.1-0.6-0.1c-0.1-0.1-0.1-0.2-0.2-0.3c0-0.1,0-0.4,0-0.7l0,0
				c0,0,0,0,0,0v-0.2c0.2,0,0.4-0.2,0.5-0.5c0,0,0-0.1,0-0.1c0,0-0.1,0-0.1,0c0,0,0,0,0,0c-0.1,0-0.1-0.1-0.2-0.2c0,0,0.1,0,0.1,0
				c0.1,0,0.2,0,0.2,0h0.2c0.4,0,0.7,0,1.1-0.1c0.4-0.1,0.7-0.2,1-0.4c0.3-0.2,0.5-0.5,0.7-0.8c0.2-0.3,0.3-0.7,0.3-1.1
				c0-0.5-0.1-0.8-0.3-1.1C24.6,37,24.4,36.7,24.1,36.6z M21.6,36.9c0.1,0,0.2,0,0.4,0c0.5,0,1.1,0.2,1.4,0.5
				c0.2,0.3,0.3,0.6,0.3,1.1c0,0.3,0,0.5-0.1,0.8c-0.1,0.2-0.2,0.4-0.4,0.5c-0.4,0.3-0.9,0.4-1.3,0.4c-0.2,0-0.4,0-0.5,0l0-3.1
				C21.5,36.9,21.5,36.9,21.6,36.9z M21.4,41.4C21.4,41.4,21.4,41.4,21.4,41.4C21.3,41.4,21.3,41.4,21.4,41.4
				C21.3,41.4,21.3,41.4,21.4,41.4c-0.1,0-0.1,0-0.1-0.1c0,0-0.1-0.1-0.1-0.1c0,0,0,0,0,0c-0.1,0-0.1,0-0.1,0.1
				c0,0.2-0.2,0.2-0.2,0.2c-0.1,0-0.2-0.1-0.2-0.2c0-0.1-0.1-0.1-0.1-0.1c0,0,0,0,0,0c0,0-0.1,0-0.1,0.1c0,0,0,0.1-0.1,0.1
				c0,0,0,0,0,0c0,0,0,0,0,0c-0.1,0-0.1,0-0.2-0.2c0,0,0.2-0.1,0.2-0.2c0.1-0.1,0.1-0.2,0.1-0.3c0.1-0.3,0.1-0.5,0.1-0.8v-0.6h0.1
				c0.1,0.7,0.2,1.2,0.3,1.2c0.1,0,0.2-0.5,0.3-1.2h0.1l0,1.1l0,0c0,0.3,0.2,0.5,0.4,0.6C21.5,41.3,21.4,41.4,21.4,41.4z M21.5,40.6
				l0-0.2c1.9,0.3,2.9-0.7,2.9-0.7C23.4,41,21.5,40.6,21.5,40.6z"/>
			<path fill="#FFFFFF" d="M9.3,40.9C9,40.9,9,40.3,9,40c0-0.6-0.1-1.2-0.3-1.6c-0.2-0.4-0.5-0.8-0.9-1C7.4,37,7,36.9,6.5,36.7
				c-0.5-0.1-1-0.2-1.6-0.2c-0.2,0-0.5,0-0.8,0c-0.3,0-0.5,0.1-0.7,0.1l-0.1,0v-3.1l0-0.7l2.1,0C5.7,33,5.9,33.4,5.9,34
				c0,0.1,0,0.1,0,0.2l0,0c0,0.5,0,1.1,0.4,1.4c0.2,0.1,0.4,0.2,0.6,0.2c0.4,0,0.8-0.3,0.8-0.7c0-0.3-0.1-0.8-0.4-0.9
				c-0.1,0-0.2,0-0.2,0c0,0-0.1,0-0.1,0c0.1-0.6,0.2-1,0.5-1.3c0.4-0.4,0.9-0.5,1-0.5l0,0c0,0,0.1,0,0.1,0c0,0,0-0.1,0-0.1v-0.4
				c0-0.1-0.1-0.1-0.1-0.1H8.2c0,0,0,0,0,0H2.3c0,0,0,0,0,0c0,0,0,0,0,0H0.6c0,0,0,0,0,0H0.4c-0.1,0-0.1,0.1-0.1,0.1v0.3
				c0,0.1,0.1,0.1,0.1,0.1c0,0,0.6,0,1.1,0.5c0.2,0.2,0.4,0.9,0.4,1.9v5.7c0,0.2-0.1,0.4-0.3,0.5c-0.1,0-0.2,0-0.2,0.1
				c0.1,0.4,0.3,0.5,0.5,0.5v0.1c0,0.2,0,0.8,0,0.9c0,0.2-0.1,0.3-0.2,0.4c-0.1,0.1-0.3,0.1-0.7,0.1H0.6c-0.1,0-0.1,0.1-0.1,0.1v0.4
				c0,0.1,0.1,0.1,0.1,0.1h2.8c0,0,0.2,0,0.5,0c0.9,0,2.6-0.1,3.9-1c0.3-0.2,0.8-0.6,1-1.1c0,0,0-0.1,0-0.1c0.1,0,0.1,0,0.2,0
				c0.3,0,0.5-0.2,0.5-0.5C9.4,41,9.4,41,9.3,40.9C9.4,40.9,9.3,40.9,9.3,40.9z M6.3,33.6c0.1,0.3,0.1,0.6,0.1,1c0,0,0,0.1,0,0.1
				c0,0.2,0.1,0.5,0.3,0.5C7,35.2,7.2,35,7.2,34.7c0.2,0,0.2,0.4,0.1,0.5c-0.2,0.3-0.8,0.3-1,0c0-0.1-0.1-0.2-0.1-0.3
				c-0.1-0.3,0-0.7,0-1.1c0-0.3-0.1-0.7-0.3-1C6.1,32.9,6.2,33.4,6.3,33.6z M3.2,41.3C3.2,41.3,3.2,41.3,3.2,41.3
				C3.2,41.3,3.2,41.3,3.2,41.3C3.2,41.3,3.2,41.3,3.2,41.3c-0.1,0-0.2-0.1-0.2-0.1c0,0-0.1-0.1-0.1-0.1c0,0,0,0,0,0
				c0,0-0.1,0-0.1,0.1c-0.1,0.2-0.2,0.2-0.3,0.2c-0.1,0-0.2-0.1-0.3-0.2c0,0-0.1-0.1-0.1-0.1c0,0,0,0,0,0c0,0-0.1,0-0.1,0.1
				c0,0-0.1,0.1-0.1,0.1c0,0,0,0,0,0c0,0,0,0,0,0c0,0,0,0,0,0c-0.1,0-0.2,0-0.3-0.2c0.2-0.1,0.5-0.4,0.5-0.7v-0.9h0.1
				c0.1,0.8,0.2,1.4,0.4,1.4c0.2,0,0.3-0.6,0.4-1.4h0.1c0,0,0,0.7,0,0.8c0,0.1,0,0.1,0,0.2c0,0.3,0.1,0.5,0.4,0.6
				C3.4,41.2,3.3,41.3,3.2,41.3L3.2,41.3z M7,41.5c-0.1,0.3-0.3,0.5-0.5,0.7c-0.2,0.2-0.5,0.4-0.9,0.5c-0.3,0.1-0.7,0.2-1.1,0.2H4.3
				c-0.1,0-0.2,0-0.4,0c-0.1,0-0.2,0-0.3,0c-0.1,0-0.1,0-0.2,0c0-0.1,0-0.1-0.1-0.2c0-0.1,0-0.4,0-1c0.2,0,0.4-0.2,0.5-0.5
				c0,0,0-0.1,0-0.1c0,0-0.1,0-0.1,0c0,0,0,0,0,0c0,0,0,0,0,0c-0.1,0-0.2-0.2-0.3-0.3c0-0.1,0-0.3,0-0.4c0-0.2,0-0.5,0-0.7
				c0-0.6,0-1.1,0-1.7c0,0,0-0.4,0-0.4l0,0c0.2,0,0.3-0.1,0.5-0.1c0.2,0,0.4,0,0.7,0c0.9,0,1.6,0.2,2.1,0.7c0.5,0.4,0.7,1.1,0.7,1.9
				l0,0.5c0,0.2-0.1,0.5-0.3,0.5c-0.1,0-0.2,0-0.2,0.1C6.8,41.3,6.9,41.4,7,41.5z M8.8,41.3c-0.1,0-0.1,0-0.2-0.1c0,0,0,0,0,0
				c0,0,0,0-0.1,0c0,0,0,0,0,0c0,0,0,0,0,0c0,0,0,0-0.1,0c0,0,0,0,0,0c0,0.1-0.2,0.2-0.3,0.2c-0.1,0-0.2-0.1-0.3-0.2
				c0,0,0-0.1-0.1-0.1c0,0,0,0,0,0c0,0-0.1,0-0.1,0.1c0,0.1-0.1,0.1-0.2,0.1c0,0-0.1,0-0.1,0c0,0,0,0,0,0c0,0,0,0,0,0
				c0,0-0.1-0.1-0.1-0.1c0.2-0.1,0.4-0.4,0.4-0.7l0-0.4c0-0.2,0-0.3,0-0.5h0.1c0.1,0.8,0.3,1.4,0.5,1.4c0.2,0,0.4-0.6,0.5-1.4h0.1
				c0,0.2,0,0.3,0,0.5c0,0.1,0,0.9,0.4,1.1C9,41.2,8.9,41.3,8.8,41.3z"/>
			<path fill="#FFFFFF" d="M58.4,36.2h-1.7c-0.2,0-0.4,0.1-0.5,0.3l-3.1,5.7v0l0-0.6c0.1,0,0.3-0.1,0.4-0.4c0,0,0-0.1,0-0.1
				c0,0-0.1,0-0.1,0c0,0,0,0,0,0c-0.1,0-0.2-0.2-0.2-0.4l0-2.8v0l0,0c0-0.2,0-0.6,0-0.6c0-0.1,0.1-0.2,0.2-0.3
				c0.1,0,0.2-0.1,0.5-0.1H54c0.1,0,0.1-0.1,0.1-0.1v-0.3c0-0.1-0.1-0.1-0.1-0.1H51c-0.1,0-0.1,0.1-0.1,0.1v0.3
				c0,0.1,0.1,0.1,0.1,0.1h0.2c0.3,0,0.5,0.1,0.6,0.1c0.1,0.1,0.1,0.1,0.2,0.3c0,0.1,0,0.5,0,0.6c0,0.1,0,0.2,0,0.3v1.5
				c0,0.2,0,0.5,0,0.7c0,0.2,0,0.5-0.2,0.7c-0.2,0.1-0.2,0.2-0.1,0.4c0.1,0.1,0.2,0.2,0.3,0.2v0.3c0,0.4,0,0.9,0,0.9
				c0,0.1-0.1,0.2-0.2,0.3c-0.1,0-0.2,0.1-0.5,0.1H51c-0.1,0-0.1,0.1-0.1,0.1v0.3c0,0.1,0.1,0.1,0.1,0.1c0,0,1.7,0,1.7,0
				c0,0,0,0,0.1,0l0,0c0.2,0,0.3-0.1,0.5-0.3c0,0,0,0,0,0l3.1-5.6c0,0,0,0.1,0,0.1c0,0.4,0,1,0,1.4c0,0.2,0,0.5,0,0.7
				c0,0.3,0,0.6-0.1,0.8c0,0.1-0.1,0.1-0.1,0.2c-0.2,0.1-0.1,0.2-0.1,0.4c0,0.1,0.1,0.1,0.1,0.2c0,0,0.2,0.1,0.2,0.1v0.4
				c0,0,0,0,0,0c0,0.3,0,0.7,0,0.8c0,0.1-0.1,0.2-0.2,0.3c-0.1,0-0.2,0.1-0.5,0.1h-0.2c-0.1,0-0.1,0.1-0.1,0.1v0.3
				c0,0.1,0.1,0.1,0.1,0.1h3.1c0.1,0,0.1-0.1,0.1-0.1v-0.3c0-0.1-0.1-0.1-0.1-0.1h-0.2c-0.3,0-0.5-0.1-0.6-0.1
				c-0.1-0.1-0.1-0.1-0.2-0.3c0-0.1,0-0.4,0-0.8v0c0,0,0,0,0,0l0-0.5c0.2-0.1,0.6-0.4,0.4-0.5c-0.1,0-0.1-0.1-0.2-0.1
				c-0.2-0.2-0.1-0.5-0.1-0.7c0-1,0-2,0-3v0c0-0.1,0.1-0.2,0.2-0.3c0.1,0,0.2-0.1,0.5-0.1l0.2,0c0.1,0,0.1-0.1,0.1-0.1v-0.3
				C58.6,36.3,58.5,36.2,58.4,36.2z M53.1,41.3C53.1,41.3,53.1,41.3,53.1,41.3C53,41.3,53,41.3,53.1,41.3c-0.1,0-0.1,0-0.1-0.1
				c0,0-0.1-0.1-0.1-0.1c0,0,0,0,0,0c-0.1,0-0.1,0-0.1,0.1c0,0.2-0.2,0.2-0.2,0.2c-0.1,0-0.2,0-0.2-0.2c0,0-0.1-0.1-0.1-0.1
				c0,0,0,0,0,0c0,0-0.1,0-0.1,0.1c0,0,0,0.1-0.1,0.1c0,0,0,0,0,0c0,0,0,0,0,0c-0.1,0-0.1,0-0.2-0.2c0,0,0.2-0.2,0.2-0.2
				c0.1-0.1,0.1-0.2,0.1-0.2c0.1-0.2,0-0.5,0-0.7c0,0,0-0.5,0-0.5h0.1c0.1,0.7,0.2,1.2,0.3,1.2c0.1,0,0.2-0.5,0.3-1.2h0.1l0,1
				c0,0,0,0,0,0c0,0.2,0.2,0.5,0.4,0.6C53.2,41.3,53.1,41.3,53.1,41.3C53.1,41.3,53.1,41.3,53.1,41.3z M57.6,41.2
				c0,0.1-0.1,0.1-0.2,0.2c0,0,0,0,0,0c0,0,0,0,0,0c0,0,0,0,0,0c0,0-0.1,0-0.1-0.1c0,0-0.1-0.1-0.1-0.1c0,0,0,0,0,0
				c-0.1,0-0.1,0-0.1,0.1c0,0.2-0.2,0.2-0.2,0.2c-0.1,0-0.2,0-0.2-0.2c0-0.1-0.1-0.1-0.1-0.1c0,0,0,0,0,0c0,0-0.1,0-0.1,0.1
				c0,0,0,0.1-0.1,0.1c0,0,0,0,0,0c0,0,0,0,0,0c-0.1,0-0.1,0-0.2-0.2c0.3-0.1,0.4-0.5,0.4-0.9c0-0.1,0-0.8,0-0.8h0.1
				c0.1,0.7,0.2,1.2,0.3,1.2c0.1,0,0.2-0.5,0.3-1.2h0.1l0,1c0,0,0,0,0,0C57.3,40.8,57.4,41.1,57.6,41.2z"/>
			<path fill="#FFFFFF" d="M48.3,36.6c-0.3-0.2-0.6-0.3-0.9-0.4c-0.3-0.1-0.7-0.1-1-0.1l-0.3,0c-0.3,0-0.6,0-0.8,0
				c-0.3,0-0.7,0-1.1,0l-0.8,0c-0.1,0-0.1,0.1-0.1,0.1v0.1c0,0.1,0.1,0.1,0.1,0.1c0,0,0.4,0,0.7,0.3c0.1,0.1,0.2,0.3,0.3,1.6v2v0.1
				c0,0.2-0.1,0.5-0.3,0.5c-0.1,0-0.1,0-0.1,0.1c0,0.1,0,0.2,0.1,0.3c0.1,0.1,0.2,0.2,0.3,0.3V42c0,0.4,0,0.7,0,0.7
				c0,0.1-0.1,0.2-0.2,0.3c-0.1,0-0.2,0.1-0.5,0.1h-0.2c-0.1,0-0.1,0.1-0.1,0.1v0.3c0,0.1,0.1,0.1,0.1,0.1h3.2
				c0.1,0,0.1-0.1,0.1-0.1v-0.3c0-0.1-0.1-0.1-0.1-0.1h-0.2c-0.3,0-0.5-0.1-0.6-0.1c-0.1-0.1-0.1-0.2-0.2-0.3c0-0.1,0-0.4,0-0.7v0
				c0,0,0,0,0,0v-0.2c0.2,0,0.4-0.2,0.5-0.5c0,0,0-0.1,0-0.1c0,0-0.1,0-0.1,0c0,0,0,0,0,0c-0.1,0-0.1-0.1-0.2-0.2c0,0,0.1,0,0.1,0
				c0.1,0,0.1,0,0.2,0h0.2c0.4,0,0.7,0,1.1-0.1c0.4-0.1,0.7-0.2,1-0.4c0.3-0.2,0.5-0.5,0.7-0.8c0.2-0.3,0.3-0.7,0.3-1.1
				c0-0.5-0.1-0.8-0.2-1.1C48.8,37,48.6,36.7,48.3,36.6z M45.7,36.9c0.1,0,0.2,0,0.4,0c0.5,0,1.1,0.2,1.4,0.5
				c0.2,0.3,0.3,0.6,0.3,1.1c0,0.3,0,0.5-0.1,0.8c-0.1,0.2-0.2,0.4-0.4,0.5C47,40,46.4,40.1,46,40.1c-0.2,0-0.4,0-0.5,0l0-3.1
				C45.6,36.9,45.7,36.9,45.7,36.9z M45.5,41.4C45.5,41.4,45.5,41.4,45.5,41.4C45.5,41.4,45.5,41.4,45.5,41.4
				C45.5,41.4,45.5,41.4,45.5,41.4c-0.1,0-0.1,0-0.1-0.1c0,0-0.1-0.1-0.1-0.1c0,0,0,0,0,0c-0.1,0-0.1,0-0.1,0.1
				c0,0.2-0.2,0.2-0.2,0.2c-0.1,0-0.2-0.1-0.2-0.2c0-0.1-0.1-0.1-0.1-0.1c0,0,0,0,0,0c0,0-0.1,0-0.1,0.1c0,0,0,0.1-0.1,0.1
				c0,0,0,0,0,0c0,0,0,0,0,0c-0.1,0-0.1,0-0.2-0.2c0,0,0.2-0.1,0.2-0.2c0.1-0.1,0.1-0.2,0.1-0.3c0.1-0.3,0.1-0.5,0.1-0.8v-0.6h0.1
				c0.1,0.7,0.2,1.2,0.3,1.2c0.1,0,0.2-0.5,0.3-1.2h0.1l0,1.1c0,0,0,0,0,0c0,0.3,0.2,0.5,0.4,0.6C45.6,41.3,45.6,41.4,45.5,41.4z
				 M45.6,40.6l0-0.2c1.9,0.3,2.9-0.7,2.9-0.7C47.6,41,45.6,40.6,45.6,40.6z"/>
		</g>
		<g>
			<g>
				<path fill="#FFFFFF" d="M21.7,47.3h-0.3V47h1v0.2h-0.4L21.3,48l0.7,1.2c0.1,0.2,0.3,0.4,0.5,0.4h0.1v0.2c-0.1,0-0.2,0.1-0.3,0.1
					c-0.2,0-0.5,0-0.8-0.4l-0.6-1l-0.2,0.2v0.9h0.3v0.2h-1.3v-0.2H20v-2.4h-0.3V47h1.3v0.2h-0.3v1.1L21.7,47.3z"/>
				<path fill="#FFFFFF" d="M23.7,49.1l-0.2,0.5h0.3v0.2h-0.9v-0.2h0.3l1.1-2.6h0.3l1.2,2.6h0.3v0.2h-1.3v-0.2h0.3l-0.2-0.5H23.7z
					 M23.8,48.9h1.1l-0.5-1.2l0-0.1h0l0,0.1L23.8,48.9z"/>
				<path fill="#FFFFFF" d="M27.4,50v-0.2h0.3v-0.3c-0.8,0-1.5-0.4-1.5-1.1c0-0.8,0.9-1.1,1.5-1.1v-0.2h-0.3v-0.2h1.3v0.2h-0.3v0.2
					c0.6,0,1.5,0.3,1.5,1.1c0,0.8-0.7,1.1-1.5,1.1v0.3h0.3V50H27.4z M27.8,47.5c-0.3,0-0.8,0.1-0.8,0.9c0,0.8,0.5,0.9,0.8,0.9V47.5z
					 M28.4,49.3c0.3,0,0.8-0.1,0.8-0.9c0-0.8-0.5-0.9-0.8-0.9V49.3z"/>
				<path fill="#FFFFFF" d="M30.9,49.6v-2.4h-0.3V47h2.2v0.6h-0.2v-0.3h-1v0.9h0.9v-0.3h0.2v0.8h-0.2v-0.3h-0.9v1.1h1.1v-0.3h0.2
					v0.6h-2.3v-0.2H30.9z"/>
				<path fill="#FFFFFF" d="M34,48.6h1.1V49H34V48.6z"/>
				<path fill="#FFFFFF" d="M38.1,47.3h-0.3V47h1v0.2h-0.4L37.6,48l0.7,1.2c0.1,0.2,0.3,0.4,0.5,0.4h0.1v0.2c-0.1,0-0.2,0.1-0.3,0.1
					c-0.2,0-0.5,0-0.8-0.4l-0.6-1l-0.2,0.2v0.9h0.3v0.2H36v-0.2h0.3v-2.4H36V47h1.3v0.2h-0.3v1.1L38.1,47.3z"/>
				<path fill="#FFFFFF" d="M40.6,47.8l-0.7,1.8c-0.1,0.2-0.2,0.4-0.4,0.4c-0.1,0-0.2,0-0.3-0.1l0.2-0.5c0,0,0.1,0.1,0.2,0.1
					c0.1,0,0.2-0.1,0.2-0.2l0.8-2h-0.3V47H41l1,2.6h0.3v0.2h-1.2v-0.2h0.3L40.6,47.8l0.1-0.1h0L40.6,47.8z"/>
				<path fill="#FFFFFF" d="M44.7,47.3h-0.3V47h0.9v0.2H45l-1,2.2c-0.1,0.2-0.2,0.5-0.5,0.5c-0.1,0-0.3,0-0.4-0.1l0.2-0.4
					c0.1,0,0.2,0.1,0.3,0.1c0.1,0,0.2-0.1,0.2-0.2l0-0.1l-1-2h-0.3V47h1.2v0.2h-0.3l0.7,1.3l0,0.1h0l0-0.1L44.7,47.3z"/>
				<path fill="#FFFFFF" d="M46.3,47.3H46V47H48v0.6h-0.3v-0.3h-0.9v0.9h0.3c0.4,0,1.2,0,1.2,0.8c0,0.9-0.8,0.9-1.2,0.9H46v-0.2h0.3
					V47.3z M47.1,49.6c0.3,0,0.5-0.2,0.5-0.6c0-0.6-0.5-0.6-0.6-0.6h-0.2v1.2H47.1z"/>
			</g>
			<polygon fill="#FFFFFF" points="18.5,48.9 1.5,48.7 1.5,48.5 18.5,48.3 			"/>
			<polygon fill="#FFFFFF" points="49.6,48.9 66.6,48.7 66.6,48.5 49.6,48.3 			"/>
		</g>
	</g>
	<g>
		<g>
			<path fill="#FFFFFF" d="M30.7,11.4c0.2,0,0.4,0.2,0.5,0.3c0-0.1,0.1-0.3,0.1-0.3c0,0,0,0,0,0c0,0,0,0,0,0c0,0,0,0,0,0.1
				c0,0,0-0.1,0-0.1c0-0.1-0.1-0.2-0.1-0.2C31.2,11,30.8,11.3,30.7,11.4z M31.2,11.1c0.1,0,0.1,0.1,0.1,0.1c0,0-0.1,0-0.1,0
				c-0.1,0-0.1-0.1-0.1-0.1C31.1,11.2,31.2,11.1,31.2,11.1z"/>
			<path fill="#FFFFFF" d="M31.5,11.7c0,0-0.1-0.1-0.1-0.2c0,0,0,0.1-0.1,0.2c0.1,0.1,0.2,0.2,0.2,0.3c0.1-0.2,0.4-1.3,0.4-1.3
				C31.9,10.8,31.5,11,31.5,11.7z"/>
			<path fill="#FFFFFF" d="M28.7,11c0-0.2,0.2-0.4,0.2-0.4c0,0,0,0,0,0c0,0,0,0,0,0c0,0,0,0.1,0,0.1c0-0.1,0-0.1,0-0.1
				c-0.1-0.2-0.3-0.4-0.3-0.5c0,0,0-0.1-0.1-0.1c0,0.1,0,0.2,0,0.4C28.7,10.7,28.7,10.9,28.7,11z"/>
			<path fill="#FFFFFF" d="M32.1,11.7c0,0,0.1-0.3,0.1-0.5c0,0-0.1,0.1-0.1,0.1c0,0,0-0.3-0.1-0.4c0,0-0.1,0.4-0.1,0.4
				c0,0.1-0.2,0.7-0.2,0.8c0,0,0.2,0.1,0.3,0.1c0,0,0.2-0.4,0.2-0.5C32.2,11.7,32.1,11.7,32.1,11.7z"/>
			<path fill="#FFFFFF" d="M28.8,11.1C28.8,11.2,28.8,11.2,28.8,11.1L28.8,11.1L28.8,11.1C28.8,11.2,28.8,11.2,28.8,11.1
				C28.8,11.2,28.8,11.2,28.8,11.1c0,0.1,0,0.1,0,0.1c0,0,0,0,0,0c0,0,0,0,0,0l0,0h0c0,0,0,0,0,0c0,0,0,0,0,0c0,0,0,0,0,0
				c0,0,0,0,0,0s0,0,0,0c0,0,0,0,0,0c0,0,0,0,0,0c0,0,0,0,0,0l0,0c0,0-0.1-0.1-0.2-0.2c0,0.1-0.1,0.5,0,0.6
				c-0.1-0.1-0.2-0.1-0.2-0.1c0,0,0,0.1,0,0.2c0,0.1,0.1,0.3,0.2,0.4c0.3-0.2,0.6-0.3,0.7-0.3C29.1,11.7,28.9,11.3,28.8,11.1z"/>
			<path fill="#FFFFFF" d="M29.6,11L29.6,11c0-0.1,0-0.2,0-0.3c0,0-0.1,0.1-0.1,0.1c0,0-0.1-0.3-0.1-0.3c-0.1,0.1-0.2,0.2-0.2,0.4
				c0,0,0,0.1-0.1,0.1c0,0-0.1-0.1-0.2-0.2c0,0.1,0,0.1-0.1,0.2c0.2,0.2,0.4,0.8,0.5,0.9c0.1-0.1,0.2-0.2,0.3-0.3
				C29.6,11.5,29.5,11.2,29.6,11z"/>
			<path fill="#FFFFFF" d="M29.6,8.7c0,0-0.1-0.1-0.1-0.1c0,0.1-0.1,0.1-0.1,0.2c0,0,0,0,0,0c0,0,0,0,0,0c-0.1-0.1-0.2-0.2-0.3-0.2
				c0,0,0,0,0,0.1c0.1,0.1,0.1,0.3,0.1,0.4c0,0,0,0,0,0c0,0-0.1,0-0.1,0c0,0.1,0.1,0.2,0.1,0.2c0,0,0.3,0.2,0.5,1
				c0,0.1,0,0.2,0.1,0.3c0,0,0,0,0,0V10v0v0v-1C29.7,8.8,29.7,8.8,29.6,8.7z"/>
			<path fill="#FFFFFF" d="M29.1,9.3c0,0.1,0,0.3,0,0.3c-0.1-0.1-0.3-0.3-0.3-0.3c-0.2,0.1-0.1,0.5,0,0.7c0.1,0.1,0.3,0.3,0.4,0.5
				c0.1-0.1,0.2-0.2,0.2-0.2c0,0,0,0,0,0c0,0,0,0,0,0c0,0,0,0.1,0,0.3c0,0,0,0,0,0c0,0,0,0,0,0c0,0,0.1,0,0.1,0.2c0,0,0-0.1,0-0.1
				C29.7,10.7,29.4,9.5,29.1,9.3z"/>
			<path fill="#FFFFFF" d="M31.4,10.4L31.4,10.4C31.4,10.4,31.4,10.4,31.4,10.4c0.1-0.3,0-0.5-0.1-0.6c0,0-0.1,0.1-0.1,0.1
				c0,0,0,0,0,0c0,0,0,0,0,0c0-0.1,0-0.3,0-0.4c0,0.1-0.1,0.5-0.1,0.7c0.1,0.5,0,0.8,0,0.8h0h0c0,0,0,0,0,0c0.1,0,0.1,0,0.2,0
				c0,0,0,0,0,0c0,0,0,0,0,0c0,0,0,0,0,0c0,0,0,0,0,0c0.1-0.2,0.1-0.4,0.1-0.5C31.5,10.4,31.4,10.4,31.4,10.4z"/>
			<polygon fill="#FFFFFF" points="30.2,9.8 30.2,9.8 30.2,9.8 			"/>
			<path fill="#FFFFFF" d="M30.9,9.8c0,0-0.1-0.1-0.2-0.2c0,0.1,0,0.3,0,0.3c0,0-0.2,0-0.2,0c0,0,0.1,0.1,0.1,0.2
				c0.1,0.1,0.1,0.2,0.1,0.2c0,0,0.2,0,0.2,0.1c0,0,0-0.1,0-0.2c0-0.5,0.1-0.7,0.1-0.7C31,9.5,31,9.6,30.9,9.8z"/>
			<path fill="#FFFFFF" d="M30,10.5c0,0,0.2,0,0.3,0.3c0-0.1,0.1-0.4,0.3-0.5c0-0.1-0.1-0.2-0.1-0.2c-0.1-0.2-0.2-0.2-0.3-0.2
				C30.1,10,30,10,30,10.1c0,0,0,0,0,0c0,0,0,0,0,0C29.9,10.3,30,10.5,30,10.5z M30.2,10c0.1,0,0.2,0,0.2,0.1c0,0.1-0.1,0.1-0.1,0.1
				c-0.1,0-0.2,0-0.2,0C30,10.2,30,10.1,30.2,10z"/>
			<g>
				<path fill="#FFFFFF" d="M30,10.7C30,10.7,29.9,10.7,30,10.7c-0.1,0-0.1,0-0.1,0c0,0,0,0,0,0c0,0,0,0,0,0c0,0,0,0,0,0
					c0,0,0,0,0,0c0,0-0.1,0.1-0.1,0.1c0,0.2,0,0.5,0.1,0.7c0.2-0.1,0.3-0.1,0.6-0.1C30.3,11.1,30.1,10.7,30,10.7z M29.9,10.8
					c0.1,0,0.2,0,0.2,0.1c0,0,0,0.1-0.1,0.1c-0.1,0-0.2,0-0.2,0C29.7,10.9,29.8,10.8,29.9,10.8z"/>
				<path fill="#FFFFFF" d="M30.8,10.5c0,0-0.1,0-0.1,0c0,0,0,0,0,0c0,0,0,0,0,0c0,0,0,0,0,0c0,0,0,0,0,0c0,0,0,0,0,0
					c-0.2,0.1-0.2,0.5-0.2,0.5c0,0.1,0.1,0.3,0.1,0.3c0.1,0,0.1,0,0.1,0c0.1-0.1,0.3-0.3,0.4-0.4C31,10.8,31,10.5,30.8,10.5z
					 M30.8,10.6c0.1,0,0.1,0.2,0.1,0.2c0,0.1-0.1,0.1-0.2,0c-0.1,0-0.1-0.1-0.1-0.1C30.6,10.6,30.7,10.5,30.8,10.6z"/>
			</g>
			<path fill="#FFFFFF" d="M29.9,13.1C29.9,13.1,29.9,13.1,29.9,13.1c-0.1-0.1-0.1-0.2-0.1-0.2c-0.1-0.1-0.1-0.2-0.2-0.2
				c0,0-0.1,0-0.1,0c0,0,0,0.1,0,0.1c0,0.1,0,0.1,0.1,0.2c0.1,0,0.2,0.1,0.2,0.2C29.9,13.2,29.9,13.2,29.9,13.1z"/>
			<path fill="#FFFFFF" d="M28.8,12.6c0-0.1,0-0.1,0-0.2c0.1-0.1,0.2-0.1,0.3-0.1c0.1,0,0.1,0,0.1,0.1c0,0.1,0,0.1,0,0.1
				c0,0.1,0,0.1-0.1,0.1c0,0,0,0,0,0c0,0,0.1,0.1,0.2,0.1c0,0,0-0.1,0-0.1c0-0.1,0-0.1,0.1-0.2c0,0,0.1,0,0.2,0
				c-0.1-0.2-0.2-0.4-0.2-0.4c0,0-0.1,0-0.3,0c0,0,0,0-0.1,0c-0.6,0.2-0.6,0.7-0.6,0.7c0.1,0,0.5-0.1,0.8,0
				C29,12.8,28.8,12.7,28.8,12.6z"/>
			<path fill="#FFFFFF" d="M30.4,13.2c-0.1,0-0.3,0-0.4,0.1c0,0,0.1,0.1,0.1,0.1c0.1,0,0.2-0.1,0.3-0.1c0.2,0,0.3,0.1,0.4,0.2
				c0,0,0.1,0,0.1-0.1C30.8,13.3,30.6,13.2,30.4,13.2z"/>
			<path fill="#FFFFFF" d="M30,12.6C30,12.5,29.9,12.5,30,12.6c-0.1,0-0.1,0-0.2,0.1c0,0.1,0,0.2,0.1,0.3C30,12.9,30,13,30,13
				c0,0,0,0,0,0c0.1,0,0.1,0,0.2-0.1C30.2,12.8,30.1,12.6,30,12.6z"/>
			<path fill="#FFFFFF" d="M30.4,13C30.4,13,30.4,13,30.4,13c0.1-0.2,0.2-0.4,0.1-0.5c0,0,0,0-0.1,0c0,0,0,0,0,0c0,0,0,0,0,0
				c0,0-0.1,0-0.1,0C30.3,12.6,30.3,12.8,30.4,13C30.4,13,30.4,13,30.4,13z"/>
			<path fill="#FFFFFF" d="M31.9,12.3C31.8,12.3,31.8,12.3,31.9,12.3c-0.1-0.1-0.2-0.1-0.2-0.1c-0.1,0-0.1,0-0.1,0c0,0,0,0,0,0
				c0,0-0.2,0.3-0.3,0.4c0,0,0,0,0,0c0.1,0,0.1,0,0.2,0c0.1,0,0.1,0.1,0.1,0.2c0,0,0,0.1,0,0.1c0.1,0,0.2-0.1,0.2-0.1c0,0,0,0,0,0
				c0,0-0.1-0.1-0.1-0.1c0,0,0-0.1,0-0.1c0,0,0.1-0.1,0.1-0.1c0.1,0,0.2,0,0.2,0.1c0,0.1,0.1,0.1,0,0.2c0,0.1-0.4,0.3-0.6,0.4
				c-0.1,0.1-0.2,0.2-0.4,0.2c0,0,0,0,0,0c0.1,0,0.2-0.1,0.2-0.1c0.1-0.1,0.2-0.1,0.3-0.1c0,0,0.1,0,0.2-0.1c0,0,0,0,0,0
				c0.1,0,0.2-0.1,0.3-0.1c0.1,0,0.4-0.1,0.4-0.1C32.5,12.8,32.4,12.5,31.9,12.3z"/>
			<path fill="#FFFFFF" d="M30.8,13.1c0-0.1,0.1-0.1,0.1-0.2c0.1-0.1,0.1-0.2,0.1-0.3c0,0,0,0-0.1-0.1c0,0-0.1,0-0.1,0
				c-0.1,0-0.2,0.2-0.2,0.5C30.7,13.1,30.7,13.1,30.8,13.1C30.8,13.1,30.8,13.1,30.8,13.1z"/>
			<path fill="#FFFFFF" d="M31.3,12.9C31.3,12.8,31.3,12.8,31.3,12.9c-0.1-0.1-0.1-0.1-0.1-0.1c-0.1,0-0.1,0.1-0.2,0.2
				c0,0.1-0.1,0.2-0.1,0.2c0,0,0,0,0,0c0,0,0.1,0.1,0.1,0.1C31.2,13.1,31.3,13,31.3,12.9z"/>
			<path fill="#FFFFFF" d="M31.3,12.1C31.3,12.1,31.3,12.1,31.3,12.1c0,0-0.2-0.5-1-0.5c-0.5,0-0.8,0.3-0.8,0.4c0,0-0.1,0.1-0.1,0.1
				l0,0c0,0,0.1,0.2,0.2,0.4c0,0,0,0,0,0c0-0.1,0.1-0.1,0.1-0.1c0.1,0,0.1,0,0.2,0c0,0,0.1,0,0.1,0.1c0-0.1,0-0.2,0-0.3c0,0,0,0,0,0
				c0,0-0.1,0-0.2,0c0,0-0.1,0-0.1-0.1c0,0,0-0.1,0-0.1c0,0,0,0,0-0.1c0,0,0.1-0.1,0.1-0.1c0,0,0,0,0,0c0.1,0,0.1,0,0.2,0.1
				c0.1,0.1,0.1,0.2,0.2,0.4c0,0,0,0,0,0c0,0,0,0,0,0c0,0,0,0,0,0c0,0,0,0,0,0c0-0.2,0.1-0.3,0.2-0.4c0.1-0.1,0.1-0.1,0.2-0.1
				c0.1,0,0.2,0.1,0.2,0.2c0,0.1,0,0.1,0,0.1c0,0.1-0.1,0.1-0.1,0.1c-0.1,0-0.1,0-0.2,0c0,0,0,0,0,0c0,0.1,0,0.2,0,0.3
				c0,0,0.1-0.1,0.1-0.1c0.1,0,0.1,0,0.2,0c0.1,0,0.1,0.1,0.1,0.1c0,0,0,0,0,0C31.2,12.3,31.3,12.1,31.3,12.1z"/>
		</g>
		<g>
			<path fill="#FFFFFF" d="M40.3,9.6c0.1,0.2,0.2,0.2,0.3,0.4C40.5,9.8,40.5,9.8,40.3,9.6c-0.3-0.7-1-1.5-1.5-1.5h-5.6
				c-0.1,0-0.2,0.1-0.5,0.3h5.6C39.1,8.4,39.7,8.8,40.3,9.6z"/>
			<path fill="#FFFFFF" d="M31.1,9.4C31.1,9.3,31.1,9.3,31.1,9.4C31.1,9.3,31.1,9.3,31.1,9.4c0.1,0,0.1,0,0.1,0c0,0,0.1,0,0.1,0.1
				c0,0,0,0.1,0.1,0.2c0,0,0,0,0,0c0,0,0.1,0,0.1,0c0,0,0.1,0.1,0.1,0.2c0,0.1,0,0.2,0,0.3c0,0,0,0,0,0c0,0,0,0,0,0
				c0.1,0,0.1,0.1,0.1,0.1c0,0,0,0.3,0,0.5c0,0,0.1-0.1,0.1-0.1l0-1c0-0.5,0.2-0.9,0.4-1.2c0,0,0,0,0,0c0,0,0,0,0,0c0,0,0,0,0,0
				c0,0,0,0,0,0c0,0,0.1-0.1,0.1-0.1C32.7,8.1,32.9,8,32.9,8c0.1,0,0.2,0,0.2,0s5.9,0,5.9,0c0.1,0,0.1,0,0.2,0
				c0.3,0.1,0.7,0.4,0.9,0.7c0.2,0.2,0.4,0.6,0.5,0.8c0.2,0.4,0.3,0.9,0.4,1.2c0-0.1,0-0.1,0-0.2c0-0.1,0-0.2,0-0.3
				c0-0.1,0-0.1,0-0.2c0,0,0-0.1,0-0.1c0-0.2,0-0.5,0-0.8c0-1.3-1-1.3-1-1.3h-8.4c0,0-0.5,0.6-0.5,0.6V9.4z"/>
			<path fill="#FFFFFF" d="M29,9.2c0-0.2-0.1-0.3-0.1-0.3l0,0l0,0c0-0.1,0-0.1,0.1-0.2c0,0,0,0,0,0c0,0,0.1,0,0.1,0
				c0-0.1-0.1-0.2-0.2-0.2c0,0,0-0.1,0-0.1c0,0,0.1-0.1,0.1-0.1c0,0,0,0,0,0c0,0,0.2,0.1,0.3,0.2c0,0,0-0.1,0.1-0.1c0,0,0,0,0.1,0
				c0,0,0,0,0.1,0c0,0,0.1,0,0.1,0.1V8.3c0,0-0.5-0.6-0.5-0.6h-1.3V8C28.4,8.2,28.8,9.2,29,9.2z"/>
			<polygon fill="#FFFFFF" points="30.9,8.2 31.3,7.7 29.5,7.7 29.9,8.2 			"/>
			<path fill="#FFFFFF" d="M30.9,8.4h-0.9v1.5c0-0.1,0.1-0.1,0.1-0.1c0,0,0.1,0,0.1,0c0.1,0,0.1,0,0.2,0.1c0,0,0.1,0,0.1,0
				c0,0,0-0.1,0-0.1c0,0,0-0.1,0-0.1c0,0,0.1,0,0.1,0c0,0,0,0,0,0c0,0,0.1,0,0.1,0V8.4z"/>
			<path fill="#FFFFFF" d="M40.9,20.2c-0.1,0.3-0.2,0.7-0.6,1.2c-0.5,0.8-1.1,1.5-1.8,2c-0.6,0.4-1.4,0.9-2.3,0.9
				c0.8-0.1,1.7-0.2,2.4-0.4c1.3-0.4,2.2-1.2,2.8-1.8c0.6-0.7,0.9-1.3,1.1-1.7C41.7,20.7,41.2,20.4,40.9,20.2z"/>
			<path fill="#FFFFFF" d="M29.3,15.1C29.3,15,29.3,15,29.3,15.1c-0.2,0-0.3,0.1-0.3,0.1V22c0,0,0,1-0.7,1.6c-0.5,0.5-0.8,0.5-1,0.5
				v0.3h1.1c0,0,0.8-1.2,0.8-1.2L29.3,15.1z"/>
			<polygon fill="#FFFFFF" points="29.6,23.5 28.9,24.5 31.9,24.5 31.2,23.5 			"/>
			<path fill="#FFFFFF" d="M30.4,16.6c0,0-0.1,0-0.1-0.1c-0.2-0.6-0.4-0.9-0.6-1.1v7.8h1.5v-7.7C30.7,16.1,30.5,16.5,30.4,16.6
				C30.5,16.6,30.4,16.6,30.4,16.6C30.4,16.6,30.4,16.6,30.4,16.6z"/>
			<path fill="#FFFFFF" d="M32.5,14.1c1.4-0.7,2.5-0.7,3.7,0.1c0,0,0-0.1-0.1-0.1c0,0,0.2-0.1,0.4-0.1c0.2,0,0.5,0.1,0.5,0.1
				c-0.3-0.2-0.3-0.2-0.4-0.3c-0.5-0.3-1-0.4-1.5-0.5c-0.2,0-0.4-0.1-0.7-0.1c-0.3,0-0.6,0-0.9,0.1c-1.2,0.2-2.1,1-2.6,1.6
				c0,0,0,0,0,0c0,0,0,0,0,0c-0.2,0.2-0.3,0.3-0.3,0.4c0,0,0,0,0,0c0,0,0,0,0,0c0,0,0,0,0,0c0,0,0,0,0,0l0,0c0,0,0,0,0,0
				c0,0,0,0,0,0c0,0-0.1,0-0.1-0.1c-0.1-0.2-0.3-0.5-0.4-0.5c0,0-0.5-0.5-0.5-0.5c0,0.1,0,0.2-0.1,0.4c0,0,0.1,0,0.1,0.1
				c0,0,0,0,0,0c0,0,0,0,0,0c0.2,0.2,0.6,0.6,0.9,1.3C30.4,16.3,31.3,14.7,32.5,14.1z"/>
			<path fill="#FFFFFF" d="M27.9,15c0.2,0.1,0.6,0.2,0.9,0c0.5-0.3,0.4-0.7,0.4-0.7c0-0.2-0.2-0.3-0.2-0.3c-0.2-0.1-0.3-0.1-0.5,0
				c-0.1,0.1-0.2,0.2-0.2,0.3c0,0.2,0,0.3,0.1,0.3c0,0,0,0,0,0c0,0,0,0,0,0.1c0,0,0,0,0,0c0,0,0,0,0,0c0,0-0.2-0.1-0.2-0.3
				c0-0.1,0-0.4,0.3-0.5c0.3-0.2,0.6-0.1,0.8,0c0,0,0.4,0.4,0.7,0.7c0.3,0.3,0.4,0.6,0.5,0.6c0,0,1.1-1.8,3-2.1c1.7-0.3,3,0.1,4,1.1
				c0.3,0.3,0.7,0.6,0.8,1c0.7-0.4,1.3-0.1,1.4-0.1c-0.2-0.2-0.7-0.5-0.8-0.7c-0.5-0.4-1-0.7-1.5-1c-0.2-0.1-0.5-0.2-0.7-0.3
				C36.3,13,36.2,13,36,12.9c-0.1,0-0.1,0-0.2,0c0,0,0,0,0,0c0,0,0,0-0.1,0c0,0,0,0,0,0c-1-0.2-2-0.1-2.8,0.1c-0.1,0-0.1,0-0.2,0
				c0,0-0.1,0-0.1,0c-0.7,0.2-1.2,0.4-1.6,0.7c0,0,0,0,0,0c0,0,0,0-0.1,0c0.1,0.1,0.1,0.2,0.1,0.3c0,0.3-0.3,0.6-0.6,0.6
				c-0.3,0-0.6-0.3-0.6-0.6c0-0.2,0.1-0.3,0.2-0.4c0-0.1-0.1-0.1-0.2-0.2c-0.4-0.4-0.9-0.5-1.3-0.4c-0.2,0-0.3,0.1-0.4,0.2
				c-0.1,0-0.1,0.1-0.2,0.1c-0.2,0.2-0.3,0.4-0.4,0.6C27.4,14.4,27.6,14.8,27.9,15z"/>
			<path fill="#FFFFFF" d="M30.6,13.7c-0.1,0-0.1,0-0.2,0c0,0,0,0-0.1,0c0,0,0,0-0.1,0C30.1,13.7,30,13.9,30,14
				c0,0.2,0.2,0.4,0.4,0.4c0.2,0,0.4-0.2,0.4-0.4C30.7,13.9,30.7,13.8,30.6,13.7C30.6,13.7,30.6,13.7,30.6,13.7z M30.4,14.2
				c-0.1,0-0.2-0.1-0.2-0.2c0-0.1,0.1-0.2,0.2-0.2c0.1,0,0.2,0.1,0.2,0.2C30.6,14.1,30.5,14.2,30.4,14.2z"/>
			<path fill="#FFFFFF" d="M40,18.1c0-0.1-0.1-0.3-0.2-0.3c0,0-0.1,0-0.1,0c-0.1,0-0.2,0-0.3,0.1c-0.1,0.1-0.1,0.2-0.1,0.2
				c0,0.2,0.2,0.4,0.4,0.4C39.9,18.5,40,18.3,40,18.1z M39.7,18.3c-0.1,0-0.2-0.1-0.2-0.2c0-0.1,0.1-0.2,0.2-0.2
				c0.1,0,0.2,0.1,0.2,0.2C39.9,18.2,39.8,18.3,39.7,18.3z"/>
			<path fill="#FFFFFF" d="M39.9,19.2c0-0.3-0.1-0.5-0.1-0.6c0,0,0,0-0.1,0c-0.3,0-0.6-0.3-0.6-0.6c0-0.1,0-0.2,0.1-0.3c0,0,0,0,0,0
				c-0.2-0.1-1.1-0.5-1.9,0c-0.2,0.1-0.4,0.2-0.5,0.4c-0.2,0.2-0.4,0.5-0.4,0.7c-0.1,0.4,0,0.9,0.2,1.3c0.2,0.3,0.7,0.7,1.3,0.7
				c0.3,0,0.7,0.1,1.1-0.6c0.4-0.6,0.2-1-0.1-1.2c-0.3-0.2-0.8-0.2-1,0.1c-0.1,0.1-0.1,0.3-0.1,0.5c0,0.1,0,0.2,0.1,0.2
				c0,0,0,0,0-0.1c0-0.2,0.2-0.3,0.3-0.3c0.1,0,0.2,0,0.3,0.1c0.1,0.1,0.1,0.3,0.1,0.5c0,0.1-0.2,0.4-0.7,0.4c-0.5,0-0.9-0.4-1-1
				c-0.1-0.5,0.1-1.1,0.8-1.4c0.6-0.3,1.1-0.1,1.4,0.1c0.8,0.5,0.8,1.4,0.8,1.4c0,0.2,0,0.2,0,0.4C39.9,19.7,39.9,19.5,39.9,19.2z"
				/>
			<path fill="#FFFFFF" d="M34.8,23.9c1.1-0.1,2.2-0.5,3-1.2c0.9-0.8,1.4-1.3,1.6-1.8c0,0,0,0,0,0c0,0,0,0,0,0
				c0.2-0.5,0.2-0.9,0.2-1.2c-0.1-0.4-0.2-0.7-0.7-1.1c-0.2-0.2-0.5-0.3-1.1-0.1c-0.5,0.2-0.7,0.7-0.7,1.1c0,0.4,0.4,0.9,0.8,0.9
				c0.2,0,0.5-0.2,0.4-0.4c-0.1-0.3-0.3-0.1-0.3-0.1c0.2,0.1-0.1,0.3-0.3,0.1c-0.2-0.2-0.1-0.7,0.1-0.9c0.3-0.4,0.9-0.4,1.3-0.1
				c0.3,0.3,0.6,0.8,0.1,1.6c-0.2,0.3-0.4,0.4-0.8,0.6c-0.8,1.4-1.9,2.1-3.4,2.5c-0.6,0.2-1.1,0.2-1.5,0.2c-0.2,0-0.2,0-0.4,0
				C33.5,24,34,24,34.8,23.9z"/>
			<path fill="#FFFFFF" d="M43,16.3c0,0-0.1,0-0.1-0.1c-0.1,0-0.2-0.1-0.3-0.1c-0.1,0-0.2,0-0.3-0.1c-0.1,0-0.2,0-0.3,0
				c-0.4,0-0.8,0.1-1.2,0.4c-0.2,0.2-0.4,0.4-0.6,0.6c-0.1,0.1-0.2,0.3-0.2,0.5c0,0,0,0.1,0,0.1c0.2,0.1,0.3,0.2,0.3,0.5
				c0,0.2-0.1,0.4-0.3,0.5c0.1,0.5,0.3,0.9,0.6,1.1c-0.2-0.4-0.3-1.1-0.1-1.7c0.1-0.5,0.5-1.3,1.7-1.4c0.4,0,0.9,0.1,1.2,0.4
				c0.3,0.3,0.5,0.8,0.5,1.2c0.1,0.9-0.6,1.5-1.5,1.5c-0.6,0-1-0.5-1-1.1c0-0.3,0.1-0.6,0.4-0.8c0.2-0.2,0.4-0.2,0.7-0.2
				c0.1,0,0.3,0.1,0.5,0.2C43,18,43,18.2,43,18.4c0,0.4-0.2,0.8-0.7,0.7c-0.2,0-0.3-0.2-0.3-0.3c0-0.2,0.2-0.4,0.4-0.3
				c0.2,0.1,0.1,0.4-0.1,0.3c0,0.2,0.2,0.1,0.3,0c0.2-0.2,0.2-0.5,0-0.7c-0.1-0.1-0.2-0.1-0.3-0.1c-0.4-0.1-0.6,0.1-0.8,0.4
				c-0.3,0.5,0.1,1.2,0.7,1.2c0.7,0,1.2-0.5,1.2-1.2c0-0.4-0.1-0.7-0.4-1c-0.3-0.3-0.6-0.4-1-0.4c-1.1,0.1-1.3,0.7-1.5,1.2
				c-0.2,0.7-0.1,1.4,0.3,1.8c0.3,0.3,0.6,0.4,1,0.4c0.2,0,0.4,0,0.6-0.1c0,0,0,0,0.1,0c0,0,0,0,0,0c0.8-0.3,1.4-1.1,1.4-2
				C44.1,17.4,43.7,16.7,43,16.3z"/>
			<path fill="#FFFFFF" d="M39.4,22.4c0-0.1,0.1-0.1,0.1-0.2c0-0.1,0.1-0.1,0.1-0.2c0.6-0.8,1-1.8,1.1-2c0,0-0.2-0.1-0.3-0.2
				c-0.1-0.2-0.2-0.2-0.3-0.4c0,0.4-0.2,1.1-0.5,1.6c-0.3,0.5-0.7,1.1-1.6,1.8c-0.8,0.6-2.1,1.4-3.9,1.4c-0.7,0-1.3-0.2-1.6-0.5
				c-0.7-0.6-0.7-1.6-0.7-1.6c0,0,0-7.2,0-7.2c-0.1,0.1-0.3,0.3-0.3,0.3v8l0.2,0.3l0.7,0.9c0,0,2.3,0,2.5,0c1-0.1,2.4-0.4,3.5-1.2
				C38.8,23,39.1,22.7,39.4,22.4z"/>
		</g>
		<g>
			<path fill="#FFFFFF" d="M36.9,15.8c-0.1,0-0.5,0.1-0.7,0.3c0.1,0,0.3,0,0.3,0c0,0-0.2,0.1-0.4,0.4c0,0,0.1,0,0.1,0
				c0,0-0.2,0.2-0.3,0.4c0.1,0,0.2,0,0.2,0c0,0-0.1,0.2-0.2,0.5c0.1-0.1,0.4-0.3,0.5-0.6c0.1-0.1,0.1-0.2,0.1-0.3c0,0,0-0.1,0.1-0.1
				c0,0,0,0,0-0.1c0,0,0,0,0,0h0c0.1-0.1,0.2-0.3,0.3-0.2C36.9,15.8,36.9,15.8,36.9,15.8z"/>
			<polygon fill="#FFFFFF" points="36.4,15.2 36.4,15.2 36.4,15.2 			"/>
			<path fill="#FFFFFF" d="M38,15.3c-0.1-0.5-0.5-0.8-0.6-0.8v0.1c0,0,0,0,0,0c0,0,0,0,0,0c0,0-0.3-0.3-0.3-0.3v0.1c0,0,0,0,0,0
				c0,0,0,0,0,0c-0.2-0.2-0.5-0.3-0.6-0.3l0.3,0.2c0.5,0.4,0.8,0.9,0.8,1c0.1-0.3,0.3,0.1,0.3,0.1c0,0.1,0.1,0.2,0.1,0.2
				C37.9,15.6,38,15.4,38,15.3z"/>
			<path fill="#FFFFFF" d="M37.1,16.4c-0.1-0.1-0.2-0.2-0.2-0.3c0,0-0.1,0-0.1,0c0,0-0.1,0-0.2,0.2c0,0-0.2,0.4-0.2,0.4
				c-0.2,0.3-0.4,0.5-0.6,0.7c0.1,0,0.2,0,0.2-0.1c0,0,0,0,0,0c0,0,0,0,0,0c0,0,0,0.1-0.1,0.2c0.4-0.1,0.4-0.3,0.5-0.3
				c0.1,0,0.2,0.2,0.2,0.2c0-0.2,0.1-0.4,0.1-0.6C36.9,16.7,37,16.5,37.1,16.4z"/>
			<path fill="#FFFFFF" d="M37,15.4c0,0.1-0.1,0.2,0,0.5c0,0,0,0,0,0c0,0,0,0,0,0L37,16c0,0,0,0.1,0,0.1c0,0.1,0.1,0.2,0.2,0.3
				c0.1-0.1,0.3-0.2,0.4-0.2c0,0-0.1-0.1-0.2-0.3C37.2,15.7,37.1,15.4,37,15.4z"/>
			<path fill="#FFFFFF" d="M37.6,15.5c0,0,0,0.2-0.1,0.2c-0.2-0.3-0.3-0.3-0.4-0.3c0,0.1,0.1,0.3,0.3,0.5c0.1,0.1,0.2,0.3,0.2,0.3
				c0-0.2,0-0.2,0.1-0.3C37.7,15.7,37.6,15.5,37.6,15.5z"/>
			<path fill="#FFFFFF" d="M36.3,14.2c-0.1,0.1,0.1,0.3,0.1,0.3c-0.1,0-0.2-0.1-0.2-0.1c0,0,0.1,0.4,0.3,0.5c-0.1,0-0.3-0.1-0.3-0.1
				c0,0.1,0.1,0.3,0.3,0.5c0,0-0.2,0-0.2,0c0,0.1,0.1,0.3,0.2,0.4c0.1,0,0.2,0,0.2,0c0,0,0-0.4,0.2-0.5c0.1,0,0.1,0,0.2,0.1
				c0,0-0.1-0.2-0.3-0.4C36.7,14.5,36.4,14.3,36.3,14.2z"/>
			<path fill="#FFFFFF" d="M42.3,14.6c0,0.1-0.1,0.4-0.2,0.5c0,0,0,0,0,0L42,14.8c0,0.2-0.1,0.4-0.1,0.6c0,0,0,0,0,0c0,0,0,0,0,0
				c0,0-0.1-0.1-0.2-0.2c0,0.1-0.2,0.2-0.2,0.3c0.1,0.1,0.1,0.2,0.2,0.3c0,0,0.2,0,0.2,0c0,0,0.1,0,0.1,0
				C42.5,15.5,42.3,14.8,42.3,14.6z"/>
			<path fill="#FFFFFF" d="M37.1,12.2c0,0.1,0,0.2,0,0.2c0,0,0,0,0,0c0,0,0,0,0,0c-0.1-0.1-0.3-0.2-0.5-0.2c0,0.1,0,0.2,0,0.2
				c0,0,0,0,0,0c0,0,0,0,0,0c-0.2-0.1-0.5-0.1-0.7,0c0.1,0,0.6,0,1,0.2c0.3,0.1,0.5,0.2,0.5,0.3c0.1-0.1,0.2-0.2,0.2-0.2
				s0.1,0.1,0.1,0.1c0,0,0.1-0.1,0.1-0.2C37.7,12.5,37.2,12.3,37.1,12.2z"/>
			<path fill="#FFFFFF" d="M38.5,12.4c-0.1,0-0.6,0.1-0.8,0.7c0,0,0,0,0,0c0,0,0,0,0,0c0,0,0,0-0.1-0.1c-0.1,0-0.2,0.2-0.2,0.3
				c0.1,0,0.3,0.1,0.3,0.2C37.7,13.4,38.2,12.6,38.5,12.4z"/>
			<path fill="#FFFFFF" d="M38.5,12.8c0-0.1,0.1-0.2,0.1-0.3c-0.1,0.1-0.4,0.5-0.5,0.6c0,0,0,0,0,0c-0.1,0.1-0.2,0.3-0.2,0.4
				c0,0,0,0,0,0c0-0.1,0.1-0.1,0.2-0.2c0.2-0.1,0.3,0,0.5,0.1c0.1-0.2,0.1-0.5,0.1-0.6C38.6,12.8,38.5,12.9,38.5,12.8z"/>
			<path fill="#FFFFFF" d="M39.1,14.4c0-0.1,0.1-0.4,0.2-0.5c0-0.3-0.1-0.4-0.2-0.4c-0.1-0.1-0.2-0.1-0.3-0.1l0,0
				c-0.2,0-0.3,0.1-0.4,0.2c0.1,0.1,0.2,0.2,0.3,0.4C39,14.1,39,14.3,39.1,14.4C39.1,14.4,39.1,14.4,39.1,14.4z M39,13.4
				c0.1,0,0.1,0.2,0.1,0.2c0,0.1-0.1,0-0.2,0c-0.1,0-0.1-0.1-0.1-0.1C38.8,13.5,38.9,13.4,39,13.4z"/>
			<path fill="#FFFFFF" d="M37.3,13.1c-0.1-0.2-0.9-0.5-1.4-0.5c0,0.1,0.3,0.2,0.3,0.2c0.1,0,0.4,0.1,0.6,0.2
				c0.2,0.1,0.3,0.1,0.5,0.2C37.2,13.2,37.3,13.1,37.3,13.1z"/>
			<path fill="#FFFFFF" d="M43,15.6c-0.1,0-0.1,0.1-0.1,0.1c0,0,0,0,0,0c0,0,0,0,0,0c0.1-0.2,0-0.4,0-0.5c0,0-0.2,0.1-0.2,0.1
				c0,0,0,0,0,0c0,0,0,0,0,0c0-0.2-0.1-0.5-0.2-0.6c0.1,0.1,0.1,0.3,0.1,0.5c0,0.1,0,0.4,0,0.5c0,0.1-0.1,0.3-0.2,0.4
				c0.1,0,0.3,0,0.4,0.1l0,0c0.1,0,0.2,0.1,0.3,0.1C43,16,43,15.7,43,15.6z"/>
			<path fill="#FFFFFF" d="M41.4,15.5c0,0,0.3-0.4,0.3-0.4c0,0,0.1,0,0.1,0c0,0,0,0.1,0.1,0.1c0-0.2,0-0.4-0.1-0.5
				c-0.1-0.1-0.2-0.1-0.3-0.1c-0.1,0-0.4,0.3-0.5,0.5C41.1,15.2,41.4,15.5,41.4,15.5z M41.5,14.8c0.1,0,0.1,0.2,0.1,0.2
				c0,0.1-0.1,0.1-0.2,0c-0.1,0-0.1-0.1-0.1-0.1C41.3,14.8,41.4,14.7,41.5,14.8z"/>
			<path fill="#FFFFFF" d="M40.4,14.8c-0.3,0-0.4,0.2-0.5,0.4c0,0,0.1,0.1,0.1,0.1c0.1-0.1,0.4-0.1,0.7-0.1
				C40.6,15,40.5,14.8,40.4,14.8z M40.3,14.8c0.1,0,0.1,0.1,0.1,0.1c0,0-0.1,0.1-0.2,0.1c-0.1,0-0.1,0-0.1-0.1
				C40.2,14.9,40.2,14.8,40.3,14.8z"/>
			<path fill="#FFFFFF" d="M40.4,14c-0.1,0-0.2,0-0.3,0.1C40,14.2,40,14.5,40,14.8c0.1-0.2,0.2-0.2,0.4-0.1c0.2,0,0.3,0.2,0.4,0.4
				c0,0,0.1-0.1,0.3-0.3c0,0,0-0.1,0-0.1C40.9,14.3,40.7,14.1,40.4,14z M40.3,14.1c0.1,0,0.2,0.1,0.2,0.1c0,0.1-0.1,0.1-0.2,0.1
				c-0.1,0-0.2,0-0.2-0.1C40.1,14.3,40.2,14.1,40.3,14.1z"/>
			<path fill="#FFFFFF" d="M39.8,15L39.8,15C39.8,15,39.8,15.1,39.8,15C39.9,15.1,39.9,15.1,39.8,15c0.1-0.1,0-0.8,0.2-1
				c0,0,0.1-0.1,0.2-0.1c0-0.1,0-0.3-0.2-0.3c-0.3-0.1-0.6,0.6-0.7,0.9C39.5,14.7,39.6,14.8,39.8,15L39.8,15z M39.9,13.7
				c0.1,0,0.1,0.1,0.1,0.2c0,0.1-0.1,0.1-0.2,0c-0.1,0-0.1-0.1-0.1-0.1C39.8,13.7,39.8,13.6,39.9,13.7z"/>
			<path fill="#FFFFFF" d="M38,13.7c0.3,0.2,0.5,0.3,0.8,0.6c0-0.1-0.1-0.1-0.1-0.2c-0.3-0.5-0.5-0.6-0.7-0.5c-0.1,0-0.1,0-0.1,0.1
				C37.9,13.6,38,13.6,38,13.7L38,13.7z"/>
			<path fill="#FFFFFF" d="M39.1,17c-0.1-0.2-0.2-0.3-0.3-0.4c0,0,0,0,0,0c-0.1-0.1-0.1-0.1-0.2-0.1c0,0-0.1,0-0.1,0
				c0,0,0,0.1,0,0.1c0,0.1,0.1,0.2,0.2,0.3c0,0,0.1,0.1,0.1,0.1c0,0,0.1,0.1,0.1,0.1C38.9,17.1,39,17,39.1,17z"/>
			<path fill="#FFFFFF" d="M39.3,16.8c0-0.3-0.1-0.6-0.3-0.6c0,0-0.1,0-0.1,0c0,0,0,0,0,0c0,0-0.1,0-0.1,0.1c0,0.1,0.1,0.4,0.3,0.6
				C39.2,16.9,39.3,16.8,39.3,16.8z"/>
			<path fill="#FFFFFF" d="M39.7,16.8c0.1-0.2,0.1-0.6,0-0.7c0,0-0.1-0.1-0.1-0.1c0,0,0,0,0,0c0,0-0.1,0-0.1,0.1
				c-0.1,0.1-0.1,0.4,0,0.7C39.5,16.8,39.6,16.8,39.7,16.8z"/>
			<path fill="#FFFFFF" d="M40,16.9c0.1-0.2,0.3-0.5,0.2-0.6c0,0,0-0.1-0.1-0.1c0,0,0,0,0,0c0,0-0.1,0-0.1,0
				c-0.1,0.1-0.2,0.4-0.2,0.6C39.8,16.8,39.9,16.9,40,16.9z"/>
			<path fill="#FFFFFF" d="M41.5,16c0,0-0.4-0.7-1.3-0.6c0,0-0.1,0-0.1,0c0,0,0,0-0.1,0c0,0,0,0,0,0c0,0-0.1,0-0.1,0
				c0,0,0,0.3-0.1,0.6c0,0,0.1,0,0.2,0c0.1,0,0.1,0.1,0.2,0.1c0,0,0,0.1,0,0.1c0.1-0.1,0.2-0.2,0.2-0.3c0,0,0,0-0.1,0
				c-0.1,0-0.1,0-0.2-0.1c0,0-0.1-0.1,0-0.2c0,0,0-0.1,0.1-0.1c0,0,0.1,0,0.1,0c0,0,0.1,0,0.1,0c0,0,0.1,0,0.1,0c0,0,0,0,0,0
				c0,0,0.1,0,0.1,0.1c0,0,0,0.1,0,0.1c0,0.3-0.2,0.5-0.4,0.7c-0.1,0.1-0.2,0.3-0.3,0.4c0.1-0.2,0.3-0.4,0.5-0.5c0,0,0,0,0,0
				C40.9,16.2,41.2,16,41.5,16z"/>
			<path fill="#FFFFFF" d="M39,17.2c0,0-0.1,0.2-0.1,0.2c0.2,0.1,0.2,0.1,0.3,0.2c0.1-0.1,0.3-0.2,0.4-0.2c0.1,0,0.1,0,0.2,0
				c0.1-0.2,0.1-0.2,0.2-0.4C39.6,16.9,39.3,16.9,39,17.2z"/>
			<path fill="#FFFFFF" d="M38.7,17.1c0,0-0.1-0.1-0.1-0.1c-0.1,0-0.1-0.1-0.2-0.1c0,0,0,0,0,0c-0.1,0-0.1-0.1-0.2,0
				c0,0-0.1,0-0.1,0.1c0,0,0,0.1,0,0.1c0,0.1,0.2,0.2,0.5,0.3c0,0,0.1,0,0.1,0c0-0.1,0.1-0.1,0.1-0.2C38.8,17.2,38.7,17.1,38.7,17.1
				z"/>
			<path fill="#FFFFFF" d="M37.6,16.4c0,0-0.1,0-0.1,0.1c-0.1,0.1-0.2,0.2-0.3,0.3c-0.3,0.3-0.2,1-0.2,1c0,0,0.2-0.1,0.2-0.1
				c0.2-0.1,0.6-0.3,0.8-0.2c-0.3-0.1-0.6-0.1-0.7-0.2c-0.1-0.1-0.1-0.2,0-0.2c0-0.1,0.1-0.2,0.2-0.2c0.1,0,0.1,0,0.1,0
				c0.1,0,0.1,0.1,0.1,0.1c0,0.1,0,0.1,0,0.2c0,0,0,0,0,0c0.1,0,0.2,0.1,0.4,0.1c0,0-0.1-0.1-0.1-0.1c0-0.1,0-0.1,0-0.2
				c0-0.1,0.1-0.1,0.2-0.1l0,0C37.9,16.5,37.7,16.4,37.6,16.4z"/>
			<path fill="#FFFFFF" d="M39.8,15.4c-0.3-0.2-1.5-0.4-1.9,0.5c0,0,0,0.1,0,0.1c0,0,0,0.1,0,0.1c0,0.1,0,0.2,0,0.2l0,0
				c0,0,0.3,0.2,0.5,0.3l0,0c0-0.1,0-0.1,0.1-0.2c0.1-0.1,0.1-0.1,0.2-0.1c0,0,0.1,0,0.1,0c-0.1-0.1-0.1-0.3-0.2-0.3c0,0,0,0,0,0.1
				c0,0-0.1,0.1-0.2,0.1c0,0-0.1,0-0.2,0c0,0-0.1-0.1-0.1-0.1c0-0.1,0.1-0.2,0.1-0.3c0.1,0,0.2-0.1,0.2,0c0.1,0,0.2,0.2,0.4,0.4
				c0,0,0,0,0.1,0c0,0,0,0,0,0c0,0,0,0,0.1,0c0-0.2,0-0.4,0-0.5c0-0.1,0.1-0.1,0.2-0.1c0,0,0,0,0,0c0.1,0,0.2,0,0.2,0c0,0,0,0,0.1,0
				c0,0,0.1,0.1,0.1,0.1c0,0.1-0.1,0.1-0.1,0.1c-0.1,0.1-0.1,0.1-0.2,0.1c0,0,0,0-0.1,0c0,0.1,0.1,0.2,0.1,0.3c0-0.1,0-0.1,0.1-0.1
				c0-0.1,0.1-0.1,0.2-0.1c0.1,0,0.1,0,0.2,0.1C39.8,15.7,39.8,15.4,39.8,15.4z"/>
		</g>
	</g>
</g>
</svg>
