<?xml version="1.0" encoding="utf-8"?>
<!DOCTYPE svg PUBLIC "-//W3C//DTD SVG 1.1//EN" "http://www.w3.org/Graphics/SVG/1.1/DTD/svg11.dtd">
<svg version="1.1" id="Layer_1" xmlns="http://www.w3.org/2000/svg" xmlns:xlink="http://www.w3.org/1999/xlink" x="0px" y="0px"
	 viewBox="0 0 226.1 226.1" enable-background="new 0 0 226.1 226.1" xml:space="preserve">
<g>
	<path fill="#6B3F23" d="M86.4,134.2c-0.2-0.3-1.5-1.5-1.9-1.9c-0.4-0.4-0.6-0.7-0.6-1.1c0,0,0-9.9,0-13.3c0-3.4-2.9-6.3-4.8-7.1
		c0,0,4.9-2.4,4.7-11.3c-0.1-7.8-3.4-11.8-10-11.8h-8c-0.3,0-0.4,0.2-0.4,0.4c0,0.2,0.1,0.3,0.4,0.6c0.4,0.4,1.4,1.3,1.9,1.8
		c0.5,0.5,0.6,1,0.6,1.8v38.5c0,0.8-0.1,1.2-0.6,1.8c-0.5,0.6-1.5,1.5-1.9,1.8c-0.3,0.3-0.4,0.4-0.4,0.6c0,0.2,0.1,0.4,0.4,0.4h10
		c0.3,0,0.4-0.2,0.4-0.4c0-0.2-0.3-0.4-0.4-0.6c-0.2-0.2-1.3-1.1-1.9-1.8c-0.6-0.7-0.6-1-0.6-1.8v-17.9c2.2-0.5,3.9,0.5,4.7,2.4
		c0.6,1.4,0.9,4.9,0.9,7.1c0,5.1,0,8.9,0,8.9c0,2.2,1.2,4.1,4.2,4.1c0,0,2.9,0,3.3,0c0.4,0,0.6-0.1,0.6-0.3
		C87.1,134.7,86.8,134.6,86.4,134.2z M78.1,106.7c-0.8,2.3-2.9,3.1-4.8,2.7V91c1.9-0.4,3.7,0.4,4.6,2.2c0.7,1.4,1.1,3.5,1.1,6.3
		C78.9,102.5,78.6,105,78.1,106.7z"/>
	<path fill="#6B3F23" d="M48.3,120.3c0-5-2.1-8.3-4.8-9.5c0,0,5.1-2.2,4.8-11.3c-0.3-8-3.5-11.8-10.1-11.8h-7.9
		c-0.3,0-0.4,0.2-0.4,0.4c0,0.2,0,0.2,0.4,0.6c0.4,0.4,1.4,1.3,1.9,1.8c0.5,0.5,0.6,1,0.6,1.8v38.5c0,0.8-0.1,1.2-0.6,1.8
		c-0.5,0.6-1.6,1.5-1.9,1.8c-0.3,0.3-0.4,0.4-0.4,0.6c0,0.2,0.1,0.4,0.4,0.4h10C49.4,135.4,48.3,121.3,48.3,120.3z M42.4,129.4
		c-0.8,2.3-2.9,3.1-4.8,2.7v-19.3c1.9-0.4,3.7,0.4,4.6,2.2c0.7,1.4,1.1,3.5,1.1,6.3C43.3,124.4,43,127.7,42.4,129.4z M42.4,106.7
		c-0.8,2.3-2.9,3.1-4.8,2.7V91c1.9-0.4,3.7,0.4,4.6,2.2c0.7,1.4,1.1,3.5,1.1,6.3C43.3,102.5,43,105,42.4,106.7z"/>
	<g>
		<path fill="#6B3F23" d="M129.2,156.3c-0.8,0-1.4,0.7-1.4,0.7v-0.6c0-0.1,0-0.1-0.1-0.1h-2c-0.2,0-0.1,0.2,0,0.2
			c0.1,0.1,0.4,0.3,0.5,0.4c0.2,0.1,0.2,0.2,0.2,0.2v12.2c0,0.1,0,0.1,0,0.2l-0.6,0.7c-0.1,0.1-0.2,0.2,0,0.2h2.7
			c0.2,0,0.1-0.2,0-0.2l-0.6-0.7c0,0,0-0.1,0-0.2v-2.4c0,0,0.5,0.8,1.4,0.8c0.9,0,1.9-0.5,1.9-6.3
			C131.1,156.8,130.1,156.3,129.2,156.3z M129.3,166.3c-0.3,1.3-1.5,0.3-1.5-1.2c0-0.8,0-6.3,0-6.3c0-1,0.6-1.5,0.9-1.5
			c0.5,0,0.8,0.4,0.8,4.2C129.5,163.4,129.5,165.3,129.3,166.3z"/>
		<path fill="#6B3F23" d="M60.5,153.8c0-0.2,0-0.4-0.2-0.6c-0.2-0.2-0.6-0.5-0.6-0.6c-0.1-0.1-0.1-0.1-0.1-0.2c0-0.1,0-0.1,0.1-0.1
			h3.1c1.7,0,2.8,1.1,2.7,4.1c0,2.6-0.7,4.4-3.4,4.2v5.7c0,0.2,0,0.4,0.2,0.6c0.2,0.1,0.7,0.5,0.8,0.6c0.1,0.1,0.1,0.1,0.1,0.2
			c0,0.1,0,0.1-0.1,0.1h-3.4c-0.1,0-0.1-0.1-0.1-0.1c0-0.1,0.1-0.1,0.2-0.2c0.1-0.1,0.4-0.4,0.6-0.6c0.2-0.2,0.2-0.3,0.2-0.6V153.8z
			 M62.1,159.5c1.7,0.3,1.7-1.1,1.7-3.2c0-2.1-0.1-3.2-1.7-3V159.5z"/>
		<path fill="#6B3F23" d="M74,166.3c0,0.3,0.1,0.5,0.3,0.5c0.3,0,0.5-0.2,0.6-0.3c0.1-0.2,0.2-0.1,0.1,0.1c-0.1,0.6-0.5,1.1-1.1,1.1
			c-0.6,0-1-0.4-1.2-0.8c-0.3,0.4-0.9,0.8-1.4,0.8c-0.8,0-1.8-0.5-1.8-3.3c0-2.3,0.4-2.9,2.6-4.7c0.4-0.3,0.4-0.5,0.4-1.4
			c0-0.9-0.2-1.1-0.9-1.1c-0.8,0-1.6,0.7-1.8,0.8c-0.1,0.1-0.3,0.1-0.3,0c0-0.2,1.1-1.7,2.3-1.7c0.7,0,2,0.4,2,2.6V166.3z
			 M72.6,160.2c-1.1,0.8-1.5,1.7-1.5,3.8c0,2.3,0.2,2.8,0.7,2.8c0.5,0,0.8-0.6,0.8-1.2V160.2z"/>
		<path fill="#6B3F23" d="M99.4,166.3c0,0.3,0.1,0.5,0.3,0.5c0.3,0,0.5-0.2,0.6-0.3c0.1-0.2,0.2-0.1,0.1,0.1c-0.1,0.6-0.5,1.1-1,1.1
			c-0.6,0-1-0.4-1.2-0.8c-0.3,0.4-0.9,0.8-1.4,0.8c-0.8,0-1.8-0.5-1.8-3.3c0-2.3,0.3-2.9,2.6-4.7c0.4-0.3,0.4-0.5,0.4-1.4
			c0-0.9-0.2-1.1-0.9-1.1c-0.8,0-1.6,0.7-1.8,0.8c-0.1,0.1-0.3,0.1-0.3,0c0-0.2,1.1-1.7,2.3-1.7c0.7,0,2,0.4,2,2.6V166.3z
			 M97.9,160.2c-1.1,0.8-1.5,1.7-1.5,3.8c0,2.3,0.2,2.8,0.7,2.8c0.5,0,0.8-0.6,0.8-1.2V160.2z"/>
		<path fill="#6B3F23" d="M114.8,166.3c0,0.3,0.1,0.5,0.3,0.5c0.3,0,0.5-0.2,0.6-0.3c0.1-0.2,0.2-0.1,0.1,0.1
			c-0.2,0.6-0.5,1.1-1.1,1.1c-0.6,0-1-0.4-1.2-0.8c-0.3,0.4-0.9,0.8-1.4,0.8c-0.8,0-1.8-0.5-1.8-3.3c0-2.3,0.3-2.9,2.6-4.7
			c0.4-0.3,0.4-0.5,0.4-1.4c0-0.9-0.2-1.1-0.9-1.1c-0.8,0-1.6,0.7-1.8,0.8c-0.1,0.1-0.3,0.1-0.3,0c0-0.2,1-1.7,2.3-1.7
			c0.7,0,2,0.4,2,2.6V166.3z M113.4,160.2c-1.1,0.8-1.5,1.7-1.5,3.8c0,2.3,0.2,2.8,0.7,2.8c0.4,0,0.8-0.6,0.8-1.2V160.2z"/>
		<path fill="#6B3F23" d="M164.4,166.3c0,0.3,0.1,0.5,0.3,0.5c0.3,0,0.5-0.2,0.6-0.3c0.1-0.2,0.2-0.1,0.1,0.1
			c-0.2,0.6-0.5,1.1-1.1,1.1c-0.6,0-1-0.4-1.2-0.8c-0.3,0.4-0.9,0.8-1.4,0.8c-0.8,0-1.8-0.5-1.8-3.3c0-2.3,0.4-2.9,2.6-4.7
			c0.4-0.3,0.4-0.5,0.4-1.4c0-0.9-0.2-1.1-0.9-1.1c-0.8,0-1.6,0.7-1.8,0.8c-0.1,0.1-0.3,0.1-0.3,0c0-0.2,1.1-1.7,2.3-1.7
			c0.7,0,2,0.4,2,2.6V166.3z M162.9,160.2c-1.1,0.8-1.5,1.7-1.5,3.8c0,2.3,0.2,2.8,0.7,2.8c0.5,0,0.8-0.6,0.8-1.2V160.2z"/>
		<path fill="#6B3F23" d="M82.8,160.4c0,0.3-0.2,0.2-0.2,0c-0.1-0.2-0.6-3.3-1.6-3.2c-1,0.2-0.4,2.9,0.7,4.5c0.8,1.2,1.3,2.7,1.3,4
			c0,1.3-0.9,2.1-1.8,2.1c-0.6,0-0.9-0.3-1.2-0.7l-0.5,0.6c-0.1,0-0.3,0.3-0.3,0v-4c0-0.2,0.2-0.1,0.2,0c0.3,1.6,0.8,3.2,1.6,3.2
			c0.5,0,0.7-0.3,0.7-0.9c0-1.3-0.7-2.6-1.3-3.7c-0.7-1.2-1.2-2.5-1.2-3.8c0-1.3,0.8-2.2,1.6-2.2c0.5,0,0.9,0.2,1.2,0.7
			c0,0,0.4-0.4,0.6-0.6c0.2-0.2,0.2,0,0.2,0.1C82.8,156.5,82.8,160.1,82.8,160.4z"/>
		<path fill="#6B3F23" d="M89.6,166.1c0,1.1,0.9,0.8,1.1,0.3c0.1-0.1,0.3-0.1,0.1,0.3c-0.1,0.4-0.5,1-1.4,1c-0.9,0-1.3-0.4-1.3-2.1
			c0,0,0-7.9,0-8.3c0-0.4-0.3-0.5-0.7-0.8c-0.2-0.2,0-0.2,0.2-0.3c0.9-0.2,1-1.7,1-2.6c0-0.1,0.1-0.2,0.2-0.2h0.6
			c0.1,0,0.1,0,0.1,0.1v2.4c0,0.1,0,0.2,0.2,0.2h0.5c0.1,0,0.1,0.1,0,0.2c-0.2,0.2-0.6,0.6-0.6,0.9
			C89.6,157.6,89.6,166.1,89.6,166.1z"/>
		<path fill="#6B3F23" d="M136.2,157.3c0-0.1,0-0.1-0.1-0.2l-0.6-0.6c0-0.1-0.2-0.2,0-0.2h2c0.1,0,0.1,0,0.1,0.1v10.2
			c0,0.1,0,0.1,0,0.2l0.6,0.7c0,0,0.2,0.2,0,0.2h-2.7c-0.2,0-0.1-0.2,0-0.2l0.6-0.7c0,0,0-0.1,0-0.2V157.3z M137.6,153.4
			c0,0.5-0.3,1.1-0.7,1.1c-0.4,0-0.8-0.6-0.8-1.1c0-0.6,0.3-1.1,0.8-1.1C137.3,152.3,137.6,152.8,137.6,153.4z"/>
		<path fill="#6B3F23" d="M142.7,156.5c0-0.1,0.1-0.2,0.2-0.2h3.8c0.2,0,0.1,0.2,0.1,0.2l-2.5,10.5h1.1c0.2,0,0.3-0.1,0.4-0.3
			c0,0,0.8-2.5,1-2.9c0.1-0.4,0.2-0.1,0.2,0c0,0.1,0,3.7,0,3.7c0,0.1,0,0.1-0.2,0.1c0,0-4,0-4.1,0c-0.1,0-0.1-0.1-0.1-0.2
			c0-0.1,2.7-10.5,2.7-10.5h-1c-0.2,0-0.3,0.1-0.4,0.3c0,0-0.8,2.4-0.9,2.8c-0.1,0.4-0.3,0.2-0.3,0.1V156.5z"/>
		<path fill="#6B3F23" d="M151.3,156.5c0-0.1,0.1-0.2,0.2-0.2h3.8c0.2,0,0.1,0.2,0.1,0.2l-2.5,10.5h1.1c0.2,0,0.3-0.1,0.4-0.3
			c0,0,0.8-2.5,1-2.9c0.1-0.4,0.2-0.1,0.2,0c0,0.1,0,3.7,0,3.7c0,0.1,0,0.1-0.2,0.1c0,0-4,0-4.1,0c-0.1,0-0.1-0.1-0.1-0.2
			c0-0.1,2.7-10.5,2.7-10.5h-1c-0.2,0-0.3,0.1-0.4,0.3c0,0-0.8,2.4-0.9,2.8c-0.1,0.4-0.3,0.2-0.3,0.1V156.5z"/>
	</g>
	<path fill="#6B3F23" d="M121.6,87.7H113c-0.3,0-0.4,0.2-0.4,0.4c0,0.2,0.2,0.4,0.4,0.5c0.2,0.2,1.6,1.5,1.9,1.9
		c0.4,0.4,0.5,1,0.5,1.8v36.2c0,5-6.5,4.8-6.5,0.2V92.2c0-0.8,0.2-1.4,0.5-1.8c0.3-0.4,1.8-1.7,1.9-1.9c0.2-0.2,0.3-0.3,0.3-0.5
		c0-0.2-0.1-0.4-0.4-0.4h-9.7c-0.3,0-0.4,0.2-0.4,0.4c0,0.2,0.1,0.4,0.3,0.6c0.2,0.2,1.6,1.4,2,1.8c0.4,0.4,0.5,1,0.5,1.8v35.6
		c0,4.6,3.8,7.5,7.6,7.5c3.8,0,7.6-2.7,7.6-7.9V92.2c0-0.8,0.2-1.4,0.5-1.8c0.3-0.4,1.8-1.7,2-1.8c0.1-0.1,0.3-0.4,0.3-0.6
		C122,87.9,121.8,87.7,121.6,87.7z"/>
	<path fill="#6B3F23" d="M141.6,92.2c0-0.8-0.2-1.3-0.6-1.8c-0.3-0.4-1.1-1.3-1.6-1.8c-0.2-0.2-0.4-0.4-0.4-0.6
		c0-0.1,0.1-0.3,0.4-0.3h7.6c0.4,0,0.6,0.4,0.8,1.1l6,27.3V92.2c0-0.8-0.2-1.3-0.6-1.7c-0.4-0.4-1.6-1.7-1.8-1.9
		c-0.2-0.2-0.4-0.4-0.4-0.6c0-0.1,0.1-0.3,0.4-0.3h8.4c0.3,0,0.4,0.2,0.4,0.3c0,0.3-0.2,0.4-0.5,0.7c-0.3,0.3-1.2,1.2-1.5,1.7
		c-0.4,0.5-0.6,1-0.6,1.8v42.4c0,0.4,0,0.7-0.6,0.7h-2.7c-0.6,0-1.1-0.6-1.3-1.6l-7.6-34.7v31.7c0,0.8,0.2,1.2,0.7,1.8
		c0.6,0.7,1.4,1.5,1.7,1.8c0.2,0.2,0.4,0.4,0.4,0.6c0,0.1-0.1,0.3-0.4,0.3h-8.4c-0.3,0-0.4-0.2-0.4-0.3c0-0.3,0.2-0.4,0.5-0.7
		c0.4-0.4,1.1-1.3,1.5-1.7c0.4-0.5,0.6-1,0.6-1.8V92.2z"/>
	<g>
		<rect x="29.8" y="143.4" fill="#6B3F23" width="164.3" height="0.6"/>
	</g>
	<path fill="#6B3F23" d="M194.2,110.2c0,12-0.7,25.1-8.5,25.1c-7.8,0-8.4-13.1-8.4-25.1c0-9.2,0.6-22.6,8.4-22.6
		C193.5,87.7,194.2,101.1,194.2,110.2z M182.4,110.3c0,16.5,1.1,21.9,3.2,21.9c2.1,0,3.3-5.3,3.3-21.9c0-14.1-1.3-19.5-3.3-19.5
		C183.6,90.8,182.4,96.2,182.4,110.3z"/>
	<g>
		<path fill="#6B3F23" d="M76.4,58.2l5.1-1.6l0.5,1.6l-0.4,0.2l-0.9-1.1l-1.2,0.4l1.6,5.2l0.9,0.1l0.1,0.4L79.7,64l-0.2-0.4l0.7-0.5
			l-1.6-5.2l-1.2,0.4l-0.1,1.4l-0.4,0.1L76.4,58.2z"/>
		<path fill="#6B3F23" d="M90.5,57.8l-0.3-0.6c-0.1,0-0.2,0-0.5,0c-0.3,0.1-0.6,0.3-0.9,0.5l0.7,3.2l0.6,0.1l0,0.3l-1.9,0.4
			l-0.1-0.3l0.6-0.3l-0.7-3.4l-0.5,0.1l-0.1-0.3l1-0.3l0.4,0.3c0.3-0.2,0.6-0.5,1.1-0.6c0.3-0.1,0.6-0.1,0.8,0l0.2,0.9L90.5,57.8z"
			/>
		<path fill="#6B3F23" d="M95.9,56.1c0.4-0.3,0.9-0.4,1.3-0.5c1.1-0.1,1.8,0.4,1.9,1.5l0.2,2.2l0.6,0.1l0,0.3l-1.2,0.1l-0.2-0.3
			c-0.3,0.3-0.6,0.5-1.2,0.6c-0.8,0.1-1.4-0.3-1.5-1.1c-0.1-1.3,1.2-1.7,2.5-1.8l-0.1-0.5c-0.1-0.7-0.5-0.9-1-0.9
			c-0.2,0-0.5,0.1-0.8,0.2l-0.1,0.7l-0.3,0L95.9,56.1z M98.4,57.6c-1.2,0.1-1.6,0.6-1.5,1.3c0.1,0.7,0.5,0.8,0.9,0.8
			c0.4,0,0.6-0.3,0.8-0.6L98.4,57.6z"/>
		<path fill="#6B3F23" d="M105.7,54.9l1.2-0.1l-0.1,0.3l-1.2,0.1l0.2,3c0,0.4,0.3,0.7,0.6,0.7c0.3,0,0.5-0.2,0.7-0.4l0.2,0.2
			c-0.3,0.3-0.6,0.6-1.1,0.6c-0.9,0.1-1.3-0.5-1.3-1.1l-0.2-2.9l-0.5,0l-0.1-0.3l0.7-0.2l0.3-1l0.4,0.1L105.7,54.9z"/>
		<path fill="#6B3F23" d="M113.3,54.8l1.2,0l-0.1,0.3l-1.2,0l0,3c0,0.4,0.2,0.7,0.5,0.7c0.3,0,0.6-0.1,0.8-0.3l0.2,0.3
			c-0.3,0.3-0.6,0.5-1.1,0.5c-0.9,0-1.2-0.5-1.2-1.2l0.1-2.9l-0.5,0l-0.1-0.3l0.7-0.2l0.4-1l0.4,0.1L113.3,54.8z"/>
		<path fill="#6B3F23" d="M123.8,57.4c-0.1,1.4-0.9,2.2-2.4,2.1c-1.5-0.1-2.1-1.1-2-2.4c0.1-1.4,1-2.2,2.4-2.1
			C123.1,55.1,123.9,56,123.8,57.4z M120.3,57.1c-0.1,1.2,0.3,2,1.1,2.1c0.8,0.1,1.4-0.7,1.4-1.9c0.1-1.2-0.4-1.9-1.2-2
			C121,55.3,120.4,56,120.3,57.1z"/>
		<path fill="#6B3F23" d="M132.1,57.6l-0.1-0.7c-0.1-0.1-0.2-0.1-0.4-0.1c-0.3,0-0.7,0-1,0.1l-0.5,3.2l0.6,0.3l-0.1,0.3l-1.9-0.3
			l0-0.3l0.6-0.1l0.5-3.5l-0.5-0.1l0-0.3l1.1,0.1l0.3,0.4c0.3-0.1,0.7-0.2,1.2-0.2c0.3,0,0.5,0.1,0.8,0.3l-0.1,0.9L132.1,57.6z"/>
		<path fill="#6B3F23" d="M138.5,62l-0.2,0.3l-1.9-0.4l0-0.3l0.6,0l0.8-3.4l-0.5-0.1l0-0.3l1,0.1l0.4,0.2l-0.9,3.7L138.5,62z
			 M139.3,56.4c-0.1,0.3-0.3,0.4-0.6,0.4c-0.3-0.1-0.4-0.3-0.4-0.6c0.1-0.3,0.3-0.4,0.6-0.4C139.2,55.8,139.4,56.1,139.3,56.4z"/>
		<path fill="#6B3F23" d="M144,59.6c0.5-0.1,1,0,1.4,0.1c1.1,0.3,1.5,1.1,1.2,2.2l-0.7,2.1l0.5,0.4l-0.2,0.3l-1.2-0.4l0-0.4
			c-0.4,0.2-0.7,0.2-1.3,0c-0.8-0.2-1.2-0.8-1-1.6c0.4-1.2,1.8-1,3-0.6l0.1-0.5c0.2-0.6-0.1-1.1-0.6-1.2c-0.2-0.1-0.5-0.1-0.8-0.1
			l-0.4,0.6l-0.3-0.2L144,59.6z M145.6,62c-1.1-0.4-1.7-0.1-1.9,0.5c-0.2,0.6,0.1,1,0.5,1.1c0.4,0.1,0.7,0,1-0.2L145.6,62z"/>
	</g>
</g>
</svg>
