<?xml version="1.0" encoding="utf-8"?>
<!-- Generator: Adobe Illustrator 18.0.0, SVG Export Plug-In . SVG Version: 6.00 Build 0)  -->
<!DOCTYPE svg PUBLIC "-//W3C//DTD SVG 1.1//EN" "http://www.w3.org/Graphics/SVG/1.1/DTD/svg11.dtd">
<svg version="1.1" id="Layer_1" xmlns="http://www.w3.org/2000/svg" xmlns:xlink="http://www.w3.org/1999/xlink" x="0px" y="0px"
	 viewBox="0 0 70.3 50" enable-background="new 0 0 70.3 50" xml:space="preserve">
<g>
	<path fill="#FFFFFF" d="M24.2,34.5c-0.1-0.1-0.7-0.6-0.8-0.8c-0.2-0.2-0.2-0.3-0.2-0.5c0,0,0-4.2,0-5.7c0-1.4-1.2-2.7-2.1-3
		c0,0,2.1-1,2-4.8c-0.1-3.3-1.5-5-4.3-5h-3.4c-0.1,0-0.2,0.1-0.2,0.2c0,0.1,0.1,0.1,0.2,0.2c0.2,0.2,0.6,0.6,0.8,0.8
		c0.2,0.2,0.2,0.4,0.2,0.8V33c0,0.3,0,0.5-0.2,0.8c-0.2,0.3-0.7,0.6-0.8,0.8c-0.1,0.1-0.2,0.2-0.2,0.2c0,0.1,0.1,0.2,0.2,0.2h4.3
		c0.1,0,0.2-0.1,0.2-0.2c0-0.1-0.1-0.2-0.2-0.2c-0.1-0.1-0.6-0.5-0.8-0.8c-0.2-0.3-0.2-0.4-0.2-0.8v-7.7c0.9-0.2,1.7,0.2,2,1
		c0.3,0.6,0.4,2.1,0.4,3c0,2.2,0,3.8,0,3.8c0,0.9,0.5,1.7,1.8,1.7c0,0,1.2,0,1.4,0c0.2,0,0.3,0,0.3-0.1
		C24.5,34.7,24.4,34.7,24.2,34.5z M20.6,22.7c-0.3,1-1.3,1.3-2.1,1.2V16c0.8-0.2,1.6,0.2,2,0.9c0.3,0.6,0.4,1.5,0.4,2.7
		C21,20.9,20.9,22,20.6,22.7z"/>
	<path fill="#FFFFFF" d="M7.9,28.5c0-2.1-0.9-3.5-2.1-4.1c0,0,2.2-1,2-4.8c-0.1-3.4-1.5-5-4.3-5H0.2c-0.1,0-0.2,0.1-0.2,0.2
		c0,0.1,0,0.1,0.2,0.2c0.2,0.2,0.6,0.6,0.8,0.8c0.2,0.2,0.2,0.4,0.2,0.8V33c0,0.3,0,0.5-0.2,0.8c-0.2,0.3-0.7,0.6-0.8,0.8
		C0.1,34.7,0,34.7,0,34.8C0,34.9,0.1,35,0.2,35h4.3C8.4,35,7.9,29,7.9,28.5z M5.4,32.5c-0.3,1-1.3,1.3-2.1,1.2v-8.2
		c0.8-0.2,1.6,0.2,2,0.9c0.3,0.6,0.5,1.5,0.5,2.7C5.8,30.3,5.6,31.7,5.4,32.5z M5.4,22.7c-0.3,1-1.3,1.3-2.1,1.2V16
		c0.8-0.2,1.6,0.2,2,0.9c0.3,0.6,0.5,1.5,0.5,2.7C5.8,20.9,5.6,22,5.4,22.7z"/>
	<g>
		<path fill="#FFFFFF" d="M42.5,43.9c-0.3,0-0.6,0.3-0.6,0.3V44c0,0,0-0.1,0-0.1H41C41,43.9,41,44,41,44c0,0,0.2,0.1,0.2,0.2
			c0.1,0.1,0.1,0.1,0.1,0.1v5.2c0,0,0,0.1,0,0.1L41,49.9c0,0-0.1,0.1,0,0.1h1.2c0.1,0,0-0.1,0-0.1l-0.3-0.3c0,0,0,0,0-0.1v-1
			c0,0,0.2,0.3,0.6,0.3c0.4,0,0.8-0.2,0.8-2.7C43.3,44.2,42.9,43.9,42.5,43.9z M42.6,48.2c-0.1,0.5-0.6,0.1-0.6-0.5
			c0-0.4,0-2.7,0-2.7c0-0.4,0.3-0.7,0.4-0.7c0.2,0,0.3,0.2,0.3,1.8C42.6,47,42.6,47.8,42.6,48.2z"/>
		<path fill="#FFFFFF" d="M13.1,42.9c0-0.1,0-0.2-0.1-0.2c-0.1-0.1-0.2-0.2-0.3-0.3c0,0-0.1-0.1-0.1-0.1c0,0,0-0.1,0.1-0.1h1.3
			c0.7,0,1.2,0.5,1.2,1.7c0,1.1-0.3,1.9-1.5,1.8v2.4c0,0.1,0,0.2,0.1,0.2c0.1,0.1,0.3,0.2,0.3,0.3c0,0,0.1,0.1,0.1,0.1
			c0,0,0,0.1-0.1,0.1h-1.4c0,0-0.1,0-0.1-0.1c0,0,0,0,0.1-0.1c0,0,0.2-0.2,0.2-0.2c0.1-0.1,0.1-0.1,0.1-0.2V42.9z M13.8,45.3
			c0.7,0.1,0.7-0.5,0.7-1.4c0-0.9,0-1.4-0.7-1.3V45.3z"/>
		<path fill="#FFFFFF" d="M18.9,48.2c0,0.1,0,0.2,0.1,0.2c0.1,0,0.2-0.1,0.3-0.1c0-0.1,0.1,0,0.1,0.1c-0.1,0.2-0.2,0.5-0.5,0.5
			c-0.3,0-0.4-0.2-0.5-0.3c-0.1,0.2-0.4,0.3-0.6,0.3c-0.3,0-0.8-0.2-0.8-1.4c0-1,0.1-1.2,1.1-2c0.2-0.1,0.2-0.2,0.2-0.6
			c0-0.4-0.1-0.5-0.4-0.5c-0.3,0-0.7,0.3-0.8,0.4c-0.1,0-0.1,0-0.1,0c0-0.1,0.5-0.7,1-0.7c0.3,0,0.9,0.2,0.9,1.1V48.2z M18.3,45.6
			c-0.5,0.3-0.6,0.7-0.6,1.6c0,1,0.1,1.2,0.3,1.2c0.2,0,0.4-0.3,0.4-0.5V45.6z"/>
		<path fill="#FFFFFF" d="M29.7,48.2c0,0.1,0,0.2,0.1,0.2c0.1,0,0.2-0.1,0.3-0.1c0-0.1,0.1,0,0.1,0.1c-0.1,0.2-0.2,0.5-0.4,0.5
			c-0.3,0-0.4-0.2-0.5-0.3c-0.1,0.2-0.4,0.3-0.6,0.3c-0.3,0-0.8-0.2-0.8-1.4c0-1,0.1-1.2,1.1-2c0.2-0.1,0.2-0.2,0.2-0.6
			c0-0.4-0.1-0.5-0.4-0.5c-0.3,0-0.7,0.3-0.8,0.4c-0.1,0-0.1,0-0.1,0c0-0.1,0.4-0.7,1-0.7c0.3,0,0.9,0.2,0.9,1.1V48.2z M29.1,45.6
			c-0.5,0.3-0.6,0.7-0.6,1.6c0,1,0.1,1.2,0.3,1.2c0.2,0,0.4-0.3,0.4-0.5V45.6z"/>
		<path fill="#FFFFFF" d="M36.4,48.2c0,0.1,0,0.2,0.1,0.2c0.1,0,0.2-0.1,0.3-0.1c0-0.1,0.1,0,0.1,0.1c-0.1,0.2-0.2,0.5-0.5,0.5
			c-0.3,0-0.4-0.2-0.5-0.3c-0.1,0.2-0.4,0.3-0.6,0.3c-0.3,0-0.8-0.2-0.8-1.4c0-1,0.1-1.2,1.1-2c0.2-0.1,0.2-0.2,0.2-0.6
			c0-0.4-0.1-0.5-0.4-0.5c-0.3,0-0.7,0.3-0.8,0.4c-0.1,0-0.1,0-0.1,0c0-0.1,0.4-0.7,1-0.7c0.3,0,0.9,0.2,0.9,1.1V48.2z M35.7,45.6
			c-0.5,0.3-0.6,0.7-0.6,1.6c0,1,0.1,1.2,0.3,1.2c0.2,0,0.4-0.3,0.4-0.5V45.6z"/>
		<path fill="#FFFFFF" d="M57.5,48.2c0,0.1,0,0.2,0.1,0.2c0.1,0,0.2-0.1,0.3-0.1c0-0.1,0.1,0,0.1,0.1c-0.1,0.2-0.2,0.5-0.5,0.5
			c-0.3,0-0.4-0.2-0.5-0.3c-0.1,0.2-0.4,0.3-0.6,0.3c-0.3,0-0.8-0.2-0.8-1.4c0-1,0.1-1.2,1.1-2c0.2-0.1,0.2-0.2,0.2-0.6
			c0-0.4-0.1-0.5-0.4-0.5c-0.3,0-0.7,0.3-0.8,0.4c-0.1,0-0.1,0-0.1,0c0-0.1,0.4-0.7,1-0.7c0.3,0,0.9,0.2,0.9,1.1V48.2z M56.9,45.6
			c-0.5,0.3-0.6,0.7-0.6,1.6c0,1,0.1,1.2,0.3,1.2c0.2,0,0.4-0.3,0.4-0.5V45.6z"/>
		<path fill="#FFFFFF" d="M22.7,45.7c0,0.1-0.1,0.1-0.1,0c0-0.1-0.3-1.4-0.7-1.4c-0.4,0.1-0.2,1.2,0.3,1.9c0.4,0.5,0.6,1.2,0.6,1.7
			c0,0.5-0.4,0.9-0.8,0.9c-0.2,0-0.4-0.1-0.5-0.3l-0.2,0.2c0,0-0.1,0.1-0.1,0v-1.7c0-0.1,0.1-0.1,0.1,0c0.1,0.7,0.3,1.4,0.7,1.4
			c0.2,0,0.3-0.1,0.3-0.4c0-0.5-0.3-1.1-0.6-1.6c-0.3-0.5-0.5-1.1-0.5-1.6c0-0.6,0.4-0.9,0.7-0.9c0.2,0,0.4,0.1,0.5,0.3
			c0,0,0.2-0.2,0.3-0.2c0.1-0.1,0.1,0,0.1,0.1C22.7,44,22.7,45.6,22.7,45.7z"/>
		<path fill="#FFFFFF" d="M25.6,48.1c0,0.5,0.4,0.3,0.5,0.1c0-0.1,0.1,0,0.1,0.1c0,0.2-0.2,0.4-0.6,0.4s-0.6-0.2-0.6-0.9
			c0,0,0-3.4,0-3.6c0-0.2-0.1-0.2-0.3-0.4c-0.1-0.1,0-0.1,0.1-0.1c0.4-0.1,0.4-0.7,0.4-1.1c0,0,0-0.1,0.1-0.1h0.3c0,0,0.1,0,0.1,0.1
			v1c0,0,0,0.1,0.1,0.1h0.2c0,0,0.1,0.1,0,0.1c-0.1,0.1-0.3,0.2-0.3,0.4C25.6,44.5,25.6,48.1,25.6,48.1z"/>
		<path fill="#FFFFFF" d="M45.5,44.4C45.5,44.3,45.5,44.3,45.5,44.4L45.2,44c0,0-0.1-0.1,0-0.1h0.8c0,0,0,0,0,0.1v4.4
			c0,0,0,0.1,0,0.1l0.3,0.3c0,0,0.1,0.1,0,0.1h-1.2c-0.1,0,0-0.1,0-0.1l0.3-0.3c0,0,0,0,0-0.1V44.4z M46.1,42.7
			c0,0.2-0.1,0.5-0.3,0.5c-0.2,0-0.3-0.2-0.3-0.5c0-0.2,0.1-0.5,0.3-0.5C46,42.2,46.1,42.5,46.1,42.7z"/>
		<path fill="#FFFFFF" d="M48.3,44C48.3,44,48.3,43.9,48.3,44l1.7-0.1c0.1,0,0,0.1,0,0.1L49,48.5h0.5c0.1,0,0.1,0,0.2-0.1
			c0,0,0.4-1.1,0.4-1.2c0.1-0.2,0.1-0.1,0.1,0c0,0.1,0,1.6,0,1.6c0,0,0,0.1-0.1,0.1c0,0-1.7,0-1.8,0c0,0,0,0,0-0.1
			c0,0,1.1-4.5,1.1-4.5H49c-0.1,0-0.1,0-0.2,0.1c0,0-0.4,1-0.4,1.2c0,0.2-0.1,0.1-0.1,0V44z"/>
		<path fill="#FFFFFF" d="M52,44C52,44,52,43.9,52,44l1.7-0.1c0.1,0,0,0.1,0,0.1l-1.1,4.5h0.5c0.1,0,0.1,0,0.2-0.1
			c0,0,0.4-1.1,0.4-1.2c0.1-0.2,0.1-0.1,0.1,0c0,0.1,0,1.6,0,1.6c0,0,0,0.1-0.1,0.1c0,0-1.7,0-1.8,0c0,0,0,0,0-0.1
			c0,0,1.1-4.5,1.1-4.5h-0.4c-0.1,0-0.1,0-0.2,0.1c0,0-0.4,1-0.4,1.2c0,0.2-0.1,0.1-0.1,0V44z"/>
	</g>
	<path fill="#FFFFFF" d="M39.3,14.6h-3.7c-0.1,0-0.2,0.1-0.2,0.2c0,0.1,0.1,0.2,0.2,0.2c0.1,0.1,0.7,0.6,0.8,0.8
		c0.1,0.2,0.2,0.4,0.2,0.8V32c0,2.1-2.8,2.1-2.8,0.1V16.5c0-0.3,0.1-0.6,0.2-0.8c0.1-0.2,0.8-0.7,0.8-0.8c0.1-0.1,0.1-0.1,0.1-0.2
		c0-0.1-0.1-0.2-0.2-0.2h-4.2c-0.1,0-0.2,0.1-0.2,0.2c0,0.1,0,0.2,0.1,0.2c0.1,0.1,0.7,0.6,0.8,0.8c0.2,0.2,0.2,0.4,0.2,0.8v15.2
		c0,2,1.6,3.2,3.2,3.2c1.6,0,3.3-1.2,3.3-3.4V16.5c0-0.3,0.1-0.6,0.2-0.8c0.1-0.2,0.8-0.7,0.8-0.8c0.1-0.1,0.1-0.2,0.1-0.2
		C39.4,14.7,39.4,14.6,39.3,14.6z"/>
	<path fill="#FFFFFF" d="M47.8,16.5c0-0.3-0.1-0.5-0.2-0.8c-0.1-0.2-0.5-0.6-0.7-0.8c-0.1-0.1-0.2-0.2-0.2-0.3
		c0-0.1,0.1-0.1,0.2-0.1h3.3c0.2,0,0.3,0.2,0.3,0.5L53,26.8V16.5c0-0.3-0.1-0.5-0.2-0.7c-0.2-0.2-0.7-0.7-0.8-0.8
		c-0.1-0.1-0.2-0.2-0.2-0.3c0-0.1,0.1-0.1,0.2-0.1h3.6c0.1,0,0.2,0.1,0.2,0.1c0,0.1-0.1,0.2-0.2,0.3c-0.1,0.1-0.5,0.5-0.7,0.7
		c-0.2,0.2-0.2,0.4-0.2,0.8v18.1c0,0.2,0,0.3-0.3,0.3h-1.1c-0.2,0-0.5-0.3-0.5-0.7l-3.2-14.8V33c0,0.3,0.1,0.5,0.3,0.8
		c0.2,0.3,0.6,0.6,0.7,0.8c0.1,0.1,0.2,0.2,0.2,0.3c0,0.1-0.1,0.1-0.2,0.1h-3.6c-0.1,0-0.2-0.1-0.2-0.1c0-0.1,0.1-0.2,0.2-0.3
		c0.2-0.2,0.5-0.5,0.6-0.7c0.2-0.2,0.2-0.4,0.2-0.8V16.5z"/>
	<g>
		<rect x="0" y="38.4" fill="#FFFFFF" width="70.3" height="0.3"/>
	</g>
	<path fill="#FFFFFF" d="M70.3,24.2c0,5.1-0.3,10.7-3.7,10.7c-3.3,0-3.6-5.6-3.6-10.7c0-3.9,0.3-9.7,3.6-9.7
		C70,14.6,70.3,20.3,70.3,24.2z M65.3,24.3c0,7.1,0.5,9.4,1.4,9.4c0.9,0,1.4-2.3,1.4-9.4c0-6-0.5-8.3-1.4-8.3
		C65.8,16,65.3,18.2,65.3,24.3z"/>
	<g>
		<path fill="#FFFFFF" d="M19.9,2l2.2-0.7L22.3,2l-0.2,0.1l-0.4-0.5l-0.5,0.2L22,4l0.4,0l0,0.2l-1,0.3l-0.1-0.2l0.3-0.2l-0.7-2.2
			L20.4,2l0,0.6l-0.2,0L19.9,2z"/>
		<path fill="#FFFFFF" d="M26,1.8l-0.1-0.3c-0.1,0-0.1,0-0.2,0c-0.1,0-0.3,0.1-0.4,0.2l0.3,1.4l0.3,0l0,0.1L25,3.5l-0.1-0.1l0.2-0.1
			l-0.3-1.5l-0.2,0l-0.1-0.1L25,1.5l0.2,0.1c0.1-0.1,0.2-0.2,0.5-0.2c0.1,0,0.2,0,0.4,0l0.1,0.4L26,1.8z"/>
		<path fill="#FFFFFF" d="M28.3,1.1c0.2-0.1,0.4-0.2,0.6-0.2c0.5-0.1,0.8,0.2,0.8,0.6l0.1,0.9L30,2.5l0,0.1l-0.5,0.1l-0.1-0.1
			c-0.1,0.1-0.2,0.2-0.5,0.2c-0.3,0-0.6-0.1-0.7-0.5c-0.1-0.6,0.5-0.7,1-0.8l0-0.2c0-0.3-0.2-0.4-0.4-0.4c-0.1,0-0.2,0-0.3,0.1
			l0,0.3l-0.1,0L28.3,1.1z M29.3,1.7c-0.5,0.1-0.7,0.2-0.6,0.5c0,0.3,0.2,0.4,0.4,0.3c0.2,0,0.3-0.1,0.3-0.3L29.3,1.7z"/>
		<path fill="#FFFFFF" d="M32.5,0.6l0.5,0l0,0.1l-0.5,0L32.6,2c0,0.2,0.1,0.3,0.2,0.3c0.1,0,0.2-0.1,0.3-0.2l0.1,0.1
			c-0.1,0.1-0.2,0.2-0.5,0.3c-0.4,0-0.5-0.2-0.6-0.5l-0.1-1.2l-0.2,0l0-0.1l0.3-0.1l0.1-0.4l0.2,0L32.5,0.6z"/>
		<path fill="#FFFFFF" d="M35.7,0.5l0.5,0l0,0.1l-0.5,0l0,1.3c0,0.2,0.1,0.3,0.2,0.3c0.1,0,0.2-0.1,0.3-0.1l0.1,0.1
			c-0.1,0.1-0.3,0.2-0.5,0.2c-0.4,0-0.5-0.2-0.5-0.5l0-1.3l-0.2,0l0-0.1l0.3-0.1L35.5,0l0.2,0L35.7,0.5z"/>
		<path fill="#FFFFFF" d="M40.2,1.7c0,0.6-0.4,1-1,0.9c-0.6,0-0.9-0.4-0.9-1c0-0.6,0.4-0.9,1-0.9C39.9,0.7,40.2,1,40.2,1.7z
			 M38.7,1.5c0,0.5,0.1,0.9,0.5,0.9c0.3,0,0.6-0.3,0.6-0.8c0-0.5-0.2-0.8-0.5-0.9C39,0.7,38.7,1,38.7,1.5z"/>
		<path fill="#FFFFFF" d="M43.8,1.7l0-0.3c-0.1,0-0.1,0-0.2-0.1c-0.1,0-0.3,0-0.4,0l-0.2,1.4l0.2,0.1L43.1,3l-0.8-0.1l0-0.1l0.3,0
			l0.2-1.5l-0.2,0l0-0.1l0.5,0l0.1,0.2c0.1-0.1,0.3-0.1,0.5-0.1c0.1,0,0.2,0.1,0.3,0.1l-0.1,0.4L43.8,1.7z"/>
		<path fill="#FFFFFF" d="M46.5,3.6l-0.1,0.1l-0.8-0.2l0-0.1l0.3,0l0.3-1.5l-0.2,0l0-0.1l0.4,0.1l0.2,0.1l-0.4,1.6L46.5,3.6z
			 M46.8,1.2c0,0.1-0.1,0.2-0.3,0.2c-0.1,0-0.2-0.1-0.2-0.3c0-0.1,0.1-0.2,0.3-0.2C46.8,1,46.9,1.1,46.8,1.2z"/>
		<path fill="#FFFFFF" d="M48.8,2.6c0.2,0,0.4,0,0.6,0c0.5,0.1,0.6,0.5,0.5,0.9l-0.3,0.9l0.2,0.2l-0.1,0.1l-0.5-0.2l0-0.2
			c-0.2,0.1-0.3,0.1-0.6,0c-0.3-0.1-0.5-0.4-0.4-0.7c0.2-0.5,0.8-0.4,1.3-0.3l0.1-0.2c0.1-0.3,0-0.5-0.3-0.5c-0.1,0-0.2-0.1-0.3-0.1
			L48.9,3l-0.1-0.1L48.8,2.6z M49.5,3.6c-0.5-0.2-0.7-0.1-0.8,0.2c-0.1,0.3,0,0.4,0.2,0.5c0.2,0,0.3,0,0.4-0.1L49.5,3.6z"/>
	</g>
</g>
</svg>
