<?xml version="1.0" encoding="utf-8"?>
<!-- Generator: Adobe Illustrator 16.0.3, SVG Export Plug-In . SVG Version: 6.00 Build 0)  -->
<!DOCTYPE svg PUBLIC "-//W3C//DTD SVG 1.1//EN" "http://www.w3.org/Graphics/SVG/1.1/DTD/svg11.dtd">
<svg version="1.1" id="Layer_1" xmlns="http://www.w3.org/2000/svg" xmlns:xlink="http://www.w3.org/1999/xlink" x="0px" y="0px"
	 width="50px" height="50px" viewBox="0 0 50 50" enable-background="new 0 0 50 50" xml:space="preserve">
<path fill="#BCBEC0" d="M25.001,0C11.193,0,0,11.196,0,25.001C0,38.809,11.193,50,25.001,50s25.001-11.191,25.001-24.999
	C50.002,11.196,38.809,0,25.001,0z M31.619,24.896H27.29c0,6.918,0,15.439,0,15.439h-6.418c0,0,0-8.434,0-15.439h-3.051v-5.451
	h3.051v-3.532c0-2.528,1.201-6.474,6.477-6.474L32.1,9.457v5.294c0,0-2.889,0-3.45,0s-1.359,0.282-1.359,1.483v3.21h4.892
	L31.619,24.896z"/>
<path display="none" fill="#BCBEC0" d="M25.001,0C11.194,0,0,11.196,0,25.001C0,38.809,11.194,50,25.001,50S50,38.809,50,25.001
	C50,11.196,38.808,0,25.001,0z M37.596,19.96c0.012,0.271,0.017,0.542,0.017,0.815c0,8.326-6.337,17.927-17.926,17.927
	c-3.558,0-6.87-1.043-9.658-2.831c0.493,0.058,0.995,0.088,1.502,0.088c2.953,0,5.669-1.008,7.825-2.697
	c-2.757-0.052-5.083-1.873-5.885-4.375C13.856,28.961,14.25,29,14.657,29c0.575,0,1.131-0.077,1.661-0.222
	c-2.883-0.579-5.055-3.126-5.055-6.177c0-0.028,0-0.054,0.001-0.08c0.849,0.472,1.821,0.755,2.854,0.789
	c-1.691-1.132-2.804-3.059-2.804-5.245c0-1.155,0.311-2.237,0.854-3.167c3.107,3.812,7.75,6.32,12.987,6.583
	c-0.108-0.461-0.163-0.942-0.163-1.436c0-3.479,2.821-6.3,6.3-6.3c1.813,0,3.45,0.766,4.598,1.989
	c1.437-0.282,2.784-0.807,4.002-1.529c-0.471,1.472-1.47,2.707-2.771,3.486c1.276-0.153,2.49-0.492,3.62-0.993
	C39.896,17.961,38.826,19.072,37.596,19.96z"/>
<path display="none" fill="#BCBEC0" d="M25,0C11.193,0,0,11.193,0,25s11.193,25,25,25c13.807,0,25-11.193,25-25S38.807,0,25,0z
	 M18,36h-5V19h5V36z M15.198,17.18c-1.941,0-3.196-1.255-3.196-2.968s1.255-2.968,3.196-2.968c1.94,0,3.196,1.255,3.196,2.968
	S17.252,17.18,15.198,17.18z M39,36h-6v-8.546c0-2.283-0.854-3.881-2.908-3.881c-1.598,0-2.458,1.027-2.916,2.055
	C27.063,25.97,27,26.541,27,26.998V36h-5.752c0,0,0.114-15,0-17H27v2.861c1-1.142,2.289-2.854,5.257-2.854
	c3.769,0,6.743,2.397,6.743,7.648V36z"/>
<g display="none">
	<path display="inline" fill="#BCBEC0" d="M34.748,23.45c-1.811,0-3.279,1.468-3.279,3.281c0,1.811,1.469,3.279,3.279,3.279
		s3.279-1.469,3.279-3.279C38.027,24.918,36.559,23.45,34.748,23.45z M34.742,28.233c-0.877,0-1.59-0.712-1.59-1.591
		c0-0.88,0.713-1.591,1.59-1.591c0.881,0,1.592,0.711,1.592,1.591C36.334,27.521,35.623,28.233,34.742,28.233z"/>
	<path display="inline" fill="#BCBEC0" d="M34.447,17.033c-2.793-1.22-5.955-1.877-9.445-1.877c-3.484,0-6.947,0.655-9.738,1.871
		C20.643,17.034,25,21.396,25,26.774C25.002,21.491,29.203,17.194,34.447,17.033z"/>
	<path display="inline" fill="#BCBEC0" d="M15.248,18.927c-4.336,0-7.85,3.515-7.85,7.849c0,4.336,3.514,7.851,7.85,7.851
		s7.852-3.515,7.852-7.851C23.1,22.441,19.584,18.927,15.248,18.927z M15.137,31.485c-2.615,0-4.734-2.117-4.734-4.732
		c0-2.614,2.119-4.733,4.734-4.733c2.613,0,4.732,2.119,4.732,4.733C19.869,29.368,17.75,31.485,15.137,31.485z"/>
	<path display="inline" fill="#BCBEC0" d="M15.137,23.472c-1.813,0-3.279,1.469-3.279,3.28c0,1.811,1.467,3.28,3.279,3.28
		c1.811,0,3.279-1.469,3.279-3.28C18.416,24.941,16.947,23.472,15.137,23.472z M15.057,28.232c-0.879,0-1.592-0.711-1.592-1.59
		s0.713-1.591,1.592-1.591c0.877,0,1.59,0.712,1.59,1.591S15.934,28.232,15.057,28.232z"/>
	<path display="inline" fill="#BCBEC0" d="M34.752,18.927c-4.336,0-7.85,3.515-7.85,7.849c0,4.336,3.514,7.851,7.85,7.851
		s7.85-3.515,7.85-7.851C42.602,22.441,39.088,18.927,34.752,18.927z M34.748,31.464c-2.613,0-4.732-2.12-4.732-4.732
		c0-2.616,2.119-4.734,4.732-4.734s4.732,2.119,4.732,4.734C39.48,29.344,37.361,31.464,34.748,31.464z"/>
	<path display="inline" fill="#BCBEC0" d="M25,0C11.192,0,0,11.192,0,25s11.192,25,25,25s25-11.192,25-25S38.808,0,25,0z
		 M34.752,36.529c-3.053,0-5.777-1.404-7.564-3.599C26.4,33.894,25,35.985,25,35.985c-0.244-0.498-1.451-2.212-2.18-3.063
		c-1.789,2.199-4.516,3.607-7.572,3.607c-5.385,0-9.75-4.366-9.75-9.753c0-2.141,0.693-4.199,1.863-5.808
		C7.174,19.868,6.426,18,5.412,17h6.209c3.324-2,8.174-3.634,13.381-3.634c5.205,0,9.744,1.634,13.068,3.634h6.518
		c-1.014,1-1.764,2.871-1.949,3.971c1.17,1.608,1.865,3.625,1.865,5.764C44.504,32.122,40.137,36.529,34.752,36.529z"/>
</g>
<path display="none" fill="#BCBEC0" d="M25,0C11.192,0,0,11.192,0,25s11.192,25,25,25s25-11.192,25-25S38.808,0,25,0z M34.891,36
	c-0.054,0-0.108,0-0.163,0c-1.768-1-2.971-1.716-3.998-2.871c-0.58-0.653-1.468-2.218-2.529-2.047
	c-1.506,0.242-0.759,2.769-1.387,3.871c-0.507,0.89-2.67,0.707-4.161,0.549c-4.707-0.5-7.111-3.022-9.219-5.723
	c-2.253-2.885-4.008-5.91-5.629-9.225c-0.525-1.073-1.224-2.263-1.224-3.592c0.763-0.622,2.008-0.409,3.264-0.409
	c1.065,0,2.728-0.235,3.508,0.162c0.463,0.236,0.931,1.487,1.305,2.284c0.859,1.832,1.65,3.15,2.692,4.65
	c0.452,0.65,1.146,1.877,1.958,1.713c0.79-0.158,0.863-2.101,0.897-3.345c0.039-1.412-0.001-3.167-0.408-3.917
	c-0.383-0.706-1.085-0.72-1.795-1.142c0.591-1.188,2.21-1.305,4.161-1.305c1.641,0,3.929-0.183,4.569,0.897
	c0.651,1.099,0.205,3.083,0.163,4.569c-0.046,1.669-0.334,3.394,0.816,4.161c0.887-0.096,1.362-0.958,1.876-1.632
	c1.125-1.475,1.823-2.751,2.692-4.65c0.357-0.78,0.74-2.121,1.387-2.366c0.984-0.373,2.556-0.082,3.998-0.082
	c1.181,0,3.292-0.326,3.672,0.489c0.314,0.677-0.611,2.386-0.898,2.856c-1.092,1.791-2.165,2.932-3.345,4.487
	c-0.471,0.621-1.444,1.617-1.387,2.61c0.043,0.755,0.802,1.334,1.387,1.876c1.268,1.176,2.155,2.034,3.182,3.345
	c0.387,0.494,1.222,1.743,1.142,2.381C41.17,36.59,36.474,35,34.891,36z"/>
<image display="none" overflow="visible" width="180" height="179" xlink:href="../Icons/logo_about.gif"  transform="matrix(0.7071 -0.7071 0.7071 0.7071 228.7163 419.8535)">
</image>
<path display="none" fill="#BCBEC0" d="M25,0C11.192,0,0,11.192,0,25s11.192,25,25,25s25-11.192,25-25S38.808,0,25,0z M25.048,7.735
	c2.09,0,3.79,1.7,3.79,3.79c0,1.91-1.44,3.51-3.301,3.74c-0.16,0.03-0.319,0.04-0.489,0.04c-0.171,0-0.33-0.01-0.49-0.04
	c-1.851-0.23-3.29-1.83-3.29-3.74C21.268,9.436,22.968,7.735,25.048,7.735z M14.088,36.956c-0.601,0.34-1.25,0.51-1.891,0.51
	c-1.31,0-2.58-0.68-3.28-1.9c-1.05-1.81-0.43-4.13,1.381-5.17c0.6-0.34,1.25-0.51,1.89-0.51c1.31,0,2.59,0.68,3.29,1.9
	C16.518,33.585,15.897,35.905,14.088,36.956z M20.377,42.265c-0.119,0.45-0.81,0.6-1.109,0.09l-3.3-5.74
	c1.159-1.49,1.37-3.6,0.37-5.33c-0.851-1.48-2.44-2.4-4.15-2.4c-0.22,0-0.44,0.02-0.66,0.05l-3.31-5.73
	c-0.301-0.52,0.18-1.04,0.63-0.91c1.04,0.27,14.649,3.19,15.37,4.44C24.938,27.985,20.657,41.226,20.377,42.265z M13.527,14.163
	c-0.34-0.33-0.13-1.163,0.47-1.163h6.49c0.63,2,2.43,3.32,4.561,3.32c2.13,0,3.939-1.32,4.56-3.32h6.5c0.59,0,0.81,0.833,0.47,1.163
	c-0.76,0.76-10.08,11.09-11.529,11.09C23.607,25.252,14.277,14.923,13.527,14.163z M41.088,35.625c-0.7,1.22-1.98,1.89-3.29,1.89
	c-0.641,0-1.29-0.16-1.881-0.5c-1.81-1.05-2.43-3.37-1.39-5.17c0.7-1.22,1.98-1.9,3.29-1.9c0.64,0,1.29,0.17,1.88,0.51
	C41.508,31.495,42.127,33.815,41.088,35.625z M41.777,23.265l-3.3,5.73c-0.22-0.03-0.44-0.05-0.66-0.05c-1.71,0-3.3,0.92-4.16,2.4
	c-1.01,1.74-0.79,3.85,0.38,5.34l-3.31,5.72c-0.3,0.52-0.99,0.37-1.11-0.09c-0.27-1.03-4.55-14.27-3.83-15.52
	c0.721-1.25,14.33-4.17,15.36-4.45C41.607,22.226,42.077,22.745,41.777,23.265z"/>
</svg>
