<?xml version="1.0" encoding="utf-8"?>
<!-- Generator: Adobe Illustrator 16.0.0, SVG Export Plug-In . SVG Version: 6.00 Build 0)  -->
<!DOCTYPE svg PUBLIC "-//W3C//DTD SVG 1.1//EN" "http://www.w3.org/Graphics/SVG/1.1/DTD/svg11.dtd">
<svg version="1.1" id="Layer_1" xmlns="http://www.w3.org/2000/svg" xmlns:xlink="http://www.w3.org/1999/xlink" x="0px" y="0px"
	 width="48.556px" height="45px" viewBox="0 0 48.556 45" enable-background="new 0 0 48.556 45" xml:space="preserve">
<g>
	<path fill-rule="evenodd" clip-rule="evenodd" fill="#FF9E16" d="M24.441,16.449c1.465-3.047,3.705-5.217,6.799-6.46
		c7.603-3.057,16.098,1.9,17.199,10.017c0.961,7.074-4.133,13.526-11.241,14.257c-1.849,0.19-3.637-0.043-5.396-0.612
		c-0.316-0.103-0.433-0.222-0.385-0.59c0.884-6.633-1.292-12.049-6.504-16.244C24.772,16.703,24.63,16.596,24.441,16.449z
		 M35.126,15.477c-0.662,0.17-1.31,0.255-1.886,0.501c-1.345,0.573-2.172,1.562-2.17,3.104c0.004,1.4,0.692,2.383,2.18,2.956
		c0.747,0.288,1.545,0.44,2.312,0.675c0.642,0.195,1.286,0.387,1.904,0.642c0.396,0.165,0.562,0.548,0.511,0.981
		c-0.053,0.436-0.304,0.751-0.738,0.815c-0.597,0.088-1.21,0.193-1.803,0.146c-1.085-0.09-1.285-0.339-1.491-1.416
		c-0.022-0.118-0.142-0.307-0.22-0.309c-0.93-0.021-1.859-0.014-2.81-0.014c0.035,0.91,0.21,1.684,0.713,2.354
		c0.859,1.141,2.086,1.53,3.493,1.622c0,0.469,0,0.887,0,1.316c0.563,0,1.066,0,1.628,0c0-0.452,0-0.871,0-1.301
		c0.282-0.04,0.52-0.041,0.735-0.11c0.665-0.217,1.366-0.377,1.974-0.707c1.902-1.034,2.126-4.527-0.135-5.671
		c-0.683-0.346-1.42-0.594-2.151-0.83c-0.811-0.261-1.646-0.445-2.463-0.687c-0.484-0.143-0.727-0.485-0.682-1.005
		c0.044-0.514,0.381-0.795,0.838-0.819c0.696-0.04,1.401-0.011,2.098,0.049c0.479,0.041,0.734,0.393,0.838,0.852
		c0.035,0.159,0.076,0.317,0.117,0.48c0.926,0,1.839,0,2.776,0c0.029-0.749-0.164-1.399-0.564-1.978
		c-0.773-1.117-1.92-1.525-3.229-1.582c-0.026-0.355-0.05-0.66-0.074-0.969c-0.573,0-1.106,0-1.659,0
		C35.152,14.923,35.138,15.229,35.126,15.477z"/>
	<path fill-rule="evenodd" clip-rule="evenodd" fill="#FF9E16" d="M0,30.383c-0.004-8.02,6.539-14.573,14.564-14.584
		c8.04-0.012,14.645,6.539,14.638,14.517C29.194,38.504,22.675,45.009,14.484,45C6.523,44.992,0.004,38.414,0,30.383z
		 M14.562,41.469c6.079,0.023,11.082-4.907,11.107-10.947c0.026-6.144-4.863-11.161-10.909-11.191
		C8.495,19.298,3.551,24.193,3.531,30.448C3.512,36.485,8.475,41.445,14.562,41.469z"/>
	<path fill-rule="evenodd" clip-rule="evenodd" fill="#FF9E16" d="M8.939,14.318c-0.688,0.298-1.377,0.597-2.132,0.924
		C5.787,11.42,6.304,7.864,8.717,4.738c2.964-3.841,6.963-5.396,11.725-4.484c4.456,0.853,7.38,3.638,8.979,7.871
		c-0.711,0.415-1.376,0.802-2.081,1.214C26.4,6.308,24.496,4.125,21.52,2.965c-2.045-0.797-4.135-0.816-6.236-0.184
		C11.367,3.963,7.542,8.435,8.939,14.318z"/>
	<path fill-rule="evenodd" clip-rule="evenodd" fill="#FF9E16" d="M22.354,15.168c-0.674-0.275-1.329-0.536-1.975-0.818
		c-0.115-0.05-0.253-0.176-0.274-0.288c-0.105-0.549-0.496-0.808-0.967-0.949c-0.737-0.222-1.499-0.364-2.232-0.598
		c-0.652-0.208-1.332-0.411-1.91-0.759c-1.674-1.009-1.812-3.352-0.322-4.623c0.632-0.54,1.36-0.847,2.188-0.924
		c0.193-0.018,0.386-0.046,0.611-0.073c0-0.313,0-0.588,0-0.94c0.442,0,0.849-0.02,1.251,0.014c0.102,0.009,0.243,0.176,0.272,0.292
		c0.046,0.183,0.013,0.385,0.013,0.564c2.584,0.603,3.637,1.58,3.542,3.331c-0.762,0-1.53,0.012-2.298-0.014
		c-0.103-0.004-0.267-0.185-0.287-0.304c-0.115-0.659-0.53-0.975-1.154-1.01c-0.553-0.03-1.114-0.029-1.664,0.026
		c-0.442,0.047-0.753,0.312-0.792,0.804c-0.038,0.479,0.193,0.806,0.63,0.942c0.735,0.229,1.498,0.372,2.224,0.629
		c0.83,0.292,1.674,0.591,2.435,1.023C22.837,12.173,23.173,14.262,22.354,15.168z"/>
	<path fill-rule="evenodd" clip-rule="evenodd" fill="#FF9E16" d="M15.384,36.537c0,0.439,0,0.861,0,1.314c-0.594,0-1.146,0-1.752,0
		c0-0.435,0-0.869,0-1.298c-2.918-0.249-4.313-2.401-4.173-4.198c0.938,0,1.886-0.008,2.833,0.015
		c0.077,0.001,0.193,0.19,0.215,0.308c0.208,1.125,0.515,1.441,1.657,1.489c0.584,0.024,1.18-0.046,1.76-0.136
		c0.459-0.072,0.771-0.381,0.837-0.857c0.068-0.488-0.11-0.931-0.566-1.102c-0.825-0.311-1.687-0.524-2.527-0.795
		c-0.779-0.249-1.597-0.43-2.32-0.797c-2.198-1.119-2.421-3.951-0.475-5.478c0.693-0.544,1.486-0.827,2.356-0.913
		c0.178-0.018,0.355-0.032,0.588-0.055c0-0.375,0-0.727,0-1.104c0.598,0,1.137,0,1.74,0c0,0.342,0,0.693,0,1.082
		c1.288,0.054,2.394,0.398,3.208,1.382c0.518,0.623,0.701,1.361,0.752,2.189c-0.972,0-1.928,0-2.883,0
		c-0.219-1.136-0.497-1.394-1.686-1.442c-0.52-0.02-1.048,0.031-1.565,0.105c-0.476,0.068-0.752,0.381-0.79,0.875
		c-0.039,0.508,0.183,0.879,0.666,1.023c0.926,0.28,1.876,0.485,2.793,0.791c0.774,0.258,1.555,0.545,2.264,0.939
		c2.038,1.135,1.796,4.406,0.26,5.531c-0.852,0.623-1.79,0.953-2.818,1.082C15.647,36.504,15.535,36.519,15.384,36.537z"/>
</g>
</svg>
