<?xml version="1.0" encoding="utf-8"?>
<!-- Generator: Adobe Illustrator 16.0.0, SVG Export Plug-In . SVG Version: 6.00 Build 0)  -->
<!DOCTYPE svg PUBLIC "-//W3C//DTD SVG 1.1//EN" "http://www.w3.org/Graphics/SVG/1.1/DTD/svg11.dtd">
<svg version="1.1" id="Layer_1" xmlns="http://www.w3.org/2000/svg" xmlns:xlink="http://www.w3.org/1999/xlink" x="0px" y="0px"
	 width="82px" height="44px" viewBox="0 0 82 44" enable-background="new 0 0 82 44" xml:space="preserve">
<g>
	<path fill="#FF9E16" d="M63.212,34.495c0.528-2.477,0.158-4.629-1.576-6.406c-1.327-1.361-2.95-1.994-4.858-1.927
		c-4.073,0.143-6.426,3.426-5.905,8.288c-7.291,0-14.577,0-21.953,0c0.581-2.628,0.064-4.928-1.969-6.734
		c-1.467-1.303-3.22-1.752-5.152-1.499c-2.989,0.386-6.328,3.458-5.188,8.235c-1.159,0-2.305,0.076-3.435-0.045
		c-0.351-0.034-0.763-0.542-0.941-0.929c-0.258-0.561-0.329-1.207-0.501-1.918c1.209-0.076,2.259-0.362,2.805-1.382
		c0.309-0.577,0.496-1.3,0.48-1.949c-0.032-1.524-1.125-2.36-3.336-2.714c0-0.648,0-1.304,0-2.064c0.818,0,1.622,0.004,2.427-0.002
		c1.772-0.006,3.055-1.214,3.078-2.892c0.02-1.662-1.264-2.928-3.025-2.962c-0.758-0.016-1.518-0.004-2.38-0.004
		c0.054-0.746,0.101-1.417,0.151-2.145c1.867,0,3.662,0.013,5.455-0.006c2.066-0.027,3.489-1.994,2.798-3.894
		c-0.387-1.071-1.147-1.825-2.318-1.912c-1.396-0.102-2.803-0.074-4.208-0.1c-0.307-0.006-0.62-0.002-0.944-0.002
		c0.21-1.5,0.978-2.345,2.36-2.4c2.36-0.097,4.728-0.087,7.092-0.092C30.445,7.022,38.725,7.012,47.003,7
		c1.65-0.003,2.99,0.588,4,1.964c2.129,2.898,4.296,5.765,6.477,8.628c0.235,0.309,0.597,0.581,0.959,0.728
		c1.903,0.798,3.826,1.556,5.743,2.32c2.126,0.845,3.269,2.314,3.184,4.695c-0.075,2.14,0.036,4.285-0.029,6.422
		c-0.064,1.933-0.956,2.706-2.907,2.737C64.065,34.5,63.701,34.495,63.212,34.495z M55.048,17.981
		c-0.427-0.661-0.738-1.185-1.089-1.681c-1.399-1.996-2.752-4.04-4.695-5.568c-0.419-0.33-0.99-0.631-1.506-0.654
		c-1.87-0.074-3.745-0.017-5.615-0.039c-0.469-0.004-0.659,0.121-0.654,0.623c0.021,2.24,0.019,4.48,0.001,6.722
		c-0.002,0.438,0.136,0.607,0.595,0.603c1.207-0.026,2.415-0.005,3.62-0.005C48.757,17.981,51.809,17.981,55.048,17.981z"/>
	<path fill="#FF9E16" d="M57.06,36.994c-2.458,0-4.454-2-4.457-4.467c-0.003-2.464,2.003-4.468,4.461-4.459
		c2.464,0.014,4.504,2.044,4.478,4.468C61.514,34.992,59.502,36.994,57.06,36.994z"/>
	<path fill="#FF9E16" d="M22.747,37c-2.497-0.036-4.489-2.078-4.447-4.559c0.04-2.446,2.097-4.423,4.554-4.378
		c2.435,0.044,4.448,2.132,4.395,4.56C27.2,35.008,25.113,37.034,22.747,37z"/>
	<path fill="#FF9E16" d="M9.806,13.774c-2.412,0.002-4.827,0.002-7.238,0c-0.991,0-1.552-0.454-1.567-1.258
		c-0.017-0.812,0.535-1.319,1.526-1.322c4.849-0.013,9.701-0.007,14.551-0.005c0.146,0,0.296,0.014,0.439,0.04
		c0.77,0.136,1.225,0.666,1.171,1.36c-0.052,0.694-0.569,1.178-1.35,1.184C14.829,13.783,12.318,13.774,9.806,13.774z"/>
	<path fill="#FF9E16" d="M10.091,21.8c-1.304,0-2.608,0.003-3.91-0.002c-0.944-0.002-1.47-0.449-1.493-1.254
		c-0.022-0.807,0.494-1.285,1.439-1.291c2.656-0.013,5.311-0.017,7.967-0.008c0.884,0.004,1.45,0.551,1.431,1.333
		c-0.02,0.749-0.563,1.21-1.451,1.214c-1.327,0.008-2.654,0.002-3.982,0.002L10.091,21.8L10.091,21.8z"/>
	<path fill="#FF9E16" d="M10.477,27.257c0.539,0,1.078-0.008,1.618,0.006c0.751,0.022,1.266,0.51,1.301,1.223
		c0.037,0.717-0.409,1.305-1.162,1.34c-1.173,0.054-2.355,0.056-3.529-0.002c-0.767-0.039-1.229-0.617-1.205-1.317
		c0.027-0.737,0.531-1.209,1.357-1.24c0.54-0.014,1.078-0.002,1.621-0.002L10.477,27.257L10.477,27.257z"/>
</g>
</svg>
