<?xml version="1.0" encoding="utf-8"?>
<!-- Generator: Adobe Illustrator 16.0.0, SVG Export Plug-In . SVG Version: 6.00 Build 0)  -->
<!DOCTYPE svg PUBLIC "-//W3C//DTD SVG 1.1//EN" "http://www.w3.org/Graphics/SVG/1.1/DTD/svg11.dtd">
<svg version="1.1" id="Layer_1" xmlns="http://www.w3.org/2000/svg" xmlns:xlink="http://www.w3.org/1999/xlink" x="0px" y="0px"
	 width="124px" height="124px" viewBox="0 0 124 124" enable-background="new 0 0 124 124" xml:space="preserve">
<circle fill="#222944" cx="62" cy="62" r="62"/>
<g>
	<path fill-rule="evenodd" clip-rule="evenodd" fill="#FFFFFF" d="M43.703,67.772c-1.02,0.458-2.048,0.925-3.082,1.385
		c-1.358,0.602-2.631,0.346-3.428-0.689c-0.809-1.05-0.769-2.333,0.167-3.486c1.269-1.565,2.604-3.078,3.842-4.672
		c0.319-0.412,0.521-1.023,0.537-1.55c0.147-5.808,1.279-11.31,5.021-15.964c3.247-4.035,7.633-5.838,12.689-6.098
		c3.849-0.196,7.558,0.559,11.157,1.926c0.482,0.184,1.137,0.168,1.634,0.007c1.823-0.581,3.612-1.268,5.416-1.911
		c1.397-0.497,2.743-0.092,3.432,1.021c0.689,1.121,0.509,2.389-0.555,3.452c-0.827,0.826-1.699,1.605-2.519,2.376
		c3.19,5.975,5.73,12.042,8.04,18.209c2.287,6.12,4.463,12.275,5.264,18.796c-0.116,0.051-0.233,0.104-0.35,0.156
		c-0.911-1.268-1.829-2.534-2.739-3.804c-1.571-2.19-3.088-4.423-4.722-6.569c-3.477-4.57-9.683-5.383-14.314-1.936
		c-4.337,3.229-5.249,9.515-2.036,14.032c2.447,3.443,4.894,6.887,7.34,10.332c0.035,0.051,0.051,0.114,0.195,0.44
		c-0.599-0.17-1.078-0.205-1.439-0.43c-2.443-1.536-4.967-2.974-7.273-4.7c-7.675-5.736-14.678-12.233-21.275-19.171
		C44.37,68.576,44.068,68.195,43.703,67.772z M62.151,64.613c5.944,0.149,8.503-5.892,7.056-10.069
		c-0.68-1.973-2.122-2.866-4.109-2.268c-3.582,1.076-6.49,3.21-8.74,6.213c-0.098,0.129-0.154,0.286-0.225,0.431
		c-0.546,1.132-0.458,2.206,0.337,3.19C57.932,63.925,59.935,64.517,62.151,64.613z"/>
	<path fill-rule="evenodd" clip-rule="evenodd" fill="#FFFFFF" d="M43.008,78.793c-1.795,0.298-3.545,0.747-5.312,0.835
		c-2.127,0.107-4.333,0.223-6.387-0.221c-4.311-0.927-6.975-5.279-6.323-9.737c0.331-2.25,1.088-4.328,2.241-6.287
		c2.283-3.863,7.912-9.878,11.352-12.003c-0.172,1.162-0.326,2.224-0.482,3.285c-0.037,0.255-0.128,0.52-0.097,0.771
		c0.253,2.122-0.665,3.733-2.111,5.176c-0.709,0.706-1.323,1.519-1.925,2.329c-1.763,2.373-1.69,5.676,0.146,7.976
		c1.854,2.323,5.022,3.171,7.724,1.969c0.704-0.311,1.059-0.183,1.559,0.332c6.203,6.36,12.713,12.386,19.82,17.74
		c0.2,0.151,0.376,0.337,0.649,0.576c-3.331,2.768-6.534,5.577-10.726,6.836c-2.748,0.823-4.615,0.174-6.266-2.184
		c-1.583-2.259-2.371-4.854-2.772-7.527c-0.462-3.11-0.688-6.257-1.021-9.385C43.061,79.117,43.031,78.963,43.008,78.793z"/>
	<path fill-rule="evenodd" clip-rule="evenodd" fill="#FFFFFF" d="M21.397,48.069c2.355,1.122,4.534,0.764,6.666-0.089
		c4.214-1.686,7.077-4.66,8.229-9.09c0.218-0.845,0.026-1.866-0.216-2.74c-0.238-0.863-0.76-0.958-1.497-0.435
		c-0.605,0.432-1.172,0.928-1.725,1.43c-2.672,2.426-5.871,3.504-9.413,3.716c-0.319,0.02-0.647-0.035-0.967-0.082
		c-2.817-0.404-3.17-0.771-2.998-3.558c0.244-3.925,1.574-7.34,4.874-9.768c6.668-4.914,16.333-1.348,18.462,6.836
		c0.839,3.214,0.548,6.313-1.125,9.23c-2.296,4.012-5.446,7.103-9.757,8.888C27.469,54.258,23.511,52.654,21.397,48.069z"/>
	<path fill-rule="evenodd" clip-rule="evenodd" fill="#FFFFFF" d="M86.684,98.525c-2.253-0.086-3.982-1.023-5.256-2.809
		c-3.681-5.163-7.359-10.323-11.036-15.485c-2.029-2.847-1.494-6.623,1.231-8.703c2.696-2.062,6.519-1.682,8.623,1.067
		c2.47,3.222,4.764,6.581,7.126,9.886c1.458,2.033,2.919,4.065,4.344,6.124c1.438,2.078,1.609,4.309,0.454,6.545
		C91.029,97.365,89.096,98.413,86.684,98.525z"/>
</g>
</svg>
