<?xml version="1.0" encoding="utf-8"?>
<!-- Generator: Adobe Illustrator 16.0.0, SVG Export Plug-In . SVG Version: 6.00 Build 0)  -->
<!DOCTYPE svg PUBLIC "-//W3C//DTD SVG 1.1//EN" "http://www.w3.org/Graphics/SVG/1.1/DTD/svg11.dtd">
<svg version="1.1" id="Layer_1" xmlns="http://www.w3.org/2000/svg" xmlns:xlink="http://www.w3.org/1999/xlink" x="0px" y="0px"
	 width="79.641px" height="36px" viewBox="0 0 79.641 36" enable-background="new 0 0 79.641 36" xml:space="preserve">
<g>
	<path fill-rule="evenodd" clip-rule="evenodd" fill="#FF9E16" d="M74.65,32.992c0.634-2.971,0.188-5.553-1.893-7.688
		c-1.592-1.635-3.539-2.389-5.826-2.309c-4.888,0.172-7.715,4.107-7.091,9.945c-8.745,0-17.487,0-26.341,0
		c0.698-3.156,0.077-5.914-2.36-8.08c-1.761-1.564-3.865-2.102-6.182-1.803c-3.586,0.463-7.594,4.152-6.225,9.885
		c-1.391,0-2.769,0.09-4.121-0.055c-0.421-0.043-0.917-0.65-1.129-1.113c-0.31-0.674-0.394-1.451-0.603-2.303
		c1.453-0.09,2.713-0.436,3.367-1.656c0.37-0.693,0.594-1.559,0.577-2.34c-0.04-1.83-1.351-2.834-4.003-3.256
		c0-0.777,0-1.564,0-2.479c0.98,0,1.945,0.004,2.911-0.002c2.127-0.008,3.666-1.459,3.691-3.473
		c0.025-1.992-1.516-3.512-3.627-3.555c-0.91-0.018-1.821-0.004-2.855-0.004c0.062-0.893,0.119-1.697,0.18-2.574
		c2.242,0,4.394,0.02,6.545-0.006c2.479-0.031,4.187-2.393,3.358-4.672c-0.465-1.281-1.376-2.189-2.78-2.293
		c-1.677-0.125-3.365-0.09-5.048-0.121c-0.372-0.006-0.744-0.002-1.133-0.002c0.251-1.799,1.173-2.814,2.83-2.881
		c2.833-0.113,5.673-0.102,8.51-0.107C35.336,0.025,45.27,0.014,55.203,0c1.98-0.004,3.588,0.705,4.799,2.355
		c2.553,3.479,5.157,6.918,7.77,10.352c0.283,0.373,0.719,0.697,1.152,0.879c2.285,0.955,4.591,1.865,6.893,2.779
		c2.551,1.018,3.919,2.779,3.819,5.637c-0.09,2.566,0.044,5.141-0.04,7.705c-0.076,2.318-1.143,3.248-3.482,3.283
		C75.674,32.998,75.236,32.992,74.65,32.992z M64.853,13.176c-0.513-0.793-0.888-1.42-1.308-2.016c-1.68-2.393-3.3-4.848-5.631-6.68
		c-0.505-0.398-1.191-0.758-1.81-0.783c-2.241-0.094-4.49-0.023-6.736-0.049c-0.56-0.006-0.789,0.146-0.784,0.744
		c0.023,2.689,0.02,5.379,0.002,8.066c-0.003,0.527,0.16,0.732,0.713,0.721c1.447-0.029,2.896-0.004,4.344-0.004
		C57.305,13.176,60.967,13.176,64.853,13.176z"/>
	<path fill-rule="evenodd" clip-rule="evenodd" fill="#FF9E16" d="M67.268,35.992c-2.949,0-5.346-2.4-5.35-5.359
		c-0.003-2.957,2.404-5.361,5.355-5.352c2.956,0.014,5.402,2.453,5.372,5.361C72.614,33.59,70.199,35.992,67.268,35.992z"/>
	<path fill-rule="evenodd" clip-rule="evenodd" fill="#FF9E16" d="M26.094,36c-2.995-0.045-5.384-2.494-5.335-5.471
		c0.047-2.934,2.516-5.309,5.464-5.254c2.923,0.055,5.338,2.559,5.274,5.471C31.436,33.607,28.933,36.039,26.094,36z"/>
	<path fill-rule="evenodd" clip-rule="evenodd" fill="#FF9E16" d="M10.566,8.133c-2.895,0.002-5.791,0.002-8.686,0
		c-1.186,0-1.86-0.545-1.88-1.514c-0.02-0.971,0.642-1.58,1.831-1.584c5.82-0.014,11.641-0.008,17.461-0.006
		c0.176,0,0.354,0.016,0.529,0.045c0.92,0.164,1.467,0.803,1.405,1.633c-0.063,0.834-0.684,1.412-1.621,1.418
		C16.594,8.141,13.58,8.133,10.566,8.133z"/>
	<path fill-rule="evenodd" clip-rule="evenodd" fill="#FF9E16" d="M10.907,17.758c-1.564,0-3.127,0.004-4.69-0.002
		c-1.132-0.002-1.763-0.539-1.791-1.504c-0.027-0.965,0.593-1.543,1.727-1.549c3.186-0.014,6.373-0.018,9.559-0.008
		c1.062,0.004,1.741,0.66,1.717,1.6c-0.022,0.896-0.675,1.451-1.742,1.455c-1.593,0.008-3.186,0.002-4.779,0.002V17.758z"/>
	<path fill-rule="evenodd" clip-rule="evenodd" fill="#FF9E16" d="M11.37,24.311c0.647,0,1.295-0.014,1.942,0.006
		c0.903,0.025,1.518,0.611,1.561,1.463c0.045,0.865-0.489,1.568-1.393,1.609c-1.41,0.064-2.827,0.068-4.237-0.002
		c-0.919-0.045-1.473-0.738-1.444-1.58c0.031-0.885,0.636-1.451,1.627-1.486c0.647-0.021,1.295-0.002,1.943-0.002V24.311z"/>
</g>
</svg>
