<?xml version="1.0" encoding="utf-8"?>
<!-- Generator: Adobe Illustrator 16.0.0, SVG Export Plug-In . SVG Version: 6.00 Build 0)  -->
<!DOCTYPE svg PUBLIC "-//W3C//DTD SVG 1.1//EN" "http://www.w3.org/Graphics/SVG/1.1/DTD/svg11.dtd">
<svg version="1.1" id="Layer_1" xmlns="http://www.w3.org/2000/svg" xmlns:xlink="http://www.w3.org/1999/xlink" x="0px" y="0px"
	 width="70px" height="44px" viewBox="-58.917 113.01 70 44" enable-background="new -58.917 113.01 70 44" xml:space="preserve">
<g>
	<polygon fill="#FF9E16" points="-29.93,150.746 -15.003,147.347 -15.003,143.967 -29.93,147.432 	"/>
	<path fill="#FF9E16" d="M-1.229,134.67l-9.176-6.897l8.38-5.74c0.204-0.14,0.311-0.386,0.273-0.633
		c-0.04-0.246-0.217-0.447-0.454-0.519l-15.411-4.584c-0.16-0.05-0.332-0.032-0.48,0.046l-9.654,4.969l-8.84-7.158
		c-0.159-0.127-0.369-0.174-0.566-0.123l-20.274,5.144c-0.229,0.059-0.409,0.236-0.466,0.472c-0.059,0.229,0.018,0.477,0.195,0.633
		l8.313,7.465l-8.333,8.121c-0.153,0.153-0.224,0.368-0.185,0.58c0.04,0.213,0.183,0.392,0.379,0.479l8.337,3.594l0.007,0.006
		l-0.007,9.445c-0.001,0.28,0.103,0.527,0.37,0.614l16.125,5.378c0.001,0.003,0.001,0.003,0.002,0.003
		c0.003,0.001,0.216,0.048,0.216,0.048l0,0c0.023,0,0.145-0.007,0.15-0.007c0.002,0,0.005,0,0.009,0l21.291-5.308
		c0.287-0.073,0.688-0.345,0.688-0.639v-11.899l9.124-2.345c0.241-0.062,0.305-0.252,0.354-0.497
		C-0.812,135.072-1.03,134.819-1.229,134.67z M-17.735,117.608l13.864,4.125l-7.737,5.303l-14.587-5.071L-17.735,117.608z
		 M-56.117,136.116l7.877-7.642l14.52,4.881l-8.681,8.644L-56.117,136.116z M-32.729,154.455l-15.013-4.945l-0.004-8.413
		l5.259,2.289c0.054,0.022,0.085,0.036,0.141,0.046c0.006,0,0,0.686,0.006,0.686c0.012,0.002,0.011,0.69,0.023,0.69
		c0.003,0,0.005,0,0.007,0c0.01,0,0.019-0.685,0.028-0.685c0.043,0,0.086-0.345,0.128-0.355c0.122-0.023,0.434-0.254,0.527-0.346
		l8.898-8.779V154.455z M-48.273,127.01l-7.663-6.881l18.784-4.768l7.938,6.428L-48.273,127.01z M-31.795,154.525v-20.14
		l8.763,6.592c0.112,0.084,0.24,0.127,0.378,0.127c0.054,0,0.098-0.005,0.153-0.02l10.388-2.601l0.058,11.071L-31.795,154.525z
		 M-22.521,139.76L-31,133.398l19.356-4.94l8.557,6.431L-22.521,139.76z"/>
</g>
</svg>
