<?xml version="1.0" encoding="utf-8"?>
<!-- Generator: Adobe Illustrator 16.0.0, SVG Export Plug-In . SVG Version: 6.00 Build 0)  -->
<!DOCTYPE svg PUBLIC "-//W3C//DTD SVG 1.1//EN" "http://www.w3.org/Graphics/SVG/1.1/DTD/svg11.dtd">
<svg version="1.1" id="Layer_1" xmlns="http://www.w3.org/2000/svg" xmlns:xlink="http://www.w3.org/1999/xlink" x="0px" y="0px"
	 width="60px" height="44px" viewBox="-49.679 108.5 60 44" enable-background="new -49.679 108.5 60 44" xml:space="preserve">
<g>
	<polygon fill="#FF9E16" points="-20.693,146.236 -5.767,142.836 -5.767,139.457 -20.693,142.92 	"/>
	<path fill="#FF9E16" d="M8.007,130.159l-9.174-6.896l8.377-5.74c0.206-0.141,0.313-0.387,0.275-0.636
		c-0.042-0.244-0.219-0.447-0.453-0.516l-15.411-4.583c-0.161-0.048-0.332-0.032-0.479,0.046l-9.655,4.967l-8.842-7.158
		c-0.157-0.127-0.367-0.173-0.563-0.123l-20.274,5.143c-0.23,0.058-0.41,0.238-0.467,0.472c-0.059,0.229,0.019,0.477,0.194,0.637
		l8.315,7.464l-8.333,8.119c-0.153,0.153-0.224,0.368-0.184,0.582c0.039,0.212,0.181,0.391,0.378,0.478l8.338,3.594l0.006,0.006
		l-0.006,9.444c-0.002,0.281,0.102,0.528,0.368,0.614l16.125,5.377c0.001,0.002,0.001,0.002,0.002,0.002
		c0.003,0.002,0.217,0.05,0.217,0.05l0,0c0.022,0,0.144-0.008,0.149-0.008c0.002,0,0.006,0,0.011,0l21.288-5.305
		c0.286-0.074,0.688-0.346,0.688-0.642v-11.898l9.124-2.344c0.243-0.062,0.304-0.253,0.354-0.496
		C8.426,130.562,8.205,130.31,8.007,130.159z M-8.499,113.098l13.865,4.122l-7.737,5.305l-14.586-5.07L-8.499,113.098z
		 M-46.88,131.604l7.876-7.641l14.519,4.881l-8.681,8.645L-46.88,131.604z M-23.491,149.943l-15.014-4.944l-0.004-8.412l5.258,2.29
		c0.054,0.021,0.086,0.034,0.143,0.045c0.006,0,0,0.686,0.006,0.686c0.01,0.001,0.009,0.689,0.021,0.689c0.003,0,0.005,0,0.009,0
		c0.01,0,0.018-0.685,0.029-0.685c0.043,0,0.084-0.344,0.126-0.354c0.123-0.021,0.434-0.252,0.528-0.347l8.898-8.778V149.943z
		 M-39.037,122.501l-7.663-6.884l18.785-4.765l7.938,6.426L-39.037,122.501z M-22.559,150.014v-20.139l8.762,6.591
		c0.112,0.085,0.241,0.129,0.378,0.129c0.054,0,0.1-0.006,0.155-0.021l10.385-2.6l0.059,11.071L-22.559,150.014z M-13.285,135.25
		l-8.479-6.362l19.354-4.94l8.558,6.43L-13.285,135.25z"/>
</g>
</svg>
