<?xml version="1.0" encoding="utf-8"?>
<!-- Generator: Adobe Illustrator 16.0.0, SVG Export Plug-In . SVG Version: 6.00 Build 0)  -->
<!DOCTYPE svg PUBLIC "-//W3C//DTD SVG 1.1//EN" "http://www.w3.org/Graphics/SVG/1.1/DTD/svg11.dtd">
<svg version="1.1" id="Layer_1" xmlns="http://www.w3.org/2000/svg" xmlns:xlink="http://www.w3.org/1999/xlink" x="0px" y="0px"
	 width="61.167px" height="45.021px" viewBox="0 0 61.167 45.021" enable-background="new 0 0 61.167 45.021" xml:space="preserve">
<g>
	<polygon fill="#FF9E16" points="30,39.38 46,35.735 46,32.112 30,35.827 	"/>
	<path fill="#FF9E16" d="M60.765,22.146l-9.836-7.393l8.982-6.154c0.22-0.15,0.334-0.414,0.293-0.678
		c-0.043-0.264-0.232-0.48-0.486-0.557l-16.52-4.912c-0.17-0.053-0.355-0.035-0.513,0.049L32.335,7.827L22.86,0.153
		c-0.17-0.137-0.395-0.186-0.606-0.133L0.521,5.536C0.274,5.597,0.082,5.79,0.021,6.04C-0.042,6.286,0.04,6.552,0.23,6.72
		l8.912,8.002l-8.933,8.705c-0.165,0.164-0.24,0.395-0.198,0.623c0.042,0.227,0.195,0.418,0.406,0.51l8.937,3.854l0.008,0.006
		L9.354,38.544c-0.002,0.301,0.11,0.566,0.396,0.66l17.285,5.764c0.001,0.002,0.001,0.002,0.002,0.002
		c0.004,0.002,0.232,0.052,0.232,0.052l0,0c0.025,0,0.155-0.008,0.16-0.008c0.002,0,0.006,0,0.01,0l22.822-5.688
		C50.569,39.248,51,38.958,51,38.64V25.886l9.78-2.514c0.259-0.066,0.327-0.271,0.38-0.533S60.979,22.306,60.765,22.146z
		 M43.072,3.858l14.861,4.42l-8.293,5.684L34.003,8.528L43.072,3.858z M1.928,23.698l8.444-8.193l15.563,5.232l-9.305,9.266
		L1.928,23.698z M27,43.356l-16.094-5.303l-0.004-9.018l5.637,2.455c0.058,0.023,0.091,0.039,0.151,0.049
		c0.006,0,0,0.735,0.006,0.735c0.013,0.002,0.012,0.738,0.024,0.738c0.003,0,0.006,0,0.009,0c0.01,0,0.02-0.732,0.03-0.732
		c0.046,0,0.092-0.37,0.137-0.382c0.131-0.023,0.465-0.271,0.565-0.369L27,22.118V43.356z M10.336,13.935L2.121,6.558l20.137-5.109
		l8.51,6.891L10.336,13.935z M28,43.429V21.843l9.393,7.064c0.121,0.09,0.258,0.137,0.406,0.137c0.057,0,0.105-0.006,0.163-0.021
		l11.136-2.789l0.061,11.869L28,43.429z M37.941,27.603l-9.089-6.82L49.6,15.487l9.173,6.895L37.941,27.603z"/>
</g>
</svg>
