<?xml version="1.0" encoding="utf-8"?>
<!-- Generator: Adobe Illustrator 18.0.0, SVG Export Plug-In . SVG Version: 6.00 Build 0)  -->
<!DOCTYPE svg PUBLIC "-//W3C//DTD SVG 1.1//EN" "http://www.w3.org/Graphics/SVG/1.1/DTD/svg11.dtd">
<svg version="1.1" id="Layer_1" xmlns="http://www.w3.org/2000/svg" xmlns:xlink="http://www.w3.org/1999/xlink" x="0px" y="0px"
	 viewBox="0 0 141.2 155.5" enable-background="new 0 0 141.2 155.5" xml:space="preserve">
<g>
	<path fill="#FFFFFF" d="M141.2,70.6c0-39-31.6-70.6-70.6-70.6C31.6,0,0,31.6,0,70.6c0,19.1,7.6,36.5,20,49.2v28.9
		c0,3.7,2.8,6.8,6.1,6.8H115c3.4,0,6.1-3,6.1-6.8v-28.9C133.6,107.1,141.2,89.7,141.2,70.6z"/>
	<g>
		<g>
			<g>
				<path fill="#F89C25" d="M79.7,146.5c-0.7,0-1.4,0.7-1.4,1.4c0,0.7,0.7,1.4,1.4,1.4c0.8,0,1.4-0.7,1.4-1.4
					C81.1,147.2,80.5,146.5,79.7,146.5z"/>
				<g>
					<path fill="#212944" d="M33.4,129.6c-0.7,0-1.4,0.7-1.4,1.4c0,0.7,0.7,1.4,1.4,1.4c0.8,0,1.4-0.7,1.4-1.4
						C34.9,130.3,34.2,129.6,33.4,129.6z"/>
					<path fill="#212944" d="M32.1,133.9h-1.8c-0.2,0-0.3,0.1-0.3,0.3V149c0,0.2,0.1,0.3,0.3,0.3h1.8c0.2,0,0.3-0.1,0.3-0.3v-14.8
						C32.4,134,32.2,133.9,32.1,133.9z"/>
					<path fill="#212944" d="M28.8,129.6c-0.7,0-1.4,0.7-1.4,1.4c0,0.7,0.7,1.4,1.4,1.4c0.8,0,1.4-0.7,1.4-1.4
						C30.3,130.3,29.6,129.6,28.8,129.6z"/>
					<path fill="#212944" d="M57.7,146.4H56c-0.1,0-0.2,0-0.2,0.1c-0.1,0.1-0.1,0.2,0,0.3c0,0.1,0,0.1,0,0.2c0,0.1-0.1,0.2-0.2,0.2
						c-0.1,0-0.1,0-0.2-0.1l-3.9-5.5c0.3-0.3,0.5-0.6,0.8-1c0.4-0.5,0.9-1.4,1.1-1.8c0.5-0.8,0.7-1.2,2.4-4.4c0-0.1,0-0.2,0-0.3
						c-0.1-0.1-0.1-0.1-0.2-0.1h-2.2c-0.1,0-0.2,0.1-0.3,0.2c-0.8,1.7-1.2,2.6-1.6,3.3c-0.4,0.6-0.9,1.5-1.4,2.1
						c-0.3,0.3-0.4,0.5-0.8,0.7c-0.2,0.1-0.5,0.2-1.1,0.2h-0.4v-6.2c0-0.2-0.1-0.3-0.3-0.3h-0.1h-1.7h-0.1c-0.2,0-0.3,0.1-0.3,0.3
						v6.2h-0.4c-0.6,0-0.9-0.1-1.1-0.2c-0.4-0.2-0.5-0.3-0.8-0.7c-0.5-0.6-1-1.4-1.4-2.1c-0.4-0.8-0.9-1.7-1.6-3.3
						c0-0.1-0.1-0.2-0.3-0.2h-2.2c-0.1,0-0.2,0.1-0.2,0.1c-0.1,0.1-0.1,0.2,0,0.3c1.7,3.2,1.9,3.5,2.3,4.3c0.3,0.5,0.7,1.3,1.1,1.8
						c0.3,0.5,0.6,0.8,0.8,1l-3.9,5.5c-0.1,0.1-0.1,0.1-0.2,0.1c-0.1,0-0.2-0.1-0.2-0.2c0-0.1,0-0.1,0-0.2c0-0.1,0-0.2,0-0.3
						c-0.1-0.1-0.1-0.1-0.2-0.1h-1.7c-0.1,0-0.3,0.1-0.3,0.3c-0.1,0.7,0.1,1.4,0.6,1.9c0.5,0.5,1.2,0.8,1.9,0.8c0.8,0,1.5-0.4,2-1
						l4.1-5.8c0.5,0.1,0.8,0.2,1.5,0.2v6.2c0,0.2,0.1,0.3,0.3,0.3h0.2h1.7h0.2c0.2,0,0.3-0.1,0.3-0.3v-6.2c0.7,0,1.1,0,1.5-0.2
						l4.1,5.8c0.4,0.6,1.2,1,2,1c0.7,0,1.4-0.3,1.9-0.8c0.5-0.5,0.7-1.2,0.6-1.9C57.9,146.5,57.8,146.4,57.7,146.4z"/>
					<path fill="#212944" d="M69.4,134c0-0.1-0.1-0.2-0.3-0.2h-0.7c-0.1,0-0.2,0.1-0.3,0.2l-5.6,12.9c0,0.1,0,0.1,0,0.1
						c0,0,0,0-0.1,0c-0.1,0-0.2,0-0.2-0.4c0-0.1-0.1-0.1-0.1-0.2c-0.1,0-0.1-0.1-0.2,0l-1.7,0.3c-0.1,0-0.2,0.1-0.2,0.3
						c0,1.2,1.2,2.3,2.5,2.3c1,0,1.9-0.6,2.2-1.4l1.4-3.4h5.5l1.9,4.6c0,0.1,0.1,0.2,0.3,0.2h1.9c0,0,0,0,0,0c0.2,0,0.3-0.1,0.3-0.3
						c0-0.1,0-0.1-0.1-0.2L69.4,134z M70.5,142.3H67l1.8-4.2L70.5,142.3z"/>
					<path fill="#212944" d="M96.3,146.4h-1.7c-0.1,0-0.2,0-0.2,0.1c-0.1,0.1-0.1,0.2,0,0.3c0,0.1,0,0.1,0,0.2
						c0,0.1-0.1,0.2-0.2,0.2c-0.1,0-0.1,0-0.2-0.1l-3.9-5.5c0.3-0.3,0.5-0.6,0.8-1c0.4-0.5,0.9-1.4,1.1-1.8c0.5-0.8,0.7-1.2,2.4-4.4
						c0-0.1,0-0.2,0-0.3c-0.1-0.1-0.1-0.1-0.2-0.1h-2.2c-0.1,0-0.2,0.1-0.3,0.2c-0.8,1.7-1.2,2.6-1.6,3.3c-0.4,0.6-0.9,1.5-1.4,2.1
						c-0.3,0.3-0.4,0.5-0.8,0.7c-0.2,0.1-0.5,0.2-1.1,0.2h-0.4v-6.2c0-0.2-0.1-0.3-0.3-0.3h-1.8c-0.2,0-0.3,0.1-0.3,0.3V149
						c0,0.2,0.1,0.3,0.3,0.3h1.8c0.2,0,0.3-0.1,0.3-0.3v-6.2c0.7,0,1.1,0,1.5-0.2l4.1,5.8c0.4,0.6,1.2,1,2,1c0.7,0,1.4-0.3,1.9-0.8
						c0.5-0.5,0.7-1.2,0.6-1.9C96.6,146.5,96.5,146.4,96.3,146.4z"/>
					<path fill="#212944" d="M113.9,146.6c0-0.1-0.1-0.2-0.3-0.2H112c-0.1,0-0.2,0.1-0.2,0.1c-0.1,0.1-0.1,0.2,0,0.3
						c0,0.1,0,0.1,0,0.1c0,0.1-0.1,0.2-0.2,0.2c-0.1,0-0.2-0.1-0.2-0.2v-12.7c0-0.2-0.1-0.3-0.3-0.3h-1.2c-0.1,0-0.2,0-0.2,0.1
						l-2.4,2.7l-6.4,7.7v-10.2c0-0.2-0.1-0.3-0.3-0.3h-1.7c-0.2,0-0.3,0.1-0.3,0.3V149c0,0.2,0.1,0.3,0.3,0.3h0.8
						c0.1,0,0.2,0,0.2-0.1l9.2-11v8.7c0,1.6,1.5,2.4,2.6,2.4c1.2,0,2.4-1.1,2.4-2.4C114,146.8,114,146.7,113.9,146.6z"/>
				</g>
			</g>
			<g>
				<g>
					<g>
						<path fill="#212944" d="M123.7,73.3c-0.1-0.2-0.4-0.6-1.2-0.6c-0.1,0-0.2,0-0.4,0l-1.2,0.2l2.5-4.4c0.4-0.8,0.3-1.2,0.2-1.5
							c-0.1-0.2-0.4-0.5-1-0.5c-0.2,0-0.4,0-0.6,0.1l-0.8,0.2c0,0,0,0,0,0l-0.3,0.1l1.9-4.6c0.3-0.8,0.2-1.2,0-1.5
							c-0.3-0.5-0.9-0.6-1.7-0.3l-1.2,0.5l1.3-4.8c0.2-0.8,0-1.2-0.1-1.4c-0.3-0.5-1-0.5-1.8-0.1l-0.7,0.4c0,0,0,0,0,0l-0.4,0.2
							l0.7-5c0.1-0.7-0.1-1.1-0.3-1.3c-0.4-0.4-1.1-0.4-1.8,0.1l-0.7,0.5c0,0,0,0,0,0l-0.4,0.3c0,0,0,0,0,0l0.1-5.2
							c0-0.6-0.1-1-0.4-1.3c-0.2-0.2-0.4-0.3-0.7-0.3c-0.4,0-0.7,0.2-1.1,0.6l-0.6,0.6c0,0,0,0,0,0l-0.3,0.3c0,0,0,0,0,0l-0.5-5.2
							c-0.1-1.3-0.9-1.4-1.1-1.4c-0.3,0-0.7,0.1-1.2,0.7l-0.5,0.6c0,0,0,0,0,0l-0.3,0.4c0,0,0,0,0,0l-1.2-5.1
							c-0.3-1.1-0.9-1.3-1.2-1.3c-0.3,0-0.8,0.1-1.2,0.8l-0.7,1.1c0,0,0,0,0,0l-1.8-5c-0.4-1-0.9-1.1-1.2-1.1c-0.3,0-0.8,0.1-1.2,1
							l-0.6,1.2c0,0,0,0,0,0l-2.4-4.7c-0.4-0.8-0.9-1-1.2-1c-0.3,0-0.9,0.1-1.2,1.1l-0.4,1.3c0,0,0,0,0,0l-2.9-4.4
							c-0.5-0.7-0.9-0.8-1.2-0.8c-0.3,0-0.9,0.1-1.2,1.3l-0.3,1.3c0,0,0,0,0,0l-3.4-4c-0.5-0.6-0.9-0.7-1.2-0.7
							c-0.2,0-1,0.1-1.1,1.4l-0.1,0.8c0,0,0,0,0,0l0,0.5c0,0,0,0,0,0l-3.9-3.5c-0.7-0.6-1.4-0.7-1.8-0.3c-0.3,0.3-0.4,0.7-0.4,1.3
							l0,0.9c0,0,0,0,0,0l0,0.4l-4.2-2.9c-0.7-0.5-1.4-0.5-1.8-0.1c-0.2,0.2-0.4,0.6-0.3,1.4l0.1,0.8c0,0,0,0,0,0l0.1,0.3l-4.4-2.4
							c-0.8-0.4-1.4-0.4-1.8,0.1c-0.2,0.2-0.3,0.7-0.1,1.4l0.2,0.8c0,0,0,0,0,0l0.1,0.3L60,20.5c-0.8-0.3-1.4-0.2-1.7,0.3
							c-0.2,0.3-0.3,0.7,0,1.5l0.3,0.8c0,0,0,0,0,0l0.2,0.4l-4.9-1.2c-0.2-0.1-0.4-0.1-0.6-0.1c-0.6,0-0.9,0.3-1,0.5
							c-0.2,0.3-0.3,0.8,0.2,1.5l0.7,1.1l-5.1-0.6c-1-0.1-1.4,0.3-1.6,0.6c-0.1,0.2-0.2,0.8,0.3,1.5l0.5,0.7c0,0,0,0,0,0l0.3,0.4
							c0,0,0,0,0,0l-5.2,0c-1,0-1.3,0.4-1.4,0.7c-0.1,0.3-0.2,0.8,0.5,1.5l0.6,0.6c0,0,0,0,0,0l0.3,0.3c0,0,0,0,0,0l-5.2,0.6
							c-1,0.1-1.3,0.6-1.4,0.9c-0.1,0.3-0.1,0.8,0.7,1.5l0.6,0.5c0,0,0,0,0,0l0.4,0.3c0,0,0,0,0,0l-5.1,1.3c-1,0.2-1.2,0.7-1.2,1
							c0,0.3,0,0.8,0.8,1.4l0.7,0.4c0,0,0,0,0,0l0.4,0.2c0,0,0,0,0,0l-4.9,1.9c-0.9,0.4-1.1,0.9-1.1,1.2c0,0.3,0.1,0.8,1,1.3
							l0.8,0.4c0,0,0,0,0,0l0.4,0.2c0,0,0,0,0,0l-4.7,2.5c-0.9,0.5-1,1-1,1.3c0,0.3,0.2,0.8,1.2,1.1l0.8,0.3c0,0,0,0,0,0l0.4,0.1
							c0,0,0,0,0,0l-4.3,3c-0.8,0.6-0.8,1.1-0.8,1.4c0.1,0.3,0.3,0.8,1.3,1l0.8,0.2c0,0,0,0,0,0l0.5,0.1c0,0,0,0,0,0l-3.9,3.5
							c-0.7,0.7-0.7,1.2-0.6,1.5c0.1,0.3,0.4,0.7,1.4,0.8l0.8,0.1c0,0,0,0,0,0l0.5,0c0,0,0,0,0,0l-3.5,3.9c-0.6,0.7-0.6,1.3-0.4,1.5
							c0.1,0.3,0.4,0.7,1.5,0.7l0.8,0c0,0,0,0,0,0l0.4,0L18,71.3c-0.5,0.8-0.4,1.3-0.3,1.5c0.1,0.2,0.4,0.6,1.1,0.6
							c0.1,0,0.3,0,0.5,0l0.8-0.1c0,0,0,0,0,0l0.3-0.1l-2.3,4.5c-0.4,0.8-0.3,1.2-0.1,1.5c0.3,0.5,0.9,0.6,1.7,0.4l0.8-0.2
							c0,0,0,0,0,0l0.4-0.1l-1.7,4.7c-0.3,0.8-0.1,1.2,0,1.5c0.3,0.5,1,0.5,1.7,0.2l0.8-0.3c0,0,0,0,0,0l0.4-0.2L21,89.8
							c-0.2,0.8,0,1.2,0.2,1.4c0.4,0.5,1,0.5,1.8,0l0.7-0.4c0,0,0,0,0,0l0.4-0.2h0l-0.6,5.1c-0.1,0.6,0,1,0.3,1.3
							c0.4,0.4,1.1,0.4,1.8-0.1l0.7-0.5c0,0,0,0,0,0l0.4-0.3c0,0,0,0,0,0l0.1,5.2c0,1.1,0.6,1.5,1.1,1.5c0.4,0,0.8-0.2,1.2-0.6
							l0.6-0.6c0,0,0,0,0,0l0.3-0.3c0,0,0,0,0,0l0.7,5.2c0.2,1.3,0.9,1.4,1.1,1.4c0.3,0,0.7-0.1,1.2-0.7l0.5-0.7c0,0,0,0,0,0
							l0.3-0.4c0,0,0,0,0,0l1.3,5.1c0.3,1.1,0.9,1.2,1.2,1.2c0.3,0,0.8-0.2,1.2-0.9l0.4-0.7c0,0,0,0,0,0l0.2-0.4c0,0,0,0,0,0l2,4.9
							c0.4,0.9,0.9,1.1,1.2,1.1c0.3,0,0.8-0.1,1.2-1l0.3-0.8c0,0,0,0,0,0l0.2-0.4c0,0,0,0,0,0l2.5,4.6c0.4,0.8,0.9,0.9,1.2,0.9
							c0.2,0,0.9-0.1,1.2-1.2l0.2-0.8c0,0,0,0,0,0l0.1-0.4c0,0,0,0,0,0l2.8,3.9c1.8-2,4.4-3.2,7.4-3.2c4.7,0,8.7,3.3,9.7,7.7h2.9
							c1-4.4,5-7.7,9.7-7.7c2.4,0,4.6,0.8,6.3,2.2l4.1,0.7c0.2,0,0.3,0,0.4,0c0.7,0,1-0.4,1.1-0.6c0.1-0.2,0.3-0.8-0.3-1.5l-0.8-1.1
							c0,0,0,0,0,0l5.2,0.2c1,0,1.4-0.4,1.5-0.7c0.1-0.3,0.2-0.8-0.4-1.5l-0.5-0.6c0,0-0.1-0.1-0.1-0.1l-0.3-0.3c0,0,0,0,0,0
							l5.3-0.4c1-0.1,1.3-0.5,1.4-0.8c0.1-0.3,0.1-0.8-0.6-1.5l-0.6-0.5c0,0-0.1-0.1-0.1-0.1l-0.3-0.3c0,0,0,0,0,0l5.2-1.1
							c1-0.2,1.2-0.7,1.3-1c0.1-0.3,0-0.8-0.8-1.4l-0.7-0.5c0,0,0,0,0,0l-0.4-0.3c0,0,0,0,0,0l5-1.7c0.9-0.3,1.1-0.8,1.1-1.1
							c0-0.3-0.1-0.8-1-1.3l-1.2-0.6c0,0,0,0,0,0l4.8-2.3c0.9-0.4,1-1,1-1.3c0-0.3-0.2-0.8-1.1-1.2l-1.3-0.5c0,0,0,0,0,0l4.4-2.9
							c0.8-0.5,0.9-1.1,0.8-1.4c0-0.3-0.3-0.8-1.2-1l-1.3-0.3c0,0,0,0,0,0l4.1-3.4c0.8-0.6,0.7-1.2,0.7-1.5
							c-0.1-0.3-0.4-0.7-1.4-0.9L119,85c0,0,0,0,0,0l3.6-3.8c0.7-0.7,0.6-1.3,0.5-1.5c-0.1-0.3-0.4-0.7-1.4-0.7h0l-0.8,0
							c0,0,0,0-0.1,0l-0.4,0l3-4.1C123.9,74,123.8,73.5,123.7,73.3z M98.3,97.9c-4.2,3.1-7.6,5-10.3,6.5c-4.2,2.4-6.6,3.7-7.8,7.1
							c-2.3,6.3-9.8,6.8-10.6,6.8c0,0,0,0-0.1,0h-0.1c0,0,0,0,0,0c-0.8,0-8.3-0.5-10.6-6.8c-1.2-3.3-3.6-4.7-7.8-7.1
							c-2.7-1.5-6.1-3.4-10.3-6.5c-6.2-4.5-8.9-13.8-6.4-21.7c2.1-6.5,7.2-10.3,14-10.3h0.1C61,65.9,67.2,76.7,69.5,82
							c2.3-5.3,8.6-16.1,21.1-16.1h0.1c6.8,0,11.8,3.8,14,10.3C107.2,84.1,104.5,93.4,98.3,97.9z"/>
					</g>
					<g>
						<path fill="#EFCAA9" d="M65.9,107.3c1.5-0.8,3-1.4,3.1-1.4c0.3-0.1,0.5-0.1,0.8-0.1c0.3,0,0.5,0,0.8,0.1
							c0.1,0,1.6,0.6,3.1,1.4c0.9,0.5,3.8,2.1,3.9,4.6c0.2-0.4,0.4-0.8,0.6-1.3c1.5-4.1,4.4-5.8,8.8-8.3c2.7-1.5,5.9-3.4,10-6.4
							c5.4-3.9,7.8-12.2,5.6-19.1c-1.8-5.6-6.1-8.8-11.8-8.8h-0.1c-14.6,0-19.8,16.6-20,17.3c-0.1,0.5-0.6,0.8-1.1,0.8l0,0
							c-0.5,0-0.9-0.3-1.1-0.8c-0.2-0.7-5.4-17.3-20-17.3h-0.1c-5.7,0-10,3.2-11.8,8.8c-2.2,7,0.1,15.2,5.6,19.1
							c4.1,3,7.4,4.8,10,6.4c4.4,2.5,7.3,4.1,8.8,8.3c0.3,0.7,0.6,1.3,1,1.9c0-0.1,0-0.3,0-0.4C62,109.5,64.9,107.9,65.9,107.3z
							 M82.5,88.6c2.9,0,5.3,2.4,5.3,5.3c0,2.9-2.4,5.3-5.3,5.3c-2.9,0-5.3-2.4-5.3-5.3C77.2,91,79.6,88.6,82.5,88.6z M57.1,99.2
							c-2.9,0-5.3-2.4-5.3-5.3c0-2.9,2.4-5.3,5.3-5.3c2.9,0,5.3,2.4,5.3,5.3C62.5,96.9,60.1,99.2,57.1,99.2z"/>
					</g>
					<g>
						<path fill="#212944" d="M69.7,108c0,0-5.5,2-5.5,4.1c0,2.1,2.5,3.8,5.5,3.8c3,0,5.5-1.7,5.5-3.8C75.3,110,69.7,108,69.7,108z"
							/>
					</g>
					<g>
						<circle fill="#212944" cx="57.1" cy="93.9" r="3.1"/>
					</g>
					<g>
						<path fill="#212944" d="M82.5,97c1.7,0,3.1-1.4,3.1-3.1s-1.4-3.1-3.1-3.1c-1.7,0-3,1.4-3,3.1S80.8,97,82.5,97z"/>
					</g>
					<g>
						<path fill="#EFCAA9" d="M66.3,125.2c-1-3.1-3.9-5.4-7.4-5.4c-1.2,0-2.3,0.3-3.3,0.7c-2,0.9-3.5,2.6-4.1,4.7L66.3,125.2
							C66.3,125.3,66.3,125.3,66.3,125.2z"/>
					</g>
					<g>
						<path fill="#EFCAA9" d="M87.2,122.6c-1.4-1.7-3.6-2.8-5.9-2.8c-2.3,0-4.3,1-5.7,2.6c-0.3,0.3-0.6,0.7-0.8,1.1
							c-0.3,0.5-0.6,1.1-0.8,1.8c0,0,0,0,0,0.1h14.8C88.4,124.3,87.9,123.4,87.2,122.6z"/>
					</g>
				</g>
				<g>
					<g>
						<path fill="#F89C25" d="M29.1,91.9c-0.3,0-0.5-0.2-0.5-0.4c-0.1-0.3,0.1-0.6,0.4-0.7c0.6-0.1,1.6-0.4,1.9-0.7
							c0.2-0.2,0.6-0.2,0.8,0c0.2,0.2,0.2,0.6,0,0.8c-0.6,0.5-2.1,0.9-2.4,1C29.2,91.9,29.2,91.9,29.1,91.9z"/>
					</g>
					<g>
						<path fill="#F89C25" d="M30.6,95c-0.3,0-0.5-0.2-0.5-0.4c-0.1-0.3,0.1-0.6,0.4-0.7c0.6-0.1,1.6-0.4,1.9-0.7
							c0.2-0.2,0.6-0.2,0.8,0.1c0.2,0.2,0.2,0.6,0,0.8c-0.6,0.5-2.1,0.9-2.4,1C30.7,95,30.6,95,30.6,95z"/>
					</g>
					<g>
						<path fill="#F89C25" d="M32.7,98.1c-0.2,0-0.4-0.1-0.5-0.4c-0.1-0.3,0-0.6,0.3-0.7c0.6-0.2,1.5-0.6,1.7-0.9
							c0.2-0.2,0.6-0.3,0.8-0.1c0.2,0.2,0.3,0.6,0.1,0.8c-0.5,0.6-1.9,1.2-2.2,1.3C32.8,98,32.8,98.1,32.7,98.1z"/>
					</g>
					<g>
						<path fill="#F89C25" d="M35.8,100.2c-0.2,0-0.4-0.1-0.5-0.3c-0.2-0.3-0.1-0.6,0.2-0.8c0.5-0.3,1.3-0.9,1.5-1.3
							c0.2-0.3,0.5-0.4,0.8-0.2c0.3,0.2,0.4,0.5,0.2,0.8c-0.4,0.7-1.7,1.5-1.9,1.7C36,100.2,35.9,100.2,35.8,100.2z"/>
					</g>
				</g>
				<g>
					<g>
						<path fill-rule="evenodd" clip-rule="evenodd" fill="#A13793" d="M117,78c-0.4,1.6-1.2,2.8-2.5,3.7c-1,0.6-2,0.8-3.1,0.7
							c-2.3-0.4-4.1-2.7-4-5.3c0-1.6,0.1-3.1,0.1-4.7c0-1.1,0-2.2-0.3-3.2c0,0,0,0,0-0.1c-0.1-0.3-0.1-0.3-0.4-0.2
							c-0.7,0.2-1.2-0.2-1.6-0.8c-0.4-0.7-0.5-1.4-0.4-2.2c0-0.2,0.1-0.4,0.2-0.7c0-0.1,0-0.2-0.1-0.2c-0.2,0-0.3-0.1-0.5-0.1
							c-0.5,0-0.9-0.5-0.9-1c0-0.7,0.8-1.4,1.5-0.9c0.3,0.2,0.5,0.4,0.8,0.7c0.1,0.1,0.2,0.1,0.3,0c0.5-0.4,1.1-0.6,1.7-0.6
							c0.7,0,1.2,0.3,1.5,1c0.1,0.2,0.1,0.4,0.1,0.6c0,0.1,0.1,0.2,0.1,0.2c0.7,0.5,1.4,1.2,2,1.9c1,1.1,2,2.2,2.9,3.4
							c0.9,1.2,1.7,2.5,2.2,3.9c0.4,1,0.5,2.1,0.4,3.2C117.1,77.5,117,77.8,117,78z M111.6,80.7c0.3,0,0.7,0.1,1,0.1
							c0.4,0,0.7-0.3,0.7-0.7c0.1-0.5-0.3-0.9-0.8-0.9c-0.5,0-1,0-1.4-0.3c-1.1-0.6-1.6-1.6-1.6-2.9c0-1.3,0-2.5-0.1-3.8
							c0-0.4-0.1-0.9-0.2-1.3c0-0.2-0.2-0.3-0.3-0.3c-0.2,0-0.2,0.2-0.2,0.4c0,0,0,0,0,0c0,0.4,0.1,0.7,0,1.1
							c-0.1,1.3-0.1,2.6-0.2,3.9C108.4,78.2,109.7,80.2,111.6,80.7z M107.8,65.3c0.1,0,0.2,0,0.2,0c0.1,0,0.3,0,0.4,0
							c0.3-0.1,0.5-0.3,0.4-0.7c0-0.2-0.2-0.4-0.4-0.5c-0.3-0.2-0.7-0.2-1-0.2c-1.3,0.3-2.2,1.8-1.9,3.2c0.1,0.4,0.3,0.7,0.5,0.9
							c0.2,0.2,0.4,0.2,0.6,0.2c0.3-0.1,0.5-0.4,0.4-0.7c0-0.2-0.1-0.3-0.2-0.5c0,0,0-0.1-0.1-0.2c0.2,0,0.3,0,0.5,0
							c0.5,0,0.7-0.4,0.5-0.9C107.9,65.6,107.9,65.5,107.8,65.3z M105.6,64.4c-0.2-0.4-0.5-0.7-0.9-0.8c-0.1,0-0.2,0-0.3,0.1
							c-0.1,0.1-0.1,0.2-0.1,0.4c0,0.1,0.1,0.1,0.3,0.2c0.2,0,0.3,0,0.5,0.1C105.3,64.3,105.4,64.3,105.6,64.4z"/>
					</g>
					<g>
						<path fill-rule="evenodd" clip-rule="evenodd" fill="#00938F" d="M107.8,65.3c0.1,0.2,0.1,0.3,0.2,0.5c0.2,0.5,0,0.8-0.5,0.9
							c-0.1,0-0.3,0-0.5,0c0,0.1,0,0.1,0.1,0.2c0.1,0.2,0.1,0.3,0.2,0.5c0.1,0.4-0.1,0.7-0.4,0.7c-0.2,0.1-0.4,0-0.6-0.2
							c-0.3-0.2-0.5-0.5-0.5-0.9c-0.3-1.4,0.6-2.9,1.9-3.2c0.4-0.1,0.7,0,1,0.2c0.2,0.1,0.3,0.3,0.4,0.5c0.1,0.4-0.1,0.6-0.4,0.7
							c-0.1,0-0.3,0-0.4,0C108,65.3,107.9,65.3,107.8,65.3z"/>
					</g>
				</g>
				<g>
					<g>
						<path fill-rule="evenodd" clip-rule="evenodd" fill="#F1672A" d="M55.6,29.5c0.2,0.3,0.3,0.7,0.5,1c0,0,0,0.1,0,0.2
							c-0.3,0.6-0.6,1.3-0.9,1.9c-0.1,0.3-0.4,0.4-0.6,0.3c-0.2-0.1-0.3-0.4-0.2-0.7c0.4-0.8,0.8-1.7,1.2-2.5
							C55.6,29.6,55.6,29.6,55.6,29.5z"/>
					</g>
					<g>
						<g>
							<path fill-rule="evenodd" clip-rule="evenodd" fill="#EC1846" d="M57,30.7c-0.6-0.9-1.1-2-1.3-3.3c-0.1-0.4-0.1-0.8,0-1.2
								c0.1-1.1,1.1-1.6,2-1.5c0.2,0,0.4,0.1,0.6,0.2c0.1,0,0.1,0,0.2,0c0.6-0.7,1.5-0.8,2.3-0.5c0.1,0,0.2,0,0.2,0
								c0.8-0.6,1.7-0.7,2.6-0.4c0.8,0.2,1.6,0.6,2.3,1.1c0.3,0.2,0.3,0.6,0,0.8c-0.2,0.1-0.5,0.3-0.7,0.5c-0.2,0.2-0.3,0.4-0.2,0.6
								c0.1,0.5,0.1,1-0.1,1.5c-0.1,0.5-0.4,0.9-0.8,1.2C64,29.7,64,29.8,64,29.9c0.1,0.6,0,1.1-0.4,1.6c-0.2,0.3-0.6,0.5-0.9,0.7
								c-0.1,0-0.2,0.1-0.2,0.2c0,0.4-0.1,0.8-0.4,1.1c-0.4,0.4-0.9,0.5-1.4,0.4C60,33.8,59.5,33.5,59,33
								C58.3,32.4,57.7,31.8,57,30.7z M60.4,25.2c-0.7-0.3-1.2,0-1.4,0.7c-0.1,0.4-0.1,0.9,0,1.3c0.1,0.3-0.1,0.5-0.3,0.6
								c-0.3,0.1-0.5-0.1-0.6-0.3C58,27,58,26.5,58.1,26.1c0-0.4,0-0.4-0.3-0.5c-0.7-0.1-1.1,0.2-1.2,0.8c0,0.5,0,0.9,0.2,1.4
								c0.3,1.1,0.8,2,1.4,2.9c0.5,0.7,1.1,1.3,1.8,1.8c0.3,0.2,0.7,0.4,1.1,0.5c0.4,0,0.6-0.1,0.6-0.5c0-0.2,0-0.5,0-0.7
								c-0.1-0.6-0.3-1.2-0.6-1.7c-0.1-0.2,0-0.5,0.2-0.6c0.2-0.1,0.5-0.1,0.6,0.2c0.1,0.2,0.2,0.3,0.2,0.5c0.2,0.4,0.3,0.7,0.4,1.1
								c0.1-0.1,0.2-0.1,0.3-0.2c0.3-0.3,0.3-0.6,0.3-1c-0.1-0.6-0.3-1.2-0.6-1.7c-0.1-0.3-0.1-0.5,0-0.7c0.2-0.2,0.6-0.2,0.8,0.1
								c0.1,0.3,0.3,0.6,0.4,0.9c0.1-0.2,0.2-0.4,0.3-0.6c0.1-0.3,0.1-0.7,0-1.1c-0.1-0.6,0.1-1,0.5-1.4c0.1-0.1,0.2-0.2,0.3-0.3
								c-0.4-0.3-0.9-0.5-1.3-0.6c-0.4-0.1-0.8-0.2-1.3-0.1c-0.7,0.1-1,0.6-1,1.2c0,0.2,0.1,0.4,0.1,0.6c0.1,0.3-0.1,0.5-0.4,0.6
								c-0.3,0.1-0.5-0.1-0.6-0.4C60.3,26.2,60.3,25.7,60.4,25.2z"/>
						</g>
						<g>
							<path fill-rule="evenodd" clip-rule="evenodd" fill="#F1672A" d="M55,27.4c0.1,0.4,0.2,0.8,0.3,1.2c0,0.1,0,0.1,0,0.2
								c-0.6,1.1-1.2,2.3-1.8,3.4c-0.2,0.4-0.4,0.8-0.6,1.2c0.1,0,0.2,0,0.2,0c1.6-0.1,3.2-0.2,4.8-0.3c0.1,0,0.2,0,0.4,0.1
								c0.2,0.2,0.5,0.4,0.7,0.6c0,0,0.1,0.1,0.1,0.1c-0.6,0-1.2,0.1-1.7,0.1c-1.7,0.1-3.5,0.2-5.2,0.3c-0.2,0-0.3,0-0.4-0.1
								c-0.2-0.1-0.2-0.4-0.1-0.6c0.4-0.7,0.8-1.4,1.1-2.2c0.7-1.3,1.4-2.7,2.1-4C54.9,27.5,54.9,27.5,55,27.4z"/>
						</g>
						<g>
							<path fill-rule="evenodd" clip-rule="evenodd" fill="#F1672A" d="M56.5,31.2c0.2,0.3,0.4,0.5,0.5,0.8c0,0,0,0.1,0,0.2
								c-0.1,0.2-0.2,0.3-0.2,0.5c-0.1,0.2-0.4,0.3-0.6,0.2c-0.2-0.1-0.3-0.3-0.2-0.6C56.2,31.9,56.3,31.6,56.5,31.2z"/>
						</g>
						<g>
							<path fill-rule="evenodd" clip-rule="evenodd" fill="#A13793" d="M60.4,25.2c-0.1,0.5-0.1,1,0,1.6c0.1,0.3,0.3,0.5,0.6,0.4
								c0.3-0.1,0.4-0.3,0.4-0.6c0-0.2-0.1-0.4-0.1-0.6c0-0.7,0.3-1.1,1-1.2c0.4-0.1,0.9,0,1.3,0.1c0.5,0.1,0.9,0.3,1.3,0.6
								c-0.1,0.1-0.2,0.2-0.3,0.3C64.1,26,64,26.5,64,27.1c0,0.4,0.1,0.7,0,1.1c-0.1,0.2-0.2,0.4-0.3,0.6c-0.2-0.3-0.3-0.6-0.4-0.9
								c-0.2-0.3-0.5-0.4-0.8-0.1c-0.2,0.2-0.2,0.4,0,0.7c0.3,0.5,0.5,1.1,0.6,1.7c0,0.4,0,0.7-0.3,1c-0.1,0.1-0.2,0.2-0.3,0.2
								c-0.2-0.4-0.3-0.8-0.4-1.1c-0.1-0.2-0.2-0.3-0.2-0.5c-0.1-0.2-0.4-0.3-0.6-0.2c-0.2,0.1-0.3,0.4-0.2,0.6
								c0.3,0.6,0.5,1.1,0.6,1.7c0,0.2,0,0.5,0,0.7c0,0.4-0.3,0.5-0.6,0.5c-0.4,0-0.7-0.2-1.1-0.5c-0.7-0.5-1.3-1.1-1.8-1.8
								c-0.6-0.9-1.1-1.9-1.4-2.9c-0.1-0.4-0.2-0.9-0.2-1.4c0.1-0.7,0.5-1,1.2-0.8c0.4,0.1,0.4,0.1,0.3,0.5c0,0.4,0,0.9,0.1,1.3
								c0.1,0.3,0.3,0.4,0.6,0.3c0.2-0.1,0.4-0.3,0.3-0.6c-0.1-0.4-0.1-0.9,0-1.3C59.2,25.2,59.8,24.9,60.4,25.2z"/>
						</g>
					</g>
				</g>
				<g>
					<g>
						<path fill-rule="evenodd" clip-rule="evenodd" fill="#F1672A" d="M68,71.8c1-1,2-2.1,3.1-3.1c-0.1-0.2-0.3-0.5-0.3-0.7
							c-0.1-0.5,0-1,0.4-1.4c0.7-0.8,1.4-1.6,1.7-2.6c0.2-0.7,0.4-1.4,0.6-2.2c0.4-1.4,1.2-2.6,2.3-3.6c0.9-0.9,2-1.5,3.3-1.7
							c1.9-0.3,3.5,0.4,4.7,1.9c1.5,1.9,1.4,3.9,0.3,5.8c-1,1.7-2.4,2.9-4.3,3.5c-0.4,0.1-0.8,0.2-1.2,0.3c-1.4,0.3-2.6,1-3.6,2
							c-0.5,0.5-1,0.7-1.6,0.5c-0.2-0.1-0.4-0.2-0.7-0.3c-1,1-2,2-3.1,3.1c0.5,0.9,0.5,1.5,0.1,2c-0.5,0.5-1.1,0.7-1.7,0.4
							C67.3,75.5,67,75,67,74.3c-0.8,0-1.3-0.3-1.6-1.1c-0.2-0.6,0.1-1.2,0.6-1.6C66.6,71.3,67.2,71.3,68,71.8z M72.4,68.9
							L72.4,68.9c0.2,0.2,0.4,0.4,0.7,0.7c0.5,0.5,0.8,0.4,1.3,0c0.5-0.4,0.9-0.8,1.4-1.2c0.9-0.6,1.9-0.9,3-1.2
							c1-0.3,2-0.7,2.8-1.4c1-0.8,1.8-1.8,2.2-3c0.5-1.5,0.3-2.9-0.7-4.1c-1.1-1.3-2.5-1.9-4.2-1.5c-1.6,0.4-2.8,1.4-3.8,2.7
							c-0.6,0.9-0.9,1.8-1.2,2.9c-0.2,0.8-0.5,1.7-0.9,2.4c-0.4,0.6-0.9,1.2-1.4,1.8c-0.3,0.4-0.3,0.8,0,1.1
							C71.9,68.4,72.1,68.7,72.4,68.9z M71.6,69.2c-0.1,0-0.1,0.1-0.1,0.1c-0.9,0.9-1.9,1.9-2.8,2.8c-0.5,0.5-0.9,0.6-1.4,0.1
							c0,0,0,0-0.1,0c-0.3-0.2-0.7-0.1-0.9,0.2c-0.2,0.2-0.2,0.6,0,0.9c0.3,0.4,0.7,0.4,1.1,0c0.2-0.1,0.4-0.1,0.5,0
							c0.1,0.2,0.1,0.3,0,0.5c-0.1,0.1-0.2,0.3-0.2,0.5c0,0.3,0.2,0.6,0.5,0.7c0.3,0.1,0.7,0,0.9-0.3c0.2-0.3,0.1-0.6-0.1-0.9
							c-0.3-0.4-0.3-0.8,0.1-1.1c0.8-0.8,1.6-1.6,2.3-2.4c0.2-0.2,0.5-0.5,0.7-0.7C71.9,69.5,71.8,69.4,71.6,69.2z"/>
					</g>
					<g>
						<path fill-rule="evenodd" clip-rule="evenodd" fill="#F89C25" d="M72.4,68.9c-0.2-0.2-0.5-0.5-0.7-0.7c-0.4-0.4-0.4-0.7,0-1.1
							c0.5-0.6,0.9-1.1,1.4-1.8c0.5-0.7,0.7-1.6,0.9-2.4c0.3-1,0.6-2,1.2-2.9c1-1.3,2.1-2.4,3.8-2.7c1.7-0.4,3.1,0.2,4.2,1.5
							c1,1.2,1.2,2.6,0.7,4.1c-0.4,1.2-1.2,2.2-2.2,3c-0.8,0.7-1.8,1.1-2.8,1.4c-1,0.3-2.1,0.6-3,1.2c-0.5,0.4-1,0.8-1.4,1.2
							c-0.5,0.4-0.8,0.4-1.3,0C72.8,69.3,72.6,69.1,72.4,68.9L72.4,68.9z"/>
					</g>
				</g>
				<g>
					<path fill="#F89C25" d="M29.6,87.1l0.2,0.1c0.9,0.3,1.4,0.8,1.3,2.4c-0.2,3.7,3.4,8.4,7.1,9.3c0.9,0.2,1.3,0.6,1.5,2.1
						l-0.2,0.3c-0.4,0.6-0.8,0.8-1.4,0.8c-0.3,0-0.6-0.1-1-0.2c-2.1-0.6-4-1.8-5.7-3.8c-2.1-2.4-3.2-4.9-3.4-7.6c0-0.4,0-0.8,0-1.2
						c0.1-1.4,0.6-1.8,1.5-2L29.6,87.1 M28.7,85.1c0.2,0.5,0.3,0.7,0.4,1c-1.6,0.4-2.3,1.5-2.3,3.1c0,0.5,0,0.9,0,1.4
						c0.3,3.2,1.7,5.9,3.7,8.3c1.7,2,3.7,3.5,6.3,4.2c0.5,0.1,0.9,0.2,1.3,0.2c0.9,0,1.7-0.4,2.4-1.4c0.3,0.2,0.5,0.4,0.9,0.8
						c0.2-0.7,0.3-1.2,0.6-2c-0.5,0.1-0.8,0.2-1.1,0.3c-0.2-1.9-0.8-2.7-2.3-3.1c-3.1-0.7-6.4-4.9-6.2-8.1c0.1-1.7-0.4-2.9-2.1-3.5
						c0.2-0.3,0.3-0.5,0.5-1C30,85.1,29.4,85.1,28.7,85.1L28.7,85.1z"/>
				</g>
				<g>
					<g>
						<path fill-rule="evenodd" clip-rule="evenodd" fill="#F1672A" d="M37.7,41.8c0.2-0.2,0.5-0.5,0.7-0.7
							c-0.3-0.3-0.6-0.6-0.9-0.9c-0.3-0.3-0.6-0.6-0.9-0.9c0.4-0.4,0.8-0.8,1.2-1.2c0.8,0.4,1.4,1.1,1.6,2.1c0.1,0.3,0.1,0.7,0.1,1
							c0,0.3,0.1,0.5,0.4,0.6c0.4,0.1,0.8,0.1,1.2,0.2c0.3,0.1,0.6,0.2,0.9,0.3c-0.5,0.5-0.9,0.9-1.3,1.3c-0.6-0.6-1.2-1.2-1.8-1.9
							c-0.3,0.3-0.5,0.5-0.7,0.7c0.5,0.6,0.7,1.4,0.6,2.2c-0.1,0.7-0.4,1.3-0.9,1.8c-0.8,0.8-2.4,1.3-3.9,0.2
							c-0.1,0-0.1,0.1-0.2,0.2c-0.7,0.7-1.3,1.3-2,2c-0.1,0.1-0.3,0.2-0.5,0.1c-0.1-0.1-0.2-0.2-0.3-0.3c0-0.1,0.1-0.3,0.2-0.4
							c0.6-0.7,1.3-1.3,2-2c0.1-0.1,0.1-0.1,0.2-0.1c-1.1-1.6-0.6-3.1,0.3-4C34.7,41.2,36.3,40.8,37.7,41.8z M35.3,42.1
							C35.3,42.1,35.3,42.1,35.3,42.1c-0.8,0.1-1.5,0.7-1.6,1.4c0,0.1,0,0.3,0.1,0.3c0.1,0,0.2-0.1,0.3-0.1c0.1,0,0.1-0.1,0.1-0.2
							c0.1-0.2,0.1-0.3,0.2-0.5C34.6,42.6,34.9,42.3,35.3,42.1z"/>
					</g>
					<g>
						<path fill-rule="evenodd" clip-rule="evenodd" fill="#F89C25" d="M43.2,37.4c0.6,0.6,1.3,1.2,1.9,1.8
							c-0.4,0.4-0.8,0.8-1.2,1.2c-0.2-0.2-0.3-0.4-0.3-0.7c0-0.4-0.1-0.9-0.2-1.3c-0.2-0.5-0.6-0.9-1.1-1c-0.4-0.1-0.8-0.2-1.2-0.3
							c-0.6-0.2-0.9-0.6-0.9-1.2c0,0,0-0.1,0-0.1c0.2-0.2,0.4-0.4,0.7-0.7c0.6,0.6,1.2,1.2,1.8,1.8c0.4-0.4,0.7-0.7,1.1-1.1
							c-0.5-0.7-0.7-1.4-0.5-2.3c0.1-0.7,0.4-1.2,0.9-1.7c0.9-0.8,2.5-1.2,3.8-0.2c0.1,0,0.1-0.1,0.2-0.2c0.4-0.4,0.9-0.9,1.3-1.3
							c0.1-0.1,0.1-0.1,0.2-0.2c0.2-0.1,0.4,0,0.5,0.2c0.1,0.2,0.1,0.4-0.1,0.5c-0.2,0.2-0.4,0.4-0.6,0.6c-0.3,0.3-0.7,0.7-1,1
							c0.4,0.6,0.6,1.2,0.6,1.9c0,1.4-1,2.6-2.4,2.9c-0.8,0.2-1.6,0-2.3-0.5c0,0-0.2,0-0.2,0C43.9,36.8,43.6,37.1,43.2,37.4z
							 M45.5,31.9c-0.7,0-1.5,0.7-1.6,1.5c0,0.1,0,0.2,0.1,0.2c0.1,0,0.2,0,0.3-0.1c0.1-0.1,0.1-0.2,0.2-0.3
							c0.1-0.2,0.2-0.5,0.3-0.7C45,32.3,45.3,32.1,45.5,31.9z"/>
					</g>
					<g>
						<path fill-rule="evenodd" clip-rule="evenodd" fill="#EC1846" d="M43.4,41c-0.2,0.2-0.5,0.5-0.7,0.7c-0.5-0.2-1-0.3-1.5-0.4
							c-0.1,0-0.3-0.1-0.4-0.2c-0.4-0.2-0.7-0.5-0.7-1c0-1.1-0.5-1.9-1.3-2.5c-0.1-0.1-0.1-0.1-0.2-0.1c0.4-0.4,0.7-0.7,1.1-1.1
							c0,0.1,0,0.3,0,0.4c0,0.7,0.2,0.9,0.9,0.9c0.4,0,0.7,0.1,1.1,0.2c0.9,0.2,1.4,0.8,1.4,1.8c0,0.2,0,0.4,0,0.5
							C43.1,40.6,43.1,40.7,43.4,41z"/>
					</g>
					<g>
						<path fill-rule="evenodd" clip-rule="evenodd" fill="#6B3F23" d="M35.3,42.1c-0.4,0.2-0.7,0.5-0.9,0.9
							c-0.1,0.1-0.1,0.3-0.2,0.5c0,0.1,0,0.2-0.1,0.2c-0.1,0.1-0.2,0.1-0.3,0.1c-0.1,0-0.1-0.2-0.1-0.3
							C33.8,42.8,34.5,42.2,35.3,42.1C35.3,42.1,35.3,42.1,35.3,42.1z"/>
					</g>
					<g>
						<path fill-rule="evenodd" clip-rule="evenodd" fill="#6B3F23" d="M45.5,31.9c-0.2,0.2-0.5,0.4-0.7,0.7
							c-0.2,0.2-0.2,0.5-0.3,0.7c0,0.1-0.1,0.2-0.2,0.3c-0.1,0.1-0.2,0.1-0.3,0.1c-0.1,0-0.1-0.1-0.1-0.2
							C44,32.6,44.8,31.9,45.5,31.9z"/>
					</g>
				</g>
				<g>
					<g>
						<path fill-rule="evenodd" clip-rule="evenodd" fill="#BDB432" d="M38.9,60.4c-0.6-1.1-0.7-2.2-0.8-3.4
							c-0.1-2.1,0.2-4.1,0.6-6.1c0.1-0.3,0.1-0.7,0.2-1c0-0.2,0.1-0.4,0.4-0.3c0.2,0.1,0.2,0.2,0.2,0.4c-0.2,1.4-0.5,2.8-0.7,4.3
							c-0.2,1.4-0.2,2.8,0,4.2c0.1,0.7,0.3,1.4,0.8,2c0.1,0.2,0.3,0.3,0.5,0.4c0.1-0.3,0.1-0.5,0.2-0.8c0.4-1.4,1.2-2.6,2.1-3.7
							c1.4-1.5,3-2.7,4.8-3.7c0.5-0.3,1-0.5,1.5-0.8c0.1,0.5,0.2,0.9,0.4,1.4c0.4,1.4,0.7,2.9,1.1,4.3c0.1,0.3,0,0.4-0.2,0.6
							c-1,0.7-1.9,1.5-2.9,2.3c-1,0.8-2.1,1.4-3.2,2c-0.7,0.4-1.5,0.7-2.4,0.7c-0.8,0-1.3-0.4-1.5-1.2c0-0.1-0.1-0.2-0.1-0.2
							c-1.9-0.5-3-1.8-3.6-3.7C36,56.5,36,55.1,36,53.6c0-0.4,0-0.8,0.1-1.2c0-0.2,0.1-0.4,0.3-0.4c0.3,0,0.3,0.3,0.2,0.5
							c-0.1,1.3-0.1,2.6,0.1,3.9c0.2,1.1,0.5,2.2,1.2,3.1C38.2,59.8,38.6,60.1,38.9,60.4C38.9,60.4,38.9,60.4,38.9,60.4z M44.9,55.4
							c-0.5,0.4-0.6,1.1-0.2,1.7c0.4,0.5,1.1,0.6,1.7,0.2c0.5-0.4,0.6-1.1,0.2-1.7C46.2,55.1,45.4,55,44.9,55.4z"/>
					</g>
					<g>
						<path fill-rule="evenodd" clip-rule="evenodd" fill="#BDB432" d="M59.2,65.4c-0.6,1-1.4,1.5-2.6,1.2c0.3-0.8,0.7-1.7,1.3-2.3
							c0.2-0.2,0.5-0.3,0.7-0.4c0.2-0.1,0.3-0.2,0.3-0.5c0.1-0.8-0.1-1.5-0.5-2.1c-0.1-0.1-0.2-0.3-0.2-0.4c1-0.4,1.9-0.7,2.9-1.1
							c0,0,0.1,0,0.1,0c0,0.1-0.1,0.1-0.1,0.2c-0.1,0.4-0.2,0.8-0.3,1.2c-0.2,1-0.2,1.9,0.4,2.8c0.7,1.2,0.7,2.5-0.2,3.7
							c0,0,0,0-0.1,0.1c-0.4,0.5-0.6,0.5-1.1,0c-0.6-0.6-0.7-1.3-0.6-2.1C59.3,65.6,59.3,65.5,59.2,65.4
							C59.3,65.4,59.3,65.4,59.2,65.4z"/>
					</g>
					<g>
						<path fill-rule="evenodd" clip-rule="evenodd" fill="#BDB432" d="M53.2,57.2c-0.5,0-0.9,0-1.3,0c-0.1,0-0.2-0.1-0.2-0.2
							c-0.4-1.4-0.9-2.8-1-4.3c-0.1-1.3-0.1-1.2,1-1.7c0.7-0.3,1.4-0.3,2.1,0.1c0.1,0.1,0.2,0.1,0.2,0.3c-0.3,1.8-0.5,3.7-0.8,5.5
							C53.2,57.1,53.2,57.1,53.2,57.2z"/>
					</g>
					<g>
						<path fill-rule="evenodd" clip-rule="evenodd" fill="#BDB432" d="M55.6,57.9c-0.4-0.2-0.7-0.3-1.1-0.5c-0.1,0-0.1-0.1-0.1-0.2
							c0-1.4,0.1-2.8,0.5-4.2c0.1-0.3,0.2-0.6,0.4-0.9c0.1-0.1,0.2-0.2,0.3-0.2c0.8,0,1.5,0.2,2.1,0.8c0.1,0.1,0.3,0.3,0.4,0.5
							c0.2,0.4,0.2,0.8-0.1,1.2c-0.8,1.1-1.5,2.2-2.3,3.3C55.7,57.8,55.7,57.9,55.6,57.9z"/>
					</g>
					<g>
						<path fill-rule="evenodd" clip-rule="evenodd" fill="#BDB432" d="M57.2,59.7c-0.2-0.3-0.4-0.6-0.7-0.9c0,0,0-0.2,0-0.2
							c0.7-0.9,1.3-1.9,2.2-2.7c0.7-0.6,0.8-0.6,1.6,0c0.6,0.5,0.8,1.1,0.6,1.8c0,0.1-0.1,0.3-0.3,0.3
							C59.6,58.7,58.4,59.2,57.2,59.7z"/>
					</g>
					<g>
						<path fill-rule="evenodd" clip-rule="evenodd" fill="#BDB432" d="M51.5,63.3c-0.4,0.2-0.9,0.1-1-0.3c-0.2-1.5-0.2-2.9,0.6-4.2
							c0.1-0.1,0.2-0.2,0.3-0.3c0.2-0.2,0.5-0.2,0.8-0.1c0.2,0.2,0.3,0.5,0.2,0.7c-0.8,1-0.8,2.2-0.7,3.4c0,0.1,0,0.2,0,0.3
							C51.7,63,51.6,63.2,51.5,63.3z"/>
					</g>
					<g>
						<path fill-rule="evenodd" clip-rule="evenodd" fill="#BDB432" d="M54.6,59c0.2,0.2,0.2,0.5,0,0.7c-0.4,0.5-0.6,1-0.7,1.6
							c0,0.4,0,0.7-0.1,1.1c0,0.4-0.3,0.6-0.6,0.6c-0.3,0-0.6-0.2-0.6-0.6c0-1,0.1-2,0.6-2.9c0.1-0.2,0.3-0.4,0.4-0.6
							C54,58.7,54.4,58.7,54.6,59z"/>
					</g>
					<g>
						<path fill-rule="evenodd" clip-rule="evenodd" fill="#BDB432" d="M55.5,60.2c0.3-0.2,0.6-0.2,0.8,0c0.2,0.2,0.2,0.5,0.1,0.7
							c-0.4,0.5-0.5,1.2-0.5,1.8c0,0.4-0.2,0.6-0.6,0.6c-0.3,0-0.6-0.3-0.6-0.7c0-0.9,0.1-1.7,0.7-2.4
							C55.4,60.3,55.4,60.2,55.5,60.2z"/>
					</g>
				</g>
				<g>
					<g>
						<path fill-rule="evenodd" clip-rule="evenodd" fill="#EC1846" d="M23.5,67.7c0.4-0.2,0.8-0.5,1.2-0.8c0.2-0.1,0.4-0.1,0.6-0.1
							c0.4,0,0.7,0.3,0.7,0.7c0,0.5-0.2,0.9-0.4,1.3c-0.5,0.8-1.1,1.4-1.7,2c-0.3,0.2-0.2,0.2-0.1,0.5c0.5,1.3,1.3,2.5,2,3.6
							c0.7,1,1.3,2.1,1.9,3.2c0.8,1.4,1,2.9,0.7,4.5c-0.1,0.9-0.6,1.6-1.4,2.1c-0.2,0.1-0.5,0.2-0.7,0.4c-0.2,0.1-0.5,0.1-0.7,0
							c-0.5-0.3-0.9-0.7-1.3-1.1c-0.2-0.2-0.2-0.4,0-0.6c0.2-0.2,0.4-0.4,0.6-0.6c0.7-0.4,1.5-0.8,2.2-1.2c0.2-0.1,0.5-0.3,0.7-0.4
							c0.1-0.1,0.2-0.2,0.1-0.3c0-0.2-0.2-0.1-0.3-0.1c-0.2,0.1-0.4,0.2-0.6,0.3c-0.6,0.4-1.2,0.8-1.8,1.2c-0.4,0.2-0.8,0.4-1.2,0.5
							c-0.5,0-0.8-0.1-1.1-0.6c-0.2-0.4-0.2-0.9,0.1-1.2c0.4-0.4,0.8-0.6,1.3-0.8c0.7-0.3,1.4-0.5,2.2-0.8c0.2-0.1,0.4-0.2,0.6-0.3
							c0.1-0.1,0.2-0.2,0.1-0.3c-0.1-0.1-0.2-0.1-0.3-0.1c-0.3,0.1-0.7,0.3-1,0.4c-0.7,0.4-1.5,0.7-2.2,1.1
							c-0.3,0.1-0.6,0.2-0.8,0.2c-0.3,0-0.6-0.1-0.8-0.4c-0.2-0.3-0.2-0.7,0-1c0.2-0.4,0.6-0.6,1-0.7c0.7-0.3,1.4-0.5,2.1-0.7
							c0.2-0.1,0.4-0.1,0.7-0.2c0.1,0,0.2-0.1,0.3-0.2c0.1-0.1,0.1-0.2,0.1-0.2c0-0.1-0.1-0.1-0.2-0.1c-0.1,0-0.3,0-0.4,0.1
							c-0.7,0.3-1.4,0.6-2.1,0.9c-0.4,0.1-0.8,0.3-1.1,0.3c-0.7,0.1-1.2-0.6-0.9-1.3c0.2-0.4,0.5-0.6,0.9-0.7
							c0.6-0.2,1.1-0.3,1.7-0.5c0.3-0.1,0.6-0.2,0.9-0.3c0.1,0,0.1-0.1,0.2-0.1c0.1-0.1,0-0.3-0.1-0.3c-0.2,0-0.3,0-0.5,0.1
							c-0.6,0.2-1.2,0.4-1.9,0.6c-0.3,0.1-0.6,0.1-0.8,0.1c-0.3,0-0.5-0.2-0.6-0.6c-0.1-0.7,0.2-1.2,1-1.3c0.5-0.1,0.9-0.1,1.4-0.2
							c0.2,0,0.3,0,0.4-0.1c0.1,0,0.1-0.1,0.1-0.2c-0.1,0-0.1-0.1-0.2-0.1c-0.4,0.1-0.8,0.1-1.2,0.2c-0.2,0-0.5,0.1-0.7,0.1
							c-0.5,0-0.6-0.3-0.6-0.7c0.2-1,0.3-2.1,0.5-3.1c0.2-1,0.5-2,1.1-2.9c0.1-0.2,0.3-0.4,0.5-0.5c0.1-0.1,0.3-0.1,0.3-0.1
							c0.1,0.1,0.2,0.2,0.1,0.3c0,0.3-0.1,0.7-0.2,1C23.6,67.4,23.6,67.6,23.5,67.7z"/>
					</g>
					<g>
						<path fill-rule="evenodd" clip-rule="evenodd" fill="#BDB432" d="M29,82.6c0-0.3,0.1-0.6,0.1-0.9c0.1-1.4-0.2-2.7-0.9-3.9
							c-0.6-1.1-1.3-2.1-2-3.2c-0.7-1-1.3-2.1-1.8-3.2c-0.1-0.2,0-0.3,0.1-0.5c0.5-0.5,1-1,1.5-1.5c0,0,0,0,0,0
							c0.2-0.5,0.7-0.6,1.2-0.7c1.9-0.3,3.8,0.9,4.3,2.8c0.1,0.6,0.2,1.2,0.2,1.8c0.2,1.8,0.3,3.6,0.5,5.4
							C32.5,80.5,31,82.4,29,82.6C29.1,82.6,29.1,82.6,29,82.6z"/>
					</g>
				</g>
				<g>
					<g>
						<path fill-rule="evenodd" clip-rule="evenodd" fill="#BDB432" d="M85.9,45.1c0-0.2,0.1-0.4,0.2-0.5c1.2-0.9,2.3-1.7,3.5-2.6
							c0.9-0.7,1.7-1.3,2.6-2c1-0.7,1.9-1.4,2.9-2.2c0.9-0.7,1.7-1.3,2.6-2c1-0.7,1.9-1.4,2.9-2.2c0.2-0.1,0.3-0.3,0.5-0.3
							c0.1-0.1,0.3-0.1,0.4,0c0.1,0,0.1,0.2,0.1,0.3c0,0.7-0.1,1.5-0.5,2.1c-0.3,0.6-0.7,1.1-1,1.7c0,0,0,0.1-0.1,0.1
							c-3.2,2.4-6.3,4.8-9.5,7.2c0,0-0.1,0-0.1,0c-0.9,0.3-1.8,0.5-2.7,0.6c-0.6,0.1-1.1,0.1-1.6-0.2C86,45.2,85.9,45.2,85.9,45.1z"
							/>
					</g>
					<g>
						<path fill-rule="evenodd" clip-rule="evenodd" fill="#BDB432" d="M99.2,33.9c-0.2,0.2-0.4,0.3-0.7,0.5c0,0-0.2,0-0.2,0
							C97.7,34.1,97,34,96.4,34c-0.5,0-1,0.2-1.5,0.3c-0.1,0-0.1,0-0.2,0.1c0.2,0.2,0.3,0.4,0.4,0.6c0,0,0.1,0,0.1,0
							c0.7-0.3,1.4-0.2,2.2-0.1c0.1,0,0.2,0,0.3,0.1c0,0,0,0.1-0.1,0.1c-0.2,0.1-0.3,0.3-0.5,0.4c-0.1,0.1-0.3,0.2-0.5,0.1
							c-0.3,0-0.7,0-1,0c-0.3,0-0.3,0.1-0.2,0.4c0,0,0,0.1,0,0.1c0.2,0.4,0.1,0.6-0.3,0.8c-0.1,0-0.2,0.1-0.3,0.2
							c-0.1-0.3-0.2-0.6-0.3-0.9c-0.2-0.5-0.5-1-0.9-1.5c-0.5-0.5-1-0.6-1.6-0.4c-0.1,0-0.1,0.1-0.2,0.1c0.1,0,0.1,0.1,0.1,0.1
							c0.7,0.3,1.3,0.9,1.6,1.6c0.2,0.4,0.4,0.9,0.6,1.3c0.1,0.1,0,0.2-0.1,0.3c-0.2,0.1-0.4,0.3-0.6,0.4c-0.1-0.2-0.1-0.4-0.2-0.5
							c-0.2-0.6-0.4-1.1-0.8-1.6c-0.2-0.3-0.5-0.6-0.8-0.7c-0.4-0.2-0.8-0.2-1.2-0.1c-0.6,0.2-1.4,0.9-1.7,1.4
							c0.2-0.1,0.3-0.2,0.4-0.2c0.4-0.2,0.9-0.4,1.4-0.4c0.7,0,1.2,0.4,1.5,0.9c0.3,0.5,0.4,1.1,0.5,1.6c0,0.1,0,0.2-0.1,0.3
							c-0.1,0.1-0.3,0.3-0.5,0.4c-0.1-0.4-0.2-0.7-0.3-1.1c-0.1,0.1-0.1,0.1-0.2,0.2c-0.4,0.5-0.6,1-0.7,1.7c0,0,0,0.1,0,0.1
							c-0.3,0.2-0.5,0.4-0.8,0.6c0-0.1-0.1-0.2-0.1-0.3c0-0.6,0.1-1.2,0.5-1.8c0.2-0.4,0.5-0.7,0.8-1.1c0.2-0.2,0.2-0.3,0-0.5
							c-0.2-0.3-0.2-0.3-0.5,0c-1,1.1-1.5,2.4-1.5,3.9c0,0.1,0,0.2,0,0.3c0,0.1,0,0.1-0.1,0.2c-0.2,0.2-0.4,0.3-0.7,0.5
							c-0.4-1.7,0.2-3.2,1.1-4.6c0,0,0,0,0,0c-0.1,0.1-0.3,0.2-0.4,0.3c-0.8,0.5-1.1,1.2-1.3,2c-0.2,0.9-0.2,1.7-0.1,2.6
							c0,0.2,0,0.3-0.2,0.4c-0.2,0.1-0.4,0.3-0.6,0.4c-0.1-0.3-0.2-0.6-0.2-0.9c-0.1-0.7-0.1-1.3,0-2c0.1-0.7,0.3-1.4,0.8-1.9
							c0.1-0.1,0.1-0.2,0.1-0.3c0.1-1,0.4-1.9,1.1-2.6c0.4-0.4,0.8-0.7,1.3-0.8c0.1,0,0.3-0.1,0.4-0.2c0.4-0.4,0.8-0.7,1.3-0.8
							c0.6-0.2,1.2-0.1,1.8,0.2c0.2,0.1,0.4,0.1,0.7,0c1.3-0.5,2.7-0.5,4.1-0.1c0.2,0.1,0.4,0.1,0.6,0.2
							C99,33.8,99.1,33.8,99.2,33.9z"/>
					</g>
					<g>
						<path fill-rule="evenodd" clip-rule="evenodd" fill="#BDB432" d="M87.7,26.2c0.6-0.1,1.1,0,1.6,0.3c0.8,0.5,1.2,1.3,1.2,2.2
							c0,0.8,0.2,1.5,0.6,2.1c0.3,0.4,0.6,0.7,0.9,1c-0.5,0-1-0.1-1.4-0.4c-0.7-0.4-1.1-1.1-1.2-1.9c0-0.2,0-0.4,0-0.5
							c0-1.2-0.5-2.1-1.5-2.7C87.8,26.3,87.7,26.2,87.7,26.2z"/>
					</g>
					<g>
						<path fill-rule="evenodd" clip-rule="evenodd" fill="#BDB432" d="M89.3,33.5c-0.2,0-0.5,0-0.7-0.1c-0.9-0.2-1.4-0.8-1.8-1.6
							c-0.2-0.4-0.2-0.9-0.2-1.3c0-1.1-0.6-1.9-1.5-2.6c-0.1,0-0.1-0.1-0.2-0.1c0.5-0.1,0.9,0,1.2,0.1c1,0.3,1.6,1.4,1.5,2.3
							c0,0.8,0.2,1.6,0.7,2.3c0.2,0.3,0.5,0.5,0.7,0.7C89.2,33.4,89.3,33.4,89.3,33.5C89.3,33.5,89.3,33.5,89.3,33.5z"/>
					</g>
					<g>
						<path fill-rule="evenodd" clip-rule="evenodd" fill="#BDB432" d="M83,30.2c0.5,0,0.9,0,1.3,0.2c1,0.4,1.5,1.4,1.5,2.4
							c0,1,0.3,1.8,1,2.5c0.2,0.2,0.4,0.4,0.6,0.6c-0.3,0-0.5,0-0.8-0.1c-1-0.2-1.6-0.9-1.9-1.9c-0.1-0.2-0.1-0.4-0.1-0.7
							c0-1.2-0.4-2.2-1.5-2.9C83.1,30.4,83.1,30.3,83,30.2z"/>
					</g>
				</g>
				<g>
					<g>
						<path fill-rule="evenodd" clip-rule="evenodd" fill="#EC1846" d="M82.7,112c0.7-1.5,1.5-2.7,2.5-3.7c1.2-1.2,2.5-2.1,3.8-3
							c1.1-0.7,2.1-1.3,3.3-1.8c0.9-0.4,1.9-0.6,2.9-0.5c0.7,0.1,1.2,0.4,1.7,0.8c0.9,0.8,1.6,1.8,1.7,3c0.1,0.7,0,1.3-0.2,2
							c-0.1,0.2-0.2,0.5-0.3,0.7c-0.4,0.8-1,1.4-1.8,1.7c-0.5,0.2-1,0.3-1.5,0.4c-1.4,0.3-2.8,0.6-4.1,1.1c-0.6,0.2-1.1,0.5-1.6,0.8
							c-0.6,0.3-1.1,0.7-1.7,1c-0.4,0.3-0.9,0.6-1.3,0.9c-0.6,0.4-1.2,0.6-1.9,0.7c-0.8,0.1-1.4-0.3-1.8-1.1c-0.3-0.6-0.3-1.3-0.1-2
							C82.4,112.7,82.6,112.3,82.7,112z M92.1,105.9C92.1,105.9,92.1,106,92.1,105.9C92.1,106,92.1,106,92.1,105.9
							c-0.6,0.1-1.1,0.1-1.7,0.2c-1.2,0.3-2.3,0.8-3.3,1.5c-1.4,1-2.6,2.4-3.5,3.9c-0.1,0.2-0.2,0.4-0.3,0.6c0,0.1,0,0.2,0,0.2
							c0,0,0.1,0,0.2,0c0,0,0.1,0,0.1-0.1c0.4-0.3,0.8-0.5,1.2-0.9c1-1.1,2-2.1,3.2-3.1c0.8-0.7,1.6-1.4,2.6-1.9
							C91.2,106.3,91.6,106.1,92.1,105.9z"/>
					</g>
					<g>
						<path fill-rule="evenodd" clip-rule="evenodd" fill="#00938F" d="M98.7,103.7c0.3,0.2,0.5,0.4,0.8,0.6c0.3,0.3,0.6,0.4,1,0.3
							c0.4-0.1,0.8-0.2,1.1-0.2c0.7-0.1,1.4-0.3,2.1-0.3c0.8,0,1.6,0.2,2.2,0.6c0.4,0.3,0.6,0.6,0.7,1.1c0,0.2-0.2,0.4-0.4,0.3
							c-0.1-0.1-0.2-0.1-0.3-0.2c-0.1-0.1-0.1-0.2-0.2-0.3c-0.1-0.3-0.3-0.4-0.6-0.5c-0.5-0.1-1-0.1-1.5,0c-0.9,0.1-1.7,0.4-2.6,0.8
							c-0.2,0.1-0.5,0.2-0.7,0.3c-0.1,0-0.1,0.1-0.1,0.2c-0.1,0.3-0.2,0.6-0.2,1C99.9,105.9,99.6,104.7,98.7,103.7
							C98.7,103.7,98.7,103.7,98.7,103.7z"/>
					</g>
				</g>
				<g>
					<g>
						<path fill-rule="evenodd" clip-rule="evenodd" fill="#EC1846" d="M110.5,59.3c-0.6,0-1.3,0-1.9,0c-0.3,0-0.4-0.1-0.4-0.4
							c-0.2-5.6-2.2-10.5-6-14.7c-0.5-0.5-0.5-0.4,0-0.9c0.8-0.8,1.7-1.7,2.5-2.5c0.5-0.5,0.9-0.5,1.4,0c3.6,3.7,5.9,8.1,6.8,13.2
							c0.3,1.4,0.4,2.9,0.4,4.3c0,0.6-0.3,0.9-0.9,0.9C111.7,59.3,111.1,59.3,110.5,59.3z"/>
					</g>
					<g>
						<path fill-rule="evenodd" clip-rule="evenodd" fill="#EC1846" d="M90.1,57.7c0.2,0,0.4,0,0.6,0c0.6,0,0.9,0.3,0.9,0.9
							c0,0.8,0,1.7,0,2.5c0,0.4,0.1,0.8,0.5,1c0.6,0.4,1.4,0.1,1.6-0.6c0-0.2,0.1-0.3,0.1-0.5c0.1-0.6,0.4-1,0.9-1.2
							c0.5-0.2,1,0,1.4,0.4c0.1,0.1,0.2,0.3,0.3,0.4c0.2,0.3,0.4,0.2,0.6,0c0.1-0.2,0.2-0.4,0.3-0.6c0.2-0.4,0.5-0.8,1-0.9
							c0.6-0.1,1.2,0.1,1.4,0.7c0.1,0.4,0.2,0.8,0.3,1.2c0,1,0,2,0,3.1c0,0.1,0,0.2,0,0.4c0,0.2,0.2,0.4,0.4,0.4
							c0.2,0,0.4-0.1,0.4-0.4c0-0.1,0-0.3,0-0.4c0-1.9,0-3.7,0-5.6c0-0.7,0.3-1,1-1c1.6,0,3.2,0,4.7,0c0.3,0,0.4,0.1,0.4,0.4
							c0,0.3,0,0.6,0,0.8c0,0.3-0.1,0.3-0.3,0.3c-1.2,0-2.4,0-3.7,0c-0.7,0-0.6-0.1-0.6,0.6c0,1.5,0,3,0,4.5c0,0.7-0.1,1.3-0.7,1.7
							c-0.7,0.5-1.4,0.6-2.2,0.3c-0.8-0.4-1.1-1.1-1.2-1.9c0-0.8,0-1.7,0-2.5c0-0.1,0-0.2,0-0.4c-1.4,1.3-1.7,1.3-3.2,0.4
							c0,0.1-0.1,0.2-0.1,0.3c-0.5,1.2-1.7,1.9-3,1.6c-1.2-0.2-2-1.3-2.1-2.5c0-0.6,0-1.1,0-1.7c0-0.3-0.1-0.4-0.4-0.4
							c-0.5,0-1,0-1.5,0c-0.4,0-0.7-0.1-0.8-0.5c-0.1-0.3,0-0.6,0.2-0.9c1.9-1.9,3.9-3.9,5.8-5.8c2.4-2.4,4.8-4.8,7.1-7.2
							c0.2-0.2,0.4-0.3,0.6,0c0.2,0.2,0.3,0.4,0.5,0.6c0.2,0.2,0.1,0.3,0,0.5c-1.1,1.1-2.1,2.1-3.2,3.2c-0.2,0.2-0.3,0.3-0.1,0.6
							c0.4,0.7,0.3,1.6-0.3,2.2c-0.6,0.6-1.5,0.7-2.2,0.3c-0.3-0.1-0.4-0.1-0.6,0.1c-1.6,1.6-3.3,3.3-4.9,4.9
							C90.2,57.4,90.1,57.5,90.1,57.7C90.1,57.7,90.1,57.7,90.1,57.7z"/>
					</g>
					<g>
						<path fill-rule="evenodd" clip-rule="evenodd" fill="#A13793" d="M104.5,54.6c0,1.1-0.8,1.9-1.9,1.9c-1,0-1.9-0.8-1.9-1.9
							c0-1,0.9-1.9,1.9-1.9C103.7,52.7,104.5,53.5,104.5,54.6z"/>
					</g>
					<g>
						<path fill-rule="evenodd" clip-rule="evenodd" fill="#F89C25" d="M95.1,54.5c1.3,0,2.2,0.7,2.4,1.7c0.2,0.9-0.4,1.5-1.3,1.4
							c-0.1,0-0.3,0.1-0.3,0.2c-0.4,0.7-0.4,0.7-1.1,0.4c-0.2-0.1-0.4-0.2-0.6-0.3c-0.2-0.1-0.3-0.2-0.2-0.5c0,0,0-0.1,0.1-0.2
							c0.2-0.3,0.2-0.6-0.1-0.8c-0.3-0.2-0.4-0.6-0.2-1C94.1,54.7,94.7,54.5,95.1,54.5z"/>
					</g>
					<g>
						<path fill-rule="evenodd" clip-rule="evenodd" fill="#EC1846" d="M101.9,50.6c-0.5,0-0.9-0.4-0.9-0.9c0-0.5,0.4-0.9,0.9-0.9
							c0.5,0,0.9,0.4,0.9,0.9C102.9,50.2,102.4,50.6,101.9,50.6z"/>
					</g>
				</g>
				<g>
					<g>
						<path fill-rule="evenodd" clip-rule="evenodd" fill="#F89C25" d="M23.3,63.5c-0.4-0.2-0.4-0.4-0.2-0.8c0.6-1,1.1-2,1.7-2.9
							c0.7-1.2,1.3-2.4,2-3.5c0.1-0.1,0.2-0.3,0.4-0.3c1.5-0.4,3-0.7,4.6-1c0.2-0.1,0.4,0,0.6,0.2c1.8,2.2,3.6,4.5,5.4,6.7
							c0.2,0.2,0.2,0.4,0.1,0.6c-0.4,0.8-0.9,1.5-1.3,2.3c-0.2,0.3-0.3,0.4-0.7,0.2c-0.5-0.2-0.9,0-1.2,0.5
							c-0.2,0.4-0.1,0.9,0.2,1.2c0.2,0.2,0.3,0.4,0.1,0.6c-0.3,0.5-0.6,1.1-0.9,1.6c-0.2,0.3-0.4,0.3-0.7,0.2c-1.7-1-3.4-1.9-5-2.9
							C26.7,65.4,25,64.4,23.3,63.5z M32.7,60.1c0,0.4-0.1,0.7-0.4,1c-0.2,0.2-0.4,0.3-0.7,0.3c-0.5,0-1-0.3-1.2-0.8
							c-0.2-0.6,0-1,0.6-1.5c-1.2-0.7-2.3-1.3-3.5-2c-1.1,1.9-2.2,3.9-3.4,5.8c0.6,0.3,1.2,0.7,1.8,1c0-0.7,0.3-1.2,1.1-1.2
							c0.5,0,0.9,0.3,1,0.7c0.2,0.5,0,0.9-0.6,1.3c2,1.2,4.1,2.3,6.1,3.5c0.2-0.3,0.4-0.6,0.5-0.9c0,0,0-0.1-0.1-0.2
							c-0.8-1.2-0.1-2.8,1.3-3c0.1,0,0.2,0,0.4,0c0.2,0,0.3,0,0.3-0.2c0.3-0.5,0.6-1,0.9-1.5C35.5,61.6,34.1,60.8,32.7,60.1z
							 M29.6,57.2c0-0.4,0.2-0.5,0.5-0.4c0.4,0.1,0.7,0.2,0.9,0.5c0.2,0.3,0.2,0.4-0.1,0.6c1.5,0.9,3,1.7,4.6,2.6c0,0,0,0,0,0
							c-0.1-0.1-0.1-0.2-0.2-0.3c-0.4-0.5-0.7-0.9-1.1-1.4c-0.1-0.1-0.2-0.1-0.2-0.1c-0.6-0.1-1.1-0.4-1.5-0.9c0,0,0,0,0-0.1
							c-0.2-0.4-0.1-0.6,0.3-0.8c0,0,0-0.1-0.1-0.1c-0.3-0.3-0.5-0.7-0.8-1c0-0.1-0.1-0.1-0.2-0.1c-1,0.2-2,0.4-3,0.7
							c0,0-0.1,0-0.1,0C28.9,56.8,29.3,57,29.6,57.2z"/>
					</g>
					<g>
						<path fill-rule="evenodd" clip-rule="evenodd" fill="#F89C25" d="M30.2,65.6c0.7,0.4,1.5,0.2,1.9-0.5c0.4-0.7,0.2-1.5-0.5-1.9
							c-0.7-0.4-1.5-0.2-1.9,0.5C29.2,64.3,29.5,65.1,30.2,65.6z"/>
					</g>
					<g>
						<path fill-rule="evenodd" clip-rule="evenodd" fill="#F89C25" d="M27.2,60.9c0.5,0.3,1.1,0.1,1.3-0.4c0.3-0.5,0.1-1.1-0.4-1.3
							c-0.5-0.3-1.1-0.1-1.3,0.4C26.6,60,26.7,60.6,27.2,60.9z"/>
					</g>
					<g>
						<path fill-rule="evenodd" clip-rule="evenodd" fill="#F89C25" d="M34.3,62c-0.4-0.2-0.9-0.1-1.1,0.3c-0.2,0.4-0.1,0.9,0.3,1.2
							c0.4,0.2,0.9,0.1,1.1-0.3C34.9,62.7,34.7,62.2,34.3,62z"/>
					</g>
				</g>
				<g>
					<g>
						<path fill-rule="evenodd" clip-rule="evenodd" fill="#00938F" d="M112.5,85.7c-0.2-0.6-0.1-1,0.4-1.3c1-0.6,2.1-1.3,3.1-1.9
							c0,0,0.1,0,0.1-0.1c0.1-0.1,0.2-0.1,0.3,0.1c0.1,0.1,0,0.3-0.1,0.3c-0.3,0.2-0.6,0.4-0.9,0.6c-0.3,0.2-0.6,0.4-0.9,0.6
							c-0.1,0.1-0.2,0.2-0.1,0.3c0.1,0.2,0.2,0.1,0.4,0c0.6-0.3,1.1-0.7,1.7-1c0.1,0,0.1-0.1,0.2-0.1c0.1-0.1,0.2,0,0.3,0.1
							c0.1,0.1,0.1,0.2-0.1,0.3c-0.3,0.2-0.6,0.4-1,0.6c-0.3,0.2-0.6,0.4-0.9,0.6c-0.1,0-0.1,0.1-0.1,0.1c0,0.1,0,0.2,0,0.3
							c0.1,0,0.2,0.1,0.3,0c0.6-0.3,1.2-0.7,1.7-1c0.1,0,0.1-0.1,0.2-0.1c0.1-0.1,0.3-0.1,0.3,0.1c0.1,0.1,0,0.3-0.1,0.3
							c-0.3,0.2-0.6,0.3-0.8,0.5c-0.3,0.2-0.6,0.4-1,0.6c-0.1,0.1-0.3,0.2-0.2,0.4c0.1,0.2,0.3,0.1,0.4,0c0.6-0.3,1.1-0.7,1.7-1
							c0.1,0,0.1-0.1,0.2-0.1c0.1-0.1,0.2,0,0.3,0.1c0.1,0.1,0.1,0.2-0.1,0.3c-0.2,0.1-0.5,0.3-0.7,0.4c-0.8,0.5-1.7,1-2.5,1.5
							c-0.4,0.3-0.9,0.3-1.4-0.2c-0.5,0.3-1,0.6-1.5,0.9c-1.7,1-3.4,2.1-5.1,3.1c-0.1,0.1-0.2,0.1-0.3,0.2c-0.3,0.1-0.7,0-0.8-0.3
							c-0.2-0.3-0.1-0.7,0.2-0.9c1-0.6,1.9-1.2,2.9-1.8C109.8,87.3,111.1,86.5,112.5,85.7C112.4,85.7,112.5,85.7,112.5,85.7z
							 M113.8,84.4C113.8,84.4,113.8,84.4,113.8,84.4c-0.2,0.1-0.5,0.3-0.7,0.4c-0.3,0.2-0.4,0.4-0.2,0.7c0.1,0.3,0.1,0.4-0.2,0.6
							c-0.5,0.3-0.9,0.6-1.4,0.8c-1.8,1.1-3.6,2.2-5.4,3.3c-0.1,0.1-0.2,0.2-0.1,0.3c0.1,0.2,0.2,0.1,0.4,0c0.4-0.2,0.7-0.4,1.1-0.7
							c1.9-1.1,3.7-2.3,5.6-3.4c0.3-0.2,0.5-0.2,0.7,0.1c0.2,0.2,0.4,0.3,0.6,0.2c0.3-0.1,0.5-0.3,0.8-0.5c-0.1-0.2-0.2-0.4-0.3-0.7
							c-0.2-0.1-0.4-0.3-0.4-0.7c0,0,0-0.1,0-0.1C114.1,84.7,114,84.6,113.8,84.4z"/>
					</g>
					<g>
						<path fill-rule="evenodd" clip-rule="evenodd" fill="#00938F" d="M113.8,84.4c0.2,0.2,0.3,0.3,0.5,0.4c0,0,0,0.1,0,0.1
							c0,0.3,0.2,0.5,0.4,0.7c0.1,0.3,0.2,0.5,0.3,0.7c-0.2,0.2-0.5,0.3-0.8,0.5c-0.2,0.1-0.4,0-0.6-0.2c-0.2-0.3-0.4-0.3-0.7-0.1
							c-1.9,1.1-3.7,2.3-5.6,3.4c-0.4,0.2-0.7,0.4-1.1,0.7c-0.1,0.1-0.3,0.1-0.4,0c-0.1-0.2,0-0.3,0.1-0.3c1.8-1.1,3.6-2.2,5.4-3.3
							c0.5-0.3,0.9-0.6,1.4-0.8c0.3-0.2,0.3-0.3,0.2-0.6c-0.1-0.3-0.1-0.5,0.2-0.7C113.3,84.7,113.6,84.5,113.8,84.4
							C113.8,84.4,113.8,84.4,113.8,84.4z"/>
					</g>
				</g>
				<g>
					<g>
						<path fill-rule="evenodd" clip-rule="evenodd" fill="#F89C25" d="M95.1,46.4c0.3,0.5,0.2,1-0.2,1.4c-0.9,0.8-1.9,1.5-2.8,2.3
							c0,0-0.1,0-0.1,0.1c-0.1,0.1-0.2,0.1-0.3,0c-0.1-0.1-0.1-0.3,0-0.4c0.3-0.2,0.6-0.5,0.8-0.7c0.3-0.2,0.6-0.5,0.8-0.7
							c0.1-0.1,0.2-0.2,0.1-0.4c-0.1-0.1-0.3-0.1-0.4,0c-0.5,0.4-1,0.9-1.5,1.3c-0.1,0-0.1,0.1-0.2,0.1c-0.1,0.1-0.2,0.1-0.3,0
							c-0.1-0.1-0.1-0.2,0-0.3c0.3-0.2,0.6-0.5,0.9-0.7c0.3-0.2,0.6-0.5,0.8-0.7c0.1,0,0.1-0.1,0.1-0.2c0-0.1,0-0.2-0.1-0.2
							c-0.1,0-0.2,0-0.3,0c-0.5,0.4-1,0.9-1.6,1.3c0,0-0.1,0.1-0.1,0.1c-0.1,0.1-0.2,0.1-0.4,0c-0.1-0.1-0.1-0.3,0.1-0.4
							c0.2-0.2,0.5-0.4,0.8-0.6c0.3-0.2,0.6-0.5,0.9-0.7c0.1-0.1,0.3-0.2,0.1-0.4c-0.1-0.2-0.3-0.1-0.4,0c-0.5,0.4-1,0.8-1.5,1.3
							c0,0-0.1,0.1-0.1,0.1c-0.1,0.1-0.2,0.1-0.3,0c-0.1-0.1-0.1-0.2,0-0.3c0.2-0.2,0.4-0.4,0.6-0.5c0.7-0.6,1.5-1.2,2.2-1.9
							c0.4-0.3,0.9-0.5,1.4,0c0.4-0.4,0.9-0.7,1.3-1.1c1.5-1.3,3.1-2.5,4.6-3.8c0.1-0.1,0.2-0.2,0.3-0.2c0.3-0.2,0.7-0.1,0.9,0.2
							c0.2,0.3,0.2,0.7-0.1,0.9c-0.9,0.7-1.7,1.4-2.6,2.2C97.5,44.4,96.4,45.3,95.1,46.4C95.2,46.3,95.2,46.3,95.1,46.4z M94,47.8
							C94,47.8,94.1,47.8,94,47.8c0.2-0.2,0.4-0.3,0.6-0.5c0.3-0.2,0.3-0.4,0.1-0.7c-0.2-0.3-0.1-0.4,0.1-0.6c0.4-0.4,0.8-0.7,1.2-1
							c1.6-1.3,3.2-2.7,4.8-4c0.1-0.1,0.2-0.2,0.1-0.4c-0.1-0.2-0.3-0.1-0.4,0c-0.3,0.3-0.6,0.5-1,0.8c-1.7,1.4-3.4,2.8-5,4.2
							c-0.3,0.2-0.5,0.2-0.7,0c-0.2-0.2-0.4-0.2-0.6-0.1c-0.3,0.2-0.5,0.4-0.7,0.6c0.1,0.2,0.2,0.4,0.4,0.7c0.2,0.1,0.4,0.3,0.5,0.6
							c0,0,0,0.1,0.1,0.1C93.7,47.6,93.9,47.7,94,47.8z"/>
					</g>
					<g>
						<path fill-rule="evenodd" clip-rule="evenodd" fill="#F89C25" d="M94,47.8c-0.2-0.1-0.4-0.3-0.5-0.4c0,0-0.1-0.1-0.1-0.1
							c-0.1-0.3-0.3-0.5-0.5-0.6c-0.1-0.2-0.2-0.4-0.4-0.7c0.2-0.2,0.5-0.4,0.7-0.6c0.2-0.1,0.4-0.1,0.6,0.1c0.3,0.3,0.4,0.3,0.7,0
							c1.7-1.4,3.4-2.8,5-4.2c0.3-0.3,0.6-0.5,1-0.8c0.1-0.1,0.3-0.2,0.4,0c0.1,0.1,0,0.3-0.1,0.4c-1.6,1.3-3.2,2.7-4.8,4
							c-0.4,0.3-0.8,0.7-1.2,1c-0.2,0.2-0.2,0.4-0.1,0.6c0.2,0.3,0.2,0.5-0.1,0.7C94.4,47.5,94.3,47.7,94,47.8
							C94.1,47.8,94,47.8,94,47.8z"/>
					</g>
				</g>
				<g>
					<path fill-rule="evenodd" clip-rule="evenodd" fill="#BDB432" d="M118.8,72.3c-0.4-2.5-0.8-5-1.3-7.5c-0.3-2-0.7-4.1-1-6.1
						c-0.1-0.5-0.4-0.6-0.8-0.5c-1.1,0.3-1.7,1.3-1.5,2.4c0.2,1.1,0.4,2.2,0.6,3.3c0.1,0.4,0.2,0.9,0.2,1.3c0.1,0.8,0.4,1.1,1.2,1.1
						c0,0,0,0.1,0,0.1c0.2,1,0.3,2,0.5,3c0.2,1.1,0.4,2.1,0.6,3.2c0.1,0.5,0.5,0.7,1,0.6C118.7,73.1,118.9,72.8,118.8,72.3z"/>
				</g>
				<g>
					<g>
						<path fill="#A13793" d="M86.2,54.2c-0.3,0-0.6-0.1-0.8-0.3c-0.2-0.1-0.2-0.4-0.1-0.6c0.1-0.2,0.4-0.2,0.6-0.1
							c0.2,0.1,0.4,0.1,0.5-0.1c0.1-0.2,0.1-0.4-0.1-0.5c-0.2-0.1-0.2-0.4-0.1-0.6c0.1-0.2,0.4-0.2,0.6-0.1c0.5,0.4,0.6,1.2,0.2,1.7
							C86.9,54,86.5,54.2,86.2,54.2z"/>
					</g>
					<g>
						<path fill="#A13793" d="M82.6,53.7c-0.3,0-0.6-0.1-0.8-0.3c-0.2-0.1-0.2-0.4-0.1-0.6c0.1-0.2,0.4-0.2,0.6-0.1
							c0.2,0.1,0.4,0.1,0.5-0.1c0.1-0.1,0.1-0.2,0.1-0.3c0-0.1-0.1-0.2-0.1-0.3c-0.2-0.1-0.2-0.4-0.1-0.6c0.1-0.2,0.4-0.2,0.6-0.1
							c0.3,0.2,0.4,0.5,0.4,0.8c0,0.3-0.1,0.7-0.3,0.9C83.3,53.6,82.9,53.7,82.6,53.7z"/>
					</g>
					<g>
						<path fill="#A13793" d="M85.1,50.7c-0.3,0-0.6-0.1-0.8-0.3c-0.2-0.2-0.2-0.4-0.1-0.6c0.2-0.2,0.4-0.2,0.6-0.1
							c0.1,0.1,0.2,0.1,0.3,0.1c0.1,0,0.2-0.1,0.3-0.1c0.1-0.1,0.1-0.2,0.1-0.3c0-0.1-0.1-0.2-0.1-0.3c-0.2-0.2-0.2-0.4-0.1-0.6
							c0.1-0.2,0.4-0.2,0.6-0.1c0.3,0.2,0.4,0.5,0.4,0.8c0,0.3-0.1,0.6-0.3,0.9c-0.2,0.3-0.5,0.4-0.8,0.4
							C85.2,50.7,85.1,50.7,85.1,50.7z"/>
					</g>
					<g>
						<g>
							<path fill="#A13793" d="M84.7,47.2c0.1,0,0.2,0.1,0.4,0.3c0.2,0.2,0.4,0.3,0.6,0.3c0.1,0,0.2,0,0.3-0.1c0.1,0,0.1,0,0.2,0
								c0.2,0,0.4,0.2,0.4,0.4c0,0.4,0.3,0.7,0.7,0.8c0.2,0,0.7,0.4,0.6,0.9c-0.1,0.3,0.1,0.7,0.4,0.9c0.4,0.3,0.4,0.7,0.3,0.7
								c-0.2,0.3-0.2,0.7,0,1c0,0,0.1,0.2,0.1,0.4c0,0.2-0.1,0.3-0.3,0.4c-0.3,0.2-0.4,0.5-0.4,0.9c0.1,0.4,0,0.4,0,0.5
								c-0.1,0.1-0.1,0.1-0.5,0.1c-0.3,0-0.6,0.2-0.8,0.5c-0.1,0.3-0.3,0.4-0.5,0.4c-0.1,0-0.2,0-0.2,0c-0.1-0.1-0.3-0.1-0.4-0.1
								c-0.2,0-0.4,0.1-0.6,0.3c0,0-0.2,0.1-0.3,0.1c-0.2,0-0.3-0.1-0.5-0.3c-0.2-0.2-0.4-0.3-0.6-0.3c-0.1,0-0.2,0-0.3,0
								c-0.1,0-0.2,0-0.2,0c-0.4,0-0.7-0.3-0.8-0.5c-0.1-0.3-0.4-0.5-0.8-0.5c0,0-0.1,0-0.1,0c0,0,0,0-0.1,0c-0.1,0-0.3-0.1-0.4-0.2
								c0,0-0.1-0.1-0.1-0.4c0.1-0.3-0.1-0.7-0.4-0.9c-0.2-0.1-0.3-0.3-0.3-0.3c0-0.1,0.1-0.2,0.2-0.4c0.3-0.3,0.3-0.7,0.2-1
								c-0.1-0.1-0.1-0.2,0-0.3c0.1-0.1,0.2-0.2,0.2-0.2c0,0,0.1,0,0.1,0c0.2,0,0.4-0.1,0.6-0.2c0.2-0.2,0.3-0.4,0.3-0.7
								c0-0.1,0.1-0.3,0.1-0.3c0.1-0.1,0.2-0.2,0.3-0.2c0.2,0,0.5-0.2,0.6-0.4c0.1-0.2,0.2-0.5,0.1-0.7c0,0,0-0.1,0.1-0.2
								c0.1-0.1,0.1-0.1,0.2-0.1c0,0,0.1,0,0.1,0c0.1,0,0.2,0,0.3,0c0.3,0,0.6-0.1,0.7-0.4C84.5,47.3,84.6,47.2,84.7,47.2
								 M84.7,46.3c-0.4,0-0.8,0.2-1,0.7c-0.1,0-0.3-0.1-0.4-0.1c-0.8,0-1.3,0.9-1.1,1.5c-0.3,0-0.7,0.3-0.8,0.5
								C81.2,49,81,49.4,81,49.7c0,0-0.1,0-0.1,0c-0.7,0-1.5,0.8-1,1.7c-0.7,0.7-0.6,1.5,0.3,2C80,54.4,80.7,55,81.5,55
								c0.1,0,0.1,0,0.2,0c0.2,0.5,0.8,1,1.6,1c0.2,0,0.3,0,0.5-0.1c0.4,0.4,0.8,0.6,1.1,0.6c0.4,0,0.8-0.2,0.9-0.3
								c0.2,0.1,0.4,0.1,0.6,0.1c0.5,0,1-0.2,1.3-0.9c0.5,0,0.8-0.1,1.1-0.4c0.3-0.3,0.3-0.6,0.2-1.2c0.9-0.6,0.8-1.6,0.4-2
								c0.2-0.3,0.4-1.4-0.6-2c0.2-1-0.7-1.8-1.3-1.9c0-0.6-0.5-1.2-1.2-1.2c-0.2,0-0.3,0-0.5,0.1C85.4,46.5,85,46.3,84.7,46.3
								L84.7,46.3z"/>
						</g>
					</g>
					<g>
						<path fill="#00938F" d="M80.2,48.4c-0.1,0-0.1,0-0.2,0c-0.3-0.1-0.6-0.3-0.9-0.5c-0.5-0.5-0.9-1-1.1-1.7
							c-0.1-0.2,0.1-0.5,0.3-0.5c0.2-0.1,0.5,0.1,0.5,0.3c0.1,0.5,0.4,1,0.8,1.3c0.2,0.2,0.4,0.3,0.7,0.4c0.2,0.1,0.3,0.3,0.2,0.6
							C80.5,48.3,80.4,48.4,80.2,48.4z"/>
					</g>
					<g>
						<path fill="#00938F" d="M78,51.1c-0.2,0-0.4-0.3-0.4-0.6c0-0.2,0.2-0.5,0.4-0.5c0.3,0,0.5-0.1,0.8-0.2
							c0.3-0.1,0.6-0.2,0.8-0.4c0.2-0.1,0.5-0.1,0.6,0.1c0.1,0.2,0.1,0.5-0.1,0.6c-0.3,0.2-0.7,0.5-1,0.6
							C78.7,50.9,78.4,51.1,78,51.1C78,51.1,78,51.1,78,51.1z"/>
					</g>
					<g>
						<path fill="#00938F" d="M79.7,49.1C79.7,49.1,79.7,49.1,79.7,49.1c-0.4,0-0.8,0.1-1.1-0.1c-0.1,0-0.2,0-0.3-0.1
							c-0.2-0.1-0.3-0.3-0.2-0.5c0.1-0.2,0.4-0.3,0.6-0.2c0.1,0,0.2,0.1,0.3,0.1c0.3,0.1,0.6,0.2,0.9,0.2c0.2,0,0.4,0,0.4,0.3
							C80.1,49.1,79.9,49.1,79.7,49.1z"/>
					</g>
					<g>
						<path fill="#00938F" d="M82,47.6c-0.1,0-0.1,0-0.2,0c-0.2-0.1-0.3-0.3-0.2-0.6c0.1-0.3,0.2-0.6,0.2-0.8c0-0.3,0-0.5,0-0.8
							c0-0.2,0.1-0.4,0.4-0.5s0.4,0.1,0.5,0.4c0.1,0.3,0.1,0.7,0,1c0,0.4-0.1,0.8-0.3,1.1C82.3,47.5,82.1,47.6,82,47.6z"/>
					</g>
					<g>
						<path fill="#00938F" d="M81.2,47.7c-0.2,0-0.4-0.1-0.4-0.3c-0.1-0.3-0.2-0.6-0.3-0.8c0-0.1-0.1-0.2-0.2-0.2
							c-0.1-0.2-0.1-0.5,0.1-0.6c0.2-0.1,0.5-0.1,0.6,0.1c0.1,0.1,0.1,0.2,0.2,0.3c0.2,0.3,0.3,0.7,0.4,1.1
							C81.7,47.4,81.5,47.6,81.2,47.7C81.3,47.7,81.2,47.7,81.2,47.7z"/>
					</g>
				</g>
				<g>
					<g>
						<path fill="#EC1846" d="M68,61.8c-0.6,0.2-0.1,0.6-1.5,1.1c-1.4,0.5-1.2-0.2-1.8,0c-2.7,0.9-0.5,6,2.4,5
							c0.5-0.2,0.5-0.4,0.9-0.5c0.4-0.1,0.6,0,1.1-0.1C72,66.3,70.7,60.9,68,61.8z"/>
					</g>
					<g>
						<path fill="#00938F" d="M66.3,62.9c-0.4,0-0.7-0.2-0.9-0.7c0-0.1-0.1-0.2-0.1-0.2c0,0,0,0-0.1,0c-0.2,0.1-0.5,0-0.5-0.3
							c-0.1-0.2,0-0.5,0.3-0.5c0.3-0.1,1-0.2,1.3,0.7c0,0,0,0.2,0.1,0.1c0,0,0-0.2,0-0.2c-0.3-0.9,0.3-1.2,0.6-1.3
							c0.2-0.1,0.5,0,0.5,0.3c0.1,0.2,0,0.5-0.3,0.5c-0.1,0-0.1,0-0.1,0.1c0,0,0,0.1,0,0.2c0.1,0.4,0,0.7-0.1,0.8
							c-0.1,0.2-0.3,0.3-0.5,0.4C66.5,62.9,66.4,62.9,66.3,62.9z"/>
					</g>
					<g>
						<path fill="#00938F" d="M66.1,62.5c-0.2,0-0.3-0.1-0.4-0.3l-0.4-1.1c-0.1-0.2,0-0.5,0.3-0.5c0.2-0.1,0.5,0,0.5,0.3l0.4,1.1
							c0.1,0.2,0,0.5-0.3,0.5C66.2,62.5,66.1,62.5,66.1,62.5z"/>
					</g>
				</g>
				<g>
					<g>
						<g>
							<path fill="#00938F" d="M41.6,106.3c1.3,0.5,2,1.9,2,1.9s-1.4,0.4-2.7-0.1c-1.3-0.5-2-1.9-2-1.9S40.3,105.8,41.6,106.3z"/>
						</g>
						<g>
							<path fill="#00938F" d="M43.1,105c0.8,0.7,0.9,1.8,0.9,1.8s-1.1-0.1-1.9-0.8c-0.8-0.7-0.9-1.8-0.9-1.8S42.3,104.2,43.1,105z"
								/>
						</g>
						<g>
							<path fill="#00938F" d="M41,110c1.1,0,1.9-0.7,1.9-0.7s-0.8-0.7-1.9-0.8c-1.1,0-1.9,0.7-1.9,0.7S39.9,110,41,110z"/>
						</g>
					</g>
					<g>
						<path fill="#F1672A" d="M49.8,110c-0.4-0.2-0.5-0.6-0.4-0.9l0.5-1.1c-1.8-1.2-3.2-2.1-3.2-2.1c-0.7-0.3-1.5,0-1.7,0.6
							l-1.6,3.9c-0.3,0.6,0.1,1.3,0.8,1.6c0,0,0.2,0.1,0.7,0.1l0.6-1.4c0.2-0.4,0.6-0.5,0.9-0.4c0.4,0.2,0.5,0.6,0.4,0.9l-0.5,1.1
							c1.5,0.3,3.6,0.7,5.6,1l0.4-1c0.2-0.4,0.6-0.5,0.9-0.4c0.4,0.2,0.5,0.6,0.4,0.9l-0.3,0.6c2,0.3,3.5,0.3,3.7,0
							c0.3-0.6-2.9-2.9-5.8-4.9l-0.4,0.8C50.6,110,50.2,110.1,49.8,110z"/>
					</g>
				</g>
				<g>
					<path fill="#A13793" d="M43,52.1c-1.2,0-2.2-1-2.2-2.3c0-1.2,1-2.3,2.2-2.3c1.2,0,2.2,1,2.2,2.3C45.2,51.1,44.2,52.1,43,52.1z
						 M43,48.7c-0.6,0-1,0.5-1,1.1c0,0.6,0.5,1.1,1,1.1c0.6,0,1-0.5,1-1.1C44,49.2,43.6,48.7,43,48.7z"/>
				</g>
				<g>
					<circle fill="#00938F" cx="28.7" cy="51.8" r="2"/>
				</g>
				<g>
					<g>
						<path fill-rule="evenodd" clip-rule="evenodd" fill="#A13793" d="M63,52.5c0-3.7,3.1-6.7,6.8-6.6c3.7,0.1,6.6,3.1,6.5,6.7
							c-0.1,4-3.3,6.8-6.9,6.6C65.8,59,63,56,63,52.5z M72.4,58.1c-0.2-0.6-0.1-1.2,0.3-1.7c0.2-0.3,0.5-0.5,0.8-0.7
							c0.5-0.4,1-0.8,1.4-1.2c0.4-0.4,0.7-0.8,0.8-1.4c0.1-0.5,0.1-1.1,0-1.6c0-0.2-0.1-0.3-0.3-0.4c-1.9-0.4-3.1-2.1-2.9-4
							c0-0.1,0-0.1-0.1-0.2c-0.6-0.3-1.1-0.5-1.8-0.6c-0.7-0.1-1.4-0.1-2.1,0c-1.1,0.2-2.1,0.7-3,1.4c0,0-0.1,0.1-0.1,0.1
							c0,0.3,0,0.5-0.1,0.8c-0.1,0.9-0.3,1.8-0.7,2.6c-0.5,0.9-0.8,1.9-0.9,2.9c0,0.2-0.1,0.4,0,0.6c0.5,1.4,1.5,2.4,2.8,3.1
							c1.3,0.7,2.7,0.9,4.1,0.7C71.4,58.5,71.9,58.4,72.4,58.1z M73,47.3c0,1,0.2,1.8,0.9,2.5c0.5,0.5,1.1,0.8,1.8,1
							C75.2,49.3,74.1,47.9,73,47.3z M65.1,48.4c-1.3,1.4-1.9,3.3-1.6,5.2c0,0,0,0,0-0.1c0.1-0.7,0.4-1.4,0.7-2.1
							c0.4-0.7,0.7-1.4,0.8-2.2C65,48.9,65.1,48.6,65.1,48.4z M72.8,57.9c1.1-0.5,2.7-2.6,2.7-3.4c-0.2,0.2-0.4,0.4-0.7,0.6
							c-0.4,0.3-0.8,0.7-1.2,1c-0.3,0.2-0.6,0.5-0.8,0.8C72.7,57.3,72.7,57.6,72.8,57.9z"/>
					</g>
					<g>
						<path fill-rule="evenodd" clip-rule="evenodd" fill="#F89C25" d="M72.4,58.1c-0.5,0.3-1.1,0.5-1.7,0.6c-1.5,0.2-2.8,0-4.1-0.7
							c-1.3-0.7-2.2-1.8-2.8-3.1c-0.1-0.2,0-0.4,0-0.6c0.1-1,0.4-2,0.9-2.9c0.4-0.8,0.7-1.7,0.7-2.6c0-0.3,0-0.5,0.1-0.8
							c0-0.1,0-0.1,0.1-0.1c0.9-0.8,1.9-1.2,3-1.4c0.7-0.1,1.4-0.1,2.1,0c0.6,0.1,1.2,0.3,1.8,0.6c0.1,0,0.1,0.1,0.1,0.2
							c-0.2,1.9,1,3.6,2.9,4c0.2,0.1,0.3,0.1,0.3,0.4c0.1,0.5,0.1,1.1,0,1.6c-0.1,0.5-0.4,1-0.8,1.4c-0.5,0.4-1,0.8-1.4,1.2
							c-0.3,0.2-0.5,0.5-0.8,0.7C72.3,56.9,72.2,57.4,72.4,58.1z M67.6,52.5c0,1.1,0.9,2,2,2.1c1.3,0.1,2.2-1,2.2-2
							c0-1.2-0.9-2.1-2-2.1C68.5,50.4,67.6,51.3,67.6,52.5z M72.4,55.8C72.4,55.8,72.4,55.8,72.4,55.8c0.1,0,0.3,0,0.4,0
							c0.1,0,0.2-0.1,0.2-0.2c0-0.1-0.1-0.2-0.2-0.2c-0.3,0-0.6,0-0.8,0c-0.1,0-0.2,0.1-0.2,0.2c0,0.1,0.1,0.2,0.2,0.2
							C72.1,55.8,72.2,55.8,72.4,55.8z M67.8,57.1L67.8,57.1c0-0.1,0-0.3,0-0.4c0-0.1-0.1-0.2-0.2-0.2c-0.1,0-0.2,0.1-0.2,0.2
							c0,0.3,0,0.6,0,0.8c0,0.1,0.1,0.2,0.2,0.2c0.1,0,0.2-0.1,0.2-0.2C67.8,57.4,67.8,57.2,67.8,57.1z M66.3,52.9
							c0,0.1,0,0.3,0,0.4c0,0.1,0.1,0.2,0.2,0.2c0.1,0,0.2-0.1,0.2-0.2c0-0.3,0-0.6,0-0.9c0-0.1-0.1-0.2-0.2-0.2
							c-0.1,0-0.2,0.1-0.2,0.2C66.3,52.6,66.3,52.8,66.3,52.9z M71.5,50L71.5,50c0.1,0,0.3,0,0.4,0c0.1,0,0.2-0.1,0.2-0.2
							c0-0.1-0.1-0.2-0.2-0.2c-0.3,0-0.6,0-0.9,0c-0.1,0-0.2,0.1-0.2,0.2c0,0.1,0.1,0.2,0.2,0.2C71.3,50,71.4,50,71.5,50z M66.6,55
							c-0.1,0-0.3,0-0.4,0c-0.1,0-0.2,0.1-0.2,0.2c0,0.1,0.1,0.2,0.2,0.2c0.3,0,0.6,0,0.9,0c0.1,0,0.2-0.1,0.2-0.2
							c0-0.1-0.1-0.2-0.2-0.2C66.8,55,66.7,55,66.6,55z M73,53.5L73,53.5c0-0.1,0-0.3,0-0.4c0-0.1-0.1-0.2-0.2-0.2
							c-0.1,0-0.2,0.1-0.2,0.2c0,0.3,0,0.6,0,0.8c0,0.1,0.1,0.2,0.2,0.2c0.1,0,0.2-0.1,0.2-0.2C73,53.8,73,53.7,73,53.5z M67.6,48.1
							L67.6,48.1c0,0.1,0,0.3,0,0.4c0,0.1,0.1,0.2,0.2,0.2c0.1,0,0.2-0.1,0.2-0.2c0-0.3,0-0.6,0-0.9c0-0.1-0.1-0.2-0.2-0.2
							c-0.1,0-0.2,0.1-0.2,0.2C67.6,47.9,67.6,48,67.6,48.1z M67.2,50.6c0-0.1,0-0.1-0.1-0.1c-0.2-0.2-0.4-0.4-0.6-0.6
							c-0.1-0.1-0.2-0.1-0.3,0c-0.1,0.1-0.1,0.2,0,0.3c0.2,0.2,0.4,0.4,0.6,0.6c0,0,0.1,0,0.2,0C67.1,50.8,67.1,50.7,67.2,50.6z
							 M71.8,47.5c-0.1-0.1-0.1-0.2-0.1-0.2c-0.1,0-0.2,0-0.2,0c-0.2,0.2-0.4,0.4-0.6,0.6c-0.1,0.1-0.1,0.2,0,0.3
							c0.1,0.1,0.2,0.1,0.3,0c0.2-0.2,0.4-0.4,0.5-0.5C71.7,47.7,71.7,47.6,71.8,47.5z M69.5,49.4c0,0.1,0,0.1,0,0.2
							c0,0.1,0,0.1,0,0.2c0,0.2,0.1,0.2,0.2,0.2c0.1,0,0.2-0.1,0.2-0.2c0-0.3,0-0.5,0-0.8c0-0.1-0.1-0.2-0.2-0.2
							c-0.1,0-0.2,0.1-0.2,0.2C69.5,49.1,69.5,49.3,69.5,49.4z M74.5,53.8c0.1,0,0.1,0,0.2-0.1c0.2-0.2,0.4-0.4,0.6-0.6
							c0.1-0.1,0.1-0.2,0-0.3c-0.1-0.1-0.2-0.1-0.3,0c-0.2,0.2-0.4,0.4-0.6,0.6c0,0,0,0.2,0,0.2C74.3,53.7,74.4,53.7,74.5,53.8z
							 M70.3,56.3c0-0.1,0-0.1-0.1-0.1c-0.2-0.2-0.4-0.4-0.6-0.6c-0.1-0.1-0.2-0.1-0.3,0c-0.1,0.1-0.1,0.2,0,0.3
							c0.2,0.2,0.4,0.4,0.6,0.6c0,0,0.2,0,0.2,0C70.2,56.4,70.2,56.3,70.3,56.3z M71.3,57.5c-0.1-0.1-0.1-0.2-0.2-0.2
							c-0.1,0-0.2,0-0.2,0.1c-0.2,0.2-0.4,0.4-0.6,0.5c-0.1,0.1-0.1,0.2,0,0.3c0.1,0.1,0.2,0.1,0.3,0c0.2-0.2,0.4-0.4,0.5-0.5
							C71.3,57.6,71.3,57.6,71.3,57.5z M64.5,54.2c0.1,0,0.1-0.1,0.2-0.1c0.2-0.2,0.4-0.4,0.6-0.6c0.1-0.1,0.1-0.2,0-0.3
							c-0.1-0.1-0.2-0.1-0.3,0c-0.2,0.2-0.4,0.4-0.6,0.6c0,0,0,0.2,0,0.2C64.3,54.1,64.4,54.1,64.5,54.2z M73.2,50.8
							c-0.1,0-0.1,0.1-0.2,0.2c0,0.1,0,0.2,0,0.2c0.2,0.2,0.4,0.4,0.6,0.6c0.1,0.1,0.2,0.1,0.3,0c0.1-0.1,0.1-0.2,0-0.3
							c-0.2-0.2-0.4-0.4-0.6-0.6C73.3,50.9,73.3,50.9,73.2,50.8z"/>
					</g>
					<g>
						<path fill-rule="evenodd" clip-rule="evenodd" fill="#A13793" d="M73,47.3c1.1,0.6,2.2,2,2.6,3.5c-0.7-0.2-1.3-0.5-1.8-1
							C73.2,49.1,73,48.2,73,47.3z"/>
					</g>
					<g>
						<path fill-rule="evenodd" clip-rule="evenodd" fill="#A13793" d="M65.1,48.4c0,0.3,0,0.6-0.1,0.8c-0.1,0.8-0.4,1.5-0.8,2.2
							c-0.4,0.6-0.6,1.3-0.7,2.1c0,0,0,0,0,0.1C63.2,51.7,63.8,49.7,65.1,48.4z"/>
					</g>
					<g>
						<path fill-rule="evenodd" clip-rule="evenodd" fill="#A13793" d="M72.8,57.9c-0.1-0.3-0.1-0.6,0-0.9c0.2-0.3,0.5-0.6,0.8-0.8
							c0.4-0.3,0.8-0.6,1.2-1c0.2-0.2,0.4-0.4,0.7-0.6C75.6,55.3,73.9,57.4,72.8,57.9z"/>
					</g>
					<g>
						<path fill-rule="evenodd" clip-rule="evenodd" fill="#EC1846" d="M67.6,52.5c0-1.2,1-2.1,2.1-2.1c1.1,0,2,1,2,2.1
							c0,1-0.9,2.1-2.2,2C68.5,54.5,67.6,53.6,67.6,52.5z M68,52.5c0,0.9,0.7,1.6,1.7,1.6c0.9,0,1.7-0.7,1.7-1.7
							c0-0.9-0.7-1.7-1.6-1.7C68.7,50.9,68,51.6,68,52.5z"/>
					</g>
					<g>
						<g>
							<path fill-rule="evenodd" clip-rule="evenodd" fill="#EC1846" d="M72.4,55.8c-0.1,0-0.3,0-0.4,0c-0.1,0-0.2-0.1-0.2-0.2
								c0-0.1,0.1-0.2,0.2-0.2c0.3,0,0.6,0,0.8,0c0.1,0,0.2,0.1,0.2,0.2c0,0.1-0.1,0.2-0.2,0.2C72.6,55.8,72.5,55.8,72.4,55.8
								C72.4,55.8,72.4,55.8,72.4,55.8z"/>
						</g>
						<g>
							<path fill-rule="evenodd" clip-rule="evenodd" fill="#EC1846" d="M67.8,57.1c0,0.1,0,0.3,0,0.4c0,0.1-0.1,0.2-0.2,0.2
								c-0.1,0-0.2-0.1-0.2-0.2c0-0.3,0-0.6,0-0.8c0-0.1,0.1-0.2,0.2-0.2c0.1,0,0.2,0.1,0.2,0.2C67.8,56.8,67.8,56.9,67.8,57.1
								L67.8,57.1z"/>
						</g>
						<g>
							<path fill-rule="evenodd" clip-rule="evenodd" fill="#EC1846" d="M66.3,52.9c0-0.1,0-0.3,0-0.4c0-0.1,0.1-0.2,0.2-0.2
								c0.1,0,0.2,0.1,0.2,0.2c0,0.3,0,0.6,0,0.9c0,0.1-0.1,0.2-0.2,0.2c-0.1,0-0.2-0.1-0.2-0.2C66.3,53.2,66.3,53.1,66.3,52.9z"/>
						</g>
						<g>
							<path fill-rule="evenodd" clip-rule="evenodd" fill="#EC1846" d="M71.5,50c-0.1,0-0.3,0-0.4,0c-0.1,0-0.2-0.1-0.2-0.2
								c0-0.1,0.1-0.2,0.2-0.2c0.3,0,0.6,0,0.9,0c0.1,0,0.2,0.1,0.2,0.2c0,0.1-0.1,0.2-0.2,0.2C71.8,50,71.7,50,71.5,50L71.5,50z"/>
						</g>
						<g>
							<path fill-rule="evenodd" clip-rule="evenodd" fill="#EC1846" d="M66.6,55c0.1,0,0.3,0,0.4,0c0.1,0,0.2,0.1,0.2,0.2
								c0,0.1-0.1,0.2-0.2,0.2c-0.3,0-0.6,0-0.9,0c-0.1,0-0.2-0.1-0.2-0.2c0-0.1,0.1-0.2,0.2-0.2C66.3,55,66.4,55,66.6,55z"/>
						</g>
						<g>
							<path fill-rule="evenodd" clip-rule="evenodd" fill="#EC1846" d="M73,53.5c0,0.1,0,0.3,0,0.4c0,0.1-0.1,0.2-0.2,0.2
								c-0.1,0-0.2-0.1-0.2-0.2c0-0.3,0-0.6,0-0.8c0-0.1,0.1-0.2,0.2-0.2c0.1,0,0.2,0.1,0.2,0.2C73,53.3,73,53.4,73,53.5L73,53.5z"
								/>
						</g>
						<g>
							<path fill-rule="evenodd" clip-rule="evenodd" fill="#EC1846" d="M67.6,48.1c0-0.1,0-0.3,0-0.4c0-0.1,0.1-0.2,0.2-0.2
								c0.1,0,0.2,0.1,0.2,0.2c0,0.3,0,0.6,0,0.9c0,0.1-0.1,0.2-0.2,0.2c-0.1,0-0.2-0.1-0.2-0.2C67.6,48.4,67.6,48.3,67.6,48.1
								L67.6,48.1z"/>
						</g>
						<g>
							<path fill-rule="evenodd" clip-rule="evenodd" fill="#EC1846" d="M67.2,50.6c0,0-0.1,0.1-0.1,0.1c-0.1,0-0.2,0-0.2,0
								c-0.2-0.2-0.4-0.4-0.6-0.6c-0.1-0.1-0.1-0.2,0-0.3c0.1-0.1,0.2-0.1,0.3,0c0.2,0.2,0.4,0.4,0.6,0.6
								C67.1,50.5,67.2,50.6,67.2,50.6z"/>
						</g>
						<g>
							<path fill-rule="evenodd" clip-rule="evenodd" fill="#EC1846" d="M71.8,47.5c0,0.1-0.1,0.1-0.1,0.2c-0.2,0.2-0.4,0.4-0.5,0.5
								c-0.1,0.1-0.2,0.1-0.3,0c-0.1-0.1-0.1-0.2,0-0.3c0.2-0.2,0.4-0.4,0.6-0.6c0.1,0,0.2-0.1,0.2,0C71.7,47.4,71.7,47.5,71.8,47.5
								z"/>
						</g>
						<g>
							<path fill-rule="evenodd" clip-rule="evenodd" fill="#EC1846" d="M69.5,49.4c0-0.1,0-0.3,0-0.4c0-0.1,0.1-0.2,0.2-0.2
								c0.1,0,0.2,0.1,0.2,0.2c0,0.3,0,0.5,0,0.8c0,0.2-0.1,0.2-0.2,0.2c-0.1,0-0.2-0.1-0.2-0.2c0-0.1,0-0.1,0-0.2
								C69.5,49.5,69.5,49.5,69.5,49.4z"/>
						</g>
						<g>
							<path fill-rule="evenodd" clip-rule="evenodd" fill="#EC1846" d="M74.5,53.8c-0.1,0-0.1-0.1-0.2-0.1c0-0.1,0-0.2,0-0.2
								c0.2-0.2,0.4-0.4,0.6-0.6c0.1-0.1,0.2-0.1,0.3,0c0.1,0.1,0.1,0.2,0,0.3c-0.2,0.2-0.4,0.4-0.6,0.6
								C74.6,53.7,74.5,53.7,74.5,53.8z"/>
						</g>
						<g>
							<path fill-rule="evenodd" clip-rule="evenodd" fill="#EC1846" d="M70.3,56.3c0,0-0.1,0.1-0.1,0.1c-0.1,0-0.2,0-0.2,0
								c-0.2-0.2-0.4-0.4-0.6-0.6c-0.1-0.1-0.1-0.2,0-0.3c0.1-0.1,0.2-0.1,0.3,0c0.2,0.2,0.4,0.4,0.6,0.6
								C70.3,56.1,70.3,56.2,70.3,56.3z"/>
						</g>
						<g>
							<path fill-rule="evenodd" clip-rule="evenodd" fill="#EC1846" d="M71.3,57.5c0,0.1-0.1,0.1-0.1,0.2c-0.2,0.2-0.4,0.4-0.5,0.5
								c-0.1,0.1-0.2,0.1-0.3,0c-0.1-0.1-0.1-0.2,0-0.3c0.2-0.2,0.4-0.4,0.6-0.5c0.1,0,0.2-0.1,0.2-0.1
								C71.2,57.3,71.3,57.4,71.3,57.5z"/>
						</g>
						<g>
							<path fill-rule="evenodd" clip-rule="evenodd" fill="#EC1846" d="M64.5,54.2c-0.1,0-0.1-0.1-0.2-0.1c0-0.1,0-0.2,0-0.2
								c0.2-0.2,0.4-0.4,0.6-0.6c0.1-0.1,0.2-0.1,0.3,0c0.1,0.1,0.1,0.2,0,0.3c-0.2,0.2-0.4,0.4-0.6,0.6
								C64.6,54.1,64.6,54.1,64.5,54.2z"/>
						</g>
						<g>
							<path fill-rule="evenodd" clip-rule="evenodd" fill="#EC1846" d="M73.2,50.8c0.1,0,0.1,0.1,0.2,0.1c0.2,0.2,0.4,0.4,0.6,0.6
								c0.1,0.1,0.1,0.2,0,0.3c-0.1,0.1-0.2,0.1-0.3,0c-0.2-0.2-0.4-0.4-0.6-0.6c0-0.1-0.1-0.2,0-0.2C73.1,50.9,73.1,50.9,73.2,50.8
								z"/>
						</g>
					</g>
				</g>
				<g>
					<g>
						<path fill-rule="evenodd" clip-rule="evenodd" fill="#F1672A" d="M71.9,28.2c-0.3-0.3-0.6-0.6-0.9-0.8
							c-0.2-0.1-0.3-0.3-0.4-0.6c0-0.3,0.1-0.6,0.3-0.8c0.3-0.2,0.6-0.2,0.9,0c0.3,0.2,0.6,0.5,1,0.8c0.1,0,0.1,0.1,0.2,0.2
							c0.1-0.2,0.1-0.3,0.2-0.5c0.1-0.3,0.3-0.6,0.4-0.9c0.1-0.3,0-0.6,0.1-0.9c0.1-0.8,0.5-1.5,1.2-2c0.4-0.3,0.9-0.3,1.4-0.3
							c0.4,0,0.8,0.1,1.2,0.1c0.2,0,0.4,0.2,0.4,0.4c0,0.7,0,1.4-0.3,2c-0.4,0.8-1.1,1.2-1.9,1.3c-0.5,0.1-0.9,0-1.4-0.1
							c-0.2,0.4-0.3,0.9-0.5,1.3c0,0,0,0,0.1,0c0.1,0,0.3-0.1,0.4-0.1c0.9-0.2,1.6,0,2.4,0.5c0.8,0.5,1.4,1.3,2,2
							c0.2,0.3,0.4,0.6,0.6,0.8c0.4,0.5,0.9,0.9,1.4,1.2c0.6,0.4,1.2,0.9,1.6,1.4c1.2,1.6,1.3,3.3,0.7,5.1c-0.6,1.5-1.6,2.6-2.9,3.3
							c-1.6,0.9-3.3,1.3-5.1,0.9c-1.5-0.3-2.7-1.1-3.6-2.4c-0.7-1-0.9-2.1-0.8-3.3c0-0.2,0-0.4,0.1-0.6c0.2-1,0.2-2.1-0.1-3.1
							c-0.2-0.9-0.2-1.7-0.1-2.6c0.1-0.5,0.2-1,0.5-1.5c0.3-0.4,0.6-0.7,1-0.9C71.7,28.3,71.8,28.3,71.9,28.2z M72.1,38.9
							c0.1,0.2,0.2,0.4,0.4,0.6c0.6,0.9,1.5,1.4,2.6,1.6c1.5,0.3,3-0.1,4.2-1c1-0.7,1.8-1.7,2-3c0.2-0.9,0-1.8-0.5-2.6
							c-0.3-0.5-0.8-0.9-1.3-1.2c-0.9-0.7-1.8-1.4-2.4-2.4c-0.4-0.6-0.9-1.2-1.4-1.6c-0.1,0-0.1-0.1-0.2-0.1
							c-0.7-0.5-1.2-0.5-1.9,0.1c-0.2,0.1-0.3,0.2-0.5,0.2c-0.9,0-1.3,0.4-1.4,1.3c0,0.1,0,0.1,0,0.2c0,0.6,0,1.2,0.1,1.8
							c0.3,1.3,0.3,2.6,0.1,3.9c0,0.2-0.1,0.5-0.1,0.8C71.9,38,71.9,38.5,72.1,38.9z M74.6,25.4c1,0.4,2.4-0.5,2.2-1.5
							C76.1,24.1,74.9,24.8,74.6,25.4z M76.4,23.2c-0.9-0.2-1.9,0.4-1.9,1.1C75.1,23.8,75.7,23.5,76.4,23.2z"/>
					</g>
					<g>
						<path fill-rule="evenodd" clip-rule="evenodd" fill="#00938F" d="M75.3,36.2c0,0.2,0.1,0.4,0.2,0.7c0.1,0.4-0.3,0.8-0.7,0.8
							c-0.4,0-0.7-0.3-0.7-0.7c0-0.4,0.1-0.8,0.4-1.2c0.2-0.3,0.4-0.3,0.6,0C75.2,35.9,75.2,36.1,75.3,36.2z"/>
					</g>
					<g>
						<path fill-rule="evenodd" clip-rule="evenodd" fill="#00938F" d="M77,35.6c-0.1-0.2-0.1-0.4-0.2-0.6c0-0.2,0.1-0.4,0.3-0.3
							c0.5,0.1,1,0.3,1.3,0.7c0.2,0.3,0.2,0.7-0.1,0.9c-0.3,0.2-0.7,0.2-0.9,0C77.3,36,77.2,35.8,77,35.6z"/>
					</g>
				</g>
				<g>
					<g>
						<g>
							<path fill="#EC1846" d="M111.3,90.8c0,0-0.1,0.4-0.3,0.4c0,0,0,0,0,0c-0.2,0-0.6,0.1-0.8,0.4c-0.3,0.3-0.6,0.7-0.7,1
								c-0.1-0.1-0.1-0.2-0.2-0.2c-0.1-0.1-0.3-0.1-0.4-0.1c-0.3,0-0.5,0.1-0.7,0.4c-0.3,0.6-0.2,1.3,0.4,1.6
								c0.5,0.3,1.2,0.2,1.6-0.4c0,0,0-0.1,0.1-0.1c0.2-0.4,0-0.8-0.3-1.1c0,0-0.1-0.1-0.1-0.1c0.1-0.2,0.1-0.5,0.4-0.9
								c0.4-0.5,1-0.5,1-0.5l0,0l0,0v0c0,0,0,0,0,0c0,0,0.2-0.2,0.3-0.1C111.5,91.1,111.4,90.8,111.3,90.8z"/>
						</g>
						<g>
							<path fill="#EC1846" d="M109.8,94.6c-0.4-0.2-0.4,0.5-1.4,0c-0.9-0.5-0.5-0.9-0.9-1.1c-3-1.5-4.3,1-3.9,1.2
								c0.5,0.3,1-0.7,1.7-0.4c0.7,0.3,0.1,1.3,0.8,1.7c0.7,0.4,1.3-0.5,1.8-0.2c0.6,0.3,0.3,1.3,0.8,1.6c0.5,0.3,1.1-0.8,1.7-0.4
								c0.7,0.3,0.1,1.3,0.8,1.7C112.1,98.8,112.8,96,109.8,94.6z M106.4,95.5c-0.1-0.1-0.2-0.2-0.1-0.4c0.1-0.1,0.2-0.2,0.4-0.1
								c0.2,0.1,0.2,0.2,0.1,0.4C106.7,95.5,106.6,95.6,106.4,95.5z M109.1,96.8c-0.1-0.1-0.2-0.2-0.1-0.4c0.1-0.1,0.2-0.2,0.4-0.1
								c0.2,0.1,0.2,0.2,0.1,0.4C109.4,96.8,109.2,96.9,109.1,96.8z"/>
						</g>
					</g>
					<g>
						<path fill="#F1672A" d="M110.4,97.5c-0.5-0.3-1.1,0.8-1.8,0.4c-0.7-0.3-0.1-1.3-0.8-1.7c-0.7-0.4-1.3,0.5-1.8,0.2
							c-0.6-0.3-0.3-1.4-0.8-1.6c-0.4-0.2-0.8,0.2-1,0.7l-1.2,4c-0.2,0.5,0,1.1,0.5,1.3l3.5,1.7c0.5,0.3,1.1,0.1,1.4-0.4l2.3-3.4
							C110.8,98.5,110.8,97.8,110.4,97.5z M103.8,100.4c-0.2,0-0.3-0.2-0.2-0.4l0.9-3.1c0-0.2,0.2-0.3,0.4-0.2
							c0.2,0,0.3,0.2,0.2,0.4l-0.9,3.1C104.2,100.3,104,100.4,103.8,100.4z M105.4,101.1c-0.2-0.1-0.2-0.3-0.1-0.4l1.4-2.9
							c0.1-0.2,0.3-0.2,0.4-0.1c0.2,0.1,0.2,0.3,0.1,0.4l-1.4,2.9C105.8,101.1,105.6,101.2,105.4,101.1z M109.3,99.2l-1.9,2.6
							c-0.1,0.1-0.3,0.2-0.4,0.1c-0.1-0.1-0.2-0.3-0.1-0.5l1.9-2.6c0.1-0.1,0.3-0.2,0.4-0.1C109.4,98.9,109.4,99.1,109.3,99.2z"/>
					</g>
				</g>
				<g>
					<g>
						<path fill-rule="evenodd" clip-rule="evenodd" fill="#00938F" d="M69.4,38.3c-0.3,1.4-0.7,2.9-1,4.3c-0.1,0.1-0.1,0.2-0.2,0.3
							c-0.3,0.4-0.7,0.7-1.2,0.9c-0.9,0.3-1.8,0.3-2.7,0.2c-0.2,0-0.4,0-0.5-0.1c-0.3-0.1-0.5-0.1-0.8-0.2c-0.1,0-0.1,0-0.2-0.1
							c-0.4-0.1-0.8-0.3-1.2-0.5c-0.6-0.3-1.2-0.7-1.6-1.3c-0.2-0.3-0.4-0.6-0.5-1c0-0.2,0-0.3,0-0.5c0.3-1.4,0.7-2.9,1-4.3
							c0.1-0.1,0.1-0.3,0.2-0.4c0.3-0.4,0.7-0.7,1.2-0.8c0.9-0.3,1.8-0.3,2.7-0.2c0.2,0,0.4,0,0.6,0.1c0.3,0.1,0.5,0.1,0.8,0.2
							c0,0,0.1,0,0.1,0.1c0.4,0.1,0.8,0.3,1.2,0.5c0.6,0.3,1.2,0.7,1.6,1.2c0.3,0.3,0.5,0.7,0.6,1.2C69.4,38,69.4,38.2,69.4,38.3z
							 M65.1,35.4c-0.2,0-0.5-0.1-0.8-0.1c-0.7-0.1-1.3,0-2,0.1c-0.4,0.1-0.8,0.3-1.2,0.6c-0.3,0.3-0.4,0.5-0.3,1
							c0.1,0.4,0.3,0.7,0.6,0.9c0.7,0.7,1.5,1.1,2.4,1.4c0.4,0.1,0.9,0.2,1.4,0.3c0.7,0.1,1.3,0,2-0.1c0.4-0.1,0.8-0.3,1.2-0.6
							c0.4-0.3,0.4-0.7,0.3-1.1c-0.2-0.4-0.5-0.7-0.8-1C67.1,36.1,66.2,35.7,65.1,35.4z"/>
					</g>
					<g>
						<path fill-rule="evenodd" clip-rule="evenodd" fill="#BDB432" d="M65.1,35.4c1.1,0.3,2,0.7,2.8,1.4c0.3,0.3,0.6,0.6,0.8,1
							c0.2,0.4,0.1,0.8-0.3,1.1c-0.3,0.3-0.7,0.4-1.2,0.6c-0.7,0.2-1.3,0.2-2,0.1c-0.5,0-0.9-0.1-1.4-0.3c-0.9-0.3-1.7-0.7-2.4-1.4
							c-0.3-0.3-0.5-0.6-0.6-0.9c-0.1-0.4,0-0.7,0.3-1c0.3-0.3,0.8-0.4,1.2-0.6c0.7-0.2,1.3-0.2,2-0.1C64.6,35.3,65,35.3,65.1,35.4z
							 M64.5,38.2c0.5,0.1,0.9,0.2,1.3,0.1c0.3,0,0.5-0.1,0.8-0.2c0.2-0.1,0.2-0.3,0.1-0.5c-0.1-0.1-0.2-0.3-0.3-0.4
							c-0.2-0.2-0.5-0.4-0.8-0.5c-0.6-0.2-1.2-0.4-1.9-0.3c-0.3,0-0.5,0.1-0.7,0.2c-0.2,0.1-0.2,0.3-0.1,0.5
							c0.1,0.1,0.2,0.3,0.3,0.4C63.6,37.9,64.1,38.1,64.5,38.2z"/>
					</g>
					<g>
						<path fill-rule="evenodd" clip-rule="evenodd" fill="#EC1846" d="M64.5,38.2c-0.5-0.1-1-0.3-1.4-0.7c-0.1-0.1-0.2-0.2-0.3-0.4
							c-0.1-0.2-0.1-0.4,0.1-0.5c0.2-0.2,0.5-0.2,0.7-0.2c0.7,0,1.3,0.1,1.9,0.3c0.3,0.1,0.6,0.3,0.8,0.5c0.1,0.1,0.2,0.2,0.3,0.4
							c0.1,0.2,0,0.4-0.1,0.5c-0.2,0.2-0.5,0.2-0.8,0.2C65.4,38.4,65,38.3,64.5,38.2z"/>
					</g>
				</g>
				<g>
					<g>
						<path fill-rule="evenodd" clip-rule="evenodd" fill="#EC1846" d="M44.4,42.9c0.1-0.2,0.1-0.5,0.2-0.7c0.4-1,1.1-1.5,2.1-1.8
							c0.1,0,0.1,0,0.1,0.1c0.5,1.2,1.1,2.4,1.6,3.7c0.2,0.4,0.4,0.9,0.6,1.3c0,0,0,0.1,0.1,0.2c-0.4-0.1-0.7-0.2-1.1-0.2
							c-0.6-0.1-1.3-0.3-1.9-0.4c-0.3-0.1-0.6-0.2-0.9-0.4c-0.4-0.2-0.7-0.6-0.7-1.1c0,0,0-0.1,0-0.1C44.4,43.3,44.4,43.1,44.4,42.9
							z"/>
					</g>
					<g>
						<path fill-rule="evenodd" clip-rule="evenodd" fill="#EC1846" d="M60.3,45.5c-0.1,0.3-0.2,0.6-0.3,0.8c-0.3,0.6-0.7,1-1.4,1.2
							c0,0,0,0-0.1,0c-0.8-1.9-1.7-3.8-2.5-5.8c0.1,0,0.1,0,0.2,0.1c0.7,0.2,1.3,0.5,2,0.8c0.7,0.3,1.3,0.7,1.7,1.4
							c0.2,0.3,0.3,0.6,0.4,0.9c0,0,0,0.1,0,0.1C60.3,45.1,60.3,45.3,60.3,45.5z"/>
					</g>
					<g>
						<path fill-rule="evenodd" clip-rule="evenodd" fill="#00938F" d="M45.7,45.7c0.7,0.1,1.3,0.3,2,0.4c1.3,0.3,2.6,0.6,3.8,0.9
							c1.1,0.3,2.2,0.6,3.3,0.9c0.7,0.2,1.3,0.4,2,0.4c0.1,0,0.2,0,0.4,0c-0.2,0.3-0.5,0.6-0.9,0.8c-0.6,0.4-1.4,0.6-2.1,0.6
							c-1.4,0-2.9-0.2-4.2-0.6c-1-0.3-1.9-0.6-2.7-1.2c-0.6-0.4-1-0.9-1.3-1.6C45.9,46.2,45.8,45.9,45.7,45.7z"/>
					</g>
					<g>
						<path fill-rule="evenodd" clip-rule="evenodd" fill="#EC1846" d="M57.9,47.7c-0.4,0-0.8,0-1.1-0.1c-0.8-0.1-1.5-0.3-2.3-0.6
							c-0.1,0-0.1-0.1-0.2-0.1c-0.9-2.1-1.8-4.2-2.7-6.3c0,0,0,0,0,0c0.2,0,0.3,0,0.5,0.1c1,0.3,2,0.5,3,0.8c0.1,0,0.1,0.1,0.1,0.2
							c0.6,1.3,1.2,2.6,1.8,4c0.3,0.6,0.6,1.3,0.8,1.9C57.9,47.6,57.9,47.6,57.9,47.7z"/>
					</g>
					<g>
						<path fill-rule="evenodd" clip-rule="evenodd" fill="#EC1846" d="M53.5,46.8c-0.8-0.2-1.5-0.4-2.3-0.6
							c-0.4-0.1-0.8-0.2-1.2-0.3c-0.1,0-0.2-0.1-0.2-0.2c-0.8-1.8-1.6-3.5-2.3-5.3c0,0,0-0.1,0-0.1c0.4,0,0.9,0,1.3,0
							c0.6,0,1.3,0.1,1.9,0.2c0.1,0,0.2,0.1,0.3,0.2c0.7,1.7,1.5,3.4,2.2,5.1C53.3,46.1,53.4,46.5,53.5,46.8z"/>
					</g>
				</g>
			</g>
		</g>
	</g>
</g>
</svg>
