<?xml version="1.0" encoding="utf-8"?>
<!-- Generator: Adobe Illustrator 16.0.3, SVG Export Plug-In . SVG Version: 6.00 Build 0)  -->
<!DOCTYPE svg PUBLIC "-//W3C//DTD SVG 1.1//EN" "http://www.w3.org/Graphics/SVG/1.1/DTD/svg11.dtd">
<svg version="1.1" id="Layer_1" xmlns="http://www.w3.org/2000/svg" xmlns:xlink="http://www.w3.org/1999/xlink" x="0px" y="0px"
	 width="120px" height="128px" viewBox="0 0 120 128" enable-background="new 0 0 120 128" xml:space="preserve">
<g>
	<path fill="#6B3F23" d="M41.303,80.869c-0.181-0.184-1.119-1.084-1.391-1.373c-0.271-0.285-0.417-0.508-0.417-0.836
		c0,0,0-7.238,0-9.703c0-2.459-2.082-4.6-3.521-5.201c0,0,3.563-1.785,3.438-8.264c-0.109-5.662-2.511-8.588-7.336-8.588H26.27
		c-0.184,0-0.277,0.137-0.277,0.279c0,0.14,0.102,0.2,0.323,0.417c0.309,0.298,1.011,0.965,1.395,1.346
		c0.384,0.382,0.417,0.742,0.417,1.302v28.135c0,0.559-0.079,0.863-0.417,1.303c-0.339,0.436-1.131,1.109-1.395,1.348
		c-0.207,0.189-0.323,0.277-0.323,0.416c0,0.141,0.094,0.275,0.277,0.275h7.292c0.184,0,0.277-0.137,0.277-0.275
		s-0.202-0.303-0.326-0.416c-0.125-0.117-0.978-0.83-1.391-1.348c-0.414-0.523-0.417-0.744-0.417-1.303v-13.07
		c1.578-0.357,2.863,0.359,3.449,1.76c0.44,1.049,0.692,3.604,0.692,5.191c0,3.719,0,6.49,0,6.49c0,1.58,0.909,2.971,3.044,2.971
		c0,0,2.108,0,2.412,0c0.309,0,0.433-0.064,0.455-0.201C41.795,81.275,41.634,81.203,41.303,80.869z M35.226,60.811
		c-0.586,1.713-2.152,2.289-3.502,1.977V49.301c1.417-0.301,2.702,0.257,3.355,1.579c0.516,1.038,0.768,2.524,0.768,4.613
		C35.847,57.7,35.651,59.57,35.226,60.811z"/>
	<path fill="#6B3F23" d="M13.515,70.721c0-3.637-1.522-6.053-3.528-6.965c0,0,3.693-1.627,3.469-8.241
		c-0.199-5.856-2.541-8.61-7.37-8.61H0.282c-0.188,0-0.278,0.137-0.278,0.279c0,0.14,0,0.14,0.323,0.417
		c0.323,0.277,1.008,0.965,1.395,1.346c0.383,0.382,0.417,0.742,0.417,1.302v28.136c0,0.559-0.079,0.863-0.417,1.303
		c-0.338,0.434-1.136,1.107-1.395,1.346c-0.211,0.189-0.323,0.277-0.323,0.416c0,0.141,0.091,0.277,0.278,0.277h7.287
		C14.33,81.725,13.515,71.477,13.515,70.721z M9.216,77.398c-0.586,1.711-2.15,2.287-3.503,1.973V65.289
		c1.421-0.303,2.705,0.262,3.356,1.58c0.515,1.041,0.77,2.527,0.77,4.613C9.839,73.689,9.64,76.156,9.216,77.398z M9.216,60.811
		c-0.586,1.713-2.15,2.289-3.503,1.977V49.301C7.134,49,8.418,49.558,9.069,50.88c0.515,1.038,0.77,2.524,0.77,4.613
		C9.839,57.7,9.64,59.57,9.216,60.811z"/>
	<g>
		<path fill="#6B3F23" d="M72.583,97.002c-0.587,0-1.022,0.523-1.022,0.523v-0.434c0-0.063-0.028-0.09-0.074-0.09h-1.444
			c-0.146,0-0.089,0.127-0.028,0.182c0.061,0.049,0.322,0.24,0.371,0.275c0.129,0.09,0.124,0.129,0.124,0.172v8.896
			c0,0.043,0,0.104-0.03,0.119l-0.465,0.525c-0.045,0.045-0.113,0.164,0.028,0.164h1.985c0.158,0,0.06-0.119,0.015-0.164
			l-0.466-0.525c-0.016-0.016-0.016-0.076-0.016-0.119v-1.744c0,0,0.392,0.57,1.008,0.57c0.662,0,1.354-0.373,1.384-4.613
			C73.951,97.395,73.229,97.002,72.583,97.002z M72.637,104.291c-0.191,0.914-1.076,0.191-1.076-0.883c0-0.6,0-4.635,0-4.635
			c0-0.734,0.451-1.127,0.662-1.127c0.377,0,0.553,0.316,0.553,3.094C72.775,102.18,72.777,103.604,72.637,104.291z"/>
		<path fill="#6B3F23" d="M22.422,95.166c0-0.178-0.004-0.295-0.136-0.42c-0.128-0.125-0.402-0.387-0.451-0.434
			s-0.104-0.092-0.104-0.139c0-0.043,0.03-0.09,0.09-0.09h2.271c1.273,0,2.025,0.797,1.983,2.986
			c-0.03,1.865-0.544,3.223-2.495,3.039v4.162c0,0.182,0.008,0.318,0.136,0.42c0.128,0.102,0.492,0.383,0.556,0.436
			c0.054,0.047,0.105,0.09,0.105,0.137c0,0.045-0.03,0.09-0.09,0.09H21.82c-0.06,0-0.09-0.045-0.09-0.09
			c0-0.047,0.06-0.08,0.139-0.16c0.083-0.082,0.297-0.277,0.417-0.412c0.121-0.131,0.136-0.238,0.136-0.418V95.166z M23.579,99.359
			c1.222,0.238,1.255-0.838,1.263-2.357c0.004-1.541-0.078-2.357-1.263-2.168V99.359z"/>
		<path fill="#6B3F23" d="M32.261,104.332c0,0.195,0.061,0.371,0.195,0.375c0.188,0.006,0.357-0.131,0.437-0.254
			c0.071-0.109,0.146-0.057,0.108,0.094c-0.108,0.424-0.395,0.809-0.771,0.809c-0.462,0-0.706-0.301-0.887-0.57
			c-0.236,0.271-0.628,0.57-1.037,0.57c-0.582,0-1.305-0.385-1.305-2.434c0-1.67,0.256-2.135,1.91-3.457
			c0.297-0.24,0.297-0.379,0.297-0.992c0-0.658-0.146-0.83-0.632-0.824c-0.56,0-1.191,0.488-1.315,0.6
			c-0.098,0.086-0.188,0.076-0.184-0.014c0.007-0.18,0.77-1.219,1.698-1.23c0.541-0.012,1.484,0.326,1.484,1.875v5.453H32.261z
			 M31.209,99.885c-0.793,0.588-1.094,1.232-1.094,2.766c0,1.713,0.161,2.059,0.492,2.059c0.334,0,0.602-0.465,0.602-0.885V99.885z"
			/>
		<path fill="#6B3F23" d="M50.767,104.332c0,0.195,0.061,0.371,0.195,0.375c0.188,0.006,0.356-0.131,0.436-0.254
			c0.071-0.109,0.146-0.057,0.109,0.094c-0.109,0.424-0.395,0.809-0.767,0.809c-0.467,0-0.711-0.301-0.888-0.57
			c-0.24,0.271-0.631,0.57-1.04,0.57c-0.583,0-1.305-0.385-1.305-2.434c0-1.67,0.255-2.135,1.909-3.457
			c0.298-0.24,0.298-0.379,0.298-0.992c0-0.658-0.147-0.83-0.629-0.824c-0.563,0-1.195,0.488-1.318,0.6
			c-0.098,0.086-0.185,0.076-0.185-0.014c0.004-0.18,0.767-1.219,1.699-1.23c0.537-0.012,1.484,0.326,1.484,1.875v5.453H50.767z
			 M49.715,99.885c-0.794,0.588-1.094,1.232-1.094,2.766c0,1.713,0.165,2.059,0.495,2.059c0.331,0,0.599-0.465,0.599-0.885V99.885z"
			/>
		<path fill="#6B3F23" d="M62.049,104.332c0,0.195,0.061,0.371,0.195,0.375c0.188,0.006,0.354-0.131,0.436-0.254
			c0.072-0.109,0.146-0.057,0.109,0.094c-0.111,0.424-0.395,0.809-0.771,0.809c-0.467,0-0.707-0.301-0.887-0.57
			c-0.236,0.271-0.632,0.57-1.037,0.57c-0.587,0-1.305-0.385-1.305-2.434c0-1.67,0.256-2.135,1.904-3.457
			c0.303-0.24,0.303-0.379,0.303-0.992c0-0.658-0.15-0.83-0.632-0.824c-0.561,0-1.191,0.488-1.315,0.6
			c-0.098,0.086-0.188,0.076-0.185-0.014c0.008-0.18,0.767-1.219,1.699-1.23c0.537-0.012,1.484,0.326,1.484,1.875v5.453H62.049z
			 M60.997,99.885c-0.794,0.588-1.098,1.232-1.098,2.766c0,1.713,0.165,2.059,0.499,2.059c0.327,0,0.599-0.465,0.599-0.885V99.885z"
			/>
		<path fill="#6B3F23" d="M98.223,104.332c0,0.195,0.057,0.371,0.19,0.375c0.188,0.006,0.356-0.131,0.44-0.254
			c0.066-0.109,0.146-0.057,0.107,0.094c-0.113,0.424-0.398,0.809-0.771,0.809c-0.465,0-0.705-0.301-0.887-0.57
			c-0.24,0.271-0.636,0.57-1.041,0.57c-0.582,0-1.305-0.385-1.305-2.434c0-1.67,0.257-2.135,1.909-3.457
			c0.298-0.24,0.298-0.379,0.298-0.992c0-0.658-0.146-0.83-0.628-0.824c-0.563,0-1.195,0.488-1.319,0.6
			c-0.094,0.086-0.188,0.076-0.185-0.014c0.008-0.18,0.768-1.219,1.694-1.23c0.545-0.012,1.492,0.326,1.492,1.875v5.453H98.223z
			 M97.166,99.885c-0.794,0.588-1.094,1.232-1.094,2.766c0,1.713,0.164,2.059,0.492,2.059c0.334,0,0.602-0.465,0.602-0.885V99.885
			L97.166,99.885z"/>
		<path fill="#6B3F23" d="M38.706,99.977c0,0.186-0.143,0.139-0.177-0.018c-0.037-0.152-0.439-2.41-1.146-2.313
			c-0.763,0.109-0.277,2.084,0.545,3.26c0.621,0.885,0.974,1.969,0.974,2.945c0,0.932-0.657,1.502-1.293,1.502
			c-0.421,0-0.672-0.195-0.898-0.48l-0.391,0.404c-0.045,0.031-0.202,0.223-0.195-0.031v-2.885c-0.012-0.125,0.124-0.1,0.15,0.033
			c0.233,1.166,0.583,2.313,1.143,2.313c0.331,0,0.48-0.254,0.48-0.646c0-0.932-0.48-1.922-0.961-2.703
			c-0.542-0.904-0.857-1.832-0.857-2.748c0-0.979,0.602-1.607,1.143-1.607c0.36,0,0.631,0.182,0.887,0.48
			c0,0,0.271-0.271,0.44-0.418c0.165-0.145,0.157,0.012,0.157,0.086C38.706,97.148,38.706,99.789,38.706,99.977z"/>
		<path fill="#6B3F23" d="M43.633,104.166c0,0.773,0.632,0.557,0.823,0.227c0.064-0.105,0.188-0.072,0.094,0.209
			c-0.082,0.264-0.36,0.754-0.992,0.754c-0.631,0-0.977-0.285-0.977-1.518c0,0,0-5.797,0-6.086c0-0.279-0.24-0.389-0.481-0.615
			c-0.139-0.135-0.015-0.18,0.136-0.197c0.657-0.119,0.736-1.26,0.736-1.861c0-0.072,0.045-0.131,0.121-0.131h0.45
			c0.06,0,0.09,0.027,0.09,0.102v1.729c0,0.076,0.016,0.135,0.121,0.135H44.1c0.075,0,0.101,0.092,0,0.184
			c-0.144,0.119-0.467,0.422-0.467,0.658C43.633,97.988,43.633,104.166,43.633,104.166z"/>
		<path fill="#6B3F23" d="M77.633,97.721c0-0.061-0.014-0.088-0.044-0.121l-0.446-0.416c-0.035-0.047-0.125-0.182,0.025-0.182h1.443
			c0.043,0,0.074,0.027,0.074,0.09v7.436c0,0.059,0,0.105,0.029,0.137l0.467,0.525c0.029,0.029,0.133,0.166-0.029,0.166h-1.984
			c-0.15,0-0.061-0.137-0.025-0.166l0.463-0.525c0.027-0.031,0.027-0.078,0.027-0.137V97.721z M78.688,94.881
			c0,0.395-0.24,0.799-0.541,0.799c-0.315,0-0.558-0.404-0.558-0.799c0-0.402,0.241-0.797,0.558-0.797
			C78.445,94.084,78.688,94.479,78.688,94.881z"/>
		<path fill="#6B3F23" d="M82.396,97.121c0-0.059,0.056-0.119,0.131-0.119h2.768c0.112,0,0.075,0.135,0.061,0.182l-1.805,7.658
			h0.801c0.146,0,0.252-0.059,0.297-0.193c0,0,0.613-1.84,0.707-2.119c0.09-0.279,0.166-0.104,0.166,0c0,0.105,0,2.719,0,2.719
			c0,0.047-0.03,0.107-0.123,0.107c0,0-2.94,0-3.002,0c-0.067,0.002-0.07-0.082-0.049-0.166c0.021-0.082,1.938-7.678,1.938-7.678
			h-0.722c-0.135,0-0.226,0.061-0.285,0.209c0,0-0.612,1.779-0.691,2.061c-0.078,0.279-0.191,0.146-0.191,0.047V97.121
			L82.396,97.121z"/>
		<path fill="#6B3F23" d="M88.672,97.121c0-0.059,0.061-0.119,0.137-0.119h2.766c0.113,0,0.074,0.135,0.056,0.182l-1.799,7.658
			h0.797c0.146,0,0.251-0.059,0.297-0.193c0,0,0.615-1.84,0.705-2.119c0.095-0.279,0.166-0.104,0.166,0c0,0.105,0,2.719,0,2.719
			c0,0.047-0.028,0.107-0.12,0.107c0,0-2.938,0-3.003,0c-0.063,0.002-0.067-0.082-0.045-0.166c0.019-0.082,1.937-7.678,1.937-7.678
			h-0.719c-0.136,0-0.229,0.061-0.289,0.209c0,0-0.607,1.779-0.688,2.061c-0.083,0.279-0.191,0.146-0.195,0.047L88.672,97.121
			L88.672,97.121z"/>
	</g>
	<path fill="#6B3F23" d="M67.006,46.904h-6.307c-0.184,0-0.278,0.137-0.278,0.279c0,0.14,0.146,0.281,0.274,0.401
		c0.132,0.121,1.139,1.1,1.396,1.362c0.258,0.264,0.373,0.742,0.373,1.302v26.451c0,3.646-4.743,3.502-4.743,0.17V50.248
		c0-0.56,0.154-1.002,0.372-1.302c0.223-0.298,1.315-1.275,1.421-1.38c0.128-0.132,0.252-0.242,0.252-0.382
		c0-0.143-0.094-0.279-0.278-0.279h-7.107c-0.184,0-0.273,0.137-0.273,0.279c0,0.14,0.06,0.261,0.229,0.417
		c0.17,0.158,1.162,1.037,1.44,1.346c0.277,0.313,0.371,0.742,0.371,1.302V76.27c0,3.377,2.755,5.439,5.525,5.457
		c2.773,0.02,5.564-2.008,5.564-5.789V50.248c0-0.56,0.15-1.021,0.373-1.302c0.222-0.278,1.334-1.239,1.438-1.346
		c0.104-0.104,0.232-0.276,0.232-0.417C67.283,47.041,67.189,46.904,67.006,46.904z"/>
	<path fill="#6B3F23" d="M81.645,50.248c0-0.56-0.14-0.934-0.418-1.302c-0.229-0.296-0.812-0.964-1.16-1.346
		c-0.145-0.154-0.328-0.276-0.328-0.463c0-0.096,0.095-0.232,0.283-0.232h5.569c0.326,0,0.462,0.325,0.56,0.792L90.51,67.66V50.248
		c0-0.56-0.123-0.938-0.412-1.256c-0.298-0.315-1.162-1.25-1.302-1.392c-0.144-0.143-0.323-0.276-0.323-0.463
		c0-0.096,0.09-0.232,0.274-0.232h6.13c0.186,0,0.277,0.137,0.277,0.232c0,0.187-0.149,0.301-0.363,0.541
		c-0.219,0.238-0.861,0.907-1.121,1.269c-0.264,0.364-0.42,0.742-0.42,1.302v30.97c0,0.324,0.004,0.508-0.463,0.508h-1.95
		c-0.418,0-0.789-0.459-0.929-1.16l-5.524-25.303v23.122c0,0.559,0.113,0.869,0.496,1.313c0.414,0.475,0.992,1.107,1.222,1.336
		c0.15,0.148,0.323,0.277,0.323,0.463c0,0.094-0.091,0.229-0.274,0.229h-6.129c-0.188,0-0.283-0.137-0.283-0.229
		c0-0.186,0.178-0.32,0.396-0.543c0.298-0.305,0.813-0.914,1.095-1.268c0.281-0.359,0.416-0.744,0.416-1.303V50.248L81.645,50.248z"
		/>
	<g>
		<rect y="87.625" fill="#6B3F23" width="119.947" height="0.451"/>
	</g>
	<path fill="#6B3F23" d="M120,63.387c0,8.775-0.537,18.338-6.234,18.338s-6.164-9.563-6.164-18.338
		c0-6.687,0.463-16.483,6.164-16.483C119.471,46.904,120,56.701,120,63.387z M111.409,63.434c0,12.072,0.805,15.969,2.356,15.969
		c1.549,0,2.424-3.896,2.424-15.969c0-10.31-0.922-14.207-2.424-14.207C112.259,49.227,111.409,53.125,111.409,63.434z"/>
	<g>
		<path fill="#6B3F23" d="M34.042,25.357l3.736-1.143l0.356,1.162l-0.263,0.128l-0.643-0.821l-0.887,0.271l1.161,3.807l0.635,0.043
			l0.038,0.288l-1.736,0.53l-0.128-0.262l0.5-0.388l-1.165-3.806l-0.888,0.271l-0.074,1.044l-0.29,0.039L34.042,25.357z"/>
		<path fill="#6B3F23" d="M44.336,25.133l-0.248-0.44c-0.102-0.015-0.177-0.019-0.339,0.016c-0.184,0.041-0.454,0.192-0.668,0.329
			l0.492,2.319l0.47,0.047l-0.004,0.252l-1.402,0.297l-0.098-0.23l0.402-0.234l-0.525-2.498l-0.335,0.07l-0.098-0.229l0.759-0.238
			l0.286,0.198c0.199-0.174,0.428-0.351,0.774-0.423c0.202-0.043,0.409-0.053,0.62-0.014l0.143,0.684L44.336,25.133z"/>
		<path fill="#6B3F23" d="M48.256,23.825c0.319-0.208,0.628-0.318,0.978-0.356c0.838-0.096,1.326,0.299,1.416,1.101l0.181,1.61
			l0.458,0.094l-0.021,0.251l-0.898,0.1l-0.146-0.229c-0.241,0.238-0.409,0.368-0.88,0.422c-0.571,0.063-1.044-0.192-1.112-0.781
			c-0.105-0.951,0.909-1.215,1.789-1.315l-0.038-0.362c-0.056-0.48-0.36-0.68-0.763-0.634c-0.173,0.019-0.383,0.057-0.567,0.147
			L48.57,24.41l-0.248-0.021L48.256,23.825z M50.045,24.962c-0.854,0.098-1.161,0.428-1.102,0.921
			c0.057,0.491,0.364,0.615,0.636,0.583c0.271-0.03,0.474-0.186,0.586-0.445L50.045,24.962z"/>
		<path fill="#6B3F23" d="M55.427,23.011l0.895-0.052l-0.038,0.25l-0.842,0.047l0.12,2.189c0.02,0.319,0.199,0.493,0.402,0.48
			c0.248-0.012,0.392-0.124,0.526-0.287l0.165,0.175c-0.211,0.252-0.402,0.422-0.789,0.44c-0.628,0.037-0.921-0.332-0.946-0.83
			l-0.121-2.133L54.4,23.315l-0.06-0.246l0.477-0.175l0.249-0.734l0.314,0.062L55.427,23.011z"/>
		<path fill="#6B3F23" d="M60.925,22.873l0.897,0.014l-0.053,0.247l-0.85-0.017l-0.033,2.193c-0.004,0.319,0.161,0.509,0.364,0.513
			c0.248,0.003,0.401-0.097,0.549-0.25l0.149,0.185c-0.225,0.238-0.428,0.392-0.818,0.385c-0.628-0.012-0.895-0.396-0.888-0.894
			l0.038-2.141L59.884,23.1l-0.045-0.244l0.488-0.143L60.624,22l0.315,0.08L60.925,22.873z"/>
		<path fill="#6B3F23" d="M68.6,24.831c-0.08,1.046-0.643,1.628-1.726,1.547c-1.075-0.082-1.554-0.768-1.474-1.787
			c0.076-1.022,0.719-1.618,1.722-1.543C68.133,23.122,68.68,23.781,68.6,24.831z M66.063,24.621
			c-0.063,0.854,0.252,1.463,0.83,1.504c0.58,0.042,0.992-0.502,1.053-1.363c0.068-0.873-0.266-1.417-0.842-1.46
			C66.539,23.259,66.126,23.761,66.063,24.621z"/>
		<path fill="#6B3F23" d="M74.68,24.949l-0.074-0.503c-0.09-0.048-0.162-0.081-0.323-0.105c-0.191-0.027-0.495,0.023-0.743,0.077
			l-0.354,2.341l0.424,0.208l-0.092,0.234l-1.416-0.211l-0.011-0.252l0.458-0.074l0.381-2.524l-0.336-0.052l-0.014-0.25l0.795,0.044
			l0.2,0.285c0.247-0.096,0.521-0.178,0.875-0.124c0.202,0.03,0.397,0.094,0.583,0.205l-0.104,0.688L74.68,24.949z"/>
		<path fill="#6B3F23" d="M79.382,28.197l-0.112,0.228l-1.388-0.324l0.005-0.254l0.469-0.034l0.584-2.488l-0.34-0.08l0.008-0.25
			l0.723,0.09l0.289,0.143l-0.639,2.729L79.382,28.197z M79.926,24.068c-0.048,0.198-0.251,0.319-0.453,0.272
			c-0.188-0.042-0.32-0.242-0.271-0.443c0.045-0.2,0.246-0.319,0.439-0.272C79.844,23.671,79.973,23.868,79.926,24.068z"/>
		<path fill="#6B3F23" d="M83.365,26.412c0.38-0.059,0.705-0.034,1.042,0.073c0.804,0.252,1.089,0.815,0.841,1.584L84.76,29.61
			l0.381,0.271l-0.121,0.221l-0.865-0.275l-0.033-0.271c-0.318,0.123-0.529,0.171-0.977,0.033c-0.551-0.175-0.881-0.603-0.699-1.17
			c0.289-0.91,1.322-0.739,2.173-0.472l0.104-0.342c0.149-0.463-0.049-0.771-0.433-0.893c-0.17-0.054-0.377-0.104-0.579-0.097
			l-0.294,0.457l-0.222-0.119L83.365,26.412z M84.542,28.183c-0.819-0.261-1.233-0.084-1.388,0.389
			c-0.146,0.472,0.082,0.708,0.347,0.792c0.259,0.081,0.507,0.024,0.718-0.168L84.542,28.183z"/>
	</g>
</g>
</svg>
