<?xml version="1.0" encoding="utf-8"?>
<!-- Generator: Adobe Illustrator 16.0.3, SVG Export Plug-In . SVG Version: 6.00 Build 0)  -->
<!DOCTYPE svg PUBLIC "-//W3C//DTD SVG 1.1//EN" "http://www.w3.org/Graphics/SVG/1.1/DTD/svg11.dtd">
<svg version="1.1" id="Layer_1" xmlns="http://www.w3.org/2000/svg" xmlns:xlink="http://www.w3.org/1999/xlink" x="0px" y="0px"
	 width="120px" height="128px" viewBox="0 0 120 128" enable-background="new 0 0 120 128" xml:space="preserve">
<g>
	<g>
		<path fill="#BCB21F" d="M82.096,30.16c-0.104,0.138-0.219,0.262-0.346,0.375c-0.422,0.365-0.963,0.566-1.522,0.566
			c-0.247,0-0.486-0.038-0.719-0.114c-0.167-0.055-0.349-0.139-0.521-0.252c0.016,0.137,0.034,0.287,0.054,0.445
			c0.186,0.157,0.402,0.269,0.598,0.332c0.693,0.227,1.33,0.023,1.824-0.393c0.264-0.221,0.489-0.503,0.662-0.811
			c0.016-0.029,0.033-0.065,0.049-0.104c-0.023-0.014-0.049-0.031-0.072-0.05C82.098,30.155,82.097,30.159,82.096,30.16z"/>
		<path fill="#BCB21F" d="M60.278,73.551c-0.038,0.006-0.078,0.012-0.118,0.012h-0.109c-0.04,0-0.08-0.006-0.118-0.012
			c-9.071-1.973-17.973-8.236-20.975-13.132c-0.009,0.008-0.018,0.015-0.026,0.021c2.423,4.728,11.514,11.542,21.089,13.623
			c0.01,0.001,0.083,0.017,0.083,0.017c0.01,0,0.075-0.016,0.084-0.017c9.577-2.081,18.667-8.896,21.09-13.623
			c-0.008-0.006-0.018-0.013-0.026-0.021C78.251,65.314,69.348,71.578,60.278,73.551z"/>
		<path fill="#BCB21F" d="M40.574,31.511c0.193-0.063,0.411-0.175,0.596-0.332c0.02-0.158,0.038-0.308,0.055-0.445
			c-0.173,0.114-0.354,0.198-0.523,0.252c-0.231,0.077-0.473,0.114-0.718,0.114c-0.561,0-1.102-0.201-1.523-0.566
			c-0.127-0.113-0.243-0.237-0.345-0.375c-0.001-0.001-0.004-0.004-0.006-0.007c-0.024,0.02-0.048,0.036-0.073,0.05
			c0.018,0.039,0.034,0.075,0.049,0.104c0.173,0.308,0.398,0.589,0.663,0.811C39.244,31.534,39.88,31.738,40.574,31.511z"/>
		<path fill="#BCB21F" d="M78.51,29.906c0-0.183,0.021-0.365,0.063-0.542c0.005,0.096,0.02,0.19,0.047,0.283
			c0.306,1.015,1.543,1.186,2.367,0.896c1.297-0.458,1.828-2.292,1.092-3.383c-0.982-1.46-4.383-3.625-8.268-5.266
			c-2.096-0.885-7.268-2.835-10.081-1.84c-0.493,0.175-0.877,0.431-1.157,0.765c-0.177-0.145-0.387-0.266-0.61-0.369
			c0.005-0.036,0.009-0.075,0.009-0.114c0-0.738-0.809-1.337-1.801-1.337c-0.022,0-0.042,0.001-0.065,0.001
			c-0.021,0-0.042-0.001-0.063-0.001c-0.992,0-1.801,0.599-1.801,1.337c0,0.039,0.003,0.078,0.008,0.114
			c-0.224,0.103-0.433,0.224-0.609,0.369c-0.28-0.334-0.666-0.59-1.159-0.765c-2.813-0.996-7.986,0.955-10.081,1.84
			c-3.884,1.64-7.286,3.806-8.27,5.266c-0.736,1.091-0.203,2.925,1.093,3.383c0.823,0.291,2.062,0.119,2.367-0.896
			c0.028-0.093,0.042-0.188,0.045-0.283c0.042,0.177,0.064,0.36,0.063,0.542c-0.006,0.888-0.427,3.485-0.96,6.775
			C39.711,43.043,38.3,51.758,38.3,57.343c0,4.48,10.533,13.373,21.721,15.806c0.01,0.001,0.079,0.018,0.079,0.018
			c0.01,0,0.08-0.017,0.089-0.018C71.378,70.716,81.91,61.823,81.91,57.343c0-5.585-1.41-14.299-2.439-20.662
			C78.938,33.391,78.517,30.794,78.51,29.906z M81.623,28.923c-0.137,0.429-0.494,0.77-0.919,0.897
			c-0.047,0.014-0.095,0.026-0.144,0.034c-0.481,0.084-1.211-0.052-1.342-0.63c-0.111-0.494,0.436-0.958,0.914-0.909
			c-0.316,0.19-0.404,0.939,0.191,0.939c0.518,0,0.754-0.607,0.592-1.023c-0.163-0.416-0.678-0.644-1.105-0.657
			c-1.661-0.051-2.075,1.827-1.955,3.106c0.16,1.739,0.459,3.487,0.736,5.211c0.078,0.494,0.16,1.171,0.245,1.665
			c-0.056,0.008-0.104-0.034-0.161-0.023c-0.447-1.96-0.932-4.521-1.107-6.526c-0.05-0.578-0.073-1.16-0.011-1.737
			c0.095-0.859,0.552-1.655,1.349-2.028c0.572-0.269,1.355-0.348,1.938-0.082C81.479,27.452,81.836,28.256,81.623,28.923z
			 M67.32,20.898c1.26-0.018,3.633,0.318,7.926,2.388c2.128,1.024,4.155,2.399,5.277,3.209c-0.184-0.031-0.373-0.05-0.578-0.05
			c-0.193,0-0.27,0.014-0.446,0.042c-4.8-3.322-9.622-5.219-12.2-5.499C67.307,20.959,67.313,20.929,67.32,20.898z M64.1,21.044
			c0.274-0.139,0.867-0.3,1.389-0.326c0.011,0.023-0.012,0.074,0,0.097c-0.774,0.183-1.492,0.608-1.783,1.125
			c-0.279,0.499-0.318,1.173-0.1,1.697c0.248,0.604,0.849,0.876,1.486,0.843c0.154-0.008,0.413-0.068,0.617-0.179
			c0.021,0.024,0.043,0.047,0.068,0.067c-0.074,0.081-0.156,0.148-0.229,0.192c-0.901,0.534-2.169-0.101-2.499-1.015
			c-0.095-0.255-0.133-0.531-0.115-0.814C62.977,22.018,63.426,21.386,64.1,21.044z M61.732,24.415c0.006,0,0.014,0.002,0.021,0.002
			c0.656-0.035,1.156,0.047,1.305,0.212c0.035,0.041,0.049,0.085,0.038,0.145c-0.011,0.075-0.04,0.124-0.097,0.153
			c-0.205,0.113-0.691,0.02-1.309-0.241c-0.015-0.004-0.027-0.008-0.041-0.01C61.68,24.585,61.707,24.497,61.732,24.415z
			 M61.176,25.921c-0.014-0.026-0.028-0.054-0.042-0.085c0.062-0.117,0.121-0.234,0.175-0.351c0.462,0.41,0.73,0.78,0.72,0.997
			c-0.004,0.065-0.032,0.115-0.096,0.163c-0.05,0.032-0.097,0.043-0.146,0.029c-0.082-0.022-0.176-0.098-0.275-0.217
			c-0.07-0.083-0.141-0.188-0.215-0.315C61.26,26.073,61.219,25.999,61.176,25.921z M61.229,26.965
			c-0.014,0.052-0.047,0.082-0.101,0.104c-0.062,0.025-0.114,0.028-0.167,0.005c-0.102-0.046-0.204-0.198-0.292-0.426
			c0.104-0.167,0.207-0.34,0.306-0.516c0.029,0.056,0.06,0.11,0.091,0.159C61.215,26.596,61.271,26.833,61.229,26.965z
			 M61.463,25.176c-0.001-0.003-0.006-0.006-0.007-0.006c0.026-0.066,0.054-0.129,0.078-0.192c0.011,0.009,0.026,0.017,0.04,0.02
			c0.484,0.151,1.018,0.409,1.113,0.648c0.021,0.052,0.02,0.102-0.012,0.153c-0.002,0.003,0,0.005-0.002,0.008
			c-0.002,0.003-0.006,0.003-0.006,0.006c-0.035,0.049-0.076,0.074-0.134,0.08C62.28,25.903,61.811,25.545,61.463,25.176z
			 M60.104,19.42c0.655,0,1.199,0.362,1.377,0.853c-0.158-0.047-0.324-0.086-0.496-0.115c-0.244-0.157-0.545-0.256-0.881-0.256
			c-0.333,0-0.635,0.099-0.878,0.256c-0.174,0.029-0.339,0.068-0.496,0.115C58.907,19.782,59.452,19.42,60.104,19.42z
			 M58.844,23.494c0.235-0.563,0.713-2.296,0.697-3.131c0.054-0.014,0.293-0.086,0.368-0.078c-0.003,0.008-0.349,1.727-0.392,1.912
			c-0.158,0.668-0.44,1.412-0.446,1.751c-0.016,0.7,0.232,1.191,0.675,1.717c0.093,0.109,0.173,0.18,0.261,0.275
			c0.035,0.038,0.066,0.048,0.096,0.051c0.031-0.003,0.063-0.014,0.098-0.051c0.087-0.095,0.166-0.166,0.26-0.275
			c0.446-0.526,0.692-1.018,0.675-1.717c-0.004-0.339-0.289-1.083-0.444-1.751c-0.043-0.185-0.313-1.644-0.375-1.912
			c-0.003-0.02,0.295,0.064,0.351,0.078c-0.016,0.835,0.462,2.568,0.696,3.131c0.102,0.243,0.227,0.543,0.225,0.618
			c-0.092,0.676-0.751,2.148-1.477,3.079v0.013c-0.001,0.001-0.003,0.003-0.004,0.004c0-0.001-0.003-0.004-0.004-0.005
			c0,0.001-0.003,0.004-0.003,0.005c-0.001-0.001-0.003-0.002-0.004-0.004V27.19c-0.725-0.931-1.384-2.402-1.474-3.079
			C58.619,24.037,58.743,23.736,58.844,23.494z M58.96,26.518c0.068-0.157,0.109-0.19,0.159-0.314
			c0.086,0.15,0.174,0.303,0.267,0.447c-0.09,0.214-0.195,0.357-0.293,0.398c-0.052,0.022-0.104,0.02-0.168-0.008
			c-0.052-0.021-0.082-0.054-0.095-0.104C58.799,26.846,58.883,26.693,58.96,26.518z M58.633,26.344
			c-0.12,0.141-0.214,0.264-0.306,0.281c-0.052,0.011-0.093,0-0.141-0.036c-0.057-0.044-0.085-0.096-0.085-0.16
			c-0.002-0.204,0.241-0.527,0.675-0.892c0.05,0.104,0.099,0.209,0.153,0.315C58.834,26.081,58.755,26.201,58.633,26.344z
			 M58.639,25.23c-0.424,0.384-0.817,0.606-1.017,0.583c-0.059-0.009-0.096-0.036-0.127-0.086l-0.007-0.007v-0.008
			c-0.028-0.053-0.031-0.102-0.005-0.154c0.098-0.219,0.59-0.437,1.059-0.57C58.57,25.065,58.604,25.148,58.639,25.23z
			 M57.833,24.354c0.052-0.002,0.493-0.025,0.501,0.009c0.028,0.098,0.058,0.206,0.094,0.315c-0.581,0.208-1.036,0.264-1.222,0.151
			c-0.219-0.132-0.036-0.337,0.125-0.398C57.487,24.37,57.665,24.36,57.833,24.354z M56.112,21.044
			c0.672,0.342,1.122,0.974,1.166,1.688c0.017,0.283-0.023,0.559-0.115,0.814c-0.333,0.914-1.601,1.549-2.501,1.015
			c-0.072-0.044-0.155-0.111-0.228-0.192c0.025-0.02,0.047-0.043,0.068-0.067c0.204,0.11,0.462,0.17,0.616,0.179
			c0.638,0.033,1.237-0.24,1.489-0.843c0.218-0.524,0.176-1.198-0.103-1.697c-0.29-0.517-1.007-0.942-1.781-1.125
			c0.011-0.022-0.013-0.073,0-0.097C55.245,20.744,55.837,20.905,56.112,21.044z M44.964,23.286c4.293-2.07,6.667-2.406,7.926-2.388
			c0.007,0.031,0.014,0.061,0.022,0.09c-2.58,0.28-7.401,2.177-12.203,5.499c-0.175-0.028-0.251-0.042-0.446-0.042
			c-0.203,0-0.394,0.02-0.577,0.05C40.809,25.686,42.836,24.311,44.964,23.286z M41.619,35.893c0.278-1.725,0.577-3.473,0.737-5.211
			c0.118-1.279-0.293-3.157-1.956-3.106c-0.428,0.013-0.942,0.241-1.105,0.657c-0.162,0.416,0.073,1.023,0.592,1.023
			c0.594,0,0.507-0.749,0.19-0.939c0.479-0.049,1.025,0.415,0.913,0.909c-0.13,0.578-0.859,0.714-1.339,0.63
			c-0.049-0.008-0.098-0.021-0.145-0.034c-0.426-0.128-0.782-0.468-0.919-0.897c-0.212-0.667,0.146-1.472,0.779-1.762
			c0.583-0.266,1.367-0.188,1.938,0.082c0.797,0.373,1.256,1.169,1.348,2.028c0.063,0.578,0.04,1.159-0.011,1.737
			c-0.174,2.005-0.659,4.566-1.108,6.526c-0.056-0.011-0.104,0.031-0.16,0.023C41.457,37.063,41.539,36.386,41.619,35.893z
			 M60.115,72.319v0.004c-0.005,0-0.006,0-0.01,0c-0.003,0-0.005,0-0.008,0v-0.004c-4.934-1.09-10.239-3.606-14.582-6.922
			c0.018-0.023,0.035-0.047,0.052-0.072c4.411,3.037,9.648,5.332,14.538,6.357c4.892-1.025,10.128-3.32,14.54-6.357
			c0.016,0.025,0.033,0.049,0.05,0.072C70.353,68.713,65.048,71.229,60.115,72.319z M79.965,57.986
			c-0.674,2.327-3.766,5.331-8.267,8.032c-4.259,2.555-8.778,4.203-11.518,4.203h-0.151c-2.739,0-7.259-1.648-11.515-4.203
			c-4.504-2.701-7.594-5.705-8.268-8.032c-0.468-1.62,0.782-10.861,1.787-18.287c0.557-4.113,1.037-7.665,1.169-9.44
			c0.119-1.586-0.467-2.523-0.978-3.031c-0.112-0.111-0.227-0.203-0.343-0.286c1.021-0.658,2.059-1.286,3.118-1.877
			c2.208-1.231,4.479-2.529,6.955-3.138c0.799-0.196,1.63-0.325,2.454-0.252c0.486,0.044,1.014,0.298,1.259,0.734
			c0.206,0.367,0.18,0.903-0.144,1.194c-0.321,0.291-0.994,0.345-1.22-0.109c0.333,0.024,0.51-0.251,0.497-0.555
			c-0.017-0.378-0.374-0.692-0.741-0.75c-0.536-0.084-0.973,0.385-1.104,0.851c-0.251,0.896,0.485,1.627,1.208,2.008
			c0.35,0.185,0.773,0.264,1.214,0.24c-0.126,0.517-0.059,1.011,0.199,1.471c0.001,0.004,0.005,0.005,0.008,0.009
			c0.003,0.005,0.003,0.012,0.006,0.019c0.513,0.913,1.445,1.062,2,1.062c0.212,0,0.366-0.021,0.424-0.031
			c0.023,0.073,0.551,1.633,2.07,1.653c0.006,0,0.008-0.001,0.013-0.003v0.003c0.003,0,0.005-0.001,0.008-0.001
			s0.005,0.001,0.01,0.001v-0.003c0.003,0.001,0.007,0.003,0.013,0.003c1.519-0.02,2.046-1.58,2.071-1.653
			c0.058,0.01,0.211,0.031,0.422,0.031c0.555,0,1.487-0.149,2.001-1.062c0.003-0.007,0.003-0.013,0.006-0.019
			c0.003-0.004,0.007-0.005,0.007-0.009c0.259-0.459,0.326-0.954,0.202-1.471c0.441,0.024,0.861-0.055,1.213-0.24
			c0.722-0.381,1.457-1.112,1.205-2.008c-0.128-0.465-0.564-0.935-1.101-0.851c-0.368,0.057-0.726,0.371-0.741,0.75
			c-0.014,0.304,0.164,0.579,0.496,0.555c-0.227,0.454-0.898,0.4-1.221,0.109c-0.323-0.292-0.349-0.828-0.142-1.194
			c0.243-0.436,0.771-0.69,1.258-0.734c0.823-0.072,1.655,0.057,2.453,0.252c2.476,0.609,4.747,1.906,6.954,3.138
			c1.061,0.591,2.098,1.219,3.117,1.877c-0.113,0.083-0.228,0.174-0.343,0.286c-0.511,0.507-1.095,1.444-0.978,3.031
			c0.133,1.775,0.613,5.328,1.17,9.44C79.182,47.125,80.433,56.366,79.965,57.986z"/>
	</g>
	<g>
		<path fill="#BCB21F" d="M53.132,90.445c-0.141-0.094-0.257-0.198-0.349-0.32c-0.076-0.101-0.128-0.205-0.161-0.31
			c-0.013,0.005-0.029,0.005-0.042,0.008c-0.002,0.189,0.063,0.391,0.203,0.575c0.092,0.123,0.208,0.229,0.349,0.322
			c0.01,0.006,0.019,0.01,0.028,0.017c0.028-0.074,0.054-0.15,0.071-0.229C53.199,90.489,53.167,90.469,53.132,90.445z"/>
		<path fill="#BCB21F" d="M63.023,82.001c-0.238-0.038-0.43-0.216-0.498-0.442c-0.008,0.002-0.018,0.002-0.028,0.003v0.098
			c0,0.305,0.228,0.568,0.526,0.616c0.043,0.016,0.301,0.118,0.682,0.548l0.076-0.188C63.359,82.13,63.07,82.017,63.023,82.001z"/>
		<path fill="#BCB21F" d="M52.678,88.913c-0.366-0.351-0.964-0.53-1.776-0.53c-0.241,0-0.44,0.004-0.604,0.014v0.191
			c0.004,0.028,0.01,0.056,0.015,0.081c0.163-0.009,0.354-0.013,0.588-0.013c0.812,0,1.411,0.18,1.776,0.534
			c0,0,0.001,0.001,0.003,0.002c0.033-0.054,0.074-0.106,0.125-0.149C52.76,88.993,52.713,88.948,52.678,88.913z"/>
		<path fill="#BCB21F" d="M50.932,89.839c-0.015,0-0.025-0.007-0.039-0.009c-0.105,0.376-0.31,0.675-0.594,0.848v0.231
			c0,0.014,0,0.026,0,0.041c0.318-0.19,0.545-0.536,0.633-0.977c0.009-0.046,0.01-0.092,0.008-0.138
			C50.937,89.836,50.936,89.839,50.932,89.839z"/>
		<path fill="#BCB21F" d="M60.126,89.643c-0.005,0-0.008-0.001-0.015-0.001c-0.001,0.036,0,0.074,0.006,0.112
			c0.057,0.329,0.189,0.605,0.378,0.818l0.077-0.188c-0.197-0.186-0.336-0.442-0.413-0.746
			C60.148,89.64,60.139,89.643,60.126,89.643z"/>
		<path fill="#BCB21F" d="M46.756,89.964c-0.021,0.006-0.044,0.01-0.068,0.015c0.075,0.459,0.3,0.814,0.633,1.006
			c0.001-0.039,0.002-0.075,0.003-0.113v-0.16C47.058,90.56,46.864,90.296,46.756,89.964z"/>
		<path fill="#BCB21F" d="M21.609,82.001c-0.245-0.04-0.438-0.225-0.502-0.457c-0.009,0.002-0.016,0.004-0.024,0.008v0.107
			c0,0.305,0.229,0.568,0.526,0.616c0.044,0.016,0.302,0.118,0.682,0.548l0.078-0.188C21.945,82.13,21.657,82.017,21.609,82.001z"/>
		<path fill="#BCB21F" d="M33.777,82.717c0.016-0.007,0.032-0.016,0.049-0.019c0.01-0.004,0.021-0.004,0.032-0.007
			c-0.066-0.25-0.122-0.331-0.126-0.338c-0.377-0.347-0.853-0.384-0.857-0.384c-0.326-0.015-0.586-0.282-0.591-0.615
			c0,0.003-0.001,0.008-0.001,0.01v0.256c0,0.337,0.264,0.609,0.593,0.624c0.005,0,0.48,0.037,0.857,0.385
			C33.735,82.632,33.752,82.657,33.777,82.717z"/>
		<path fill="#BCB21F" d="M47.031,82.759c0.022-0.02,0.045-0.035,0.07-0.05c-0.044-0.177-0.086-0.276-0.115-0.313
			c-0.38-0.351-0.856-0.387-0.861-0.387c-0.329-0.015-0.593-0.289-0.593-0.624v0.274c0,0.336,0.264,0.609,0.593,0.624
			c0.004,0,0.48,0.037,0.861,0.388C46.999,82.688,47.015,82.717,47.031,82.759z"/>
		<path fill="#BCB21F" d="M34.074,90.714c-0.215-0.113-0.399-0.293-0.528-0.524c-0.048-0.088-0.113-0.227-0.153-0.382
			c-0.011,0.005-0.024,0.008-0.035,0.012c0.003,0.256,0.114,0.51,0.188,0.646c0.128,0.229,0.313,0.41,0.528,0.522
			c0-0.01,0-0.019,0-0.029V90.714z"/>
		<path fill="#BCB21F" d="M40.029,84.216c0.02-0.002,0.041-0.002,0.061-0.006c-0.068-0.394-0.202-0.724-0.41-0.97
			c-0.433-0.37-1.224-0.737-2.044-0.737c-0.23,0-0.428,0.004-0.593,0.014l0.001,0.274c0.164-0.011,0.363-0.015,0.591-0.015
			c0.82,0,1.612,0.368,2.044,0.738C39.838,83.703,39.952,83.941,40.029,84.216z"/>
		<path fill="#BCB21F" d="M88.425,90.605c-0.199-0.114-0.372-0.289-0.487-0.509c-0.043-0.084-0.081-0.179-0.111-0.279
			c-0.014,0.005-0.027,0.01-0.04,0.013c0,0.202,0.072,0.391,0.151,0.541c0.115,0.218,0.286,0.395,0.484,0.507
			c0.003-0.032,0.003-0.06,0.005-0.092L88.425,90.605z"/>
		<path fill="#BCB21F" d="M99.564,89.755c-0.1,0.32-0.393,0.581-0.676,0.738l0.021,0.263c0.293-0.168,0.597-0.444,0.673-0.783
			c0.016-0.072,0.014-0.141,0.009-0.209C99.581,89.762,99.572,89.758,99.564,89.755z"/>
		<path fill="#BCB21F" d="M114.399,75.665c-0.374-0.381-0.929-0.583-1.604-0.583c-1.888,0-4.403,1.515-5.379,4.32
			c0.032,0.005,0.063,0.015,0.095,0.026c1.034-2.645,3.453-4.072,5.284-4.072c0.675,0,1.229,0.201,1.604,0.583
			c0.238,0.241,0.406,0.556,0.504,0.935c0.016-0.003,0.029-0.005,0.046-0.005c0.003,0,0.006,0.001,0.009,0.001
			C114.878,76.366,114.692,75.962,114.399,75.665z"/>
		<path fill="#BCB21F" d="M81.469,84.369c-0.055-0.469-0.2-0.849-0.439-1.129c-0.432-0.37-1.223-0.737-2.043-0.737
			c-0.229,0-0.428,0.004-0.592,0.014v0.274c0.164-0.011,0.362-0.015,0.592-0.015c0.82,0,1.611,0.368,2.043,0.738
			c0.191,0.225,0.316,0.521,0.387,0.871C81.434,84.379,81.451,84.374,81.469,84.369z"/>
		<path fill="#BCB21F" d="M92.535,82.407h-0.312c-0.547,0-0.688,0.084-0.693,0.087c-0.018,0.012-0.07,0.073-0.097,0.217
			c-0.003,0.02-0.009,0.104-0.017,0.318c0.004,0,0.008,0.003,0.013,0.004c0.001-0.024,0.002-0.04,0.004-0.048
			c0.026-0.145,0.079-0.205,0.097-0.217c0.006-0.003,0.146-0.087,0.693-0.087h0.312c0.344,0,0.625-0.284,0.625-0.632v-0.276
			C93.16,82.123,92.879,82.407,92.535,82.407z"/>
		<path fill="#BCB21F" d="M75.175,82.847c0.02-0.012,0.043-0.017,0.066-0.023c-0.08-0.355-0.149-0.463-0.157-0.47
			c-0.376-0.347-0.855-0.384-0.857-0.384c-0.326-0.015-0.587-0.282-0.593-0.615c0,0.003-0.001,0.008-0.001,0.01v0.256
			c0,0.337,0.264,0.609,0.594,0.624c0.002,0,0.481,0.037,0.857,0.385C75.089,82.635,75.127,82.69,75.175,82.847z"/>
		<path fill="#BCB21F" d="M88.353,82.879c0.013-0.005,0.025-0.007,0.035-0.009c-0.005-0.083-0.01-0.149-0.016-0.183
			c-0.018-0.127-0.051-0.158-0.097-0.192c-0.004-0.003-0.147-0.088-0.703-0.088h-0.309c-0.344,0-0.624-0.279-0.624-0.624v0.274
			c0,0.343,0.28,0.624,0.624,0.624h0.309c0.556,0,0.699,0.087,0.703,0.088C88.309,82.794,88.335,82.82,88.353,82.879z"/>
		<path fill="#BCB21F" d="M75.426,90.714c-0.217-0.113-0.4-0.293-0.527-0.524c-0.052-0.092-0.119-0.24-0.158-0.406
			c-0.012,0.008-0.022,0.014-0.032,0.018c-0.003,0.263,0.114,0.525,0.19,0.664c0.127,0.229,0.311,0.41,0.525,0.522
			c0.002-0.01,0.002-0.019,0.002-0.029V90.714z"/>
		<path fill="#BCB21F" d="M54.687,84.941h-0.41c-0.31,0-0.57-0.224-0.617-0.528c-0.034-0.219-0.082-0.417-0.144-0.591
			c-0.073-0.204-0.165-0.392-0.271-0.557c-0.109-0.16-0.214-0.291-0.306-0.382c-0.067-0.061-0.145-0.109-0.231-0.143
			c-0.111-0.043-0.261-0.07-0.432-0.081c-0.078-0.007-0.162-0.01-0.244-0.015h-1.735v0.275h1.735
			c0.082,0.004,0.166,0.007,0.244,0.014c0.171,0.01,0.321,0.039,0.432,0.081c0.087,0.033,0.165,0.082,0.231,0.145
			c0.092,0.089,0.196,0.22,0.306,0.382c0.106,0.163,0.197,0.351,0.271,0.555c0.062,0.173,0.11,0.371,0.144,0.589
			c0.047,0.309,0.307,0.53,0.617,0.53h0.41c0.346,0,0.628-0.28,0.628-0.623c0-0.034-0.002-0.064-0.007-0.095l-0.003-0.086
			C55.26,84.71,55.002,84.941,54.687,84.941z"/>
		<path fill="#BCB21F" d="M84.553,85.938c-0.006,0-0.014-0.003-0.02-0.003c-0.08,0.357-0.199,0.689-0.362,0.99
			c-0.319,0.584-0.755,1.07-1.29,1.445c-0.518,0.364-1.115,0.634-1.771,0.802c-0.606,0.155-1.242,0.237-1.893,0.243
			c0.012,0.071,0.012,0.143-0.003,0.216c-0.118,0.591-0.457,0.95-0.819,1.105v0.054c0.002,0.031,0.005,0.059,0.005,0.086
			c0.003,0.047,0.003,0.086,0.005,0.128c0.357-0.158,0.692-0.515,0.81-1.1c0.015-0.072,0.015-0.144,0.003-0.216
			c0.65-0.005,1.286-0.085,1.893-0.241c0.656-0.167,1.254-0.439,1.771-0.802c0.535-0.378,0.971-0.862,1.29-1.447
			c0.204-0.374,0.34-0.802,0.415-1.264C84.574,85.935,84.564,85.938,84.553,85.938z"/>
		<path fill="#BCB21F" d="M80.236,93.87c-0.096,0.223-0.318,0.38-0.575,0.38h-5.403c-0.249,0-0.463-0.147-0.564-0.36
			c-0.02,0.008-0.037,0.015-0.06,0.019c0.005,0.341,0.282,0.618,0.624,0.618h5.403c0.345,0,0.624-0.281,0.624-0.627v-0.002
			C80.27,93.89,80.252,93.881,80.236,93.87z"/>
		<path fill="#BCB21F" d="M66.789,90.895l0.035,0.09c0.1,0.255,0.201,0.511,0.309,0.765c0.12,0.285,0.199,0.487,0.254,0.634
			c0.034-0.005,0.066-0.013,0.09-0.015c-0.033-0.112-0.121-0.363-0.344-0.895c-0.107-0.253-0.209-0.509-0.309-0.764l-0.035-0.089
			c-0.574-0.04-1.08-0.476-1.304-1.135c-0.049-0.12-0.062-0.237-0.036-0.354h-1.324c0.02,0.046,0.035,0.095,0.045,0.146
			c0.008,0.042,0.008,0.085,0.008,0.127h1.271c-0.025,0.117-0.013,0.236,0.036,0.355C65.709,90.42,66.215,90.855,66.789,90.895z"/>
		<path fill="#BCB21F" d="M71.811,93.88c-0.098,0.219-0.316,0.37-0.57,0.37h-4.61c-0.236,0-0.44-0.132-0.547-0.325
			c-0.024,0.009-0.049,0.017-0.072,0.021c0.022,0.323,0.29,0.58,0.619,0.58h4.61c0.345,0,0.625-0.281,0.625-0.627v-0.01
			C71.845,93.887,71.826,93.884,71.811,93.88z"/>
		<path fill="#BCB21F" d="M64.168,89.549c-0.054,0.379-0.311,0.726-0.324,0.744c-0.236,0.312-0.584,0.487-0.959,0.487
			c-0.067,0-0.128-0.004-0.184-0.012c-0.156,0.413-0.295,0.762-0.375,0.965c-0.031,0.144-0.035,0.201-0.035,0.208
			c0,0.023,0.014,0.062,0.029,0.104c0.001-0.014,0.004-0.023,0.006-0.036c0.08-0.204,0.219-0.553,0.375-0.967
			c0.056,0.01,0.116,0.014,0.184,0.014c0.375,0,0.723-0.178,0.959-0.487c0.016-0.024,0.41-0.549,0.326-1.017
			C64.17,89.55,64.17,89.55,64.168,89.549z"/>
		<path fill="#BCB21F" d="M18.698,89.646c0,0.036,0,0.072,0.006,0.108c0.056,0.329,0.188,0.605,0.377,0.818l0.077-0.188
			c-0.196-0.185-0.335-0.442-0.413-0.744C18.729,89.643,18.714,89.644,18.698,89.646z"/>
		<path fill="#BCB21F" d="M63.559,93.878c-0.096,0.219-0.315,0.372-0.568,0.372h-3.977c-0.26,0-0.482-0.158-0.576-0.383
			c-0.017,0.007-0.032,0.014-0.049,0.02v0.013c0,0.346,0.28,0.627,0.625,0.627h3.977c0.343,0,0.622-0.281,0.622-0.627v-0.012
			C63.596,93.885,63.578,93.883,63.559,93.878z"/>
		<path fill="#BCB21F" d="M119.971,74.95c-0.03,0.136-0.105,0.259-0.214,0.348c-0.112,0.09-0.25,0.139-0.391,0.139h-0.054
			c-0.103,0.01-0.5,0.087-1.098,0.654c-0.339,0.323-0.522,0.516-0.647,1.024c0.027,0.006,0.051,0.014,0.079,0.023
			c0.121-0.331,0.292-0.51,0.568-0.772c0.598-0.568,0.995-0.646,1.098-0.657l0.054,0.002c0.141,0,0.278-0.049,0.391-0.139
			c0.134-0.108,0.22-0.271,0.23-0.444L120,74.953C119.99,74.951,119.98,74.951,119.971,74.95z"/>
		<path fill="#BCB21F" d="M95.963,85.732v-0.261c-1.475,2.67-4.545,8.232-4.545,8.232c-0.02,0.034-0.04,0.066-0.066,0.098
			c-0.255,0.344-0.642,0.564-1.066,0.605c-0.054,0.007-0.1,0.011-0.146,0.011c-0.012,0-2.875-0.003-2.875-0.003
			c-0.239,0-0.444-0.137-0.551-0.336c-0.021,0.007-0.046,0.011-0.07,0.015c0.015,0.331,0.287,0.594,0.621,0.594
			c0,0,2.863,0.005,2.875,0.005c0.047,0,0.093-0.005,0.146-0.013c0.425-0.039,0.812-0.259,1.066-0.603
			c0.026-0.031,0.047-0.064,0.066-0.098c0,0,2.975-5.39,4.473-8.104C95.908,85.82,95.931,85.771,95.963,85.732z"/>
		<path fill="#BCB21F" d="M118.725,79.561c-0.001-0.002-0.002-0.002-0.004-0.002c-0.264,0.722-0.923,1.2-1.756,1.242l-0.041,0.001
			c-0.03,0-0.063-0.001-0.093-0.004c-0.532-0.035-0.977-0.255-1.298-0.635c-0.275-0.325-0.425-0.712-0.501-1.082
			c-0.015,0.005-0.029,0.008-0.045,0.013c0.057,0.443,0.204,0.94,0.546,1.344c0.321,0.379,0.766,0.599,1.298,0.635
			c0.03,0.003,0.063,0.005,0.093,0.005l0.041-0.002c0.929-0.045,1.647-0.637,1.833-1.503
			C118.774,79.57,118.748,79.567,118.725,79.561z"/>
		<path fill="#BCB21F" d="M43.276,85.298c-0.052,0.606-0.199,1.156-0.456,1.627c-0.32,0.583-0.754,1.07-1.291,1.445
			c-0.517,0.364-1.114,0.634-1.771,0.802c-0.606,0.155-1.244,0.237-1.892,0.243c0.011,0.071,0.009,0.143-0.005,0.216
			c-0.118,0.591-0.456,0.95-0.821,1.105v0.054c0.006,0.031,0.008,0.059,0.008,0.086c0.001,0.047,0.003,0.086,0.004,0.128
			c0.36-0.158,0.693-0.515,0.81-1.1c0.014-0.072,0.016-0.144,0.005-0.216c0.648-0.005,1.285-0.085,1.892-0.241
			c0.657-0.167,1.254-0.439,1.771-0.802c0.537-0.378,0.971-0.862,1.291-1.447c0.295-0.539,0.45-1.181,0.477-1.899
			C43.29,85.299,43.283,85.298,43.276,85.298z"/>
		<path fill="#BCB21F" d="M118.253,93.289c-0.042,0.129-0.126,0.243-0.24,0.319c-0.231,0.158-2.364,1.553-5.174,1.553
			c-0.107,0-0.215-0.002-0.323-0.007c-1.461-0.056-2.871-0.37-4.194-0.938c-1.22-0.523-2.244-1.276-3.05-2.239
			c-0.394-0.474-0.753-1.085-1.068-1.82c-0.015,0-0.029,0.001-0.042,0.001c-0.362,0-0.712-0.148-0.962-0.404
			c-0.091-0.096-0.214-0.273-0.304-0.48c-0.024,0.008-0.053,0.015-0.08,0.02c0.069,0.313,0.258,0.602,0.384,0.733
			c0.25,0.258,0.6,0.406,0.962,0.406c0.013,0,0.027,0,0.042-0.001c0.315,0.735,0.675,1.347,1.068,1.82
			c0.806,0.963,1.83,1.716,3.05,2.238c1.323,0.568,2.733,0.883,4.194,0.938c0.108,0.005,0.216,0.007,0.323,0.007
			c2.81,0,4.942-1.396,5.174-1.553c0.152-0.103,0.252-0.267,0.27-0.451c0.006-0.045,0.009-0.086,0.012-0.128
			C118.281,93.299,118.269,93.296,118.253,93.289z"/>
		<path fill="#BCB21F" d="M95.849,90.532c-0.155-0.111-0.282-0.263-0.378-0.45c-0.054-0.105-0.102-0.221-0.129-0.344
			c-0.006,0.003-0.01,0.006-0.019,0.006c-0.025,0.223,0.056,0.433,0.147,0.611c0.096,0.187,0.223,0.339,0.378,0.452
			c0.001,0,0.047,0.027,0.115,0.064v-0.274C95.896,90.562,95.85,90.532,95.849,90.532z"/>
		<path fill="#BCB21F" d="M100.645,94.051c-0.098,0.215-0.314,0.366-0.566,0.366h-5.289c-0.229,0-0.428-0.126-0.538-0.312
			c-0.023,0.013-0.052,0.021-0.079,0.026c0.031,0.313,0.296,0.559,0.617,0.559h5.289c0.342,0,0.618-0.273,0.624-0.613
			C100.683,94.069,100.663,94.063,100.645,94.051z"/>
		<path fill="#BCB21F" d="M100.677,81.933c-0.072,0.263-0.309,0.457-0.592,0.46l-0.321,0.003c-0.549,0.005-0.692,0.096-0.694,0.096
			c-0.021,0.015-0.06,0.041-0.086,0.157c-0.003,0.094-0.006,0.187-0.008,0.283c0.002,0,0.005-0.002,0.008-0.002
			c0-0.001,0-0.003,0-0.006c0.026-0.118,0.065-0.144,0.086-0.156c0.002-0.002,0.146-0.091,0.694-0.097l0.321-0.004
			c0.34-0.003,0.618-0.284,0.618-0.626v-0.098C100.695,81.94,100.686,81.937,100.677,81.933z"/>
		<path fill="#BCB21F" d="M56.8,89.811c-0.108,0.36-0.324,0.562-0.547,0.686c-0.167,1.14-0.757,2.21-1.539,2.776
			c-0.492,0.356-1.068,0.62-1.715,0.787c-0.622,0.163-1.283,0.244-1.964,0.244c-0.062,0-0.186-0.003-0.37-0.01
			c-0.173-0.005-0.372-0.012-0.595-0.018l-0.699-0.018c-0.201-0.006-0.4-0.009-0.61-0.009h-2.605c-0.241,0-0.448-0.138-0.551-0.339
			c-0.022,0.003-0.048,0.003-0.07,0.007c0.008,0.335,0.284,0.608,0.622,0.608h2.605c0.21,0,0.409,0.001,0.61,0.007l0.699,0.017
			c0.224,0.007,0.422,0.014,0.595,0.02c0.184,0.006,0.308,0.009,0.37,0.009c0.681,0,1.342-0.082,1.964-0.244
			c0.647-0.167,1.223-0.434,1.715-0.788c0.782-0.565,1.373-1.637,1.539-2.775c0.251-0.139,0.493-0.373,0.584-0.823
			c0.007-0.036,0.01-0.073,0.01-0.111C56.831,89.83,56.817,89.819,56.8,89.811z"/>
		<path fill="#BCB21F" d="M6.824,89.682c-0.14,0.34-0.376,0.604-0.678,0.759c0.002,0.098,0.005,0.185,0.007,0.27
			c0.37-0.191,0.641-0.549,0.754-1.009C6.878,89.696,6.852,89.688,6.824,89.682z"/>
		<path fill="#BCB21F" d="M11.992,86.443c0.018,0,0.034-0.005,0.05-0.005c-0.137-0.847-0.465-1.537-0.991-2.045
			c-0.715-0.688-1.82-1.037-3.286-1.037c-0.445,0-0.818,0.01-1.111,0.029c-0.198,0.012-0.382,0.033-0.553,0.063
			c0.001,0.046,0.008,0.183,0.011,0.272c0.169-0.028,0.349-0.049,0.542-0.061c0.293-0.02,0.666-0.029,1.111-0.029
			c1.465,0,2.571,0.35,3.286,1.037C11.52,85.12,11.833,85.719,11.992,86.443z"/>
		<path fill="#BCB21F" d="M9.524,76.604c0.004,0,0.007-0.002,0.011-0.002c0.019,0,0.035,0.004,0.052,0.007
			c-0.083-0.477-0.233-0.757-0.339-0.835l-3.099-0.004l-0.008,0.267c0.007,0.001,0.013,0.005,0.021,0.008l3.086,0.003
			C9.33,76.109,9.44,76.298,9.524,76.604z"/>
		<path fill="#BCB21F" d="M13.51,79.517c-0.243,0.762-0.919,1.273-1.742,1.273c-0.43,0-0.866-0.144-1.226-0.408
			c-0.561-0.41-0.78-0.982-0.863-1.557c-0.01,0-0.02,0.001-0.03,0.003c0.049,0.66,0.243,1.353,0.893,1.828
			c0.36,0.262,0.796,0.407,1.226,0.407c0.899,0,1.623-0.612,1.795-1.496C13.545,79.55,13.528,79.533,13.51,79.517z"/>
		<path fill="#BCB21F" d="M2.482,76.721c0.016-0.001,0.032-0.002,0.049-0.002c-0.132-0.795-0.292-1.164-0.388-1.252
			c-0.696-0.643-1.542-0.702-1.551-0.702C0.261,74.748,0,74.477,0,74.142v0.274c0,0.332,0.261,0.607,0.593,0.624
			c0.008,0,0.855,0.058,1.551,0.701C2.228,75.818,2.362,76.11,2.482,76.721z"/>
		<path fill="#BCB21F" d="M14.381,75.166l0.031-0.001c0.153-0.012,0.292-0.071,0.392-0.169c0.125-0.116,0.199-0.281,0.199-0.454
			v-0.274c0,0.173-0.073,0.338-0.199,0.454c-0.1,0.098-0.238,0.158-0.392,0.168l-0.031,0.002c-0.224,0.013-0.83,0.107-1.473,0.754
			c-0.334,0.334-0.562,0.835-0.677,1.488c0.021,0.003,0.041,0.008,0.062,0.013c0.125-0.524,0.328-0.939,0.615-1.227
			C13.552,75.274,14.158,75.177,14.381,75.166z"/>
		<path fill="#BCB21F" d="M16.423,89.626c-0.211,0.532-0.603,0.853-1.169,0.949c-0.026,0.004-0.053,0.006-0.078,0.008
			c-0.387,0.932-1.171,1.548-1.74,1.938c-2.242,1.533-5.277,1.762-6.888,1.762c-0.458,0-0.755-0.02-0.829-0.025l-4.725,0.002
			c-0.257,0-0.477-0.156-0.573-0.376c-0.018,0-0.034-0.003-0.052-0.003v0.029c0,0.344,0.279,0.624,0.625,0.624h4.725
			c0.074,0.004,0.371,0.023,0.829,0.023c1.611,0,4.646-0.229,6.888-1.763c0.569-0.389,1.354-1.006,1.74-1.937
			c0.025-0.002,0.052-0.004,0.078-0.009c0.65-0.111,1.07-0.513,1.25-1.196C16.476,89.646,16.452,89.635,16.423,89.626z"/>
		<path fill="#BCB21F" d="M25.375,90.895l0.035,0.088c0.101,0.257,0.202,0.513,0.309,0.767c0.12,0.285,0.199,0.487,0.254,0.634
			c0.035-0.005,0.066-0.013,0.091-0.015c-0.034-0.112-0.122-0.365-0.345-0.895c-0.106-0.253-0.208-0.509-0.309-0.766l-0.035-0.087
			c-0.575-0.04-1.079-0.476-1.304-1.135c-0.049-0.12-0.061-0.237-0.036-0.354h-1.324c0.02,0.046,0.036,0.095,0.044,0.146
			c0.007,0.042,0.007,0.085,0.008,0.127h1.271c-0.025,0.117-0.013,0.236,0.036,0.355C24.296,90.42,24.8,90.855,25.375,90.895z"/>
		<path fill="#BCB21F" d="M30.388,93.894c-0.1,0.21-0.313,0.356-0.562,0.356h-4.611c-0.269,0-0.496-0.171-0.584-0.409
			c-0.013,0.004-0.026,0.008-0.04,0.013v0.046c0,0.346,0.28,0.627,0.624,0.627h4.611c0.344,0,0.624-0.281,0.624-0.627l0,0
			C30.429,93.897,30.408,93.895,30.388,93.894z"/>
		<path fill="#BCB21F" d="M22.755,89.549c-0.055,0.379-0.312,0.726-0.326,0.744c-0.236,0.312-0.586,0.487-0.958,0.487
			c-0.067,0-0.127-0.004-0.183-0.012c-0.158,0.413-0.296,0.762-0.377,0.965c-0.031,0.144-0.033,0.201-0.033,0.208
			c0,0.023,0.012,0.062,0.027,0.104c0.003-0.014,0.003-0.023,0.006-0.036c0.081-0.204,0.219-0.553,0.377-0.967
			c0.056,0.01,0.116,0.014,0.183,0.014c0.373,0,0.723-0.178,0.958-0.487c0.018-0.024,0.412-0.549,0.326-1.017
			C22.755,89.55,22.755,89.55,22.755,89.549z"/>
		<path fill="#BCB21F" d="M1.905,89.622c-0.021,0.001-0.041,0.004-0.063,0.006c0.001,0.005,0,0.012,0.001,0.018
			c0.102,0.625,0.471,0.979,0.853,1.134c0.003-0.098,0.005-0.191,0.007-0.271C2.375,90.377,2.053,90.097,1.905,89.622z"/>
		<path fill="#BCB21F" d="M38.881,93.878c-0.098,0.219-0.316,0.372-0.571,0.372h-5.404c-0.248,0-0.459-0.146-0.561-0.356
			c-0.022,0.001-0.043,0.004-0.063,0.004v0.002c0,0.346,0.28,0.627,0.624,0.627h5.404c0.344,0,0.624-0.281,0.624-0.627v-0.016
			C38.916,93.884,38.898,93.88,38.881,93.878z"/>
		<path fill="#BCB21F" d="M22.155,93.854c-0.091,0.232-0.316,0.396-0.58,0.396h-3.976c-0.26,0-0.482-0.158-0.576-0.386
			c-0.016,0.006-0.032,0.011-0.048,0.016v0.02c0,0.346,0.28,0.627,0.625,0.627h3.976c0.345,0,0.624-0.281,0.624-0.627v-0.036
			C22.184,93.86,22.17,93.855,22.155,93.854z"/>
		<path fill="#BCB21F" d="M52.487,87.372"/>
		<g>
			<path fill="#BCB21F" d="M119.53,74.024c-0.036-0.026-0.078-0.039-0.125-0.039c-0.027,0-0.054,0.003-0.079,0.015
				c-0.016,0.005-0.414,0.158-1.006,0.158c-0.405,0-0.804-0.069-1.186-0.209c-1.639-0.597-3.19-0.899-4.607-0.899
				c-4.996,0-7.182,3.729-7.892,5.334c-0.573,1.302-0.929,2.932-1.058,4.846c-0.111,1.698-0.019,3.221,0.279,4.524
				c0.04,0.18-0.328,0.679-0.47,0.768c-0.094,0.059-0.133,0.012-0.172,0.121c-0.091,0.243,0.114,0.654,0.28,0.824
				c0.173,0.179,0.418,0.278,0.665,0.278c0.103,0,0.203-0.016,0.297-0.048c0.33,0.835,0.71,1.513,1.133,2.017
				c0.76,0.913,1.734,1.628,2.893,2.125c1.274,0.546,2.637,0.851,4.049,0.904c0.103,0.005,0.205,0.006,0.307,0.006
				c2.688,0,4.722-1.332,4.943-1.482c0.053-0.035,0.085-0.091,0.092-0.152c0.077-0.746-0.011-0.922-0.107-0.994
				c-0.036-0.029-0.081-0.046-0.127-0.046c-0.039,0-0.075,0.012-0.107,0.031c-0.02,0.01-1.856,1.064-4.204,1.064
				c-0.171,0-0.339-0.005-0.506-0.017c-1.129-0.075-2.138-0.359-3.003-0.844c-0.866-0.486-1.595-1.162-2.164-2.008
				c-0.163-0.246-0.315-0.491-0.452-0.733c0.119-0.129,0.207-0.285,0.265-0.471c0.018-0.063,0.003-0.131-0.046-0.191
				c-0.043-0.059-0.119-0.083-0.175-0.083c-0.005,0-0.015,0.001-0.02,0.001c-0.129,0-0.607-0.111-0.806-1.537
				c-0.152-1.084-0.339-2.429-0.242-3.886c0.091-1.371,0.361-2.705,0.827-4.079c1.022-3.021,3.746-4.652,5.789-4.652
				c0.788,0,1.443,0.245,1.896,0.706c0.495,0.499,0.736,1.229,0.724,2.171c-0.001,0.088-0.011,0.186-0.022,0.287l-0.012,0.112
				c-0.1,1.03,0.214,2.355,1.467,2.44c0.031,0.002,0.063,0.005,0.097,0.003c1.709-0.083,1.933-2.206,0.737-2.796
				c-0.122-0.062-0.261-0.099-0.399-0.107c-0.025-0.003-0.048-0.003-0.073-0.003c-0.044,0-0.089,0.003-0.134,0.008
				c0.146-0.972,0.383-1.249,0.855-1.699c0.771-0.731,1.29-0.77,1.388-0.77c0.01,0,0.016,0,0.019,0
				c0.005,0.001,0.017,0.003,0.028,0.003c0.047,0,0.096-0.017,0.131-0.049c0.047-0.038,0.076-0.091,0.079-0.151l0.042-0.615
				C119.622,74.138,119.591,74.068,119.53,74.024z M106.16,88.106c0.07,0.233,0.154,0.431,0.251,0.592
				c0.07,0.116,0.149,0.215,0.233,0.298c0.096,0.09,0.201,0.158,0.313,0.2c-0.024,0.035-0.052,0.069-0.082,0.102
				c-0.02,0.02-0.04,0.038-0.059,0.052c-0.021,0.017-0.04,0.03-0.063,0.045c-0.078,0.047-0.166,0.072-0.245,0.072
				c-0.143,0-0.258-0.067-0.321-0.188c-0.035-0.07-0.107-0.113-0.183-0.113c-0.005,0-0.011,0-0.02,0.001
				c-0.083,0.006-0.153,0.059-0.186,0.137c-0.074,0.196-0.238,0.31-0.449,0.31c-0.194,0-0.42-0.112-0.462-0.357
				c-0.015-0.084-0.077-0.152-0.162-0.172c-0.016-0.004-0.03-0.005-0.047-0.005c-0.061,0-0.119,0.026-0.158,0.071
				c-0.006,0.004-0.007,0.008-0.01,0.012c-0.017,0.022-0.036,0.039-0.055,0.057c-0.017,0.014-0.036,0.028-0.06,0.044
				c-0.073,0.043-0.155,0.067-0.236,0.067c-0.187,0-0.534-0.155-0.534-0.55c0.18-0.111,0.392-0.213,0.55-0.646
				c0.034-0.09,0.066-0.188,0.092-0.272l0.011-0.041c0.012-0.034,0.013-0.07,0.004-0.106c-0.061-0.257-0.178-0.854-0.265-1.851h0.23
				c0.166,1.104,0.447,2.244,0.946,2.215c0.389-0.022,0.462-1.144,0.475-2.215h0.198c0.049,0.705,0.112,1.343,0.13,1.479
				c0.037,0.243,0.08,0.469,0.136,0.669C106.143,88.043,106.152,88.074,106.16,88.106z M117.701,78.496
				c0.317,0.072,0.321,0.608,0.179,0.864c-0.329,0.592-1.395,0.559-1.69,0.029c-0.084-0.126-0.163-0.313-0.227-0.598
				c-0.132-0.597-0.081-1.188-0.081-1.798c0-0.562-0.201-1.158-0.43-1.646c0.241,0.034,0.56,0.925,0.612,1.149
				c0.122,0.533,0.13,1.085,0.188,1.629c0.005,0.061,0.011,0.122,0.021,0.184c0.055,0.366,0.167,0.811,0.582,0.9
				C117.31,79.31,117.702,78.979,117.701,78.496z"/>
			<path fill="#BCB21F" d="M56.235,89.34c-0.167-0.01-0.286-0.196-0.483-0.522c-0.236-0.392-0.559-0.93-1.226-1.363
				c-0.488-0.315-0.96-0.522-1.491-0.646c-0.553-0.128-1.139-0.193-1.741-0.193c-0.239,0-0.526,0.017-0.852,0.046
				c-0.189,0.019-0.356,0.053-0.503,0.086l-0.015,0.003c-0.012,0.003-0.025,0.005-0.038,0.007v-4.52h2.162
				c0.086,0.002,0.176,0.006,0.255,0.012c0.218,0.015,0.403,0.051,0.551,0.108c0.139,0.051,0.263,0.131,0.369,0.23
				c0.114,0.111,0.238,0.264,0.368,0.455c0.124,0.189,0.229,0.407,0.312,0.641c0.072,0.201,0.126,0.425,0.164,0.667
				c0.016,0.104,0.104,0.181,0.21,0.181h0.41c0.121,0,0.216-0.096,0.216-0.214c0-0.017-0.001-0.033-0.005-0.049l-0.087-3.198
				c-0.003-0.115-0.096-0.206-0.212-0.206h-3.496c-0.006,0-0.014,0-0.021,0h-4.924c-0.118,0-0.212,0.097-0.212,0.213v0.309
				c0,0.114,0.089,0.208,0.203,0.212c0.006,0,0.617,0.036,1.128,0.509c0.215,0.197,0.45,1.129,0.467,3.15
				c-0.001,0.397-0.001,0.796-0.001,1.194c0,0.654-0.001,1.311-0.001,1.967c0,0.133,0.022,0.29-0.001,0.423
				c-0.028,0.164-0.121,0.321-0.261,0.416c-0.145,0.098-0.419,0.123-0.388,0.353c0.073,0.525,0.372,0.764,0.646,0.822v0.451
				c-0.016,0.596-0.042,1.266-0.058,1.347c-0.042,0.212-0.134,0.365-0.278,0.46c-0.109,0.071-0.359,0.157-0.932,0.157h-0.313
				c-0.116,0-0.212,0.095-0.212,0.211v0.57c0,0.117,0.096,0.212,0.212,0.212h2.605c0.213,0,0.417,0.002,0.622,0.008l0.698,0.018
				c0.226,0.007,0.426,0.013,0.599,0.02c0.176,0.006,0.295,0.009,0.355,0.009c0.648,0,1.275-0.078,1.862-0.231
				c0.597-0.155,1.128-0.398,1.576-0.724c0.77-0.556,1.3-1.675,1.4-2.717c0.278-0.108,0.485-0.251,0.56-0.627
				c0.012-0.061-0.003-0.123-0.041-0.173C56.354,89.373,56.297,89.343,56.235,89.34z M49.711,89.832c-0.019,0-0.023,0-0.028,0
				l-0.015-0.003c-0.02-0.004-0.038-0.01-0.056-0.019c-0.044-0.023-0.079-0.056-0.104-0.101c-0.036-0.064-0.107-0.104-0.186-0.104
				c-0.005,0-0.022,0-0.028,0c-0.083,0.01-0.155,0.067-0.177,0.145c-0.073,0.252-0.264,0.271-0.319,0.271
				c-0.042,0-0.249-0.013-0.304-0.261c-0.018-0.08-0.089-0.141-0.177-0.153c-0.01-0.002-0.021-0.002-0.031-0.002
				c-0.078,0-0.15,0.039-0.187,0.102c-0.029,0.052-0.073,0.09-0.132,0.115c-0.021,0.009-0.042,0.016-0.063,0.018l-0.012,0.002
				c-0.011,0.004-0.021,0.007-0.032,0.007c-0.006,0-0.018-0.003-0.02-0.003c-0.05-0.004-0.207-0.027-0.299-0.241
				c0.02,0.045,0.358-0.302,0.379-0.332c0.073-0.105,0.14-0.227,0.173-0.351c0.045-0.171,0.054-2.28,0.046-2.28h0.149
				c0.101,1.377,0.281,2.3,0.488,2.3c0.208,0,0.389-0.923,0.488-2.3h0.166l0.001,1.928c0,0.008,0,0.012,0,0.018
				c0.057,0.383,0.241,0.848,0.582,0.999c-0.081,0.163-0.202,0.235-0.295,0.245C49.723,89.832,49.711,89.832,49.711,89.832z
				 M53.67,90.351c-0.052,0.638-0.472,1.253-0.784,1.545c-0.232,0.215-0.513,0.378-0.834,0.48c-0.331,0.106-0.698,0.16-1.089,0.16
				h-0.287c-0.13,0-0.249-0.003-0.367-0.009c-0.086-0.004-0.167-0.007-0.246-0.011c-0.058-0.093-0.098-0.207-0.118-0.338
				c-0.021-0.146-0.045-0.743-0.059-1.27v-0.501c0.255-0.064,0.543-0.297,0.64-0.787c0.013-0.066-0.006-0.138-0.052-0.187
				c-0.041-0.042-0.096-0.068-0.154-0.068c-0.011,0-0.021,0.002-0.032,0.003H50.28c-0.121,0-0.328-0.286-0.394-0.75v-0.563
				c0.003-0.002,0.005-0.003,0.008-0.003c0.106-0.03,0.217-0.059,0.321-0.065c0.189-0.012,0.413-0.02,0.686-0.02
				c0.923,0,1.617,0.22,2.063,0.65c0.121,0.116,0.275,0.268,0.342,0.427c0.074,0.179,0.006,0.169-0.146,0.248
				c-0.255,0.13-0.195,0.39-0.05,0.582c0.069,0.093,0.152,0.163,0.247,0.226c0.023,0.016,0.316,0.183,0.317,0.171
				C53.675,90.297,53.673,90.323,53.67,90.351z M55.672,89.791c-0.017,0.006-0.036,0.01-0.059,0.013
				c-0.018,0.003-0.023,0.004-0.028,0.004l-0.029-0.005c-0.068-0.01-0.126-0.051-0.163-0.118c-0.039-0.063-0.109-0.104-0.188-0.104
				c-0.004,0-0.021,0.001-0.026,0.001c-0.085,0.009-0.156,0.065-0.179,0.145c-0.071,0.25-0.261,0.27-0.317,0.27
				c-0.042,0-0.249-0.011-0.304-0.258c-0.019-0.081-0.089-0.145-0.176-0.156c-0.01-0.001-0.021-0.001-0.032-0.001
				c-0.077,0-0.148,0.04-0.186,0.103c-0.037,0.064-0.095,0.1-0.138,0.116c-0.02,0.008-0.039,0.014-0.06,0.017l-0.018,0.004
				c-0.008,0-0.017,0.003-0.026,0.003c0,0-0.013-0.001-0.015-0.001c-0.052-0.005-0.208-0.031-0.299-0.244
				c0.128-0.057,0.255-0.164,0.367-0.316c0.042-0.055,0.047-0.125,0.021-0.187c-0.14-0.305-0.339-0.575-0.596-0.804
				c-0.042-0.039-0.091-0.068-0.137-0.103c0.013-0.008,0.026-0.03,0.044-0.024c0.566,0.154,0.721,0.834,1.288,0.755
				c0.599-0.085,0.054-0.674-0.126-0.849c-0.365-0.357-0.813-0.624-1.278-0.837c1.112,0.21,1.796,0.904,2.329,1.725
				c0.174,0.268,0.328,0.503,0.568,0.611C55.853,89.668,55.768,89.755,55.672,89.791z"/>
			<path fill="#BCB21F" d="M29.846,92.836c-0.379-0.037-0.662-0.127-0.841-0.266c-0.18-0.14-0.328-0.338-0.438-0.591l-0.552-1.262
				l-0.24-0.687c0.225-0.123,0.449-0.438,0.444-0.705c-0.005-0.29-0.326-0.303-0.537-0.367c-0.297-0.093-0.457-0.265-0.57-0.554
				c-0.008-0.021-2.873-7.366-2.873-7.366c-0.019-0.101-0.106-0.176-0.209-0.176h-2.323c-0.118,0-0.212,0.097-0.212,0.213v0.309
				c0,0.108,0.083,0.2,0.193,0.211c0.001,0.001,0.474,0.076,1.154,0.974l-2.395,5.785c-0.455,0.437-0.957,0.801-1.109,0.808
				c-0.006,0-0.012,0-0.018,0c-0.057,0-0.112,0.023-0.152,0.063c-0.047,0.05-0.07,0.118-0.058,0.187
				c0.078,0.465,0.325,0.72,0.556,0.822c-0.039,0.095-0.07,0.168-0.091,0.222l-0.35,0.846c-0.225,0.5-0.423,0.853-0.589,1.039
				c-0.227,0.254-0.587,0.422-1.07,0.497c-0.103,0.016-0.179,0.104-0.179,0.211v0.579c0,0.117,0.095,0.212,0.213,0.212h3.976
				c0.117,0,0.211-0.095,0.211-0.212v-0.579c0-0.118-0.095-0.213-0.211-0.213c-0.337,0-0.613-0.08-0.821-0.238
				c-0.093-0.069-0.287-0.426-0.287-0.655c0-0.053,0.009-0.15,0.05-0.329c0.092-0.233,0.273-0.691,0.474-1.229
				c0.05-0.035,0.094-0.075,0.132-0.123c0.122,0.081,0.199,0.108,0.347,0.108c0.253,0,0.481-0.128,0.631-0.325
				c0.121-0.158,0.405-0.682,0.152-0.839c-0.105-0.066-0.232,0.003-0.338-0.095c-0.097-0.09-0.133-0.268-0.159-0.392h3.13
				c-0.116,0.196-0.29,0.26-0.355,0.334c-0.062,0.07-0.136,0.155-0.077,0.284c0.17,0.519,0.607,0.979,1.193,0.855
				c0.147,0.37,0.293,0.75,0.448,1.121c0.367,0.873,0.395,1.056,0.395,1.092c0,0.212-0.085,0.279-0.178,0.316
				c-0.121,0.052-0.412,0.113-1.099,0.113c-0.116,0-0.212,0.095-0.212,0.213v0.579c0,0.117,0.096,0.212,0.212,0.212h4.611
				c0.116,0,0.212-0.095,0.212-0.212v-0.579C30.039,92.938,29.955,92.846,29.846,92.836z M21.863,89.532
				c-0.054,0.153-0.16,0.344-0.374,0.344c-0.118,0-0.229-0.065-0.271-0.158c-0.026-0.058-0.079-0.096-0.146-0.109
				c-0.006-0.003-0.022-0.009-0.045-0.009c-0.005,0-0.013,0.002-0.017,0.002c-0.088,0.011-0.159,0.077-0.173,0.165
				c-0.012,0.063-0.034,0.114-0.066,0.15c-0.022,0.024-0.047,0.04-0.075,0.052c-0.021,0.007-0.043,0.012-0.064,0.012
				c-0.092,0-0.194-0.066-0.199-0.213c-0.001-0.094-0.07-0.173-0.162-0.192c-0.008-0.001-0.025-0.003-0.033-0.003
				c-0.029,0-0.054,0.009-0.072,0.015c-0.07,0.024-0.102,0.07-0.118,0.104c-0.017,0.036-0.039,0.063-0.066,0.078
				c-0.014,0.008-0.028,0.014-0.041,0.014h-0.007c-0.096-0.002-0.227-0.112-0.304-0.313c0.211-0.088,0.494-0.286,0.845-0.594
				c0.069-0.061,0.131-0.116,0.177-0.16c0.055-0.049,0.093-0.086,0.109-0.102c0.02-0.018,0.034-0.042,0.046-0.068l0.143-0.343
				l0.158-0.386l0.486-1.176h0.091c0,0-0.266,0.865-0.401,1.325C21.149,88.43,21.287,89.409,21.863,89.532z M23.446,83.85
				l0.431,1.315c0.003,0.019,0.008,0.033,0.015,0.048l0.762,2.295h-2.52L23.446,83.85z M21.782,88.383l0.081-0.281h2.996
				l0.068,0.281H21.782z M27.484,89.701c-0.021,0.007-0.042,0.015-0.063,0.019c-0.016,0.001-0.032,0.006-0.047,0.006
				c-0.003-0.002-0.013-0.002-0.016-0.003c-0.07-0.005-0.116-0.034-0.149-0.097c-0.035-0.064-0.103-0.104-0.177-0.104
				c-0.009,0-0.018,0-0.027,0.002c-0.08,0.01-0.148,0.065-0.169,0.144c-0.072,0.264-0.286,0.284-0.35,0.284
				c-0.13,0-0.297-0.073-0.341-0.277c-0.016-0.079-0.084-0.141-0.169-0.154c-0.007-0.001-0.017-0.001-0.027-0.001
				c-0.075,0-0.142,0.039-0.178,0.104c-0.01,0.018-0.028,0.036-0.044,0.055c-0.017,0.016-0.035,0.029-0.054,0.041
				c-0.071,0.052-0.156,0.078-0.239,0.078c-0.243,0-0.417-0.187-0.488-0.512c-0.018-0.082,0.353-0.468,0.393-0.611
				c0.063-0.222-0.003-0.326-0.053-0.547c-0.087-0.368-0.261-0.938-0.479-1.479h0.145c0,0,0.462,1.394,0.917,1.875
				c0.445,0.47,0.442-0.297,0.278-0.862c-0.162-0.565-0.355-1.035-0.355-1.035l0.148,0.019l0.123,0.307l0.275,0.681l0.343,0.849
				c0.054,0.146,0.145,0.294,0.267,0.432c0.053,0.059,0.111,0.115,0.172,0.166c0.204,0.169,0.447,0.289,0.671,0.333
				C27.721,89.55,27.611,89.657,27.484,89.701z"/>
			<path fill="#BCB21F" d="M71.261,92.836c-0.38-0.037-0.663-0.127-0.843-0.266c-0.178-0.14-0.328-0.338-0.438-0.591l-0.552-1.262
				l-0.24-0.687c0.226-0.123,0.448-0.438,0.445-0.705c-0.006-0.29-0.326-0.303-0.538-0.367c-0.296-0.093-0.457-0.265-0.567-0.554
				c-0.01-0.021-2.874-7.366-2.874-7.366c-0.019-0.101-0.105-0.176-0.21-0.176h-2.322c-0.116,0-0.211,0.097-0.211,0.213v0.309
				c0,0.108,0.084,0.2,0.192,0.211c0.001,0.001,0.472,0.076,1.153,0.974l-2.395,5.785c-0.455,0.437-0.956,0.801-1.108,0.808
				c-0.007,0-0.013,0-0.018,0c-0.057,0-0.112,0.023-0.152,0.063c-0.049,0.05-0.07,0.118-0.059,0.187
				c0.079,0.465,0.325,0.72,0.555,0.822c-0.039,0.095-0.07,0.168-0.09,0.222l-0.349,0.846c-0.225,0.5-0.424,0.853-0.591,1.039
				c-0.227,0.254-0.586,0.422-1.069,0.497c-0.104,0.016-0.18,0.104-0.18,0.211v0.579c0,0.117,0.095,0.212,0.214,0.212h3.977
				c0.117,0,0.213-0.095,0.213-0.212v-0.579c0-0.118-0.096-0.213-0.213-0.213c-0.338,0-0.614-0.08-0.822-0.238
				c-0.092-0.069-0.287-0.426-0.287-0.655c0-0.053,0.009-0.15,0.051-0.329c0.092-0.233,0.273-0.691,0.475-1.229
				c0.049-0.035,0.094-0.075,0.132-0.123c0.122,0.081,0.198,0.108,0.347,0.108c0.252,0,0.48-0.128,0.631-0.325
				c0.122-0.158,0.405-0.682,0.154-0.839c-0.106-0.066-0.234,0.003-0.34-0.095c-0.096-0.09-0.13-0.268-0.158-0.392h3.131
				c-0.117,0.196-0.289,0.26-0.355,0.334c-0.063,0.07-0.135,0.155-0.078,0.284c0.172,0.519,0.608,0.979,1.191,0.855
				c0.148,0.37,0.295,0.75,0.449,1.121c0.368,0.873,0.396,1.056,0.396,1.092c0,0.212-0.084,0.279-0.178,0.316
				c-0.123,0.052-0.412,0.113-1.099,0.113c-0.118,0-0.211,0.095-0.211,0.213v0.579c0,0.117,0.093,0.212,0.211,0.212h4.61
				c0.115,0,0.211-0.095,0.211-0.212v-0.579C71.451,92.938,71.369,92.846,71.261,92.836z M63.275,89.532
				c-0.052,0.153-0.16,0.344-0.371,0.344c-0.119,0-0.229-0.065-0.273-0.158c-0.024-0.058-0.078-0.096-0.144-0.109
				c-0.006-0.003-0.024-0.009-0.046-0.009c-0.006,0-0.013,0.002-0.018,0.002c-0.088,0.011-0.157,0.077-0.173,0.165
				c-0.011,0.063-0.033,0.114-0.067,0.15c-0.021,0.024-0.045,0.04-0.073,0.052c-0.021,0.007-0.042,0.012-0.063,0.012
				c-0.093,0-0.196-0.066-0.2-0.213c-0.003-0.094-0.07-0.173-0.162-0.192c-0.008-0.001-0.025-0.003-0.032-0.003
				c-0.029,0-0.053,0.009-0.072,0.015c-0.069,0.024-0.103,0.07-0.118,0.104c-0.017,0.036-0.039,0.063-0.065,0.078
				c-0.014,0.008-0.028,0.014-0.042,0.014h-0.007c-0.095-0.002-0.225-0.112-0.304-0.313c0.213-0.088,0.494-0.286,0.846-0.594
				c0.068-0.061,0.131-0.116,0.178-0.16c0.053-0.049,0.092-0.086,0.105-0.102c0.021-0.018,0.037-0.042,0.048-0.068l0.145-0.343
				l0.158-0.386l0.485-1.176h0.09c0,0-0.264,0.865-0.4,1.325C62.564,88.43,62.701,89.409,63.275,89.532z M64.86,83.85l0.429,1.315
				c0.006,0.019,0.01,0.033,0.018,0.048l0.762,2.295h-2.52L64.86,83.85z M63.197,88.383l0.078-0.281h2.996l0.07,0.281H63.197z
				 M68.898,89.701c-0.02,0.007-0.043,0.015-0.063,0.019c-0.015,0.001-0.031,0.006-0.049,0.006
				c-0.002-0.002-0.012-0.002-0.015-0.003c-0.069-0.005-0.115-0.034-0.148-0.097c-0.036-0.064-0.103-0.104-0.178-0.104
				c-0.009,0-0.017,0-0.026,0.002c-0.081,0.01-0.148,0.065-0.17,0.144c-0.07,0.264-0.286,0.284-0.349,0.284
				c-0.13,0-0.299-0.073-0.343-0.277c-0.016-0.079-0.084-0.141-0.167-0.154c-0.009-0.001-0.019-0.001-0.028-0.001
				c-0.074,0-0.143,0.039-0.178,0.104c-0.01,0.018-0.029,0.036-0.045,0.055c-0.015,0.016-0.033,0.029-0.051,0.041
				c-0.073,0.052-0.158,0.078-0.239,0.078c-0.241,0-0.419-0.187-0.487-0.512c-0.019-0.082,0.352-0.468,0.393-0.611
				c0.062-0.222-0.004-0.326-0.055-0.547c-0.086-0.368-0.262-0.938-0.479-1.479h0.146c0,0,0.463,1.394,0.918,1.875
				c0.444,0.47,0.439-0.297,0.277-0.862c-0.161-0.565-0.354-1.035-0.354-1.035l0.147,0.019l0.123,0.307l0.273,0.681l0.344,0.849
				c0.053,0.146,0.145,0.294,0.268,0.432c0.053,0.059,0.111,0.115,0.173,0.166c0.204,0.169,0.445,0.289,0.671,0.333
				C69.133,89.55,69.025,89.657,68.898,89.701z"/>
			<path fill="#BCB21F" d="M41.345,81.597c-0.457-0.313-0.984-0.538-1.568-0.668c-0.572-0.128-1.166-0.193-1.765-0.193l-0.478-0.001
				c-0.451,0-0.968,0.005-1.379,0.04c-0.521,0.01-1.142,0.026-1.837,0.05l-1.419,0.052c-0.115,0.006-0.204,0.098-0.204,0.214v0.256
				c0,0.114,0.089,0.207,0.204,0.211c0.006,0,0.616,0.036,1.126,0.509c0.096,0.087,0.408,0.544,0.46,2.759v3.475l0.002,0.113
				c-0.069,0.272-0.208,0.779-0.502,0.898c-0.146,0.06-0.204,0.003-0.221,0.191c-0.014,0.152,0.07,0.354,0.143,0.488
				c0.121,0.222,0.325,0.391,0.577,0.433v0.547c-0.019,0.669-0.042,1.189-0.055,1.259c-0.041,0.212-0.135,0.365-0.278,0.46
				c-0.11,0.071-0.361,0.157-0.933,0.157h-0.313c-0.117,0-0.212,0.095-0.212,0.211v0.57c0,0.117,0.095,0.212,0.212,0.212h5.404
				c0.117,0,0.212-0.095,0.212-0.212v-0.57c0-0.116-0.095-0.211-0.212-0.211h-0.392c-0.598,0-0.849-0.091-0.955-0.169
				c-0.143-0.104-0.232-0.271-0.265-0.498c-0.02-0.125-0.042-0.604-0.061-1.281l-0.001-0.021c0-0.015-0.003-0.03-0.007-0.045v-0.417
				c0.332-0.01,0.711-0.278,0.829-0.864c0.013-0.067-0.007-0.136-0.054-0.187c-0.04-0.043-0.096-0.066-0.154-0.066
				c-0.005,0-0.022,0-0.027,0.001c-0.089,0-0.208-0.101-0.312-0.313c0.064,0.003,0.129,0.007,0.194,0.009
				c0.127,0.008,0.258,0.01,0.413,0.01h0.277c0.64,0,1.265-0.077,1.861-0.23c0.607-0.153,1.159-0.402,1.637-0.739
				c0.485-0.34,0.875-0.778,1.166-1.308c0.291-0.53,0.439-1.173,0.439-1.909c0-0.772-0.146-1.431-0.429-1.954
				C42.185,82.339,41.806,81.913,41.345,81.597z M36.951,82.109c0.181-0.013,0.411-0.017,0.684-0.017
				c0.919,0,1.823,0.404,2.336,0.856c0.389,0.442,0.585,1.07,0.585,1.867c0,0.506-0.079,0.939-0.232,1.294
				c-0.171,0.387-0.371,0.671-0.613,0.868c-0.611,0.5-1.564,0.604-2.256,0.604c-0.372,0-0.666-0.028-0.818-0.048l-0.007-5.39
				C36.732,82.129,36.841,82.116,36.951,82.109z M36.59,89.842c-0.017,0.003-0.023,0.005-0.03,0.005
				c-0.016-0.005-0.022-0.006-0.031-0.007c-0.018-0.001-0.038-0.008-0.056-0.017c-0.05-0.025-0.089-0.065-0.117-0.119
				c-0.038-0.071-0.112-0.116-0.195-0.116c-0.005,0-0.022,0-0.027,0.001c-0.09,0.011-0.165,0.075-0.189,0.165
				c-0.075,0.285-0.274,0.307-0.334,0.307c-0.129,0-0.278-0.091-0.319-0.296c-0.018-0.091-0.093-0.161-0.186-0.176
				c-0.009-0.001-0.021-0.001-0.032-0.001c-0.082,0-0.156,0.045-0.196,0.116c-0.027,0.054-0.073,0.097-0.132,0.128
				c-0.022,0.01-0.043,0.019-0.065,0.022c-0.021,0.004-0.042,0.008-0.058,0.008c-0.116-0.003-0.251-0.079-0.332-0.278
				c0.012,0.025,0.281-0.243,0.299-0.267c0.099-0.132,0.164-0.278,0.222-0.432c0.173-0.46,0.116-0.901,0.116-1.375v-0.952h0.143
				c0.121,1.277,0.313,2.106,0.53,2.106c0.216,0,0.409-0.829,0.53-2.106h0.154l0.003,1.903c0,0.008,0,0.014,0,0.021
				c0.07,0.435,0.263,0.918,0.604,1.082C36.812,89.748,36.688,89.83,36.59,89.842z M36.764,88.572l-0.035-0.309
				c3.304,0.584,5.009-1.167,5.009-1.167C40.068,89.122,36.764,88.572,36.764,88.572z"/>
			<path fill="#BCB21F" d="M15.917,88.997c-0.462-0.022-0.488-1.054-0.481-1.567c0-1.088-0.194-2.015-0.578-2.752
				c-0.383-0.738-0.904-1.341-1.548-1.789c-0.649-0.45-1.404-0.778-2.246-0.975c-0.847-0.197-1.746-0.297-2.671-0.297
				c-0.379,0-0.825,0.024-1.321,0.073c-0.524,0.047-0.94,0.089-1.271,0.126l-0.088,0.01v-5.318l0.038-1.151l3.586,0.007
				c0.419,0.135,0.709,0.892,0.722,1.895c0.002,0.112-0.001,0.232-0.005,0.356l-0.001,0.052c-0.022,0.808-0.05,1.813,0.731,2.383
				c0.291,0.213,0.641,0.328,0.984,0.328c0.731,0,1.297-0.496,1.409-1.233c0.086-0.57-0.111-1.295-0.748-1.538
				c-0.129-0.049-0.277-0.076-0.425-0.076c-0.083,0-0.165,0.01-0.243,0.023c0.09-0.978,0.376-1.717,0.855-2.198
				c0.744-0.747,1.473-0.861,1.752-0.873c0,0,0.011-0.001,0.011-0.001c0.059-0.004,0.107-0.023,0.144-0.06
				c0.042-0.039,0.066-0.096,0.066-0.153V73.65c0-0.116-0.095-0.212-0.212-0.212h-0.292c-0.008-0.001-0.017-0.001-0.024-0.001
				L3.989,73.438c-0.024-0.001-0.052-0.001-0.075-0.001c-0.026,0-0.046,0.001-0.06,0.001h-2.86c-0.027,0-0.052,0.006-0.075,0.017
				H0.624c-0.116,0-0.211,0.096-0.211,0.212v0.475c0,0.113,0.089,0.206,0.203,0.213c0.01,0,0.989,0.052,1.808,0.811
				c0.353,0.325,0.605,1.541,0.693,3.331v9.714c0,0.277-0.225,0.767-0.52,0.852c-0.147,0.043-0.39-0.022-0.346,0.242
				c0.099,0.61,0.511,0.854,0.866,0.887v0.202c-0.001,0.396-0.046,1.454-0.061,1.542c-0.079,0.402-0.183,0.484-0.374,0.611
				C2.54,92.64,2.215,92.75,1.484,92.75h-0.49c-0.115,0-0.212,0.103-0.212,0.224v0.661c0,0.115,0.095,0.21,0.212,0.21h4.74
				c0.046,0.004,0.339,0.026,0.814,0.026c1.564,0,4.506-0.222,6.655-1.69c0.551-0.377,1.32-0.982,1.64-1.881
				c0.021-0.06,0.039-0.118,0.053-0.179c0.092,0.032,0.19,0.064,0.29,0.049c0.433-0.075,0.772-0.309,0.924-0.908
				c0.016-0.064,0.003-0.127-0.034-0.18C16.038,89.032,15.98,88.999,15.917,88.997z M10.734,76.497
				c0.121,0.533,0.13,1.085,0.188,1.629c0.005,0.061,0.014,0.122,0.023,0.184c0.052,0.366,0.165,0.811,0.582,0.9
				c0.455,0.1,0.847-0.23,0.846-0.714c0.317,0.072,0.32,0.608,0.178,0.864c-0.329,0.592-1.394,0.559-1.691,0.029
				c-0.083-0.126-0.161-0.313-0.223-0.598c-0.132-0.597-0.083-1.188-0.083-1.798c0-0.562-0.201-1.158-0.429-1.646
				C10.364,75.382,10.684,76.272,10.734,76.497z M5.523,89.677c-0.01,0-0.02,0.001-0.029,0.001
				c-0.005-0.001-0.013-0.004-0.021-0.004c-0.025-0.003-0.047-0.005-0.065-0.01c-0.084-0.022-0.151-0.073-0.197-0.146
				c-0.036-0.059-0.104-0.095-0.173-0.095c-0.006,0-0.022,0.001-0.028,0.002c-0.078,0.01-0.146,0.064-0.169,0.14
				c-0.093,0.3-0.369,0.323-0.452,0.323c-0.175,0-0.379-0.096-0.431-0.312c-0.02-0.077-0.085-0.138-0.167-0.151
				c-0.013-0.001-0.023-0.002-0.032-0.002c-0.072,0-0.138,0.034-0.175,0.095c-0.039,0.059-0.102,0.107-0.185,0.14
				c-0.026,0.01-0.047,0.02-0.07,0.023c-0.022,0.005-0.046,0.007-0.07,0.008c-0.01,0.002-0.02,0.003-0.028,0.004
				c-0.089,0-0.325-0.025-0.451-0.291c0.396-0.141,0.78-0.699,0.78-1.185v-1.575h0.1c0.151,1.414,0.427,2.361,0.741,2.361
				c0.315,0,0.59-0.947,0.741-2.361h0.103c0.005,0-0.006,1.232-0.001,1.337c0.002,0.114,0.011,0.234,0.028,0.357
				c0.062,0.436,0.239,0.878,0.684,1.046c-0.093,0.167-0.243,0.274-0.416,0.291L5.523,89.677z M12.043,89.998
				c-0.222,0.457-0.503,0.847-0.835,1.158c-0.417,0.386-0.918,0.675-1.488,0.859c-0.566,0.184-1.195,0.275-1.869,0.275H7.393
				c-0.196,0-0.4-0.004-0.605-0.016c-0.208-0.009-0.404-0.017-0.585-0.026c-0.124-0.007-0.227-0.021-0.312-0.04
				c-0.048-0.1-0.082-0.215-0.101-0.343c-0.014-0.091-0.038-0.729-0.063-1.712c0.307-0.065,0.66-0.312,0.784-0.835
				c0.015-0.068-0.002-0.139-0.049-0.19c-0.039-0.046-0.099-0.072-0.162-0.072c-0.001,0-0.011,0-0.013,0
				c-0.015,0.003-0.023,0.005-0.031,0.005c-0.204,0-0.408-0.295-0.467-0.456c-0.082-0.22-0.082-0.463-0.083-0.695
				c-0.003-0.401-0.001-0.806,0-1.208c0.004-0.97-0.002-1.937-0.001-2.906c0-0.048-0.041-0.658,0-0.672l0.08-0.035
				c0.261-0.057,0.537-0.096,0.845-0.114c0.302-0.021,0.685-0.03,1.136-0.03c1.575,0,2.776,0.389,3.57,1.153
				c0.794,0.766,1.196,1.876,1.196,3.3l-0.018,0.811c0,0.309-0.233,0.789-0.567,0.864c-0.144,0.032-0.357-0.008-0.313,0.234
				C11.697,89.667,11.877,89.878,12.043,89.998z M15.103,89.671c-0.105,0-0.2-0.036-0.271-0.105c-0.02-0.02-0.035-0.034-0.047-0.053
				c-0.02-0.032-0.052-0.058-0.089-0.073c-0.026-0.009-0.053-0.016-0.081-0.016c-0.003,0-0.016,0.001-0.021,0.001
				c-0.043,0.007-0.081,0.025-0.113,0.055c-0.025,0.022-0.044,0.05-0.054,0.082c-0.081,0.239-0.309,0.327-0.496,0.327
				c-0.196,0-0.42-0.098-0.477-0.314c-0.02-0.075-0.083-0.135-0.16-0.148c-0.011-0.001-0.022-0.002-0.034-0.002
				c-0.067,0-0.129,0.034-0.166,0.088c-0.078,0.113-0.229,0.184-0.397,0.184c-0.055,0-0.107-0.009-0.158-0.023
				c-0.024-0.005-0.047-0.014-0.069-0.024c-0.021-0.008-0.042-0.019-0.063-0.032c-0.084-0.051-0.152-0.123-0.199-0.213
				c0.391-0.139,0.769-0.695,0.769-1.184l0.019-0.766c0-0.284-0.023-0.551-0.055-0.811h0.158c0.171,1.414,0.48,2.361,0.834,2.361
				c0.356,0,0.762-0.947,0.931-2.361h0.092c0.032,0.265-0.018,0.54-0.018,0.831c-0.001,0.165,0.002,1.549,0.684,1.863
				C15.491,89.582,15.269,89.671,15.103,89.671z"/>
			<path fill="#BCB21F" d="M100.078,81.044h-2.872c-0.379,0.036-0.702,0.251-0.878,0.578l-5.339,9.686v-0.015l-0.002-1.107
				c0.253-0.068,0.537-0.193,0.634-0.676c0.015-0.066-0.006-0.135-0.053-0.186c-0.038-0.043-0.095-0.069-0.154-0.069
				c-0.01,0-0.021,0.001-0.029,0.003c-0.141,0-0.328-0.283-0.398-0.708l-0.006-4.818v-0.021l0.002-0.025
				c0.01-0.266,0.031-0.973,0.046-1.051c0.044-0.228,0.141-0.397,0.274-0.485c0.107-0.07,0.354-0.153,0.921-0.153h0.312
				c0.115,0,0.211-0.102,0.211-0.223v-0.518c0-0.116-0.095-0.212-0.211-0.212h-5.271c-0.116,0-0.213,0.096-0.213,0.212v0.527
				c0,0.117,0.097,0.213,0.213,0.213h0.309c0.59,0,0.839,0.091,0.944,0.166c0.153,0.11,0.231,0.248,0.262,0.463
				c0.028,0.181,0.053,0.877,0.058,1.106c0.006,0.182,0,0.365,0,0.548v2.586c0,0.399,0.006,0.8,0.013,1.199
				c0.006,0.411-0.003,0.941-0.418,1.16c-0.308,0.163-0.291,0.373-0.13,0.678c0.111,0.212,0.299,0.374,0.535,0.423v0.473
				c-0.017,0.68-0.044,1.524-0.058,1.595c-0.04,0.212-0.134,0.365-0.276,0.46c-0.11,0.071-0.36,0.157-0.933,0.157h-0.306
				c-0.116,0-0.213,0.095-0.213,0.212v0.569c0,0.117,0.097,0.212,0.213,0.212c0,0,2.863,0.003,2.875,0.003
				c0.029,0,0.057-0.003,0.085-0.007l0.024-0.003c0.31-0.029,0.596-0.194,0.782-0.451c0.011-0.012,0.02-0.025,0.027-0.041
				l5.316-9.631c-0.02,0.037,0,0.146,0,0.188c0,0.716,0,1.68,0,2.399c0,0.397,0.003,0.795,0.003,1.192
				c0,0.434,0.036,0.959-0.181,1.346c-0.063,0.107-0.14,0.207-0.253,0.263c-0.289,0.142-0.254,0.346-0.107,0.633
				c0.062,0.118,0.145,0.228,0.256,0.306c0.021,0.018,0.285,0.141,0.285,0.127v0.682c-0.005,0.011-0.005,0.021-0.005,0.034
				c-0.017,0.585-0.044,1.241-0.059,1.323c-0.044,0.228-0.144,0.401-0.279,0.489c-0.107,0.07-0.357,0.157-0.932,0.157h-0.313
				c-0.116,0-0.212,0.095-0.212,0.212v0.569c0,0.116,0.096,0.211,0.212,0.211h5.289c0.116,0,0.213-0.095,0.213-0.211v-0.569
				c0-0.117-0.097-0.212-0.213-0.212h-0.276c-0.598,0-0.848-0.092-0.954-0.169c-0.155-0.112-0.235-0.253-0.268-0.47
				c-0.02-0.124-0.04-0.613-0.06-1.309v-0.021c0-0.002,0-0.007-0.002-0.012l-0.066-0.798c0.367-0.097,1.008-0.605,0.613-0.939
				c-0.097-0.082-0.208-0.097-0.292-0.206c-0.266-0.347-0.243-0.856-0.242-1.264c0.009-1.734-0.033-3.477,0.042-5.209v-0.017
				c0.041-0.211,0.125-0.354,0.267-0.449c0.107-0.071,0.354-0.158,0.92-0.166l0.32-0.003c0.116,0,0.211-0.097,0.211-0.214v-0.511
				C100.291,81.14,100.194,81.044,100.078,81.044z M90.856,89.777c-0.014-0.003-0.022-0.004-0.03-0.004
				c-0.02-0.004-0.038-0.01-0.056-0.019c-0.051-0.021-0.089-0.06-0.118-0.111c-0.037-0.068-0.111-0.11-0.194-0.11
				c-0.006,0-0.022,0.002-0.026,0.002c-0.091,0.011-0.166,0.07-0.188,0.154c-0.075,0.271-0.275,0.291-0.336,0.291
				c-0.128,0-0.277-0.087-0.318-0.28c-0.02-0.085-0.094-0.151-0.187-0.165c-0.009,0-0.02-0.002-0.031-0.002
				c-0.082,0-0.156,0.042-0.197,0.11c-0.026,0.052-0.072,0.094-0.132,0.12c-0.023,0.011-0.043,0.018-0.066,0.022
				c-0.019,0.005-0.04,0.008-0.055,0.008c-0.117-0.003-0.251-0.077-0.334-0.265c0.018,0.036,0.319-0.274,0.339-0.302
				c0.087-0.122,0.162-0.269,0.216-0.406c0.168-0.426,0.083-0.834,0.083-1.271c0-0.057,0-0.876,0-0.876h0.143
				c0.122,1.207,0.314,1.989,0.532,1.989c0.215,0,0.408-0.782,0.531-1.989h0.153l0.003,1.797c0,0.007,0,0.014,0.002,0.02
				c0.066,0.411,0.261,0.868,0.603,1.022c-0.085,0.173-0.208,0.249-0.304,0.262C90.869,89.776,90.863,89.777,90.856,89.777z
				 M98.692,89.516c-0.084,0.171-0.207,0.248-0.303,0.261c-0.018,0.001-0.024,0.003-0.031,0.003
				c-0.016-0.003-0.022-0.005-0.031-0.005c-0.02-0.003-0.037-0.01-0.056-0.018c-0.049-0.022-0.089-0.061-0.117-0.11
				c-0.038-0.068-0.112-0.11-0.194-0.11c-0.005,0-0.022,0.002-0.027,0.002c-0.092,0.011-0.165,0.07-0.189,0.154
				c-0.075,0.268-0.274,0.288-0.334,0.288c-0.128,0-0.278-0.087-0.319-0.277c-0.019-0.087-0.093-0.153-0.187-0.164
				c-0.009-0.001-0.02-0.003-0.032-0.003c-0.081,0-0.155,0.042-0.195,0.11c-0.028,0.05-0.072,0.092-0.133,0.118
				c-0.021,0.012-0.042,0.019-0.065,0.022c-0.019,0.004-0.041,0.009-0.057,0.009c-0.115-0.005-0.251-0.078-0.332-0.263
				c0.544-0.252,0.663-0.938,0.639-1.464c-0.006-0.105,0.002-1.374,0-1.374h0.143c0.122,1.201,0.313,1.977,0.53,1.977
				c0.216,0,0.407-0.775,0.53-1.977h0.155l0.001,1.786c0,0.007,0,0.013,0.003,0.019C98.158,88.908,98.35,89.362,98.692,89.516z"/>
			<path fill="#BCB21F" d="M82.697,81.597c-0.457-0.313-0.986-0.538-1.57-0.668c-0.572-0.128-1.166-0.193-1.766-0.193l-0.476-0.001
				c-0.452,0-0.97,0.005-1.38,0.04c-0.521,0.01-1.142,0.026-1.839,0.05l-1.419,0.052c-0.113,0.006-0.203,0.098-0.203,0.214v0.256
				c0,0.114,0.09,0.207,0.203,0.211c0.007,0,0.617,0.036,1.129,0.509c0.095,0.087,0.408,0.544,0.461,2.759v3.475l0.001,0.113
				c-0.069,0.272-0.21,0.779-0.503,0.898c-0.145,0.06-0.201,0.003-0.221,0.191c-0.014,0.152,0.069,0.354,0.145,0.488
				c0.121,0.222,0.325,0.391,0.578,0.433v0.547c-0.021,0.669-0.043,1.189-0.057,1.259c-0.039,0.212-0.134,0.365-0.277,0.46
				c-0.111,0.071-0.361,0.157-0.934,0.157h-0.313c-0.118,0-0.213,0.095-0.213,0.211v0.57c0,0.117,0.095,0.212,0.213,0.212h5.403
				c0.118,0,0.212-0.095,0.212-0.212v-0.57c0-0.116-0.094-0.211-0.212-0.211h-0.391c-0.599,0-0.851-0.091-0.956-0.169
				c-0.143-0.104-0.232-0.271-0.266-0.498c-0.02-0.125-0.041-0.604-0.061-1.281v-0.021c0-0.015-0.003-0.03-0.008-0.045v-0.417
				c0.332-0.01,0.713-0.278,0.83-0.864c0.013-0.067-0.006-0.136-0.054-0.187c-0.04-0.043-0.098-0.066-0.155-0.066
				c-0.004,0-0.021,0-0.027,0.001c-0.088,0-0.208-0.101-0.311-0.313c0.064,0.003,0.127,0.007,0.194,0.009
				c0.126,0.008,0.256,0.01,0.411,0.01h0.276c0.644,0,1.268-0.077,1.863-0.23c0.606-0.153,1.158-0.402,1.636-0.739
				c0.484-0.34,0.877-0.778,1.166-1.308c0.291-0.53,0.438-1.173,0.438-1.909c0-0.772-0.145-1.431-0.428-1.954
				C83.536,82.339,83.158,81.913,82.697,81.597z M78.302,82.109c0.181-0.013,0.412-0.017,0.685-0.017
				c0.918,0,1.824,0.404,2.336,0.856c0.389,0.442,0.585,1.07,0.585,1.867c0,0.506-0.079,0.939-0.233,1.294
				c-0.169,0.387-0.369,0.671-0.611,0.868c-0.613,0.5-1.564,0.604-2.256,0.604c-0.373,0-0.666-0.028-0.818-0.048l-0.008-5.39
				C78.084,82.129,78.192,82.116,78.302,82.109z M77.941,89.842c-0.016,0.003-0.023,0.005-0.029,0.005
				c-0.016-0.005-0.023-0.006-0.031-0.007c-0.018-0.001-0.039-0.008-0.057-0.017c-0.05-0.025-0.089-0.065-0.115-0.119
				c-0.037-0.071-0.115-0.116-0.195-0.116c-0.006,0-0.023,0-0.028,0.001c-0.089,0.011-0.165,0.075-0.188,0.165
				c-0.074,0.285-0.277,0.307-0.334,0.307c-0.129,0-0.277-0.091-0.32-0.296c-0.019-0.091-0.094-0.161-0.188-0.176
				c-0.006-0.001-0.018-0.001-0.029-0.001c-0.082,0-0.156,0.045-0.195,0.116c-0.031,0.054-0.074,0.097-0.135,0.128
				c-0.021,0.01-0.043,0.019-0.063,0.022s-0.04,0.008-0.058,0.008c-0.117-0.003-0.252-0.079-0.332-0.278
				c0.01,0.025,0.281-0.243,0.301-0.267c0.099-0.132,0.162-0.278,0.221-0.432c0.174-0.46,0.117-0.901,0.117-1.375v-0.952h0.143
				c0.121,1.277,0.311,2.106,0.529,2.106c0.218,0,0.41-0.829,0.531-2.106h0.153l0.003,1.903c0,0.008,0,0.014,0.003,0.021
				c0.068,0.435,0.261,0.918,0.601,1.082C78.162,89.748,78.04,89.83,77.941,89.842z M78.114,88.572l-0.033-0.309
				c3.302,0.584,5.009-1.167,5.009-1.167C81.419,89.122,78.114,88.572,78.114,88.572z"/>
		</g>
		<g>
			<g>
				<path fill="#BCB21F" d="M37.203,99.933h-0.589v-0.408h1.766v0.408h-0.619l-1.358,1.321l1.133,2.013
					c0.225,0.392,0.495,0.712,0.879,0.712h0.131v0.407c-0.16,0.051-0.341,0.103-0.588,0.103c-0.343,0-0.93-0.008-1.345-0.764
					l-0.96-1.736l-0.399,0.392v1.599h0.567v0.407H33.65v-0.407h0.566v-4.046H33.65v-0.408h2.172v0.408h-0.567v1.896L37.203,99.933z"
					/>
				<path fill="#BCB21F" d="M40.554,103.042l-0.372,0.937h0.522v0.407H39.23v-0.407h0.545l1.81-4.454h0.595l1.991,4.454h0.546v0.407
					h-2.194v-0.407h0.566l-0.407-0.937H40.554z M40.705,102.649h1.818l-0.901-2.057l-0.022-0.158h-0.043l-0.021,0.158
					L40.705,102.649z"/>
				<path fill="#BCB21F" d="M46.992,104.611v-0.414h0.565v-0.449c-1.299,0.034-2.513-0.612-2.513-1.919
					c0-1.374,1.482-1.831,2.513-1.826v-0.311h-0.565v-0.414h2.143v0.414h-0.568v0.311c1.033-0.005,2.515,0.452,2.515,1.826
					c0,1.307-1.198,1.953-2.515,1.919v0.449h0.568v0.414H46.992z M47.557,100.324c-0.508-0.029-1.314,0.188-1.314,1.548
					c0,1.388,0.806,1.567,1.314,1.54V100.324z M48.567,103.412c0.509,0.021,1.316-0.146,1.316-1.54c0-1.365-0.807-1.568-1.316-1.548
					V103.412z"/>
				<path fill="#BCB21F" d="M52.899,103.979v-4.046h-0.566v-0.408h3.786v0.959h-0.392v-0.473h-1.787v1.592h1.518v-0.538h0.377v1.446
					h-0.377v-0.501h-1.518v1.89h1.939v-0.553h0.377v1.039h-3.923v-0.407H52.899z"/>
				<path fill="#BCB21F" d="M58.175,102.293h1.853v0.653h-1.853V102.293z"/>
				<path fill="#BCB21F" d="M65.174,99.933h-0.59v-0.408h1.767v0.408h-0.618l-1.358,1.321l1.134,2.013
					c0.225,0.392,0.493,0.712,0.877,0.712h0.131v0.407c-0.158,0.051-0.34,0.103-0.588,0.103c-0.342,0-0.929-0.008-1.344-0.764
					l-0.961-1.736l-0.399,0.392v1.599h0.569v0.407h-2.174v-0.407h0.566v-4.046h-0.566v-0.408h2.174v0.408h-0.569v1.896
					L65.174,99.933z"/>
				<path fill="#BCB21F" d="M69.562,100.797l-1.175,3.052c-0.109,0.276-0.27,0.617-0.756,0.617c-0.191,0-0.394-0.052-0.518-0.095
					l0.348-0.793c0.074,0.06,0.197,0.125,0.299,0.125c0.195,0,0.299-0.202,0.357-0.341l1.359-3.43H68.93v-0.408h1.324l1.662,4.454
					h0.486v0.407h-2.105v-0.407h0.559l-1.178-3.182l-0.028-0.196h-0.043L69.562,100.797z"/>
				<path fill="#BCB21F" d="M76.574,99.933h-0.559v-0.408h1.503v0.408h-0.539l-1.655,3.741c-0.168,0.378-0.319,0.792-0.9,0.792
					c-0.226,0-0.459-0.065-0.641-0.16l0.291-0.668c0.095,0.08,0.291,0.219,0.48,0.219c0.248,0,0.361-0.169,0.421-0.314l0.074-0.173
					l-1.774-3.437h-0.437v-0.408h2.065v0.408H74.33l1.156,2.236l0.034,0.189h0.035l0.023-0.189L76.574,99.933z"/>
				<path fill="#BCB21F" d="M79.264,99.933h-0.566v-0.408h3.559v0.976h-0.449v-0.489h-1.506v1.505h0.48
					c0.713,0,2.025,0.087,2.025,1.359c0,1.461-1.371,1.511-1.988,1.511h-2.121v-0.407h0.566V99.933z M80.732,103.979
					c0.507,0,0.92-0.4,0.92-1.017c0-0.944-0.799-0.96-1.009-0.96h-0.343v1.977H80.732z"/>
			</g>
			<polygon fill="#BCB21F" points="31.73,102.682 2.639,102.305 2.639,102.029 31.73,101.755 			"/>
			<polygon fill="#BCB21F" points="84.975,102.682 114.067,102.305 114.067,102.029 84.975,101.755 			"/>
		</g>
	</g>
	<g>
		<g>
			<path fill="#BCB21F" d="M52.544,38.56c0.317,0.071,0.721,0.258,0.891,0.445c0.074-0.186,0.184-0.512,0.192-0.523
				c0.013-0.023,0.038-0.036,0.065-0.033c0.026,0.001,0.05,0.019,0.06,0.043c0.013,0.03,0.025,0.062,0.038,0.094
				c0.01-0.08,0.026-0.157,0.047-0.229c-0.002-0.195-0.093-0.315-0.247-0.419C53.346,37.772,52.66,38.426,52.544,38.56z
				 M53.495,38.028c0.109,0.036,0.157,0.186,0.136,0.249c-0.021,0.066-0.129,0.066-0.238,0.029c-0.109-0.037-0.178-0.095-0.156-0.16
				C53.253,38.095,53.361,37.983,53.495,38.028z"/>
			<path fill="#BCB21F" d="M53.904,39.11c-0.012-0.022-0.129-0.189-0.187-0.34c-0.039,0.074-0.072,0.232-0.106,0.327
				c0.234,0.212,0.381,0.401,0.421,0.504c0.186-0.317,0.66-2.161,0.668-2.203C54.679,37.445,53.946,37.913,53.904,39.11z"/>
			<path fill="#BCB21F" d="M49.186,37.886c0.079-0.407,0.357-0.705,0.372-0.72c0.021-0.022,0.054-0.028,0.082-0.014
				c0.026,0.013,0.042,0.042,0.039,0.071c-0.007,0.056,0.017,0.139,0.049,0.222c0.03-0.091,0.035-0.127,0.082-0.205
				c-0.128-0.393-0.438-0.747-0.58-0.888c-0.021-0.012-0.056-0.09-0.126-0.114c0.027,0.124,0.051,0.344,0.013,0.682
				C49.069,37.344,49.118,37.665,49.186,37.886z"/>
			<path fill="#BCB21F" d="M54.941,39.096c-0.014-0.021,0.228-0.475,0.216-0.935c-0.058,0.035-0.197,0.135-0.222,0.117
				c-0.025-0.018,0.083-0.481-0.106-0.68c0,0.002-0.125,0.631-0.152,0.75c-0.05,0.23-0.347,1.194-0.398,1.289
				c0.013,0,0.398,0.093,0.598,0.188c0.034-0.021,0.345-0.633,0.354-0.835C55.162,39.032,54.957,39.115,54.941,39.096z"/>
			<path fill="#BCB21F" d="M49.317,38.063c-0.006,0.046-0.011,0.089-0.007,0.131v0.001v0.001c0,0.008,0,0.016-0.001,0.022
				c-0.001,0.003-0.001,0.005-0.003,0.008c-0.003,0.005-0.005,0.011-0.008,0.015c-0.001,0.001-0.001,0.003-0.004,0.006
				c-0.005,0.005-0.011,0.012-0.018,0.017l0,0h0c-0.006,0.002-0.012,0.005-0.018,0.007c-0.001,0-0.004,0-0.004,0
				c-0.005,0-0.008,0.001-0.012,0.001c0,0-0.002-0.001-0.003-0.001c-0.002,0-0.004,0-0.007,0c-0.004,0-0.008,0-0.011-0.002
				s-0.005-0.002-0.008-0.003c-0.003-0.001-0.006-0.004-0.01-0.006c0,0-0.003,0-0.003-0.001c-0.007-0.005-0.159-0.123-0.26-0.301
				c-0.021,0.191-0.114,0.887-0.054,0.979c-0.134-0.106-0.258-0.126-0.302-0.189c-0.023,0.075-0.051,0.178-0.047,0.329
				c0.006,0.17,0.206,0.541,0.359,0.75c0.512-0.316,0.942-0.438,1.143-0.44C49.836,38.955,49.484,38.356,49.317,38.063z"/>
			<path fill="#BCB21F" d="M50.599,37.884v-0.001c0.027-0.235-0.023-0.402-0.059-0.483c-0.066,0.03-0.226,0.248-0.234,0.247
				c-0.033-0.008-0.141-0.513-0.141-0.599c-0.119,0.15-0.274,0.395-0.292,0.61c-0.003,0.03-0.077,0.216-0.106,0.221
				c-0.03,0.008-0.229-0.216-0.27-0.315c-0.051,0.112-0.065,0.113-0.102,0.275c0.299,0.396,0.761,1.307,0.826,1.485
				c0.107-0.109,0.398-0.393,0.589-0.466C50.704,38.624,50.571,38.183,50.599,37.884z"/>
			<path fill="#BCB21F" d="M50.741,33.89c-0.002,0.005-0.159-0.215-0.175-0.231c-0.029,0.145-0.095,0.252-0.098,0.258
				c-0.013,0.021-0.034,0.032-0.057,0.033c-0.024,0.001-0.045-0.01-0.059-0.028c-0.174-0.248-0.426-0.349-0.509-0.407
				c0.012,0.022,0.033,0.055,0.057,0.094c0.088,0.168,0.225,0.492,0.188,0.659c-0.007,0.029-0.032,0.052-0.062,0.055
				c-0.008,0-0.118,0.011-0.235-0.032c0.031,0.096,0.168,0.28,0.185,0.351c0.021,0.023,0.475,0.325,0.78,1.747
				c0.033,0.199,0.065,0.375,0.093,0.515c0.005,0.01,0.012,0.02,0.018,0.029v-0.799v-0.079v-0.081v-1.664
				C50.852,34.139,50.801,33.999,50.741,33.89z"/>
			<path fill="#BCB21F" d="M49.906,34.906c0.007,0.132-0.052,0.482-0.062,0.461c-0.096-0.227-0.481-0.44-0.484-0.447
				c-0.272,0.229-0.134,0.805-0.008,1.17c0.146,0.143,0.473,0.539,0.624,0.914c0.151-0.197,0.28-0.278,0.292-0.288
				c0.02-0.015,0.046-0.02,0.068-0.01c0.023,0.008,0.041,0.028,0.044,0.052c0.001,0.008,0.031,0.176,0.008,0.518
				c0.018-0.012,0.038-0.032,0.06-0.063c0.018-0.025,0.05-0.036,0.079-0.026c0.019,0.007,0.139,0.056,0.193,0.266
				c0.025-0.044,0.032-0.116,0.064-0.151C50.774,37.293,50.372,35.325,49.906,34.906z"/>
			<path fill="#BCB21F" d="M53.754,36.858c0,0.001,0,0.002,0,0.003c-0.007-0.015-0.013-0.031-0.008-0.047
				c0.15-0.536-0.032-0.785-0.096-0.966c-0.051,0.042-0.147,0.159-0.15,0.159c-0.022,0.012-0.05,0.01-0.071-0.004
				c-0.021-0.015-0.034-0.041-0.03-0.067c0.021-0.163-0.007-0.513-0.039-0.655c-0.067,0.209-0.168,0.842-0.131,1.125
				c0.121,0.914,0.077,1.303,0.075,1.384h-0.001h0.001c-0.001,0.007,0.01,0.009,0.026-0.003c0.101-0.017,0.233-0.021,0.324,0.026
				c0.022,0.012,0.042,0.024,0.061,0.038c0.027-0.023,0.051-0.048,0.075-0.076c0.015-0.018,0.029-0.036,0.042-0.057
				c0.012-0.02,0.025-0.039,0.036-0.06c0.146-0.265,0.167-0.639,0.165-0.849C54.003,36.828,53.781,36.847,53.754,36.858z"/>
			<polygon fill="#BCB21F" points="51.709,35.862 51.711,35.86 51.71,35.86 			"/>
			<path fill="#BCB21F" d="M52.875,35.826c-0.008,0.024-0.092-0.216-0.302-0.27c-0.005,0.155,0.009,0.442-0.005,0.44
				c-0.07-0.01-0.326-0.004-0.326-0.004c-0.001,0.031,0.125,0.111,0.244,0.365c0.087,0.189,0.152,0.337,0.152,0.337
				c0.063,0,0.318,0.028,0.406,0.186c-0.011-0.074-0.057-0.256-0.062-0.342c-0.039-0.782,0.199-1.212,0.219-1.275
				C53.152,35.246,53.013,35.408,52.875,35.826z"/>
			<path fill="#BCB21F" d="M51.361,37.042c0.001,0.007,0.303,0.044,0.504,0.484c0.053-0.22,0.172-0.769,0.506-0.777
				c-0.056-0.113-0.189-0.368-0.203-0.388c-0.208-0.293-0.342-0.417-0.599-0.338c-0.107,0.031-0.174,0.115-0.215,0.223
				c-0.008,0.021-0.015,0.043-0.021,0.068c-0.007,0.023-0.011,0.047-0.015,0.071C51.281,36.604,51.355,37.019,51.361,37.042z
				 M51.635,36.184c0.155-0.051,0.336,0.08,0.367,0.17c0.029,0.091-0.094,0.184-0.248,0.233c-0.155,0.051-0.285,0.042-0.314-0.048
				C51.418,36.466,51.444,36.247,51.635,36.184z"/>
			<g>
				<path fill="#BCB21F" d="M51.311,37.287c-0.028-0.008-0.056-0.015-0.087-0.015c-0.028-0.001-0.057,0.003-0.085,0.01
					c-0.002,0-0.002,0-0.002,0c-0.027,0.008-0.052,0.018-0.074,0.029c-0.025,0.011-0.05,0.025-0.071,0.041
					c-0.019,0.014-0.037,0.029-0.055,0.046c-0.057,0.056-0.107,0.143-0.117,0.23c-0.032,0.323,0.075,0.827,0.193,1.116
					c0.404-0.211,0.546-0.218,0.959-0.237C51.83,37.997,51.588,37.378,51.311,37.287z M51.127,37.456
					c0.144-0.047,0.311,0.072,0.338,0.157c0.027,0.083-0.085,0.168-0.229,0.215s-0.263,0.038-0.291-0.047
					C50.926,37.718,50.95,37.514,51.127,37.456z"/>
				<path fill="#BCB21F" d="M52.791,36.952c-0.065-0.019-0.125-0.028-0.181-0.021c-0.002,0-0.004,0.001-0.006,0.001
					c-0.015,0.001-0.028,0.004-0.042,0.008c-0.029,0.007-0.056,0.02-0.082,0.033c-0.008,0.004-0.015,0.007-0.023,0.013
					c-0.015,0.009-0.029,0.021-0.043,0.032c-0.278,0.221-0.327,0.811-0.345,0.925c0.054,0.117,0.102,0.481,0.136,0.576
					c0.092,0.001,0.104,0.031,0.15-0.026c0.121-0.146,0.521-0.575,0.707-0.682C53.135,37.53,53.104,37.034,52.791,36.952z
					 M52.765,37.088c0.154,0.052,0.223,0.262,0.193,0.353c-0.032,0.091-0.184,0.091-0.337,0.04
					c-0.153-0.052-0.251-0.135-0.221-0.226C52.424,37.184,52.576,37.024,52.765,37.088z"/>
			</g>
			<path fill="#BCB21F" d="M51.268,41.511c-0.011-0.024-0.025-0.05-0.041-0.081c-0.06-0.088-0.123-0.189-0.177-0.294
				c-0.112-0.164-0.247-0.317-0.375-0.348c-0.052-0.013-0.1-0.003-0.146,0.029c-0.053,0.041-0.081,0.088-0.081,0.146
				c-0.001,0.107,0.081,0.251,0.234,0.418c0.14,0.072,0.277,0.16,0.413,0.26C51.15,41.593,51.208,41.549,51.268,41.511z"/>
			<path fill="#BCB21F" d="M49.28,40.639c-0.034-0.123-0.008-0.243,0.071-0.339c0.099-0.116,0.266-0.179,0.429-0.163
				c0.117,0.012,0.175,0.065,0.203,0.109c0.061,0.095,0.032,0.211,0.024,0.242c-0.021,0.122-0.066,0.203-0.14,0.241
				c-0.022,0.01-0.041,0.015-0.061,0.02c0.075,0.068,0.226,0.164,0.405,0.256c-0.017-0.049-0.026-0.098-0.025-0.145
				c0.001-0.113,0.051-0.206,0.149-0.278c0.084-0.062,0.175-0.081,0.273-0.06c-0.185-0.287-0.414-0.719-0.414-0.719
				c-0.006-0.001-0.21-0.008-0.433,0.057c-0.032,0.011-0.065,0.023-0.099,0.034c-0.95,0.271-1.052,1.214-1.085,1.25
				c0.238-0.079,0.862-0.167,1.311-0.035C49.686,40.959,49.314,40.76,49.28,40.639z"/>
			<path fill="#BCB21F" d="M51.971,41.583c-0.249,0-0.485,0.086-0.669,0.243c0.045,0.042,0.171,0.162,0.217,0.206
				c0.16-0.085,0.338-0.129,0.521-0.129c0.288,0,0.562,0.111,0.769,0.308c0.039-0.024,0.151-0.076,0.193-0.101
				C52.722,41.734,52.464,41.583,51.971,41.583z"/>
			<path fill="#BCB21F" d="M51.384,40.505c-0.051-0.029-0.107-0.032-0.168-0.007c-0.05,0.021-0.08,0.052-0.093,0.099
				c-0.027,0.099,0.014,0.261,0.117,0.461c0.065,0.094,0.123,0.194,0.17,0.285c0.016,0.025,0.034,0.049,0.05,0.072
				c0.086-0.041,0.176-0.072,0.27-0.093C51.655,40.884,51.53,40.586,51.384,40.505z"/>
			<path fill="#BCB21F" d="M52.039,41.272c0.046,0,0.092,0.003,0.137,0.008c0.081-0.307,0.13-0.707,0.018-0.861
				c-0.031-0.042-0.072-0.063-0.127-0.066c-0.002,0-0.005-0.001-0.007-0.001c-0.003,0-0.005,0.001-0.008,0.001
				c-0.054,0.003-0.097,0.023-0.126,0.066c-0.113,0.155-0.064,0.551,0.015,0.857C51.973,41.274,52.005,41.272,52.039,41.272z"/>
			<path fill="#BCB21F" d="M54.566,40.02c-0.042-0.02-0.082-0.038-0.121-0.053c-0.085-0.034-0.165-0.056-0.233-0.071
				c-0.101-0.022-0.18-0.03-0.229-0.033c-0.024-0.001-0.042-0.001-0.05-0.001c-0.01,0.001-0.276,0.467-0.441,0.68
				c0.005-0.001,0.012-0.004,0.017-0.006c0.103-0.022,0.197,0,0.282,0.065c0.096,0.074,0.145,0.169,0.143,0.281
				c0,0.057-0.014,0.117-0.04,0.175c0.172-0.085,0.318-0.173,0.393-0.236c-0.02-0.003-0.041-0.01-0.061-0.021
				c-0.073-0.041-0.119-0.123-0.134-0.244c-0.008-0.032-0.034-0.148,0.03-0.242c0.029-0.042,0.089-0.095,0.205-0.103
				c0.164-0.012,0.331,0.056,0.424,0.173c0.077,0.098,0.099,0.218,0.062,0.339c-0.051,0.169-0.75,0.5-1.011,0.717
				c-0.201,0.102-0.423,0.268-0.604,0.428c0.02,0.026,0.037,0.055,0.054,0.083c0.128-0.072,0.266-0.144,0.411-0.217
				c0.157-0.096,0.315-0.175,0.471-0.247c0.075-0.027,0.166-0.066,0.28-0.121c0.001,0,0,0.001,0.001,0.001
				c0.161-0.062,0.317-0.109,0.465-0.148c0.087-0.031,0.642-0.188,0.732-0.216C55.593,40.979,55.453,40.44,54.566,40.02z"/>
			<path fill="#BCB21F" d="M52.663,41.421c0.06-0.113,0.14-0.25,0.231-0.375c0.104-0.204,0.148-0.371,0.12-0.471
				c-0.016-0.049-0.046-0.081-0.097-0.102c-0.063-0.026-0.119-0.024-0.172,0.007c-0.152,0.085-0.281,0.394-0.359,0.852
				c0.094,0.023,0.184,0.058,0.269,0.102C52.657,41.43,52.66,41.426,52.663,41.421z"/>
			<path fill="#BCB21F" d="M53.625,41.027c0.001-0.055-0.022-0.1-0.073-0.139c-0.042-0.033-0.086-0.043-0.137-0.033
				c-0.102,0.023-0.226,0.134-0.359,0.313c-0.069,0.134-0.154,0.263-0.225,0.364c-0.001,0.004-0.003,0.008-0.006,0.011
				c0.078,0.052,0.15,0.112,0.214,0.179C53.409,41.445,53.623,41.191,53.625,41.027z"/>
			<path fill="#BCB21F" d="M53.675,39.699c-0.004-0.003-0.009-0.013-0.013-0.023c-0.026-0.041-0.36-0.8-1.672-0.794
				c-0.908,0.004-1.314,0.506-1.447,0.671c-0.057,0.073-0.089,0.128-0.099,0.146v0c-0.001,0.008,0.25,0.383,0.411,0.696
				c0.001-0.004,0.001-0.009,0.004-0.013c0.026-0.098,0.095-0.171,0.194-0.211c0.114-0.048,0.223-0.042,0.324,0.015
				c0.05,0.028,0.095,0.068,0.137,0.117c0.004-0.19-0.005-0.359-0.029-0.45c-0.012,0.015-0.027,0.028-0.046,0.042
				c-0.072,0.046-0.168,0.047-0.289,0c-0.031-0.007-0.154-0.042-0.206-0.145c-0.022-0.045-0.039-0.121,0.007-0.222
				c0.021-0.045,0.049-0.086,0.082-0.122c0.061-0.07,0.141-0.121,0.226-0.145c0.014-0.003,0.026-0.008,0.041-0.01
				c0.129-0.024,0.251,0.014,0.346,0.106c0.132,0.127,0.233,0.345,0.313,0.662c0.027-0.007,0.054-0.011,0.083-0.012
				c0.006-0.001,0.011,0.001,0.016,0.001c0.006,0,0.01-0.003,0.017-0.001c0.029,0.001,0.057,0.005,0.083,0.012
				c0.078-0.317,0.182-0.535,0.312-0.662c0.096-0.092,0.218-0.13,0.346-0.106c0.149,0.028,0.283,0.134,0.349,0.277
				c0.048,0.101,0.03,0.176,0.008,0.222c-0.053,0.103-0.174,0.137-0.206,0.145c-0.12,0.047-0.217,0.046-0.289,0
				c-0.021-0.013-0.036-0.028-0.048-0.044c-0.021,0.09-0.032,0.261-0.027,0.453c0.042-0.049,0.087-0.089,0.138-0.117
				c0.1-0.057,0.209-0.063,0.325-0.015c0.099,0.04,0.166,0.113,0.194,0.211c0.002,0.005,0.002,0.01,0.003,0.014
				C53.389,40.117,53.676,39.709,53.675,39.699z"/>
		</g>
		<g>
			<path fill="#BCB21F" d="M69.072,35.508c0.234,0.313,0.258,0.337,0.447,0.631c-0.149-0.361-0.15-0.385-0.328-0.73
				c-0.549-1.076-1.754-2.396-2.771-2.396h-9.562c-0.175,0-0.428,0.129-0.786,0.433h9.548
				C66.867,33.446,67.926,33.982,69.072,35.508z"/>
			<path fill="#BCB21F" d="M53.233,35.012c0.007-0.004,0.013-0.008,0.016-0.011c0.035-0.021,0.072-0.032,0.112-0.032
				c0.023,0,0.046,0.004,0.068,0.012c0.062,0.021,0.108,0.067,0.129,0.127c0.009,0.024,0.066,0.188,0.101,0.393
				C53.666,35.5,53.673,35.5,53.68,35.5c0.066,0,0.128,0.031,0.168,0.083c0.009,0.013,0.098,0.132,0.164,0.334
				c0.053,0.164,0.077,0.34,0.072,0.52c0.003,0,0.008,0,0.012,0c0.014,0,0.028,0.001,0.043,0.004
				c0.092,0.02,0.158,0.095,0.167,0.186c0.005,0.07,0.007,0.433-0.059,0.841c0.044-0.065,0.126-0.152,0.208-0.21l0.002-1.664
				c0.063-0.92,0.4-1.556,0.749-1.977c0.016-0.02,0.032-0.039,0.049-0.059c0.021-0.025,0.043-0.05,0.064-0.073
				c0.006-0.006,0.012-0.012,0.018-0.018c0.001-0.001,0.003-0.002,0.004-0.003c0.048-0.051,0.095-0.098,0.142-0.142
				c0.459-0.426,0.896-0.619,0.915-0.625c0.139-0.061,0.348-0.067,0.348-0.067s10.075,0.003,10.143,0.011
				c0.111,0.01,0.219,0.031,0.325,0.06c0.432,0.116,1.142,0.678,1.521,1.151c0.287,0.359,0.645,0.992,0.832,1.399
				c0.342,0.748,0.572,1.505,0.703,1.997c0-0.103,0-0.222,0-0.355c0-0.17-0.004-0.37-0.004-0.599c0-0.09,0-0.186,0-0.285
				c-0.001-0.072-0.001-0.149-0.001-0.227c0-0.384,0-0.832,0-1.353c0-2.231-1.69-2.26-1.765-2.261H54.127
				c-0.006,0.02-0.894,1.108-0.894,1.108V35.012z"/>
			<path fill="#BCB21F" d="M49.633,34.708c-0.05-0.274-0.157-0.492-0.181-0.539l-0.002-0.005l-0.003-0.003
				c-0.044-0.104-0.003-0.224,0.098-0.275c0.023-0.012,0.049-0.018,0.076-0.018c0.06,0,0.102,0.03,0.131,0.062
				c-0.069-0.146-0.179-0.302-0.268-0.399c-0.063-0.071-0.071-0.176-0.02-0.256c0.04-0.06,0.104-0.096,0.177-0.096
				c0.021,0,0.044,0.004,0.064,0.011c0.041,0.013,0.334,0.112,0.593,0.297c0.01-0.064,0.047-0.12,0.105-0.153
				c0.031-0.018,0.067-0.028,0.104-0.028c0.041,0,0.082,0.013,0.115,0.035c0.011,0.007,0.125,0.084,0.246,0.234v-0.299
				c0,0-0.834-1.086-0.839-1.108h-2.262v0.591C48.56,33.048,49.36,34.762,49.633,34.708z"/>
			<polygon fill="#BCB21F" points="52.848,33.092 53.587,32.168 50.583,32.168 51.268,33.092 			"/>
			<path fill="#BCB21F" d="M52.844,33.459h-1.576v2.508c0.053-0.107,0.127-0.186,0.22-0.213c0.076-0.022,0.15-0.032,0.222-0.032
				c0.174,0,0.24-0.024,0.393,0.104c0.021-0.061,0.149-0.036,0.229-0.041c0.013-0.064,0.023-0.125,0.028-0.158
				c-0.009-0.06,0.007-0.123,0.049-0.171c0.04-0.047,0.098-0.073,0.159-0.073c0.018,0,0.034,0.002,0.05,0.005
				c0.071,0.018,0.227,0.083,0.227,0.083V33.459z"/>
			<path fill="#BCB21F" d="M70.111,53.666c-0.156,0.483-0.421,1.149-0.984,2.084c-0.777,1.285-1.842,2.531-3.041,3.447
				c-1.01,0.768-2.425,1.459-3.918,1.613c1.375-0.112,2.909-0.313,4.103-0.67c2.271-0.679,3.836-2.03,4.746-3.044
				c1.062-1.177,1.606-2.171,1.852-2.97C71.465,54.377,70.582,54.008,70.111,53.666z"/>
			<path fill="#BCB21F" d="M50.243,44.791c-0.053-0.048-0.128-0.125-0.165-0.155c-0.116,0.163-0.287,0.274-0.421,0.371v11.732
				c0,0.014,0.057,1.654-1.122,2.715c-0.916,0.823-1.434,0.904-1.635,0.893v0.592h1.96c0.004-0.008,1.381-2.118,1.381-2.118
				S50.243,44.796,50.243,44.791z"/>
			<polygon fill="#BCB21F" points="50.757,59.266 49.545,60.938 54.59,60.938 53.367,59.266 			"/>
			<path fill="#BCB21F" d="M52.028,47.421c-0.085-0.004-0.156-0.06-0.187-0.139c-0.417-1.097-0.694-1.488-1.084-1.908v13.439h2.61
				V45.55c-0.862,0.988-1.125,1.763-1.2,1.828c-0.021,0.017-0.045,0.028-0.07,0.035C52.079,47.419,52.028,47.421,52.028,47.421z"/>
			<path fill="#BCB21F" d="M55.615,43.209c2.34-1.116,4.327-1.207,6.255,0.117c-0.044-0.072-0.086-0.139-0.119-0.192
				c-0.026-0.039,0.362-0.13,0.768-0.094c0.421,0.039,0.864,0.204,0.878,0.203c-0.457-0.377-0.502-0.348-0.738-0.492
				c-0.807-0.458-1.666-0.759-2.619-0.922c-0.373-0.055-0.752-0.091-1.144-0.091c-0.517,0-1,0.066-1.546,0.16
				c-2.028,0.351-3.657,1.764-4.483,2.722c-0.019,0.022-0.038,0.046-0.057,0.068c-0.019,0.022-0.039,0.045-0.056,0.067
				c-0.27,0.323-0.443,0.57-0.508,0.665c-0.017,0.026-0.027,0.04-0.029,0.043c-0.011,0.018-0.025,0.034-0.042,0.046
				c-0.021,0.018-0.044,0.031-0.069,0.039c-0.019,0.006-0.037,0.01-0.057,0.01v0.001c0,0,0,0-0.001-0.001
				c-0.002,0-0.004,0.001-0.007,0.001c-0.072,0-0.137-0.035-0.176-0.095c-0.197-0.3-0.596-0.839-0.615-0.862
				c-0.02-0.025-0.781-0.833-0.844-0.875c0.006,0.131-0.037,0.403-0.167,0.632c0.046,0.036,0.103,0.081,0.166,0.135
				c0.023,0.02,0.047,0.042,0.072,0.064c0.026,0.024,0.052,0.049,0.08,0.075c0.422,0.403,1.019,1.061,1.477,2.265
				C52.045,46.87,53.546,44.195,55.615,43.209z"/>
			<path fill="#BCB21F" d="M47.739,44.737c0.273,0.219,1.076,0.387,1.619,0.08c0.879-0.499,0.758-1.214,0.753-1.245
				c-0.07-0.391-0.346-0.491-0.416-0.524c-0.313-0.143-0.521-0.118-0.798,0.072c-0.229,0.156-0.362,0.378-0.362,0.528
				c0,0.259,0.086,0.474,0.135,0.521c0.015,0.001,0.031,0.009,0.042,0.021c0.026,0.027,0.026,0.071-0.001,0.098
				c-0.015,0.016-0.034,0.023-0.056,0.023c-0.009,0-0.019-0.001-0.029-0.004c-0.083-0.03-0.32-0.227-0.357-0.498
				c-0.032-0.237,0.05-0.651,0.434-0.913c0.552-0.38,1.112-0.111,1.359,0.081c0.078,0.047,0.726,0.63,1.208,1.172
				c0.45,0.504,0.737,0.968,0.772,1.021c0.018-0.026,1.887-3.144,5.199-3.669c2.865-0.453,5.091,0.248,6.912,1.83
				c0.544,0.472,1.132,1.054,1.414,1.663c1.231-0.691,2.291-0.216,2.332-0.199c-0.326-0.279-1.129-0.879-1.451-1.127
				c-0.873-0.669-1.736-1.233-2.645-1.723c-0.395-0.214-0.813-0.391-1.243-0.534c-0.32-0.106-0.649-0.196-0.981-0.268
				c-0.107-0.024-0.215-0.046-0.322-0.065c-0.004-0.001-0.006-0.001-0.009-0.003c-0.039-0.006-0.075-0.012-0.111-0.02
				c-0.026-0.003-0.052-0.008-0.077-0.013c-1.677-0.28-3.412-0.175-4.778,0.094c-0.112,0.022-0.223,0.045-0.33,0.07
				c-0.068,0.014-0.135,0.031-0.202,0.046c-1.129,0.279-2.075,0.759-2.723,1.157c-0.018,0.011-0.038,0.023-0.057,0.035
				c-0.034,0.021-0.069,0.043-0.102,0.063c0.092,0.147,0.143,0.319,0.143,0.504c0,0.534-0.435,0.969-0.968,0.969
				s-0.968-0.436-0.968-0.969c0-0.282,0.121-0.536,0.314-0.713c-0.082-0.087-0.172-0.175-0.271-0.26
				c-0.717-0.624-1.461-0.85-2.212-0.672c-0.279,0.066-0.534,0.17-0.762,0.303c-0.124,0.073-0.239,0.155-0.346,0.246
				c-0.349,0.295-0.594,0.676-0.689,1.106C46.958,43.673,47.189,44.3,47.739,44.737z"/>
			<path fill="#BCB21F" d="M52.326,42.472c-0.086-0.046-0.183-0.071-0.286-0.071c-0.031,0-0.061,0.003-0.09,0.007
				c-0.042,0.005-0.082,0.018-0.121,0.031c-0.233,0.086-0.399,0.31-0.399,0.572c0,0.336,0.274,0.609,0.61,0.609
				c0.335,0,0.61-0.273,0.61-0.609c0-0.188-0.086-0.356-0.221-0.468C52.397,42.515,52.363,42.492,52.326,42.472z M52.04,43.375
				c-0.201,0-0.365-0.164-0.365-0.364c0-0.201,0.164-0.366,0.365-0.366c0.201,0,0.364,0.165,0.364,0.366
				C52.404,43.211,52.241,43.375,52.04,43.375z"/>
			<path fill="#BCB21F" d="M68.551,49.983c0-0.251-0.148-0.466-0.363-0.564c-0.079-0.036-0.165-0.056-0.256-0.056
				c-0.18,0-0.339,0.076-0.453,0.198c-0.103,0.111-0.166,0.258-0.166,0.422c0,0.343,0.277,0.62,0.619,0.62
				C68.275,50.603,68.551,50.326,68.551,49.983z M67.932,50.39c-0.223,0-0.406-0.183-0.406-0.407c0-0.223,0.184-0.406,0.406-0.406
				s0.406,0.183,0.406,0.406C68.338,50.207,68.154,50.39,67.932,50.39z"/>
			<path fill="#BCB21F" d="M68.261,51.914c-0.063-0.561-0.198-0.864-0.237-0.957c-0.047,0.007-0.04-0.006-0.092-0.006
				c-0.533,0-0.969-0.434-0.969-0.968c0-0.191,0.055-0.37,0.152-0.519c0.002-0.006,0.006-0.011,0.01-0.016
				c-0.326-0.179-1.838-0.914-3.338-0.063c-0.342,0.192-0.635,0.417-0.877,0.67c-0.357,0.372-0.607,0.804-0.73,1.281
				c-0.197,0.756-0.055,1.574,0.391,2.305c0.363,0.593,1.254,1.215,2.252,1.259c0.545,0.025,1.172,0.094,1.844-0.943
				c0.615-0.949,0.393-1.718-0.158-2.127c-0.574-0.426-1.345-0.339-1.74,0.105c-0.141,0.159-0.246,0.511-0.246,0.897
				c0,0.134,0.04,0.308,0.123,0.413c-0.002-0.031-0.006-0.061-0.006-0.092c0-0.329,0.268-0.596,0.596-0.596
				c0.176,0,0.336,0.079,0.445,0.201c0.188,0.16,0.243,0.522,0.127,0.829c-0.076,0.201-0.342,0.662-1.158,0.63
				c-0.803-0.033-1.492-0.726-1.672-1.686c-0.156-0.832,0.106-1.908,1.314-2.434c1.056-0.46,1.867-0.157,2.361,0.178
				c1.317,0.898,1.398,2.396,1.402,2.445c0.015,0.265,0.016,0.372-0.023,0.65C68.266,52.673,68.305,52.303,68.261,51.914z"/>
			<path fill="#BCB21F" d="M59.599,60.003c1.876-0.234,3.688-0.939,5.063-2.1c1.54-1.296,2.328-2.299,2.739-3.118
				c0.001-0.003,0.001-0.006,0.001-0.009c0.013-0.025,0.027-0.048,0.037-0.074c0.398-0.938,0.361-1.582,0.258-2.127
				c-0.135-0.709-0.258-1.202-1.154-1.87c-0.373-0.277-0.938-0.564-1.969-0.211c-0.784,0.27-1.261,1.144-1.202,1.917
				c0.053,0.688,0.605,1.606,1.396,1.577c0.367-0.014,0.777-0.308,0.693-0.689c-0.1-0.445-0.51-0.098-0.531-0.128
				c0.338,0.243-0.257,0.6-0.545,0.22c-0.313-0.413-0.186-1.204,0.102-1.59c0.516-0.694,1.586-0.676,2.215-0.21
				c0.578,0.43,1.062,1.385,0.198,2.678c-0.308,0.46-0.69,0.698-1.308,1c-1.4,2.365-3.209,3.518-5.858,4.224
				c-1.067,0.284-1.924,0.361-2.548,0.376c-0.34,0.008-0.34,0.008-0.705-0.041C57.359,60.088,58.29,60.167,59.599,60.003z"/>
			<path fill="#BCB21F" d="M73.648,46.939c-0.083-0.044-0.17-0.085-0.256-0.124c-0.15-0.065-0.303-0.123-0.461-0.168
				c-0.154-0.045-0.313-0.081-0.477-0.105c-0.177-0.026-0.354-0.039-0.539-0.039c-0.738,0-1.44,0.226-2.027,0.621
				c-0.408,0.272-0.758,0.625-1.029,1.04c-0.157,0.241-0.285,0.502-0.384,0.781c-0.024,0.064-0.045,0.131-0.059,0.202
				c0.288,0.167,0.499,0.428,0.522,0.85c0.02,0.364-0.211,0.722-0.563,0.867c0.096,0.797,0.468,1.468,0.971,1.922
				c-0.42-0.713-0.537-1.852-0.244-2.855c0.232-0.805,0.921-2.232,2.904-2.407c0.744-0.067,1.49,0.183,2.053,0.696
				c0.578,0.529,0.854,1.329,0.896,2.052c0.088,1.481-1.095,2.639-2.521,2.545c-1.037-0.069-1.675-0.899-1.675-1.863
				c0-0.539,0.24-1.065,0.642-1.412c0.332-0.285,0.74-0.409,1.147-0.348c0.233,0.036,0.588,0.185,0.79,0.395
				c0.236,0.245,0.367,0.569,0.367,0.911c-0.002,0.75-0.392,1.305-1.166,1.281c-0.328-0.011-0.596-0.268-0.596-0.597
				c0-0.334,0.366-0.715,0.726-0.577c0.333,0.128,0.22,0.659-0.151,0.511c0.009,0.322,0.406,0.199,0.574,0.067
				c0.407-0.318,0.35-0.927,0.016-1.26c-0.173-0.176-0.305-0.211-0.491-0.258c-0.606-0.151-1.033,0.186-1.289,0.711
				c-0.451,0.927,0.192,2.044,1.219,2.054c1.146,0.011,2.05-0.815,2.05-2.087c0-0.684-0.188-1.277-0.737-1.78
				c-0.53-0.486-1.03-0.671-1.733-0.61c-1.9,0.169-2.285,1.27-2.508,2.04c-0.355,1.213-0.13,2.426,0.563,3.024
				c0.572,0.494,1.082,0.743,1.752,0.743c0.393,0,0.754-0.027,1.111-0.143c0.034-0.013,0.072-0.024,0.105-0.038
				c0.025-0.008,0.049-0.018,0.074-0.027c1.368-0.526,2.341-1.854,2.341-3.405C75.565,48.765,74.789,47.558,73.648,46.939z"/>
			<path fill="#BCB21F" d="M67.383,57.348c0.081-0.091,0.16-0.184,0.238-0.275c0.076-0.092,0.15-0.184,0.223-0.274
				c1.063-1.355,1.771-3.061,1.832-3.401c-0.004-0.002-0.34-0.231-0.531-0.422c-0.256-0.279-0.4-0.363-0.584-0.703
				c0.043,0.673-0.271,1.856-0.798,2.705c-0.526,0.847-1.165,1.828-2.71,3.129c-1.312,1.107-3.555,2.339-6.701,2.339
				c-1.219,0-2.218-0.386-2.809-0.934c-1.162-1.078-1.12-2.7-1.12-2.717c0,0,0.002-12.244,0.005-12.251
				c-0.148,0.127-0.584,0.592-0.584,0.594v13.682l0.365,0.526l1.126,1.593c0,0,3.964,0.036,4.35,0.003
				c1.777-0.159,4.192-0.651,6.059-2.075C66.383,58.379,66.924,57.865,67.383,57.348z"/>
		</g>
		<g>
			<path fill="#BCB21F" d="M63.107,45.995c-0.16,0.014-0.831,0.119-1.165,0.463c0.126-0.022,0.468,0.017,0.47,0.046
				c0.004,0.031-0.293,0.129-0.748,0.623c0.07-0.02,0.21-0.007,0.221,0.022c0.01,0.031-0.37,0.387-0.541,0.724
				c0.099-0.072,0.27-0.076,0.283-0.056c0.016,0.02-0.129,0.411-0.333,0.858c0.235-0.193,0.604-0.546,0.88-1.067
				c0.087-0.161,0.162-0.308,0.227-0.438c0.043-0.084,0.081-0.162,0.121-0.234c0.017-0.042,0.035-0.076,0.055-0.104
				c0.016-0.027,0.03-0.054,0.044-0.078h-0.001c0.129-0.179,0.346-0.46,0.522-0.407C63.123,46.126,63.107,46.108,63.107,45.995z"/>
			<polygon fill="#BCB21F" points="62.251,45.069 62.251,45.069 62.251,45.069 			"/>
			<path fill="#BCB21F" d="M65.096,45.262c-0.235-0.786-0.863-1.325-0.955-1.416v0.227c0,0.031-0.021,0.059-0.052,0.067
				s-0.063-0.005-0.079-0.034c-0.022-0.042-0.494-0.559-0.504-0.567v0.199c0,0.031-0.021,0.058-0.053,0.067
				c-0.028,0.01-0.059-0.004-0.076-0.029c-0.323-0.427-0.875-0.442-0.973-0.489l0.448,0.352c0.876,0.729,1.304,1.607,1.305,1.658
				c0.089-0.479,0.457,0.095,0.458,0.095c0.082,0.124,0.164,0.321,0.174,0.34C64.832,45.632,65.037,45.359,65.096,45.262z"/>
			<path fill="#BCB21F" d="M63.549,47.16c-0.199-0.157-0.322-0.377-0.364-0.563c-0.063-0.035-0.206,0.052-0.206,0.047
				c-0.021,0.031-0.112,0.053-0.299,0.393c-0.023,0.047-0.287,0.617-0.313,0.668c-0.312,0.583-0.726,0.924-0.968,1.112
				c0.167-0.046,0.281-0.083,0.41-0.094c0.021-0.003,0.045,0.006,0.059,0.024c0.014,0.017,0.02,0.041,0.014,0.062
				c-0.002,0.011-0.056,0.228-0.175,0.397c0.706-0.242,0.61-0.541,0.847-0.57c0.256-0.032,0.261,0.265,0.314,0.269
				c0.048-0.363,0.133-0.715,0.225-0.995C63.22,47.524,63.352,47.321,63.549,47.16z"/>
			<path fill="#BCB21F" d="M63.431,45.326c-0.009,0.086-0.087,0.406,0.058,0.935c0.008,0.029,0.021,0.059,0.004,0.084
				c-0.018,0.026-0.051,0.038-0.08,0.026l-0.111-0.036c0.008,0.056,0.003,0.103,0.043,0.214c0.053,0.116,0.154,0.337,0.355,0.482
				c0.212-0.149,0.468-0.273,0.6-0.316c-0.017-0.017-0.227-0.247-0.422-0.54C63.635,45.813,63.445,45.415,63.431,45.326z"/>
			<path fill="#BCB21F" d="M64.375,45.496c-0.004,0.023-0.08,0.265-0.088,0.369c-0.279-0.516-0.592-0.548-0.698-0.592
				c0.049,0.117,0.239,0.521,0.476,0.821c0.129,0.165,0.355,0.438,0.365,0.446c0.045-0.281,0.074-0.391,0.209-0.599
				C64.559,45.798,64.449,45.591,64.375,45.496z"/>
			<path fill="#BCB21F" d="M62.223,43.375c-0.093,0.184,0.184,0.555,0.172,0.571c-0.177-0.026-0.333-0.104-0.333-0.104
				c0.026,0.026,0.245,0.615,0.587,0.788c-0.229-0.086-0.453-0.197-0.5-0.217c0.08,0.197,0.219,0.509,0.492,0.792
				c0.002,0.002-0.309-0.063-0.309-0.063c0.061,0.176,0.137,0.468,0.422,0.623c0.176,0,0.258-0.003,0.326-0.01
				c-0.006-0.024,0-0.726,0.307-0.858c0.09-0.039,0.192-0.004,0.316,0.114c0.018-0.082-0.197-0.328-0.512-0.703
				C62.805,43.849,62.28,43.42,62.223,43.375z"/>
			<path fill="#BCB21F" d="M72.402,43.958c-0.005,0.222-0.166,0.601-0.271,0.843c-0.005-0.017-0.009-0.031-0.009-0.037l-0.135-0.343
				c-0.063,0.26-0.137,0.756-0.112,0.947c0.003,0.026-0.01,0.054-0.034,0.068c-0.023,0.013-0.053,0.013-0.078-0.003
				c-0.021-0.017-0.195-0.139-0.305-0.283c-0.031,0.088-0.289,0.408-0.316,0.533c0.213,0.228,0.247,0.363,0.42,0.586
				c0.044-0.001,0.313-0.046,0.354-0.046c0.077,0,0.149,0.003,0.223,0.007C72.715,45.549,72.503,44.372,72.402,43.958z"/>
			<path fill="#BCB21F" d="M63.477,39.957c0.018,0.112,0.044,0.325,0.043,0.331c-0.004,0.028-0.023,0.05-0.051,0.058
				c-0.025,0.008-0.055,0-0.072-0.021c-0.177-0.207-0.572-0.393-0.78-0.321c0.063,0.128,0.072,0.273,0.072,0.284
				c0.003,0.025-0.011,0.049-0.032,0.063c-0.021,0.013-0.049,0.013-0.07,0.001c-0.354-0.196-0.772-0.123-1.17,0.053
				c0.246-0.019,1.061,0.081,1.676,0.339c0.467,0.196,0.797,0.376,0.863,0.443c0.134-0.192,0.327-0.285,0.327-0.285
				s0.116,0.184,0.147,0.229c0.023-0.082,0.123-0.231,0.165-0.304C64.518,40.356,63.771,40.056,63.477,39.957z"/>
			<path fill="#BCB21F" d="M65.963,40.21c-0.23-0.035-1.028,0.114-1.441,1.168c-0.01,0.024-0.02,0.048-0.044,0.058
				c-0.023,0.011-0.052,0.005-0.071-0.011c-0.006-0.004-0.076-0.065-0.127-0.163c-0.109,0.038-0.328,0.29-0.313,0.468
				c0.135,0.076,0.447,0.23,0.58,0.309C64.57,41.996,65.427,40.625,65.963,40.21z"/>
			<path fill="#BCB21F" d="M65.855,40.997c0.019-0.105,0.09-0.426,0.119-0.587c-0.193,0.229-0.628,0.771-0.879,1.103
				c0.001,0,0.001,0,0.002,0c-0.18,0.244-0.33,0.469-0.4,0.62c0.008,0.005,0.017,0.01,0.025,0.015
				c0.053-0.103,0.143-0.213,0.301-0.274c0.313-0.121,0.588-0.025,0.824,0.167c0.182-0.309,0.225-0.811,0.229-1.064
				C66.059,40.977,65.846,41.055,65.855,40.997z"/>
			<path fill="#BCB21F" d="M66.982,43.719c0.078-0.225,0.24-0.626,0.422-0.941c0.004-0.454-0.133-0.606-0.277-0.751
				c-0.145-0.148-0.334-0.238-0.506-0.238l0,0c-0.399,0-0.555,0.243-0.605,0.33c0.229,0.15,0.381,0.396,0.527,0.616
				c0.228,0.343,0.285,0.713,0.361,0.914C66.965,43.697,66.918,43.667,66.982,43.719z M66.86,41.987
				c0.151,0.067,0.2,0.288,0.16,0.376c-0.038,0.089-0.192,0.076-0.345,0.008c-0.152-0.067-0.242-0.161-0.203-0.251
				C66.506,42.051,66.673,41.904,66.86,41.987z"/>
			<path fill="#BCB21F" d="M63.818,41.395c-0.094-0.287-1.535-0.796-2.396-0.862c0.029,0.102,0.433,0.381,0.429,0.385
				c0.237,0.058,0.747,0.216,1.028,0.307c0.311,0.112,0.557,0.209,0.858,0.364C63.741,41.571,63.819,41.396,63.818,41.395z"/>
			<path fill="#BCB21F" d="M73.542,45.771c-0.09,0.065-0.177,0.099-0.185,0.102c-0.025,0.008-0.052,0.003-0.072-0.015
				c-0.018-0.018-0.025-0.046-0.018-0.071c0.106-0.351,0.07-0.686,0.021-0.899c-0.073,0.05-0.309,0.105-0.313,0.108
				c-0.021,0.009-0.047,0.007-0.064-0.005c-0.02-0.012-0.033-0.033-0.033-0.056c-0.016-0.355-0.149-0.854-0.371-0.972
				c0.1,0.164,0.156,0.571,0.173,0.87c0.013,0.204-0.014,0.606-0.036,0.795c-0.061,0.25-0.176,0.463-0.318,0.618
				c0.238,0.025,0.469,0.071,0.691,0.137l0.002-0.001c0.145,0.049,0.424,0.15,0.542,0.204C73.613,46.34,73.553,45.942,73.542,45.771
				z"/>
			<path fill="#BCB21F" d="M70.938,45.503c0.02-0.074,0.451-0.673,0.49-0.677c0.034-0.003,0.087,0.039,0.098,0.07
				c0.02,0.064,0.077,0.114,0.118,0.21c0.014-0.325-0.069-0.604-0.239-0.786c-0.134-0.144-0.312-0.22-0.519-0.216
				c-0.217,0.004-0.607,0.44-0.939,0.854C70.415,45.039,70.895,45.464,70.938,45.503z M71.059,44.274
				c0.154,0.052,0.222,0.261,0.192,0.352c-0.032,0.091-0.185,0.091-0.338,0.04c-0.153-0.051-0.25-0.133-0.22-0.225
				C70.717,44.37,70.867,44.211,71.059,44.274z"/>
			<path fill="#BCB21F" d="M69.149,44.263c-0.433-0.056-0.674,0.409-0.774,0.666c0.049,0.044,0.1,0.089,0.146,0.135
				c0.227-0.115,0.674-0.188,1.133-0.142C69.587,44.63,69.389,44.295,69.149,44.263z M69.064,44.339
				c0.137,0,0.247,0.152,0.246,0.231c0,0.082-0.123,0.122-0.26,0.121c-0.138-0.001-0.236-0.043-0.235-0.124
				C68.815,44.505,68.895,44.336,69.064,44.339z"/>
			<path fill="#BCB21F" d="M69.256,43.024c-0.215-0.052-0.348-0.041-0.516,0.104c-0.283,0.244-0.258,0.704-0.223,1.149
				c0.203-0.323,0.408-0.264,0.706-0.227c0.306,0.041,0.593,0.297,0.614,0.73c0.023-0.082,0.109-0.223,0.432-0.489
				c-0.01-0.054-0.029-0.156-0.059-0.23C69.959,43.456,69.626,43.112,69.256,43.024z M68.981,43.133
				c0.178-0.043,0.369,0.119,0.393,0.224c0.025,0.104-0.121,0.196-0.299,0.238c-0.179,0.041-0.322,0.02-0.347-0.086
				C68.709,43.428,68.762,43.184,68.981,43.133z"/>
			<path fill="#BCB21F" d="M68.109,44.688l0.039,0.037c0.042,0.035,0.08,0.069,0.117,0.103c0.005-0.014-0.025-0.047-0.019-0.063
				c-0.022-0.176-0.192-1.415,0.245-1.792c0.064-0.056,0.2-0.109,0.274-0.141c0.011-0.12,0.019-0.432-0.335-0.536
				c-0.549-0.161-0.973,0.995-1.191,1.62C67.559,44.173,67.787,44.398,68.109,44.688L68.109,44.688z M68.381,42.404
				c0.148,0.035,0.23,0.225,0.209,0.312c-0.02,0.087-0.162,0.101-0.31,0.067c-0.149-0.034-0.248-0.103-0.228-0.191
				C68.069,42.524,68.196,42.361,68.381,42.404z"/>
			<path fill="#BCB21F" d="M65.094,42.379c0.516,0.326,0.922,0.592,1.432,0.985c-0.068-0.166-0.087-0.229-0.201-0.422
				c-0.455-0.776-0.813-0.958-1.229-0.797c-0.123,0.047-0.146,0.042-0.186,0.124c0.029,0.018,0.086,0.05,0.086,0.05L65.094,42.379z"
				/>
			<path fill="#BCB21F" d="M66.875,48.039c-0.182-0.294-0.359-0.52-0.516-0.664c-0.004,0-0.004-0.001-0.005-0.002
				c-0.116-0.104-0.222-0.164-0.312-0.175c-0.078-0.01-0.146,0.015-0.209,0.077c-0.05,0.051-0.07,0.107-0.064,0.174
				c0.015,0.144,0.162,0.339,0.408,0.552c0.068,0.05,0.135,0.102,0.195,0.155c0.064,0.047,0.133,0.095,0.205,0.144
				C66.666,48.199,66.766,48.112,66.875,48.039z"/>
			<path fill="#BCB21F" d="M67.359,47.809c-0.063-0.434-0.21-0.963-0.434-1.101c-0.061-0.037-0.123-0.043-0.193-0.018
				c-0.002,0.001-0.016,0.007-0.021,0.008c-0.065,0.031-0.105,0.08-0.126,0.149c-0.063,0.25,0.188,0.715,0.455,1.081
				C67.143,47.877,67.25,47.837,67.359,47.809z"/>
			<path fill="#BCB21F" d="M67.912,47.762c0.111-0.424,0.182-0.969,0.029-1.18c-0.043-0.059-0.099-0.09-0.17-0.093
				c-0.006,0-0.02-0.001-0.023-0.001c-0.074,0.003-0.129,0.032-0.174,0.09c-0.154,0.207-0.104,0.732,0.002,1.172
				C67.69,47.742,67.803,47.746,67.912,47.762z"/>
			<path fill="#BCB21F" d="M68.436,47.94c0.241-0.365,0.481-0.859,0.406-1.109c-0.021-0.068-0.064-0.114-0.133-0.142
				c-0.003-0.001-0.018-0.007-0.022-0.008c-0.069-0.02-0.132-0.01-0.19,0.029c-0.213,0.146-0.334,0.66-0.377,1.112
				C68.229,47.848,68.336,47.89,68.436,47.94z"/>
			<path fill="#BCB21F" d="M71.066,46.318c-0.008-0.01-0.721-1.184-2.192-1.012c-0.049,0.006-0.095,0.016-0.136,0.025
				c-0.041,0.008-0.078,0.018-0.11,0.028c-0.001,0-0.004,0.001-0.009,0.003c-0.076,0.022-0.086,0.033-0.102,0.04
				c-0.008,0.004-0.082,0.516-0.105,0.956c0.084-0.044,0.177-0.054,0.274-0.026c0.136,0.036,0.229,0.116,0.28,0.236
				c0.031,0.071,0.045,0.155,0.041,0.245c0.172-0.206,0.305-0.399,0.346-0.507c-0.027,0.01-0.061,0.017-0.096,0.013
				c-0.098-0.008-0.184-0.077-0.258-0.203c-0.023-0.029-0.106-0.145-0.082-0.275c0.016-0.082,0.072-0.149,0.166-0.198
				c0.049-0.027,0.1-0.044,0.154-0.057c0.061-0.013,0.123-0.017,0.185-0.01c0.063,0.007,0.126,0.026,0.183,0.055
				c0.011,0.005,0.021,0.012,0.03,0.018c0.05,0.031,0.091,0.069,0.123,0.115c0.044,0.06,0.073,0.129,0.078,0.208
				c0.028,0.564-0.38,0.868-0.64,1.208c-0.166,0.188-0.379,0.465-0.505,0.73c0.239-0.338,0.528-0.635,0.855-0.882
				c0.003-0.003,0.01-0.007,0.01-0.006C69.961,46.753,70.588,46.425,71.066,46.318z"/>
			<path fill="#BCB21F" d="M66.821,48.508c-0.009,0.008-0.165,0.257-0.212,0.381c0.365,0.101,0.412,0.191,0.578,0.275
				c0.203-0.185,0.468-0.29,0.744-0.29c0.087,0,0.174,0.01,0.259,0.032c0.096-0.28,0.164-0.375,0.314-0.621
				C67.85,47.98,67.361,47.945,66.821,48.508z"/>
			<path fill="#BCB21F" d="M66.256,48.253c-0.061-0.043-0.122-0.089-0.184-0.139c-0.101-0.072-0.205-0.141-0.309-0.191
				c0,0,0,0-0.002,0c-0.131-0.063-0.252-0.101-0.352-0.086c-0.069,0.01-0.119,0.045-0.156,0.107
				c-0.043,0.077-0.051,0.149-0.024,0.223c0.075,0.188,0.39,0.386,0.876,0.556c0.064,0.01,0.13,0.021,0.193,0.036
				c0.041-0.117,0.094-0.228,0.163-0.331C66.41,48.382,66.34,48.32,66.256,48.253z"/>
			<path fill="#BCB21F" d="M64.464,47.043c-0.028,0.008-0.087,0.017-0.236,0.111c-0.155,0.097-0.331,0.264-0.522,0.487
				c-0.508,0.597-0.326,1.636-0.401,1.721c0.04-0.024,0.304-0.198,0.345-0.222c0.282-0.161,0.942-0.44,1.391-0.422
				c-0.448-0.088-1.021-0.212-1.137-0.372c-0.088-0.124-0.111-0.268-0.061-0.408c0.056-0.166,0.205-0.298,0.389-0.348
				c0.1-0.026,0.187-0.016,0.256,0.034c0.105,0.079,0.124,0.22,0.127,0.255c0.031,0.145,0.017,0.252-0.049,0.325
				c-0.023,0.026-0.055,0.045-0.081,0.057c0.103,0.049,0.333,0.103,0.601,0.136c-0.064-0.066-0.111-0.135-0.14-0.208
				c-0.043-0.124-0.028-0.245,0.045-0.364c0.063-0.105,0.155-0.164,0.274-0.179c0.002,0,0.002,0,0.002,0
				C64.908,47.336,64.475,47.042,64.464,47.043z"/>
			<path fill="#BCB21F" d="M68.166,45.309c-0.438-0.326-2.52-0.65-3.271,0.907c-0.021,0.046-0.045,0.089-0.063,0.131
				c-0.025,0.059-0.046,0.112-0.063,0.16c-0.054,0.161-0.07,0.273-0.073,0.299c0,0.002,0.003,0.007,0.003,0.012
				c0.003,0.013,0.47,0.318,0.788,0.583c0-0.005-0.003-0.009-0.003-0.013c-0.01-0.117,0.027-0.22,0.114-0.306
				c0.099-0.1,0.216-0.143,0.346-0.126c0.077,0.01,0.154,0.041,0.23,0.086c-0.093-0.249-0.192-0.46-0.266-0.551
				c-0.005,0.029-0.017,0.06-0.038,0.091c-0.055,0.078-0.156,0.119-0.303,0.121c-0.035,0.005-0.179,0.02-0.279-0.067
				c-0.063-0.055-0.092-0.136-0.09-0.241c0.008-0.186,0.104-0.363,0.25-0.458c0.125-0.078,0.273-0.09,0.412-0.03
				c0.203,0.083,0.412,0.286,0.646,0.611c0.025-0.022,0.055-0.042,0.088-0.057c0.008-0.002,0.031-0.012,0.036-0.014
				c0.036-0.013,0.072-0.02,0.106-0.022c-0.061-0.397-0.049-0.688,0.034-0.889c0.052-0.124,0.145-0.21,0.266-0.251
				c0.015-0.006,0.033-0.01,0.052-0.014c0.135-0.028,0.279,0.003,0.402,0.078c0.033,0.022,0.068,0.046,0.098,0.075
				c0.074,0.073,0.109,0.152,0.103,0.237c-0.011,0.132-0.124,0.221-0.153,0.242c-0.105,0.1-0.205,0.144-0.301,0.125
				c-0.037-0.007-0.067-0.022-0.091-0.041c0.011,0.116,0.087,0.341,0.194,0.583c0.023-0.087,0.059-0.164,0.105-0.225
				c0.082-0.102,0.196-0.155,0.335-0.151c0.101,0.001,0.235,0.084,0.304,0.146C68.119,45.895,68.166,45.309,68.166,45.309z"/>
		</g>
	</g>
</g>
</svg>
