<?xml version="1.0" encoding="utf-8"?>
<!-- Generator: Adobe Illustrator 16.0.3, SVG Export Plug-In . SVG Version: 6.00 Build 0)  -->
<!DOCTYPE svg PUBLIC "-//W3C//DTD SVG 1.1//EN" "http://www.w3.org/Graphics/SVG/1.1/DTD/svg11.dtd">
<svg version="1.1" id="Layer_1" xmlns="http://www.w3.org/2000/svg" xmlns:xlink="http://www.w3.org/1999/xlink" x="0px" y="0px"
	 width="119.189px" height="128px" viewBox="0 0 119.189 128" enable-background="new 0 0 119.189 128" xml:space="preserve">
<path fill="#A7A9AC" d="M24.376,0.16c7.549-1.432,12.498,7.08,16.265,12.955c3.665,5.71,8.171,12.397,6.353,19.824
	c-1.015,4.165-4.778,6.438-7.625,8.897c-2.81,2.421-7.086,4.647-8.125,8.375c-1.696,6.046,2.014,12.397,4.307,16.018
	c5.219,8.164,11.522,15.528,19.574,22.097c3.897,3.198,9.313,7.448,14.732,6.357c8.103-1.636,10.239-11.631,19.058-12.96
	c8.392-1.268,14.073,4.813,18.813,8.892c4.568,3.949,11.938,9.001,11.438,15.762c-0.296,3.881-3.409,6.296-6.114,8.643
	c-2.75,2.397-5.153,5.085-7.869,6.853c-6.579,4.295-14.642,6.397-23.892,6.102c-9.074-0.278-16.308-3.357-22.87-6.857
	c-12.826-6.841-22.966-16.467-32.517-27.193C16.507,83.37,7.834,70.888,3.036,57.086c-5.986-17.238-2.821-34.943,6.87-45.989
	c1.636-1.875,4.224-3.841,6.596-5.852C18.863,3.228,21.056,0.785,24.376,0.16z"/>
</svg>
